<svg width="125" height="30" viewBox="0 0 125 30" fill="none" xmlns="http://www.w3.org/2000/svg">
<g clip-path="url(#clip0_1_2)">
<path d="M0.300003 0.00991209C0.300003 0.0199121 0.680003 0.779951 1.14 1.69995L1.98 3.37993L12.9 3.38999C25.08 3.39999 24.1 3.37999 25.4 3.63999C27.14 3.98999 28.45 4.64999 29.45 5.68999C30.37 6.62999 30.9 7.79991 31.09 9.25991C31.16 9.78991 31.17 10.91 31.11 11.39C30.91 12.92 30.38 14.13 29.46 15.09C28.05 16.57 26.01 17.3199 23.05 17.4299C22.72 17.4399 22.45 17.46 22.45 17.47C22.45 17.48 24.42 20.3 26.82 23.74L31.19 29.99H33.32C35.01 29.99 35.44 29.98 35.42 29.94C35.41 29.92 33.81 27.6599 31.87 24.9099C29.93 22.1699 28.35 19.91 28.35 19.9C28.35 19.88 28.5 19.8199 28.67 19.7599C31.84 18.6099 33.96 16.3699 34.76 13.3099C35.19 11.6599 35.24 9.67993 34.88 7.92993C34.02 3.72993 30.64 0.909931 25.59 0.179931C24.31 -0.0100684 25.17 0.00999022 12.24 -0.0100098C5.67 -9.77796e-06 0.300003 -8.79038e-05 0.300003 0.00991209Z" fill="white"/>
<path d="M9.92 9.52988C8.29 11.5299 6.95 13.1799 6.94 13.1899C6.94 13.2099 7.22 13.7899 7.58 14.4999L8.23 15.7799L9.23 15.7999C11.15 15.8499 12.15 15.9799 13.26 16.3499C14.72 16.8299 15.71 17.5799 16.37 18.6999C17.18 20.0799 17.23 22.1999 16.5 23.6699C16.1 24.4699 15.45 25.1899 14.67 25.6699C14.46 25.7999 13.64 26.1999 13.58 26.1999C13.56 26.1999 13.53 26.2199 13.52 26.2299C13.5 26.2599 15.04 29.3399 15.11 29.4199C15.17 29.4899 16.26 28.9899 16.87 28.6099C18.31 27.7299 19.33 26.6499 20.03 25.2699C21.34 22.6999 21.27 19.2899 19.86 16.9499C19.27 15.9799 18.4 15.0899 17.41 14.4499C16.07 13.5799 14.12 12.9699 12.11 12.7799C11.85 12.7599 11.65 12.7299 11.65 12.7099C11.65 12.6999 12.88 11.1799 14.39 9.32988C15.9 7.47988 17.13 5.95988 17.13 5.92988C17.13 5.90988 16.31 5.8999 15.01 5.8999H12.89L9.92 9.52988Z" fill="white"/>
<path d="M48.4 9.22993V9.80991H50.96C52.36 9.80991 53.64 9.79998 53.78 9.78998L54.05 9.76996L53.68 10.17C53.47 10.39 52.65 11.34 51.85 12.28C51.05 13.22 50.37 14.02 50.34 14.04C50.31 14.08 50.32 14.16 50.46 14.47L50.62 14.85H51.26C51.95 14.85 52.32 14.9 52.73 15.04C53.67 15.36 54.32 16 54.52 16.83C54.6 17.16 54.6 17.7999 54.52 18.1099C54.38 18.6399 54.08 19.11 53.66 19.45C52.69 20.25 51.36 20.3399 50.06 19.7099C49.59 19.4799 49.19 19.2199 48.86 18.9099L48.6 18.67L48.21 19.15L47.82 19.63L47.97 19.78C48.65 20.49 49.83 21.09 50.91 21.28C51.38 21.36 52.2 21.36 52.62 21.28C53.5 21.11 54.15 20.7699 54.75 20.1599C55.41 19.4999 55.77 18.74 55.85 17.83C55.96 16.67 55.6 15.6199 54.86 14.9099C54.32 14.3899 53.44 13.99 52.51 13.84L52.05 13.7599L53.88 11.64L55.71 9.51996V9.09995V8.67993H52.06H48.4V9.22993Z" fill="white"/>
<path d="M66.08 14.89V21.1299H66.69H67.3V18.5099V15.89L68.86 15.8999L70.41 15.9099L71.8 18.5099L73.19 21.1099L73.91 21.1199C74.31 21.1199 74.63 21.1199 74.63 21.0999C74.63 21.0399 71.93 16.0699 71.77 15.8299L71.61 15.59L71.87 15.4999C72.57 15.2499 73.23 14.63 73.59 13.89C74.13 12.76 74.09 11.2499 73.49 10.2299C73.34 9.96992 72.94 9.54994 72.66 9.34994C72.23 9.03994 71.67 8.83998 70.97 8.73998C70.78 8.70998 69.87 8.68992 68.38 8.67992L66.08 8.65991V14.89ZM70.93 9.88998C71.75 10.08 72.37 10.6799 72.6 11.5199C72.68 11.8299 72.68 12.5899 72.6 12.9299C72.43 13.6399 71.95 14.2399 71.34 14.5199C70.88 14.7399 70.87 14.7399 69.01 14.7499L67.31 14.7599V12.2799V9.78998L69 9.80991C70.4 9.82991 70.71 9.83998 70.93 9.88998Z" fill="white"/>
<path d="M84.35 14.89V21.1299H88.04H91.73V20.5499V19.9699H88.67H85.6V17.6799V15.39H87.96H90.32V14.8299V14.2699H87.96H85.6V12.0299V9.78994H88.48H91.36V9.20987V8.62988H87.85H84.34V14.89H84.35Z" fill="white"/>
<path d="M101.64 14.89V21.1299H102.27H102.9V14.89V8.6499H102.27H101.64V14.89Z" fill="white"/>
<path d="M113.86 14.89V21.13H114.47H115.08V16.3099C115.08 13.1199 115.07 11.35 115.04 11.07C115.02 10.84 115.01 10.64 115.02 10.62C115.03 10.6 115.25 10.94 115.52 11.38C115.88 11.98 116.83 13.3299 119.18 16.6599L122.36 21.14H122.97H123.57V14.9V8.65991H122.94H122.31L122.33 13.6599C122.34 16.5999 122.36 18.78 122.38 18.95C122.4 19.1 122.41 19.23 122.4 19.24C122.4 19.24 122.17 18.88 121.9 18.43C121.52 17.8 120.69 16.61 118.24 13.15L115.07 8.67993L114.47 8.66997L113.87 8.65991V14.89H113.86Z" fill="white"/>
</g>
<defs>
<clipPath id="clip0_1_2">
<rect width="125" height="30" fill="white"/>
</clipPath>
</defs>
</svg>
