<svg width="101" height="21" viewBox="0 0 101 21" fill="none" xmlns="http://www.w3.org/2000/svg">
<path d="M9.20039 4.7001C9.10039 4.6001 9.10039 4.6001 9.00039 4.6001C8.90039 4.6001 8.90039 4.6001 8.80039 4.6001C8.20039 5.0001 7.50039 6.9001 6.90039 9.3001H7.50039C8.60039 9.3001 9.70039 9.3001 10.8004 9.3001C10.5004 8.2001 10.2004 7.2001 10.0004 6.5001C9.60039 5.4001 9.30039 4.9001 9.20039 4.7001Z" fill="white"/>
<path d="M10.4 0C4.7 0 0 4.6 0 10.4C0 16.2 4.7 20.8 10.4 20.8C16.1 20.8 20.8 16.2 20.8 10.4C20.8 4.6 16.2 0 10.4 0ZM17.9 10.6C17.7 10.7 17.6 10.7 17.5 10.7H12.6C12.6 10.9 12.7 11 12.7 11.3C13 12.5 13.7 15.6 14.5 15.6C15.1 15.6 15.4 14.7 16.1 12.8C16.2 12.5 16.3 12.2 16.5 11.8V11.7C16.5 11.6 16.7 11.5 16.8 11.6C16.9 11.6 17 11.8 16.9 11.9V12C16.8 12.2 16.8 12.5 16.7 12.9C16.3 14.5 15.7 17 14.2 17C13.2 17 12.6 15.4 12.4 14.7C11.9 13.4 11.6 12.1 11.2 10.8H6.7L5.8 13.8C5.7 14 5.4 14.1 5.1 13.9C5 13.8 4.9 13.7 4.9 13.5L5 13.2C5.1 12.4 5.3 11.6 5.5 10.8H3.6C3.2 10.7 3 10.4 3 10.1C3 9.8 3.2 9.5 3.6 9.4C3.7 9.4 3.7 9.4 3.8 9.4H3.9C4.5 9.4 5.2 9.4 5.9 9.4C6.9 5.3 8.1 3.3 9.3 3.3C10.7 3.3 11.7 6.4 12.5 9.5C14.2 9.5 16 9.6 17.7 9.7H17.8H17.9C18.2 9.8 18.4 10.1 18.3 10.4C18.1 10.4 18 10.5 17.9 10.6Z" fill="white"/>
<path d="M26.6004 12.9999L25.8004 14.9999H23.4004L28.0004 4.3999H30.1004L34.6004 15.0999H32.2004L31.4004 13.0999H26.6004V12.9999ZM29.0004 7.0999L27.4004 10.9999H30.5004L29.0004 7.0999Z" fill="white"/>
<path d="M48.1998 10.9999V15.0999H45.9998V11.1999C45.9998 9.9999 45.3998 9.3999 44.3998 9.3999C43.8998 9.3999 43.3998 9.5999 42.9998 10.1999C42.9998 10.4999 43.0998 10.6999 43.0998 10.9999V15.0999H40.8998V11.1999C40.8998 9.9999 40.2998 9.3999 39.2998 9.3999C38.8998 9.3999 38.3998 9.6999 37.9998 10.1999V15.0999H35.7998V7.5999H37.9998V8.0999C38.4998 7.6999 38.9998 7.3999 39.7998 7.3999C40.7998 7.3999 41.5998 7.7999 42.1998 8.4999C42.9998 7.7999 43.6998 7.3999 44.8998 7.3999C46.6998 7.3999 48.1998 8.7999 48.1998 10.9999Z" fill="white"/>
<path d="M57.7002 11.2999C57.7002 13.4999 56.0002 15.1999 54.0002 15.1999C53.2002 15.1999 52.5002 14.9999 51.9002 14.5999V18.5999H49.7002V7.5999H51.9002V7.9999C52.5002 7.5999 53.2002 7.3999 54.0002 7.3999C56.0002 7.3999 57.7002 9.0999 57.7002 11.2999ZM55.5002 11.2999C55.5002 10.1999 54.7002 9.1999 53.6002 9.1999C53.0002 9.1999 52.3002 9.3999 51.8002 10.0999V12.4999C52.3002 13.0999 52.9002 13.3999 53.6002 13.3999C54.7002 13.3999 55.5002 12.3999 55.5002 11.2999Z" fill="white"/>
<path d="M61.1004 15H58.9004V4H61.1004V15Z" fill="white"/>
<path d="M63 5.0002C63 4.3002 63.6 3.7002 64.3 3.7002C65 3.7002 65.6 4.2002 65.6 5.0002C65.6 5.7002 65 6.2002 64.3 6.2002C63.6 6.2002 63 5.7002 63 5.0002ZM65.4 7.6002V15.1002H63.2V7.6002H65.4V7.6002Z" fill="white"/>
<path d="M73.3002 14.8999C72.4002 15.1999 72.0002 15.1999 71.3002 15.1999C69.5002 15.1999 68.3002 13.8999 68.3002 11.9999V9.3999H66.7002V7.5999H68.3002V4.8999H70.5002V7.5999H73.2002V9.3999H70.5002V11.9999C70.5002 12.7999 71.0002 13.1999 71.8002 13.1999C72.2002 13.1999 72.6002 13.0999 73.1002 12.9999L73.3002 14.8999Z" fill="white"/>
<path d="M82.0004 15.0001H79.8004V14.5001C79.2004 15.0001 78.5004 15.3001 77.7004 15.3001C75.7004 15.3001 74.4004 13.9001 74.4004 11.7001V7.6001H76.6004V11.5001C76.6004 12.7001 77.2004 13.3001 78.2004 13.3001C78.7004 13.3001 79.3004 13.0001 79.8004 12.4001V7.6001H82.0004V15.0001Z" fill="white"/>
<path d="M91.2002 15H89.0002V14.6C88.4002 15 87.7002 15.2 86.9002 15.2C84.8002 15.2 83.2002 13.5 83.2002 11.3C83.2002 9.1 84.9002 7.4 86.9002 7.4C87.7002 7.4 88.4002 7.6 89.0002 8V4H91.2002V15ZM89.0002 12.5V10.1C88.5002 9.5 87.9002 9.2 87.2002 9.2C86.1002 9.2 85.3002 10.2 85.3002 11.2C85.3002 12.3 86.1002 13.3 87.2002 13.3C87.9002 13.4 88.5002 13.2 89.0002 12.5Z" fill="white"/>
<path d="M100 11.8998H94.5004C94.7004 12.7998 95.2004 13.4998 96.4004 13.4998C97.0004 13.4998 97.4004 13.2998 97.7004 12.8998H100C99.6004 14.2998 98.2004 15.2998 96.4004 15.2998C94.0004 15.2998 92.4004 13.5998 92.4004 11.2998C92.4004 8.9998 94.0004 7.2998 96.4004 7.2998C98.5004 7.2998 100.1 8.79981 100.1 11.0998C100 11.3998 100 11.5998 100 11.8998ZM94.5004 10.5998H97.9004C97.8004 9.69981 97.2004 9.1998 96.3004 9.1998C95.2004 9.0998 94.7004 9.79981 94.5004 10.5998Z" fill="white"/>
</svg>
