<svg width="51" height="35" viewBox="0 0 51 35" fill="none" xmlns="http://www.w3.org/2000/svg">
<g clip-path="url(#clip0_1_31)">
<path d="M38.3 24.3C45.1 24.3 50.6 18.8 50.6 12.1C50.6 5.5 45.1 0 38.3 0C34.6 0 31.5 1.3 28.7 3.8C27.4 5 26.3 6.5 25.3 8C24.3 6.5 23.2 5.1 21.9 3.8C19.2 1.3 16 0 12.3 0C5.5 0 0 5.5 0 12.2C0 18.9 5.5 24.3 12.3 24.4C15.8 24.6 18.8 23.5 21.5 21C23 19.6 24.2 17.9 25.4 16.1C26.5 17.9 27.8 19.6 29.3 21C31.7 23.3 34.5 24.4 37.7 24.4C37.9 24.3 38.1 24.3 38.3 24.3ZM18.6 17.8C16.8 19.5 14.9 20.2 12.5 20H12.4C7.9 20 4.3 16.5 4.3 12.1C4.3 7.8 7.9 4.2 12.4 4.2C15 4.3 17.1 5.1 19 7C20.4 8.4 21.6 10.1 22.8 12C21.5 14.2 20.2 16.3 18.6 17.8ZM32 17.8C30.4 16.3 29.1 14.2 27.7 12C28.9 10.1 30.1 8.3 31.5 7C33.4 5.2 35.6 4.3 38.2 4.3C42.7 4.3 46.3 7.8 46.3 12.2C46.3 16.5 42.7 20.1 38.2 20.1H38.1C35.7 20.1 33.8 19.5 32 17.8Z" fill="white"/>
<path d="M38.8 13.0001H41.1V10.6001H38.8V8.30005H36.4V10.6001H34.1V13.0001H36.4V15.3001H38.8V13.0001Z" fill="white"/>
<path d="M48.8 1.3999L49 2.1999H49.2L49.4 1.3999V2.1999H49.6V0.899902H49.3L49.1 1.6999L48.8 0.899902H48.5V2.0999H48.7V1.3999H48.8Z" fill="white"/>
<path d="M47.9 2.0999H48.2V1.0999H48.6V0.899902H47.6V1.0999H48V2.0999H47.9Z" fill="white"/>
<path d="M3.09998 26.5L0.599976 34.8H2.29998L2.79998 33.2H5.59998L5.99998 34.9H7.89998L5.39998 26.6H3.09998V26.5ZM5.09998 31.8H3.19998L4.19998 28.4L5.09998 31.8Z" fill="white"/>
<path d="M12.9 31.2001C12.8 31.1001 12.7 31.0001 12.6 30.9001C12.8 30.9001 12.9 30.8001 13.1 30.7001C13.3 30.6001 13.5 30.4001 13.7 30.3001C13.9 30.1001 14 29.9001 14.1 29.7001C14.2 29.5001 14.2 29.2001 14.2 28.9001C14.2 28.5001 14.1 28.1001 14 27.8001C13.9 27.5001 13.6 27.3001 13.4 27.1001C13.1 26.9001 12.8 26.8001 12.4 26.7001C12 26.6001 11.6 26.6001 11.1 26.6001H8.59998V34.9001H10.3V31.5001H10.5C10.7 31.5001 11 31.6001 11.2 31.7001C11.4 31.8001 11.5 32.0001 11.6 32.2001L12.8 34.9001H14.8L13.4 32.0001C13.2 31.6001 13.1 31.4001 12.9 31.2001ZM12.4 29.0001C12.4 29.2001 12.4 29.3001 12.3 29.5001C12.2 29.6001 12.1 29.8001 12 29.8001C11.9 29.9001 11.7 30.0001 11.5 30.0001C11.3 30.0001 11.1 30.1001 10.9 30.1001H10.3V28.0001H10.9C11.4 28.0001 11.8 28.1001 12 28.2001C12.2 28.4001 12.4 28.6001 12.4 29.0001Z" fill="white"/>
<path d="M20.9 27.5001C20.6 27.2001 20.2 26.9001 19.7 26.8001C19.2 26.6001 18.6 26.6001 18 26.6001H15.5V34.9001H17.7C18.4 34.9001 19.1 34.8001 19.6 34.6001C20.1 34.4001 20.6 34.1001 20.9 33.7001C21.2 33.3001 21.5 32.9001 21.7 32.3001C21.9 31.8001 21.9 31.2001 21.9 30.5001C21.9 29.8001 21.8 29.2001 21.7 28.7001C21.5 28.3001 21.2 27.8001 20.9 27.5001ZM17.2 28.0001H17.9C18.3 28.0001 18.7 28.1001 18.9 28.2001C19.2 28.3001 19.4 28.5001 19.6 28.7001C19.8 28.9001 19.9 29.2001 20 29.5001C20.1 29.8001 20.1 30.2001 20.1 30.7001C20.1 31.6001 19.9 32.3001 19.5 32.8001C19.1 33.2001 18.6 33.4001 17.8 33.4001H17.2V28.0001Z" fill="white"/>
<path d="M27.1 31.8999C27.1 32.1999 27.1 32.4999 27 32.6999C26.9 32.8999 26.9 33.0999 26.8 33.1999C26.7 33.2999 26.6 33.3999 26.4 33.4999C26.2 33.5999 26 33.5999 25.8 33.5999C25.5 33.5999 25.3 33.5999 25.1 33.4999C24.9 33.3999 24.8 33.2999 24.7 33.1999C24.6 33.0999 24.5 32.8999 24.5 32.6999C24.5 32.4999 24.4 32.2999 24.4 31.9999V26.5999H22.7V31.9999C22.7 32.4999 22.8 32.8999 22.9 33.1999C23 33.5999 23.2 33.8999 23.4 34.0999C23.6 34.3999 24 34.5999 24.4 34.6999C24.8 34.7999 25.3 34.8999 25.8 34.8999C26.3 34.8999 26.7 34.7999 27.1 34.6999C27.5 34.5999 27.8 34.3999 28.1 34.0999C28.4 33.7999 28.6 33.4999 28.7 33.0999C28.8 32.6999 28.9 32.1999 28.9 31.6999V26.3999H27.2L27.1 31.8999Z" fill="white"/>
<path d="M30.2 27.9H32V33.4H30.2V34.8H35.6V33.4H33.8V27.9H35.6V26.5H30.2V27.9Z" fill="white"/>
<path d="M41.6 31.9999L41.4 31.3999L39.1 26.3999H37V34.6999H38.6V29.0999L38.9 29.7999L41.1 34.6999H43.1V26.3999H41.5V31.9999H41.6Z" fill="white"/>
<path d="M49.8 27.4999C49.2 26.7999 48.4 26.3999 47.3 26.3999C46.8 26.3999 46.4 26.4999 45.9 26.6999C45.5 26.8999 45.1 27.0999 44.8 27.4999C44.5 27.8999 44.2 28.2999 44.1 28.8999C43.9 29.3999 43.8 30.0999 43.8 30.7999C43.8 32.1999 44.1 33.1999 44.6 33.9999C45.2 34.6999 46 35.0999 47.1 35.0999C47.6 35.0999 48 34.9999 48.5 34.7999C48.9 34.5999 49.3 34.3999 49.6 33.9999C49.9 33.5999 50.2 33.1999 50.3 32.5999C50.5 32.0999 50.6 31.3999 50.6 30.6999C50.7 29.2999 50.4 28.1999 49.8 27.4999ZM48 33.2999C47.8 33.3999 47.6 33.4999 47.3 33.4999C46.7 33.4999 46.3 33.2999 46.1 32.7999C45.8 32.2999 45.7 31.5999 45.7 30.6999C45.7 30.2999 45.7 29.8999 45.8 29.4999C45.9 29.1999 46 28.8999 46.1 28.5999C46.2 28.3999 46.4 28.1999 46.6 28.0999C46.8 27.9999 47 27.8999 47.3 27.8999C47.9 27.8999 48.3 28.0999 48.5 28.5999C48.8 29.0999 48.9 29.7999 48.9 30.6999C48.9 31.0999 48.9 31.4999 48.8 31.8999C48.7 32.1999 48.6 32.4999 48.5 32.7999C48.3 32.9999 48.2 33.1999 48 33.2999Z" fill="white"/>
<path d="M16.4 10.6001H8.90002V13.0001H16.4V10.6001Z" fill="white"/>
</g>
<defs>
<clipPath id="clip0_1_31">
<rect width="51" height="35" fill="white"/>
</clipPath>
</defs>
</svg>
