<svg xmlns="http://www.w3.org/2000/svg" fill="none" viewBox="0 0 151 20" height="20" width="151">
<path fill="white" d="M10.7718 0H4.46006L0.079834 19.6958L8.49048 19.6198L9.17489 19.5437L10.7718 19.2395L12.3688 18.7072L13.4334 18.0989L14.1179 17.4905L14.9544 16.5779L15.4867 15.6654L15.7909 14.8289L16.019 13.5361V12.3954L15.943 11.8631L15.3346 10.6464L14.8023 10.1141L14.346 9.5057L15.3346 8.89734L16.095 8.13688L16.7795 7.30038L17.0076 6.84411L17.3118 5.93156L17.4639 4.79087L17.3878 3.11787L17.3118 2.81369L16.7795 1.74905L16.1711 1.14068L15.1825 0.608365L13.9658 0.228137L12.5969 0.0760456L10.7718 0ZM8.56653 11.711H7.88211L7.27375 11.7871L7.12166 11.9392L6.51329 15.1331L6.89352 15.2091H8.03421L9.0228 15.1331L9.25094 15.057L9.78326 14.7529L10.2395 14.0684L10.4677 13.1559L10.3916 12.5475L10.1635 12.1673L9.70721 11.8631L8.56653 11.711ZM8.71862 4.48669H10.6198L11.4563 4.56274L11.7604 4.86692L11.9125 5.32319L11.8365 6.31179L11.5323 7.07224L11.1521 7.52852L10.7718 7.8327L10.3916 7.90875H8.04942L8.64257 4.56274L8.71862 4.48669ZM61.6464 0.0760456L60.2015 0L59.1369 0.0760456L57.692 0.304182L56.095 0.836502L55.1825 1.36882L54.1179 2.20532L53.2053 3.26996L52.5969 4.3346L52.0646 5.55133L51.7604 6.76806V9.5057L51.8365 9.80989L52.1407 10.3422L52.673 10.8745L53.3574 11.3308L54.9544 12.0152L57.2357 12.9278L57.616 13.384L57.5399 13.9924L57.1597 14.6008L56.5513 14.981L55.8669 15.1331H54.422L53.5855 15.057L51.9886 14.7529L50.7718 14.4487L50.3916 14.5247L50.0114 15.5894L48.9468 18.327L48.7947 19.0875L49.327 19.3156L51.3042 19.6958L53.9658 20H55.6388L56.9315 19.8479L58.3764 19.5437L59.365 19.1635L60.4296 18.5551L61.1901 17.9468L62.1026 16.9582L62.5589 16.1217L63.0912 14.6768L63.4715 12.5475V11.8631L63.3194 11.0266L63.0152 10.2662L62.4829 9.5057L61.7224 8.82129L60.3536 8.21293L58.4525 7.52852L57.692 7.14829L57.3118 6.53992L57.3878 5.93156L57.692 5.55133L58.3004 5.1711L58.9848 4.94297H61.2661L61.8745 5.01901L63.9277 5.47529L64.6122 3.65019L65.3726 1.36882L65.5247 0.608365L61.6464 0.0760456ZM93.2813 0H82.9391L82.711 0.152091L82.4068 1.44487L81.7224 4.56274L80.8859 8.06084L80.1255 11.3308L79.1369 15.5133L78.3764 18.7072L78.3004 19.6958H84.6121L91 19.6198L91.4563 17.6426L91.9886 15.3612L91.9125 15.1331L85.1445 15.057L85.2966 14.2205L85.6768 12.3954L92.2167 12.3194L92.2928 12.1673L92.9011 8.89734L93.0532 7.90875H86.7414L86.8175 7.68061L87.1977 5.62738L87.3498 5.09506L94.0418 5.01901L94.1939 4.63878L95.1064 0.684411L95.1825 0.0760456L93.2813 0ZM67.1977 0.608365H80.8859L80.7338 1.36882L79.8973 4.86692L79.7452 5.09506H75.8669L75.4106 6.92015L74.8783 9.27757L74.422 11.1027L73.3574 15.5894L72.5969 18.9354L72.3688 19.6198L71.6083 19.6958L66.7414 19.6198L67.0456 18.0989L67.9582 14.3726L68.8707 10.4183L69.9353 5.70342L70.0874 5.01901L67.5779 5.09506H66.3612L66.2852 4.94297L67.1217 0.760456L67.1977 0.608365ZM117.692 0H146.817L150.62 0.0760456L150.468 0.456274L149.935 1.21673L149.251 2.12928L148.414 3.11787L147.502 4.3346L146.513 5.62738L145.449 6.92015L144.764 7.8327L143.928 8.89734L143.319 9.73384L143.243 10.1141L143.852 11.3308L144.688 12.9278L145.601 14.9049L146.665 17.1103L147.274 18.327L147.654 19.3916V19.6198L138.224 19.6958H113.281L113.357 18.7833L114.194 15.057L115.867 7.8327L116.171 6.31179L117.008 2.88973L117.616 0.0760456L117.692 0ZM126.209 0.608365L126.361 0.836502L126.665 2.05323L127.198 3.87833L127.882 6.08365L128.414 7.60456H129.555L130.468 7.52852H135.563L135.715 7.60456L135.563 7.90875L134.346 8.6692L132.977 9.65779L131.913 10.4183L130.544 11.4829L129.935 11.9392L129.783 12.2433L131.532 17.5665L132.065 19.0114L131.989 19.1635L130.696 18.2509L129.631 17.4905L128.414 16.5779L126.285 15.057L125.981 14.981L124.536 15.9696L123.243 16.9582L122.179 17.7186L120.962 18.6312L120.43 19.2395L120.125 19.3156L120.201 18.7072L121.57 14.5247L122.255 12.4715L122.179 12.0913L120.81 11.0266L119.517 10.1141L118.072 9.04943L116.932 8.28897L116.171 7.8327V7.68061L116.323 7.60456H123.776L125.144 3.26996L125.753 1.52091L126.209 0.608365ZM45.8289 0.0760456H43.3954L41.4943 0.380228L40.5057 0.684411L39.5171 1.14068L38.5285 1.74905L37.9201 2.28137L37.5399 2.6616L36.8555 3.42205L36.1711 4.56274L35.6388 6.0076L34.9544 8.74525L34.1939 11.8631L33.6616 14.4487V15.8175L33.8137 16.73L34.1179 17.4905L34.8023 18.403L35.5627 19.0114L36.4753 19.4677L37.5399 19.7719L39.2129 20H40.6578L42.4829 19.7719L43.6996 19.4677L44.8403 19.0114L45.7528 18.4791L46.8175 17.6426L47.4258 16.9582L48.1102 16.0456L48.7947 14.5247L49.403 12.3194L50.3156 8.44106L50.9239 5.70342V3.95437L50.8479 3.42205L50.4677 2.50951L49.9353 1.74905L49.327 1.21673L48.5665 0.760456L47.73 0.456274L45.8289 0.0760456ZM43.9277 4.3346H43.2433L42.8631 4.41065L42.4068 4.63878L41.7985 5.1711L41.3422 6.08365L40.8099 8.21293L39.9734 11.635L39.5931 13.4601V14.6768L39.8213 15.1331L40.2015 15.5133L40.8099 15.7414L41.4943 15.6654L42.1026 15.3612L42.7871 14.6008L43.1673 13.9163L43.6236 12.5475L44.6882 7.98479L45.0684 6.08365V5.47529L44.9924 5.24715L44.5361 4.63878L43.9277 4.3346ZM26.5893 0.0760456H29.0228L30.3916 0.304182L31.6083 0.684411L32.5209 1.14068L33.2814 1.8251L33.7376 2.58555L34.1179 3.57414L34.1939 4.10646V5.1711L33.8137 7.22433L33.1293 10.3422L32.673 12.1673L32.2928 13.8403L31.8365 15.1331L31.076 16.5019L30.2395 17.4905L29.4791 18.1749L28.3384 18.8593L27.3498 19.3156L26.4372 19.6198L24.6122 19.924L23.8517 20H22.5589L20.7338 19.7719L19.5171 19.3916L18.6806 18.9354L17.8441 18.1749L17.3118 17.3384L17.0076 16.2738L16.8555 15.5133V14.981L17.2357 13.0798L17.9201 9.96198L18.8327 6.1597L19.441 4.48669L20.1255 3.42205L20.7338 2.6616L21.2661 2.12928L22.4068 1.29278L23.6996 0.684411L25.0684 0.304182L26.5893 0.0760456ZM26.7414 4.3346L27.5019 4.48669L27.8821 4.79087L28.1863 5.32319V6.53992L27.5019 9.88593L26.7414 12.9278L26.2852 14.0684L25.8289 14.9049L25.1445 15.4373L24.6122 15.6654L23.9277 15.7414L23.3954 15.5133L23.0912 15.2091L22.8631 14.7529V13.4601L23.3194 11.3308L24.4601 6.53992L24.8403 5.62738L25.2966 5.01901L25.8289 4.56274L26.2091 4.41065L26.7414 4.3346ZM102.331 0H97.3878L97.2357 0.0760456L96.9315 1.21673L96.1711 4.56274L95.4106 7.68061L94.2699 12.6236L92.9011 18.2509L92.673 19.6198L93.2813 19.6958H97.8441L98.3004 19.6198L98.4525 18.9354L98.7566 17.7186L99.365 14.981L99.6692 13.9924L100.278 13.7643L100.81 13.8403L101.418 17.2624L101.875 19.6198L102.179 19.6958H107.122L107.806 19.6198L107.73 18.9354L107.198 16.654L106.513 13.7643L106.437 13.0038L107.122 12.5475L108.034 11.711L108.719 10.9506L109.327 10.1141L109.935 8.59316L110.468 6.46388L110.62 5.39924V4.18251L110.468 3.42205L110.163 2.6616L109.707 1.97719L108.947 1.29278L108.11 0.836502L107.122 0.532319L104.46 0.152091L102.331 0ZM103.548 5.01901H102.103L101.875 5.09506L101.646 5.70342L100.886 9.20152L100.81 10.1141L100.886 10.1901H101.722L102.635 10.038L103.167 9.80989L103.776 9.35361L104.232 8.59316L104.46 7.8327L104.764 6.1597L104.688 5.55133L104.232 5.1711L103.548 5.01901Z" clip-rule="evenodd" fill-rule="evenodd"></path>
</svg>
