<svg xmlns="http://www.w3.org/2000/svg" fill="none" viewBox="0 0 92 48" height="48" width="92">
<path fill="white" d="M23.9002 0C24.9918 0 25.8823 0.885396 25.8823 1.9757V22.9887C25.8823 24.0853 24.9918 24.9707 23.9002 24.9707C22.8074 24.9707 21.917 24.0853 21.917 22.9887V1.9757C21.917 0.885396 22.8074 0 23.9002 0Z"></path>
<path fill="white" d="M14.9927 9.43513C14.9927 8.34483 14.1022 7.45817 13.0107 7.45817C11.9178 7.45817 11.0274 8.34483 11.0274 9.43513V19.0417C11.0274 20.1383 11.9178 21.0224 13.0107 21.0224C14.1022 21.0224 14.9927 20.1383 14.9927 19.0417V9.43513Z"></path>
<path fill="white" d="M2.12117 12.9129C3.21273 12.9129 4.10319 13.797 4.10319 14.8873V19.0411C4.10319 20.1377 3.21273 21.0231 2.12117 21.0231C1.0296 21.0231 0.137878 20.1377 0.137878 19.0411V14.8873C0.137878 13.797 1.0296 12.9129 2.12117 12.9129Z"></path>
<path fill="white" d="M45.0317 35.4906C44.9722 35.4717 43.2913 35.0075 41.91 35.0075C40.31 35.0075 39.4398 35.5438 39.4398 36.3039C39.4398 37.2363 40.5382 37.5816 41.2042 37.7909L41.27 37.8116L42.3717 38.162C44.9634 38.9867 46.1448 40.7613 46.1448 42.6889C46.1448 46.6643 42.6487 48 39.5928 48C37.4691 48 35.4795 47.6092 35.2835 47.5674V43.9259C35.3182 43.9347 35.3659 43.9474 35.4252 43.9633C35.9667 44.1083 37.4821 44.5141 39.054 44.5141C41.0411 44.5141 41.9543 43.9335 41.9543 43.0367C41.9543 42.2348 41.1638 41.7719 40.1734 41.4607C40.0292 41.4124 39.8416 41.3524 39.6612 41.2946L39.6575 41.2934C39.5373 41.2549 39.4196 41.2172 39.3209 41.185C37.0973 40.4817 35.243 39.1752 35.243 36.5556C35.243 33.5959 37.459 31.6088 41.1397 31.6088C43.0838 31.6088 44.9128 32.0806 45.0317 32.1122V35.4906Z"></path>
<path fill="white" d="M74.6484 47.9989C79.5155 47.9989 83.0103 44.3308 83.0103 39.8039C83.0103 35.2846 79.5155 31.6127 74.6484 31.6127C69.7812 31.6127 66.2915 35.2846 66.2915 39.8039C66.2915 44.3308 69.7812 47.9989 74.6484 47.9989ZM70.5199 39.8039C70.5199 37.5069 72.2793 35.6425 74.6484 35.6425C77.0149 35.6425 78.7794 37.5069 78.7794 39.8039C78.7794 42.1059 77.0149 43.969 74.6484 43.969C72.2793 43.969 70.5199 42.1059 70.5199 39.8039Z" clip-rule="evenodd" fill-rule="evenodd"></path>
<path fill="white" d="M20.4053 36.4281C20.3961 36.4233 20.3831 36.4163 20.3665 36.4073C20.0949 36.2596 18.851 35.5832 17.0509 35.5832C14.4643 35.5832 12.6745 37.3806 12.6745 39.804C12.6745 42.1554 14.3897 44.0286 17.0509 44.0286C18.8896 44.0286 20.1796 43.3138 20.3933 43.1954L20.4053 43.1888V47.4361L20.3107 47.4632C19.7505 47.624 18.4441 47.999 16.7638 47.999C12.2748 47.999 8.33734 44.9026 8.33734 39.804C8.33734 35.0785 11.9042 31.6128 16.7638 31.6128C18.5286 31.6128 19.8586 32.0154 20.3253 32.1567C20.3557 32.1659 20.3824 32.174 20.4053 32.1808V36.4281Z"></path>
<path fill="white" d="M62.0483 36.4077L62.0741 36.4216L62.0863 36.4281V32.1808C62.0634 32.174 62.0367 32.1659 62.0063 32.1567C61.5396 32.0154 60.2096 31.6128 58.4448 31.6128C53.5852 31.6128 50.0183 35.0785 50.0183 39.804C50.0183 44.9026 53.9558 47.999 58.4448 47.999C60.1251 47.999 61.4315 47.624 61.9917 47.4632L62.0863 47.4361V43.1888L62.0743 43.1954C61.8607 43.3138 60.5706 44.0286 58.7319 44.0286C56.0707 44.0286 54.3555 42.1554 54.3555 39.804C54.3555 37.3806 56.1453 35.5832 58.7319 35.5832C60.532 35.5832 61.7767 36.26 62.0483 36.4077Z"></path>
<path fill="white" d="M25.8954 31.8936H29.8885V47.7182H25.8954V31.8936Z"></path>
<path fill="white" d="M36.7719 9.43513C36.7719 8.34483 35.8815 7.45817 34.7899 7.45817C33.6971 7.45817 32.8066 8.34483 32.8066 9.43513V19.0417C32.8066 20.1383 33.6971 21.0224 34.7899 21.0224C35.8815 21.0224 36.7719 20.1383 36.7719 19.0417V9.43513Z"></path>
<path fill="white" d="M45.6785 12.9129C46.765 12.9129 47.6492 13.797 47.6492 14.8873V19.0411C47.6492 20.1377 46.765 21.0231 45.6785 21.0231C44.587 21.0231 43.6965 20.1377 43.6965 19.0411V14.8873C43.6965 13.797 44.587 12.9129 45.6785 12.9129Z"></path>
<path fill="white" d="M58.5437 9.43513C58.5437 8.34483 57.6532 7.45817 56.5617 7.45817C55.4688 7.45817 54.5784 8.34483 54.5784 9.43513V19.0417C54.5784 20.1383 55.4688 21.0224 56.5617 21.0224C57.6532 21.0224 58.5437 20.1383 58.5437 19.0417V9.43513Z"></path>
<path fill="white" d="M67.4512 0C68.5428 0 69.4333 0.885396 69.4333 1.9757V22.9887C69.4333 24.0853 68.5428 24.9707 67.4512 24.9707C66.3584 24.9707 65.468 24.0853 65.468 22.9887V1.9757C65.468 0.885396 66.3584 0 67.4512 0Z"></path>
<path fill="white" d="M80.323 9.43513C80.323 8.34483 79.4325 7.45817 78.3409 7.45817C77.2481 7.45817 76.3576 8.34483 76.3576 9.43513V19.0417C76.3576 20.1383 77.2481 21.0224 78.3409 21.0224C79.4325 21.0224 80.323 20.1383 80.323 19.0417V9.43513Z"></path>
<path fill="white" d="M89.2295 12.9129C90.316 12.9129 91.2002 13.797 91.2002 14.8873V19.0411C91.2002 20.1377 90.316 21.0231 89.2295 21.0231C88.138 21.0231 87.2475 20.1377 87.2475 19.0411V14.8873C87.2475 13.797 88.138 12.9129 89.2295 12.9129Z"></path>
<path fill="white" d="M88.9224 45.6341V45.882H88.2166V47.7173H87.9269V45.882H87.2173V45.6341H88.9224Z"></path>
<path fill="white" d="M89.5246 45.6341H89.0705V47.7173H89.3614V46.0098H89.3753L89.9926 47.7173H90.267L90.8994 46.0098H90.9096V47.7173H91.2068V45.6341H90.7616L90.1582 47.3429H90.1481L89.5246 45.6341Z"></path>
</svg>
