<svg width="2696" height="2014" viewBox="0 0 2696 2014" fill="none" xmlns="http://www.w3.org/2000/svg">
<path d="M460.9 1299C332.4 1206.7 217.3 997.3 299.7 770.9C382.1 544.5 605.9 445 764.3 466C760.4 344.2 807.4 224.4 925.5 130.1C1049.1 31.5 1340.2 -10.7 1501.8 228C1570.3 137.7 1816.6 134.1 1834 354.8C1921 347.5 2180.4 329.6 2351.7 606.8C2523.1 884 2361.5 1189 2213.8 1289.3C2066.2 1389.6 1977.5 1392.3 1810.5 1392.3C1792 1345.1 1759.2 1304.7 1742.7 1286.9C1726.3 1269.1 1710.6 1245.8 1712.6 1197.9C1714.7 1150 1720.1 1128.8 1760.5 1104.1C1800.9 1079.5 1818.7 1064.5 1826.2 1058.3C1833.8 1052.1 1846.8 1050.1 1861.8 1050.1C1876.9 1050.1 1912.5 1040.5 1920 1035.7C1927.5 1030.9 1950.1 1034.3 1973.4 1037.1C1996.7 1039.8 2046.6 1051.4 2074.7 1034.3C2102.8 1017.2 2088.4 987.1 2131.5 982.3C2174.6 977.5 2198.6 967.9 2202 890.6C2222.6 885.8 2224.6 857.7 2221.9 849.5C2219.1 841.3 2206.8 829.7 2191.1 828.3C2175.3 826.9 2172.6 813.9 2155.5 801.6C2138.4 789.3 2039.1 731.4 2026.1 722C2008.3 683.2 2007.6 664.7 1967.9 638.7C1928.2 612.7 1850.2 570.9 1816.6 554.5C1783.1 538.1 1770.8 534.6 1744.8 534.6C1718.8 534.6 1698.9 534.6 1698.9 534.6C1698.9 534.6 1681.1 484.7 1634.6 467.6C1588 450.4 1559.3 487.4 1543.5 522.3C1526.4 519.6 1508.6 522.3 1489.5 566.8C1471 581.2 1371.7 619.5 1308.1 633.9C1244.4 626.4 1134.2 616.8 1074 638C1013.7 659.2 943.2 723.6 893.2 796.8C843.3 870 835.1 908.4 763.9 989.8C692.7 1071.3 460.9 1299 460.9 1299V1299Z" fill="white"/>
<path d="M304.4 1713C302.8 1715.2 301.3 1716.8 299.7 1718C298.2 1719.2 295.9 1719.8 293 1719.8C290.1 1719.8 286.9 1718.6 283.5 1716.1C280.1 1713.7 275.7 1711 270.5 1708.1C265.2 1705.1 258.8 1702.5 251.3 1700C243.8 1697.6 234.6 1696.4 223.6 1696.4C209.2 1696.4 196.4 1699 185.3 1704.1C174.2 1709.3 164.9 1716.8 157.4 1726.5C149.8 1736.3 144.2 1748.1 140.4 1761.9C136.6 1775.8 134.7 1791.3 134.7 1808.4C134.7 1826.4 136.7 1842.3 140.8 1856.3C144.9 1870.2 150.7 1882 158.1 1891.4C165.5 1900.9 174.5 1908.1 185.2 1913.1C195.8 1918 207.7 1920.5 221 1920.5C233.7 1920.5 244.1 1919 252.3 1916C260.5 1913 267.3 1909.6 272.8 1905.9C278.3 1902.2 282.8 1898.8 286.3 1895.8C289.8 1892.8 293.3 1891.3 296.8 1891.3C301.3 1891.3 304.6 1892.9 306.8 1896.2L321.4 1915.3C308.5 1931.1 292.4 1942.6 273.1 1949.9C253.8 1957.3 233.4 1960.9 211.9 1960.9C193.4 1960.9 176.2 1957.5 160.3 1950.7C144.4 1943.9 130.6 1933.9 118.9 1921C107.2 1908 97.9 1892 91.2 1873.1C84.5 1854.2 81.1 1832.6 81.1 1808.4C81.1 1786.4 84.2 1766 90.3 1747.3C96.5 1728.5 105.4 1712.4 117.3 1698.8C129.1 1685.3 143.6 1674.7 161 1667.1C178.4 1659.5 198.3 1655.7 220.7 1655.7C241.4 1655.7 259.7 1659 275.7 1665.8C291.7 1672.5 305.9 1682 318.2 1694.3L304.4 1713V1713Z" fill="white"/>
<path d="M433.5 1561.6V1956.8H381.4V1561.6H433.5Z" fill="white"/>
<path d="M645.4 1655.7C667 1655.7 686.6 1659.3 704 1666.5C721.5 1673.7 736.3 1684 748.5 1697.3C760.7 1710.5 770.1 1726.6 776.6 1745.4C783.1 1764.2 786.4 1785.2 786.4 1808.5C786.4 1831.9 783.1 1852.9 776.6 1871.7C770.1 1890.4 760.7 1906.4 748.5 1919.7C736.3 1932.9 721.5 1943.1 704 1950.2C686.6 1957.4 667 1960.9 645.4 1960.9C623.7 1960.9 604.1 1957.4 586.7 1950.2C569.2 1943.1 554.3 1932.9 542 1919.7C529.8 1906.4 520.3 1890.4 513.7 1871.7C507 1852.9 503.7 1831.9 503.7 1808.5C503.7 1785.2 507 1764.2 513.7 1745.4C520.3 1726.6 529.8 1710.5 542 1697.3C554.3 1684 569.2 1673.7 586.7 1666.5C604.1 1659.3 623.7 1655.7 645.4 1655.7ZM645.4 1920.2C674.6 1920.2 696.5 1910.4 710.9 1890.8C725.3 1871.2 732.6 1843.9 732.6 1808.7C732.6 1773.4 725.3 1745.9 710.9 1726.2C696.5 1706.5 674.6 1696.7 645.4 1696.7C630.5 1696.7 617.6 1699.2 606.7 1704.3C595.8 1709.3 586.7 1716.7 579.4 1726.2C572 1735.8 566.6 1747.5 563 1761.5C559.4 1775.4 557.6 1791.2 557.6 1808.7C557.6 1826.3 559.4 1842 563 1855.9C566.6 1869.7 572 1881.4 579.4 1890.8C586.7 1900.3 595.8 1907.6 606.7 1912.6C617.6 1917.7 630.5 1920.2 645.4 1920.2Z" fill="white"/>
<path d="M895.9 1660.4V1849.4C895.9 1871.9 901 1889.2 911.4 1901.5C921.7 1913.8 937.3 1920 958.2 1920C973.4 1920 987.8 1916.3 1001.2 1909.1C1014.7 1901.9 1027.1 1891.9 1038.4 1879V1660.4H1090.5V1956.8H1059.5C1052 1956.8 1047.4 1953.2 1045.4 1946L1041.3 1914.1C1028.4 1928.3 1014 1939.8 998 1948.5C982 1957.2 963.7 1961.5 943 1961.5C926.8 1961.5 912.5 1958.8 900.1 1953.5C887.7 1948.1 877.3 1940.5 868.9 1930.8C860.5 1921 854.3 1909.2 850.1 1895.4C845.9 1881.5 843.8 1866.2 843.8 1849.4V1660.4H895.9V1660.4Z" fill="white"/>
<path d="M1384.9 1956.8C1377.5 1956.8 1372.8 1953.2 1370.9 1946L1366.2 1910C1353.5 1925.4 1339 1937.8 1322.7 1947C1306.4 1956.3 1287.7 1960.9 1266.7 1960.9C1249.7 1960.9 1234.3 1957.6 1220.4 1951.1C1206.6 1944.6 1194.8 1935 1185 1922.3C1175.2 1909.6 1167.7 1893.8 1162.5 1874.9C1157.2 1856 1154.6 1834.2 1154.6 1809.6C1154.6 1787.8 1157.5 1767.4 1163.4 1748.6C1169.2 1729.8 1177.6 1713.4 1188.7 1699.6C1199.7 1685.7 1213.1 1674.9 1228.9 1666.9C1244.7 1659 1262.7 1655.1 1282.8 1655.1C1300.9 1655.1 1316.4 1658.2 1329.3 1664.3C1342.2 1670.5 1353.7 1679.1 1363.8 1690.2V1561.6H1415.9V1956.8H1384.9V1956.8ZM1283.9 1918.8C1300.9 1918.8 1315.8 1914.9 1328.6 1907.1C1341.3 1899.3 1353.1 1888.3 1363.8 1874V1730.6C1354.3 1717.7 1343.8 1708.7 1332.4 1703.5C1320.9 1698.4 1308.3 1695.8 1294.5 1695.8C1266.7 1695.8 1245.5 1705.6 1230.7 1725.3C1215.8 1745.1 1208.4 1773.1 1208.4 1809.6C1208.4 1828.9 1210.1 1845.5 1213.4 1859.2C1216.7 1873 1221.6 1884.3 1228 1893.2C1234.5 1902.1 1242.4 1908.6 1251.7 1912.6C1261.1 1916.7 1271.8 1918.8 1283.9 1918.8Z" fill="white"/>
<path d="M1505.2 1956.8V1561.6H1557.6V1703.1C1569.8 1688.9 1583.9 1677.4 1599.8 1668.7C1615.7 1660 1633.9 1655.7 1654.4 1655.7C1671.6 1655.7 1687.1 1658.9 1701 1665.4C1714.8 1671.8 1726.6 1681.4 1736.4 1694.2C1746.1 1707 1753.6 1722.8 1758.9 1741.6C1764.2 1760.4 1766.8 1782.1 1766.8 1806.7C1766.8 1828.6 1763.9 1848.9 1758 1867.7C1752.2 1886.5 1743.7 1902.8 1732.7 1916.6C1721.7 1930.4 1708.2 1941.2 1692.3 1949.1C1676.4 1957 1658.5 1960.9 1638.6 1960.9C1619.5 1960.9 1603.3 1957.2 1589.9 1949.8C1576.5 1942.4 1564.9 1932.1 1554.9 1918.8L1552.3 1945.7C1550.7 1953.1 1546.2 1956.8 1538.8 1956.8H1505.2V1956.8ZM1637.5 1697.3C1620.5 1697.3 1605.6 1701.1 1592.8 1709C1580 1716.8 1568.3 1727.8 1557.6 1742V1885.4C1566.9 1898.3 1577.3 1907.4 1588.7 1912.6C1600.2 1917.9 1612.9 1920.5 1626.9 1920.5C1654.6 1920.5 1675.9 1910.7 1690.7 1891C1705.5 1871.3 1713 1843.2 1713 1806.7C1713 1787.4 1711.3 1770.8 1707.8 1756.9C1704.4 1743.1 1699.5 1731.7 1693.1 1722.9C1686.6 1714 1678.7 1707.5 1669.4 1703.4C1660 1699.3 1649.4 1697.2 1637.5 1697.2V1697.3Z" fill="white"/>
<path d="M1948 1655.7C1965.7 1655.7 1982.1 1658.7 1997.1 1664.6C2012.1 1670.6 2025.1 1679.1 2036.1 1690.4C2047 1701.6 2055.5 1715.4 2061.7 1731.9C2067.8 1748.4 2070.9 1767.2 2070.9 1788.3C2070.9 1796.4 2070 1801.9 2068.3 1804.6C2066.5 1807.4 2063.2 1808.7 2058.3 1808.7H1861.1C1861.4 1827.5 1864 1843.8 1868.7 1857.6C1873.3 1871.5 1879.8 1883 1888 1892.3C1896.2 1901.6 1905.9 1908.5 1917.2 1913.1C1928.5 1917.7 1941.2 1920 1955.3 1920C1968.4 1920 1979.6 1918.4 1989.1 1915.4C1998.6 1912.4 2006.7 1909.1 2013.5 1905.6C2020.4 1902.1 2026.1 1898.8 2030.6 1895.8C2035.2 1892.8 2039.2 1891.3 2042.5 1891.3C2046.8 1891.3 2050.1 1892.9 2052.5 1896.3L2067.1 1915.3C2060.6 1923.1 2052.9 1929.8 2044 1935.6C2035 1941.4 2025.4 1946.1 2015.1 1949.8C2004.9 1953.5 1994.3 1956.3 1983.4 1958.1C1972.4 1960 1961.6 1960.9 1950.9 1960.9C1930.4 1960.9 1911.5 1957.5 1894.3 1950.5C1877 1943.6 1862.1 1933.5 1849.5 1920.1C1836.9 1906.7 1827.1 1890.2 1820.1 1870.5C1813.1 1850.8 1809.5 1828.2 1809.5 1802.6C1809.5 1781.9 1812.7 1762.6 1819.1 1744.7C1825.4 1726.7 1834.5 1711.1 1846.4 1698C1858.3 1684.8 1872.8 1674.5 1890 1667C1907.2 1659.4 1926.5 1655.7 1948 1655.7V1655.7ZM1949.1 1694C1924 1694 1904.2 1701.3 1889.7 1715.8C1875.3 1730.4 1866.3 1750.5 1862.8 1776.3H2024.1C2024.1 1764.2 2022.4 1753.1 2019.1 1743C2015.8 1733 2010.9 1724.3 2004.5 1717C1998 1709.7 1990.2 1704 1980.9 1700C1971.6 1696 1961 1694 1949.1 1694Z" fill="white"/>
<path d="M2355 1956.8H2331.9C2326.9 1956.8 2322.7 1956 2319.6 1954.5C2316.5 1952.9 2314.5 1949.6 2313.5 1944.5L2307.6 1917C2299.8 1924.1 2292.2 1930.3 2284.8 1935.9C2277.4 1941.5 2269.6 1946.1 2261.4 1949.9C2253.2 1953.7 2244.5 1956.6 2235.2 1958.6C2225.9 1960.5 2215.6 1961.5 2204.3 1961.5C2192.8 1961.5 2182 1959.9 2172 1956.7C2161.9 1953.4 2153.2 1948.6 2145.8 1942.1C2138.4 1935.7 2132.5 1927.5 2128.1 1917.6C2123.7 1907.7 2121.5 1896 2121.5 1882.5C2121.5 1870.8 2124.7 1859.5 2131.2 1848.6C2137.6 1837.7 2148 1828.1 2162.3 1819.7C2176.7 1811.3 2195.5 1804.4 2218.7 1799C2241.9 1793.6 2270.3 1790.9 2303.8 1790.9V1767.6C2303.8 1744.5 2298.9 1726.9 2289.1 1715.1C2279.2 1703.2 2264.6 1697.2 2245.3 1697.2C2232.6 1697.2 2221.9 1698.8 2213.3 1702.1C2204.6 1705.3 2197.1 1708.9 2190.7 1712.9C2184.4 1716.9 2178.9 1720.5 2174.3 1723.7C2169.7 1726.9 2165.2 1728.6 2160.7 1728.6C2157.2 1728.6 2154.1 1727.6 2151.5 1725.8C2148.9 1723.9 2146.8 1721.6 2145.2 1718.9L2135.8 1702.2C2152.2 1686.4 2169.9 1674.6 2188.8 1666.8C2207.7 1659 2228.7 1655.1 2251.7 1655.1C2268.3 1655.1 2283 1657.8 2295.9 1663.3C2308.8 1668.8 2319.6 1676.4 2328.4 1686.1C2337.2 1695.9 2343.8 1707.7 2348.3 1721.5C2352.8 1735.4 2355 1750.6 2355 1767.2V1956.8V1956.8ZM2219.8 1924.9C2229 1924.9 2237.4 1924 2245 1922.1C2252.6 1920.3 2259.8 1917.7 2266.5 1914.3C2273.3 1910.8 2279.7 1906.7 2285.8 1901.8C2292 1896.9 2298 1891.4 2303.8 1885.1V1824C2279.8 1824 2259.4 1825.5 2242.7 1828.5C2225.9 1831.6 2212.2 1835.5 2201.7 1840.4C2191.2 1845.3 2183.5 1851.1 2178.7 1857.8C2173.9 1864.5 2171.5 1871.9 2171.5 1880.2C2171.5 1888 2172.8 1894.8 2175.3 1900.5C2177.9 1906.2 2181.3 1910.8 2185.6 1914.5C2189.9 1918.1 2194.9 1920.8 2200.8 1922.4C2206.7 1924.1 2213 1924.9 2219.8 1924.9V1924.9Z" fill="white"/>
<path d="M2434.1 1956.8V1660.4H2463.9C2469.6 1660.4 2473.5 1661.4 2475.6 1663.6C2477.8 1665.7 2479.2 1669.4 2480 1674.7L2483.5 1720.9C2493.7 1700.3 2506.2 1684.1 2521.1 1672.5C2536.1 1660.9 2553.6 1655.1 2573.7 1655.1C2581.9 1655.1 2589.3 1656 2595.9 1657.9C2602.5 1659.7 2608.7 1662.3 2614.3 1665.6L2607.6 1704.6C2606.2 1709.4 2603.2 1711.9 2598.5 1711.9C2595.8 1711.9 2591.6 1711 2585.9 1709.1C2580.3 1707.3 2572.4 1706.3 2562.2 1706.3C2544.1 1706.3 2528.9 1711.6 2516.7 1722.1C2504.5 1732.6 2494.4 1748 2486.1 1768.1V1956.8H2434.1V1956.8Z" fill="white"/>
</svg>
