<svg width="4000" height="2234" viewBox="0 0 4000 2234" fill="none" xmlns="http://www.w3.org/2000/svg">
<path d="M398 22.2666C278.8 32.2666 172.4 90.9333 101.333 186C59.3333 242.133 33.1999 306.133 23.0666 377.467C19.4666 403.333 19.8666 462.133 23.8666 488C37.9999 579.733 76.6666 656.667 140.8 720.533C174.267 753.867 208 777.733 251.333 798.8C303.467 824 354.267 836.933 412.533 839.467C431.467 840.4 431.6 840.4 433.733 837.2C435.2 835.2 436 831.467 436 827.067C436 815.867 434.933 815.2 410.533 814.267C330.533 810.8 253.867 781.867 189.333 730.667C172.667 717.467 142.8 687.733 130.133 672C84.2666 614.533 55.7333 546.4 47.4666 474.667C45.0666 454.133 44.6666 409.6 46.6666 391.333C55.0666 316.267 82.2666 249.733 128.4 191.467C142.133 174.133 172.8 143.467 190.267 129.6C254.533 78.7999 330 50.5333 411.2 46.7999C435.733 45.7333 436 45.5999 436 33.3333C436 22.2666 434.533 21.3332 417.2 21.5999C409.6 21.7332 400.933 21.9999 398 22.2666Z" fill="white"/>
<path d="M813.333 22.1333C669.066 35.0667 544.666 118.533 480 246C452.533 300.267 438.4 356.267 436.4 418.667C433.466 512.4 461.6 600.4 518.933 677.2C537.333 701.867 574.133 738.533 598.666 756.933C657.466 800.933 720.533 826.667 794.666 836.933C818 840.133 872.666 840.133 896 836.933C945.466 830 982.533 818.8 1026 797.333C1068.67 776.4 1099.6 754.133 1134.8 718.8C1169.73 683.733 1191.33 653.6 1212.67 610C1239.47 555.467 1252.27 504.133 1254.27 443.333C1258.67 310 1197.6 183.333 1090 102.667C1044 68.2667 989.333 43.0667 934 30.8C906.133 24.6667 885.733 22.5333 852 22C834 21.8667 816.666 21.8667 813.333 22.1333ZM889.333 48.8C975.466 58.6667 1053.87 96.5333 1115.47 158C1137.47 179.867 1148 192.667 1163.87 216C1195.87 263.333 1216.67 316.4 1225.47 372.8C1229.47 399.2 1230.4 445.733 1227.47 472C1212.4 603.2 1134.27 715.467 1017.2 774.133C964.933 800.267 915.333 812.667 856.533 814.267C816.133 815.333 784.8 812 749.066 802.667C622.133 769.733 519.733 673.2 479.6 548.533C473.066 528.133 468 507.067 464.666 485.333C461.2 464 460.533 412.133 463.2 388.8C471.866 313.6 499.466 247.733 547.2 188C558.533 173.867 590.4 142.4 605.333 130.533C664.133 84.1333 727.466 57.6 801.333 48.6667C821.6 46.1333 867.6 46.2667 889.333 48.8Z" fill="white"/>
<path d="M1316.8 24.2667C1314.93 26.9334 1314.67 66.5333 1314.67 430.667C1314.67 793.6 1314.93 834.4 1316.8 837.067C1318.53 839.6 1320 840 1327.33 840C1333.2 840 1336.4 839.333 1337.87 837.867C1339.87 836 1340 798.133 1340 441.2V46.6667H1357.87H1375.73L1622 441.6C1757.6 658.933 1869.33 837.467 1870.4 838.267C1873.33 840.667 1945.33 840.8 1947.73 838.4C1948.93 837.2 1949.33 747.2 1949.33 441.733V46.5334L1967.6 46.9334L1985.87 47.3334L2231.6 441.2C2366.8 657.867 2478.27 836.267 2479.47 837.6C2481.6 839.867 2484.53 840 2518.8 840C2555.6 840 2555.87 840 2557.87 837.067C2559.73 834.4 2560 793.6 2560 430.667C2560 67.7333 2559.73 26.9334 2557.87 24.2667C2556.13 21.7334 2554.67 21.3334 2546.8 21.3334C2541.6 21.3334 2537.2 22 2536.27 22.9334C2535.07 24.1334 2534.67 114.133 2534.67 419.6V814.667H2515.07H2495.33L2248.8 419.333C2113.2 202 2001.6 23.4667 2000.8 22.6667C1998.8 20.6667 1929.07 20.8 1926.93 22.9334C1925.73 24.1334 1925.33 114.133 1925.33 419.6V814.8L1905.33 814.4L1885.33 814L1638.27 418L1391.2 22L1355.07 21.6C1318.93 21.3334 1318.8 21.3334 1316.8 24.2667Z" fill="white"/>
<path d="M2991.47 22.8C2896.53 32 2808.4 73.4666 2740.8 140.8C2706.4 175.067 2682.27 209.2 2660.8 253.467C2641.07 294.267 2629.47 332.8 2623.2 379.333C2619.87 403.333 2619.87 457.867 2623.07 481.333C2630 530.933 2641.2 567.733 2662.67 611.333C2674.93 636.267 2693.6 666 2710.13 686.667C2722.93 702.8 2758.13 737.6 2774.67 750.667C2821.33 787.733 2876.27 814.533 2933.33 828.533C2959.6 834.933 2998.67 840 3022.27 840C3034.53 840 3036 838.667 3036 827.333C3036 815.6 3035.2 815.2 3010 814.133C2922.93 810.667 2837.73 775.067 2770.27 714.133C2746.13 692.267 2722.93 664.533 2704.53 635.733C2693.87 619.067 2675.2 581.467 2668.67 563.6C2646.13 501.867 2639.6 433.067 2650.13 368C2660.53 304.133 2688.27 242 2730.13 189.333C2742.67 173.6 2772.53 144 2789.2 130.8C2854.27 79.2 2931.07 50 3009.33 47.0666C3035.33 46.1333 3036 45.8666 3036 34C3036 21.8666 3035.2 21.3333 3017.6 21.4666C3009.73 21.6 2998 22.2666 2991.47 22.8Z" fill="white"/>
<path d="M3098.27 23.7333C3096.13 26 3096 56.1333 3096 430.133C3096 793.6 3096.27 834.4 3098.13 837.067C3099.87 839.6 3101.33 840 3108.67 840C3114.53 840 3117.73 839.333 3119.2 837.867C3121.2 836 3121.33 798.133 3121.33 441.2V46.6666H3312.4C3483.07 46.6666 3503.73 46.4 3506.4 44.5333C3508.93 42.8 3509.33 41.3333 3509.33 34C3509.33 28.1333 3508.67 24.9333 3507.2 23.4666C3505.33 21.6 3484.93 21.3333 3302.8 21.3333C3108.4 21.3333 3100.27 21.4666 3098.27 23.7333Z" fill="white"/>
<path d="M3572.27 22.9335C3571.33 23.8669 3570.67 28.5335 3570.67 34.2669C3570.67 43.2002 3570.93 44.1335 3573.73 45.2002C3575.33 45.7335 3586 46.6669 3597.33 47.0669C3663.33 49.6002 3731.07 72.0002 3788 110C3811.47 125.6 3823.47 135.334 3844.53 155.867C3875.2 186 3900.13 219.6 3918.4 255.6C3986.4 389.6 3972 545.6 3880.4 665.6C3867.2 682.933 3832.8 717.733 3815.07 731.733C3751.33 782 3674.13 810.933 3595.33 814.267C3584.4 814.667 3574.27 815.6 3573.07 816.267C3569.87 817.867 3569.6 836.133 3572.67 838.667C3574.27 840 3579.33 840.133 3594.13 839.467C3697.33 834.667 3792.27 792.933 3864.67 720.667C3928 657.6 3967.6 579.467 3981.6 490C3984.13 473.733 3984.53 466 3984.53 430.667C3984.53 385.067 3982.93 369.867 3974.13 334C3934.53 173.067 3802.67 51.6002 3640 26.1335C3610.93 21.6002 3575.33 19.8669 3572.27 22.9335Z" fill="white"/>
<path d="M522 1156.13C456.933 1164.53 399.6 1211.87 378.667 1274.4C371.733 1295.2 370 1306.53 370.133 1330.67C370.133 1354.13 371.867 1365.73 378.133 1385.07C392.4 1428.67 424.933 1466.4 466.133 1487.2C523.6 1516.13 591.6 1511.47 644.533 1475.07L655.067 1467.87L659.333 1472.27C661.733 1474.67 716 1534.53 780 1605.33C844.133 1676.13 901.467 1739.47 907.6 1746.27L918.8 1758.53L914.133 1765.87C901.6 1785.47 892.133 1810.27 888.533 1833.33C885.2 1854.8 886.4 1883.87 891.733 1904C902.933 1946.67 928.267 1982.53 964 2006.53C994 2026.67 1025.2 2036 1062 2036C1110.4 2036 1152.13 2018.8 1186 1984.8C1220.93 1949.73 1238.53 1905.47 1237.07 1855.73L1236.67 1837.2L1243.33 1835.33C1246.93 1834.27 1319.87 1815.73 1405.33 1794C1490.8 1772.4 1561.73 1754.27 1562.93 1753.87C1564.67 1753.33 1565.47 1754.67 1566.67 1760.93C1577.07 1814.93 1612.8 1862 1661.6 1885.73C1684.93 1897.07 1705.33 1902.27 1731.33 1903.6C1795.47 1906.53 1855.33 1874.93 1888.67 1820.53C1892.27 1814.67 1895.33 1809.87 1895.47 1809.6C1895.6 1809.2 2248.13 1979.73 2249.07 1980.67C2249.33 1980.8 2248.27 1985.73 2246.8 1991.47C2242.27 2009.73 2240.93 2023.2 2241.73 2043.2C2243.33 2081.33 2255.87 2114.93 2279.87 2145.33C2304.13 2176.13 2339.47 2197.87 2380.67 2207.47C2389.2 2209.47 2396.53 2210 2417.33 2210C2441.2 2210 2444.53 2209.73 2457.73 2206.4C2527.33 2188.67 2578.4 2133.87 2590 2064.13C2591.87 2053.47 2592.13 2045.6 2591.6 2028.8C2590.8 2001.73 2586.4 1983.33 2575.47 1960.53C2565.47 1939.6 2556.53 1927.2 2539.6 1910.27L2525.2 1895.87L2615.47 1720L2705.73 1544.27L2710.53 1546C2728.27 1552.13 2740.4 1553.87 2766 1553.87C2789.07 1553.87 2792.67 1553.6 2805.33 1550.4C2840 1541.73 2866.13 1527.07 2890 1503.33C2918 1475.47 2934.13 1442.27 2940.67 1398.93L2941.6 1393.33H3153.87H3366.13L3367.73 1405.07C3370 1422.13 3375.07 1438.67 3383.2 1455.33C3408.67 1507.47 3457.07 1543.33 3514.4 1552.8C3530 1555.33 3562.27 1554.67 3576.67 1551.47C3647.47 1535.73 3700.27 1481.87 3714.27 1410.93C3717.6 1393.73 3717.33 1362.13 3713.47 1344.4C3706.27 1310.13 3691.47 1282.27 3667.07 1257.2C3632.93 1222 3590.53 1204 3541.33 1204C3489.6 1204 3443.73 1224.67 3409.2 1263.6C3387.73 1287.6 3372 1321.87 3367.87 1353.07C3367.07 1359.47 3366.13 1365.47 3365.87 1366.27C3365.47 1367.6 3321.87 1368 3153.6 1368H2941.87L2939.73 1353.6C2934 1315.87 2917.07 1282.27 2890 1255.33C2855.87 1221.2 2814.4 1204 2766 1204C2728.8 1204 2696 1214.13 2665.33 1235.2C2652.53 1243.87 2631.73 1264.53 2622.8 1277.33C2581.2 1336.53 2579.87 1415.87 2619.47 1476C2632.93 1496.53 2649.33 1512.53 2670.67 1526.4C2676.93 1530.53 2682.13 1533.87 2682.4 1534C2682.67 1534.27 2643.33 1611.07 2595.2 1704.8C2547.07 1798.67 2506.8 1876.93 2505.87 1878.93L2503.87 1882.67L2494.53 1877.87C2458.4 1859.73 2413.07 1855.07 2372.67 1865.47C2329.6 1876.53 2291.73 1904.53 2267.33 1943.33C2263.47 1949.6 2260 1955.47 2259.73 1956.13C2259.33 1957.2 1908 1788.4 1905.73 1786.13C1905.6 1786 1906.53 1782 1908 1777.33C1913.2 1760.13 1915.07 1743.73 1914.27 1722.13C1913.2 1692.27 1908.4 1674 1895.2 1648C1870.4 1599.33 1823.6 1564.8 1769.6 1555.33C1754.13 1552.53 1725.33 1552.53 1709.33 1555.33C1685.33 1559.47 1663.07 1568.27 1642.53 1582C1616 1599.6 1596.53 1621.87 1582.13 1650.93C1570.93 1673.47 1564 1699.73 1564 1720.27C1564 1726.27 1563.47 1728 1561.73 1728.53C1555.33 1730.4 1233.6 1812 1232.4 1812C1231.6 1812 1229.33 1807.33 1227.33 1801.6C1208.93 1749.73 1164.67 1707.87 1112.27 1692.53C1053.6 1675.47 992.533 1688.93 945.867 1729.2C939.6 1734.53 934.267 1738.67 934.133 1738.53C933.867 1738.27 875.067 1673.33 803.467 1594.27L673.333 1450.4L679.867 1442.93C718.133 1398.13 730.933 1332.13 712 1275.73C684.933 1194.93 606.267 1145.47 522 1156.13Z" fill="white"/>
</svg>
