<svg width="268" height="56" viewBox="0 0 268 56" fill="none" xmlns="http://www.w3.org/2000/svg">
<g clip-path="url(#clip0_1_72)">
<path d="M265.241 8.03882H232.952C232.443 8.03882 231.955 8.24114 231.596 8.60128C231.236 8.96142 231.034 9.44988 231.034 9.95919V42.2945C231.034 42.8038 231.236 43.2922 231.596 43.6524C231.955 44.0125 232.443 44.2149 232.952 44.2149H265.241C265.748 44.2098 266.233 44.0059 266.591 43.6469C266.95 43.2878 267.153 42.8022 267.158 42.2945V9.97071C267.16 9.71756 267.111 9.4666 267.016 9.23228C266.92 8.99796 266.779 8.78489 266.601 8.60535C266.422 8.4258 266.211 8.28332 265.977 8.18609C265.744 8.08886 265.493 8.03881 265.241 8.03882Z" fill="white"/>
<path d="M205.859 2.23916H237.5V5.78417H239.752V1.92038C239.752 1.41106 239.55 0.922604 239.19 0.562464C238.83 0.202323 238.342 0 237.834 0H205.556C205.048 0 204.56 0.202323 204.2 0.562464C203.841 0.922604 203.639 1.41106 203.639 1.92038V16.5152H179.001C178.492 16.5152 178.005 16.7176 177.645 17.0777C177.285 17.4378 177.083 17.9263 177.083 18.4356V50.7671C177.083 51.2764 177.285 51.7649 177.645 52.125C178.005 52.4851 178.492 52.6874 179.001 52.6874H211.309C211.818 52.6874 212.306 52.4851 212.665 52.125C213.025 51.7649 213.227 51.2764 213.227 50.7671V36.1722H228.779V33.9177H205.859V2.23916Z" fill="white"/>
<path d="M15.2657 31.7959C15.4736 31.7959 15.6579 31.8762 15.8185 32.0369L17.321 33.6669C16.4894 34.6969 15.4642 35.486 14.2452 36.034C13.0356 36.5821 11.5804 36.8561 9.87949 36.8561C8.35811 36.8561 6.98793 36.5963 5.76894 36.0766C4.5594 35.5568 3.52468 34.8339 2.66477 33.9079C1.80486 32.9818 1.14339 31.8762 0.680366 30.5911C0.226789 29.306 0 27.9027 0 26.3813C0 24.8411 0.245688 23.4331 0.737064 22.1574C1.22844 20.8723 1.91826 19.7667 2.80651 18.8406C3.70422 17.9146 4.77201 17.1964 6.0099 16.6861C7.24779 16.1664 8.61797 15.9065 10.1204 15.9065C11.6135 15.9065 12.9364 16.1522 14.0893 16.6436C15.2515 17.135 16.239 17.7775 17.0517 18.5713L15.776 20.3431C15.7004 20.4565 15.6012 20.5557 15.4783 20.6407C15.3649 20.7258 15.2043 20.7683 14.9964 20.7683C14.8547 20.7683 14.7082 20.7305 14.557 20.6549C14.4058 20.5699 14.2404 20.4707 14.0609 20.3573C13.8814 20.2344 13.6735 20.1021 13.4372 19.9604C13.201 19.8186 12.927 19.6911 12.6151 19.5777C12.3033 19.4548 11.9395 19.3556 11.5237 19.28C11.1174 19.195 10.6449 19.1524 10.1063 19.1524C9.18967 19.1524 8.34866 19.3178 7.58325 19.6485C6.82729 19.9698 6.17527 20.4423 5.6272 21.066C5.07912 21.6802 4.6539 22.4362 4.35151 23.3339C4.04913 24.2221 3.89793 25.2379 3.89793 26.3813C3.89793 27.5342 4.05857 28.5595 4.37986 29.4572C4.71059 30.3549 5.15472 31.1108 5.71224 31.7251C6.26977 32.3393 6.92651 32.8117 7.68247 33.1425C8.43843 33.4638 9.25109 33.6244 10.1204 33.6244C10.6402 33.6244 11.1079 33.5961 11.5237 33.5394C11.9489 33.4827 12.3364 33.3929 12.686 33.27C13.0451 33.1472 13.3805 32.9913 13.6924 32.8023C14.0137 32.6039 14.3302 32.3629 14.6421 32.0794C14.7365 31.9944 14.8358 31.9282 14.9397 31.881C15.0437 31.8243 15.1523 31.7959 15.2657 31.7959Z" fill="white"/>
<path d="M39.0363 26.3813C39.0363 27.8838 38.7859 29.2776 38.2851 30.5628C37.7937 31.8384 37.0945 32.944 36.1873 33.8795C35.2802 34.815 34.1887 35.5474 32.913 36.0766C31.6374 36.5963 30.2199 36.8561 28.6608 36.8561C27.111 36.8561 25.6983 36.5963 24.4226 36.0766C23.147 35.5474 22.0508 34.815 21.1342 33.8795C20.227 32.944 19.5231 31.8384 19.0222 30.5628C18.5214 29.2776 18.271 27.8838 18.271 26.3813C18.271 24.8789 18.5214 23.4898 19.0222 22.2141C19.5231 20.929 20.227 19.8186 21.1342 18.8831C22.0508 17.9476 23.147 17.22 24.4226 16.7003C25.6983 16.1711 27.111 15.9065 28.6608 15.9065C29.7002 15.9065 30.6782 16.0294 31.5948 16.2751C32.5114 16.5113 33.3524 16.8515 34.1179 17.2956C34.8833 17.7303 35.5684 18.2642 36.1731 18.8973C36.7874 19.521 37.3071 20.2202 37.7323 20.9951C38.1575 21.77 38.4788 22.611 38.6962 23.5181C38.9229 24.4253 39.0363 25.3797 39.0363 26.3813ZM35.1384 26.3813C35.1384 25.2568 34.9872 24.2505 34.6848 23.3622C34.3824 22.4645 33.9525 21.7038 33.395 21.0802C32.8375 20.4565 32.1571 19.9793 31.3539 19.6485C30.5601 19.3178 29.6624 19.1524 28.6608 19.1524C27.6591 19.1524 26.7567 19.3178 25.9535 19.6485C25.1597 19.9793 24.4793 20.4565 23.9124 21.0802C23.3548 21.7038 22.9249 22.4645 22.6225 23.3622C22.3201 24.2505 22.1689 25.2568 22.1689 26.3813C22.1689 27.5058 22.3201 28.5169 22.6225 29.4146C22.9249 30.3029 23.3548 31.0589 23.9124 31.6825C24.4793 32.2967 25.1597 32.7692 25.9535 33.1C26.7567 33.4307 27.6591 33.5961 28.6608 33.5961C29.6624 33.5961 30.5601 33.4307 31.3539 33.1C32.1571 32.7692 32.8375 32.2967 33.395 31.6825C33.9525 31.0589 34.3824 30.3029 34.6848 29.4146C34.9872 28.5169 35.1384 27.5058 35.1384 26.3813Z" fill="white"/>
<path d="M59.6633 16.1333V36.6294H57.7072C57.4048 36.6294 57.1497 36.5821 56.9418 36.4876C56.7434 36.3837 56.5497 36.2136 56.3607 35.9773L45.6591 22.3133C45.7158 22.937 45.7441 23.5134 45.7441 24.0426V36.6294H42.3848V16.1333H44.3834C44.544 16.1333 44.681 16.1428 44.7944 16.1617C44.9173 16.1711 45.0212 16.1995 45.1063 16.2467C45.2008 16.2845 45.2905 16.3459 45.3756 16.431C45.4606 16.5066 45.5551 16.6105 45.6591 16.7428L56.4032 30.4635C56.3748 30.1328 56.3512 29.8068 56.3323 29.4855C56.3134 29.1642 56.304 28.8666 56.304 28.5925V16.1333H59.6633Z" fill="white"/>
<path d="M78.5435 19.2658H72.3635V36.6294H68.5506V19.2658H62.3706V16.1333H78.5435V19.2658Z" fill="white"/>
<path d="M87.4198 25.8852C88.1379 25.8852 88.7616 25.7955 89.2908 25.6159C89.8294 25.4364 90.2688 25.1907 90.609 24.8789C90.9586 24.5576 91.2185 24.1796 91.3886 23.7449C91.5587 23.3102 91.6437 22.833 91.6437 22.3133C91.6437 21.2739 91.2988 20.4754 90.609 19.9179C89.9286 19.3603 88.8844 19.0816 87.4765 19.0816H85.0385V25.8852H87.4198ZM97.2284 36.6294H93.784C93.132 36.6294 92.6595 36.3742 92.3666 35.8639L88.0576 29.3012C87.897 29.0556 87.7174 28.8807 87.519 28.7768C87.33 28.6729 87.0465 28.6209 86.6685 28.6209H85.0385V36.6294H81.2256V16.1333H87.4765C88.8655 16.1333 90.0562 16.2798 91.0484 16.5727C92.05 16.8562 92.8674 17.2578 93.5005 17.7775C94.1431 18.2973 94.6156 18.9209 94.918 19.6485C95.2204 20.3667 95.3716 21.1605 95.3716 22.0298C95.3716 22.7196 95.2676 23.3717 95.0597 23.9859C94.8613 24.6001 94.5683 25.1576 94.1809 25.6585C93.8029 26.1593 93.3304 26.5987 92.7635 26.9767C92.206 27.3546 91.5681 27.6523 90.8499 27.8696C91.0956 28.0114 91.3224 28.1815 91.5303 28.3799C91.7382 28.5689 91.9272 28.7957 92.0973 29.0603L97.2284 36.6294Z" fill="white"/>
<path d="M110.271 28.8902L107.776 22.0724C107.653 21.77 107.526 21.4109 107.394 20.9951C107.261 20.5793 107.129 20.1305 106.997 19.6485C106.874 20.1305 106.746 20.5841 106.614 21.0093C106.482 21.4251 106.354 21.7889 106.231 22.1007L103.751 28.8902H110.271ZM117.004 36.6294H114.055C113.725 36.6294 113.455 36.549 113.248 36.3884C113.04 36.2183 112.884 36.0104 112.78 35.7647L111.249 31.5833H102.759L101.228 35.7647C101.152 35.9821 101.006 36.1805 100.788 36.36C100.571 36.5396 100.302 36.6294 99.9805 36.6294H97.0039L105.069 16.1333H108.953L117.004 36.6294Z" fill="white"/>
<path d="M130.039 19.8612C129.926 20.0596 129.803 20.2061 129.671 20.3006C129.548 20.3856 129.392 20.4281 129.203 20.4281C129.005 20.4281 128.787 20.3573 128.551 20.2155C128.324 20.0643 128.05 19.899 127.729 19.7194C127.408 19.5399 127.03 19.3792 126.595 19.2375C126.17 19.0863 125.664 19.0107 125.078 19.0107C124.549 19.0107 124.086 19.0769 123.689 19.2091C123.292 19.332 122.957 19.5068 122.683 19.7336C122.418 19.9604 122.22 20.2344 122.088 20.5557C121.955 20.8675 121.889 21.2124 121.889 21.5904C121.889 22.0724 122.022 22.474 122.286 22.7952C122.56 23.1165 122.919 23.3906 123.363 23.6174C123.807 23.8441 124.313 24.0473 124.88 24.2268C125.447 24.4064 126.028 24.6001 126.623 24.808C127.219 25.0064 127.8 25.2427 128.367 25.5167C128.934 25.7813 129.439 26.1215 129.884 26.5373C130.328 26.9436 130.682 27.4444 130.947 28.0397C131.221 28.6351 131.358 29.3579 131.358 30.2084C131.358 31.1345 131.197 32.0038 130.876 32.8165C130.564 33.6197 130.101 34.3237 129.487 34.9284C128.882 35.5238 128.14 35.9962 127.261 36.3459C126.382 36.6861 125.376 36.8561 124.242 36.8561C123.59 36.8561 122.948 36.79 122.314 36.6577C121.681 36.5349 121.072 36.3553 120.486 36.1191C119.91 35.8828 119.366 35.5994 118.856 35.2686C118.346 34.9379 117.892 34.5694 117.495 34.163L118.615 32.3345C118.709 32.2023 118.832 32.0936 118.983 32.0085C119.135 31.914 119.295 31.8668 119.465 31.8668C119.702 31.8668 119.957 31.966 120.231 32.1645C120.505 32.3534 120.831 32.5661 121.209 32.8023C121.587 33.0385 122.026 33.2559 122.527 33.4543C123.037 33.6433 123.647 33.7378 124.356 33.7378C125.442 33.7378 126.283 33.4827 126.879 32.9724C127.474 32.4527 127.772 31.7109 127.772 30.747C127.772 30.2084 127.635 29.769 127.361 29.4288C127.096 29.0886 126.742 28.8051 126.297 28.5784C125.853 28.3421 125.348 28.1437 124.781 27.983C124.214 27.8224 123.637 27.6476 123.052 27.4586C122.466 27.2696 121.889 27.0428 121.322 26.7782C120.755 26.5136 120.25 26.1687 119.806 25.7435C119.361 25.3183 119.002 24.7891 118.728 24.156C118.464 23.5134 118.331 22.7244 118.331 21.7889C118.331 21.0424 118.478 20.3147 118.771 19.606C119.073 18.8973 119.508 18.2689 120.075 17.7208C120.642 17.1728 121.341 16.7334 122.173 16.4026C123.004 16.0719 123.959 15.9065 125.036 15.9065C126.245 15.9065 127.361 16.0955 128.381 16.4735C129.402 16.8515 130.271 17.3807 130.989 18.061L130.039 19.8612Z" fill="white"/>
<path d="M149 19.2658H142.82V36.6294H139.007V19.2658H132.827V16.1333H149V19.2658Z" fill="white"/>
<path d="M155.509 19.1666V24.8505H162.681V27.7846H155.509V33.5819H164.609V36.6294H151.682V16.1333H164.609V19.1666H155.509Z" fill="white"/>
<path d="M131.91 46.9675C131.91 47.7973 131.779 48.5524 131.516 49.2328C131.253 49.9132 130.882 50.4956 130.403 50.9801C129.923 51.4646 129.346 51.8409 128.671 52.1089C128.001 52.3718 127.258 52.5032 126.444 52.5032H122.308V41.4241H126.444C127.258 41.4241 128.001 41.5581 128.671 41.8261C129.346 42.089 129.923 42.4652 130.403 42.9549C130.882 43.4394 131.253 44.0218 131.516 44.7022C131.779 45.3826 131.91 46.1377 131.91 46.9675ZM130.372 46.9675C130.372 46.2871 130.279 45.6789 130.093 45.1429C129.908 44.6068 129.645 44.1533 129.305 43.7821C128.965 43.411 128.552 43.1276 128.068 42.9317C127.583 42.7358 127.042 42.6379 126.444 42.6379H123.808V51.2894H126.444C127.042 51.2894 127.583 51.1914 128.068 50.9956C128.552 50.7997 128.965 50.5188 129.305 50.1528C129.645 49.7817 129.908 49.3282 130.093 48.7921C130.279 48.2561 130.372 47.6479 130.372 46.9675Z" fill="white"/>
<path d="M135.049 44.6712V52.5031H133.673V44.6712H135.049ZM135.343 42.2126C135.343 42.3466 135.314 42.4729 135.258 42.5914C135.206 42.7048 135.134 42.8079 135.041 42.9007C134.953 42.9883 134.848 43.0579 134.724 43.1094C134.606 43.161 134.479 43.1867 134.345 43.1867C134.211 43.1867 134.085 43.161 133.966 43.1094C133.853 43.0579 133.752 42.9883 133.665 42.9007C133.577 42.8079 133.508 42.7048 133.456 42.5914C133.405 42.4729 133.379 42.3466 133.379 42.2126C133.379 42.0786 133.405 41.9523 133.456 41.8337C133.508 41.71 133.577 41.6044 133.665 41.5167C133.752 41.424 133.853 41.3518 133.966 41.3003C134.085 41.2487 134.211 41.2229 134.345 41.2229C134.479 41.2229 134.606 41.2487 134.724 41.3003C134.848 41.3518 134.953 41.424 135.041 41.5167C135.134 41.6044 135.206 41.71 135.258 41.8337C135.314 41.9523 135.343 42.0786 135.343 42.2126Z" fill="white"/>
<path d="M140.039 48.6761C140.318 48.6761 140.562 48.6375 140.774 48.5602C140.985 48.4829 141.163 48.3746 141.307 48.2355C141.451 48.0963 141.56 47.9313 141.632 47.7406C141.704 47.5448 141.74 47.3309 141.74 47.0989C141.74 46.6196 141.593 46.2382 141.299 45.9547C141.011 45.6712 140.591 45.5295 140.039 45.5295C139.483 45.5295 139.057 45.6712 138.763 45.9547C138.475 46.2382 138.331 46.6196 138.331 47.0989C138.331 47.3309 138.367 47.5448 138.439 47.7406C138.516 47.9313 138.627 48.0963 138.771 48.2355C138.916 48.3746 139.093 48.4829 139.305 48.5602C139.516 48.6375 139.761 48.6761 140.039 48.6761ZM142.521 52.9284C142.521 52.7377 142.467 52.5831 142.359 52.4645C142.25 52.346 142.103 52.2532 141.918 52.1862C141.738 52.1192 141.526 52.0728 141.284 52.0471C141.042 52.0161 140.784 51.9929 140.511 51.9775C140.243 51.962 139.97 51.9465 139.691 51.9311C139.413 51.9156 139.145 51.8898 138.887 51.8538C138.599 51.9878 138.361 52.1579 138.176 52.364C137.996 52.5651 137.905 52.8022 137.905 53.0753C137.905 53.2506 137.949 53.4129 138.037 53.5624C138.13 53.717 138.269 53.8485 138.454 53.9567C138.64 54.0701 138.872 54.1577 139.15 54.2196C139.434 54.2866 139.766 54.3201 140.147 54.3201C140.519 54.3201 140.851 54.2866 141.145 54.2196C141.439 54.1526 141.686 54.0572 141.887 53.9335C142.093 53.8098 142.25 53.6629 142.359 53.4928C142.467 53.3227 142.521 53.1346 142.521 52.9284ZM143.92 44.9805V45.4908C143.92 45.6609 143.812 45.7691 143.596 45.8155L142.707 45.9315C142.882 46.2717 142.969 46.6479 142.969 47.0603C142.969 47.4417 142.895 47.7896 142.745 48.104C142.601 48.4133 142.4 48.6787 142.142 48.9004C141.884 49.122 141.575 49.2921 141.214 49.4106C140.854 49.5292 140.462 49.5885 140.039 49.5885C139.673 49.5885 139.328 49.5446 139.003 49.457C138.838 49.5601 138.712 49.6709 138.624 49.7895C138.537 49.9029 138.493 50.0188 138.493 50.1374C138.493 50.3229 138.568 50.4647 138.717 50.5626C138.872 50.6554 139.073 50.7224 139.32 50.7636C139.568 50.8049 139.848 50.8306 140.163 50.8409C140.482 50.8513 140.807 50.8693 141.137 50.8951C141.472 50.9157 141.797 50.9543 142.111 51.011C142.431 51.0677 142.714 51.1605 142.962 51.2894C143.209 51.4182 143.408 51.5961 143.557 51.8228C143.712 52.0496 143.789 52.3434 143.789 52.7042C143.789 53.0393 143.704 53.364 143.534 53.6784C143.369 53.9928 143.129 54.2711 142.815 54.5134C142.5 54.7608 142.114 54.9566 141.655 55.101C141.201 55.2504 140.689 55.3252 140.116 55.3252C139.544 55.3252 139.044 55.2685 138.617 55.1551C138.189 55.0417 137.833 54.8896 137.55 54.6989C137.266 54.5082 137.052 54.2866 136.908 54.034C136.769 53.7866 136.699 53.5263 136.699 53.2532C136.699 52.8666 136.82 52.5393 137.063 52.2713C137.305 52.0032 137.637 51.7893 138.06 51.6296C137.828 51.5265 137.642 51.3899 137.503 51.2198C137.369 51.0445 137.302 50.81 137.302 50.5162C137.302 50.4028 137.323 50.2869 137.364 50.1683C137.405 50.0446 137.467 49.9235 137.55 49.8049C137.637 49.6812 137.743 49.5653 137.867 49.457C137.99 49.3488 138.135 49.2534 138.3 49.171C137.913 48.9545 137.612 48.6684 137.395 48.3128C137.179 47.952 137.07 47.5345 137.07 47.0603C137.07 46.6789 137.142 46.3335 137.287 46.0243C137.436 45.7099 137.642 45.4444 137.905 45.2279C138.168 45.0063 138.48 44.8362 138.841 44.7176C139.207 44.5991 139.606 44.5398 140.039 44.5398C140.379 44.5398 140.696 44.5785 140.99 44.6558C141.284 44.728 141.552 44.8362 141.794 44.9805H143.92Z" fill="white"/>
<path d="M146.797 44.6712V52.5031H145.421V44.6712H146.797ZM147.091 42.2126C147.091 42.3466 147.062 42.4729 147.006 42.5914C146.954 42.7048 146.882 42.8079 146.789 42.9007C146.702 42.9883 146.596 43.0579 146.472 43.1094C146.354 43.161 146.227 43.1867 146.093 43.1867C145.959 43.1867 145.833 43.161 145.715 43.1094C145.601 43.0579 145.501 42.9883 145.413 42.9007C145.325 42.8079 145.256 42.7048 145.204 42.5914C145.153 42.4729 145.127 42.3466 145.127 42.2126C145.127 42.0786 145.153 41.9523 145.204 41.8337C145.256 41.71 145.325 41.6044 145.413 41.5167C145.501 41.424 145.601 41.3518 145.715 41.3003C145.833 41.2487 145.959 41.2229 146.093 41.2229C146.227 41.2229 146.354 41.2487 146.472 41.3003C146.596 41.3518 146.702 41.424 146.789 41.5167C146.882 41.6044 146.954 41.71 147.006 41.8337C147.062 41.9523 147.091 42.0786 147.091 42.2126Z" fill="white"/>
<path d="M151.463 52.6267C150.844 52.6267 150.367 52.454 150.032 52.1087C149.702 51.7634 149.537 51.266 149.537 50.6165V45.823H148.594C148.512 45.823 148.442 45.7999 148.386 45.7535C148.329 45.7019 148.3 45.6246 148.3 45.5215V44.9726L149.584 44.8102L149.901 42.3903C149.916 42.313 149.95 42.2511 150.001 42.2047C150.058 42.1532 150.13 42.1274 150.218 42.1274H150.914V44.8257H153.179V45.823H150.914V50.5238C150.914 50.8536 150.994 51.0985 151.153 51.2582C151.313 51.418 151.519 51.4979 151.772 51.4979C151.916 51.4979 152.04 51.4799 152.143 51.4438C152.251 51.4026 152.344 51.3588 152.421 51.3124C152.499 51.266 152.563 51.2247 152.615 51.1887C152.671 51.1474 152.72 51.1268 152.762 51.1268C152.834 51.1268 152.898 51.1706 152.955 51.2582L153.357 51.9154C153.12 52.1371 152.834 52.3123 152.499 52.4412C152.164 52.5649 151.818 52.6267 151.463 52.6267Z" fill="white"/>
<path d="M158.845 48.9776C158.211 48.9982 157.669 49.0497 157.221 49.1322C156.778 49.2095 156.414 49.3126 156.131 49.4415C155.853 49.5703 155.649 49.7224 155.52 49.8976C155.396 50.0729 155.334 50.2687 155.334 50.4852C155.334 50.6914 155.368 50.8692 155.435 51.0187C155.502 51.1681 155.592 51.2918 155.706 51.3898C155.824 51.4826 155.961 51.5521 156.115 51.5985C156.275 51.6398 156.445 51.6604 156.626 51.6604C156.868 51.6604 157.09 51.6372 157.291 51.5908C157.492 51.5393 157.68 51.4671 157.855 51.3743C158.035 51.2815 158.205 51.1707 158.365 51.0419C158.53 50.913 158.69 50.7661 158.845 50.6012V48.9776ZM154.399 45.7768C154.832 45.3593 155.298 45.0474 155.798 44.8413C156.298 44.6351 156.852 44.532 157.461 44.532C157.899 44.532 158.288 44.6042 158.628 44.7485C158.968 44.8928 159.254 45.0938 159.486 45.3515C159.718 45.6092 159.893 45.9211 160.012 46.287C160.131 46.653 160.19 47.055 160.19 47.4931V52.5031H159.579C159.445 52.5031 159.342 52.4825 159.27 52.4413C159.198 52.3949 159.141 52.3072 159.1 52.1784L158.945 51.4362C158.739 51.6269 158.538 51.797 158.342 51.9464C158.146 52.0908 157.94 52.2145 157.724 52.3176C157.507 52.4155 157.275 52.4902 157.028 52.5418C156.785 52.5985 156.515 52.6268 156.216 52.6268C155.912 52.6268 155.626 52.5856 155.358 52.5031C155.09 52.4155 154.855 52.2866 154.654 52.1165C154.458 51.9464 154.301 51.7325 154.183 51.4748C154.069 51.212 154.012 50.9027 154.012 50.5471C154.012 50.2378 154.097 49.9414 154.268 49.6579C154.438 49.3693 154.713 49.1142 155.095 48.8925C155.476 48.6709 155.974 48.4905 156.587 48.3513C157.2 48.207 157.953 48.1245 158.845 48.1039V47.4931C158.845 46.8849 158.713 46.4262 158.45 46.1169C158.187 45.8025 157.803 45.6453 157.298 45.6453C156.958 45.6453 156.672 45.6891 156.44 45.7768C156.213 45.8592 156.015 45.9546 155.845 46.0628C155.68 46.1659 155.536 46.2613 155.412 46.3489C155.293 46.4314 155.175 46.4726 155.056 46.4726C154.963 46.4726 154.883 46.4494 154.816 46.403C154.749 46.3515 154.693 46.2896 154.646 46.2174L154.399 45.7768Z" fill="white"/>
<path d="M163.709 41.1147V52.5031H162.333V41.1147H163.709Z" fill="white"/>
</g>
<defs>
<clipPath id="clip0_1_72">
<rect width="268" height="56" fill="white"/>
</clipPath>
</defs>
</svg>
