<svg width="86" height="86" viewBox="0 0 86 86" fill="none" xmlns="http://www.w3.org/2000/svg">
<g clip-path="url(#clip0_1_91)">
<path d="M0 0V85.04H85.04V0H0ZM70.45 19.45V66.46H69.32V66.44H59.73V66.46H58.6V66.44H49.01V66.46H47.88V66.44H38.29V66.46H37.16V66.44H27.57V66.46H26.44V66.44H17.22L5.99 76.36L5.24 75.51L15.72 66.26V18.82H16.85V65.26L26.44 56.8V18.82H27.57V55.79L37.16 47.33V18.82H38.29V46.33L47.88 37.87V18.82H49.01V36.87L58.6 28.41V18.83H59.73V27.41L69.32 18.95V18.83H69.45L80.51 9.06L81.26 9.91L70.45 19.45Z" fill="white"/>
</g>
<defs>
<clipPath id="clip0_1_91">
<rect width="85.04" height="85.04" fill="white"/>
</clipPath>
</defs>
</svg>
