<svg width="2488" height="475" viewBox="0 0 2488 475" fill="none" xmlns="http://www.w3.org/2000/svg">
<g clip-path="url(#clip0_2407_2786)">
<g filter="url(#filter0_d_2407_2786)">
<path d="M519.453 330.469C511.653 340.113 501.801 347.897 490.614 353.255C479.426 358.612 467.185 361.408 454.781 361.439C400.887 361.439 357.896 320.745 357.896 246.541C357.896 175.001 400.02 132.014 454.781 132.014C467.211 131.887 479.505 134.613 490.717 139.982C501.929 145.351 511.76 153.22 519.453 162.984V54.0322H588.709V355.803H538.037C533.108 355.803 528.381 353.845 524.896 350.36C521.411 346.875 519.453 342.149 519.453 337.221V330.469ZM519.453 212.784C514.235 206.809 507.825 201.993 500.634 198.643C493.444 195.294 485.632 193.486 477.701 193.335C450.073 193.335 429.692 213.713 429.692 246.293C429.692 278.873 450.073 299.685 477.701 299.685C485.641 299.481 493.451 297.63 500.638 294.25C507.825 290.87 514.232 286.035 519.453 280.05V212.784Z" fill="white"/>
<path d="M656.851 382.995C672.647 382.995 682.62 379.836 686.275 370.607L691.231 358.838L604.506 137.094H664.718C668.563 137.092 672.313 138.282 675.453 140.501C678.593 142.719 680.967 145.857 682.249 149.482L727.16 275.591L772.505 149.482C773.786 145.857 776.16 142.719 779.3 140.501C782.44 138.282 786.191 137.092 790.035 137.094H850.681L752.062 386.835C734.407 433.042 701.39 443.448 659.762 444.315C649.69 444.169 639.662 442.965 629.842 440.722L636.656 398.356C637.38 393.861 639.73 389.789 643.258 386.911C646.787 384.034 651.249 382.552 655.797 382.747L656.851 382.995Z" fill="white"/>
<path d="M865.672 137.586H935.362V165.212C943.854 155.333 954.283 147.301 966.003 141.612C977.724 135.923 990.486 132.697 1003.5 132.136V180.139C1003.5 184.689 1001.69 189.053 998.477 192.271C995.259 195.489 990.894 197.296 986.343 197.296V197.296C968.193 197.296 944.22 204.977 935.176 217.674V356.11H865.672V137.586Z" fill="white"/>
<path d="M1120.02 131.826C1184.69 131.826 1231.53 179.334 1231.53 253.538C1231.53 255.503 1231.15 257.451 1230.41 259.269C1229.66 261.088 1228.56 262.74 1227.17 264.133C1225.79 265.526 1224.14 266.631 1222.32 267.385C1220.51 268.139 1218.56 268.527 1216.6 268.527H1076.1C1080.19 288.843 1099.21 307.425 1131.85 307.425C1147.23 307.229 1162.31 303.183 1175.71 295.657C1178.42 294.034 1181.65 293.509 1184.74 294.188C1187.82 294.867 1190.53 296.7 1192.31 299.311L1214.61 332.325C1192.93 351.774 1156.69 361.251 1123.24 361.251C1055.78 361.251 1003.75 317.336 1003.75 246.353C1003.69 182.988 1051.69 131.826 1120.02 131.826ZM1075.17 223.249H1165.3C1163.51 207.888 1152.17 185.714 1120.08 185.714C1109.26 185.23 1098.65 188.815 1090.34 195.761C1082.03 202.708 1076.62 212.514 1075.17 223.249V223.249Z" fill="white"/>
<path d="M1360.87 131.953C1410.92 130.343 1442.02 151.96 1455.59 172.152L1424 201.511C1420.84 204.599 1416.69 206.463 1412.29 206.77C1407.88 207.076 1403.51 205.805 1399.96 203.184C1391.03 196.535 1380.12 193.087 1368.99 193.397C1340.06 193.397 1317.88 213.28 1317.88 246.356C1317.88 279.431 1340.06 299.748 1368.99 299.748C1381.4 299.911 1393.42 295.375 1402.62 287.05C1404.91 284.943 1407.91 283.774 1411.02 283.774C1414.13 283.774 1417.12 284.943 1419.41 287.05L1455.4 320.931C1442.27 339.947 1412.91 361.192 1365.83 361.192C1298.74 361.192 1248.13 316.719 1246.39 249.7C1244.85 186.274 1297.19 133.935 1360.87 131.953Z" fill="white"/>
<path d="M1586.11 308.108C1585.33 305.081 1583.43 302.46 1580.8 300.771C1578.17 299.083 1575 298.451 1571.92 299.003C1569.6 299.475 1567.23 299.724 1564.86 299.746C1552.47 299.746 1545.41 290.207 1545.41 277.572V197.917H1571.18C1576.11 197.917 1580.83 195.96 1584.32 192.475C1587.81 188.99 1589.76 184.264 1589.76 179.335V137.588H1545.41V77.5684H1476.15V297.021C1476.15 339.078 1500.19 361.252 1544.29 361.252C1570.13 361.252 1587.66 355.058 1595.9 346.758L1586.11 308.108Z" fill="white"/>
<path d="M1604.13 246.353C1604.13 184.785 1648.92 131.826 1723.13 131.826C1797.35 131.826 1842.63 184.785 1842.63 246.353C1842.63 307.921 1798.27 361.251 1723.13 361.251C1647.99 361.251 1604.13 307.859 1604.13 246.353ZM1771.39 246.353C1771.39 217.365 1754.23 193.394 1723.44 193.394C1692.66 193.394 1676.36 217.365 1676.36 246.353C1676.36 275.341 1693.15 299.745 1723.44 299.745C1753.74 299.745 1771.08 275.712 1771.08 246.353H1771.39Z" fill="white"/>
<path d="M1872.05 137.586H1941.74V165.212C1950.24 155.338 1960.67 147.31 1972.39 141.622C1984.11 135.933 1996.87 132.705 2009.88 132.136V180.758C2009.87 182.962 2009.42 185.141 2008.55 187.169C2007.69 189.196 2006.43 191.032 2004.85 192.571C2003.27 194.109 2001.4 195.318 1999.35 196.13C1997.31 196.941 1995.12 197.337 1992.91 197.296V197.296C1974.82 197.296 1950.79 204.977 1941.74 217.674V356.11H1872.05V137.586Z" fill="white"/>
<path d="M2034.29 276.211C2042.71 276.199 2050.95 278.686 2057.96 283.357C2064.96 288.028 2070.43 294.673 2073.66 302.451C2076.89 310.229 2077.73 318.79 2076.09 327.05C2074.45 335.31 2070.4 342.898 2064.44 348.853C2058.49 354.808 2050.9 358.862 2042.64 360.501C2034.38 362.141 2025.82 361.294 2018.04 358.065C2010.26 354.837 2003.61 349.373 1998.94 342.366C1994.27 335.359 1991.78 327.123 1991.79 318.702C1992.02 307.502 1996.57 296.823 2004.49 288.902C2012.41 280.981 2023.09 276.433 2034.29 276.211V276.211Z" fill="white"/>
<path d="M2116.43 69.8888C2116.42 62.017 2118.74 54.3182 2123.1 47.7646C2127.46 41.2109 2133.67 36.0965 2140.93 33.0672C2148.2 30.0379 2156.2 29.2296 2163.93 30.7443C2171.65 32.2591 2178.76 36.0289 2184.34 41.5778C2189.92 47.1267 2193.74 54.2057 2195.3 61.9209C2196.86 69.636 2196.11 77.6412 2193.12 84.9254C2190.14 92.2096 2185.06 98.4462 2178.53 102.847C2172.01 107.249 2164.32 109.617 2156.45 109.654C2151.2 109.712 2145.99 108.724 2141.12 106.749C2136.26 104.774 2131.84 101.851 2128.11 98.1507C2124.39 94.4499 2121.44 90.0453 2119.43 85.1932C2117.43 80.3412 2116.41 75.1387 2116.43 69.8888V69.8888ZM2121.39 137.279H2191.08V355.803H2121.39V137.279Z" fill="white"/>
<path d="M2218.77 246.353C2218.77 184.785 2263.55 131.826 2337.77 131.826C2412.91 131.826 2457.26 184.785 2457.26 246.353C2457.26 307.921 2412.91 361.251 2337.77 361.251C2263.55 361.251 2218.77 307.859 2218.77 246.353ZM2386.02 246.353C2386.02 217.365 2368.8 193.394 2338.01 193.394C2307.23 193.394 2291 217.365 2291 246.353C2291 275.341 2307.72 299.745 2338.01 299.745C2368.31 299.745 2385.65 275.712 2385.65 246.353H2386.02Z" fill="white"/>
</g>
<path d="M180.383 352.989C189.135 348.176 196.433 341.106 201.518 332.514C206.603 323.922 209.287 314.125 209.291 304.143V192.309C209.289 188.306 208.244 184.373 206.257 180.897C204.27 177.421 201.411 174.523 197.962 172.488C194.512 170.452 190.591 169.351 186.586 169.292C182.58 169.232 178.628 170.217 175.12 172.149L28.8677 252.669C20.1177 257.49 12.8231 264.569 7.74536 273.168C2.66757 281.767 -0.00727219 291.57 1.48492e-05 301.554V432.114C0.00438289 434.19 0.550106 436.23 1.58342 438.031C2.61674 439.833 4.10199 441.335 5.89284 442.388C7.68369 443.442 9.71835 444.011 11.7963 444.04C13.8743 444.068 15.924 443.556 17.7433 442.552L180.383 352.989Z" fill="white"/>
<path style="mix-blend-mode:multiply" opacity="0.6" d="M175.12 172.157L28.8677 252.881C20.1177 257.714 12.8231 264.811 7.74536 273.432C2.66757 282.053 -0.00727219 291.881 1.48492e-05 301.89V367.516L209.291 252.282V192.368C209.289 188.355 208.244 184.411 206.257 180.927C204.27 177.442 201.411 174.536 197.962 172.496C194.512 170.455 190.591 169.351 186.586 169.292C182.58 169.232 178.628 170.22 175.12 172.157V172.157Z" fill="url(#paint0_linear_2407_2786)"/>
<path style="mix-blend-mode:multiply" opacity="0.6" d="M175.12 172.157L28.8677 252.881C20.1177 257.714 12.8231 264.811 7.74536 273.432C2.66757 282.053 -0.00727219 291.881 1.48492e-05 301.89V367.516L209.291 252.282V192.368C209.289 188.355 208.244 184.411 206.257 180.927C204.27 177.442 201.411 174.536 197.962 172.496C194.512 170.455 190.591 169.351 186.586 169.292C182.58 169.232 178.628 170.22 175.12 172.157V172.157Z" fill="url(#paint1_linear_2407_2786)"/>
<path d="M188.581 156.638L1.76094 54.041L0.926211 114.366C0.819622 121.586 2.6798 128.698 6.30718 134.94C9.93457 141.182 15.1923 146.319 21.5162 149.798L209.29 253.19V191.672C209.313 184.507 207.401 177.47 203.756 171.303C200.11 165.136 194.868 160.069 188.581 156.638Z" fill="white"/>
<path d="M90.3544 102.638L59.0068 85.3887V170.44L90.3544 187.729V102.638Z" fill="#B9B9B9"/>
<path d="M31.1912 70.5797L1.74622 54.041L0.926135 114.351C0.821416 121.569 2.64896 128.68 6.21271 134.92C9.77646 141.161 14.9419 146.296 21.1549 149.774L31.3474 155.459L31.1912 70.5797Z" fill="#959595"/>
<path d="M188.459 156.591L177.943 150.85V236.047L209.291 253.19V191.515C209.278 184.366 207.337 177.352 203.672 171.208C200.007 165.064 194.753 160.015 188.459 156.591V156.591Z" fill="#EFEFEF"/>
<path d="M150.284 135.756L118.937 118.58V203.704L150.284 220.921V135.756Z" fill="#EFEFEF"/>
</g>
<defs>
<filter id="filter0_d_2407_2786" x="327.896" y="0" width="2159.36" height="474.314" filterUnits="userSpaceOnUse" color-interpolation-filters="sRGB">
<feFlood flood-opacity="0" result="BackgroundImageFix"/>
<feColorMatrix in="SourceAlpha" type="matrix" values="0 0 0 0 0 0 0 0 0 0 0 0 0 0 0 0 0 0 127 0" result="hardAlpha"/>
<feOffset/>
<feGaussianBlur stdDeviation="15"/>
<feComposite in2="hardAlpha" operator="out"/>
<feColorMatrix type="matrix" values="0 0 0 0 0 0 0 0 0 0 0 0 0 0 0 0 0 0 0.1 0"/>
<feBlend mode="normal" in2="BackgroundImageFix" result="effect1_dropShadow_2407_2786"/>
<feBlend mode="normal" in="SourceGraphic" in2="effect1_dropShadow_2407_2786" result="shape"/>
</filter>
<linearGradient id="paint0_linear_2407_2786" x1="205.623" y1="205.149" x2="6.57786" y2="313.779" gradientUnits="userSpaceOnUse">
<stop stop-color="white"/>
</linearGradient>
<linearGradient id="paint1_linear_2407_2786" x1="205.623" y1="205.149" x2="6.57786" y2="313.779" gradientUnits="userSpaceOnUse">
<stop stop-color="white"/>
<stop offset="1" stop-color="#505050" stop-opacity="0"/>
</linearGradient>
<clipPath id="clip0_2407_2786">
<rect width="2488" height="475" fill="white"/>
</clipPath>
</defs>
</svg>
