<svg width="338" height="90" viewBox="0 0 338 90" fill="none" xmlns="http://www.w3.org/2000/svg">
<g clip-path="url(#clip0_1_93)">
<path d="M179.94 4.52124H213.38H229.29V20.4312V72.7112H213.38V20.4312H179.94V4.52124Z" fill="white"/>
<path d="M286.63 72.7112H253.18H237.27V56.8012V4.52124H253.18V56.8012H286.63V72.7112Z" fill="white"/>
<path d="M91.6102 73.7912H108.95L72.8202 4.52124L36.7002 73.7912H54.0402L72.8202 37.7812L91.6102 73.7912Z" fill="white"/>
<path d="M185.32 89.7413L165.93 62.5913C169.582 59.1523 172.477 54.9903 174.43 50.3713L158.55 43.6513C152.909 57.1453 134.775 59.4723 125.909 47.8403C117.043 36.2073 124.094 19.3393 138.601 17.4773C147.555 16.3283 156.082 21.6383 159 30.1813L175.33 24.6413C166.398 -1.7797 132.214 -8.62469 113.799 12.3213C95.3841 33.2673 106.548 66.2933 133.895 71.7683C139.495 72.8893 145.281 72.6713 150.78 71.1313L164.09 89.7513L185.32 89.7413Z" fill="white"/>
<path d="M337.64 4.52124H320.3L301.52 40.5412L282.74 4.52124H265.4L293.67 58.7312V72.7112H309.37V58.7312L337.64 4.52124Z" fill="white"/>
<path d="M53.92 20.4312L63.05 4.52124H15.91H0V20.4312V72.7112H15.91V46.8712H42.14L49.35 31.6312H15.91V20.4312H53.92Z" fill="white"/>
<path d="M137.618 41.5922C137.884 41.1882 137.763 40.6312 137.352 40.3532L131.869 36.6322L137.352 32.8882C137.739 32.6102 137.86 32.0782 137.618 31.6472C137.352 31.2432 136.821 31.1172 136.435 31.3702L129.864 35.8232C129.622 36.0012 129.478 36.2542 129.478 36.5822C129.478 36.9122 129.622 37.1642 129.864 37.3412L136.435 41.7942C136.579 41.8962 136.749 41.9222 136.894 41.9222C137.184 41.9972 137.474 41.8462 137.618 41.5922Z" fill="white"/>
<path d="M152.063 35.8994L145.493 31.4454C145.106 31.1674 144.575 31.2934 144.309 31.7244C144.043 32.1294 144.164 32.6864 144.575 32.9644L150.058 36.7094L144.575 40.4544C144.189 40.7324 144.068 41.2644 144.309 41.6934C144.478 41.9724 144.743 42.0984 145.034 42.0984C145.203 42.0984 145.348 42.0484 145.493 41.9724L152.063 37.4174C152.305 37.2404 152.449 36.9874 152.449 36.6584C152.426 36.3294 152.28 36.0514 152.063 35.8994Z" fill="white"/>
<path d="M144.019 27.3712C143.585 27.2202 143.101 27.4472 142.933 27.9282L137.352 44.8312C137.208 45.2872 137.425 45.7922 137.884 45.9702C137.98 46.0202 138.077 46.0202 138.15 46.0202C138.488 46.0202 138.826 45.7922 138.946 45.4142L144.527 28.5102C144.696 28.0292 144.453 27.5242 144.019 27.3712Z" fill="white"/>
</g>
<defs>
<clipPath id="clip0_1_93">
<rect width="338" height="90" fill="white"/>
</clipPath>
</defs>
</svg>
