<svg xmlns="http://www.w3.org/2000/svg" fill="none" viewBox="0 0 137 56" height="56" width="137">
<path fill="white" d="M90.6473 11.2783L106.322 26.8493C106.624 27.1478 106.863 27.5026 107.026 27.8932C107.188 28.2838 107.272 28.7025 107.271 29.1253V33.9977C107.271 34.8503 106.931 35.6681 106.325 36.2715L100.148 42.3982C99.5402 43.0004 98.7173 43.3389 97.8593 43.3395H93.3383C92.48 43.3385 91.6569 43.0004 91.0485 42.3989L84.8714 36.2715C84.57 35.9723 84.331 35.6169 84.1681 35.2257C84.0051 34.8345 83.9215 34.4152 83.9219 33.9918V20.4709C83.9221 20.3571 83.9562 20.246 84.0198 20.1514C84.0835 20.0569 84.174 19.9832 84.2798 19.9397C84.3856 19.8962 84.502 19.8848 84.6143 19.9069C84.7266 19.9291 84.8298 19.9838 84.9108 20.0641L89.6584 24.7771V11.6836C89.6585 11.5698 89.6926 11.4586 89.7563 11.364C89.82 11.2695 89.9106 11.1959 90.0165 11.1525C90.1223 11.1091 90.2388 11.0979 90.3511 11.1203C90.4634 11.1427 90.5665 11.1977 90.6473 11.2783ZM101.258 33.2322C101.439 33.0514 101.541 32.8067 101.541 32.5515V30.6564C101.541 30.5296 101.516 30.404 101.467 30.2869C101.418 30.1698 101.346 30.0636 101.255 29.9743L99.4693 28.1974C99.2868 28.0166 99.0397 27.9151 98.782 27.9151C98.5244 27.9151 98.2772 28.0166 98.0948 28.1974L95.5999 30.683L93.1006 28.1974C92.9182 28.0166 92.6712 27.9151 92.4137 27.9151C92.1562 27.9151 91.9091 28.0166 91.7268 28.1974L89.9385 29.9743C89.7567 30.1556 89.6537 30.4005 89.6517 30.6564V32.5515C89.6548 32.8048 89.7577 33.0469 89.9385 33.2255L94.9045 38.1946C94.9944 38.2853 95.1015 38.3572 95.2196 38.4063C95.3377 38.4555 95.4644 38.4808 95.5925 38.4808C95.7205 38.4808 95.8473 38.4555 95.9654 38.4063C96.0835 38.3572 96.1906 38.2853 96.2805 38.1946L101.258 33.2322Z" clip-rule="evenodd" fill-rule="evenodd"></path>
<path fill="white" d="M130.01 23.4254C128.731 23.4257 127.489 23.8561 126.487 24.6464L125.688 25.3027C125.567 25.3963 125.417 25.4471 125.264 25.4471C125.11 25.4471 124.961 25.3963 124.84 25.3027L124.038 24.6457C123.036 23.8556 121.795 23.4255 120.515 23.4254H120.367C118.441 23.4254 116.749 24.4707 115.809 26.2698C115.79 26.3063 115.76 26.3354 115.722 26.3526C115.685 26.3698 115.642 26.3741 115.602 26.3648C115.562 26.3555 115.526 26.3331 115.5 26.3012C115.474 26.2693 115.459 26.2297 115.459 26.1886V24.1732C115.459 24.0937 115.443 24.0149 115.412 23.9414C115.382 23.8679 115.337 23.8011 115.28 23.7449C115.223 23.6887 115.156 23.6441 115.082 23.6137C115.008 23.5834 114.929 23.5678 114.849 23.5679H110.614C110.452 23.5683 110.296 23.6327 110.182 23.747C110.067 23.8613 110.002 24.0162 110.002 24.1777V40.7859C110.002 40.8667 110.018 40.9467 110.049 41.0214C110.08 41.0961 110.125 41.164 110.183 41.2211C110.24 41.2783 110.308 41.3236 110.383 41.3544C110.459 41.3853 110.539 41.4011 110.62 41.4009H114.84C115.004 41.4009 115.161 41.3361 115.277 41.2207C115.393 41.1054 115.459 40.949 115.459 40.7859V30.8779C115.459 30.3277 115.678 29.7999 116.069 29.4103C116.263 29.2176 116.494 29.0649 116.747 28.9607C117 28.8566 117.272 28.8032 117.546 28.8035H118.615C118.889 28.8032 119.161 28.8566 119.414 28.9608C119.668 29.0649 119.898 29.2176 120.092 29.4103C120.287 29.603 120.441 29.8317 120.546 30.0836C120.651 30.3354 120.705 30.6053 120.705 30.8779L120.717 40.7881C120.717 40.9096 120.754 41.0283 120.822 41.1292C120.89 41.23 120.987 41.3084 121.1 41.3544C121.175 41.3852 121.255 41.401 121.336 41.4009H125.556C125.72 41.4009 125.877 41.3361 125.993 41.2207C126.109 41.1054 126.174 40.949 126.174 40.7859V30.8779C126.174 30.6055 126.228 30.3358 126.333 30.0841C126.438 29.8324 126.592 29.6037 126.786 29.4111C126.98 29.2184 127.21 29.0656 127.463 28.9614C127.717 28.8571 127.988 28.8035 128.262 28.8035H129.332C129.606 28.8029 129.878 28.8562 130.132 28.9602C130.385 29.0642 130.616 29.217 130.81 29.4098C131.004 29.6025 131.157 29.8314 131.262 30.0834C131.367 30.3353 131.42 30.6054 131.42 30.8779L131.435 40.7881C131.436 40.9505 131.501 41.1061 131.616 41.221C131.732 41.3358 131.889 41.4005 132.052 41.4009H136.274C136.355 41.4009 136.435 41.3849 136.51 41.354C136.585 41.3231 136.653 41.2777 136.71 41.2206C136.768 41.1635 136.813 41.0957 136.844 41.0211C136.875 40.9465 136.891 40.8666 136.89 40.7859V30.3634C136.908 28.9991 136.516 27.6606 135.763 26.5195C135.01 25.3784 133.931 24.4868 132.665 23.9591C131.824 23.6086 130.922 23.4272 130.01 23.4254Z"></path>
<path fill="white" d="M76.285 13.2265L80.2049 17.1215C80.5045 17.4195 80.673 17.8232 80.6737 18.2444V40.8125C80.6735 40.9738 80.6089 41.1284 80.4942 41.2424C80.3794 41.3564 80.2238 41.4206 80.0615 41.4208H75.8266C75.7471 41.4208 75.6676 41.4053 75.5933 41.3743C75.4822 41.328 75.3873 41.2502 75.3203 41.1507C75.2533 41.0512 75.2173 40.9344 75.2166 40.8147V38.662C75.2167 38.6207 75.2027 38.5806 75.1767 38.5484C75.1508 38.5162 75.1145 38.4937 75.074 38.4848C75.0336 38.4751 74.9911 38.4793 74.9534 38.4968C74.9158 38.5142 74.8852 38.5438 74.8667 38.5808C73.9268 40.3791 72.2351 41.4252 70.3086 41.4252H68.9385C68.0243 41.4254 67.119 41.2466 66.2744 40.8991C65.4297 40.5516 64.6622 40.0422 64.0158 39.3999C63.3693 38.7576 62.8565 37.995 62.5067 37.1558C62.1568 36.3165 61.9768 35.417 61.9769 34.5086V30.4867C61.9768 29.5784 62.1568 28.6789 62.5067 27.8397C62.8565 27.0006 63.3693 26.2381 64.0158 25.5959C64.6623 24.9538 65.4298 24.4444 66.2745 24.0971C67.1191 23.7497 68.0244 23.5712 68.9385 23.5715H71.4029C72.579 23.5489 73.7331 23.8894 74.7062 24.546C74.7589 24.5827 74.8207 24.6042 74.8849 24.6082C74.9492 24.6122 75.0132 24.5985 75.0701 24.5687C75.127 24.5388 75.1745 24.494 75.2074 24.4391C75.2404 24.3842 75.2574 24.3213 75.2567 24.2574V13.6488C75.2561 13.5301 75.2913 13.4139 75.3578 13.3151C75.4071 13.2412 75.4724 13.1792 75.5489 13.1335C75.6255 13.0879 75.7113 13.0598 75.8001 13.0513C75.889 13.0428 75.9786 13.0541 76.0625 13.0844C76.1464 13.1148 76.2224 13.1633 76.285 13.2265ZM67.4125 30.8019V34.1912C67.4131 34.7412 67.6332 35.2685 68.0246 35.6574C68.416 36.0463 68.9467 36.2651 69.5002 36.2656H73.0078C73.2821 36.2656 73.5538 36.2119 73.8072 36.1075C74.0606 36.0032 74.2909 35.8502 74.4848 35.6573C74.679 35.4647 74.833 35.2358 74.9378 34.9838C75.0427 34.7318 75.0962 34.4616 75.0955 34.189V30.8019C75.0955 30.2517 74.8755 29.7241 74.484 29.335C74.0925 28.946 73.5615 28.7274 73.0078 28.7274H69.5002C68.9467 28.728 68.416 28.9468 68.0246 29.3357C67.6332 29.7246 67.4131 30.2519 67.4125 30.8019Z" clip-rule="evenodd" fill-rule="evenodd"></path>
<path fill="white" d="M51.5768 23.5804H51.9691L51.9684 23.5811C53.8124 23.5811 55.581 24.3084 56.8857 25.6032C58.1905 26.898 58.9247 28.6544 58.927 30.4867V40.7874C58.927 40.868 58.911 40.9478 58.88 41.0222C58.8489 41.0966 58.8033 41.1643 58.7459 41.2212C58.6885 41.2781 58.6203 41.3232 58.5453 41.3539C58.4703 41.3846 58.39 41.4003 58.3089 41.4001H54.0896C53.9258 41.4003 53.7686 41.3359 53.6525 41.221C53.5365 41.1061 53.4711 40.9501 53.4707 40.7874L53.4573 31.0197C53.4569 30.4696 53.2368 29.9422 52.8454 29.5532C52.4539 29.1643 51.9231 28.9456 51.3696 28.9452H48.7707C48.217 28.9452 47.6859 29.1638 47.2944 29.5528C46.9029 29.9419 46.6829 30.4695 46.6829 31.0197L46.6681 40.7992C46.6681 40.9617 46.6031 41.1175 46.4874 41.2325C46.3718 41.3474 46.2149 41.4119 46.0514 41.4119H41.8299C41.6663 41.4119 41.5095 41.3474 41.3938 41.2325C41.2782 41.1175 41.2132 40.9617 41.2132 40.7992V24.1887C41.2127 24.1087 41.2282 24.0293 41.2588 23.9552C41.2894 23.8812 41.3344 23.8139 41.3914 23.7572C41.4483 23.7006 41.516 23.6557 41.5905 23.6252C41.665 23.5948 41.7448 23.5793 41.8254 23.5797H46.0581C46.2185 23.5795 46.3725 23.6421 46.4868 23.7541C46.601 23.8661 46.6661 24.0182 46.6681 24.1776V26.3437C46.6686 26.3848 46.683 26.4246 46.7089 26.4566C46.7282 26.4807 46.7532 26.4996 46.7818 26.5116C46.8103 26.5235 46.8414 26.5281 46.8722 26.5249C46.903 26.5218 46.9325 26.5109 46.958 26.4935C46.9835 26.476 47.0041 26.4524 47.018 26.4249C47.9586 24.6235 49.6526 23.5804 51.5768 23.5804Z"></path>
<path fill="white" d="M32.4618 23.5804H36.6945C36.7746 23.58 36.854 23.5953 36.9282 23.6255C37.0023 23.6557 37.0698 23.7 37.1266 23.7561C37.1835 23.8122 37.2287 23.8789 37.2596 23.9524C37.2905 24.0259 37.3065 24.1047 37.3067 24.1843V40.814C37.3067 40.9753 37.2422 41.13 37.1274 41.2441C37.0125 41.3582 36.8568 41.4223 36.6945 41.4223H32.4618C32.3 41.4223 32.1448 41.3584 32.0305 41.2447C31.9161 41.1311 31.8518 40.9769 31.8518 40.8162V38.6635C31.852 38.6219 31.8381 38.5816 31.8122 38.549C31.7864 38.5164 31.7501 38.4935 31.7094 38.4841C31.6688 38.4746 31.6261 38.4792 31.5884 38.497C31.5506 38.5149 31.5201 38.5449 31.5019 38.5822C30.562 40.3806 28.868 41.4267 26.9438 41.4267H25.5715C24.6575 41.4266 23.7525 41.2476 22.9081 40.9C22.0638 40.5523 21.2966 40.0428 20.6504 39.4005C20.0042 38.7582 19.4917 37.9958 19.1421 37.1567C18.7925 36.3176 18.6127 35.4183 18.6129 34.5101V30.4881C18.6129 28.6543 19.346 26.8956 20.651 25.5989C21.956 24.3022 23.7259 23.5738 25.5715 23.5738H26.9438C28.8591 23.5738 30.5613 24.6243 31.5019 26.4182C31.5204 26.4553 31.551 26.4851 31.5887 26.5027C31.6264 26.5204 31.669 26.5249 31.7095 26.5155C31.7501 26.5061 31.7863 26.4833 31.8123 26.4509C31.8382 26.4186 31.8524 26.3784 31.8525 26.337V24.1858C31.8527 24.0253 31.917 23.8714 32.0312 23.7579C32.1454 23.6444 32.3003 23.5806 32.4618 23.5804ZM31.5725 34.9943C31.6775 34.7422 31.7315 34.4721 31.7314 34.1993V30.8012C31.7308 30.2508 31.5104 29.7231 31.1185 29.3342C30.7266 28.9452 30.1954 28.7267 29.6415 28.7267H26.1361C25.5822 28.7267 25.051 28.9452 24.6591 29.3342C24.2672 29.7231 24.0468 30.2508 24.0462 30.8012V34.1993C24.0462 34.7501 24.2664 35.2783 24.6583 35.6677C25.0503 36.0572 25.5819 36.276 26.1361 36.276H29.6407C29.9153 36.2762 30.1872 36.2226 30.4409 36.1183C30.6946 36.014 30.9251 35.8611 31.1193 35.6682C31.3134 35.4753 31.4674 35.2463 31.5725 34.9943Z" clip-rule="evenodd" fill-rule="evenodd"></path>
<path fill="white" d="M1.97377 20.9769C2.64388 20.3105 3.55285 19.9357 4.50092 19.935H17.9256C18.0319 19.9351 18.1366 19.9601 18.2314 20.008C18.3261 20.0559 18.4081 20.1253 18.4708 20.2106C18.5335 20.2959 18.575 20.3947 18.5921 20.4989C18.6092 20.6031 18.6013 20.7099 18.569 20.8105L17.3773 24.4995C17.3259 24.6603 17.2243 24.8006 17.0872 24.9001C16.9502 24.9997 16.7848 25.0533 16.615 25.0532H6.98318C6.90429 25.0528 6.8261 25.0679 6.7531 25.0976C6.6801 25.1274 6.61374 25.1711 6.55782 25.2264C6.50189 25.2817 6.45752 25.3475 6.42724 25.4198C6.39696 25.4922 6.38137 25.5698 6.38137 25.6482V29.7071C6.38118 29.7856 6.39661 29.8634 6.4268 29.936C6.45698 30.0086 6.50131 30.0746 6.55724 30.1301C6.61318 30.1856 6.6796 30.2296 6.7527 30.2595C6.8258 30.2894 6.90413 30.3046 6.98318 30.3043H14.5629C14.6692 30.3045 14.774 30.3295 14.8687 30.3774C14.9634 30.4253 15.0454 30.4947 15.1081 30.58C15.1708 30.6652 15.2124 30.764 15.2294 30.8683C15.2465 30.9725 15.2386 31.0793 15.2063 31.1799L14.0235 34.8999C13.9719 35.0611 13.87 35.2018 13.7326 35.3016C13.5951 35.4014 13.4293 35.4552 13.259 35.455H6.98318C6.90418 35.455 6.82596 35.4705 6.75299 35.5006C6.68002 35.5306 6.61372 35.5747 6.5579 35.6302C6.50208 35.6858 6.45782 35.7517 6.42766 35.8242C6.39749 35.8968 6.38202 35.9745 6.38212 36.053V44.252C6.38148 44.3784 6.34328 44.5019 6.27231 44.6069C6.20133 44.7119 6.10074 44.7937 5.98315 44.8421C5.86556 44.8905 5.7362 44.9034 5.61129 44.879C5.48639 44.8547 5.3715 44.7942 5.28104 44.7052L1.55728 41.0066C1.15385 40.6058 0.927246 40.0617 0.927246 39.4947V23.4889C0.927246 22.5468 1.30366 21.6433 1.97377 20.9769Z"></path>
</svg>
