<svg xmlns="http://www.w3.org/2000/svg" fill="none" viewBox="0 0 145 37" height="37" width="145">
<path fill="white" d="M57.193 15.4958H48.9899V7.64938H45.0489V27.4438H48.9899V19.419H57.193V27.4438H61.2946V7.64938H57.193V15.4958ZM70.7638 13.1954C69.8869 13.1959 69.0189 13.3713 68.2106 13.7111C67.4022 14.051 66.6697 14.5486 66.0559 15.1748C65.3809 15.8717 64.8505 16.6953 64.4954 17.5983C64.1404 18.5012 63.9677 19.4655 63.9873 20.4355C63.9873 22.6289 64.7185 24.5014 66.1273 25.8389C67.4714 27.1067 69.255 27.8036 71.1026 27.7826C74.7762 27.7826 76.7556 25.5179 77.3798 23.4136L77.4154 23.3066L74.1699 22.3436L74.1342 22.4328C73.6527 23.7524 72.6362 24.4301 71.1383 24.4301C69.3728 24.4301 67.964 23.1996 67.8392 21.5411H77.5403V21.3272C77.5581 21.131 77.5938 20.703 77.5938 20.3107C77.5759 15.8525 75.0258 13.1954 70.7638 13.1954ZM67.8927 18.8841C67.9894 18.1847 68.3418 17.5461 68.882 17.0915C69.4222 16.637 70.1117 16.3988 70.8173 16.4231C72.8324 16.4231 73.6527 17.6714 73.7419 18.8841H67.8927ZM96.1399 13.2845C95.3021 13.235 94.4662 13.4087 93.7174 13.7878C92.9687 14.1668 92.3339 14.7378 91.8778 15.4423C91.1645 14.0692 89.7022 13.2845 87.8655 13.2845C87.1318 13.2806 86.4063 13.4383 85.7406 13.7465C85.0748 14.0547 84.4852 14.5059 84.0136 15.0678V13.6947H80.2687V27.426H84.1919V19.4012C84.1919 17.8676 85.1905 16.8333 86.6707 16.8333C88.1508 16.8333 89.0068 17.7249 89.0068 19.2942V27.4438H92.7517V19.4012C92.7517 17.8854 93.7325 16.8333 95.1234 16.8333C97.085 16.8333 97.3882 18.3669 97.3882 19.2942V27.4438H101.133V18.5452C101.133 16.8333 100.598 15.4602 99.5994 14.5328C98.7078 13.7304 97.4952 13.2845 96.1399 13.2845ZM112.296 13.3202C111.048 13.3202 109.461 13.8017 108.516 15.1213V13.7125H104.593V27.4438H108.516V19.5439C108.516 17.9211 109.497 16.8333 110.941 16.8333C112.457 16.8333 113.331 17.7784 113.331 19.4369V27.4438H117.254V18.7949C117.254 15.4067 115.364 13.3202 112.296 13.3202ZM126.652 13.1954C125.775 13.1959 124.907 13.3713 124.099 13.7111C123.29 14.051 122.558 14.5486 121.944 15.1748C121.272 15.8731 120.745 16.6974 120.393 17.6003C120.041 18.5032 119.871 19.4667 119.893 20.4355C119.893 22.6289 120.624 24.5014 122.033 25.8389C123.373 27.1024 125.149 27.7989 126.991 27.7826C130.664 27.7826 132.644 25.5179 133.268 23.4136L133.303 23.3066L130.058 22.3436L130.022 22.4328C129.541 23.7524 128.524 24.4301 127.026 24.4301C125.261 24.4301 123.852 23.1996 123.727 21.5411H133.428V21.3272C133.446 21.131 133.482 20.703 133.482 20.3107C133.464 15.8525 130.914 13.1954 126.652 13.1954ZM123.709 18.8841C123.806 18.1847 124.159 17.5461 124.699 17.0915C125.239 16.637 125.928 16.3988 126.634 16.4231C128.649 16.4231 129.469 17.6714 129.559 18.8841H123.709ZM144.271 17.1008V13.7125H141.596V9.61099H138.029V11.7153C138.029 12.9636 137.262 13.7304 135.978 13.7304H135.176V17.1186H137.673V23.3244C137.673 25.9637 139.367 27.6221 142.095 27.6221C143.236 27.6221 143.914 27.4081 144.217 27.2833L144.288 27.2655V23.8594L144.164 23.8951C143.807 23.9664 143.45 24.0021 143.094 24.0021C142.042 24.0021 141.631 23.5919 141.631 22.5576V17.1008H144.271Z"></path>
<path fill="white" d="M26.1461 24.2161V14.6042C26.1461 14.4259 26.0569 14.2475 25.9142 14.1405L18.7098 9.27217C18.617 9.21155 18.5086 9.17927 18.3977 9.17927C18.2869 9.17927 18.1784 9.21155 18.0856 9.27217L10.8812 14.1405C10.7385 14.2475 10.6494 14.408 10.6494 14.6042V24.2161C10.6494 24.5192 10.899 24.7689 11.2022 24.7689H15.6247C15.9279 24.7689 16.1775 24.5192 16.1775 24.2161V19.6152C16.1775 19.312 16.4272 19.0624 16.7303 19.0624H20.0829C20.3861 19.0624 20.6357 19.312 20.6357 19.6152V24.2161C20.6357 24.358 20.6921 24.494 20.7924 24.5944C20.8928 24.6947 21.0288 24.7511 21.1707 24.7511H25.6111C25.9142 24.7689 26.1461 24.5371 26.1639 24.2339L26.1461 24.2161Z"></path>
<path fill="white" d="M18.5493 0.694589C16.227 0.692246 13.9271 1.14762 11.7809 2.03469C9.63475 2.92176 7.68446 4.22312 6.04154 5.86438C4.39863 7.50564 3.0953 9.45462 2.20607 11.5999C1.31683 13.7452 0.859135 16.0446 0.859137 18.3669V18.3847C0.845144 22.0355 1.98066 25.598 4.10471 28.5673C4.18321 28.6739 4.21936 28.8059 4.20619 28.9377C4.19301 29.0694 4.13144 29.1916 4.03338 29.2806L1.59028 31.7059C1.17154 32.1973 0.953298 32.8285 0.979027 33.4736C1.00476 34.1188 1.27257 34.7305 1.72912 35.1871C2.18566 35.6436 2.79744 35.9114 3.44258 35.9372C4.08773 35.9629 4.71889 35.7447 5.21034 35.3259L7.65344 32.8828C7.74477 32.7874 7.86815 32.7292 7.99984 32.7193C8.13153 32.7095 8.26222 32.7486 8.36675 32.8293C11.4897 35.0355 15.2445 36.1682 19.0664 36.0571C23.7165 35.8582 28.1068 33.8581 31.3085 30.48C34.5102 27.1019 36.2722 22.6108 36.2216 17.9568C36.11 13.3427 34.1994 8.95497 30.8978 5.72992C27.5961 2.50487 23.1647 0.697891 18.5493 0.694589ZM18.5493 31.581C11.7372 31.581 5.35301 25.6605 5.35301 18.3847C5.35301 15.7748 6.12696 13.2234 7.57698 11.0533C9.02701 8.88316 11.088 7.19176 13.4993 6.19297C15.9106 5.19417 18.5639 4.93284 21.1238 5.44202C23.6836 5.9512 26.0349 7.20803 27.8805 9.05356C29.726 10.8991 30.9828 13.2504 31.492 15.8103C32.0012 18.3701 31.7399 21.0234 30.7411 23.4347C29.7423 25.8461 28.0509 27.907 25.8808 29.3571C23.7106 30.8071 21.1593 31.581 18.5493 31.581Z"></path>
</svg>
