<svg xmlns="http://www.w3.org/2000/svg" fill="none" viewBox="0 0 80 57" height="57" width="80">
<path fill="white" d="M44.7891 27.0205V32.6856C44.7891 32.6856 44.1285 34.2866 41.4863 34.2866C38.8441 34.2866 37.7432 31.4242 37.7432 29.6627C37.7432 27.9013 38.8383 25.4792 41.4863 25.4792C44.1285 25.4792 44.7891 27.0205 44.7891 27.0205Z"></path>
<path fill="white" d="M40.1653 52.782C62.054 52.782 79.7983 42.0368 79.7983 28.782C79.7983 15.5271 62.054 4.78198 40.1653 4.78198C18.2765 4.78198 0.532227 15.5271 0.532227 28.782C0.532227 42.0368 18.2765 52.782 40.1653 52.782ZM15.7249 37.3691V16.0113L19.9084 14.6902V23.4976C22.7708 21.2957 30.6974 20.1948 30.6974 26.1398V36.048L26.2937 37.3691V26.8003C26.2937 24.1581 21.2295 25.0388 19.9084 27.2407V36.048L15.7249 37.3691ZM57.3396 37.3691L51.3946 22.837L55.5781 21.2957L59.5414 31.204L62.8442 22.1765H67.468L61.0827 37.3691H57.3396ZM34.0001 43.3035L35.5414 40.2315C35.5414 40.2315 41.7065 43.3035 44.7891 39.7911V36.7086C44.7891 36.7086 43.468 38.0297 40.6056 38.0297C37.9542 38.0297 33.1194 35.8278 33.1194 29.6627C33.1194 23.4976 37.7432 21.7361 41.2662 21.7361C44.0845 21.7361 44.7891 22.837 44.7891 22.837L49.4129 21.2957V32.2762C49.4129 37.5165 48.4665 43.9445 43.3172 44.9171C42.8148 45.012 42.2783 45.0649 41.7065 45.0649C36.246 45.0649 34.0001 43.3035 34.0001 43.3035Z" clip-rule="evenodd" fill-rule="evenodd"></path>
</svg>
