<svg width="128" height="28" viewBox="0 0 128 28" fill="none" xmlns="http://www.w3.org/2000/svg">
<g clip-path="url(#clip0_1_114)">
<path d="M30.1 4.69995V10.7999H36V4.69995H39.6V20.5999H36V13.9999H30.1V20.5999H26.5V4.69995H30.1Z" fill="white"/>
<path d="M46.9 18.2001C48.3 18.2001 49.2 16.8001 49.2 14.7001C49.2 13.0001 48.5 11.3001 46.9 11.3001C45.2 11.3001 44.5 13.0001 44.5 14.8001C44.5 16.8001 45.3 18.2001 46.9 18.2001ZM46.8 20.8001C43.4 20.8001 40.8 18.6001 40.8 14.9001C40.8 11.2001 43.2 8.80005 47 8.80005C50.5 8.80005 52.9 11.2001 52.9 14.7001C52.8 18.9001 49.9 20.8001 46.8 20.8001Z" fill="white"/>
<path d="M60.1 18.2001C61.5 18.2001 62.4 16.8001 62.4 14.7001C62.4 13.0001 61.7 11.3001 60.1 11.3001C58.4 11.3001 57.7 13.0001 57.7 14.8001C57.7 16.8001 58.5 18.2001 60.1 18.2001ZM60 20.8001C56.6 20.8001 54.1 18.6001 54.1 14.9001C54.1 11.2001 56.5 8.80005 60.3 8.80005C63.8 8.80005 66.2 11.2001 66.2 14.7001C66.1 18.9001 63.1 20.8001 60 20.8001Z" fill="white"/>
<path d="M67.4 11.7001V16.4001C67.4 18.0001 67.7 19.1001 68.4 19.8001C69 20.4001 70 20.8001 71.1 20.8001C72.1 20.8001 73 20.7001 73.4 20.5001V17.8001C73.1 17.9001 72.8 17.9001 72.3 17.9001C71.2 17.9001 70.9 17.3001 70.9 15.9001V11.7001H73.5V9.0001H70.9V6.8001V5.6001C69 5.6001 67.4 7.2001 67.4 9.1001V11.7001Z" fill="white"/>
<path d="M104 11.7001V16.4001C104 18.0001 104.3 19.1001 105 19.8001C105.6 20.4001 106.6 20.8001 107.7 20.8001C108.7 20.8001 109.6 20.7001 110 20.5001V17.8001C109.7 17.9001 109.4 17.9001 108.9 17.9001C107.8 17.9001 107.5 17.3001 107.5 15.9001V11.7001H110.1V9.0001H107.5V6.8001V5.6001C105.6 5.6001 104 7.2001 104 9.1001V11.7001Z" fill="white"/>
<path d="M75.3 17.4001C76 17.8001 77.3 18.2001 78.4 18.2001C79.5 18.2001 79.9 17.8001 79.9 17.3001C79.9 16.7001 79.5 16.4001 78.2 16.0001C75.8 15.2001 74.9 13.9001 74.9 12.6001C74.9 10.4001 76.7 8.80005 79.6 8.80005C80.9 8.80005 82.1 9.10005 82.8 9.50005L82.2 11.9001C81.7 11.6001 80.7 11.3001 79.7 11.3001C78.8 11.3001 78.3 11.7001 78.3 12.2001C78.3 12.8001 78.7 13.0001 80.2 13.5001C82.4 14.2001 83.3 15.4001 83.3 17.0001C83.3 19.2001 81.6 20.7001 78.3 20.7001C76.8 20.7001 75.5 20.3001 74.6 19.9001L75.3 17.4001Z" fill="white"/>
<path d="M95.5 16.9C95.5 18.4 95.5 19.6 95.6 20.6H92.5L92.3 19H92.2C91.8 19.7 90.7 20.9 88.6 20.9C86.2 20.9 84.6 19.4 84.6 15.9V9H88.2V15.2C88.2 16.9 88.7 17.9 90 17.9C91 17.9 91.6 17.2 91.8 16.7C91.9 16.5 91.9 16.2 91.9 15.9V9H95.5V16.9Z" fill="white"/>
<path d="M101.6 9H98V20.5H101.6V9Z" fill="white"/>
<path d="M99.8 7.49995C98.6 7.49995 97.8 6.69995 97.8 5.59995C97.8 4.49995 98.6 3.69995 99.8 3.69995C101 3.69995 101.8 4.49995 101.8 5.59995C101.8 6.69995 101 7.49995 99.8 7.49995Z" fill="white"/>
<path d="M118.8 13.4999C118.8 12.6999 118.4 11.1999 116.8 11.1999C115.3 11.1999 114.7 12.5999 114.6 13.4999H118.8ZM114.5 15.8999C114.6 17.3999 116.1 18.0999 117.7 18.0999C118.9 18.0999 119.9 17.8999 120.9 17.5999L121.4 19.9999C120.2 20.4999 118.8 20.6999 117.2 20.6999C113.3 20.6999 111.1 18.3999 111.1 14.7999C111.1 11.8999 112.9 8.69995 116.9 8.69995C120.6 8.69995 122 11.5999 122 14.3999C122 14.9999 121.9 15.5999 121.9 15.7999L114.5 15.8999Z" fill="white"/>
<path d="M125 9V9.3H124.2V11.6H123.8V9.4H123V9H125ZM127.6 11.7L127.5 10.1C127.5 9.9 127.5 9.6 127.5 9.4C127.4 9.6 127.4 9.9 127.3 10.2L126.7 11.7H126.4L125.9 10.1C125.8 9.9 125.8 9.6 125.7 9.4C125.7 9.7 125.7 9.9 125.7 10.1L125.6 11.7H125.2L125.4 9H125.9L126.4 10.4C126.5 10.6 126.5 10.8 126.6 11.1C126.7 10.9 126.7 10.6 126.8 10.4L127.3 9H127.8L128 11.7H127.6Z" fill="white"/>
<path d="M2.59998 7.29995C2.59998 8.79995 3.79998 9.89995 5.19998 9.89995C6.69998 9.89995 7.79998 8.69995 7.79998 7.29995C7.79998 6.99995 7.79998 6.79995 7.69998 6.49995C7.59998 6.99995 7.09998 7.29995 6.59998 7.29995C5.89998 7.29995 5.29998 6.69995 5.29998 5.99995C5.29998 5.49995 5.59998 4.99995 6.09998 4.79995C5.79998 4.69995 5.59998 4.69995 5.29998 4.69995C3.79998 4.69995 2.59998 5.79995 2.59998 7.29995Z" fill="white"/>
<path d="M10.6 7.29995C10.6 8.79995 11.8 9.89995 13.2 9.89995C14.7 9.89995 15.8 8.69995 15.8 7.29995C15.8 5.79995 14.6 4.69995 13.2 4.69995C12.9 4.69995 12.7 4.69995 12.4 4.79995C12.9 4.99995 13.2 5.49995 13.2 5.99995C13.2 6.69995 12.6 7.29995 11.9 7.29995C11.4 7.29995 10.9 6.99995 10.7 6.49995C10.6 6.79995 10.6 6.99995 10.6 7.29995Z" fill="white"/>
<path fill-rule="evenodd" clip-rule="evenodd" d="M9.3 0C11 0 12.5 0.5 13.9 1.2C15.2 0.5 16.8 0 18.5 0V27.7C8.3 27.7 0 19.5 0 9.3V0C1.7 0 3.2 0.4 4.6 1.2C6 0.4 7.6 0 9.3 0ZM9.3 7C9.5 5 11.2 3.4 13.3 3.4C15.5 3.4 17.3 5.2 17.2 7.4C17.2 9.6 15.4 11.4 13.2 11.3C12.4 11.3 11.7 11.1 11.1 10.7L9.2 12.5L7.4 10.6C6.8 11 6 11.3 5.3 11.3C3.1 11.3 1.3 9.5 1.4 7.3C1.4 5.1 3.2 3.3 5.4 3.4C7.4 3.4 9.1 4.9 9.3 7Z" fill="white"/>
</g>
<defs>
<clipPath id="clip0_1_114">
<rect width="128" height="28" fill="white"/>
</clipPath>
</defs>
</svg>
