<svg xmlns="http://www.w3.org/2000/svg" fill="none" viewBox="0 0 136 31" height="31" width="136">
<path fill="white" d="M0.783325 0.781982H7.54891V30.2182H0.783325V0.781982Z"></path>
<path fill="white" d="M17.816 0.781982H24.4332C24.4332 7.16181 21.9406 13.0965 17.5192 17.4882L26.8664 30.2182H18.5281L8.37977 16.3903L10.991 14.4318C15.3234 11.1677 17.816 6.21225 17.816 0.781982Z"></path>
<path fill="white" d="M35.2048 0.781982H28.8249V30.2182H35.2048V0.781982Z"></path>
<path fill="white" d="M84.8782 12.147C86.4212 10.0401 88.7358 9.2983 91.169 9.2983C96.0652 9.2983 99.8337 12.5327 99.8337 17.2805V30.2479H93.7506V19.506C93.7506 16.5387 92.2076 14.9363 89.537 14.9363C87.0444 14.9363 84.9672 16.4496 84.9672 19.5357V30.2182H78.8248V9.8621H84.8782V12.147Z"></path>
<path fill="white" d="M54.4925 9.8621V11.1677C52.7715 9.98079 50.6943 9.2983 48.4391 9.2983C42.5044 9.2983 37.6973 14.1054 37.6973 20.0401C37.6973 25.9749 42.5044 30.782 48.4391 30.782C50.6943 30.782 52.7715 30.0995 54.4925 28.9125V30.2182H60.5756V9.8621H54.4925ZM48.9436 25.2627C45.8872 25.2627 43.4243 22.9185 43.4243 20.0401C43.4243 17.1618 45.8872 14.8176 48.9436 14.8176C52 14.8176 54.4629 17.1618 54.4629 20.0401C54.4629 22.9185 52 25.2627 48.9436 25.2627Z" clip-rule="evenodd" fill-rule="evenodd"></path>
<path fill="white" d="M70.0118 9.86209V12.503C71.2284 10.9303 73.5133 9.86209 75.9762 9.86209V15.7968H75.9168C73.5133 15.7968 70.0414 17.5179 70.0414 20.7226V30.2182H63.7803V9.86209H70.0118Z"></path>
<path fill="white" d="M118.766 9.8621V11.1677C117.044 9.98079 114.967 9.2983 112.712 9.2983C106.777 9.2983 101.97 14.1054 101.97 20.0401C101.97 25.9749 106.777 30.782 112.712 30.782C114.967 30.782 117.044 30.0995 118.766 28.9125V30.2182H124.849V9.8621H118.766ZM113.217 25.2627C110.16 25.2627 107.697 22.9185 107.697 20.0401C107.697 17.1618 110.16 14.8176 113.217 14.8176C116.273 14.8176 118.736 17.1618 118.736 20.0401C118.766 22.9185 116.273 25.2627 113.217 25.2627Z" clip-rule="evenodd" fill-rule="evenodd"></path>
<path fill="white" d="M129.033 9.98077C129.359 9.98077 129.567 10.1588 129.567 10.4556C129.567 10.6633 129.478 10.8116 129.3 10.9007L129.567 11.5238H129.27L129.033 10.96H128.736V11.5238H128.469V9.98077H129.033ZM128.736 10.6929H129.033C129.24 10.6929 129.3 10.6039 129.3 10.4556C129.3 10.3072 129.211 10.2182 129.033 10.2182H128.736V10.6929Z" clip-rule="evenodd" fill-rule="evenodd"></path>
<path fill="white" d="M128.944 9.32798C128.142 9.32798 127.49 9.9808 127.49 10.782C127.519 11.5832 128.142 12.236 128.944 12.236C129.745 12.236 130.398 11.5832 130.398 10.782C130.398 9.9808 129.745 9.32798 128.944 9.32798ZM128.944 11.9689C128.291 11.9689 127.786 11.4348 127.786 10.782C127.786 10.1292 128.32 9.59505 128.944 9.59505C129.596 9.59505 130.101 10.1292 130.101 10.782C130.101 11.4348 129.567 11.9689 128.944 11.9689Z" clip-rule="evenodd" fill-rule="evenodd"></path>
<path fill="white" d="M127.519 26.8354C127.519 24.7286 129.24 23.0075 131.347 23.0075C133.454 23.0075 135.175 24.6989 135.175 26.8354C135.175 28.9422 133.454 30.6633 131.347 30.6633C129.24 30.6633 127.519 28.9422 127.519 26.8354Z"></path>
</svg>
