<svg width="86" height="30" viewBox="0 0 86 30" fill="none" xmlns="http://www.w3.org/2000/svg">
<g clip-path="url(#clip0_1_139)">
<path d="M42.8 13.6002L47.3 8.40015H43.9L39.4 13.9002V8.40015H36.5V21.7002H39.4V17.4002L40.9 15.8002L44.5 21.7002H47.8L42.8 13.6002Z" fill="white"/>
<path d="M52.8 18.3001L50.7 12.1001H47.7L51.4 21.7001L51.2 22.2001C51.1 22.5001 51 22.7001 50.7 22.8001C50.5 22.9001 50.2 23.0001 49.9 23.0001C49.5 23.0001 49.1 23.0001 48.8 22.9001C48.5 22.8001 48.2 22.8001 48.1 22.7001L47.5 25.0001C47.8 25.1001 48.1 25.1001 48.5 25.2001C49.1 25.3001 49.6 25.3001 50.2 25.3001C50.6 25.3001 51.1 25.2001 51.5 25.1001C51.8 25.0001 52.2 24.8001 52.4 24.6001C52.7 24.4001 52.9 24.1001 53.1 23.8001C53.3 23.4001 53.5 23.1001 53.6 22.7001L57.6 12.1001H54.8L52.8 18.3001Z" fill="white"/>
<path d="M73.4 12.7C73.2 12.4 72.9 12.2 72.5 12.1C71.8 11.8 71 11.8 70.2 12C69.9 12.1 69.6 12.2 69.3 12.4C69 12.6 68.8 12.7 68.6 13C68.4 13.2 68.2 13.4 68.1 13.6C68 13.1 67.7 12.6 67.3 12.3C66.9 12 66.3 11.8 65.5 11.8C65.1 11.8 64.8 11.9 64.4 12C64.1 12.1 63.8 12.2 63.5 12.4C63.2 12.6 63 12.7 62.8 12.9C62.6 13.1 62.4 13.3 62.3 13.5V12H59.4V21.6H62.3V15.1C62.6 14.8 62.9 14.6 63.2 14.4C63.5 14.2 63.8 14.1 64.2 14.1C64.6 14.1 64.9 14.2 65 14.4C65.2 14.7 65.2 15 65.2 15.4V21.5H68.1V15C68.4 14.7 68.7 14.5 69 14.3C69.3 14.1 69.6 14 70 14C70.4 14 70.7 14.1 70.8 14.3C71 14.6 71 14.9 71 15.3V21.4H73.9V14.6C73.9 14.2 73.9 13.8 73.7 13.4C73.8 13.3 73.6 13 73.4 12.7Z" fill="white"/>
<path d="M85.1 20.8001C85.1 20.3001 85 19.9001 85 19.4001V15.7001C85 14.5001 84.7 13.5001 84.1 12.9001C83.5 12.3001 82.6 11.9001 81.3 11.9001C80.8 11.9001 80.2 11.9001 79.7 12.0001C79.3 12.1001 78.8 12.2001 78.4 12.4001C78 12.5001 77.7 12.7001 77.4 12.9001C77.1 13.1001 76.8 13.3001 76.6 13.5001L77.8 15.2001C78.2 14.8001 78.7 14.6001 79.2 14.3001C79.7 14.1001 80.3 14.0001 80.9 14.0001C81.3 14.0001 81.6 14.1001 81.9 14.3001C82.1 14.5001 82.2 14.8001 82.2 15.1001V15.3001C80.1 15.5001 78.5 15.9001 77.6 16.5001C76.7 17.0001 76.1 18.0001 76.1 19.1001C76.1 19.5001 76.2 19.9001 76.3 20.2001C76.4 20.5001 76.6 20.8001 76.9 21.0001C77.2 21.2001 77.5 21.4001 77.8 21.5001C78.1 21.6001 78.5 21.7001 78.9 21.7001C79.5 21.7001 80.2 21.6001 80.8 21.3001C81.4 21.0001 81.9 20.6001 82.3 20.1001C82.3 20.4001 82.3 20.6001 82.4 20.9001C82.4 21.1001 82.5 21.3001 82.6 21.6001H85.5C85.2 21.4001 85.1 21.1001 85.1 20.8001ZM82.2 18.8001C81.9 19.1001 81.6 19.3001 81.3 19.4001C80.9 19.6001 80.4 19.6001 80 19.6001C79.7 19.6001 79.5 19.5001 79.2 19.4001C79 19.2001 78.9 19.0001 78.9 18.7001C78.9 18.2001 79.2 17.9001 79.7 17.6001C80.2 17.3001 81 17.1001 82.2 17.0001V18.8001Z" fill="white"/>
<path d="M28.1 6.9001C27.9 6.2001 27.4 5.5001 26.8 5.2001L16.5 0.200098C15.8 -0.0999023 15 -0.0999023 14.3 0.200098L3.99996 5.2001C3.29996 5.5001 2.79996 6.1001 2.59996 6.9001L0.0999559 18.0001C-0.100044 18.7001 0.099956 19.5001 0.599956 20.1001L7.69996 29.0001C8.09996 29.7001 8.89996 30.0001 9.59996 30.0001H21C21.8 30.0001 22.5 29.7001 22.9 29.1001L30 20.2001C30.5 19.6001 30.6 18.8001 30.5 18.1001L28.1 6.9001ZM29.3 19.5001L22.2 28.4001C21.9 28.7001 21.5 28.9001 21.1 28.9001H9.59996C9.19996 28.9001 8.69996 28.7001 8.49996 28.4001L1.39996 19.5001C1.09996 19.2001 0.999956 18.7001 1.09996 18.3001L3.59996 7.1001C3.69996 6.7001 3.99996 6.3001 4.39996 6.1001L14.7 1.1001C15.1 1.0001 15.6 1.0001 16 1.2001L26.3 6.2001C26.7 6.4001 27 6.7001 27.1 7.2001L29.7 18.3001C29.7 18.7001 29.6 19.1001 29.3 19.5001Z" fill="white"/>
<path d="M9.5999 17.6C11.3999 17.6 13.1999 17.1 14.6999 15.9C14.2999 15.6 13.9999 15.2 13.5999 14.9C11.8999 13.2 9.9999 11.7 6.8999 11.5V17.9C7.2999 17.7 7.7999 17.6 8.2999 17.6H9.5999Z" fill="white"/>
<path d="M9.59993 18.6001H8.19993C7.39993 18.6001 6.79993 19.2001 6.79993 20.0001V21.7001H23.7999V11.6001C20.6999 11.8001 18.9999 13.3001 17.2999 15.0001C15.3999 16.8001 13.4999 18.6001 9.59993 18.6001Z" fill="white"/>
<path d="M15 11.0002C13.6 9.6002 12.1 8.2002 9.19995 8.2002V11.0002C10.4 11.4002 11.6 12.0002 12.6 12.8002C13.5 12.3002 14.3 11.7002 15 11.0002Z" fill="white"/>
<path d="M14.1999 14.3002C14.5999 14.7002 14.9999 15.0002 15.3999 15.4002C15.7999 15.0002 16.1999 14.7002 16.5999 14.3002C17.8999 13.1002 19.0999 11.9002 20.9999 11.2002V8.7002C18.5999 8.8002 17.2999 10.0002 15.9999 11.3002C15.1999 12.1002 14.2999 12.8002 13.2999 13.4002C13.5999 13.7002 13.8999 14.0002 14.1999 14.3002Z" fill="white"/>
</g>
<defs>
<clipPath id="clip0_1_139">
<rect width="86" height="30" fill="white"/>
</clipPath>
</defs>
</svg>
