<svg xmlns="http://www.w3.org/2000/svg" fill="none" viewBox="0 0 127 56" height="56" width="127">
<mask height="34" width="127" y="11" x="0" maskUnits="userSpaceOnUse" style="mask-type:luminance" id="mask0_376_408">
<path fill="white" d="M126.125 11H0.75V45H126.125V11Z"></path>
</mask>
<g mask="url(#mask0_376_408)">
<path fill="white" d="M55.3949 44.6157H42.5584C42.5251 44.6163 42.4919 44.6102 42.461 44.5978C42.4301 44.5853 42.4019 44.567 42.3781 44.5436C42.3544 44.5202 42.3355 44.4924 42.3227 44.4617C42.3098 44.431 42.3032 44.398 42.3032 44.3647V24.1367C42.3042 24.0697 42.3315 24.0059 42.3793 23.9588C42.427 23.9118 42.4914 23.8855 42.5584 23.8855H45.5104C45.5768 23.8866 45.6401 23.9133 45.6871 23.9602C45.734 24.007 45.7608 24.0704 45.7618 24.1367V41.3478H55.3949C55.462 41.3478 55.5262 41.3741 55.5741 41.4211C55.6218 41.4681 55.6491 41.5319 55.6501 41.5989V44.3647C55.6501 44.398 55.6434 44.431 55.6306 44.4617C55.6177 44.4924 55.5989 44.5202 55.5751 44.5436C55.5514 44.567 55.5232 44.5853 55.4922 44.5978C55.4613 44.6102 55.4283 44.6163 55.3949 44.6157Z"></path>
<path fill="white" d="M71.6977 38.4107C71.6977 43.0749 68.3305 45 64.9023 45C61.4742 45 58.1108 43.0749 58.1108 38.4107V30.2274C58.1108 30.1609 58.1373 30.0969 58.1845 30.0498C58.2315 30.0028 58.2955 29.9763 58.3622 29.9763H61.0704C61.1371 29.9763 61.201 30.0028 61.2482 30.0498C61.2954 30.0969 61.3218 30.1609 61.3218 30.2274V38.1215C61.3218 40.9482 62.8988 41.9868 64.9023 41.9868C66.9059 41.9868 68.4867 40.9482 68.4867 38.1215V30.2274C68.4867 30.1609 68.5131 30.0969 68.5603 30.0498C68.6074 30.0028 68.6713 29.9763 68.7381 29.9763H71.4463C71.5127 29.9773 71.576 30.004 71.623 30.0509C71.6699 30.0979 71.6967 30.1611 71.6977 30.2274V38.4107Z"></path>
<path fill="white" d="M100.235 35.4167V44.3647C100.235 44.3979 100.228 44.431 100.215 44.4617C100.202 44.4924 100.183 44.5202 100.16 44.5436C100.136 44.567 100.108 44.5854 100.077 44.5978C100.046 44.6101 100.013 44.6163 99.9795 44.6157H97.2751C97.2417 44.6163 97.2086 44.6101 97.1777 44.5978C97.1467 44.5854 97.1186 44.567 97.0948 44.5436C97.0711 44.5202 97.0522 44.4924 97.0393 44.4617C97.0265 44.431 97.0199 44.3979 97.0199 44.3647V36.4895C97.0199 34.0281 95.7515 32.6548 93.5917 32.6548C91.5272 32.6548 89.7827 34.0128 89.7827 36.52V44.3647C89.7827 44.3979 89.776 44.431 89.7631 44.4617C89.7503 44.4924 89.7314 44.5202 89.7076 44.5436C89.684 44.567 89.6557 44.5854 89.6248 44.5978C89.5939 44.6101 89.5608 44.6163 89.5274 44.6157H86.823C86.7897 44.6163 86.7566 44.6101 86.7256 44.5978C86.6947 44.5854 86.6666 44.567 86.6428 44.5436C86.6191 44.5202 86.6002 44.4924 86.5873 44.4617C86.5744 44.431 86.5677 44.3979 86.5677 44.3647V36.4895C86.5677 34.0281 85.2993 32.6548 83.1396 32.6548C81.0751 32.6548 79.3306 34.0128 79.3306 36.52V44.3647C79.3306 44.3979 79.3239 44.431 79.3111 44.4617C79.2982 44.4924 79.2793 44.5202 79.2556 44.5436C79.2318 44.567 79.2037 44.5854 79.1727 44.5978C79.1418 44.6101 79.1087 44.6163 79.0754 44.6157H76.3709C76.3376 44.6163 76.3045 44.6101 76.2736 44.5978C76.2426 44.5854 76.2144 44.567 76.1907 44.5436C76.1669 44.5202 76.1481 44.4924 76.1353 44.4617C76.1224 44.431 76.1157 44.3979 76.1157 44.3647V30.2275C76.1168 30.1605 76.1441 30.0967 76.1918 30.0497C76.2396 30.0028 76.3039 29.9764 76.3709 29.9764H79.0373C79.1043 29.9764 79.1687 30.0028 79.2164 30.0497C79.2641 30.0967 79.2915 30.1605 79.2925 30.2275V31.7493C80.4695 30.0221 82.2902 29.5769 83.791 29.5769C86.0269 29.5769 87.8476 30.5699 88.857 32.1905C90.1254 30.0982 92.3918 29.5769 94.2125 29.5769C97.7702 29.5922 100.235 31.9927 100.235 35.4167Z"></path>
<path fill="white" d="M107.738 44.6157H105.03C104.997 44.6162 104.964 44.61 104.933 44.5976C104.903 44.5852 104.875 44.5667 104.851 44.5433C104.828 44.5199 104.809 44.492 104.797 44.4613C104.784 44.4306 104.778 44.3977 104.779 44.3646V30.2274C104.779 30.1609 104.805 30.0969 104.852 30.0498C104.9 30.0028 104.964 29.9763 105.03 29.9763H107.738C107.771 29.9763 107.804 29.9828 107.835 29.9954C107.865 30.0081 107.893 30.0266 107.917 30.0498C107.94 30.0732 107.958 30.1008 107.971 30.1313C107.984 30.1618 107.99 30.1944 107.99 30.2274V44.3646C107.99 44.3977 107.985 44.4306 107.972 44.4613C107.959 44.492 107.941 44.5199 107.918 44.5433C107.894 44.5667 107.866 44.5852 107.835 44.5976C107.804 44.61 107.771 44.6162 107.738 44.6157Z"></path>
<path fill="white" d="M126.125 35.4167V44.3647C126.125 44.3979 126.119 44.431 126.106 44.4617C126.093 44.4924 126.074 44.5202 126.051 44.5436C126.026 44.567 125.999 44.5854 125.968 44.5978C125.936 44.6101 125.903 44.6163 125.87 44.6157H123.166C123.132 44.6163 123.099 44.6101 123.068 44.5978C123.037 44.5854 123.009 44.567 122.985 44.5436C122.962 44.5202 122.943 44.4924 122.93 44.4617C122.917 44.431 122.91 44.3979 122.91 44.3647V36.4895C122.91 34.0281 121.642 32.6548 119.482 32.6548C117.418 32.6548 115.673 34.0128 115.673 36.52V44.3647C115.673 44.3979 115.667 44.431 115.654 44.4617C115.64 44.4924 115.622 44.5202 115.598 44.5436C115.574 44.567 115.546 44.5854 115.515 44.5978C115.484 44.6101 115.451 44.6163 115.418 44.6157H112.736C112.704 44.6163 112.67 44.6101 112.639 44.5978C112.608 44.5854 112.58 44.567 112.556 44.5436C112.532 44.5202 112.513 44.4924 112.501 44.4617C112.488 44.431 112.481 44.3979 112.481 44.3647V30.2275C112.483 30.1605 112.509 30.0967 112.557 30.0497C112.605 30.0028 112.67 29.9764 112.736 29.9764H115.402C115.469 29.9764 115.534 30.0028 115.582 30.0497C115.63 30.0967 115.657 30.1605 115.658 30.2275V31.7493C116.835 30.0221 118.656 29.5769 120.156 29.5769C123.661 29.5922 126.125 31.9927 126.125 35.4167Z"></path>
<path fill="white" d="M106.489 24.1671L105 26.7008C104.978 26.7395 104.967 26.7833 104.967 26.8277C104.967 26.8722 104.979 26.9158 105.001 26.9542C105.024 26.9927 105.056 27.0247 105.094 27.047C105.133 27.0692 105.176 27.0811 105.221 27.0813H107.662C107.763 27.0817 107.861 27.0559 107.948 27.0065C108.035 26.9571 108.107 26.8858 108.158 26.7997L109.617 24.3155C109.642 24.272 109.655 24.2226 109.656 24.1722C109.656 24.1218 109.643 24.0723 109.618 24.0286C109.592 23.985 109.556 23.9487 109.513 23.9235C109.469 23.8985 109.419 23.8853 109.369 23.8855H106.981C106.881 23.8854 106.784 23.9113 106.697 23.9607C106.611 24.0101 106.539 24.0813 106.489 24.1671Z"></path>
<path fill="white" d="M12.104 35.858L25.9575 12.1413C26.0243 12.0257 26.0596 11.8946 26.0596 11.7611C26.0596 11.6276 26.0246 11.4964 25.9577 11.3808C25.891 11.2651 25.795 11.1691 25.6792 11.1022C25.5635 11.0354 25.4322 11.0001 25.2986 11H16.3663C16.1446 11.0001 15.9267 11.058 15.7342 11.1681C15.5418 11.2782 15.3816 11.4367 15.2694 11.6277L0.924459 36.1965C0.812881 36.3889 0.753894 36.607 0.753421 36.8293C0.752947 37.0514 0.811003 37.2699 0.921761 37.4626C1.03252 37.6554 1.19208 37.8156 1.38444 37.9273C1.57679 38.0389 1.79517 38.0981 2.01766 38.0989H8.25688L5.56389 42.7135C5.45215 42.906 5.39316 43.1246 5.39285 43.3472C5.39254 43.5697 5.45094 43.7883 5.56214 43.9812C5.67335 44.174 5.83346 44.3342 6.02634 44.4456C6.21923 44.557 6.43808 44.6157 6.66089 44.6158H29.1343C29.4009 44.6148 29.6625 44.5441 29.8931 44.4105C30.1237 44.2771 30.3151 44.0854 30.4484 43.8548L34.4556 37.0069C34.5222 36.8916 34.5574 36.7608 34.5576 36.6276C34.5578 36.4945 34.5231 36.3636 34.4567 36.2481C34.3904 36.1325 34.2948 36.0363 34.1797 35.9693C34.0645 35.9021 33.9337 35.8664 33.8004 35.8656L12.104 35.858ZM16.9339 13.2446H22.7122L9.51007 35.858H3.72411L16.9339 13.2446ZM28.742 42.375H8.36735L10.8623 38.1026H31.2217L28.742 42.375Z"></path>
</g>
</svg>
