<svg width="1249" height="324" viewBox="0 0 1249 324" fill="none" xmlns="http://www.w3.org/2000/svg">
<path d="M331.999 237.445V84.939H353.764V218.507H436.378V237.445H331.999ZM543.545 121.98H564.459V237.445H544.629V220.02C540.416 225.956 534.886 230.573 527.99 233.848C521.077 237.125 513.545 238.762 505.396 238.762C490.037 238.762 477.908 234.487 469.056 225.977C460.163 217.489 455.738 204.979 455.738 188.448V121.98H476.675V186.043C476.675 197.189 479.355 205.658 484.737 211.424C490.079 217.125 497.801 220.02 507.801 220.02C518.864 220.02 527.587 216.657 533.99 209.977C540.331 203.319 543.545 193.893 543.545 181.68V121.98ZM666.01 120.873C680.645 120.873 692.348 125.129 700.944 133.639C709.604 142.107 713.964 154.576 713.964 171V237.445H693.029V173.382C693.029 162.211 690.369 153.786 684.923 148.107C679.564 142.446 671.881 139.618 661.861 139.618C650.518 139.618 641.607 142.914 635.074 149.531C628.543 156.127 625.264 165.617 625.264 178V237.445H604.351V121.98H624.371V139.404C628.584 133.425 634.308 128.893 641.479 125.681C648.69 122.469 656.88 120.873 666.01 120.873ZM794.792 120.873C810.728 120.873 822.98 124.811 831.493 132.639C839.961 140.491 844.233 152.17 844.233 167.724V237.446H824.404V222.19C820.917 227.573 815.94 231.657 809.449 234.487C803.004 237.339 795.345 238.762 786.47 238.762C773.578 238.762 763.194 235.635 755.429 229.381C747.687 223.125 743.771 214.955 743.771 204.785C743.771 194.615 747.514 186.445 754.9 180.254C762.322 174.086 774.067 171 790.195 171H823.299V166.85C823.299 157.83 820.683 150.937 815.447 146.171C810.216 141.362 802.515 138.98 792.344 138.98C785.511 138.98 778.856 140.086 772.323 142.342C765.791 144.576 760.281 147.616 755.748 151.383L747.066 135.702C753.023 130.916 760.107 127.234 768.387 124.703C776.684 122.172 785.452 120.873 794.792 120.873ZM789.962 222.637C797.983 222.637 804.876 220.85 810.663 217.276C816.447 213.743 820.683 208.68 823.299 202.147V186.043H791.089C773.343 186.043 764.495 191.977 764.495 203.891C764.495 209.7 766.727 214.254 771.279 217.616C775.725 220.955 781.96 222.637 789.962 222.637ZM930.485 239.168C919.063 239.168 907.935 237.402 897.276 233.848C886.594 230.295 878.232 225.657 872.106 220.02L880.171 203.02C885.978 208.254 893.445 212.51 902.507 215.764C911.596 219.039 920.912 220.678 930.485 220.678C943.147 220.678 952.57 218.551 958.828 214.233C965.059 209.956 968.186 204.254 968.186 197.128C968.186 191.894 966.505 187.681 963.06 184.382C959.676 181.128 955.445 178.616 950.443 176.851C945.444 175.128 938.337 173.171 929.23 171.001C917.722 168.255 908.464 165.447 901.425 162.724C894.381 159.938 888.361 155.704 883.298 149.98C878.319 144.235 875.785 136.513 875.785 126.748C875.785 118.641 877.957 111.301 882.234 104.769C886.507 98.217 893.04 92.982 901.744 89.087C910.468 85.152 921.273 83.173 934.21 83.173C943.211 83.173 952.08 84.345 960.763 86.64C969.528 89.026 976.973 92.324 983.272 96.706L976.037 114.13C969.679 110.044 962.827 106.96 955.573 104.874C948.274 102.747 941.167 101.684 934.211 101.684C921.849 101.684 912.614 103.982 906.401 108.472C900.234 112.982 897.172 118.747 897.172 125.896C897.172 131.129 898.893 135.384 902.403 138.64C905.871 141.896 910.19 144.427 915.362 146.278C920.51 148.065 927.531 150.001 936.36 152.023C947.868 154.81 957.061 157.555 964.041 160.298C971.017 163.065 977.019 167.277 982.04 172.958C987.017 178.616 989.526 186.255 989.526 195.851C989.526 203.808 987.358 211.126 983.016 217.722C978.634 224.339 972.015 229.574 963.187 233.404C954.318 237.273 943.422 239.168 930.485 239.168ZM1122.67 180.359C1122.67 181.957 1122.54 184.062 1122.23 186.679H1028.53C1029.87 196.849 1034.29 205.019 1041.95 211.189C1049.57 217.359 1059.06 220.466 1070.4 220.466C1084.18 220.466 1095.29 215.804 1103.72 206.487L1115.25 220.018C1110.06 226.102 1103.52 230.762 1095.74 233.954C1087.95 237.165 1079.31 238.761 1069.72 238.761C1057.57 238.761 1046.69 236.251 1037.29 231.251C1027.8 226.21 1020.55 219.21 1015.36 210.231C1010.21 201.188 1007.63 191.02 1007.63 179.7C1007.63 168.53 1010.16 158.444 1015.14 149.404C1020.19 140.403 1027.08 133.382 1035.82 128.425C1044.63 123.383 1054.5 120.872 1065.59 120.872C1076.65 120.872 1086.46 123.383 1095.08 128.425C1103.76 133.382 1110.48 140.404 1115.37 149.404C1120.23 158.445 1122.67 168.701 1122.67 180.359ZM1065.59 138.532C1055.57 138.532 1047.17 141.574 1040.46 147.66C1033.7 153.787 1029.7 161.787 1028.53 171.658H1102.63C1101.46 161.935 1097.5 153.978 1090.76 147.787C1084.04 141.617 1075.59 138.532 1065.59 138.532ZM1201.97 238.762C1190.22 238.762 1179.73 236.209 1170.48 231.125C1161.27 226.02 1154.06 219.039 1148.8 210.127C1143.57 201.168 1140.97 191.022 1140.97 179.701C1140.97 168.361 1143.57 158.234 1148.8 149.318C1154.06 140.362 1161.27 133.382 1170.48 128.425C1179.73 123.383 1190.22 120.872 1201.97 120.872C1212.46 120.872 1221.78 122.979 1229.95 127.192C1238.18 131.403 1244.54 137.532 1249.03 145.531L1233.11 155.721C1229.52 150.211 1225.01 146.083 1219.61 143.319C1214.27 140.574 1208.31 139.19 1201.78 139.19C1194.18 139.19 1187.42 140.85 1181.4 144.191C1175.39 147.551 1170.63 152.275 1167.24 158.465C1163.8 164.637 1162.08 171.721 1162.08 179.699C1162.08 187.826 1163.8 195.017 1167.24 201.166C1170.63 207.314 1175.39 212.102 1181.4 215.398C1187.42 218.783 1194.18 220.464 1201.78 220.464C1208.31 220.464 1214.27 219.06 1219.61 216.294C1225.01 213.548 1229.52 209.399 1233.11 203.888L1249.03 213.89C1244.54 221.91 1238.18 228.036 1229.95 232.314C1221.78 236.615 1212.46 238.762 1201.97 238.762Z" fill="white"/>
<path d="M256.672 46.982L134.568 1.32501C132.484 0.537009 130.165 0.537009 128.081 1.32501L5.968 46.982C2.394 48.302 0.021 51.705 0 55.535V162C0 202.041 22.201 242.551 64.188 279.166C95.262 306.271 125.888 321.654 127.187 322.293C129.782 323.59 132.847 323.59 135.463 322.293C136.739 321.654 167.399 306.25 198.451 279.166C240.458 242.551 262.629 202.041 262.629 162V55.535C262.629 51.705 260.256 48.302 256.672 46.982ZM244.204 162C244.204 237.359 152.122 292.273 131.337 303.76C110.496 292.274 18.447 237.36 18.447 162V61.875L131.337 19.665L244.204 61.875V162Z" fill="white"/>
<path d="M214.886 192.871C202.057 199.998 187.323 204.082 171.612 204.082C122.358 204.082 82.4431 164.127 82.4431 114.916C82.4431 99.193 86.5171 84.448 93.6351 71.642C66.2741 86.854 47.7531 116.065 47.7531 149.595C47.7531 198.828 87.6781 238.762 136.921 238.762C170.461 238.762 199.673 220.211 214.886 192.871Z" fill="white"/>
<path d="M187.567 90.109L194.833 104.853L211.141 107.235L199.354 118.703L202.1 134.938L187.567 127.257L172.972 134.938L175.771 118.703L163.983 107.235L180.28 104.853L187.567 90.109Z" fill="white"/>
<path d="M143.962 136.597L147.868 144.512L156.653 145.787L150.303 151.957L151.793 160.701L143.962 156.574L136.134 160.701L137.634 151.957L131.304 145.787L140.048 144.512L143.962 136.597Z" fill="white"/>
<path d="M133.879 74.557L138.921 84.79L150.187 86.428L142.037 94.406L143.962 105.619L133.879 100.32L123.772 105.619L125.697 94.406L117.528 86.428L128.826 84.79L133.879 74.557Z" fill="white"/>
</svg>
