<svg xmlns="http://www.w3.org/2000/svg" fill="none" viewBox="0 0 180 57" height="57" width="180">
<path fill="white" d="M36.2905 14.343L33.4122 15.7091L28.489 18.0282L23.676 15.7567L20.2314 14.1365L16.7868 15.7567L11.9738 18.0282L7.05062 15.7091L4.17225 14.343L7.05062 12.9928L20.2314 6.78198L33.4122 12.9928L36.2905 14.343Z"></path>
<path fill="white" d="M39.9711 16.0744V43.2845L33.4122 46.3661L24.0535 50.782L28.1902 41.839L33.4122 39.3769V28.8296L36.9983 24.5091L33.4122 26.2087L23.676 30.7834V39.774L20.2314 41.3943L16.7868 39.774V30.7834L7.05062 26.2087L3.46445 24.5091L7.05062 28.8296V39.3769L12.2726 41.839L16.4093 50.782L7.05062 46.3661L0.491699 43.2845V16.0744L0.507428 16.0585L7.05062 19.156L8.30893 19.7437L16.7868 23.7307L20.2314 25.3668L23.676 23.7307L32.1539 19.7437L33.4122 19.156L39.9554 16.0585L39.9711 16.0744Z"></path>
<path fill="white" d="M79.9853 40.2029V27.8925C79.9853 24.8903 78.0821 22.3329 75.4396 21.3957C74.8105 21.1574 74.1499 21.0304 73.4578 20.9986C73.3634 20.9827 73.2533 20.9827 73.1432 20.9827C72.341 20.9827 71.5703 21.1257 70.8468 21.3957C69.8244 21.7452 68.9279 22.3488 68.2044 23.1271C67.9527 23.3813 67.7325 23.6513 67.5437 23.9531C66.7573 22.7777 65.5934 21.8723 64.2407 21.3957C63.5172 21.1257 62.7465 20.9827 61.9443 20.9827C61.1421 20.9827 60.3714 21.1257 59.6479 21.3957C58.4839 21.8087 57.4616 22.5394 56.6908 23.4766V21.3957H50.1477V40.2029H56.6908V29.3697C56.6908 27.8925 57.8548 26.717 59.3176 26.717C60.7803 26.717 61.9443 27.8925 61.9443 29.3697V40.2029H68.2044V29.3697C68.2044 28.7502 68.4088 28.1784 68.7863 27.7336C69.2425 27.1141 69.9975 26.717 70.8311 26.717C72.2781 26.717 73.4578 27.8925 73.4578 29.3697V40.2029H79.9853Z"></path>
<path fill="white" d="M96.9251 21.3957V23.3336C95.9342 22.4282 94.7546 21.761 93.4648 21.3957C92.7255 21.1733 91.9391 21.0621 91.1369 21.0621C90.3348 21.0621 89.564 21.1733 88.8248 21.3957C85.4903 22.3488 82.9265 25.3192 82.313 29.052C82.2029 29.608 82.1558 30.1957 82.1558 30.7993C82.1558 31.4029 82.2029 31.9907 82.313 32.5466C82.9265 36.2795 85.4903 39.2499 88.8248 40.2029C89.564 40.4253 90.3348 40.5365 91.1369 40.5365C91.9391 40.5365 92.7255 40.4253 93.4648 40.2029C94.7546 39.8376 95.9342 39.1704 96.9251 38.265V40.2029H103.28V21.3957H96.9251ZM92.8828 34.8816C90.6808 34.8816 88.8405 33.0231 88.8405 30.7993C88.8405 28.5755 90.6808 26.717 92.8828 26.717C95.0849 26.717 96.9251 28.5755 96.9251 30.7993C96.9251 33.0231 95.0691 34.8816 92.8828 34.8816Z" clip-rule="evenodd" fill-rule="evenodd"></path>
<path fill="white" d="M118.474 40.2029H125.678L118.867 30.4658L125.206 21.3957H118.002L115.265 25.3033L112.528 21.3957H105.324L111.663 30.4658L104.853 40.2029H112.056L115.265 35.6123L118.474 40.2029Z"></path>
<path fill="white" d="M139.77 21.0939V28.0037H137.348C136.755 28.0037 136.16 28.117 135.603 28.3288C134.083 28.9063 133.573 30.6561 133.573 32.282V40.2029H126.778V21.3957H133.573V24.6203C133.967 23.1589 135.005 22.1105 136.342 21.5228C136.955 21.2369 137.631 21.0939 138.339 21.0939H139.77Z"></path>
<path fill="white" d="M163.002 12.8975H169.797V40.2029H163.002V12.8975Z"></path>
<path fill="white" d="M179.738 12.8975H172.943V40.2029H179.738V12.8975Z"></path>
<path fill="white" d="M140.557 30.8152C140.557 25.4463 145.071 21.0939 150.623 21.0939C156.191 21.0939 160.69 25.4463 160.69 30.8152C160.69 36.1842 156.176 40.5365 150.623 40.5365C145.071 40.5365 140.557 36.1842 140.557 30.8152ZM146.392 30.8152C146.392 33.0708 148.296 34.8975 150.623 34.8975C152.967 34.8975 154.855 33.0708 154.855 30.8152C154.855 28.5596 152.951 26.7329 150.623 26.7329C148.296 26.7329 146.392 28.5596 146.392 30.8152Z" clip-rule="evenodd" fill-rule="evenodd"></path>
</svg>
