<svg xmlns="http://www.w3.org/2000/svg" fill="none" viewBox="0 0 113 37" height="37" width="113">
<path fill="white" d="M13.5325 20.9799H6.7968L6.79995 14.2475H13.5359L13.5325 20.9799Z"></path>
<path fill="white" d="M20.265 27.7122H13.5292L13.5325 20.9799H20.2683L20.265 27.7122Z"></path>
<path fill="white" d="M20.2683 20.9799H13.5325L13.5359 14.2475H20.2716L20.2683 20.9799Z"></path>
<path fill="white" d="M27.004 20.9799H20.2683L20.2716 14.2475H27.0074L27.004 20.9799Z"></path>
<path fill="white" d="M13.5359 14.2475H6.79995L6.80324 7.51497H13.5392L13.5359 14.2475Z"></path>
<path fill="white" d="M27.0074 14.2475H20.2716L20.2747 7.51497H27.0106L27.0074 14.2475Z"></path>
<path fill="white" d="M6.7968 20.9799H0.0610583L0.0642102 14.2475H6.79995L6.7968 20.9799Z"></path>
<path fill="white" d="M6.79995 14.2475H0.0642102L0.0674955 7.51497H6.80324L6.79995 14.2475Z"></path>
<path fill="white" d="M6.80324 7.51497H0.0674955L0.0708255 0.782609H6.80675L6.80324 7.51497Z"></path>
<path fill="white" d="M33.7464 7.51496L27.0106 7.51497L27.0138 0.782608H33.7497L33.7464 7.51496Z"></path>
<path fill="white" d="M6.79347 27.7122H0.0577281L0.0610583 20.9799H6.7968L6.79347 27.7122Z"></path>
<path fill="white" d="M6.79019 34.4447H0.0544434L0.0577281 27.7122H6.79347L6.79019 34.4447Z"></path>
<path fill="white" d="M33.7398 20.9799H27.004L27.0074 14.2475H33.7431L33.7398 20.9799Z"></path>
<path fill="white" d="M33.7431 14.2475H27.0074L27.0106 7.51497L33.7464 7.51496L33.7431 14.2475Z"></path>
<path fill="white" d="M33.7364 27.7122H27.0007L27.004 20.9799H33.7398L33.7364 27.7122Z"></path>
<path fill="white" d="M33.7332 34.4447H26.9974L27.0007 27.7122H33.7364L33.7332 34.4447Z"></path>
<path fill="white" d="M9.60451 7.51434H2.86894L2.8721 0.781983H9.60802L9.60451 7.51434Z"></path>
<path fill="white" d="M36.5477 7.51434H29.8119L29.8151 0.781982H36.551L36.5477 7.51434Z"></path>
<path fill="white" d="M16.3336 20.9792H9.59807L9.60122 14.2469H16.3371L16.3336 20.9792Z"></path>
<path fill="white" d="M23.0696 20.9793L16.3336 20.9792L16.3371 14.2469L23.0729 14.2469L23.0696 20.9793Z"></path>
<path fill="white" d="M29.8053 20.9793H23.0696L23.0729 14.2469H29.8086L29.8053 20.9793Z"></path>
<path fill="white" d="M9.59807 20.9792H2.86233L2.86548 14.2469H9.60122L9.59807 20.9792Z"></path>
<path fill="white" d="M36.541 20.9792L29.8053 20.9793L29.8086 14.2469L36.5444 14.2469L36.541 20.9792Z"></path>
<path fill="white" d="M16.3371 14.2469H9.60122L9.60451 7.51434L16.3405 7.51436L16.3371 14.2469Z"></path>
<path fill="white" d="M29.8086 14.2469H23.0729L23.076 7.51436L29.8119 7.51434L29.8086 14.2469Z"></path>
<path fill="white" d="M9.60122 14.2469H2.86548L2.86894 7.51434H9.60451L9.60122 14.2469Z"></path>
<path fill="white" d="M36.5444 14.2469L29.8086 14.2469L29.8119 7.51434H36.5477L36.5444 14.2469Z"></path>
<path fill="white" d="M23.0662 27.7116H16.3305L16.3336 20.9792L23.0696 20.9793L23.0662 27.7116Z"></path>
<path fill="white" d="M9.59459 27.7116H2.85902L2.86233 20.9792H9.59807L9.59459 27.7116Z"></path>
<path fill="white" d="M36.5377 27.7116H29.802L29.8053 20.9793L36.541 20.9792L36.5377 27.7116Z"></path>
<path fill="white" d="M9.59128 34.4441H2.85572L2.85902 27.7116H9.59459L9.59128 34.4441Z"></path>
<path fill="white" d="M36.5344 34.4441H29.7987L29.802 27.7116H36.5377L36.5344 34.4441Z"></path>
<path fill="white" d="M47.714 7.15659H50.1698L51.183 10.8208L51.5307 12.2506H51.5944L51.9377 10.8208L52.9557 7.15659H55.4115V17.4965H53.4312V14.2956C53.4312 13.1313 53.6355 10.6099 53.7449 9.49247H53.6973L52.9037 12.2677L52.0986 14.7585H50.9627L50.1437 12.2677L49.4035 9.49247H49.3486C49.4671 10.6099 49.6622 13.1313 49.6622 14.2956V17.4965H47.714V7.15659Z"></path>
<path fill="white" d="M57.5006 15.5343H59.9165V9.11876H57.5006V7.15648H64.6732V9.11876H62.258V15.5343H64.6732V17.4966H57.5006V15.5343Z"></path>
<path fill="white" d="M66.6496 16.1938L67.9933 14.5866C68.7753 15.2267 69.7403 15.6656 70.7433 15.6656C71.7368 15.6656 72.1957 15.2811 72.1957 14.7756C72.1957 14.0311 71.5807 13.851 70.602 13.4413L69.2542 12.8663C68.1081 12.431 67.0614 11.5524 67.0614 10.0474C67.0614 8.33493 68.6047 6.96618 70.8529 6.96618C72.0971 6.96618 73.3544 7.43264 74.2885 8.31996L73.1089 9.79512C72.3801 9.27213 71.7354 8.98736 70.7246 8.98736C69.9537 8.98736 69.4302 9.30704 69.4302 9.91078C69.4302 10.5328 70.1236 10.7606 71.1159 11.1323L72.3815 11.6683C73.7364 12.1759 74.5914 13.0205 74.5914 14.4797C74.5914 16.1985 73.1488 17.6868 70.5879 17.6868C69.19 17.6868 67.7464 17.1756 66.6496 16.1938Z"></path>
<path fill="white" d="M78.966 9.1188H75.8645V7.15652H84.4085V9.1188H81.3075V17.4966H78.966V9.1188Z"></path>
<path fill="white" d="M88.3469 9.01378H89.4884C90.7181 9.01378 91.378 9.35698 91.378 10.378C91.378 11.3903 90.7181 11.9194 89.4884 11.9194H88.3469V9.01378ZM94.1698 17.4966L91.8302 13.3599C92.9347 12.8607 93.6737 11.8974 93.6737 10.378C93.6737 7.91793 91.8704 7.15648 89.679 7.15648H86.0008V17.4966H88.3469V13.7767H89.5759L91.551 17.4966H94.1698Z"></path>
<path fill="white" d="M98.0562 13.2142L98.3009 12.2616L99.1036 8.92696H99.1671C99.4159 10.0181 99.7309 11.2291 99.993 12.2616L100.236 13.2142H98.0562ZM101.329 17.4964H103.811L100.589 7.15659H97.7827L94.5605 17.4964H96.9562L97.5878 15.0375H100.701L101.329 17.4964Z"></path>
<path fill="white" d="M105.64 7.15659H107.977V15.5344H112.582V17.4964H105.64V7.15659Z"></path>
<path fill="white" d="M50.4332 29.8018L50.6779 28.8491L51.4806 25.5143H51.5441C51.7928 26.6054 52.1079 27.8167 52.37 28.8491L52.6131 29.8018H50.4332ZM53.7048 34.0881H56.1882L52.9648 23.7439H50.1573L46.9339 34.0881H49.3306L49.9627 31.6277H53.0772L53.7048 34.0881Z"></path>
<path fill="white" d="M57.5006 32.1219H59.9165V25.7061H57.5006V23.7438H64.6733V25.7061H62.2581V32.1219H64.6733V34.0841H57.5006V32.1219Z"></path>
<path fill="white" d="M66.8019 34.9384H74.4218V36.6946H66.8019V34.9384Z"></path>
</svg>
