<svg xmlns="http://www.w3.org/2000/svg" fill="none" viewBox="0 0 150 37" height="37" width="150">
<path fill="white" d="M30.2175 14.5874L31.3398 27.4104L26.8556 27.8029L25.7938 15.7668C25.6209 13.6812 23.9694 12.0418 21.6434 12.2459C19.3676 12.4447 17.9894 14.3574 18.171 16.4326L19.2241 28.4687L14.74 28.8613L13.6885 16.8269C13.5052 14.7413 11.8554 13.1019 9.53813 13.3059C7.25369 13.5048 5.87368 15.4088 6.05699 17.4944L7.11707 29.5305L2.62081 29.9214L0.891479 10.098L5.13872 9.72622L5.26323 11.1425C6.42188 9.89224 8.05091 9.03622 10.1054 8.85637C12.4572 8.65058 14.5065 9.42186 15.9367 10.8434C17.2181 9.18494 19.2224 8.05915 21.6988 7.84298C26.3023 7.44005 29.8457 10.3401 30.2175 14.5874ZM65.6013 6.39034C71.6021 6.39034 75.9773 10.9316 75.9773 16.8148C75.9773 22.5406 71.5952 27.1596 65.6013 27.1596C59.6074 27.1596 55.2253 22.5406 55.2253 16.8148C55.2167 10.9298 59.6005 6.39034 65.6013 6.39034ZM65.6013 22.736C69.0755 22.736 71.481 20.2094 71.481 16.813C71.481 13.3388 69.0721 10.8122 65.6013 10.8122C62.1305 10.8122 59.7216 13.3388 59.7216 16.813C59.7181 20.2094 62.1271 22.736 65.6013 22.736ZM96.0047 19.701L94.9238 32.0519L90.4431 31.6507L91.4548 20.0866C91.6641 17.6881 90.182 15.6163 87.5465 15.3846C84.9525 15.1581 83.09 16.941 82.8773 19.3361L81.8657 30.9002L77.3815 30.5076L79.1108 10.6843L83.5552 11.0734L83.4238 12.5675C84.8678 11.4659 86.7389 10.916 88.8245 11.0976C93.3951 11.5057 96.4024 15.1771 96.0047 19.701ZM119.005 17.0534C119.005 22.8173 114.899 27.3983 109.094 27.3983C106.685 27.3983 104.598 26.5682 103.093 25.2262V35.3342H98.5969V7.06478H103.059V8.84081C104.598 7.45734 106.69 6.62899 109.099 6.62899C114.891 6.63072 119.005 11.1702 119.005 17.0534ZM114.509 17.0534C114.509 13.5792 112.139 11.0128 108.745 11.0128C105.296 11.0128 102.922 13.5792 102.922 17.0534C102.922 20.4481 105.291 23.0161 108.726 23.0161C112.127 23.0161 114.496 20.4498 114.496 17.0534H114.509ZM149.337 8.90479L147.655 28.1384C147.193 33.4872 142.87 37.1517 137.121 36.6484C132.597 36.2524 129.36 33.3938 128.514 29.4752L132.819 28.3062C133.258 30.5249 134.984 32.1107 137.502 32.3217C140.614 32.5932 142.918 30.6546 143.184 27.6265L143.357 25.6603C141.785 26.8708 139.71 27.4813 137.429 27.2824C132.001 26.8068 128.367 22.1307 128.85 16.6228C129.336 11.0768 133.692 7.09764 139.153 7.57667C141.434 7.77554 143.407 8.7872 144.742 10.2848L144.898 8.51569L149.337 8.90479ZM144.18 18.0063C144.461 14.8191 142.385 12.2597 139.238 11.9847C136.091 11.7098 133.604 13.8697 133.325 17.0551C133.057 20.123 135.133 22.6824 138.278 22.9573C141.424 23.2323 143.907 21.0724 144.182 18.0045L144.18 18.0063ZM43.3016 10.9298C37.3008 10.9298 32.9256 15.4711 32.9256 21.3542C32.9256 27.0801 37.3077 31.6991 43.3016 31.6991C49.2954 31.6991 53.6776 27.0801 53.6776 21.3542C53.6862 15.4693 49.3041 10.9298 43.3016 10.9298ZM43.3016 27.2755C39.8274 27.2755 37.4219 24.7489 37.4219 21.3525C37.4219 17.8783 39.8308 15.3517 43.3016 15.3517C46.7724 15.3517 49.1813 17.8783 49.1813 21.3525C49.1848 24.7489 46.7775 27.2755 43.3016 27.2755ZM123.619 0.695658C124.01 0.685183 124.4 0.754601 124.764 0.899679C125.128 1.04476 125.458 1.26245 125.735 1.53948C126.012 1.81652 126.23 2.14708 126.375 2.51102C126.52 2.87495 126.59 3.26463 126.579 3.65627C126.579 4.44171 126.267 5.19497 125.712 5.75035C125.156 6.30574 124.403 6.61775 123.618 6.61775C122.832 6.61775 122.079 6.30574 121.524 5.75035C120.968 5.19497 120.656 4.44171 120.656 3.65627C120.646 3.26448 120.715 2.87466 120.86 2.5106C121.006 2.14655 121.223 1.8159 121.501 1.53884C121.778 1.26178 122.109 1.04413 122.473 0.899155C122.837 0.754185 123.227 0.684944 123.619 0.695658ZM125.867 30.2672H121.37V10.3695H125.867V30.2672Z"></path>
</svg>
