<svg width="600" height="212" viewBox="0 0 600 212" fill="none" xmlns="http://www.w3.org/2000/svg">
<g clip-path="url(#clip0_1_167)">
<path d="M200.2 51.7998H220L263.3 121.1V51.7998H284.6V157.7H265.1L221.6 88.8998V157.7H200.2V51.7998ZM333.2 160.2C320.8 160.2 311.3 156.7 304.5 149.4C297.7 142.3 294.3 132.1 294.3 118.9C294.3 112.5 295.3 106.8 297 101.8C298.8 96.7998 301.5 92.3998 304.9 88.8998C308.3 85.3998 312.4 82.5998 317.3 80.6998C322.1 78.7998 327.5 77.7998 333.4 77.7998C339.4 77.7998 344.8 78.7998 349.6 80.6998C354.4 82.5998 358.6 85.2998 362 88.8998C365.4 92.4998 368 96.7998 369.8 101.8C371.6 106.8 372.5 112.7 372.5 118.9C372.5 125.3 371.5 131.1 369.8 136.2C368 141.4 365.3 145.6 361.9 149.3C358.5 152.8 354.4 155.6 349.5 157.5C344.5 159.2 339.2 160.2 333.2 160.2ZM333.2 143.4C339.1 143.4 343.5 141.2 346.4 137C349.3 132.8 350.8 126.7 350.8 118.8C350.8 110.9 349.3 104.8 346.4 100.7C343.5 96.4998 339.1 94.3998 333.2 94.3998C327.3 94.3998 322.9 96.3998 320 100.7C317.1 104.9 315.6 110.9 315.6 118.8C315.6 126.8 317 133 320 137.2C322.8 141.4 327.2 143.4 333.2 143.4ZM382.1 79.6998H402.1V92.4998C407 79.2998 427.3 79.5998 428.3 79.6998V97.0998C426.7 97.0998 421.6 96.3998 415.4 98.2998C409.2 100.2 402.6 104.4 402.6 113V157.7H382L382.1 79.6998ZM448.9 97.0998H434.8V79.6998H449V59.0998H469.6V79.6998H487.3V97.0998H469.6V131.6C469.6 135.7 470.4 138.4 472 139.9C473.6 141.4 475.8 142.1 478.5 142.1C479.9 142.1 481.2 142 482.7 141.8C484.1 141.7 485.6 141.4 486.9 141L491.3 155.8C488.4 156.8 484.2 157.8 481.5 158.1C478.8 158.5 476.2 158.6 473.7 158.6C465.3 158.6 459 156.6 455 152.5C450.9 148.4 448.9 141.6 448.9 132.1V97.0998ZM547.8 147.9C544.8 151.4 541.3 154.2 537.6 156.3C533.8 158.5 528.9 159.6 522.9 159.6C519.5 159.6 516.2 159.2 513.1 158.2C510 157.2 507.2 155.9 504.9 154C502.6 152.1 500.7 149.6 499.3 146.8C497.9 143.9 497.3 140.4 497.3 136.3C497.3 131 498.5 126.6 500.8 123.2C503.1 119.8 506.2 117.2 510.1 115.3C513.9 113.4 518.3 112 523 111.4C527.8 110.6 532.7 110.2 537.6 109.9L547.5 109.5V105.7C547.5 100.9 546.1 97.6998 543.6 95.8998C541 94.0998 537.9 93.1998 534.3 93.1998C526.1 93.1998 521.5 96.2998 520.3 102.6L501.5 100.8C502.9 92.5998 506.4 86.7998 512.1 83.1998C517.8 79.4998 525.4 77.7998 535 77.7998C540.9 77.7998 545.9 78.4998 550.1 79.9998C554.2 81.4998 557.6 83.4998 560 86.0998C562.4 88.7998 564.4 92.0998 565.4 95.8998C566.5 99.6998 567 103.9 567 108.7V157.7H547.6V147.9H547.8ZM547.3 123.3L538.2 123.7C533.8 123.8 530.3 124.4 527.7 125.1C525 125.8 522.9 126.6 521.6 127.7C520.2 128.8 519.2 130 518.7 131.4C518.2 132.8 518 134.3 518 136C518 138.6 518.8 140.6 520.7 142.1C522.5 143.6 524.9 144.3 528 144.3C533.3 144.3 537.7 143.1 541.1 140.6C543 139.2 544.5 137.5 545.7 135.3C546.9 133.1 547.5 130.5 547.5 127.4L547.3 123.3ZM579.4 51.7998H600V157.7H579.4V51.7998Z" fill="white"/>
<path d="M4.4 201.5C2 201.5 0 199.2 0 196.2V15.5C0 12.6 2 10.2 4.4 10.2C6.8 10.2 8.8 12.5 8.8 15.5V196.1C8.7 199.3 6.8 201.5 4.4 201.5ZM21.9 212C19.5 212 17.5 209.7 17.5 206.7V5.3C17.5 2.4 19.5 0 21.9 0C24.3 0 26.3 2.3 26.3 5.3V206.7C26.3 209.5 24.4 212 21.9 212ZM39.6 201.5C37.2 201.5 35.2 199.2 35.2 196.2V15.5C35.2 12.6 37.2 10.2 39.6 10.2C41.9 10.2 44 12.5 44 15.5V196.1C44 199.3 42.1 201.5 39.6 201.5ZM110.2 201.5C107.8 201.5 105.8 199.2 105.8 196.2V15.5C105.8 12.6 107.8 10.2 110.2 10.2C112.6 10.2 114.6 12.5 114.6 15.5V196.1C114.7 199.3 112.6 201.5 110.2 201.5ZM127.9 212C125.5 212 123.5 209.7 123.5 206.7V5.3C123.5 2.4 125.5 0 127.9 0C130.2 0 132.3 2.3 132.3 5.3V206.7C132.3 209.5 130.3 212 127.9 212ZM145.5 201.5C143.1 201.5 141.1 199.2 141.1 196.2V15.5C141.1 12.6 143.1 10.2 145.5 10.2C147.9 10.2 149.9 12.5 149.9 15.5V196.1C150 199.3 147.9 201.5 145.5 201.5ZM57.2 139.4C54.8 139.4 52.8 137.1 52.8 134.1V36.4C52.8 33.5 54.8 31.1 57.2 31.1C59.6 31.1 61.6 33.4 61.6 36.4V134.1C61.6 136.9 59.7 139.4 57.2 139.4ZM74.9 160.2C72.5 160.2 70.5 157.9 70.5 154.9V57.2C70.5 54.3 72.5 51.9 74.9 51.9C77.2 51.9 79.3 54.2 79.3 57.2V154.9C79.3 157.7 77.4 160.2 74.9 160.2ZM92.6 180.8C90.2 180.8 88.2 178.5 88.2 175.5V77.8C88.2 74.9 90.2 72.5 92.6 72.5C95 72.5 97 74.8 97 77.8V175.5C96.9 178.4 95 180.8 92.6 180.8Z" fill="white"/>
</g>
<defs>
<clipPath id="clip0_1_167">
<rect width="600" height="212" fill="white"/>
</clipPath>
</defs>
</svg>
