<svg width="205" height="39" viewBox="0 0 205 39" fill="none" xmlns="http://www.w3.org/2000/svg">
<mask id="mask0_1_170" style="mask-type:alpha" maskUnits="userSpaceOnUse" x="0" y="0" width="39" height="39">
<path d="M0 0H38.4278V38.428H0V0Z" fill="black"/>
</mask>
<g mask="url(#mask0_1_170)">
<path fill-rule="evenodd" clip-rule="evenodd" d="M19.214 37.013C9.386 37.013 1.415 29.043 1.415 19.214C1.415 9.386 9.386 1.415 19.214 1.415C29.042 1.415 37.013 9.386 37.013 19.214C37.013 29.043 29.042 37.013 19.214 37.013ZM19.214 0C8.605 0 0 8.604 0 19.214C0 29.824 8.605 38.428 19.214 38.428C29.823 38.428 38.428 29.824 38.428 19.214C38.428 8.604 29.823 0 19.214 0Z" fill="white"/>
<path fill-rule="evenodd" clip-rule="evenodd" d="M15.2101 20.8852L16.8411 22.5122L10.3121 29.0582C9.97113 29.4002 9.32513 29.3132 8.87613 28.8652C8.42813 28.4182 8.33913 27.7732 8.68013 27.4312L15.2101 20.8852ZM21.4491 24.9492L17.0091 20.2392C16.6781 19.8882 16.7841 19.2452 17.2451 18.8112C17.7071 18.3752 18.3491 18.3142 18.6861 18.6582L25.2311 25.3682C25.6781 25.8252 25.3101 27.2862 24.4391 27.2792L16.2641 27.2092C15.7921 27.2062 15.4111 26.6852 15.416 26.0512C15.4211 25.4172 15.8111 24.9022 16.2821 24.9062L21.4491 24.9492ZM24.6371 19.1222H29.4521C30.0721 19.1222 30.5791 19.5312 30.5791 20.0302V20.4822C30.5791 20.9812 30.0721 21.3892 29.4521 21.3892H24.6371H23.9621H23.2761C22.7781 21.3892 22.3691 20.9142 22.3691 20.3352V17.0872L24.6371 14.7292V19.1222ZM14.1451 14.0752C13.6951 14.5012 13.0461 14.5552 12.7031 14.1932L12.3911 13.8642C12.0471 13.5032 12.1341 12.8582 12.5841 12.4322C14.0851 11.0062 15.5591 9.60622 17.0631 8.17922C17.2191 8.03122 17.4231 7.95822 17.6381 7.95722C17.9411 7.90622 18.2431 7.99122 18.4421 8.21122C19.8241 9.74522 21.1961 11.2692 22.5761 12.8012C22.9911 13.2612 23.0271 13.9112 22.6571 14.2452L22.3201 14.5492C21.9491 14.8832 21.3071 14.7792 20.8931 14.3192L17.6421 10.7632L14.1451 14.0752ZM27.1481 14.2202C28.5351 14.2202 29.6611 13.0952 29.6611 11.7082C29.6611 10.3212 28.5351 9.19722 27.1481 9.19722C25.7621 9.19722 24.6371 10.3212 24.6371 11.7082C24.6371 13.0952 25.7621 14.2202 27.1481 14.2202Z" fill="white"/>
</g>
</svg>
