<svg xmlns="http://www.w3.org/2000/svg" fill="none" viewBox="0 0 127 57" height="57" width="127">
<path fill="white" d="M16.7566 33.6259C19.4275 33.6259 21.5998 31.4521 21.5998 28.7828C21.5998 26.1118 19.4275 23.9396 16.7566 23.9396C14.0857 23.9396 11.9135 26.1118 11.9135 28.7828C11.9135 31.4537 14.0857 33.6259 16.7566 33.6259ZM32.7574 28.7828C32.7574 37.6199 25.5923 44.782 16.7566 44.782C13.7136 44.782 10.8698 43.9328 8.44747 42.4584L12.6159 37.5057C13.8711 38.1047 15.2761 38.4397 16.7566 38.4397C22.0815 38.4397 26.4151 34.1061 26.4151 28.7812C26.4151 23.4564 22.0815 19.1242 16.7566 19.1242C11.4318 19.1242 7.09812 23.4579 7.09812 28.7812C7.09812 30.8315 7.74192 32.7335 8.83653 34.299L4.66496 39.2549C2.23181 36.4481 0.755859 32.7907 0.755859 28.7828C0.755859 19.9471 7.92101 12.782 16.7566 12.782C25.5923 12.782 32.7559 19.9471 32.7559 28.7828H32.7574Z"></path>
<path fill="white" d="M46.3554 44.0704C44.4453 44.0704 42.5411 43.7124 40.643 42.9943C38.7468 42.2783 37.0527 41.2322 35.5586 39.8581L39.3229 35.3337C40.3689 36.2298 41.533 36.9619 42.8171 37.5279C44.1012 38.096 45.3413 38.38 46.5354 38.38C47.9095 38.38 48.9316 38.126 49.6037 37.6179C50.2757 37.1099 50.6117 36.4238 50.6117 35.5578C50.6117 34.6317 50.2317 33.9516 49.4697 33.5196C48.7076 33.0856 47.6855 32.6015 46.4014 32.0635L42.5931 30.4494C41.607 30.0313 40.667 29.4713 39.7709 28.7692C38.8748 28.0672 38.1428 27.1951 37.5747 26.149C37.0067 25.1029 36.7227 23.8788 36.7227 22.4747C36.7227 20.8606 37.1627 19.3985 38.0448 18.0844C38.9268 16.7703 40.1509 15.7242 41.7191 14.9482C43.2872 14.1701 45.0873 13.7821 47.1175 13.7821C48.7916 13.7821 50.4637 14.1101 52.1359 14.7681C53.808 15.4262 55.2721 16.3823 56.5262 17.6364L53.1659 21.8027C52.2099 21.0566 51.2538 20.4806 50.2997 20.0786C49.3436 19.6745 48.2836 19.4725 47.1175 19.4725C45.9834 19.4725 45.0793 19.7045 44.4073 20.1666C43.7352 20.6306 43.3992 21.2806 43.3992 22.1167C43.3992 23.0128 43.8252 23.6848 44.6753 24.1329C45.5274 24.5809 46.5814 25.0589 47.8355 25.567L51.5978 27.0891C53.36 27.8072 54.7641 28.7932 55.8102 30.0473C56.8562 31.3014 57.3783 32.9576 57.3783 35.0197C57.3783 36.6338 56.9442 38.126 56.0782 39.5001C55.2121 40.8742 53.958 41.9783 52.3159 42.8163C50.6738 43.6524 48.6856 44.0704 46.3554 44.0704Z"></path>
<path fill="white" d="M69.1472 43.5944H62.5607V14.3821H69.1472V43.5944Z"></path>
<path fill="white" d="M82.4342 43.5944H76.1617V14.3821H82.9263L90.5429 28.8992L93.4111 35.3497H93.5891C93.4711 33.7976 93.3071 32.0655 93.0971 30.1533C92.887 28.2412 92.783 26.419 92.783 24.6869V14.3821H99.0555V43.5944H92.291L84.6744 29.0332L81.8062 22.6708H81.6282C81.7782 24.2849 81.9482 26.017 82.1422 27.8692C82.3362 29.7193 82.4342 31.5114 82.4342 33.2456V43.5944Z"></path>
<path fill="white" d="M118.615 43.5944H111.985V19.9385H103.964V14.3821H126.634V19.9385H118.615V43.5944Z"></path>
</svg>
