<svg width="391" height="101" viewBox="0 0 391 101" fill="none" xmlns="http://www.w3.org/2000/svg">
<g clip-path="url(#clip0_1_177)">
<path d="M136.8 20.8999H153.4C166.7 20.8999 175.2 27.8999 175.2 39.9999C175.2 52.0999 166.7 59.0999 153.4 59.0999H144.4V84.2999H136.7L136.8 20.8999ZM152.8 51.8999C161.5 51.8999 167.4 48.0999 167.4 39.9999C167.4 31.8999 161.5 28.0999 152.8 28.0999H144.4V51.7999H152.8V51.8999Z" fill="white"/>
<path d="M209.5 20.8999H216.6L241.5 84.1999H233.5L226.8 67.0999H199.2L192.5 84.1999H184.3L209.5 20.8999ZM202.1 59.9999H224L213 31.8999L202.1 59.9999Z" fill="white"/>
<path d="M308.4 52.5999C308.4 70.8999 296.6 84.2999 276.8 84.2999H258.4V20.8999H276.8C296.6 20.8999 308.4 34.2999 308.4 52.5999ZM300.2 52.5999C300.2 39.0999 292 28.1999 276.4 28.1999H266.2V77.0999H276.4C292 77.0999 300.2 66.0999 300.2 52.5999Z" fill="white"/>
<path d="M327.2 20.8999H334.9V84.1999H327.2V20.8999Z" fill="white"/>
<path d="M371.5 55.6999C362.7 51.5999 354.9 47.4999 354.9 36.9999C354.9 29.7999 360.8 20.8999 372.4 20.8999C375.8 20.8999 379.1 21.7999 382.1 23.2999C385.1 24.8999 387.7 27.0999 389.7 29.7999L384.2 34.2999C384.2 34.2999 380 27.9999 372.4 27.9999C365.7 27.9999 362.2 32.6999 362.2 37.0999C362.2 43.2999 367.4 45.7999 375.7 49.5999C385 53.8999 390.8 57.7999 390.8 67.6999C390.8 77.5999 382.6 84.2999 372 84.2999C357.6 84.1999 352.6 71.4999 352.6 71.4999L358.7 67.7999C358.7 67.7999 362.3 77.2999 372 77.2999C377.8 77.2999 383.4 73.9999 383.4 67.6999C383.3 61.3999 378.3 58.8999 371.5 55.6999Z" fill="white"/>
<path d="M50.4998 33.7L33.7998 50.4L50.4998 67.0999L67.1998 50.4L50.4998 33.7Z" fill="white"/>
<path fill-rule="evenodd" clip-rule="evenodd" d="M100.5 33.6999L92.2002 41.9999L100.5 50.2999L92.2002 58.5999L100.6 66.9999L67.2002 100.4L58.8003 91.9999L50.5002 100.3L42.2003 91.9999L33.9003 100.3L0.400292 67.0999L8.70029 58.7999L0.300293 50.3999L8.60029 42.0999L0.300293 33.7999L33.7003 0.399902L42.0002 8.69991L50.3003 0.399902L58.6002 8.69991L66.9002 0.399902L100.5 33.6999ZM50.5002 17.0999L17.1002 50.3999L50.5002 83.7999L83.9002 50.3999L50.5002 17.0999Z" fill="white"/>
</g>
<defs>
<clipPath id="clip0_1_177">
<rect width="391" height="101" fill="white"/>
</clipPath>
</defs>
</svg>
