<svg width="1230" height="385" viewBox="0 0 1230 385" fill="none" xmlns="http://www.w3.org/2000/svg">
<path d="M446.67 132.49C440.8 129.32 433.69 127.74 425.35 127.74H381.97V237.7H405.22V202.05H424.76C433.21 202.05 440.41 200.49 446.37 197.38C452.33 194.27 456.88 189.92 460.03 184.33C463.18 178.75 464.76 172.3 464.76 165C464.76 157.7 463.21 151.25 460.11 145.64C457.02 140.05 452.54 135.66 446.67 132.49ZM438.64 174.59C437.19 177.36 435.01 179.53 432.09 181.09C429.17 182.65 425.48 183.43 421 183.43H405.22V146.76H420.9C425.41 146.76 429.13 147.52 432.07 149.04C435 150.56 437.2 152.69 438.65 155.43C440.1 158.17 440.82 161.36 440.82 165.01C440.82 168.62 440.09 171.82 438.64 174.59ZM509.44 127.74L471.48 237.7H496.39L504.55 212.63H544.25L552.39 237.7H577.3L539.4 127.74H509.44ZM510.46 194.48L524 152.87H524.86L538.37 194.48H510.46V194.48ZM663.33 194.54C669.29 191.75 673.84 187.73 676.99 182.49C680.14 177.25 681.72 170.97 681.72 163.67C681.72 156.4 680.17 150.08 677.07 144.69C673.97 139.3 669.48 135.13 663.59 132.18C657.7 129.23 650.6 127.75 642.3 127.75H598.92V237.71H622.17V198.73H639.14L659.97 237.71H685.64L662.28 194.95C662.62 194.8 663 194.69 663.33 194.54ZM655.6 172.74C654.15 175.17 651.96 177 649.02 178.22C646.08 179.44 642.4 180.04 637.96 180.04H622.18V146.75H637.86C642.33 146.75 646.05 147.4 649 148.71C651.95 150.02 654.15 151.92 655.6 154.43C657.05 156.94 657.77 160.01 657.77 163.67C657.77 167.28 657.05 170.3 655.6 172.74ZM740.42 127.74L702.46 237.7H727.37L735.53 212.63H775.23L783.37 237.7H808.28L770.37 127.74H740.42ZM741.43 194.48L754.97 152.87H755.83L769.34 194.48H741.43V194.48ZM853.15 127.74H829.9V237.7H900.29V218.53H853.15V127.74ZM985.11 197.17C985.11 201.36 984.19 205.08 982.34 208.34C980.5 211.6 977.9 214.16 974.56 216.02C971.21 217.88 967.28 218.81 962.77 218.81C958.3 218.81 954.38 217.88 951.01 216.02C947.65 214.16 945.04 211.6 943.2 208.34C941.36 205.08 940.44 201.36 940.44 197.17V127.75H917.19V199.16C917.19 207.18 919.09 214.19 922.88 220.21C926.67 226.22 931.99 230.9 938.83 234.25C945.67 237.6 953.65 239.27 962.78 239.27C971.87 239.27 979.84 237.6 986.67 234.25C993.51 230.9 998.83 226.22 1002.64 220.21C1006.45 214.2 1008.36 207.18 1008.36 199.16V127.75H985.11V197.17V197.17ZM1115.14 194.11C1113.51 190.57 1111.23 187.49 1108.29 184.87C1105.36 182.26 1101.88 180.06 1097.87 178.27C1093.86 176.48 1089.46 175.05 1084.66 173.98L1074.78 171.62C1072.38 171.08 1070.13 170.43 1068.01 169.66C1065.9 168.89 1064.04 167.98 1062.43 166.92C1060.82 165.86 1059.56 164.6 1058.64 163.13C1057.73 161.66 1057.31 159.94 1057.38 157.98C1057.38 155.62 1058.07 153.51 1059.45 151.64C1060.83 149.78 1062.82 148.32 1065.44 147.27C1068.05 146.21 1071.26 145.69 1075.05 145.69C1080.63 145.69 1085.05 146.89 1088.31 149.29C1091.57 151.69 1093.41 155.05 1093.84 159.38H1116.12C1116.01 152.83 1114.26 147.07 1110.86 142.09C1107.46 137.11 1102.71 133.23 1096.6 130.44C1090.5 127.65 1083.37 126.25 1075.2 126.25C1067.18 126.25 1060.02 127.65 1053.72 130.44C1047.42 133.23 1042.47 137.12 1038.87 142.09C1035.27 147.07 1033.49 152.88 1033.53 159.54C1033.49 167.66 1036.16 174.13 1041.53 178.92C1046.9 183.72 1054.22 187.24 1063.49 189.5L1075.46 192.51C1079.47 193.48 1082.86 194.55 1085.64 195.73C1088.41 196.91 1090.53 198.34 1091.97 200.02C1093.42 201.7 1094.14 203.78 1094.14 206.25C1094.14 208.9 1093.33 211.24 1091.72 213.28C1090.11 215.32 1087.84 216.91 1084.93 218.06C1082.01 219.21 1078.58 219.78 1074.65 219.78C1070.64 219.78 1067.05 219.16 1063.89 217.93C1060.72 216.69 1058.2 214.85 1056.32 212.4C1054.44 209.95 1053.37 206.88 1053.12 203.19H1030.62C1030.8 211.1 1032.72 217.73 1036.39 223.08C1040.06 228.43 1045.18 232.47 1051.75 235.19C1058.32 237.91 1066.04 239.27 1074.92 239.27C1083.87 239.27 1091.52 237.92 1097.87 235.22C1104.22 232.52 1109.09 228.71 1112.47 223.78C1115.85 218.86 1117.56 213.03 1117.6 206.3C1117.6 201.71 1116.77 197.65 1115.14 194.11Z" fill="white"/>
<path d="M311.25 201.96V183.61H292.16H201.16V162.49C216.79 163 232.32 164.72 247.18 167.81L260.47 170.57L242.99 72.73H140.98L123.5 170.57L136.79 167.81C151.65 164.72 167.18 163 182.81 162.49V183.61H91.81H72.73V201.96H92.25C94.14 222.7 102.37 241.64 115 256.8L101.17 270.63L114.14 283.6L127.97 269.77C143.13 282.4 162.07 290.63 182.81 292.52V312.04H201.16V292.52C221.9 290.63 240.84 282.4 256 269.77L269.83 283.6L282.8 270.63L268.97 256.8C281.6 241.64 289.83 222.71 291.72 201.96H311.25ZM156.35 91.08H227.63L237.7 147.43C222.8 145.08 207.48 143.89 191.99 143.89C176.5 143.89 161.18 145.08 146.28 147.43L156.35 91.08ZM110.68 201.96H169.85L128.07 243.74C118.69 232 112.44 217.66 110.68 201.96ZM141.06 256.69L182.82 214.93V274.04C167.13 272.28 152.79 266.07 141.06 256.69ZM201.16 274.05V214.94L242.92 256.7C231.18 266.07 216.85 272.28 201.16 274.05ZM255.91 243.74L214.13 201.96H273.3C271.54 217.66 265.29 232 255.91 243.74Z" fill="white"/>
</svg>
