<?xml version="1.0" encoding="UTF-8"?>
<svg id="Calque_1" data-name="Calque 1" xmlns="http://www.w3.org/2000/svg" viewBox="0 0 1658.21 489.88">
  <defs>
    <style>
      .cls-1 {
        letter-spacing: -.04em;
      }

      .cls-2 {
        letter-spacing: -.02em;
      }

      .cls-3 {
        stroke-width: 3px;
      }

      .cls-3, .cls-4, .cls-5, .cls-6, .cls-7, .cls-8, .cls-9 {
        stroke-miterlimit: 10;
      }

      .cls-3, .cls-5, .cls-6, .cls-9 {
        stroke: #fff;
      }

      .cls-4 {
        stroke-width: 6px;
      }

      .cls-4, .cls-7, .cls-8 {
        stroke: #000;
      }

      .cls-10, .cls-5, .cls-11 {
        fill: #fff;
      }

      .cls-5, .cls-6 {
        stroke-width: .5px;
      }

      .cls-7, .cls-11 {
        isolation: isolate;
      }

      .cls-8 {
        font-family: Comfortaa-Bold, Comfortaa;
        font-size: 212px;
        stroke-width: 10px;
      }

      .cls-9 {
        stroke-width: 7px;
      }
    </style>
  </defs>
  <g id="Calque_2" data-name="Calque 2">
    <ellipse cx="162.28" cy="418.67" rx="24.08" ry="10.14"/>
    <ellipse cx="162.51" cy="404.99" rx="27.97" ry="11.78"/>
    <ellipse cx="161.97" cy="385.73" rx="55.95" ry="23.56"/>
    <path d="M138.58,421.25s12,39.93,23.73,39.93,23.79-39.87,23.79-39.87l-47.52-.06Z"/>
    <ellipse cx="164.41" cy="364.67" rx="73.91" ry="31.12"/>
    <ellipse cx="162.48" cy="177.03" rx="27.97" ry="11.78"/>
    <ellipse cx="162.25" cy="165.94" rx="24.08" ry="10.14"/>
    <ellipse cx="162.48" cy="152.25" rx="27.97" ry="11.78"/>
    <ellipse cx="161.94" cy="132.99" rx="55.95" ry="23.56"/>
    <path class="cls-4" d="M92.78,3H231.27c36.98,0,66.96,29.98,66.96,66.96h0c0,36.98-29.98,66.95-66.96,66.95H92.78c-36.98,0-66.96-29.98-66.96-66.96h0C25.82,32.98,55.8,3,92.78,3Z"/>
    <circle class="cls-9" cx="232.75" cy="69.2" r="51.43"/>
    <circle class="cls-6" cx="232.45" cy="69.5" r="25.42"/>
    <ellipse class="cls-10" cx="240.06" cy="50.08" rx="3.39" ry="7.57" transform="translate(117.98 262.75) rotate(-71.93)"/>
    <path class="cls-10" d="M242.11,45.37s10.46,5.48,13.76,13.91c7.86,.9,15.79,1.1,23.69,.61-.92-5.35-6-23-26.14-33.63,1.16,18.03-11.31,19.11-11.31,19.11Z"/>
    <path class="cls-10" d="M218.87,91.54s-8.1-4.89-10.31-12.4c-9.43-1.15-19.95-2.58-22.71-2.58,.92,10.54,7.8,25.53,25.52,35.31-1.15-17.76,7.5-20.33,7.5-20.33Z"/>
    <circle class="cls-11" cx="232.18" cy="69.21" r="2.64"/>
    <circle class="cls-9" cx="93.06" cy="69.2" r="51.43"/>
    <circle class="cls-6" cx="92.76" cy="69.5" r="25.42" transform="translate(9.3 149.93) rotate(-80.78)"/>
    <ellipse class="cls-10" cx="81.75" cy="51.83" rx="7.58" ry="3.39" transform="translate(-14.62 42.78) rotate(-27.01)"/>
    <path class="cls-5" d="M118.29,71.32c-.23,2.64-.35,8.71-7.51,16.62,.51,2.76,4.64,19.61,5.9,22.82,3.1-1,20.17-12.62,23.8-35.14-16.7,6.89-22.19-6.71-22.19-4.3Z"/>
    <path class="cls-10" d="M67.5,64.67s2.16-10.83,10.09-15.93c-2.64-8.6-6.65-19.15-7.46-21.22-5.15,2.07-21.91,14.22-24.31,35.59,16.4-6.76,21.68,1.56,21.68,1.56Z"/>
    <circle class="cls-11" cx="92.5" cy="69.21" r="2.64"/>
    <ellipse class="cls-7" cx="162" cy="479.82" rx="30.94" ry="9.56"/>
    <path d="M30.64,352.28s-7.37,3.05-7,8.13c-2.67,0-4.17,3.31-3.91,4.8s3.51,16.84,9.11,18.62c4.53-1.27-5-16.16-4.63-17.78s.94-1.81,1.78-1.82,1.95,.67,3.31,1.17c-.4,1.14-.33,2.4,.21,3.49,.45,1,7.84,16.11,13.39,15.42,4.76-1.37-7.1-14-7.82-15.15s-.18-3.67,.62-3.71,4-.43,7.13-4.15c2.24-1,3.51-.38,4,.38s0,18.6,3.39,18,3.75-14.44-.9-22.12c-1.31-1.49-3.3-2.17-5.25-1.8,0,0-3.66-7.54-13.43-3.48Z"/>
    <path d="M38.22,188.86C18.96,190,1.38,220.27,0,245.72c-.3,14.37,13.61,78.73,24.16,107.16,2.31,6.24,4.93,8.45,10.82,7,5.23-1.31,7.21-4.49,6-10.18-6.88-32.1-21.09-90.49-21.71-100.28-.91-11,7-32.71,15.9-37.6,2.12-7.22,22.26-24.11,3.05-22.96Z"/>
    <ellipse class="cls-10" cx="38.55" cy="200.79" rx="16.49" ry="8.27" transform="translate(-165.41 214.98) rotate(-83.11)"/>
    <path d="M295.44,352.2s7.36,3.05,7,8.12c2.67,0,4.18,3.31,3.91,4.8s-3.5,16.85-9.11,18.63c-4.52-1.27,5-16.17,4.63-17.79s-.94-1.81-1.78-1.81-1.95,.66-3.31,1.17c.4,1.14,.33,2.4-.21,3.49-.44,1-7.84,16.11-13.39,15.42-4.76-1.37,7.11-14,7.82-15.15s.19-3.67-.62-3.71-4-.43-7.13-4.15c-2.24-1-3.51-.38-4,.38s0,18.6-3.39,18-3.75-14.43,.9-22.11c1.31-1.49,3.31-2.17,5.26-1.8,0,0,3.64-7.58,13.42-3.49Z"/>
    <path d="M287.86,188.78c19.26,1.14,36.84,31.41,38.22,56.86,.3,14.37-13.61,78.73-24.15,107.16-2.32,6.24-4.94,8.45-10.83,7-5.23-1.31-7.21-4.49-6-10.18,6.88-32.1,21.1-90.5,21.71-100.28,.91-11-7-32.71-15.9-37.61-2.13-7.21-22.26-24.1-3.05-22.95Z"/>
    <ellipse class="cls-10" cx="287.55" cy="200.67" rx="8.27" ry="16.49" transform="translate(-22 35.94) rotate(-6.89)"/>
    <path d="M243.16,378.33s-139.64,.68-156.15,.68-23.52-26.82-23.52-26.82c0,0-25.68-111.21-29.09-129.32s1.58-46.27,32.09-46.27h197c29.51,0,30.89,29.76,26.07,51.09l-27.04,128.17s-4.23,22.47-19.36,22.47Z"/>
    <path class="cls-3" d="M230.22,360.28s-118.29,.59-132.27,.59-19.92-22.76-19.92-22.76c0,0-21.75-94.2-24.63-109.54s1.34-39.2,27.18-39.2H247.49c25,0,26.16,25.21,22.08,43.28l-23,108.57s-3.52,19.06-16.35,19.06Z"/>
  </g>
  <path class="cls-11" d="M121.18,194.67l-38.74,.22s-14.48,.42-20.43,12.76-2.35,25.54-2.35,25.54l25.1,106.71,36.41-145.24Z"/>
  <text class="cls-8" transform="translate(374.04 326.7)"><tspan x="0" y="0">r</tspan><tspan class="cls-1" x="103.03" y="0">2</tspan><tspan x="219.21" y="0">d</tspan><tspan class="cls-2" x="368.24" y="0">ev</tspan><tspan x="607.59" y="0">ops.io</tspan></text>
</svg>