<svg width="1659" height="490" viewBox="0 0 1659 490" fill="none" xmlns="http://www.w3.org/2000/svg">
<g clip-path="url(#clip0_1_191)">
<path d="M162.28 428.81C175.579 428.81 186.36 424.27 186.36 418.67C186.36 413.07 175.579 408.53 162.28 408.53C148.981 408.53 138.2 413.07 138.2 418.67C138.2 424.27 148.981 428.81 162.28 428.81Z" fill="white"/>
<path d="M162.51 416.77C177.957 416.77 190.48 411.496 190.48 404.99C190.48 398.484 177.957 393.21 162.51 393.21C147.063 393.21 134.54 398.484 134.54 404.99C134.54 411.496 147.063 416.77 162.51 416.77Z" fill="white"/>
<path d="M161.97 409.29C192.87 409.29 217.92 398.742 217.92 385.73C217.92 372.718 192.87 362.17 161.97 362.17C131.069 362.17 106.02 372.718 106.02 385.73C106.02 398.742 131.069 409.29 161.97 409.29Z" fill="white"/>
<path d="M138.58 421.25C138.58 421.25 150.58 461.18 162.31 461.18C174.04 461.18 186.1 421.31 186.1 421.31L138.58 421.25V421.25Z" fill="white"/>
<path d="M164.41 395.79C205.229 395.79 238.32 381.857 238.32 364.67C238.32 347.483 205.229 333.55 164.41 333.55C123.591 333.55 90.5 347.483 90.5 364.67C90.5 381.857 123.591 395.79 164.41 395.79Z" fill="white"/>
<path d="M162.48 188.81C177.927 188.81 190.45 183.536 190.45 177.03C190.45 170.524 177.927 165.25 162.48 165.25C147.032 165.25 134.51 170.524 134.51 177.03C134.51 183.536 147.032 188.81 162.48 188.81Z" fill="white"/>
<path d="M162.25 176.08C175.549 176.08 186.33 171.54 186.33 165.94C186.33 160.34 175.549 155.8 162.25 155.8C148.951 155.8 138.17 160.34 138.17 165.94C138.17 171.54 148.951 176.08 162.25 176.08Z" fill="white"/>
<path d="M162.48 164.03C177.927 164.03 190.45 158.756 190.45 152.25C190.45 145.744 177.927 140.47 162.48 140.47C147.032 140.47 134.51 145.744 134.51 152.25C134.51 158.756 147.032 164.03 162.48 164.03Z" fill="white"/>
<path d="M161.94 156.55C192.841 156.55 217.89 146.002 217.89 132.99C217.89 119.978 192.841 109.43 161.94 109.43C131.04 109.43 105.99 119.978 105.99 132.99C105.99 146.002 131.04 156.55 161.94 156.55Z" fill="white"/>
<path d="M92.7803 3H231.27C268.25 3 298.23 32.98 298.23 69.96C298.23 106.94 268.25 136.91 231.27 136.91H92.7803C55.8003 136.91 25.8203 106.93 25.8203 69.95C25.8203 32.98 55.8003 3 92.7803 3Z" fill="white" stroke="white" stroke-width="6" stroke-miterlimit="10"/>
<path d="M232.75 120.63C261.154 120.63 284.18 97.604 284.18 69.2C284.18 40.796 261.154 17.77 232.75 17.77C204.346 17.77 181.32 40.796 181.32 69.2C181.32 97.604 204.346 120.63 232.75 120.63Z" fill="white" stroke="black" stroke-width="7" stroke-miterlimit="10"/>
<path d="M232.45 94.9201C246.489 94.9201 257.87 83.5392 257.87 69.5001C257.87 55.461 246.489 44.0801 232.45 44.0801C218.411 44.0801 207.03 55.461 207.03 69.5001C207.03 83.5392 218.411 94.9201 232.45 94.9201Z" fill="white" stroke="black" stroke-width="0.5" stroke-miterlimit="10"/>
<path d="M247.248 52.412C247.828 50.6321 245.077 48.138 241.102 46.8412C237.128 45.5444 233.435 45.936 232.854 47.7159C232.274 49.4958 235.025 51.99 238.999 53.2868C242.974 54.5836 246.667 54.1919 247.248 52.412Z" fill="black"/>
<path d="M242.11 45.37C242.11 45.37 252.57 50.85 255.87 59.28C263.73 60.18 271.66 60.38 279.56 59.89C278.64 54.54 273.56 36.89 253.42 26.26C254.58 44.29 242.11 45.37 242.11 45.37Z" fill="black"/>
<path d="M218.87 91.5401C218.87 91.5401 210.77 86.6501 208.56 79.1401C199.13 77.9901 188.61 76.5601 185.85 76.5601C186.77 87.1001 193.65 102.09 211.37 111.87C210.22 94.1101 218.87 91.5401 218.87 91.5401Z" fill="black"/>
<path d="M232.18 71.8501C233.638 71.8501 234.82 70.6681 234.82 69.2101C234.82 67.752 233.638 66.5701 232.18 66.5701C230.722 66.5701 229.54 67.752 229.54 69.2101C229.54 70.6681 230.722 71.8501 232.18 71.8501Z" fill="black"/>
<path d="M93.0599 120.63C121.464 120.63 144.49 97.604 144.49 69.2C144.49 40.796 121.464 17.77 93.0599 17.77C64.6559 17.77 41.6299 40.796 41.6299 69.2C41.6299 97.604 64.6559 120.63 93.0599 120.63Z" fill="white" stroke="black" stroke-width="7" stroke-miterlimit="10"/>
<path d="M117.856 73.577C120.105 59.7193 110.695 46.6619 96.8371 44.4125C82.9794 42.1631 69.922 51.5734 67.6725 65.4311C65.4231 79.2888 74.8335 92.3462 88.6912 94.5956C102.549 96.8451 115.606 87.4347 117.856 73.577Z" fill="white" stroke="black" stroke-width="0.5" stroke-miterlimit="10"/>
<path d="M83.2913 54.8505C87.021 52.9493 89.3553 50.0559 88.505 48.3878C87.6547 46.7198 83.9419 46.9088 80.2122 48.81C76.4825 50.7112 74.1483 53.6047 74.9985 55.2727C75.8488 56.9407 79.5616 56.7517 83.2913 54.8505Z" fill="black"/>
<path d="M118.29 71.3201C118.06 73.9601 117.94 80.0301 110.78 87.9401C111.29 90.7001 115.42 107.55 116.68 110.76C119.78 109.76 136.85 98.1401 140.48 75.6201C123.78 82.5101 118.29 68.9101 118.29 71.3201V71.3201Z" fill="black" stroke="black" stroke-width="0.5" stroke-miterlimit="10"/>
<path d="M67.5003 64.67C67.5003 64.67 69.6603 53.84 77.5903 48.74C74.9503 40.14 70.9403 29.59 70.1303 27.52C64.9803 29.59 48.2203 41.74 45.8203 63.11C62.2203 56.35 67.5003 64.67 67.5003 64.67Z" fill="black"/>
<path d="M92.5004 71.8501C93.9584 71.8501 95.1404 70.6681 95.1404 69.2101C95.1404 67.752 93.9584 66.5701 92.5004 66.5701C91.0423 66.5701 89.8604 67.752 89.8604 69.2101C89.8604 70.6681 91.0423 71.8501 92.5004 71.8501Z" fill="black"/>
<path d="M162 489.38C179.087 489.38 192.94 485.1 192.94 479.82C192.94 474.54 179.087 470.26 162 470.26C144.912 470.26 131.06 474.54 131.06 479.82C131.06 485.1 144.912 489.38 162 489.38Z" fill="white" stroke="white" stroke-miterlimit="10"/>
<path d="M30.6402 352.28C30.6402 352.28 23.2702 355.33 23.6402 360.41C20.9702 360.41 19.4702 363.72 19.7302 365.21C19.9902 366.7 23.2402 382.05 28.8402 383.83C33.3702 382.56 23.8402 367.67 24.2102 366.05C24.5802 364.43 25.1502 364.24 25.9902 364.23C26.8302 364.22 27.9402 364.9 29.3002 365.4C28.9002 366.54 28.9702 367.8 29.5102 368.89C29.9602 369.89 37.3502 385 42.9002 384.31C47.6602 382.94 35.8002 370.31 35.0802 369.16C34.3602 368.01 34.9002 365.49 35.7002 365.45C36.5002 365.41 39.7002 365.02 42.8302 361.3C45.0702 360.3 46.3402 360.92 46.8302 361.68C47.3202 362.44 46.8302 380.28 50.2202 379.68C53.6102 379.08 53.9702 365.24 49.3202 357.56C48.0102 356.07 46.0202 355.39 44.0702 355.76C44.0702 355.76 40.4102 348.22 30.6402 352.28V352.28Z" fill="white"/>
<path d="M38.2199 188.86C18.9599 190 1.37989 220.27 -0.000111765 245.72C-0.300112 260.09 13.6099 324.45 24.1599 352.88C26.4699 359.12 29.0899 361.33 34.9799 359.88C40.2099 358.57 42.1899 355.39 40.9799 349.7C34.0999 317.6 19.8899 259.21 19.2699 249.42C18.3599 238.42 26.2699 216.71 35.1699 211.82C37.2899 204.6 57.4299 187.71 38.2199 188.86V188.86Z" fill="white"/>
<path d="M46.765 201.788C47.8575 192.747 45.0673 184.973 40.5329 184.425C35.9985 183.877 31.4369 190.762 30.3444 199.804C29.2519 208.845 32.0421 216.619 36.5765 217.167C41.1109 217.715 45.6724 210.829 46.765 201.788Z" fill="black"/>
<path d="M295.439 352.2C295.439 352.2 302.799 355.25 302.439 360.32C305.109 360.32 306.619 363.63 306.349 365.12C306.079 366.61 302.849 381.97 297.239 383.75C292.719 382.48 302.239 367.58 301.869 365.96C301.499 364.34 300.929 364.15 300.089 364.15C299.249 364.15 298.139 364.81 296.779 365.32C297.179 366.46 297.109 367.72 296.569 368.81C296.129 369.81 288.729 384.92 283.179 384.23C278.419 382.86 290.289 370.23 290.999 369.08C291.709 367.93 291.189 365.41 290.379 365.37C289.569 365.33 286.379 364.94 283.249 361.22C281.009 360.22 279.739 360.84 279.249 361.6C278.759 362.36 279.249 380.2 275.859 379.6C272.469 379 272.109 365.17 276.759 357.49C278.069 356 280.069 355.32 282.019 355.69C282.019 355.69 285.659 348.11 295.439 352.2V352.2Z" fill="white"/>
<path d="M287.86 188.78C307.12 189.92 324.7 220.19 326.08 245.64C326.38 260.01 312.47 324.37 301.93 352.8C299.61 359.04 296.99 361.25 291.1 359.8C285.87 358.49 283.89 355.31 285.1 349.62C291.98 317.52 306.2 259.12 306.81 249.34C307.72 238.34 299.81 216.63 290.91 211.73C288.78 204.52 268.65 187.63 287.86 188.78V188.78Z" fill="white"/>
<path d="M289.524 217.036C294.058 216.488 296.849 208.715 295.756 199.673C294.664 190.632 290.102 183.746 285.568 184.294C281.033 184.842 278.243 192.616 279.336 201.657C280.428 210.699 284.99 217.584 289.524 217.036Z" fill="black"/>
<path d="M243.16 378.33C243.16 378.33 103.52 379.01 87.0096 379.01C70.4996 379.01 63.4896 352.19 63.4896 352.19C63.4896 352.19 37.8096 240.98 34.3996 222.87C30.9896 204.76 35.9796 176.6 66.4896 176.6H263.49C293 176.6 294.38 206.36 289.56 227.69L262.52 355.86C262.52 355.86 258.29 378.33 243.16 378.33V378.33Z" fill="white"/>
<path d="M230.22 360.28C230.22 360.28 111.93 360.87 97.9502 360.87C83.9702 360.87 78.0302 338.11 78.0302 338.11C78.0302 338.11 56.2802 243.91 53.4002 228.57C50.5202 213.23 54.7402 189.37 80.5802 189.37H247.49C272.49 189.37 273.65 214.58 269.57 232.65L246.57 341.22C246.57 341.22 243.05 360.28 230.22 360.28V360.28Z" fill="white" stroke="black" stroke-width="3" stroke-miterlimit="10"/>
<path d="M121.18 194.67L82.4403 194.89C82.4403 194.89 67.9603 195.31 62.0103 207.65C56.0603 219.99 59.6603 233.19 59.6603 233.19L84.7603 339.9L121.17 194.66L121.18 194.67Z" fill="black"/>
<path d="M375.708 320.596C375.708 320.116 375.824 319.688 376.056 319.312C376.296 318.928 376.616 318.624 377.016 318.4C377.416 318.176 377.856 318.064 378.336 318.064C378.816 318.064 379.172 318.144 379.404 318.304C379.644 318.456 379.736 318.64 379.68 318.856C379.656 318.968 379.608 319.056 379.536 319.12C379.472 319.176 379.396 319.212 379.308 319.228C379.22 319.244 379.124 319.24 379.02 319.216C378.508 319.112 378.048 319.104 377.64 319.192C377.232 319.28 376.908 319.444 376.668 319.684C376.436 319.924 376.32 320.228 376.32 320.596H375.708ZM375.72 324.7C375.528 324.7 375.38 324.652 375.276 324.556C375.172 324.452 375.12 324.3 375.12 324.1V318.736C375.12 318.544 375.172 318.396 375.276 318.292C375.38 318.188 375.528 318.136 375.72 318.136C375.92 318.136 376.068 318.188 376.164 318.292C376.268 318.388 376.32 318.536 376.32 318.736V324.1C376.32 324.292 376.268 324.44 376.164 324.544C376.068 324.648 375.92 324.7 375.72 324.7ZM381.268 324.7C381.092 324.7 380.944 324.64 380.824 324.52C380.712 324.4 380.656 324.256 380.656 324.088C380.656 323.912 380.712 323.768 380.824 323.656L384.232 319.672C384.472 319.392 384.656 319.128 384.784 318.88C384.92 318.632 384.988 318.396 384.988 318.172C384.988 317.82 384.928 317.516 384.808 317.26C384.688 317.004 384.516 316.808 384.292 316.672C384.068 316.528 383.8 316.456 383.488 316.456C383.184 316.456 382.908 316.536 382.66 316.696C382.42 316.848 382.228 317.056 382.084 317.32C381.948 317.576 381.88 317.86 381.88 318.172C381.88 318.332 381.82 318.472 381.7 318.592C381.588 318.712 381.444 318.772 381.268 318.772C381.1 318.772 380.956 318.712 380.836 318.592C380.716 318.472 380.656 318.332 380.656 318.172C380.656 317.628 380.78 317.144 381.028 316.72C381.276 316.288 381.612 315.948 382.036 315.7C382.468 315.452 382.952 315.328 383.488 315.328C384.032 315.328 384.504 315.444 384.904 315.676C385.304 315.908 385.612 316.236 385.828 316.66C386.052 317.084 386.164 317.588 386.164 318.172C386.164 318.428 386.108 318.688 385.996 318.952C385.892 319.216 385.756 319.468 385.588 319.708C385.428 319.948 385.264 320.164 385.096 320.356L382.348 323.476H385.708C385.884 323.476 386.032 323.54 386.152 323.668C386.272 323.788 386.332 323.928 386.332 324.088C386.332 324.256 386.272 324.4 386.152 324.52C386.032 324.64 385.884 324.7 385.708 324.7H381.268ZM390.506 324.748C389.882 324.748 389.318 324.604 388.814 324.316C388.318 324.02 387.922 323.62 387.626 323.116C387.338 322.612 387.194 322.044 387.194 321.412C387.194 320.78 387.326 320.216 387.59 319.72C387.862 319.216 388.23 318.82 388.694 318.532C389.158 318.236 389.682 318.088 390.266 318.088C390.738 318.088 391.174 318.188 391.574 318.388C391.974 318.58 392.31 318.844 392.582 319.18V315.94C392.582 315.756 392.638 315.608 392.75 315.496C392.87 315.384 393.018 315.328 393.194 315.328C393.378 315.328 393.526 315.384 393.638 315.496C393.75 315.608 393.806 315.756 393.806 315.94V321.412C393.806 322.044 393.658 322.612 393.362 323.116C393.074 323.62 392.682 324.02 392.186 324.316C391.69 324.604 391.13 324.748 390.506 324.748ZM390.506 323.668C390.914 323.668 391.278 323.572 391.598 323.38C391.918 323.18 392.17 322.908 392.354 322.564C392.538 322.22 392.63 321.836 392.63 321.412C392.63 320.98 392.538 320.596 392.354 320.26C392.17 319.924 391.918 319.66 391.598 319.468C391.278 319.268 390.914 319.168 390.506 319.168C390.106 319.168 389.742 319.268 389.414 319.468C389.094 319.66 388.838 319.924 388.646 320.26C388.462 320.596 388.37 320.98 388.37 321.412C388.37 321.836 388.462 322.22 388.646 322.564C388.838 322.908 389.094 323.18 389.414 323.38C389.742 323.572 390.106 323.668 390.506 323.668ZM399.052 324.748C398.388 324.748 397.796 324.608 397.276 324.328C396.764 324.04 396.36 323.648 396.064 323.152C395.776 322.648 395.632 322.072 395.632 321.424C395.632 320.768 395.768 320.192 396.04 319.696C396.32 319.192 396.704 318.8 397.192 318.52C397.68 318.232 398.24 318.088 398.872 318.088C399.496 318.088 400.032 318.228 400.48 318.508C400.928 318.78 401.268 319.16 401.5 319.648C401.74 320.128 401.86 320.684 401.86 321.316C401.86 321.468 401.808 321.596 401.704 321.7C401.6 321.796 401.468 321.844 401.308 321.844H396.472V320.884H401.272L400.78 321.22C400.772 320.82 400.692 320.464 400.54 320.152C400.388 319.832 400.172 319.58 399.892 319.396C399.612 319.212 399.272 319.12 398.872 319.12C398.416 319.12 398.024 319.22 397.696 319.42C397.376 319.62 397.132 319.896 396.964 320.248C396.796 320.592 396.712 320.984 396.712 321.424C396.712 321.864 396.812 322.256 397.012 322.6C397.212 322.944 397.488 323.216 397.84 323.416C398.192 323.616 398.596 323.716 399.052 323.716C399.3 323.716 399.552 323.672 399.808 323.584C400.072 323.488 400.284 323.38 400.444 323.26C400.564 323.172 400.692 323.128 400.828 323.128C400.972 323.12 401.096 323.16 401.2 323.248C401.336 323.368 401.408 323.5 401.416 323.644C401.424 323.788 401.36 323.912 401.224 324.016C400.952 324.232 400.612 324.408 400.204 324.544C399.804 324.68 399.42 324.748 399.052 324.748ZM405.406 324.688C405.158 324.688 404.966 324.556 404.83 324.292L402.286 318.928C402.222 318.792 402.214 318.66 402.262 318.532C402.318 318.396 402.422 318.292 402.574 318.22C402.71 318.148 402.846 318.136 402.982 318.184C403.126 318.232 403.234 318.324 403.306 318.46L405.682 323.584H405.106L407.458 318.46C407.53 318.324 407.638 318.232 407.782 318.184C407.934 318.136 408.086 318.148 408.238 318.22C408.382 318.284 408.478 318.384 408.526 318.52C408.574 318.656 408.566 318.792 408.502 318.928L405.958 324.292C405.838 324.556 405.654 324.688 405.406 324.688ZM412.502 324.748C411.854 324.748 411.282 324.608 410.786 324.328C410.29 324.04 409.898 323.648 409.61 323.152C409.33 322.648 409.19 322.072 409.19 321.424C409.19 320.768 409.33 320.192 409.61 319.696C409.898 319.192 410.29 318.8 410.786 318.52C411.282 318.232 411.854 318.088 412.502 318.088C413.142 318.088 413.71 318.232 414.206 318.52C414.702 318.8 415.09 319.192 415.37 319.696C415.658 320.192 415.802 320.768 415.802 321.424C415.802 322.072 415.662 322.648 415.382 323.152C415.102 323.648 414.714 324.04 414.218 324.328C413.722 324.608 413.15 324.748 412.502 324.748ZM412.502 323.668C412.918 323.668 413.286 323.572 413.606 323.38C413.926 323.188 414.174 322.924 414.35 322.588C414.534 322.252 414.626 321.864 414.626 321.424C414.626 320.984 414.534 320.596 414.35 320.26C414.174 319.916 413.926 319.648 413.606 319.456C413.286 319.264 412.918 319.168 412.502 319.168C412.086 319.168 411.718 319.264 411.398 319.456C411.078 319.648 410.826 319.916 410.642 320.26C410.458 320.596 410.366 320.984 410.366 321.424C410.366 321.864 410.458 322.252 410.642 322.588C410.826 322.924 411.078 323.188 411.398 323.38C411.718 323.572 412.086 323.668 412.502 323.668ZM418.236 327.508C418.06 327.508 417.912 327.448 417.792 327.328C417.68 327.216 417.624 327.072 417.624 326.896V321.424C417.632 320.792 417.78 320.224 418.068 319.72C418.356 319.216 418.748 318.82 419.244 318.532C419.74 318.236 420.3 318.088 420.924 318.088C421.556 318.088 422.12 318.236 422.616 318.532C423.112 318.82 423.504 319.216 423.792 319.72C424.088 320.224 424.236 320.792 424.236 321.424C424.236 322.056 424.1 322.624 423.828 323.128C423.564 323.624 423.2 324.02 422.736 324.316C422.272 324.604 421.748 324.748 421.164 324.748C420.692 324.748 420.256 324.652 419.856 324.46C419.464 324.26 419.128 323.992 418.848 323.656V326.896C418.848 327.072 418.792 327.216 418.68 327.328C418.568 327.448 418.42 327.508 418.236 327.508ZM420.924 323.668C421.332 323.668 421.696 323.572 422.016 323.38C422.336 323.18 422.588 322.912 422.772 322.576C422.964 322.232 423.06 321.848 423.06 321.424C423.06 320.992 422.964 320.608 422.772 320.272C422.588 319.928 422.336 319.66 422.016 319.468C421.696 319.268 421.332 319.168 420.924 319.168C420.524 319.168 420.16 319.268 419.832 319.468C419.512 319.66 419.26 319.928 419.076 320.272C418.892 320.608 418.8 320.992 418.8 321.424C418.8 321.848 418.892 322.232 419.076 322.576C419.26 322.912 419.512 323.18 419.832 323.38C420.16 323.572 420.524 323.668 420.924 323.668ZM428.449 324.748C427.889 324.748 427.369 324.664 426.889 324.496C426.417 324.32 426.049 324.1 425.785 323.836C425.665 323.708 425.613 323.564 425.629 323.404C425.653 323.236 425.733 323.1 425.869 322.996C426.029 322.868 426.185 322.816 426.337 322.84C426.497 322.856 426.633 322.924 426.745 323.044C426.881 323.196 427.097 323.34 427.393 323.476C427.697 323.604 428.033 323.668 428.401 323.668C428.865 323.668 429.217 323.592 429.457 323.44C429.705 323.288 429.833 323.092 429.841 322.852C429.849 322.612 429.733 322.404 429.493 322.228C429.261 322.052 428.833 321.908 428.209 321.796C427.401 321.636 426.813 321.396 426.445 321.076C426.085 320.756 425.905 320.364 425.905 319.9C425.905 319.492 426.025 319.156 426.265 318.892C426.505 318.62 426.813 318.42 427.189 318.292C427.565 318.156 427.957 318.088 428.365 318.088C428.893 318.088 429.361 318.172 429.769 318.34C430.177 318.508 430.501 318.74 430.741 319.036C430.853 319.164 430.905 319.3 430.897 319.444C430.889 319.58 430.821 319.696 430.693 319.792C430.565 319.88 430.413 319.908 430.237 319.876C430.061 319.844 429.913 319.772 429.793 319.66C429.593 319.468 429.377 319.336 429.145 319.264C428.913 319.192 428.645 319.156 428.341 319.156C427.989 319.156 427.689 319.216 427.441 319.336C427.201 319.456 427.081 319.632 427.081 319.864C427.081 320.008 427.117 320.14 427.189 320.26C427.269 320.372 427.421 320.476 427.645 320.572C427.869 320.66 428.197 320.748 428.629 320.836C429.229 320.956 429.701 321.108 430.045 321.292C430.397 321.476 430.649 321.692 430.801 321.94C430.953 322.18 431.029 322.46 431.029 322.78C431.029 323.148 430.929 323.48 430.729 323.776C430.537 324.072 430.249 324.308 429.865 324.484C429.489 324.66 429.017 324.748 428.449 324.748ZM432.925 324.892C432.701 324.892 432.505 324.812 432.337 324.652C432.177 324.484 432.097 324.288 432.097 324.064C432.097 323.832 432.177 323.636 432.337 323.476C432.505 323.308 432.701 323.224 432.925 323.224C433.157 323.224 433.353 323.308 433.513 323.476C433.673 323.636 433.753 323.832 433.753 324.064C433.753 324.288 433.673 324.484 433.513 324.652C433.353 324.812 433.157 324.892 432.925 324.892ZM436.168 324.7C435.992 324.7 435.844 324.644 435.724 324.532C435.612 324.412 435.556 324.264 435.556 324.088V318.748C435.556 318.564 435.612 318.416 435.724 318.304C435.844 318.192 435.992 318.136 436.168 318.136C436.352 318.136 436.5 318.192 436.612 318.304C436.724 318.416 436.78 318.564 436.78 318.748V324.088C436.78 324.264 436.724 324.412 436.612 324.532C436.5 324.644 436.352 324.7 436.168 324.7ZM436.168 317.068C435.952 317.068 435.764 316.992 435.604 316.84C435.452 316.68 435.376 316.492 435.376 316.276C435.376 316.06 435.452 315.876 435.604 315.724C435.764 315.564 435.952 315.484 436.168 315.484C436.384 315.484 436.568 315.564 436.72 315.724C436.88 315.876 436.96 316.06 436.96 316.276C436.96 316.492 436.88 316.68 436.72 316.84C436.568 316.992 436.384 317.068 436.168 317.068ZM442.034 324.748C441.386 324.748 440.814 324.608 440.318 324.328C439.822 324.04 439.43 323.648 439.142 323.152C438.862 322.648 438.722 322.072 438.722 321.424C438.722 320.768 438.862 320.192 439.142 319.696C439.43 319.192 439.822 318.8 440.318 318.52C440.814 318.232 441.386 318.088 442.034 318.088C442.674 318.088 443.242 318.232 443.738 318.52C444.234 318.8 444.622 319.192 444.902 319.696C445.19 320.192 445.334 320.768 445.334 321.424C445.334 322.072 445.194 322.648 444.914 323.152C444.634 323.648 444.246 324.04 443.75 324.328C443.254 324.608 442.682 324.748 442.034 324.748ZM442.034 323.668C442.45 323.668 442.818 323.572 443.138 323.38C443.458 323.188 443.706 322.924 443.882 322.588C444.066 322.252 444.158 321.864 444.158 321.424C444.158 320.984 444.066 320.596 443.882 320.26C443.706 319.916 443.458 319.648 443.138 319.456C442.818 319.264 442.45 319.168 442.034 319.168C441.618 319.168 441.25 319.264 440.93 319.456C440.61 319.648 440.358 319.916 440.174 320.26C439.99 320.596 439.898 320.984 439.898 321.424C439.898 321.864 439.99 322.252 440.174 322.588C440.358 322.924 440.61 323.188 440.93 323.38C441.25 323.572 441.618 323.668 442.034 323.668Z" fill="white"/>
<path d="M375.708 320.596H375.208V321.096H375.708V320.596ZM376.056 319.312L375.632 319.047L375.631 319.049L376.056 319.312ZM377.016 318.4L376.772 317.964L376.772 317.964L377.016 318.4ZM379.404 318.304L379.12 318.716L379.128 318.721L379.137 318.726L379.404 318.304ZM379.68 318.856L379.196 318.73L379.193 318.741L379.191 318.751L379.68 318.856ZM379.536 319.12L379.865 319.496L379.868 319.494L379.536 319.12ZM379.308 319.228L379.219 318.736L379.219 318.736L379.308 319.228ZM379.02 319.216L379.133 318.729L379.12 318.726L379.02 319.216ZM376.668 319.684L376.314 319.33L376.309 319.336L376.668 319.684ZM376.32 320.596V321.096H376.82V320.596H376.32ZM375.276 324.556L374.922 324.91L374.93 324.917L374.937 324.923L375.276 324.556ZM375.276 318.292L375.63 318.646L375.63 318.646L375.276 318.292ZM376.164 318.292L375.797 318.631L375.81 318.646L375.825 318.659L376.164 318.292ZM376.164 324.544L375.81 324.19L375.803 324.197L375.797 324.205L376.164 324.544ZM376.208 320.596C376.208 320.2 376.302 319.865 376.482 319.575L375.631 319.049C375.346 319.511 375.208 320.032 375.208 320.596H376.208ZM376.48 319.577C376.675 319.265 376.933 319.02 377.26 318.836L376.772 317.964C376.299 318.228 375.917 318.591 375.632 319.047L376.48 319.577ZM377.26 318.836C377.582 318.656 377.937 318.564 378.336 318.564V317.564C377.775 317.564 377.25 317.696 376.772 317.964L377.26 318.836ZM378.336 318.564C378.778 318.564 379.012 318.641 379.12 318.716L379.688 317.892C379.332 317.647 378.854 317.564 378.336 317.564V318.564ZM379.137 318.726C379.171 318.748 379.19 318.765 379.201 318.775C379.21 318.785 379.21 318.787 379.206 318.78C379.202 318.771 379.198 318.759 379.196 318.745C379.195 318.732 379.197 318.726 379.196 318.73L380.164 318.981C380.22 318.767 380.205 318.542 380.1 318.332C380.001 318.134 379.84 317.988 379.672 317.882L379.137 318.726ZM379.191 318.751C379.188 318.767 379.185 318.77 379.187 318.767C379.188 318.765 379.19 318.762 379.193 318.758C379.196 318.754 379.2 318.75 379.204 318.746L379.868 319.494C380.034 319.346 380.127 319.157 380.169 318.961L379.191 318.751ZM379.207 318.744C379.209 318.742 379.213 318.739 379.217 318.737C379.221 318.735 379.222 318.735 379.219 318.736L379.397 319.72C379.57 319.689 379.73 319.615 379.865 319.496L379.207 318.744ZM379.219 318.736C379.209 318.738 379.183 318.74 379.132 318.729L378.908 319.703C379.065 319.74 379.231 319.75 379.397 319.72L379.219 318.736ZM379.12 318.726C378.556 318.612 378.025 318.597 377.535 318.703L377.745 319.681C378.071 319.61 378.46 319.612 378.921 319.706L379.12 318.726ZM377.535 318.703C377.054 318.807 376.637 319.008 376.314 319.33L377.022 320.038C377.179 319.88 377.41 319.753 377.745 319.681L377.535 318.703ZM376.309 319.336C375.977 319.68 375.82 320.113 375.82 320.596H376.82C376.82 320.343 376.895 320.168 377.028 320.031L376.309 319.336ZM376.32 320.096H375.708V321.096H376.32V320.096ZM375.72 324.2C375.665 324.2 375.633 324.193 375.619 324.188C375.607 324.184 375.609 324.183 375.615 324.189L374.937 324.923C375.162 325.131 375.448 325.2 375.72 325.2V324.2ZM375.63 324.202C375.636 324.209 375.636 324.213 375.632 324.202C375.628 324.189 375.62 324.158 375.62 324.1H374.62C374.62 324.384 374.695 324.682 374.922 324.91L375.63 324.202ZM375.62 324.1V318.736H374.62V324.1H375.62ZM375.62 318.736C375.62 318.684 375.627 318.657 375.631 318.647C375.634 318.639 375.634 318.641 375.63 318.646L374.922 317.938C374.699 318.162 374.62 318.453 374.62 318.736H375.62ZM375.63 318.646C375.625 318.65 375.623 318.65 375.631 318.647C375.641 318.643 375.668 318.636 375.72 318.636V317.636C375.438 317.636 375.146 317.715 374.922 317.938L375.63 318.646ZM375.72 318.636C375.778 318.636 375.807 318.644 375.815 318.647C375.821 318.649 375.81 318.645 375.797 318.631L376.531 317.953C376.307 317.71 376.001 317.636 375.72 317.636V318.636ZM375.825 318.659C375.811 318.646 375.807 318.635 375.809 318.641C375.812 318.649 375.82 318.678 375.82 318.736H376.82C376.82 318.455 376.746 318.149 376.503 317.925L375.825 318.659ZM375.82 318.736V324.1H376.82V318.736H375.82ZM375.82 324.1C375.82 324.152 375.813 324.179 375.809 324.189C375.806 324.197 375.806 324.195 375.81 324.19L376.518 324.898C376.741 324.674 376.82 324.382 376.82 324.1H375.82ZM375.797 324.205C375.81 324.191 375.821 324.187 375.815 324.189C375.807 324.192 375.778 324.2 375.72 324.2V325.2C376.001 325.2 376.307 325.126 376.531 324.883L375.797 324.205ZM380.824 324.52L380.458 324.861L380.464 324.867L380.47 324.874L380.824 324.52ZM380.824 323.656L381.178 324.01L381.191 323.996L381.204 323.981L380.824 323.656ZM384.232 319.672L383.852 319.347L383.852 319.347L384.232 319.672ZM384.784 318.88L384.345 318.639L384.34 318.651L384.784 318.88ZM384.808 317.26L384.355 317.472L384.355 317.472L384.808 317.26ZM384.292 316.672L384.022 317.093L384.032 317.099L384.292 316.672ZM382.66 316.696L382.928 317.118L382.931 317.116L382.66 316.696ZM382.084 317.32L381.645 317.081L381.642 317.085L382.084 317.32ZM381.7 318.592L381.346 318.238L381.34 318.244L381.334 318.251L381.7 318.592ZM380.836 318.592L380.482 318.946L380.482 318.946L380.836 318.592ZM381.028 316.72L381.46 316.972L381.462 316.969L381.028 316.72ZM382.036 315.7L381.787 315.266L381.784 315.268L382.036 315.7ZM384.904 315.676L385.155 315.243L385.155 315.243L384.904 315.676ZM385.828 316.66L385.382 316.887L385.386 316.894L385.828 316.66ZM385.996 318.952L385.536 318.757L385.531 318.769L385.996 318.952ZM385.588 319.708L385.178 319.421L385.172 319.431L385.588 319.708ZM385.096 320.356L385.471 320.686L385.472 320.685L385.096 320.356ZM382.348 323.476L381.973 323.145L381.241 323.976H382.348V323.476ZM386.152 323.668L385.787 324.01L385.793 324.016L385.798 324.022L386.152 323.668ZM386.152 324.52L385.798 324.166L385.798 324.166L386.152 324.52ZM381.268 324.2C381.219 324.2 381.2 324.189 381.178 324.166L380.47 324.874C380.688 325.091 380.965 325.2 381.268 325.2V324.2ZM381.19 324.179C381.166 324.154 381.156 324.133 381.156 324.088H380.156C380.156 324.379 380.258 324.646 380.458 324.861L381.19 324.179ZM381.156 324.088C381.156 324.028 381.17 324.017 381.178 324.01L380.47 323.302C380.254 323.519 380.156 323.795 380.156 324.088H381.156ZM381.204 323.981L384.612 319.997L383.852 319.347L380.444 323.331L381.204 323.981ZM384.612 319.997C384.869 319.697 385.078 319.401 385.228 319.109L384.34 318.651C384.234 318.855 384.075 319.087 383.852 319.347L384.612 319.997ZM385.222 319.12C385.388 318.818 385.488 318.499 385.488 318.172H384.488C384.488 318.293 384.452 318.446 384.346 318.64L385.222 319.12ZM385.488 318.172C385.488 317.764 385.418 317.384 385.261 317.048L384.355 317.472C384.437 317.648 384.488 317.876 384.488 318.172H385.488ZM385.261 317.048C385.102 316.71 384.866 316.436 384.551 316.245L384.032 317.099C384.166 317.18 384.274 317.298 384.355 317.472L385.261 317.048ZM384.562 316.251C384.245 316.047 383.879 315.956 383.488 315.956V316.956C383.721 316.956 383.891 317.009 384.022 317.093L384.562 316.251ZM383.488 315.956C383.091 315.956 382.72 316.062 382.389 316.276L382.931 317.116C383.096 317.01 383.277 316.956 383.488 316.956V315.956ZM382.392 316.274C382.076 316.474 381.827 316.746 381.645 317.081L382.523 317.559C382.629 317.365 382.763 317.222 382.928 317.118L382.392 316.274ZM381.642 317.085C381.465 317.419 381.38 317.785 381.38 318.172H382.38C382.38 317.935 382.431 317.733 382.526 317.555L381.642 317.085ZM381.38 318.172C381.38 318.191 381.379 318.206 381.346 318.238L382.054 318.946C382.261 318.738 382.38 318.473 382.38 318.172H381.38ZM381.334 318.251C381.324 318.262 381.319 318.264 381.316 318.265C381.312 318.267 381.298 318.272 381.268 318.272V319.272C381.571 319.272 381.852 319.162 382.066 318.933L381.334 318.251ZM381.268 318.272C381.234 318.272 381.217 318.266 381.19 318.238L380.482 318.946C380.695 319.158 380.966 319.272 381.268 319.272V318.272ZM381.19 318.238C381.157 318.206 381.156 318.191 381.156 318.172H380.156C380.156 318.473 380.275 318.738 380.482 318.946L381.19 318.238ZM381.156 318.172C381.156 317.707 381.261 317.312 381.46 316.972L380.596 316.468C380.299 316.976 380.156 317.549 380.156 318.172H381.156ZM381.462 316.969C381.667 316.611 381.941 316.335 382.288 316.132L381.784 315.268C381.283 315.561 380.885 315.964 380.594 316.471L381.462 316.969ZM382.285 316.134C382.635 315.932 383.032 315.828 383.488 315.828V314.828C382.871 314.828 382.301 314.972 381.787 315.266L382.285 316.134ZM383.488 315.828C383.96 315.828 384.342 315.928 384.653 316.108L385.155 315.243C384.666 314.96 384.104 314.828 383.488 314.828V315.828ZM384.653 316.108C384.967 316.291 385.209 316.546 385.382 316.887L386.273 316.433C386.015 315.926 385.641 315.525 385.155 315.243L384.653 316.108ZM385.386 316.894C385.564 317.231 385.664 317.652 385.664 318.172H386.664C386.664 317.524 386.54 316.936 386.27 316.426L385.386 316.894ZM385.664 318.172C385.664 318.353 385.625 318.547 385.536 318.757L386.456 319.147C386.591 318.829 386.664 318.503 386.664 318.172H385.664ZM385.531 318.769C385.442 318.995 385.325 319.212 385.178 319.421L385.998 319.995C386.187 319.724 386.342 319.437 386.461 319.135L385.531 318.769ZM385.172 319.431C385.023 319.655 384.872 319.853 384.72 320.027L385.472 320.685C385.656 320.475 385.833 320.241 386.004 319.985L385.172 319.431ZM384.721 320.025L381.973 323.145L382.723 323.806L385.471 320.686L384.721 320.025ZM382.348 323.976H385.708V322.976H382.348V323.976ZM385.708 323.976C385.746 323.976 385.762 323.983 385.787 324.01L386.517 323.326C386.302 323.097 386.022 322.976 385.708 322.976V323.976ZM385.798 324.022C385.831 324.054 385.832 324.069 385.832 324.088H386.832C386.832 323.787 386.713 323.522 386.506 323.314L385.798 324.022ZM385.832 324.088C385.832 324.122 385.826 324.139 385.798 324.166L386.506 324.874C386.718 324.661 386.832 324.39 386.832 324.088H385.832ZM385.798 324.166C385.776 324.189 385.757 324.2 385.708 324.2V325.2C386.011 325.2 386.288 325.091 386.506 324.874L385.798 324.166ZM385.708 324.2H381.268V325.2H385.708V324.2ZM388.814 324.316L388.558 324.745L388.566 324.75L388.814 324.316ZM387.626 323.116L387.192 323.364L387.195 323.369L387.626 323.116ZM387.59 319.72L387.15 319.482L387.149 319.485L387.59 319.72ZM388.694 318.532L388.958 318.957L388.963 318.953L388.694 318.532ZM391.574 318.388L391.351 318.835L391.358 318.839L391.574 318.388ZM392.582 319.18L392.194 319.495L393.082 320.592V319.18H392.582ZM392.75 315.496L392.409 315.13L392.403 315.136L392.397 315.142L392.75 315.496ZM393.362 323.116L392.931 322.863L392.928 322.868L393.362 323.116ZM392.186 324.316L392.437 324.748L392.442 324.745L392.186 324.316ZM391.598 323.38L391.855 323.809L391.863 323.804L391.598 323.38ZM392.354 322.564L391.913 322.328L391.913 322.328L392.354 322.564ZM392.354 320.26L391.916 320.5L391.916 320.5L392.354 320.26ZM391.598 319.468L391.333 319.892L391.341 319.897L391.598 319.468ZM389.414 319.468L389.671 319.897L389.674 319.895L389.414 319.468ZM388.646 320.26L388.212 320.012L388.208 320.02L388.646 320.26ZM388.646 322.564L388.205 322.8L388.21 322.808L388.646 322.564ZM389.414 323.38L389.149 323.804L389.155 323.808L389.162 323.811L389.414 323.38ZM390.506 324.248C389.962 324.248 389.485 324.123 389.062 323.882L388.566 324.75C389.151 325.084 389.802 325.248 390.506 325.248V324.248ZM389.07 323.887C388.648 323.634 388.311 323.295 388.057 322.863L387.195 323.369C387.533 323.945 387.989 324.406 388.558 324.745L389.07 323.887ZM388.06 322.868C387.819 322.446 387.694 321.965 387.694 321.412H386.694C386.694 322.123 386.857 322.778 387.192 323.364L388.06 322.868ZM387.694 321.412C387.694 320.852 387.811 320.37 388.032 319.955L387.149 319.485C386.842 320.062 386.694 320.708 386.694 321.412H387.694ZM388.03 319.957C388.263 319.526 388.572 319.196 388.958 318.957L388.431 318.107C387.889 318.443 387.462 318.906 387.15 319.482L388.03 319.957ZM388.963 318.953C389.342 318.712 389.771 318.588 390.266 318.588V317.588C389.593 317.588 388.975 317.76 388.425 318.11L388.963 318.953ZM390.266 318.588C390.665 318.588 391.024 318.672 391.351 318.835L391.798 317.941C391.325 317.704 390.811 317.588 390.266 317.588V318.588ZM391.358 318.839C391.693 319 391.969 319.218 392.194 319.495L392.971 318.865C392.651 318.47 392.256 318.16 391.791 317.937L391.358 318.839ZM393.082 319.18V315.94H392.082V319.18H393.082ZM393.082 315.94C393.082 315.865 393.101 315.853 393.104 315.85L392.397 315.142C392.176 315.363 392.082 315.647 392.082 315.94H393.082ZM393.091 315.861C393.112 315.842 393.135 315.828 393.194 315.828V314.828C392.902 314.828 392.629 314.925 392.409 315.13L393.091 315.861ZM393.194 315.828C393.269 315.828 393.282 315.846 393.285 315.85L393.992 315.142C393.771 314.921 393.488 314.828 393.194 314.828V315.828ZM393.285 315.85C393.288 315.853 393.306 315.865 393.306 315.94H394.306C394.306 315.647 394.213 315.363 393.992 315.142L393.285 315.85ZM393.306 315.94V321.412H394.306V315.94H393.306ZM393.306 321.412C393.306 321.962 393.178 322.442 392.931 322.863L393.793 323.369C394.138 322.782 394.306 322.125 394.306 321.412H393.306ZM392.928 322.868C392.683 323.298 392.352 323.635 391.93 323.887L392.442 324.745C393.013 324.405 393.466 323.942 393.796 323.364L392.928 322.868ZM391.935 323.884C391.522 324.123 391.05 324.248 390.506 324.248V325.248C391.21 325.248 391.858 325.084 392.437 324.748L391.935 323.884ZM390.506 324.168C390.996 324.168 391.451 324.052 391.855 323.809L391.341 322.951C391.106 323.092 390.832 323.168 390.506 323.168V324.168ZM391.863 323.804C392.26 323.556 392.571 323.218 392.795 322.8L391.913 322.328C391.769 322.598 391.577 322.804 391.333 322.956L391.863 323.804ZM392.795 322.8C393.021 322.377 393.13 321.911 393.13 321.412H392.13C392.13 321.761 392.055 322.063 391.913 322.328L392.795 322.8ZM393.13 321.412C393.13 320.907 393.022 320.438 392.793 320.02L391.916 320.5C392.054 320.753 392.13 321.053 392.13 321.412H393.13ZM392.793 320.02C392.567 319.608 392.254 319.278 391.855 319.039L391.341 319.897C391.583 320.042 391.773 320.24 391.916 320.5L392.793 320.02ZM391.863 319.044C391.457 318.79 391 318.668 390.506 318.668V319.668C390.828 319.668 391.099 319.746 391.333 319.892L391.863 319.044ZM390.506 318.668C390.018 318.668 389.564 318.791 389.154 319.041L389.674 319.895C389.921 319.745 390.194 319.668 390.506 319.668V318.668ZM389.157 319.039C388.761 319.277 388.445 319.604 388.212 320.012L389.08 320.508C389.231 320.244 389.428 320.043 389.671 319.897L389.157 319.039ZM388.208 320.02C387.978 320.438 387.87 320.907 387.87 321.412H388.87C388.87 321.053 388.946 320.753 389.085 320.5L388.208 320.02ZM387.87 321.412C387.87 321.911 387.979 322.377 388.205 322.8L389.087 322.328C388.945 322.063 388.87 321.761 388.87 321.412H387.87ZM388.21 322.808C388.441 323.222 388.755 323.557 389.149 323.804L389.679 322.956C389.434 322.803 389.236 322.594 389.083 322.32L388.21 322.808ZM389.162 323.811C389.57 324.051 390.022 324.168 390.506 324.168V323.168C390.19 323.168 389.914 323.093 389.667 322.948L389.162 323.811ZM397.276 324.328L397.031 324.764L397.039 324.768L397.276 324.328ZM396.064 323.152L395.629 323.4L395.634 323.408L396.064 323.152ZM396.04 319.696L395.603 319.453L395.601 319.456L396.04 319.696ZM397.192 318.52L397.441 318.954L397.446 318.951L397.192 318.52ZM400.48 318.508L400.215 318.932L400.22 318.935L400.48 318.508ZM401.5 319.648L401.048 319.863L401.052 319.872L401.5 319.648ZM401.704 321.7L402.043 322.067L402.05 322.061L402.057 322.054L401.704 321.7ZM396.472 321.844H395.972V322.344H396.472V321.844ZM396.472 320.884V320.384H395.972V320.884H396.472ZM401.272 320.884L401.554 321.297L402.89 320.384H401.272V320.884ZM400.78 321.22L400.28 321.23L400.298 322.154L401.062 321.633L400.78 321.22ZM400.54 320.152L400.088 320.366L400.09 320.371L400.54 320.152ZM397.696 319.42L397.435 318.993L397.431 318.996L397.696 319.42ZM396.964 320.248L397.413 320.467L397.415 320.463L396.964 320.248ZM397.012 322.6L396.579 322.851L396.579 322.851L397.012 322.6ZM397.84 323.416L398.087 322.981L398.087 322.981L397.84 323.416ZM399.808 323.584L399.97 324.057L399.979 324.054L399.808 323.584ZM400.444 323.26L400.148 322.857L400.144 322.86L400.444 323.26ZM400.828 323.128V323.628H400.842L400.855 323.627L400.828 323.128ZM401.2 323.248L401.531 322.873L401.523 322.866L401.2 323.248ZM401.416 323.644L401.915 323.616L401.416 323.644ZM401.224 324.016L400.92 323.619L400.913 323.624L401.224 324.016ZM400.204 324.544L400.046 324.07L400.043 324.071L400.204 324.544ZM399.052 324.248C398.46 324.248 397.951 324.124 397.513 323.888L397.039 324.768C397.64 325.092 398.315 325.248 399.052 325.248V324.248ZM397.521 323.892C397.083 323.646 396.744 323.316 396.493 322.896L395.634 323.408C395.976 323.98 396.444 324.434 397.031 324.764L397.521 323.892ZM396.498 322.904C396.258 322.484 396.132 321.995 396.132 321.424H395.132C395.132 322.149 395.294 322.812 395.63 323.4L396.498 322.904ZM396.132 321.424C396.132 320.838 396.253 320.348 396.478 319.936L395.601 319.456C395.283 320.036 395.132 320.697 395.132 321.424H396.132ZM396.477 319.939C396.714 319.512 397.034 319.187 397.441 318.954L396.943 318.086C396.374 318.413 395.926 318.872 395.603 319.453L396.477 319.939ZM397.446 318.951C397.848 318.713 398.319 318.588 398.872 318.588V317.588C398.161 317.588 397.511 317.751 396.938 318.089L397.446 318.951ZM398.872 318.588C399.419 318.588 399.86 318.71 400.215 318.932L400.745 318.084C400.204 317.746 399.572 317.588 398.872 317.588V318.588ZM400.22 318.935C400.582 319.155 400.857 319.46 401.048 319.863L401.951 319.433C401.679 318.86 401.273 318.405 400.739 318.081L400.22 318.935ZM401.052 319.872C401.252 320.271 401.36 320.748 401.36 321.316H402.36C402.36 320.62 402.227 319.985 401.947 319.424L401.052 319.872ZM401.36 321.316C401.36 321.325 401.359 321.331 401.358 321.334C401.358 321.336 401.358 321.337 401.358 321.337C401.358 321.337 401.358 321.338 401.358 321.338C401.357 321.338 401.357 321.338 401.357 321.338C401.357 321.338 401.357 321.338 401.357 321.338C401.357 321.338 401.357 321.338 401.357 321.338C401.357 321.338 401.357 321.338 401.357 321.338C401.356 321.339 401.355 321.342 401.35 321.346L402.057 322.054C402.258 321.852 402.36 321.596 402.36 321.316H401.36ZM401.365 321.333C401.361 321.336 401.359 321.337 401.356 321.338C401.352 321.34 401.337 321.344 401.308 321.344V322.344C401.576 322.344 401.834 322.26 402.043 322.067L401.365 321.333ZM401.308 321.344H396.472V322.344H401.308V321.344ZM396.972 321.844V320.884H395.972V321.844H396.972ZM396.472 321.384H401.272V320.384H396.472V321.384ZM400.99 320.471L400.498 320.807L401.062 321.633L401.554 321.297L400.99 320.471ZM401.28 321.21C401.27 320.748 401.177 320.319 400.989 319.933L400.09 320.371C400.206 320.609 400.273 320.891 400.28 321.23L401.28 321.21ZM400.991 319.937C400.802 319.54 400.527 319.215 400.166 318.978L399.617 319.814C399.816 319.945 399.973 320.124 400.088 320.366L400.991 319.937ZM400.166 318.978C399.79 318.731 399.35 318.62 398.872 318.62V319.62C399.193 319.62 399.433 319.693 399.617 319.814L400.166 318.978ZM398.872 318.62C398.341 318.62 397.855 318.737 397.435 318.993L397.956 319.847C398.192 319.703 398.49 319.62 398.872 319.62V318.62ZM397.431 318.996C397.027 319.248 396.72 319.598 396.512 320.033L397.415 320.463C397.543 320.194 397.724 319.992 397.961 319.844L397.431 318.996ZM396.514 320.029C396.308 320.45 396.212 320.919 396.212 321.424H397.212C397.212 321.049 397.283 320.734 397.413 320.467L396.514 320.029ZM396.212 321.424C396.212 321.943 396.33 322.423 396.579 322.851L397.444 322.349C397.293 322.089 397.212 321.785 397.212 321.424H396.212ZM396.579 322.851C396.825 323.273 397.165 323.608 397.593 323.851L398.087 322.981C397.81 322.824 397.599 322.615 397.444 322.349L396.579 322.851ZM397.593 323.851C398.029 324.099 398.52 324.216 399.052 324.216V323.216C398.671 323.216 398.354 323.133 398.087 322.981L397.593 323.851ZM399.052 324.216C399.36 324.216 399.667 324.161 399.97 324.057L399.645 323.111C399.437 323.183 399.24 323.216 399.052 323.216V324.216ZM399.979 324.054C400.272 323.947 400.532 323.819 400.744 323.66L400.144 322.86C400.035 322.941 399.872 323.029 399.637 323.114L399.979 324.054ZM400.739 323.663C400.782 323.632 400.808 323.628 400.828 323.628V322.628C400.575 322.628 400.345 322.712 400.148 322.857L400.739 323.663ZM400.855 323.627C400.864 323.627 400.87 323.627 400.873 323.627C400.875 323.628 400.876 323.628 400.875 323.628C400.874 323.628 400.874 323.627 400.873 323.627C400.873 323.627 400.874 323.627 400.877 323.63L401.523 322.866C401.315 322.691 401.063 322.614 400.8 322.629L400.855 323.627ZM400.869 323.623C400.902 323.652 400.914 323.671 400.917 323.676C400.919 323.68 400.917 323.677 400.916 323.672L401.915 323.616C401.898 323.306 401.74 323.057 401.531 322.873L400.869 323.623ZM400.916 323.672C400.916 323.666 400.916 323.657 400.919 323.646C400.921 323.634 400.925 323.624 400.929 323.616C400.938 323.599 400.942 323.602 400.92 323.619L401.527 324.413C401.767 324.23 401.934 323.958 401.915 323.616L400.916 323.672ZM400.913 323.624C400.696 323.797 400.411 323.948 400.046 324.07L400.362 325.018C400.812 324.868 401.207 324.667 401.535 324.408L400.913 323.624ZM400.043 324.071C399.687 324.192 399.358 324.248 399.052 324.248V325.248C399.482 325.248 399.92 325.168 400.365 325.017L400.043 324.071ZM404.83 324.292L404.379 324.506L404.382 324.514L404.386 324.521L404.83 324.292ZM402.286 318.928L401.834 319.141L401.835 319.142L402.286 318.928ZM402.262 318.532L401.8 318.342L401.797 318.349L401.794 318.356L402.262 318.532ZM402.574 318.22L402.788 318.672L402.799 318.667L402.808 318.662L402.574 318.22ZM402.982 318.184L402.816 318.656L402.824 318.658L402.982 318.184ZM403.306 318.46L403.76 318.25L403.755 318.238L403.748 318.226L403.306 318.46ZM405.682 323.584V324.084H406.465L406.136 323.374L405.682 323.584ZM405.106 323.584L404.652 323.375L404.327 324.084H405.106V323.584ZM407.458 318.46L407.017 318.226L407.01 318.239L407.004 318.251L407.458 318.46ZM407.782 318.184L407.632 317.707L407.624 317.71L407.782 318.184ZM408.238 318.22L408.024 318.672L408.035 318.677L408.238 318.22ZM408.526 318.52L408.998 318.354L408.998 318.354L408.526 318.52ZM408.502 318.928L408.954 319.142L408.955 319.141L408.502 318.928ZM405.958 324.292L405.507 324.078L405.503 324.085L405.958 324.292ZM405.406 324.188C405.377 324.188 405.367 324.182 405.36 324.177C405.348 324.169 405.315 324.141 405.275 324.063L404.386 324.521C404.587 324.912 404.93 325.188 405.406 325.188V324.188ZM405.282 324.078L402.738 318.714L401.835 319.142L404.379 324.506L405.282 324.078ZM402.739 318.715C402.734 318.706 402.733 318.7 402.732 318.697C402.731 318.694 402.731 318.694 402.732 318.697C402.732 318.699 402.732 318.702 402.731 318.705C402.731 318.708 402.73 318.709 402.731 318.708L401.794 318.356C401.694 318.624 401.719 318.896 401.834 319.141L402.739 318.715ZM402.725 318.722C402.727 318.718 402.732 318.699 402.788 318.672L402.36 317.768C402.113 317.885 401.91 318.074 401.8 318.342L402.725 318.722ZM402.808 318.662C402.817 318.657 402.822 318.656 402.824 318.655C402.826 318.654 402.825 318.655 402.822 318.655C402.82 318.655 402.817 318.655 402.815 318.655C402.813 318.655 402.813 318.654 402.816 318.655L403.149 317.712C402.872 317.615 402.591 317.646 402.341 317.778L402.808 318.662ZM402.824 318.658C402.84 318.663 402.845 318.668 402.847 318.67C402.849 318.671 402.856 318.677 402.865 318.694L403.748 318.226C403.617 317.978 403.408 317.799 403.141 317.71L402.824 318.658ZM402.853 318.67L405.229 323.794L406.136 323.374L403.76 318.25L402.853 318.67ZM405.682 323.084H405.106V324.084H405.682V323.084ZM405.561 323.793L407.913 318.669L407.004 318.251L404.652 323.375L405.561 323.793ZM407.9 318.694C407.909 318.677 407.916 318.671 407.918 318.67C407.919 318.668 407.925 318.663 407.941 318.658L407.624 317.71C407.356 317.799 407.148 317.978 407.017 318.226L407.9 318.694ZM407.933 318.661C407.958 318.653 407.98 318.651 408.024 318.672L408.452 317.768C408.193 317.645 407.911 317.619 407.632 317.707L407.933 318.661ZM408.035 318.677C408.046 318.682 408.052 318.685 408.055 318.688C408.058 318.69 408.059 318.69 408.058 318.689C408.057 318.688 408.056 318.687 408.055 318.685C408.054 318.684 408.054 318.684 408.055 318.686L408.998 318.354C408.9 318.075 408.698 317.877 408.442 317.763L408.035 318.677ZM408.055 318.686C408.057 318.691 408.057 318.694 408.057 318.695C408.057 318.695 408.057 318.695 408.057 318.695C408.057 318.694 408.057 318.695 408.057 318.698C408.056 318.701 408.054 318.707 408.05 318.715L408.955 319.141C409.072 318.891 409.092 318.619 408.998 318.354L408.055 318.686ZM408.051 318.714L405.507 324.078L406.41 324.506L408.954 319.142L408.051 318.714ZM405.503 324.085C405.47 324.159 405.443 324.18 405.439 324.183C405.437 324.184 405.436 324.184 405.434 324.185C405.432 324.186 405.424 324.188 405.406 324.188V325.188C405.625 325.188 405.837 325.128 406.022 324.995C406.202 324.866 406.327 324.689 406.414 324.499L405.503 324.085ZM410.786 324.328L410.535 324.76L410.54 324.763L410.786 324.328ZM409.61 323.152L409.173 323.395L409.178 323.403L409.61 323.152ZM409.61 319.696L409.176 319.448L409.175 319.45L409.61 319.696ZM410.786 318.52L411.032 318.955L411.037 318.952L410.786 318.52ZM414.206 318.52L413.955 318.952L413.96 318.955L414.206 318.52ZM415.37 319.696L414.933 319.939L414.938 319.947L415.37 319.696ZM415.382 323.152L415.818 323.398L415.819 323.395L415.382 323.152ZM414.218 324.328L414.464 324.763L414.469 324.76L414.218 324.328ZM413.606 323.38L413.349 322.951L413.349 322.951L413.606 323.38ZM414.35 322.588L413.912 322.348L413.907 322.356L414.35 322.588ZM414.35 320.26L413.905 320.488L413.912 320.5L414.35 320.26ZM413.606 319.456L413.349 319.885L413.349 319.885L413.606 319.456ZM411.398 319.456L411.656 319.885L411.656 319.885L411.398 319.456ZM410.642 320.26L411.081 320.5L411.083 320.496L410.642 320.26ZM410.642 322.588L411.081 322.348L411.081 322.348L410.642 322.588ZM411.398 323.38L411.141 323.809L411.141 323.809L411.398 323.38ZM412.502 324.248C411.928 324.248 411.443 324.125 411.032 323.893L410.54 324.763C411.121 325.091 411.78 325.248 412.502 325.248V324.248ZM411.037 323.896C410.617 323.651 410.287 323.322 410.043 322.901L409.178 323.403C409.51 323.974 409.964 324.429 410.535 324.76L411.037 323.896ZM410.047 322.909C409.814 322.488 409.69 321.998 409.69 321.424H408.69C408.69 322.146 408.847 322.808 409.173 323.395L410.047 322.909ZM409.69 321.424C409.69 320.841 409.814 320.352 410.046 319.942L409.175 319.45C408.846 320.032 408.69 320.695 408.69 321.424H409.69ZM410.044 319.944C410.289 319.517 410.616 319.19 411.032 318.955L410.54 318.085C409.964 318.41 409.508 318.867 409.176 319.448L410.044 319.944ZM411.037 318.952C411.448 318.714 411.931 318.588 412.502 318.588V317.588C411.778 317.588 411.117 317.75 410.535 318.088L411.037 318.952ZM412.502 318.588C413.065 318.588 413.544 318.714 413.955 318.952L414.457 318.088C413.877 317.75 413.22 317.588 412.502 317.588V318.588ZM413.96 318.955C414.375 319.189 414.697 319.514 414.933 319.939L415.807 319.453C415.483 318.87 415.029 318.41 414.452 318.085L413.96 318.955ZM414.938 319.947C415.176 320.356 415.302 320.843 415.302 321.424H416.302C416.302 320.693 416.141 320.028 415.803 319.445L414.938 319.947ZM415.302 321.424C415.302 321.998 415.179 322.488 414.945 322.909L415.819 323.395C416.146 322.808 416.302 322.146 416.302 321.424H415.302ZM414.947 322.906C414.711 323.324 414.387 323.652 413.967 323.896L414.469 324.76C415.042 324.428 415.494 323.972 415.818 323.398L414.947 322.906ZM413.972 323.893C413.561 324.125 413.076 324.248 412.502 324.248V325.248C413.224 325.248 413.883 325.091 414.464 324.763L413.972 323.893ZM412.502 324.168C412.998 324.168 413.457 324.053 413.864 323.809L413.349 322.951C413.115 323.091 412.838 323.168 412.502 323.168V324.168ZM413.864 323.809C414.264 323.569 414.575 323.236 414.793 322.82L413.907 322.356C413.773 322.612 413.589 322.807 413.349 322.951L413.864 323.809ZM414.789 322.828C415.019 322.408 415.126 321.935 415.126 321.424H414.126C414.126 321.793 414.05 322.096 413.912 322.348L414.789 322.828ZM415.126 321.424C415.126 320.913 415.019 320.44 414.789 320.02L413.912 320.5C414.05 320.752 414.126 321.055 414.126 321.424H415.126ZM414.795 320.032C414.578 319.608 414.267 319.269 413.864 319.027L413.349 319.885C413.586 320.027 413.77 320.224 413.905 320.488L414.795 320.032ZM413.864 319.027C413.457 318.783 412.998 318.668 412.502 318.668V319.668C412.838 319.668 413.115 319.745 413.349 319.885L413.864 319.027ZM412.502 318.668C412.006 318.668 411.547 318.783 411.141 319.027L411.656 319.885C411.889 319.745 412.166 319.668 412.502 319.668V318.668ZM411.141 319.027C410.74 319.268 410.426 319.604 410.201 320.024L411.083 320.496C411.227 320.228 411.417 320.028 411.656 319.885L411.141 319.027ZM410.204 320.02C409.974 320.44 409.866 320.913 409.866 321.424H410.866C410.866 321.055 410.943 320.752 411.081 320.5L410.204 320.02ZM409.866 321.424C409.866 321.935 409.974 322.408 410.204 322.828L411.081 322.348C410.943 322.096 410.866 321.793 410.866 321.424H409.866ZM410.204 322.828C410.429 323.24 410.743 323.57 411.141 323.809L411.656 322.951C411.414 322.806 411.223 322.608 411.081 322.348L410.204 322.828ZM411.141 323.809C411.547 324.053 412.006 324.168 412.502 324.168V323.168C412.166 323.168 411.889 323.091 411.656 322.951L411.141 323.809ZM417.624 321.424L417.124 321.418V321.424H417.624ZM419.244 318.532L419.495 318.964L419.5 318.961L419.244 318.532ZM422.616 318.532L422.36 318.961L422.365 318.964L422.616 318.532ZM423.792 319.72L423.358 319.968L423.361 319.973L423.792 319.72ZM423.828 323.128L423.388 322.89L423.387 322.893L423.828 323.128ZM422.736 324.316L423 324.741L423.005 324.737L422.736 324.316ZM419.856 324.46L419.629 324.905L419.64 324.911L419.856 324.46ZM418.848 323.656L419.232 323.336L418.348 322.275V323.656H418.848ZM418.68 327.328L418.326 326.974L418.32 326.98L418.314 326.987L418.68 327.328ZM422.016 323.38L422.273 323.809L422.281 323.804L422.016 323.38ZM422.772 322.576L422.335 322.332L422.333 322.336L422.772 322.576ZM422.772 320.272L422.331 320.508L422.338 320.52L422.772 320.272ZM422.016 319.468L421.751 319.892L421.759 319.897L422.016 319.468ZM419.832 319.468L420.089 319.897L420.092 319.895L419.832 319.468ZM419.076 320.272L419.515 320.512L419.517 320.508L419.076 320.272ZM419.076 322.576L418.635 322.812L418.637 322.816L419.076 322.576ZM419.832 323.38L419.567 323.804L419.573 323.808L419.579 323.811L419.832 323.38ZM418.236 327.008C418.187 327.008 418.168 326.997 418.145 326.974L417.438 327.682C417.656 327.899 417.933 328.008 418.236 328.008V327.008ZM418.145 326.974C418.138 326.967 418.124 326.955 418.124 326.896H417.124C417.124 327.188 417.222 327.465 417.438 327.682L418.145 326.974ZM418.124 326.896V321.424H417.124V326.896H418.124ZM418.124 321.43C418.131 320.875 418.26 320.392 418.502 319.968L417.634 319.472C417.3 320.056 417.133 320.708 417.124 321.418L418.124 321.43ZM418.502 319.968C418.747 319.54 419.076 319.208 419.495 318.964L418.993 318.1C418.42 318.432 417.965 318.892 417.634 319.472L418.502 319.968ZM419.5 318.961C419.913 318.715 420.383 318.588 420.924 318.588V317.588C420.217 317.588 419.567 317.757 418.988 318.103L419.5 318.961ZM420.924 318.588C421.474 318.588 421.948 318.716 422.36 318.961L422.872 318.103C422.292 317.756 421.637 317.588 420.924 317.588V318.588ZM422.365 318.964C422.784 319.208 423.113 319.54 423.358 319.968L424.226 319.472C423.895 318.892 423.44 318.432 422.867 318.1L422.365 318.964ZM423.361 319.973C423.608 320.394 423.736 320.873 423.736 321.424H424.736C424.736 320.71 424.568 320.054 424.223 319.467L423.361 319.973ZM423.736 321.424C423.736 321.982 423.617 322.467 423.388 322.89L424.268 323.365C424.583 322.781 424.736 322.13 424.736 321.424H423.736ZM423.387 322.893C423.162 323.315 422.857 323.646 422.467 323.894L423.005 324.737C423.543 324.394 423.966 323.933 424.269 323.363L423.387 322.893ZM422.472 323.891C422.093 324.127 421.662 324.248 421.164 324.248V325.248C421.834 325.248 422.451 325.081 423 324.741L422.472 323.891ZM421.164 324.248C420.762 324.248 420.401 324.167 420.072 324.009L419.64 324.911C420.111 325.137 420.622 325.248 421.164 325.248V324.248ZM420.083 324.015C419.751 323.845 419.468 323.62 419.232 323.336L418.464 323.976C418.787 324.364 419.177 324.675 419.629 324.905L420.083 324.015ZM418.348 323.656V326.896H419.348V323.656H418.348ZM418.348 326.896C418.348 326.955 418.334 326.967 418.326 326.974L419.033 327.682C419.25 327.465 419.348 327.188 419.348 326.896H418.348ZM418.314 326.987C418.307 326.995 418.302 326.998 418.297 327C418.291 327.002 418.273 327.008 418.236 327.008V328.008C418.54 328.008 418.827 327.903 419.045 327.669L418.314 326.987ZM420.924 324.168C421.414 324.168 421.868 324.052 422.273 323.809L421.759 322.951C421.524 323.092 421.25 323.168 420.924 323.168V324.168ZM422.281 323.804C422.675 323.558 422.986 323.226 423.21 322.816L422.333 322.336C422.19 322.598 421.997 322.802 421.751 322.956L422.281 323.804ZM423.209 322.82C423.445 322.396 423.56 321.927 423.56 321.424H422.56C422.56 321.769 422.483 322.068 422.335 322.332L423.209 322.82ZM423.56 321.424C423.56 320.915 423.446 320.444 423.206 320.024L422.338 320.52C422.482 320.772 422.56 321.069 422.56 321.424H423.56ZM423.213 320.036C422.988 319.616 422.674 319.28 422.273 319.039L421.759 319.897C421.998 320.04 422.188 320.24 422.331 320.508L423.213 320.036ZM422.281 319.044C421.875 318.79 421.418 318.668 420.924 318.668V319.668C421.246 319.668 421.517 319.746 421.751 319.892L422.281 319.044ZM420.924 318.668C420.436 318.668 419.981 318.791 419.572 319.041L420.092 319.895C420.339 319.745 420.612 319.668 420.924 319.668V318.668ZM419.575 319.039C419.174 319.28 418.86 319.616 418.635 320.036L419.517 320.508C419.66 320.24 419.85 320.04 420.089 319.897L419.575 319.039ZM418.637 320.032C418.408 320.45 418.3 320.919 418.3 321.424H419.3C419.3 321.065 419.376 320.765 419.514 320.512L418.637 320.032ZM418.3 321.424C418.3 321.923 418.409 322.389 418.635 322.812L419.517 322.34C419.375 322.075 419.3 321.773 419.3 321.424H418.3ZM418.637 322.816C418.862 323.226 419.173 323.558 419.567 323.804L420.097 322.956C419.851 322.802 419.658 322.598 419.514 322.336L418.637 322.816ZM419.579 323.811C419.988 324.051 420.44 324.168 420.924 324.168V323.168C420.608 323.168 420.332 323.093 420.085 322.948L419.579 323.811ZM426.889 324.496L426.715 324.965L426.724 324.968L426.889 324.496ZM425.785 323.836L425.421 324.178L425.426 324.184L425.432 324.19L425.785 323.836ZM425.629 323.404L425.134 323.333L425.133 323.344L425.132 323.354L425.629 323.404ZM425.869 322.996L426.173 323.393L426.182 323.386L425.869 322.996ZM426.337 322.84L426.259 323.334L426.274 323.336L426.288 323.337L426.337 322.84ZM426.745 323.044L427.118 322.71L427.111 322.703L426.745 323.044ZM427.393 323.476L427.185 323.93L427.192 323.934L427.199 323.937L427.393 323.476ZM429.457 323.44L429.196 323.014L429.19 323.018L429.457 323.44ZM429.841 322.852L430.341 322.869L430.341 322.869L429.841 322.852ZM429.493 322.228L429.191 322.626L429.198 322.631L429.493 322.228ZM428.209 321.796L428.112 322.287L428.121 322.288L428.209 321.796ZM426.445 321.076L426.113 321.45L426.117 321.453L426.445 321.076ZM426.265 318.892L426.635 319.228L426.64 319.223L426.265 318.892ZM427.189 318.292L427.351 318.765L427.36 318.762L427.189 318.292ZM429.769 318.34L429.96 317.878L429.96 317.878L429.769 318.34ZM430.741 319.036L430.353 319.351L430.359 319.358L430.365 319.365L430.741 319.036ZM430.897 319.444L431.397 319.473L431.397 319.472L430.897 319.444ZM430.693 319.792L430.977 320.204L430.985 320.198L430.993 320.192L430.693 319.792ZM430.237 319.876L430.148 320.368L430.148 320.368L430.237 319.876ZM429.793 319.66L429.447 320.021L429.452 320.025L429.793 319.66ZM429.145 319.264L428.997 319.741L428.997 319.741L429.145 319.264ZM427.441 319.336L427.224 318.886L427.218 318.889L427.441 319.336ZM427.189 320.26L426.761 320.517L426.771 320.534L426.783 320.551L427.189 320.26ZM427.645 320.572L427.448 321.032L427.456 321.035L427.463 321.037L427.645 320.572ZM428.629 320.836L428.53 321.326L428.531 321.326L428.629 320.836ZM430.045 321.292L429.81 321.733L429.814 321.735L430.045 321.292ZM430.801 321.94L430.375 322.201L430.379 322.207L430.801 321.94ZM430.729 323.776L430.315 323.496L430.31 323.504L430.729 323.776ZM429.865 324.484L429.657 324.029L429.653 324.031L429.865 324.484ZM428.449 324.248C427.94 324.248 427.476 324.172 427.055 324.024L426.724 324.968C427.262 325.156 427.839 325.248 428.449 325.248V324.248ZM427.064 324.027C426.637 323.868 426.338 323.681 426.139 323.482L425.432 324.19C425.761 324.519 426.198 324.772 426.715 324.964L427.064 324.027ZM426.15 323.494C426.14 323.483 426.134 323.475 426.131 323.47C426.128 323.465 426.127 323.462 426.127 323.462C426.127 323.462 426.127 323.462 426.127 323.462C426.127 323.462 426.126 323.459 426.127 323.454L425.132 323.354C425.1 323.672 425.212 323.955 425.421 324.178L426.15 323.494ZM426.124 323.475C426.13 323.438 426.14 323.418 426.173 323.393L425.566 322.599C425.327 322.782 425.177 323.034 425.134 323.333L426.124 323.475ZM426.182 323.386C426.227 323.351 426.254 323.339 426.265 323.335C426.272 323.333 426.268 323.335 426.259 323.334L426.415 322.346C426.083 322.294 425.789 322.42 425.557 322.606L426.182 323.386ZM426.288 323.337C426.324 323.341 426.349 323.352 426.38 323.385L427.111 322.703C426.918 322.496 426.671 322.371 426.387 322.342L426.288 323.337ZM426.373 323.377C426.574 323.602 426.859 323.781 427.185 323.93L427.602 323.022C427.336 322.899 427.189 322.79 427.118 322.711L426.373 323.377ZM427.199 323.937C427.572 324.093 427.975 324.168 428.401 324.168V323.168C428.092 323.168 427.823 323.114 427.587 323.015L427.199 323.937ZM428.401 324.168C428.906 324.168 429.369 324.088 429.725 323.862L429.19 323.018C429.066 323.096 428.825 323.168 428.401 323.168V324.168ZM429.719 323.866C430.075 323.648 430.326 323.314 430.341 322.869L429.342 322.835C429.341 322.87 429.336 322.928 429.196 323.014L429.719 323.866ZM430.341 322.869C430.356 322.423 430.126 322.072 429.789 321.825L429.198 322.631C429.341 322.736 429.343 322.801 429.342 322.835L430.341 322.869ZM429.796 321.83C429.461 321.576 428.929 321.417 428.298 321.304L428.121 322.288C428.738 322.399 429.062 322.528 429.191 322.626L429.796 321.83ZM428.307 321.305C427.532 321.152 427.045 320.935 426.774 320.699L426.117 321.453C426.582 321.857 427.271 322.12 428.112 322.286L428.307 321.305ZM426.778 320.702C426.52 320.473 426.405 320.215 426.405 319.9H425.405C425.405 320.513 425.651 321.039 426.113 321.45L426.778 320.702ZM426.405 319.9C426.405 319.597 426.491 319.387 426.635 319.228L425.895 318.556C425.56 318.925 425.405 319.387 425.405 319.9H426.405ZM426.64 319.223C426.817 319.022 427.049 318.868 427.351 318.765L427.028 317.819C426.578 317.972 426.194 318.218 425.891 318.561L426.64 319.223ZM427.36 318.762C427.68 318.646 428.014 318.588 428.365 318.588V317.588C427.901 317.588 427.451 317.666 427.019 317.822L427.36 318.762ZM428.365 318.588C428.841 318.588 429.242 318.664 429.579 318.802L429.96 317.878C429.481 317.68 428.946 317.588 428.365 317.588V318.588ZM429.579 318.802C429.922 318.944 430.173 319.129 430.353 319.351L431.13 318.721C430.829 318.351 430.433 318.072 429.96 317.878L429.579 318.802ZM430.365 319.365C430.389 319.392 430.396 319.408 430.397 319.413C430.399 319.415 430.398 319.415 430.398 319.416L431.397 319.472C431.413 319.174 431.299 318.914 431.118 318.707L430.365 319.365ZM430.398 319.415C430.399 319.411 430.399 319.405 430.401 319.398C430.404 319.391 430.407 319.385 430.409 319.38C430.414 319.371 430.414 319.376 430.393 319.392L430.993 320.192C431.216 320.025 431.378 319.782 431.397 319.473L430.398 319.415ZM430.41 319.38C430.404 319.384 430.399 319.386 430.393 319.387C430.385 319.389 430.365 319.391 430.327 319.384L430.148 320.368C430.433 320.42 430.723 320.378 430.977 320.204L430.41 319.38ZM430.327 319.384C430.236 319.368 430.178 319.335 430.135 319.294L429.452 320.025C429.649 320.209 429.887 320.32 430.148 320.368L430.327 319.384ZM430.14 319.299C429.892 319.061 429.61 318.885 429.294 318.786L428.997 319.741C429.145 319.787 429.295 319.875 429.447 320.021L430.14 319.299ZM429.294 318.786C429.003 318.696 428.684 318.656 428.341 318.656V319.656C428.607 319.656 428.824 319.688 428.997 319.741L429.294 318.786ZM428.341 318.656C427.934 318.656 427.556 318.725 427.224 318.886L427.659 319.786C427.823 319.707 428.045 319.656 428.341 319.656V318.656ZM427.218 318.889C427.041 318.977 426.877 319.102 426.758 319.276C426.637 319.455 426.581 319.657 426.581 319.864H427.581C427.581 319.849 427.583 319.843 427.584 319.842C427.584 319.841 427.584 319.841 427.585 319.84C427.586 319.838 427.602 319.815 427.665 319.783L427.218 318.889ZM426.581 319.864C426.581 320.096 426.641 320.317 426.761 320.517L427.618 320.003C427.594 319.963 427.581 319.92 427.581 319.864H426.581ZM426.783 320.551C426.943 320.775 427.197 320.924 427.448 321.032L427.842 320.112C427.751 320.073 427.688 320.038 427.646 320.009C427.603 319.98 427.593 319.965 427.596 319.969L426.783 320.551ZM427.463 321.037C427.727 321.141 428.089 321.236 428.53 321.326L428.729 320.346C428.306 320.26 428.012 320.179 427.828 320.107L427.463 321.037ZM428.531 321.326C429.107 321.441 429.526 321.581 429.81 321.733L430.281 320.851C429.877 320.635 429.352 320.47 428.728 320.346L428.531 321.326ZM429.814 321.735C430.114 321.892 430.285 322.054 430.375 322.201L431.228 321.679C431.014 321.33 430.681 321.06 430.277 320.849L429.814 321.735ZM430.379 322.207C430.474 322.358 430.529 322.542 430.529 322.78H431.529C431.529 322.378 431.433 322.002 431.224 321.672L430.379 322.207ZM430.529 322.78C430.529 323.051 430.458 323.285 430.315 323.496L431.144 324.056C431.401 323.675 431.529 323.245 431.529 322.78H430.529ZM430.31 323.504C430.179 323.706 429.972 323.885 429.657 324.029L430.074 324.938C430.527 324.731 430.896 324.438 431.149 324.048L430.31 323.504ZM429.653 324.031C429.364 324.167 428.97 324.248 428.449 324.248V325.248C429.065 325.248 429.615 325.153 430.077 324.937L429.653 324.031ZM432.337 324.652L431.975 324.997L431.983 325.006L431.992 325.014L432.337 324.652ZM432.337 323.476L431.984 323.122L431.984 323.122L432.337 323.476ZM433.513 323.476L433.151 323.821L433.16 323.83L433.513 323.476ZM433.513 324.652L433.867 325.006L433.875 324.997L433.513 324.652ZM432.925 324.392C432.834 324.392 432.761 324.365 432.682 324.29L431.992 325.014C432.25 325.259 432.568 325.392 432.925 325.392V324.392ZM432.699 324.307C432.624 324.228 432.597 324.155 432.597 324.064H431.597C431.597 324.421 431.73 324.739 431.975 324.997L432.699 324.307ZM432.597 324.064C432.597 323.961 432.627 323.893 432.691 323.83L431.984 323.122C431.727 323.379 431.597 323.703 431.597 324.064H432.597ZM432.691 323.83C432.771 323.749 432.842 323.724 432.925 323.724V322.724C432.56 322.724 432.239 322.867 431.984 323.122L432.691 323.83ZM432.925 323.724C433.02 323.724 433.085 323.752 433.151 323.821L433.875 323.131C433.621 322.864 433.294 322.724 432.925 322.724V323.724ZM433.16 323.83C433.223 323.893 433.253 323.961 433.253 324.064H434.253C434.253 323.703 434.123 323.379 433.867 323.122L433.16 323.83ZM433.253 324.064C433.253 324.155 433.226 324.228 433.151 324.307L433.875 324.997C434.12 324.739 434.253 324.421 434.253 324.064H433.253ZM433.16 324.298C433.096 324.362 433.028 324.392 432.925 324.392V325.392C433.286 325.392 433.61 325.262 433.867 325.006L433.16 324.298ZM435.724 324.532L435.359 324.873L435.371 324.886L435.383 324.897L435.724 324.532ZM435.724 318.304L435.383 317.938L435.377 317.944L435.371 317.95L435.724 318.304ZM436.612 324.532L436.966 324.886L436.972 324.879L436.978 324.873L436.612 324.532ZM435.604 316.84L435.242 317.184L435.251 317.194L435.26 317.202L435.604 316.84ZM435.604 315.724L435.251 315.37L435.251 315.37L435.604 315.724ZM436.72 315.724L436.358 316.068L436.367 316.078L436.376 316.086L436.72 315.724ZM436.72 316.84L437.074 317.194L437.074 317.194L436.72 316.84ZM436.168 324.2C436.109 324.2 436.086 324.185 436.066 324.166L435.383 324.897C435.603 325.102 435.876 325.2 436.168 325.2V324.2ZM436.09 324.191C436.071 324.17 436.056 324.147 436.056 324.088H435.056C435.056 324.381 435.154 324.653 435.359 324.873L436.09 324.191ZM436.056 324.088V318.748H435.056V324.088H436.056ZM436.056 318.748C436.056 318.673 436.075 318.661 436.078 318.658L435.371 317.95C435.15 318.171 435.056 318.455 435.056 318.748H436.056ZM436.066 318.669C436.086 318.65 436.109 318.636 436.168 318.636V317.636C435.876 317.636 435.603 317.733 435.383 317.938L436.066 318.669ZM436.168 318.636C436.243 318.636 436.256 318.654 436.259 318.658L436.966 317.95C436.745 317.729 436.462 317.636 436.168 317.636V318.636ZM436.259 318.658C436.262 318.661 436.28 318.673 436.28 318.748H437.28C437.28 318.455 437.187 318.171 436.966 317.95L436.259 318.658ZM436.28 318.748V324.088H437.28V318.748H436.28ZM436.28 324.088C436.28 324.147 436.266 324.17 436.247 324.191L436.978 324.873C437.183 324.653 437.28 324.381 437.28 324.088H436.28ZM436.259 324.178C436.256 324.181 436.243 324.2 436.168 324.2V325.2C436.462 325.2 436.745 325.106 436.966 324.886L436.259 324.178ZM436.168 316.568C436.084 316.568 436.018 316.543 435.949 316.477L435.26 317.202C435.511 317.441 435.821 317.568 436.168 317.568V316.568ZM435.967 316.496C435.901 316.426 435.876 316.361 435.876 316.276H434.876C434.876 316.623 435.004 316.934 435.242 317.184L435.967 316.496ZM435.876 316.276C435.876 316.192 435.9 316.135 435.958 316.078L435.251 315.37C435.005 315.617 434.876 315.928 434.876 316.276H435.876ZM435.958 316.078C436.029 316.006 436.092 315.984 436.168 315.984V314.984C435.813 314.984 435.5 315.122 435.251 315.37L435.958 316.078ZM436.168 315.984C436.244 315.984 436.298 316.005 436.358 316.068L437.083 315.38C436.839 315.123 436.525 314.984 436.168 314.984V315.984ZM436.376 316.086C436.439 316.146 436.46 316.2 436.46 316.276H437.46C437.46 315.92 437.322 315.606 437.065 315.361L436.376 316.086ZM436.46 316.276C436.46 316.352 436.438 316.415 436.367 316.486L437.074 317.194C437.323 316.945 437.46 316.631 437.46 316.276H436.46ZM436.367 316.486C436.309 316.544 436.253 316.568 436.168 316.568V317.568C436.516 317.568 436.828 317.44 437.074 317.194L436.367 316.486ZM440.318 324.328L440.066 324.76L440.072 324.763L440.318 324.328ZM439.142 323.152L438.704 323.395L438.709 323.403L439.142 323.152ZM439.142 319.696L438.707 319.448L438.706 319.45L439.142 319.696ZM440.318 318.52L440.563 318.955L440.569 318.952L440.318 318.52ZM443.738 318.52L443.486 318.952L443.492 318.955L443.738 318.52ZM444.902 319.696L444.464 319.939L444.469 319.947L444.902 319.696ZM444.914 323.152L445.349 323.398L445.351 323.395L444.914 323.152ZM443.75 324.328L443.995 324.763L444.001 324.76L443.75 324.328ZM443.138 323.38L442.88 322.951L442.88 322.951L443.138 323.38ZM443.882 322.588L443.443 322.348L443.439 322.356L443.882 322.588ZM443.882 320.26L443.436 320.488L443.443 320.5L443.882 320.26ZM443.138 319.456L442.88 319.885L442.88 319.885L443.138 319.456ZM440.93 319.456L441.187 319.885L441.187 319.885L440.93 319.456ZM440.174 320.26L440.612 320.5L440.614 320.496L440.174 320.26ZM440.174 322.588L440.612 322.348L440.612 322.348L440.174 322.588ZM440.93 323.38L440.672 323.809L440.672 323.809L440.93 323.38ZM442.034 324.248C441.46 324.248 440.975 324.125 440.563 323.893L440.072 324.763C440.653 325.091 441.311 325.248 442.034 325.248V324.248ZM440.569 323.896C440.148 323.651 439.818 323.322 439.574 322.901L438.709 323.403C439.041 323.974 439.495 324.429 440.066 324.76L440.569 323.896ZM439.579 322.909C439.345 322.488 439.222 321.998 439.222 321.424H438.222C438.222 322.146 438.378 322.808 438.704 323.395L439.579 322.909ZM439.222 321.424C439.222 320.841 439.345 320.352 439.577 319.942L438.706 319.45C438.378 320.032 438.222 320.695 438.222 321.424H439.222ZM439.576 319.944C439.82 319.517 440.147 319.19 440.563 318.955L440.072 318.085C439.496 318.41 439.039 318.867 438.707 319.448L439.576 319.944ZM440.569 318.952C440.979 318.714 441.462 318.588 442.034 318.588V317.588C441.309 317.588 440.648 317.75 440.066 318.088L440.569 318.952ZM442.034 318.588C442.596 318.588 443.075 318.714 443.486 318.952L443.989 318.088C443.408 317.75 442.751 317.588 442.034 317.588V318.588ZM443.492 318.955C443.906 319.189 444.229 319.514 444.464 319.939L445.339 319.453C445.014 318.87 444.561 318.41 443.983 318.085L443.492 318.955ZM444.469 319.947C444.707 320.356 444.834 320.843 444.834 321.424H445.834C445.834 320.693 445.672 320.028 445.334 319.445L444.469 319.947ZM444.834 321.424C444.834 321.998 444.71 322.488 444.476 322.909L445.351 323.395C445.677 322.808 445.834 322.146 445.834 321.424H444.834ZM444.478 322.906C444.242 323.324 443.918 323.652 443.498 323.896L444.001 324.76C444.573 324.428 445.025 323.972 445.349 323.398L444.478 322.906ZM443.504 323.893C443.093 324.125 442.607 324.248 442.034 324.248V325.248C442.756 325.248 443.415 325.091 443.995 324.763L443.504 323.893ZM442.034 324.168C442.529 324.168 442.988 324.053 443.395 323.809L442.88 322.951C442.647 323.091 442.37 323.168 442.034 323.168V324.168ZM443.395 323.809C443.795 323.569 444.107 323.236 444.324 322.82L443.439 322.356C443.305 322.612 443.12 322.807 442.88 322.951L443.395 323.809ZM444.32 322.828C444.55 322.408 444.658 321.935 444.658 321.424H443.658C443.658 321.793 443.581 322.096 443.443 322.348L444.32 322.828ZM444.658 321.424C444.658 320.913 444.55 320.44 444.32 320.02L443.443 320.5C443.581 320.752 443.658 321.055 443.658 321.424H444.658ZM444.327 320.032C444.11 319.608 443.798 319.269 443.395 319.027L442.88 319.885C443.117 320.027 443.301 320.224 443.436 320.488L444.327 320.032ZM443.395 319.027C442.988 318.783 442.529 318.668 442.034 318.668V319.668C442.37 319.668 442.647 319.745 442.88 319.885L443.395 319.027ZM442.034 318.668C441.538 318.668 441.079 318.783 440.672 319.027L441.187 319.885C441.42 319.745 441.697 319.668 442.034 319.668V318.668ZM440.672 319.027C440.271 319.268 439.957 319.604 439.733 320.024L440.614 320.496C440.758 320.228 440.948 320.028 441.187 319.885L440.672 319.027ZM439.735 320.02C439.505 320.44 439.398 320.913 439.398 321.424H440.398C440.398 321.055 440.474 320.752 440.612 320.5L439.735 320.02ZM439.398 321.424C439.398 321.935 439.505 322.408 439.735 322.828L440.612 322.348C440.474 322.096 440.398 321.793 440.398 321.424H439.398ZM439.735 322.828C439.96 323.24 440.274 323.57 440.672 323.809L441.187 322.951C440.945 322.806 440.755 322.608 440.612 322.348L439.735 322.828ZM440.672 323.809C441.079 324.053 441.538 324.168 442.034 324.168V323.168C441.697 323.168 441.42 323.091 441.187 322.951L440.672 323.809Z" fill="white"/>
</g>
<defs>
<clipPath id="clip0_1_191">
<rect width="1658.21" height="489.88" fill="white"/>
</clipPath>
</defs>
</svg>
