<svg width="473" height="156" viewBox="0 0 473 156" fill="none" xmlns="http://www.w3.org/2000/svg">
<g clip-path="url(#clip0_1_226)">
<path d="M448.4 143.71H0V155.81H448.4V143.71Z" fill="#FEFEFF"/>
<path d="M98.72 104.42C94.3927 104.414 90.1643 103.126 86.5689 100.718C82.9735 98.3096 80.1724 94.89 78.5196 90.8908C76.8668 86.8916 76.4365 82.4922 77.2829 78.2485C78.1293 74.0047 80.2145 70.1071 83.275 67.0479C86.3356 63.9887 90.2342 61.9053 94.4783 61.0609C98.7224 60.2164 103.122 60.6488 107.12 62.3034C111.119 63.958 114.537 66.7606 116.943 70.3571C119.35 73.9536 120.636 78.1827 120.64 82.51C120.645 85.3896 120.082 88.2419 118.982 90.9032C117.882 93.5644 116.268 95.9823 114.231 98.018C112.194 100.054 109.776 101.667 107.114 102.766C104.452 103.864 101.6 104.427 98.72 104.42ZM99.11 37C73.11 37 52.61 57.15 52.61 82.92C52.61 107.92 71.9 128.25 95.55 128.25C103.61 128.25 108.55 126.61 115.35 121.7L121.16 117.53V125.83H144.86V84.78C144.86 57.08 125.64 37 99.1301 37" fill="#FEFEFF"/>
<path d="M202.67 104.42C198.341 104.424 194.107 103.144 190.505 100.742C186.903 98.3398 184.094 94.9237 182.434 90.9253C180.774 86.9269 180.336 82.526 181.177 78.279C182.018 74.0319 184.099 70.1296 187.157 67.0654C190.216 64.0013 194.114 61.9129 198.36 61.0644C202.605 60.2159 207.007 60.6453 211.008 62.2985C215.01 63.9516 218.431 66.7542 220.84 70.3518C223.248 73.9494 224.536 78.1804 224.54 82.5099C224.543 88.3146 222.241 93.883 218.14 97.9914C214.039 102.1 208.475 104.412 202.67 104.42ZM205.67 36.9999C198.67 36.9999 192.67 38.8399 186.03 42.9499L180.16 46.7299V1.35986H156.59V79.9199C156.59 107.92 175.81 128.25 202.32 128.25C228.32 128.25 248.8 108 248.8 82.1399C248.8 57.6599 229.02 36.9999 205.68 36.9999" fill="#FEFEFF"/>
<path d="M304.76 104.42C300.432 104.416 296.203 103.129 292.606 100.722C289.009 98.3156 286.207 94.8966 284.552 90.8976C282.898 86.8985 282.466 82.4988 283.312 78.2544C284.157 74.0101 286.241 70.1115 289.301 67.0513C292.362 63.9911 296.26 61.9067 300.505 61.0614C304.749 60.2162 309.149 60.648 313.148 62.3023C317.147 63.9566 320.566 66.7592 322.973 70.356C325.379 73.9527 326.666 78.1821 326.67 82.5099C326.671 85.3875 326.106 88.2372 325.005 90.896C323.904 93.5548 322.29 95.9707 320.256 98.0055C318.221 100.04 315.805 101.654 313.146 102.755C310.487 103.855 307.638 104.421 304.76 104.42ZM307.76 36.9999C300.76 36.9999 294.71 38.8399 288.15 42.9499L282.16 46.7299V1.35986H258.66V79.9199C258.66 107.92 277.87 128.25 304.4 128.25C330.4 128.25 350.85 108 350.85 82.1399C350.85 57.6599 331.13 36.9999 307.77 36.9999" fill="#FEFEFF"/>
<path d="M386.55 39.4302H362.27V125.83H386.55V39.4302Z" fill="#FEFEFF"/>
<path d="M447.83 60.3399V39.7299H424.16V1.35986H400.66V92.0399C400.66 106.59 403.36 113.81 411.15 119.71C417.88 124.57 423.37 125.83 437.99 125.83H447.87V105.11H440.55C427.84 105.11 424.16 101.6 424.16 89.6199V60.3399H447.83Z" fill="#FEFEFF"/>
<path d="M46.2901 37C19.8001 37 0.570068 57.08 0.570068 84.78V125.83H24.2601V87.56C24.2601 70.56 32.5401 60.34 46.4901 60.34C46.7494 60.3146 47.0107 60.3146 47.2701 60.34C47.4785 60.3754 47.6889 60.3988 47.9001 60.41V37.05H47.3701C47.0104 37.0273 46.6497 37.0273 46.2901 37.05" fill="#FEFEFF"/>
<path d="M462.16 12.3998C462.595 12.2977 463.02 12.1572 463.43 11.9798C463.835 11.7934 464.212 11.551 464.55 11.2598C464.856 10.9485 465.1 10.582 465.27 10.1798C465.464 9.70784 465.556 9.20002 465.54 8.68985C465.573 8.19626 465.501 7.70131 465.328 7.23764C465.156 6.77396 464.887 6.35209 464.54 5.99984C463.595 5.329 462.446 5.00733 461.29 5.08984H456.29V18.2598H457.72V12.3398H460.58L464.33 18.2398H465.99C465.99 18.2398 462.74 13.2498 462.16 12.3998ZM457.7 6.39984H461.3C461.672 6.39495 462.044 6.42508 462.41 6.48983C462.742 6.54386 463.057 6.67392 463.33 6.86984C463.584 7.03274 463.772 7.28091 463.86 7.56984C464.066 7.92089 464.17 8.32274 464.16 8.72984C464.187 9.13599 464.089 9.54068 463.88 9.88984C463.728 10.1835 463.509 10.437 463.24 10.6298C462.903 10.8157 462.538 10.9473 462.16 11.0198C461.703 11.1104 461.236 11.1473 460.77 11.1298H457.77L457.7 6.39984Z" fill="#FEFEFF"/>
<path d="M471.64 8.51985C471.383 7.53471 471 6.58689 470.5 5.69986C470.007 4.84377 469.398 4.05973 468.69 3.36986C467.998 2.65328 467.207 2.0403 466.34 1.54986C463.564 -0.00214827 460.291 -0.407667 457.22 0.419859C456.235 0.672477 455.287 1.05234 454.4 1.54986C453.542 2.05739 452.749 2.66864 452.04 3.36986C451.338 4.06235 450.733 4.84604 450.24 5.69986C449.746 6.58964 449.363 7.53673 449.1 8.51985C448.553 10.5876 448.553 12.7621 449.1 14.8299C449.36 15.8078 449.743 16.7487 450.24 17.6299C450.738 18.4862 451.343 19.2758 452.04 19.9799C452.741 20.6899 453.535 21.3021 454.4 21.7999C455.296 22.2812 456.241 22.6634 457.22 22.9399C459.276 23.4997 461.444 23.4997 463.5 22.9399C464.492 22.685 465.447 22.3017 466.34 21.7999C468.061 20.7891 469.493 19.3532 470.5 17.6299C471.006 16.7531 471.39 15.811 471.64 14.8299C471.927 13.8015 472.065 12.7374 472.05 11.6699C472.061 10.6059 471.923 9.54555 471.64 8.51985ZM460.37 22.1899C459.416 22.195 458.467 22.0637 457.55 21.7999C456.682 21.567 455.853 21.2064 455.09 20.7299C454.324 20.2943 453.624 19.7523 453.01 19.1199C452.411 18.4667 451.881 17.7528 451.43 16.9899C450.985 16.1985 450.649 15.3509 450.43 14.4699C450.17 13.5597 450.046 12.6163 450.06 11.6699C450.045 10.7365 450.169 9.80619 450.43 8.90985C450.648 8.0318 450.985 7.18743 451.43 6.39986C451.874 5.63198 452.404 4.91734 453.01 4.26985C454.26 2.98249 455.825 2.04476 457.55 1.54986C458.47 1.30502 459.418 1.18063 460.37 1.17985C461.322 1.18317 462.27 1.30751 463.19 1.54986C464.924 2.03808 466.497 2.97653 467.75 4.26985C468.375 4.90647 468.913 5.62264 469.35 6.39986C469.773 7.19816 470.108 8.03969 470.35 8.90985C470.59 9.80965 470.701 10.7389 470.68 11.6699C470.699 12.6139 470.587 13.556 470.35 14.4699C470.104 15.342 469.769 16.1865 469.35 16.9899C468.915 17.7687 468.377 18.4852 467.75 19.1199C467.12 19.7338 466.422 20.274 465.67 20.7299C464.891 21.1877 464.058 21.5471 463.19 21.7999C462.272 22.0581 461.323 22.1894 460.37 22.1899Z" fill="#FEFEFF"/>
</g>
<defs>
<clipPath id="clip0_1_226">
<rect width="473" height="156" fill="white"/>
</clipPath>
</defs>
</svg>
