<svg width="109" height="30" viewBox="0 0 109 30" fill="none" xmlns="http://www.w3.org/2000/svg">
<g clip-path="url(#clip0_1_236)">
<path d="M29.2 14.9001V19.0001H27.2V8.80005H31C32.2 8.80005 33.1 9.10005 33.7 9.60005C34.4 10.1001 34.7 10.9001 34.7 11.8001C34.7 12.3001 34.6 12.8001 34.3 13.2001C34 13.6001 33.6 13.9001 33.1 14.1001C33.7 14.3001 34.1 14.6001 34.4 15.0001C34.7 15.4001 34.8 15.9001 34.8 16.5001V17.2001C34.8 17.5001 34.8 17.8001 34.9 18.1001C35 18.4001 35.1 18.6001 35.3 18.8001V18.9001H33.2C33 18.8001 32.9 18.5001 32.8 18.2001C32.7 17.9001 32.7 17.5001 32.7 17.2001V16.5001C32.7 16.0001 32.6 15.6001 32.3 15.3001C32 15.0001 31.6 14.9001 31.1 14.9001H29.2ZM29.2 13.3001H31C31.6 13.3001 32 13.2001 32.3 12.9001C32.6 12.7001 32.7 12.3001 32.7 11.8001C32.7 11.3001 32.6 11.0001 32.3 10.7001C32 10.4001 31.6 10.3001 31.1 10.3001H29.3L29.2 13.3001Z" fill="white"/>
<path d="M40.9 18.9C40.8 18.7 40.8 18.5 40.7 18.4C40.6 18.2 40.6 18 40.6 17.8C40.4 18.2 40.1 18.5 39.8 18.7C39.5 18.9 39 19.1 38.6 19.1C37.8 19.1 37.2 18.9 36.8 18.5C36.4 18.1 36.2 17.5 36.2 16.8C36.2 16.1 36.5 15.5 37.1 15.1C37.7 14.7 38.5 14.5 39.6 14.5H40.7V13.9C40.7 13.5 40.6 13.3 40.4 13.1C40.2 12.9 39.9 12.8 39.6 12.8C39.3 12.8 39 12.9 38.8 13C38.6 13.2 38.5 13.4 38.5 13.7H36.5C36.5 13.1 36.7 12.5 37.3 12C37.9 11.5 38.7 11.3 39.6 11.3C40.5 11.3 41.2 11.5 41.8 12C42.4 12.5 42.6 13.1 42.6 14V17C42.6 17.4 42.6 17.7 42.7 18C42.8 18.3 42.8 18.6 43 18.9H40.9ZM39 17.6C39.4 17.6 39.7 17.5 40 17.3C40.3 17.1 40.5 16.9 40.6 16.7V15.6H39.5C39.1 15.6 38.7 15.7 38.5 15.9C38.3 16.1 38.2 16.4 38.2 16.7C38.2 17 38.3 17.2 38.5 17.3C38.5 17.5 38.7 17.6 39 17.6Z" fill="white"/>
<path d="M48.2 16.7999C48.2 16.5999 48.1 16.3999 47.9 16.1999C47.7 15.9999 47.3 15.8999 46.7 15.7999C45.8 15.5999 45.1 15.2999 44.7 14.9999C44.2 14.5999 44 14.1999 44 13.4999C44 12.7999 44.3 12.2999 44.8 11.7999C45.3 11.2999 46.1 11.0999 47 11.0999C48 11.0999 48.7 11.2999 49.3 11.7999C49.9 12.2999 50.1 12.7999 50.1 13.4999H48.1C48.1 13.1999 48 12.9999 47.8 12.7999C47.6 12.5999 47.3 12.4999 46.9 12.4999C46.6 12.4999 46.3 12.5999 46.1 12.6999C45.9 12.8999 45.8 13.0999 45.8 13.2999C45.8 13.4999 45.9 13.6999 46.1 13.8999C46.3 13.9999 46.7 14.1999 47.3 14.2999C48.2 14.4999 48.9 14.7999 49.4 15.0999C49.9 15.4999 50.1 15.9999 50.1 16.5999C50.1 17.2999 49.8 17.7999 49.2 18.2999C48.6 18.6999 47.8 18.8999 46.9 18.8999C45.9 18.8999 45.1 18.5999 44.5 18.0999C43.9 17.5999 43.6 16.9999 43.7 16.3999H45.6C45.6 16.7999 45.7 17.0999 46 17.2999C46.3 17.4999 46.6 17.5999 47 17.5999C47.4 17.5999 47.7 17.4999 47.9 17.3999C48.1 17.2999 48.2 17.0999 48.2 16.7999Z" fill="white"/>
<path d="M58.3 15.4C58.3 16.5 58 17.4 57.5 18.1C57 18.8 56.3 19.1 55.3 19.1C54.9 19.1 54.6 19 54.2 18.9C53.9 18.8 53.6 18.5 53.4 18.3V21.9H51.4V11.4H53.3L53.4 12.3C53.6 12 53.9 11.7 54.2 11.5C54.5 11.3 54.9 11.2 55.3 11.2C56.2 11.2 57 11.6 57.5 12.3C58 13 58.3 14 58.3 15.2V15.4ZM56.3 15.2C56.3 14.5 56.2 13.9 55.9 13.5C55.7 13.1 55.3 12.8 54.8 12.8C54.5 12.8 54.2 12.9 54 13C53.8 13.1 53.6 13.3 53.5 13.5V16.8C53.6 17 53.8 17.2 54 17.3C54.2 17.4 54.5 17.5 54.8 17.5C55.3 17.5 55.7 17.3 55.9 16.9C56.1 16.5 56.2 16 56.2 15.3L56.3 15.2Z" fill="white"/>
<path d="M66.4 15.4C66.4 16.5 66.1 17.4 65.6 18.1C65.1 18.8 64.4 19.1 63.4 19.1C63 19.1 62.6 19 62.2 18.8C61.9 18.6 61.6 18.3 61.4 18L61.3 18.9H59.6V8H61.6V12.1C61.8 11.8 62.1 11.6 62.4 11.4C62.7 11.2 63.1 11.2 63.5 11.2C64.5 11.2 65.2 11.6 65.7 12.3C66.2 13 66.5 14 66.5 15.2V15.4H66.4ZM64.4 15.2C64.4 14.5 64.3 13.9 64.1 13.4C63.9 13 63.5 12.8 63 12.8C62.7 12.8 62.4 12.9 62.2 13C62 13.1 61.8 13.3 61.7 13.6V16.8C61.8 17 62 17.2 62.2 17.3C62.4 17.4 62.7 17.5 63 17.5C63.5 17.5 63.9 17.3 64.1 16.9C64.3 16.5 64.4 16 64.4 15.3V15.2Z" fill="white"/>
<path d="M71 19.1C69.9 19.1 69 18.8 68.4 18.1C67.7 17.4 67.4 16.5 67.4 15.4V15.1C67.4 14 67.7 13.1 68.3 12.3C68.9 11.6 69.7 11.2 70.8 11.2C71.8 11.2 72.6 11.5 73.2 12.1C73.8 12.7 74 13.5 74 14.6V15.7H69.5C69.5 16.2 69.7 16.6 70 16.9C70.3 17.2 70.7 17.4 71.2 17.4C71.7 17.4 72 17.4 72.3 17.3C72.6 17.2 72.9 17.1 73.3 16.9L73.9 18.2C73.6 18.5 73.2 18.7 72.7 18.8C72.2 19 71.6 19.1 71 19.1ZM70.8 12.8C70.4 12.8 70.1 12.9 69.9 13.2C69.7 13.5 69.5 13.9 69.5 14.3H72V14.1C72 13.7 71.9 13.3 71.7 13.1C71.6 12.9 71.3 12.8 70.8 12.8Z" fill="white"/>
<path d="M79.2 13.1H78.5C78.2 13.1 77.9 13.2 77.8 13.3C77.6 13.4 77.5 13.6 77.4 13.8V18.9H75.4V11.3H77.3L77.4 12.4C77.6 12 77.8 11.7 78.1 11.5C78.4 11.3 78.7 11.2 79.1 11.2C79.2 11.2 79.3 11.2 79.4 11.2C79.5 11.2 79.6 11.2 79.7 11.3L79.2 13.1Z" fill="white"/>
<path d="M84.3 13.1H83.6C83.3 13.1 83 13.2 82.9 13.3C82.7 13.4 82.6 13.6 82.5 13.8V18.9H80.5V11.3H82.4L82.5 12.4C82.7 12 82.9 11.7 83.2 11.5C83.5 11.3 83.8 11.2 84.2 11.2C84.3 11.2 84.4 11.2 84.5 11.2C84.6 11.2 84.7 11.2 84.8 11.3L84.3 13.1Z" fill="white"/>
<path d="M88.2 15.7999L88.3 16.1999L89.7 11.3999H91.9L88.9 19.9999C88.7 20.4999 88.4 20.9999 88 21.3999C87.6 21.7999 87.1 21.9999 86.3 21.9999C86.1 21.9999 86 21.9999 85.8 21.9999C85.7 21.9999 85.5 21.8999 85.3 21.8999L85.5 20.3999C85.6 20.3999 85.6 20.3999 85.7 20.3999C85.8 20.3999 85.8 20.3999 85.9 20.3999C86.2 20.3999 86.5 20.2999 86.7 20.1999C86.9 19.9999 87 19.7999 87.1 19.5999L87.3 18.9999L84.6 11.4999H86.8L88.2 15.7999Z" fill="white"/>
<path d="M98.6 15.2001V18.9001H96.6V8.80005H100.7C101.9 8.80005 102.8 9.10005 103.5 9.70005C104.2 10.3001 104.5 11.1001 104.5 12.1001C104.5 13.1001 104.2 13.9001 103.5 14.4001C102.8 15.0001 101.9 15.3001 100.7 15.3001H98.6V15.2001ZM98.6 13.7001H100.6C101.2 13.7001 101.6 13.5001 101.9 13.2001C102.2 12.9001 102.3 12.5001 102.3 12.0001C102.3 11.5001 102.2 11.1001 101.9 10.8001C101.6 10.5001 101.2 10.3001 100.6 10.3001H98.6V13.7001Z" fill="white"/>
<path d="M107.9 9.6H105.9V8H107.9V9.6ZM107.9 18.9H105.9V11.3H107.9V18.9Z" fill="white"/>
<path d="M22.1 13.6L21.9 13.2C21.9 10.5 20.6 9.39996 19.2 8.49996C19.6 8.39996 20.1 8.29996 20.2 7.69996C21 7.49996 21.1 7.19996 21.2 6.79996C21.4 6.69996 22.1 6.29996 22 5.59996C22.4 5.29996 22.6 4.99996 22.5 4.49996C22.9 4.09996 23 3.69996 22.8 3.39996C23.3 2.79996 23.1 2.49996 22.9 2.19996C23.3 1.49996 22.9 0.799956 21.9 0.999956C21.5 0.399956 20.6 0.499956 20.5 0.499956C20.3 0.299956 20.1 0.0999561 19.5 0.199956C19.2 -4.39584e-05 18.7 -4.39584e-05 18.2 0.199956C17.7 -0.200044 17.3 0.0999561 16.9 0.199956C16.3 -4.39584e-05 16.1 0.299956 15.8 0.399956C15.1 0.199956 14.9 0.599956 14.5 0.899956H14.1C13 1.49996 12.5 2.79996 12.3 3.49996C12.1 2.79996 11.6 1.49996 10.5 0.899956L10 0.999956C9.7 0.599956 9.5 0.299956 8.7 0.399956C8.4 0.299956 8.3 -4.39584e-05 7.6 0.299956C7.3 0.199956 7.1 -4.39561e-05 6.8 -4.39561e-05C6.6 -4.39561e-05 6.5 0.0999561 6.3 0.199956C5.8 -4.39584e-05 5.4 -4.39584e-05 5 0.299956C4.3 0.199956 4.1 0.399956 4 0.599956C3.9 0.599956 3 0.499956 2.6 1.09996C1.6 0.999956 1.3 1.69996 1.6 2.29996C1.4 2.59996 1.2 2.89996 1.7 3.49996C1.5 3.89996 1.6 4.19996 2 4.69996C1.9 5.09996 2.1 5.49996 2.5 5.69996C2.4 6.39996 3.1 6.69996 3.3 6.89996C3.3 7.29996 3.5 7.59996 4.3 7.79996C4.4 8.39996 4.9 8.49996 5.3 8.59996C3.8 9.39996 2.6 10.6 2.6 13.3L2.4 13.7C0.700001 14.7 -0.8 18 1.6 20.6C1.8 21.4 2 22 2.2 22.7C2.5 25.3 4.8 26.6 5.4 26.7C6.3 27.4 7.2 28 8.5 28.4C9.7 29.6 11 30.1 12.3 30.1C12.3 30.1 12.3 30.1 12.4 30.1C13.7 30.1 15 29.6 16.2 28.4C17.5 28 18.4 27.3 19.3 26.7C19.9 26.6 22.2 25.3 22.5 22.7C22.7 22 23 21.4 23.1 20.6C25.4 17.9 23.8 14.6 22.1 13.6ZM20.8 13.2C20.7 14.3 15 9.39996 16 9.19996C18.7 8.69996 20.9 10.3 20.8 13.2ZM18.3 18.6C16.9 19.5 14.8 18.9 13.7 17.3C12.6 15.6 12.8 13.5 14.3 12.6C15.7 11.7 17.8 12.3 18.9 13.9C20 15.6 19.8 17.7 18.3 18.6ZM14.3 1.69996C14.3 1.89996 14.4 2.09996 14.5 2.09996C14.8 1.79996 15.1 1.39996 15.5 1.09996C15.5 1.29996 15.4 1.49996 15.6 1.69996C15.8 1.39996 16.1 1.09996 16.5 0.899956C16.3 1.19996 16.5 1.29996 16.6 1.49996C16.9 1.19996 17.2 0.999956 17.7 0.799956C17.5 0.999956 17.3 1.19996 17.6 1.39996C17.9 1.19996 18.2 0.999956 19 0.899956C18.8 1.09996 18.5 1.29996 18.7 1.49996C19.1 1.39996 19.5 1.19996 20 1.19996C19.8 1.39996 19.6 1.59996 19.8 1.69996C20.2 1.59996 20.8 1.39996 21.4 1.49996L21 1.89996C21 1.89996 21.8 1.89996 22.4 1.89996C22.2 2.19996 22 2.49996 21.9 2.99996C22 3.09996 22.2 2.99996 22.5 2.99996C22.2 3.59996 21.7 3.69996 21.6 3.99996C21.8 4.09996 22 4.09996 22.3 3.99996C22.1 4.39996 21.7 4.69996 21.4 4.99996C21.3 4.89996 21.5 4.99996 21.8 4.89996C21.5 5.19996 21.1 5.49996 20.7 5.79996C20.8 5.89996 21 5.89996 21.3 5.89996C20.9 6.29996 20.4 6.49996 19.9 6.69996C20.1 6.89996 20.3 6.79996 20.5 6.79996C20.2 7.09996 19.6 7.19996 19.1 7.39996C19.2 7.59996 19.3 7.59996 19.5 7.59996C18.9 7.99996 18.1 7.79996 17.9 7.99996C18 8.19996 18.1 8.29996 18.3 8.29996C17.4 8.39996 14.9 8.29996 14.5 6.39996C15.4 5.39996 17.1 4.19996 20 2.69996C17.7 3.49996 15.7 4.49996 14 5.79996C12 4.99996 13.4 2.59996 14.3 1.69996ZM12.3 8.39996C13.7 8.39996 15.5 9.39996 15.5 10.4C15.5 11.3 14.3 12 12.3 12C10.4 12 9.1 11.1 9.2 10.3C9.2 9.59996 10.7 8.39996 12.3 8.39996ZM5.1 7.69996C5.3 7.69996 5.4 7.59996 5.5 7.49996C5 7.29996 4.4 7.09996 4.1 6.89996C4.3 6.89996 4.4 6.89996 4.7 6.79996C4.2 6.49996 3.7 6.29996 3.3 5.89996C3.5 5.89996 3.8 5.89996 3.9 5.79996C3.4 5.49996 3.1 5.19996 2.8 4.89996C3.1 4.99996 3.3 4.89996 3.3 4.89996C3 4.59996 2.6 4.29996 2.4 3.89996C2.7 3.99996 2.9 3.99996 3.1 3.89996C3 3.69996 2.5 3.49996 2.2 2.89996C2.5 2.89996 2.8 2.99996 2.8 2.89996C2.7 2.39996 2.5 2.09996 2.3 1.79996C2.9 1.79996 3.7 1.79996 3.7 1.79996L3.3 1.39996C3.9 1.29996 4.4 1.39996 4.9 1.59996C5.1 1.49996 4.9 1.29996 4.7 1.09996C5.2 1.19996 5.6 1.29996 6 1.39996C6.1 1.19996 5.8 0.999956 5.6 0.799956C6.3 0.999956 6.7 1.09996 7 1.29996C7.2 1.09996 7 0.899956 6.9 0.699956C7.4 0.999956 7.7 1.19996 8 1.49996C8.1 1.39996 8.3 1.29996 8.1 0.899956C8.5 1.09996 8.8 1.39996 9 1.69996C9.2 1.49996 9.1 1.29996 9.1 1.09996C9.5 1.39996 9.8 1.79996 10.1 2.09996C10.2 2.09996 10.2 1.99996 10.3 1.69996C11.3 2.59996 12.7 4.99996 10.7 5.89996C9 4.49996 7 3.49996 4.7 2.79996C7.6 4.29996 9.3 5.49996 10.2 6.49996C9.7 8.29996 7.2 8.39996 6.3 8.29996C6.5 8.29996 6.6 8.19996 6.7 7.99996C6.5 7.79996 5.6 7.99996 5.1 7.69996ZM8.6 9.09996C9.6 9.29996 3.9 14.2 3.8 13.1C3.7 10.2 5.9 8.69996 8.6 9.09996ZM2.5 20C1.1 18.9 0.700001 15.7 3.2 14.2C4.8 13.9 3.8 20.6 2.5 20ZM7.9 25.8C7.1 26.3 5.2 26.1 3.9 24.2C3 22.6 3.1 21 3.7 20.5C4.7 19.9 6.1 20.7 7.3 22C8.3 23.1 8.7 25.2 7.9 25.8ZM6.3 18.8C4.9 17.9 4.6 15.8 5.7 14.1C6.8 12.4 8.9 11.8 10.3 12.8C11.7 13.7 12 15.8 10.9 17.5C9.8 19.1 7.8 19.7 6.3 18.8ZM12.3 29.1C10.6 29.2 8.9 27.7 8.9 27.2C8.9 26.5 11 25.9 12.4 25.9C13.8 25.8 15.7 26.3 15.7 27C15.7 27.6 14 29.1 12.3 29.1ZM15.8 21.7C15.8 23.4 14.3 24.9 12.3 24.9C10.4 24.9 8.8 23.5 8.8 21.8C8.8 20.1 10.3 18.6 12.3 18.6C14.2 18.6 15.8 20 15.8 21.7ZM20.6 24.2C19.1 26.2 17.1 26.3 16.4 25.7C15.6 25 16.2 22.7 17.3 21.5C18.5 20.1 19.8 19.2 20.8 19.9C21.3 20.6 21.7 22.9 20.6 24.2ZM22 20C20.7 20.6 19.7 13.8 21.3 14.2C23.8 15.6 23.4 18.9 22 20Z" fill="white"/>
</g>
<defs>
<clipPath id="clip0_1_236">
<rect width="109" height="30" fill="white"/>
</clipPath>
</defs>
</svg>
