<svg xmlns="http://www.w3.org/2000/svg" fill="none" viewBox="0 0 140 57" height="57" width="140">
<path fill="white" d="M1.40075 39.6345H0.917925V35.3586H2.51819C3.482 35.3586 4.11845 35.8707 4.11845 36.7138V36.7266C4.11845 37.6483 3.34849 38.1257 2.43954 38.1257H1.40075V39.6345ZM1.40075 35.8048V37.6868H2.45783C3.16561 37.6868 3.63197 37.3082 3.63197 36.7449V36.7321C3.63197 36.1231 3.17292 35.8048 2.48161 35.8048H1.40075Z" clip-rule="evenodd" fill-rule="evenodd"></path>
<path fill="white" d="M6.17776 37.9721V39.6345H5.69493V35.3586H7.53295C8.05966 35.3586 8.4803 35.5159 8.74915 35.7847C8.95764 35.9932 9.08017 36.2913 9.08017 36.6278V36.6406C9.08017 37.3502 8.59004 37.7654 7.91884 37.8879L9.2338 39.6345H8.64124L7.40127 37.9721H6.17776ZM6.17776 35.803V37.5386H7.48906C8.13099 37.5386 8.58821 37.2076 8.58821 36.6589V36.6461C8.58821 36.1212 8.18768 35.803 7.49637 35.803H6.17776Z" clip-rule="evenodd" fill-rule="evenodd"></path>
<path fill="white" d="M13.9303 39.6345H10.8085V35.3623H13.8992V35.8012H11.2913V37.2606H13.6249V37.6996H11.2913V39.1956H13.9303V39.6345Z"></path>
<path fill="white" d="M18.5245 38.486C18.5245 39.2193 17.9136 39.6949 17.065 39.6949C16.3865 39.6949 15.8305 39.4699 15.3166 39.0127L15.6166 38.6597C16.061 39.0602 16.4889 39.2632 17.0833 39.2632C17.6576 39.2632 18.0362 38.956 18.0362 38.5354V38.5225C18.0362 38.1257 17.8203 37.8989 16.9242 37.7105C15.9403 37.4966 15.4885 37.1783 15.4885 36.476V36.4632C15.4885 35.792 16.0811 35.2964 16.8931 35.2964C17.5168 35.2964 17.963 35.4757 18.3964 35.8231L18.1166 36.1944C17.7179 35.8707 17.3229 35.7299 16.8821 35.7299C16.3262 35.7299 15.9714 36.0353 15.9714 36.4193V36.4322C15.9714 36.8345 16.1908 37.0613 17.1327 37.2625C18.0837 37.4709 18.5245 37.8184 18.5245 38.4732V38.486Z"></path>
<path fill="white" d="M20.7319 39.6345H20.2491V35.3586H20.7319V39.6345Z"></path>
<path fill="white" d="M24.1647 39.6345H22.6797V35.3586H24.1647C25.5071 35.3586 26.4362 36.2803 26.4362 37.4837V37.4966C26.4362 38.6999 25.5089 39.6345 24.1647 39.6345ZM23.1625 35.8048V39.1883H24.1647C25.2456 39.1883 25.9369 38.4567 25.9369 37.5094V37.4966C25.9369 36.5492 25.2456 35.8048 24.1647 35.8048H23.1625Z" clip-rule="evenodd" fill-rule="evenodd"></path>
<path fill="white" d="M31.2753 39.6345H28.1535V35.3623H31.2443V35.8012H28.6363V37.2606H30.9699V37.6996H28.6363V39.1956H31.2753V39.6345Z"></path>
<path fill="white" d="M33.4133 39.6345H32.9414V35.3586H33.3932L36.0871 38.7859V35.3586H36.5589V39.6345H36.1731L33.4133 36.1286V39.6345Z"></path>
<path fill="white" d="M42.1315 38.956C41.6853 39.4077 41.197 39.7077 40.4215 39.7077C39.187 39.7077 38.2763 38.7365 38.2763 37.5094V37.4966C38.2763 36.2877 39.1815 35.2854 40.4398 35.2854C41.2153 35.2854 41.6798 35.5598 42.1077 35.964L41.7767 36.3169C41.4164 35.9749 41.0122 35.7317 40.4325 35.7317C39.4851 35.7317 38.7774 36.4998 38.7774 37.4837V37.4966C38.7774 38.4878 39.4925 39.2632 40.4325 39.2632C41.0196 39.2632 41.4055 39.0365 41.8133 38.6451L42.1315 38.956Z"></path>
<path fill="white" d="M44.1963 39.6345H43.7135V35.3586H44.1963V39.6345Z"></path>
<path fill="white" d="M46.2739 39.6345H45.7801L47.7297 35.3275H48.1814L50.1292 39.6345H49.6116L49.1087 38.5043H46.7805L46.2739 39.6345ZM47.9492 35.889L46.9725 38.0708H48.9203L47.9492 35.889Z" clip-rule="evenodd" fill-rule="evenodd"></path>
<path fill="white" d="M55.6816 39.6345H54.1966V35.3586H55.6816C57.024 35.3586 57.9531 36.2803 57.9531 37.4837V37.4966C57.9531 38.6999 57.0258 39.6345 55.6816 39.6345ZM54.6794 35.8048V39.1883H55.6816C56.7625 39.1883 57.4538 38.4567 57.4538 37.5094V37.4966C57.4538 36.5492 56.7625 35.8048 55.6816 35.8048H54.6794Z" clip-rule="evenodd" fill-rule="evenodd"></path>
<path fill="white" d="M62.7923 39.6345H59.6704V35.3623H62.7612V35.8012H60.1532V37.2606H62.4868V37.6996H60.1532V39.1956H62.7923V39.6345Z"></path>
<path fill="white" d="M69.8791 39.6345H66.9895V35.3604H67.4723V39.1883H69.8791V39.6345Z"></path>
<path fill="white" d="M71.5964 39.6345H71.1026L73.0504 35.3275H73.5021L75.4499 39.6345H74.9323L74.4312 38.5043H72.103L71.5964 39.6345ZM73.2699 35.889L72.2932 38.0708H74.241L73.2699 35.889Z" clip-rule="evenodd" fill-rule="evenodd"></path>
<path fill="white" d="M5.8321 49.3586C6.10826 49.7043 6.36979 49.8012 6.56548 49.8012V49.8433C6.63497 49.8433 6.61851 50.0847 6.56548 50.1011C6.01133 50.2877 5.2432 50.2602 4.71283 49.5817L3.35398 47.8333C2.97357 47.3414 2.52367 47.2682 1.90551 47.2609V48.9709C1.90551 49.589 2.32981 49.6933 2.8931 49.7664C2.95529 49.7738 2.91322 50.0664 2.84007 50.0664H0.166259C0.094933 50.0664 0.0437248 49.7738 0.113222 49.7664C0.563124 49.7043 0.846599 49.5269 0.846599 48.9709V45.037C0.846599 44.4554 0.539349 44.2871 0.113222 44.1719C0.0437248 44.1555 0.0894464 43.8647 0.166259 43.872C0.346462 43.872 0.538722 43.8745 0.721712 43.8769C0.887867 43.8791 1.04638 43.8811 1.18128 43.8811C1.54312 43.8811 1.89205 43.8643 2.20314 43.8493C2.45339 43.8372 2.67916 43.8263 2.8675 43.8263C4.20075 43.8263 5.09141 44.3731 5.09141 45.4594C5.09141 46.4818 4.2611 46.9847 3.52041 47.0304V47.0762C3.87338 47.0762 4.12942 47.2261 4.51897 47.7108L5.8321 49.3586ZM1.90551 46.8549H2.16339C3.47651 46.8549 3.97945 46.6244 3.97945 45.7411C3.97945 44.7992 3.38141 44.331 2.59683 44.331C2.07377 44.331 1.90551 44.5414 1.90551 45.037V46.8549Z" clip-rule="evenodd" fill-rule="evenodd"></path>
<path fill="white" d="M10.1195 49.9837C9.43062 49.9793 8.68456 49.9744 8.03955 50.0389V50.0883C7.95176 50.0956 7.91701 49.7884 7.98651 49.7701C8.00231 49.766 8.01799 49.762 8.03356 49.7581C8.52445 49.6329 8.89728 49.5379 8.89728 48.905V44.9876C8.89728 44.4207 8.53517 44.2707 8.15476 44.1738C8.08527 44.1573 8.13099 43.8665 8.20049 43.8738C8.53803 43.8738 9.00256 43.8688 9.44587 43.8641C9.85044 43.8597 10.2373 43.8555 10.4939 43.8555C11.0282 43.8555 11.4652 43.8401 11.9108 43.8245C12.1348 43.8166 12.3609 43.8086 12.6026 43.8025C12.8166 43.8025 12.8166 43.9415 12.7708 44.1445L12.5605 44.9858C12.5313 45.1083 12.3118 45.1083 12.277 44.9858C12.1435 44.5523 11.8783 44.3054 10.7755 44.3054C10.1574 44.3054 9.95437 44.4627 9.95437 44.9236V46.3611C9.95437 46.5915 10.0696 46.6336 10.2452 46.6336H10.439C11.1541 46.6336 11.7723 46.5641 12.1326 46.2385C12.2222 46.1581 12.4142 46.1745 12.3374 46.3501L11.8326 47.4639C11.7631 47.6212 11.6296 47.6047 11.5327 47.4712C11.3297 47.1914 10.8798 47.0762 10.3695 47.0762H10.2452C10.0696 47.0762 9.95437 47.1182 9.95437 47.3487V48.8319C9.95437 49.3348 10.1684 49.5195 10.8981 49.5195C12.2313 49.5195 12.7617 48.9087 12.9738 48.574C13.0342 48.4789 13.2719 48.521 13.2719 48.6709C13.2719 49.1208 12.8952 50.0115 12.3392 50.0115C12.1162 50.0115 11.8954 50.0063 11.6525 50.0006C11.3556 49.9936 11.0257 49.9859 10.6183 49.9859C10.4571 49.9859 10.2901 49.9848 10.1195 49.9837Z"></path>
<path fill="white" d="M17.7216 43.8263C19.0896 43.8263 20.218 44.331 20.218 45.7137V45.7594C20.218 47.3304 18.7458 47.9924 16.7943 47.6998V48.9709C16.7943 49.589 17.2186 49.6933 17.7819 49.7664C17.8441 49.7738 17.8021 50.0664 17.7289 50.0664H15.0551C14.9838 50.0664 14.9326 49.7738 15.0021 49.7664C15.452 49.7043 15.7354 49.5269 15.7354 48.9709V45.037C15.7354 44.4554 15.4282 44.2871 15.0021 44.1719C14.9326 44.1555 14.9783 43.8647 15.0551 43.872C15.2365 43.872 15.429 43.8745 15.6119 43.8769C15.7776 43.8791 15.9354 43.8811 16.0701 43.8811C16.4269 43.8811 16.7525 43.8648 17.0479 43.8499C17.2931 43.8376 17.5175 43.8263 17.7216 43.8263ZM19.0786 45.9624C19.0786 44.9108 18.4092 44.331 17.5003 44.331C16.9425 44.331 16.7925 44.5231 16.7925 45.037V47.2682C18.294 47.4804 19.0786 47.1182 19.0786 45.9624Z" clip-rule="evenodd" fill-rule="evenodd"></path>
<path fill="white" d="M24.8359 43.1295C24.7207 43.2173 24.4098 42.9338 24.4975 42.8112L25.3041 41.6463C25.4614 41.4158 26.2021 42.0962 25.9917 42.2571L24.8359 43.1295Z"></path>
<path fill="white" d="M27.7987 47.6998C27.7987 49.3239 26.7471 50.1615 25.3443 50.1615C24.1007 50.1615 22.7053 49.5013 22.7053 47.709V44.9382C22.7053 44.3822 22.4218 44.1975 21.992 44.1427C21.9207 44.1353 21.9755 43.8446 22.045 43.8446H24.4537C24.525 43.8446 24.5762 44.1353 24.5067 44.1427C24.1537 44.1884 23.8007 44.3201 23.8007 44.9382V47.7528C23.8007 48.9873 24.5158 49.5634 25.4486 49.5634C26.4105 49.5634 27.1787 48.9892 27.1787 47.7528V44.9382C27.1787 44.3658 26.8513 44.2048 26.4215 44.1427C26.3593 44.1353 26.4014 43.8446 26.4746 43.8446H28.4589C28.5229 43.8446 28.5741 44.1353 28.5046 44.1427C28.1516 44.1884 27.7987 44.3201 27.7987 44.9382V47.6998Z"></path>
<path fill="white" d="M33.9565 46.6062V46.7049C34.7795 46.7049 35.5732 47.2956 35.5732 48.2832C35.5732 49.3769 34.5765 50.0847 33.1024 50.0847C32.914 50.0847 32.7112 50.0741 32.4863 50.0624C32.2068 50.0479 31.8932 50.0316 31.5314 50.0316C30.9754 50.0316 30.5529 50.0389 30.1451 50.0847C30.0665 50.092 30.0226 49.7847 30.0921 49.7664C30.1079 49.7624 30.1235 49.7584 30.1391 49.7544C30.63 49.6293 31.0028 49.5342 31.0028 48.9014V44.9839C31.0028 44.417 30.6407 44.267 30.2603 44.1701C30.1908 44.1536 30.2365 43.8628 30.306 43.8702C30.4982 43.8702 30.7073 43.8727 30.9036 43.8752C31.0773 43.8773 31.241 43.8793 31.3741 43.8793C31.7796 43.8793 32.1235 43.8612 32.4163 43.8458C32.6332 43.8344 32.8221 43.8244 32.9872 43.8244C34.1284 43.8244 35.0611 44.3018 35.0703 45.2729C35.0794 45.988 34.5746 46.4818 33.9565 46.6062ZM33.9766 45.5564C33.9766 44.7188 33.4115 44.331 32.6854 44.331C32.2209 44.331 32.0599 44.4883 32.0618 44.9839V46.5549H32.9689C33.6035 46.5549 33.9766 46.2367 33.9766 45.5564ZM32.0618 48.8996C32.0618 49.3842 32.3087 49.622 33.0768 49.622C33.8522 49.622 34.4338 49.3952 34.4338 48.4771C34.4338 47.506 33.79 46.9939 32.9689 46.9939H32.0618V48.8996Z" clip-rule="evenodd" fill-rule="evenodd"></path>
<path fill="white" d="M39.4326 49.9837C38.7438 49.9793 37.9977 49.9744 37.3527 50.0389V50.0133C37.2649 50.0225 37.2301 49.7152 37.2996 49.6951C37.315 49.6912 37.3302 49.6874 37.3453 49.6836C37.8352 49.5599 38.2104 49.4652 38.2104 48.8319V44.9126C38.2104 44.2945 37.8483 44.1719 37.4679 44.1189C37.3984 44.1097 37.4514 43.819 37.5136 43.819H39.9478C40.0082 43.819 40.0521 44.1097 39.9899 44.1189C39.6205 44.1646 39.2675 44.2945 39.2675 44.9126V48.8319C39.2675 49.3348 39.4815 49.5195 40.2112 49.5195C41.5445 49.5195 42.0748 48.9087 42.287 48.574C42.3473 48.4789 42.5851 48.521 42.5851 48.6709C42.5851 49.1208 42.2083 50.0115 41.6524 50.0115C41.4293 50.0115 41.2086 50.0063 40.9657 50.0006C40.6688 49.9936 40.3388 49.9859 39.9314 49.9859C39.7702 49.9859 39.6032 49.9848 39.4326 49.9837Z"></path>
<path fill="white" d="M46.6104 50.0206H44.1908C44.1213 50.0206 44.0683 49.7299 44.1378 49.7207C44.5877 49.6567 44.8712 49.483 44.8712 48.927V44.9382C44.8712 44.3822 44.5877 44.2048 44.1378 44.1427C44.0683 44.1353 44.1213 43.8446 44.1908 43.8446H46.6104C46.6817 43.8446 46.733 44.1353 46.6635 44.1427C46.2831 44.1975 45.9301 44.3201 45.9301 44.9382V48.927C45.9301 49.5433 46.2831 49.6677 46.6635 49.7207C46.733 49.7299 46.6799 50.0206 46.6104 50.0206Z"></path>
<path fill="white" d="M53.8418 49.1391C53.465 49.6933 52.2817 50.1615 52.0092 50.1615C50.526 50.1615 48.5234 49.2982 48.5216 47.0487C48.5216 45.5235 49.458 43.7056 51.9288 43.7056C52.9511 43.7056 53.8345 44.022 53.7266 44.3329L53.6132 44.6749C53.4463 45.1735 53.2714 45.0725 52.9129 44.8656C52.5915 44.6802 52.1227 44.4097 51.3801 44.4097C50.12 44.4097 49.5019 45.229 49.5019 46.5001C49.5019 48.4862 51.0089 49.3165 52.2177 49.3165C52.3787 49.3165 53.1815 49.1922 53.6388 48.9014C53.7083 48.8557 53.8948 49.0587 53.8418 49.1391Z"></path>
<path fill="white" d="M61.0365 48.777C61.3529 49.525 61.5633 49.6677 61.9162 49.7207C62.0406 49.7372 62.0059 50.0206 61.8998 50.0206H59.5716C59.4564 50.0206 59.4491 49.739 59.5442 49.7207C59.8716 49.6585 60.2245 49.5433 59.899 48.7862L59.8021 48.5667C59.7143 48.3527 59.5643 48.3363 59.2991 48.3363H57.4977C57.2325 48.3363 57.0825 48.3546 56.9947 48.5667L56.907 48.7862C56.5961 49.5433 56.9326 49.6585 57.3569 49.7207C57.4703 49.7372 57.4446 50.0206 57.3294 50.0206H55.4237C55.3195 50.0206 55.2921 49.739 55.3963 49.7207C55.7584 49.6585 55.9706 49.536 56.2961 48.7862L57.7866 45.3625C58.1323 44.5871 58.2365 44.2231 58.2365 43.8885C58.2365 43.8354 58.8547 43.6946 58.8821 43.7549L61.0365 48.777ZM57.5672 47.8425H59.2351C59.3576 47.8425 59.4893 47.8242 59.4381 47.6998L58.4048 45.229L57.3642 47.6998C57.313 47.8242 57.4446 47.8425 57.5672 47.8425Z" clip-rule="evenodd" fill-rule="evenodd"></path>
<path fill="white" d="M67.6077 49.9859C67.0627 49.9859 66.6292 49.9932 66.2214 50.0389V50.0865C66.1336 50.0938 66.0989 49.7866 66.1684 49.7683C66.1842 49.7642 66.1999 49.7602 66.2154 49.7562C66.7063 49.6311 67.0791 49.536 67.0791 48.9032V44.9858C67.0791 44.4188 66.717 44.2689 66.3366 44.1719C66.2671 44.1555 66.3128 43.8647 66.3823 43.872C66.5625 43.872 66.7449 43.8743 66.9282 43.8765C67.1134 43.8788 67.2995 43.8811 67.4851 43.8811C67.8653 43.8811 68.2242 43.8644 68.5452 43.8494C68.8049 43.8372 69.0397 43.8263 69.2409 43.8263C71.377 43.8263 72.5328 45.0973 72.5328 46.8C72.5328 48.4954 71.377 50.0389 69.2317 50.0389C69.0423 50.0389 68.8285 50.0284 68.5918 50.0167C68.2981 50.0022 67.9692 49.9859 67.6077 49.9859ZM68.1362 48.8996C68.1362 49.3751 68.4636 49.6146 69.3195 49.6146C70.7588 49.6146 71.4739 48.8374 71.4721 47.345C71.4721 45.6588 70.554 44.3365 68.9665 44.3365C68.3392 44.3365 68.1362 44.5322 68.1362 44.9821V48.8996Z" clip-rule="evenodd" fill-rule="evenodd"></path>
<path fill="white" d="M80.8341 46.8896C80.8341 48.6801 79.5721 50.1615 77.6317 50.1615C75.7955 50.1615 74.4458 48.8026 74.4458 46.9683C74.4458 45.1869 75.7169 43.7037 77.65 43.7037C79.4935 43.7037 80.8341 45.0534 80.8341 46.8896ZM75.5029 46.4745C75.5029 48.2723 76.7136 49.5634 77.9737 49.5634C78.7528 49.5634 79.7825 49.0495 79.7825 47.3834C79.7825 45.6021 78.5754 44.3036 77.3044 44.3036C76.5289 44.3036 75.5029 44.8157 75.5029 46.4745Z" clip-rule="evenodd" fill-rule="evenodd"></path>
<path fill="white" d="M89.7535 48.927C89.7882 49.5433 90.1064 49.675 90.4759 49.7207H90.474V49.825C90.5472 49.8341 90.4923 50.1249 90.432 50.1249H88.1276C88.0654 50.1249 88.0215 49.8341 88.0746 49.825C88.4458 49.7646 88.7183 49.5872 88.6927 49.0312L88.5245 46.0666L87.0943 48.9782C86.9096 49.3568 86.7687 49.7463 86.7413 49.8871C86.7371 49.8871 86.722 49.8906 86.6995 49.8957C86.6336 49.9107 86.5043 49.9402 86.3993 49.9402C86.2676 49.9402 86.178 49.8871 86.125 49.7829L84.0858 45.9185L83.9523 48.927C83.9285 49.5433 84.287 49.686 84.5704 49.7207C84.6436 49.7299 84.5887 50.0206 84.5284 50.0206H82.6995C82.6282 50.0206 82.577 49.7299 82.6465 49.7207C83.0269 49.675 83.3451 49.5415 83.3799 48.927L83.6633 43.8628C83.6706 43.7129 84.009 43.7019 84.0968 43.8628L86.6554 48.6453L89.0292 43.8628C89.1097 43.7019 89.4627 43.7129 89.47 43.8628L89.7535 48.927Z"></path>
<path fill="white" d="M94.7134 50.0206H92.2956C92.2243 50.0206 92.1731 49.7299 92.2426 49.7207C92.6943 49.6567 92.9759 49.483 92.9759 48.927V44.9382C92.9759 44.3822 92.6925 44.2048 92.2426 44.1427C92.1731 44.1353 92.2261 43.8446 92.2956 43.8446H94.7134C94.7847 43.8446 94.8359 44.1353 94.7664 44.1427C94.386 44.1975 94.033 44.3201 94.033 44.9382V48.927C94.033 49.5433 94.386 49.6677 94.7664 49.7207C94.8359 49.7299 94.7829 50.0206 94.7134 50.0206Z"></path>
<path fill="white" d="M102.592 49.9402C102.629 50.0737 102.486 50.1084 102.345 50.1084C102.195 50.1084 102.115 50.0481 102.02 49.942L97.817 45.5472V48.9014C97.817 49.5031 98.1699 49.6 98.6729 49.7225C98.7442 49.739 98.7094 50.0225 98.6198 50.0225H96.5294C96.4599 50.0225 96.4069 49.75 96.4874 49.7225C96.5103 49.7149 96.5331 49.7075 96.5558 49.7002C96.8992 49.5888 97.2098 49.4881 97.2098 48.9014V45.4777C97.2098 44.8523 97.1128 44.5523 96.8824 44.2414C96.8478 44.1937 96.8126 44.1534 96.7842 44.121C96.7495 44.0813 96.7251 44.0535 96.7251 44.0384C96.7251 43.958 96.7782 43.8464 96.9007 43.8464H97.5536C97.6432 43.8464 97.7036 43.8537 97.7657 43.9232L101.877 48.2723V44.9565C101.877 44.3581 101.51 44.2665 101.076 44.1583C101.058 44.1538 101.04 44.1492 101.021 44.1445C100.952 44.1262 100.986 43.8464 101.074 43.8464H103.165C103.236 43.8464 103.28 44.1262 103.21 44.1445C103.195 44.1488 103.181 44.1531 103.166 44.1574C102.797 44.2643 102.484 44.355 102.484 44.9565V48.3875C102.484 48.9691 102.504 49.6146 102.592 49.9402Z"></path>
<path fill="white" d="M107.446 50.0206H105.026C104.957 50.0206 104.904 49.7299 104.973 49.7207C105.423 49.6567 105.707 49.483 105.707 48.927V44.9382C105.707 44.3822 105.423 44.2048 104.973 44.1427C104.904 44.1353 104.957 43.8446 105.026 43.8446H107.446C107.517 43.8446 107.568 44.1353 107.499 44.1427C107.119 44.1975 106.766 44.3201 106.766 44.9382V48.927C106.766 49.5433 107.119 49.6677 107.499 49.7207C107.568 49.7299 107.515 50.0206 107.446 50.0206Z"></path>
<path fill="white" d="M114.677 49.1391C114.301 49.6933 113.117 50.1615 112.845 50.1615C111.362 50.1615 109.359 49.2982 109.357 47.0487C109.357 45.5235 110.294 43.7056 112.764 43.7056C113.787 43.7056 114.67 44.022 114.562 44.3329L114.449 44.6749C114.282 45.1735 114.107 45.0725 113.748 44.8656C113.427 44.6802 112.958 44.4097 112.216 44.4097C110.956 44.4097 110.337 45.229 110.337 46.5001C110.337 48.4862 111.844 49.3165 113.053 49.3165C113.214 49.3165 114.017 49.1922 114.474 48.9014C114.544 48.8557 114.73 49.0587 114.677 49.1391Z"></path>
<path fill="white" d="M121.872 48.777C122.188 49.525 122.399 49.6677 122.752 49.7207C122.876 49.7372 122.841 50.0206 122.737 50.0206H120.409C120.294 50.0206 120.286 49.739 120.382 49.7207C120.709 49.6585 121.062 49.5433 120.736 48.7862L120.639 48.5667C120.552 48.3527 120.402 48.3363 120.136 48.3363H118.335C118.07 48.3363 117.92 48.3546 117.832 48.5667L117.744 48.7862C117.433 49.5433 117.77 49.6585 118.194 49.7207C118.308 49.7372 118.282 50.0206 118.167 50.0206H116.261C116.157 50.0206 116.129 49.739 116.234 49.7207C116.596 49.6585 116.808 49.536 117.133 48.7862L118.624 45.3625C118.97 44.5871 119.074 44.2231 119.074 43.8885C119.074 43.8354 119.692 43.6946 119.72 43.7549L121.872 48.777ZM118.403 47.8425H120.071C120.193 47.8425 120.325 47.8242 120.274 47.6998L119.24 45.229L118.2 47.6998C118.149 47.8242 118.28 47.8425 118.403 47.8425Z" clip-rule="evenodd" fill-rule="evenodd"></path>
<path fill="white" d="M130.49 49.9402C130.526 50.0737 130.384 50.1084 130.243 50.1084C130.093 50.1084 130.012 50.0481 129.917 49.942L125.715 45.5472V48.9014C125.715 49.5031 126.068 49.6 126.57 49.7225C126.642 49.739 126.607 50.0225 126.517 50.0225H124.427C124.358 50.0225 124.304 49.75 124.385 49.7225C124.408 49.715 124.431 49.7076 124.453 49.7002C124.797 49.5888 125.107 49.4881 125.107 48.9014V45.4777C125.107 44.8523 125.01 44.5523 124.78 44.2414C124.745 44.1937 124.71 44.1534 124.682 44.121C124.647 44.0813 124.623 44.0535 124.623 44.0384C124.623 43.958 124.676 43.8464 124.798 43.8464H125.451C125.541 43.8464 125.601 43.8537 125.663 43.9232L129.775 48.2723V44.9565C129.775 44.3581 129.408 44.2665 128.974 44.1583C128.956 44.1538 128.937 44.1492 128.919 44.1445C128.849 44.1262 128.884 43.8464 128.972 43.8464H131.062C131.133 43.8464 131.177 44.1262 131.108 44.1445C131.093 44.1488 131.078 44.1531 131.064 44.1574C130.695 44.2643 130.382 44.355 130.382 44.9565V48.3875C130.382 48.9691 130.402 49.6146 130.49 49.9402Z"></path>
<path fill="white" d="M138.158 48.777C138.475 49.525 138.685 49.6677 139.038 49.7207C139.164 49.7372 139.129 50.0206 139.021 50.0206H136.693C136.578 50.0206 136.571 49.739 136.666 49.7207C136.993 49.6585 137.346 49.5433 137.021 48.7862L136.924 48.5667C136.836 48.3527 136.686 48.3363 136.421 48.3363H134.619C134.354 48.3363 134.204 48.3546 134.116 48.5667L134.029 48.7862C133.718 49.5433 134.054 49.6585 134.478 49.7207C134.592 49.7372 134.566 50.0206 134.451 50.0206H132.545C132.441 50.0206 132.414 49.739 132.518 49.7207C132.88 49.6585 133.092 49.536 133.418 48.7862L134.908 45.3625C135.254 44.5871 135.358 44.2231 135.358 43.8885C135.358 43.8354 135.976 43.6946 136.004 43.7549L138.158 48.777ZM134.689 47.8425H136.357C136.479 47.8425 136.613 47.8242 136.56 47.6998L135.526 45.229L134.486 47.6998C134.435 47.8242 134.566 47.8425 134.689 47.8425Z" clip-rule="evenodd" fill-rule="evenodd"></path>
<path fill="white" d="M31.6009 25.1023C31.5863 18.3391 27.314 12.6001 21.3866 10.5536C23.2466 11.6949 24.8377 13.2512 26.1015 15.1642C27.8645 17.8344 28.9893 21.1977 29.3093 25.1023H31.6009Z"></path>
<path fill="white" d="M24.8889 15.9689C26.5002 18.4105 27.5353 21.5013 27.848 25.1023H23.905C23.8885 22.8656 23.6526 20.318 22.8424 17.7137C22.1475 15.4824 21.0355 13.2146 19.2871 11.073C21.5439 12.121 23.4478 13.7871 24.8889 15.9689Z"></path>
<path fill="white" d="M21.4488 18.1416C22.2078 20.585 22.4309 22.9881 22.4474 25.1023H17.3229V11.0401C19.4334 13.2969 20.7026 15.7421 21.4488 18.1416Z"></path>
<path fill="white" d="M10.7371 25.1023H15.8616V11.0401C13.7511 13.2969 12.4819 15.7421 11.7357 18.1416C10.9767 20.585 10.7536 22.9881 10.7371 25.1023Z"></path>
<path fill="white" d="M10.3458 17.7137C9.53556 20.318 9.29964 22.8674 9.28318 25.1023H5.34013C5.65287 21.4994 6.68801 18.4105 8.29924 15.9689C9.73857 13.7852 11.6424 12.121 13.9011 11.073C12.1508 13.2146 11.0389 15.4824 10.3458 17.7137Z"></path>
<path fill="white" d="M7.08305 15.1642C5.32001 17.8344 4.19526 21.1977 3.87521 25.1023V25.1005H1.58363C1.59826 18.3373 5.87051 12.5983 11.7979 10.5518C9.93974 11.693 8.3468 13.2494 7.08305 15.1642Z"></path>
<path fill="white" d="M5.40231 28.654V27.1543H3.7545V28.654C3.7545 28.771 3.8496 28.8661 3.96665 28.8661H5.19017C5.30721 28.8661 5.40231 28.771 5.40231 28.654Z"></path>
<path fill="white" d="M10.8469 28.654V27.1543H9.19905V28.654C9.19905 28.771 9.29415 28.8661 9.4112 28.8661H10.6347C10.7518 28.8661 10.8469 28.771 10.8469 28.654Z"></path>
<path fill="white" d="M17.4125 28.654V27.1543H15.7647V28.654C15.7647 28.771 15.8598 28.8661 15.9768 28.8661H17.2004C17.3174 28.8661 17.4125 28.771 17.4125 28.654Z"></path>
<path fill="white" d="M22.3285 28.654V27.1543H23.9763V28.654C23.9763 28.771 23.8812 28.8661 23.7642 28.8661H22.5407C22.4236 28.8661 22.3285 28.771 22.3285 28.654Z"></path>
<path fill="white" d="M27.7749 28.654V27.1543H29.4227V28.654C29.4227 28.771 29.3276 28.8661 29.2105 28.8661H27.987C27.87 28.8661 27.7749 28.771 27.7749 28.654Z"></path>
<path fill="white" d="M27.987 25.565H29.2105C29.3276 25.565 29.4227 25.6601 29.419 25.7772V26.2124H32.5098V26.7721H0.632621V26.2124H3.7545V25.7772C3.7545 25.6601 3.8496 25.565 3.96665 25.565H5.19017C5.30721 25.565 5.40231 25.6601 5.40231 25.7772V26.2124H9.20088V25.7772C9.20088 25.6601 9.29598 25.565 9.41303 25.565H10.6365C10.7536 25.565 10.8487 25.6601 10.8487 25.7772V26.2124H15.7665V25.7772C15.7665 25.6601 15.8616 25.565 15.9787 25.565H17.2022C17.3192 25.565 17.4143 25.6601 17.4143 25.7772V26.2124H22.3303V25.7772C22.3303 25.6601 22.4254 25.565 22.5425 25.565H23.766C23.883 25.565 23.9781 25.6601 23.9781 25.7772V26.2124H27.7749V25.7772C27.7749 25.6601 27.87 25.565 27.987 25.565Z"></path>
<path fill="white" d="M19.4864 9.55324H13.6395C13.5865 9.55324 13.5408 9.59897 13.5408 9.652V9.97571C13.5408 10.0306 13.5847 10.0745 13.6395 10.0745H19.4864C19.5413 10.0745 19.5852 10.0306 19.5852 9.97571V9.652C19.5852 9.59714 19.5413 9.55324 19.4864 9.55324Z"></path>
<path fill="white" d="M19.4864 5.09994H13.6395C13.5865 5.09994 13.5408 5.14384 13.5408 5.1987V5.52241C13.5408 5.57728 13.5847 5.62117 13.6395 5.62117H19.4864C19.5413 5.62117 19.5852 5.57728 19.5852 5.52241V5.1987C19.5852 5.14384 19.5413 5.09994 19.4864 5.09994Z"></path>
<path fill="white" d="M15.3898 5.88636H14.7131C14.618 5.88636 14.5412 5.965 14.5394 6.0601V9.107C14.5394 9.2021 14.618 9.28074 14.7131 9.28074H15.3898C15.4849 9.28074 15.5635 9.2021 15.5635 9.107V6.0601C15.5635 5.965 15.4849 5.88636 15.3898 5.88636Z"></path>
<path fill="white" d="M16.9169 5.88636H16.2402C16.1451 5.88636 16.0683 5.965 16.0665 6.0601V9.107C16.0665 9.2021 16.1451 9.28074 16.2402 9.28074H16.9169C17.012 9.28074 17.0906 9.2021 17.0906 9.107V6.0601C17.0906 5.965 17.012 5.88636 16.9169 5.88636Z"></path>
<path fill="white" d="M18.4129 5.88636H17.7362C17.6411 5.88636 17.5625 5.965 17.5625 6.0601V9.107C17.5625 9.2021 17.6411 9.28074 17.7362 9.28074H18.4129C18.508 9.28074 18.5866 9.2021 18.5866 9.107V6.0601C18.5866 5.965 18.508 5.88636 18.4129 5.88636Z"></path>
<path fill="white" d="M18.9049 4.73966C18.9049 3.47957 17.9026 2.45357 16.6535 2.41151H16.6517V2.0878H17.3412V1.65618H17.0705V1.92868H16.6535V1.2136H16.7102V0.781982H16.4377V1.2136H16.4944V1.92868H16.0939V1.65618H15.8232V2.0878H16.4944V2.41151C15.2453 2.45357 14.2449 3.47957 14.2449 4.73966C14.2449 4.77258 14.2449 4.80367 14.2467 4.83476H18.903C18.9049 4.80184 18.9049 4.77075 18.9049 4.73966Z"></path>
<path fill="white" d="M32.5153 29.3288H0.632621V30.5944H32.5153V29.3288Z"></path>
<path fill="white" d="M0.853897 55.2732H32.7421V56.782H0.853897V55.2732Z"></path>
</svg>
