<svg width="280" height="87" viewBox="0 0 280 87" fill="none" xmlns="http://www.w3.org/2000/svg">
<path d="M29.6134 14.9342L31.7261 22.241L38.8475 26.1238L6.33502 20.0702L29.6134 14.9342ZM56.0316 11.7226L49.7399 10.0962L49.704 14.1622L59.7648 20.4435L54.3375 14.1416L56.0316 11.7226ZM70.4144 27.2664L64.2971 30.5215L42.6372 32.3074L66.2644 40.1662L70.4144 27.2664Z" fill="white"/>
<path d="M66.2644 40.166L63.7625 55.7771L56.5212 57.4822L66.2644 40.166Z" fill="white"/>
<path d="M77.328 67.6614L73.4922 57.8253L63.7625 55.7771L77.328 67.6614ZM56.5212 57.4823L41.9529 64.5019L40.2346 76.2542L56.5212 57.4823ZM126.333 33.5454C126.333 35.2137 126.102 36.8042 125.642 38.3177C125.18 39.8312 124.544 41.2241 123.732 42.4964C122.92 43.7694 121.933 44.921 120.77 45.952C119.606 46.9837 118.322 47.8282 116.917 48.4854L126.333 63.0967H116.901L108.524 50.1441H103.116L106.345 42.2202H109.773C112.146 42.2202 114.189 41.367 115.903 39.659C116.693 38.8272 117.308 37.8867 117.748 36.836C118.187 35.7852 118.407 34.6907 118.407 33.5526C118.407 32.4144 118.187 31.32 117.748 30.2692C117.309 29.2183 116.694 28.2993 115.904 27.5112C114.191 25.804 112.149 24.95 109.777 24.95H100.422V63.0966H92.4966V17.0261H109.778C112.064 17.0261 114.208 17.465 116.208 18.3428C118.209 19.2206 119.957 20.4047 121.452 21.8968C122.947 23.3889 124.134 25.1326 125.014 27.1286C125.893 29.1255 126.333 31.2645 126.333 33.5454ZM153.552 50.6012H136.3C136.739 51.606 137.376 52.5005 138.21 53.2862C139.132 54.2029 140.163 54.8902 141.305 55.3489C142.446 55.8076 143.653 56.0362 144.926 56.0362C146.726 56.0362 148.328 55.6195 149.733 54.7854L157.963 58.0831C156.383 59.9323 154.474 61.3736 152.235 62.4085C149.997 63.4426 147.56 63.9601 144.926 63.9601C142.511 63.9601 140.251 63.5101 138.145 62.6109C136.038 61.7109 134.194 60.4712 132.614 58.891C131.033 57.3116 129.793 55.468 128.893 53.3616C127.993 51.2553 127.544 49.0163 127.544 46.6464C127.544 44.2329 127.993 41.9725 128.893 39.8662C129.793 37.7599 131.033 35.9169 132.614 34.3368C134.194 32.7574 136.038 31.5177 138.145 30.6177C140.251 29.7176 142.511 29.2676 144.926 29.2676C147.34 29.2676 149.601 29.7176 151.708 30.6177C153.815 31.5177 155.659 32.7574 157.239 34.3375C158.819 35.9185 160.059 37.7622 160.959 39.8686C161.859 41.9757 162.309 44.2361 162.309 46.6505C162.309 48.0552 162.155 49.3727 161.848 50.6013H153.552V50.6012ZM144.926 37.1915C142.38 37.1915 140.141 38.1058 138.21 39.9344C137.376 40.7614 136.739 41.6757 136.3 42.6773H153.552C153.112 41.6757 152.476 40.7614 151.642 39.9344C149.799 38.1058 147.56 37.1915 144.926 37.1915ZM198.589 30.1819L183.313 63.1149L181.272 67.5935C180.043 70.2721 178.199 72.4015 175.742 73.9833C173.283 75.5635 170.562 76.354 167.577 76.354H164.087L166.062 68.4301H167.971C169.245 68.4301 170.43 68.0785 171.527 67.3769C172.624 66.6745 173.436 65.7309 173.963 64.5459L174.622 63.0975L159.346 30.1819H168.037L178.968 53.7616L189.898 30.1819H198.589ZM231.946 30.1311V63.0967H224.02V46.6591C224.02 44.0297 223.099 41.794 221.257 39.9527C219.414 38.1122 217.177 37.1916 214.545 37.1916C213.272 37.1916 212.055 37.4328 210.892 37.9138C209.73 38.3955 208.71 39.0742 207.833 39.9496C205.991 41.7877 205.07 44.0203 205.07 46.6465C205.07 49.2298 205.991 51.4402 207.835 53.2783C208.713 54.1981 209.733 54.8879 210.897 55.3474C212.06 55.8069 213.278 56.0362 214.551 56.0362C215.867 56.0362 217.053 55.8172 218.107 55.3783L220.938 62.4411C218.919 63.4539 216.57 63.9602 213.893 63.9602C211.478 63.9602 209.25 63.5102 207.208 62.611C205.166 61.7109 203.396 60.4713 201.899 58.8911C200.402 57.3117 199.236 55.468 198.399 53.3617C197.562 51.2553 197.144 49.0164 197.144 46.6465C197.144 44.2329 197.561 41.9726 198.395 39.8662C199.229 37.7599 200.393 35.917 201.886 34.3368C203.38 32.7574 205.148 31.5177 207.189 30.6177C209.231 29.7177 211.46 29.2677 213.876 29.2677C216.027 29.2677 217.938 29.5979 219.606 30.2582C221.275 30.9185 222.747 31.755 224.02 32.7677V30.1312H231.946V30.1311ZM253.437 29.2676C255.59 29.2676 257.546 29.6739 259.304 30.4851C261.061 31.297 262.566 32.4161 263.819 33.8415C265.072 35.2677 266.038 36.9241 266.72 38.8106C267.401 40.6979 267.741 42.7162 267.741 44.8654V63.0967H259.816V44.8845C259.816 43.8321 259.618 42.8464 259.223 41.9257C258.828 41.0051 258.258 40.1725 257.513 39.4272C256.022 37.9367 254.224 37.1915 252.119 37.1915C249.969 37.1915 248.149 37.9367 246.659 39.4272C245.167 40.9177 244.422 42.7368 244.422 44.8845V63.0967H236.496V17.0261H244.422L244.406 32.8335C245.592 31.7771 246.933 30.9184 248.427 30.2581C249.921 29.5978 251.591 29.2676 253.437 29.2676Z" fill="white"/>
</svg>
