<svg width="226" height="125" viewBox="0 0 226 125" fill="none" xmlns="http://www.w3.org/2000/svg">
<g clip-path="url(#clip0_1_257)">
<path d="M111.9 84.3002C112.1 84.2002 112.3 84.0002 112.4 83.7002C112.9 82.8002 113.1 81.9002 113.1 80.9002C113 72.9002 112.9 65.7002 108.5 63.8002C103.7 61.8002 97.3999 67.5002 95.7999 68.9002C91.6999 72.8002 89.0999 77.9002 88.4999 83.5002C88.3999 84.7002 87.5999 94.5002 94.8999 101.8C102.3 109 113.2 108.9 120.6 105.9C128.8 102.6 132.6 95.8002 133.8 93.6002C140.1 81.8002 135.7 69.6002 134.8 67.2002C128.9 52.0002 111.8 42.7002 95.8999 43.5002C93.2999 43.6002 77.1999 44.7002 67.2999 58.2002C62.7999 64.4002 60.4999 71.9002 60.5999 79.6002C60.6999 98.7002 76.3999 114.5 91.5999 120.6C106.5 126.6 120 123.9 125.6 122.6C131.4 121.3 145.8 117.9 155.7 104.8C160.7 98.5002 163.7 90.9002 164.4 83.0002C164.8 75.9002 163.5 68.9002 160.4 62.5002C159.1 59.8002 153.1 48.2002 140.3 42.4002C128 36.9002 118 40.6002 114.6 34.4002C113.5 32.1002 113.4 29.5002 114.1 27.1002C114.2 26.7002 114.1 26.3002 113.9 26.0002C113.6 25.7002 113.3 25.5002 112.9 25.6002H111C110.4 25.6002 110 26.0002 109.8 26.6002C109 29.6002 108.5 33.7002 110.4 37.4002C115 46.2002 127.9 41.7002 140.5 50.6002C150.3 57.4002 157.3 70.3002 156.2 82.8002C155.5 89.2002 153 95.2002 149.1 100.2C140.8 110.9 129 113.5 123.2 114.8C118.4 115.9 107.6 118.2 95.3999 113.7C92.2999 112.6 71.3999 103.9 68.8999 84.2002C67.3999 71.6002 75.8999 57.8002 89.1999 53.1002C104.6 47.7002 121.5 56.4002 127.2 68.8002C127.9 70.3002 133 81.7002 126.5 90.9002C121.8 97.8002 111.1 102.7 103.2 98.0002C97.2999 94.4002 94.4999 87.4002 96.1999 80.7002C97.7999 74.7002 103.7 70.4002 105.8 71.4002C108 72.5002 109.3 78.7002 109.4 83.1002C109.4 83.6002 109.8 84.1002 110.3 84.4002C110.8 84.7002 111.4 84.6002 111.9 84.3002V84.3002Z" fill="white"/>
<path d="M96 32.1001L91.1 33.6001C90.7 33.7001 90.3 33.6001 90 33.4001C89.6 33.2001 89.4 32.9001 89.3 32.5001L89.2 31.6001C88.4 26.9001 86.6 22.4001 83.8 18.5001C83.6 18.2001 83.6 17.8001 83.6 17.5001C83.7 17.1001 84 16.8001 84.3 16.6001L85.5 15.8001C86.1 15.5001 86.9 15.6001 87.3 16.2001C87.8 16.9001 88.3 17.6001 88.8 18.3001L90.5 20.9001C94.2 8.60012 104.5 0.100119 115.2 0.000118501C129.3 -0.199882 138.1 12.6001 141 20.8001C141.5 22.2001 141.8 23.7001 142.1 25.1001C142.1 25.5001 142 25.9001 141.7 26.1001C141.5 26.3001 141.1 26.4001 140.7 26.3001L137.6 25.5001C137 25.3001 136.5 24.8001 136.3 24.2001C135.8 22.2001 135.1 20.3001 134.1 18.5001C130.5 12.1001 122.7 5.30012 114.5 6.00012C105.4 6.80012 96.5 17.2001 97 30.7001C97 31.3001 96.6 31.9001 96 32.1001V32.1001Z" fill="white"/>
<path d="M173.4 103.7C174.6 106.3 176.5 108.5 178.9 110.2C181.3 111.9 184.1 113.1 187 113.7C190.4 114.4 193.8 114.7 197.2 114.7C199.4 114.6 201.7 114.3 203.9 113.8C206.3 113.2 208.5 112.3 210.6 111C212.7 109.7 214.5 108 215.9 106C217.3 103.9 218 101.3 218 98.7002C218 96.7002 217.5 94.7002 216.5 93.0002C215.5 91.4002 214.2 90.0002 212.6 88.9002C211 87.8002 209.2 86.9002 207.4 86.2002C205.6 85.6002 203.7 85.0002 201.8 84.5002L184.3 80.2002C182 79.7002 179.8 78.9002 177.6 78.0002C175.6 77.2002 173.6 76.0002 172 74.5002C170.3 73.0002 169 71.2002 168.1 69.1002C167 66.7002 166.5 64.0002 166.6 61.3002C166.6 59.0002 167 56.8002 167.7 54.6002C168.5 51.9002 169.9 49.4002 171.8 47.4002C174.1 44.9002 177 42.9002 180.1 41.6002C183.6 40.0002 188.1 39.2002 193.6 39.2002C197.4 39.2002 201.1 39.7002 204.8 40.7002C208.1 41.6002 211.2 43.2002 214 45.3002C219.7 49.7002 222.9 56.5002 222.7 63.6002H215.2C215.1 60.8002 214.4 58.2002 213.2 55.7002C212 53.5002 210.4 51.6002 208.4 50.2002C206.4 48.6002 204.1 47.4002 201.7 46.7002C199.1 45.9002 196.4 45.5002 193.7 45.5002C191.2 45.5002 188.7 45.8002 186.3 46.4002C184.1 46.9002 181.9 47.7002 180 49.0002C178.2 50.2002 176.7 51.9002 175.7 53.8002C174.5 56.1002 174 58.6002 174 61.2002C174 62.8002 174.3 64.4002 175 66.0002C175.6 67.3002 176.5 68.5002 177.6 69.4002C178.7 70.4002 180 71.2002 181.4 71.7002C182.8 72.3002 184.4 72.8002 185.9 73.2002L205.1 77.9002C207.7 78.6002 210.4 79.5002 212.9 80.6002C215.3 81.6002 217.5 82.9002 219.4 84.6002C221.3 86.2002 222.8 88.1002 223.8 90.4002C224.9 93.0002 225.5 95.8002 225.4 98.6002C225.4 99.8002 225.3 101 225.1 102.1C224.9 103.7 224.5 105.3 223.8 106.8C223 108.6 222 110.3 220.8 111.8C219.4 113.6 217.6 115.2 215.5 116.4C212.9 117.9 210.1 119 207.2 119.7C203.4 120.6 199.4 121 195.4 120.9C191.1 121 186.7 120.4 182.5 119.3C178.9 118.4 175.4 116.8 172.4 114.5C169.6 112.2 167.4 109.3 166 106C164.4 102 163.7 97.8002 164 93.5002H171.5C171.3 97.0002 172 100.5 173.4 103.7V103.7Z" fill="white"/>
<path d="M9.39997 103.7C10.6 106.3 12.5 108.5 14.8 110.2C17.3 111.9 20.1 113.1 23 113.7C26.4 114.4 29.8 114.7 33.2 114.7C35.4 114.6 37.7 114.3 39.9 113.8C42.3 113.2 44.5 112.3 46.6 111C48.7 109.7 50.5 108 51.9 106C53.3 103.9 54 101.3 53.9 98.7002C53.9 96.7002 53.4 94.7002 52.4 93.0002C51.4 91.4002 50.1 90.0002 48.5 88.9002C46.9 87.8002 45.2 86.9002 43.3 86.2002C41.5 85.6002 39.6 85.0002 37.7 84.5002L20.2 80.2002C18 79.6002 15.7 78.9002 13.6 78.0002C11.5 77.2002 9.59997 76.0002 7.89997 74.5002C6.29997 73.0002 4.89997 71.2002 3.99997 69.1002C2.89997 66.7002 2.39997 64.0002 2.49997 61.3002C2.59997 59.0002 2.89997 56.8002 3.59997 54.6002C4.39997 51.9002 5.79997 49.4002 7.69997 47.3002C10.1 44.9002 12.9 42.9002 16.1 41.6002C19.6 40.0002 24.1 39.2002 29.6 39.2002C33.3 39.2002 37.1 39.7002 40.7 40.7002C44 41.6002 47.2 43.2002 49.9 45.3002C55.6 49.7002 58.8 56.5002 58.6 63.6002H51.2C51.1 60.8002 50.4 58.2002 49.2 55.7002C48 53.5002 46.4 51.6002 44.4 50.2002C42.4 48.6002 40.1 47.4002 37.7 46.7002C35.1 45.9002 32.4 45.5002 29.7 45.5002C27.2 45.5002 24.7 45.8002 22.2 46.4002C20 46.9002 17.9 47.8002 16 49.0002C14.2 50.2002 12.7 51.9002 11.6 53.8002C10.5 56.1002 9.89997 58.6002 9.99997 61.2002C9.89997 62.8002 10.3 64.4002 10.9 66.0002C11.5 67.3002 12.4 68.5002 13.5 69.4002C14.6 70.4002 15.9 71.2002 17.3 71.7002C18.8 72.3002 20.3 72.8002 21.9 73.2002L41 77.9002C43.7 78.6002 46.3 79.5002 48.9 80.6002C51.2 81.6002 53.4 82.9002 55.4 84.6002C57.2 86.2002 58.7 88.1002 59.8 90.4002C60.9 92.9002 61.4 95.8002 61.4 98.6002C61.3 99.8002 61.2 101 61.1 102.1C60.9 103.7 60.4 105.3 59.8 106.8C59 108.6 58 110.3 56.8 111.8C55.3 113.6 53.5 115.2 51.5 116.4C48.9 117.9 46.1 119 43.2 119.7C39.3 120.6 35.4 121 31.4 120.9C27.1 121 22.7 120.4 18.5 119.3C14.9 118.4 11.4 116.8 8.39997 114.4C5.59997 112.2 3.39997 109.3 1.99997 106C0.39997 102 -0.30003 97.8002 -2.97353e-05 93.5002H7.49997C7.29997 97.0002 7.99997 100.5 9.39997 103.7V103.7Z" fill="white"/>
</g>
<defs>
<clipPath id="clip0_1_257">
<rect width="225.6" height="125" fill="white"/>
</clipPath>
</defs>
</svg>
