<svg width="129" height="28" viewBox="0 0 129 28" fill="none" xmlns="http://www.w3.org/2000/svg">
<g clip-path="url(#clip0_1_264)">
<path fill-rule="evenodd" clip-rule="evenodd" d="M48.0001 13.0999L45.7001 12.5999C44.5001 12.2999 43.9001 11.5999 43.9001 10.5999C43.9001 9.2999 45.1001 8.2999 46.7001 8.2999C48.9001 8.2999 49.5001 9.8999 49.7001 10.3999C49.7001 10.5999 49.9001 10.6999 50.0001 10.7999C50.1001 10.8999 50.3001 10.8999 50.5001 10.7999L51.7001 10.3999C51.8001 10.2999 52.0001 10.1999 52.0001 10.0999C52.1001 9.9999 52.1001 9.7999 52.0001 9.5999C51.7001 8.4999 50.5001 5.8999 46.6001 5.8999C43.7001 5.8999 41.2001 8.0999 41.2001 10.7999C41.2001 13.0999 42.7001 14.7999 45.2001 15.2999L47.4001 15.7999C48.7001 16.0999 49.5001 16.8999 49.5001 17.9999C49.5001 19.3999 48.4001 20.1999 46.5001 20.1999C44.3001 20.1999 43.3001 18.7999 43.1001 17.4999C43.1001 17.3999 43.1001 17.2999 43.0001 17.2999C42.9001 17.2999 42.9001 17.1999 42.8001 17.0999C42.7001 17.0999 42.6001 16.9999 42.6001 16.9999C42.5001 16.9999 42.4001 16.9999 42.3001 16.9999L41.0001 17.3999C40.9001 17.3999 40.7001 17.4999 40.7001 17.6999C40.6001 17.7999 40.6001 17.9999 40.6001 18.0999C41.0001 20.2999 42.8001 22.5999 46.6001 22.5999C49.8001 22.5999 52.2001 20.4999 52.2001 17.6999C52.2001 15.3999 50.7001 13.6999 48.0001 13.0999ZM61.8001 15.2999C61.8001 15.2999 61.7001 15.3999 61.8001 15.2999C61.8001 15.3999 61.7001 15.3999 61.7001 15.3999C61.7001 15.3999 61.7001 15.3999 61.6001 15.3999H56.7001C56.7001 15.3999 56.7001 15.3999 56.6001 15.3999C56.6001 15.3999 56.6001 15.3999 56.6001 15.2999C56.8001 14.2999 57.7001 13.1999 59.2001 13.1999C60.6001 13.1999 61.6001 13.9999 61.8001 15.2999ZM59.1001 10.8999C56.5001 10.8999 53.8001 13.0999 53.8001 16.6999C53.8001 18.4999 54.4001 19.9999 55.5001 20.9999C56.5001 21.9999 57.9001 22.5999 59.4001 22.5999C61.6001 22.5999 63.4001 21.3999 64.2001 19.4999C64.3001 19.2999 64.3001 19.1999 64.2001 18.9999C64.2001 18.8999 64.1001 18.8999 64.1001 18.7999C64.0001 18.6999 64.0001 18.6999 63.9001 18.6999L62.8001 18.2999C62.7001 18.1999 62.5001 18.2999 62.4001 18.2999C62.3001 18.3999 62.1001 18.4999 62.1001 18.5999C61.6001 19.6999 60.7001 20.2999 59.5001 20.2999C58.0001 20.2999 56.8001 19.2999 56.6001 17.6999C56.6001 17.6999 56.6001 17.6999 56.6001 17.5999C56.6001 17.5999 56.6001 17.5999 56.7001 17.5999H63.9001C64.2001 17.5999 64.5001 17.2999 64.5001 16.9999C64.5001 16.8999 64.5001 16.7999 64.5001 16.6999C64.4001 13.0999 62.4001 10.8999 59.1001 10.8999ZM71.4001 19.4999C69.7001 19.4999 68.6001 18.2999 68.6001 16.3999C68.6001 14.4999 69.7001 13.2999 71.4001 13.2999C73.1001 13.2999 74.2001 14.5999 74.2001 16.3999C74.2001 18.2999 73.1001 19.4999 71.4001 19.4999ZM76.0001 11.1999H74.7001C74.4001 11.1999 74.1001 11.4999 74.1001 11.7999C74.1001 11.7999 74.1001 11.7999 74.1001 11.8999C74.1001 11.8999 74.1001 11.8999 74.0001 11.8999H73.9001C73.2001 11.2999 72.3001 10.9999 71.1001 10.9999C68.1001 10.9999 66.0001 13.2999 66.0001 16.3999C66.0001 19.4999 68.1001 21.7999 71.1001 21.7999C72.2001 21.7999 73.2001 21.3999 73.9001 20.7999H74.0001C74.0001 20.7999 74.1001 20.7999 74.1001 20.8999V21.2999C74.1001 23.4999 73.1001 24.4999 71.1001 24.4999C69.8001 24.4999 68.8001 23.6999 68.5001 22.4999C68.5001 22.2999 68.4001 22.1999 68.2001 22.0999C68.1001 21.9999 67.9001 21.9999 67.8001 21.9999L66.5001 22.2999C66.3001 22.2999 66.2001 22.3999 66.1001 22.5999C66.0001 22.6999 66.0001 22.8999 66.0001 23.0999C66.5001 25.2999 68.5001 26.8999 71.1001 26.8999C73.0001 26.8999 74.5001 26.2999 75.4001 25.1999C76.2001 24.2999 76.6001 22.8999 76.6001 21.3999V11.9999C76.6001 11.4999 76.4001 11.1999 76.0001 11.1999ZM91.6001 10.8999C90.2001 10.8999 89.0001 11.3999 88.2001 12.4999C88.2001 12.4999 88.2001 12.4999 88.1001 12.4999C88.1001 12.4999 88.1001 12.4999 88.0001 12.4999C87.3001 11.4999 86.2001 10.8999 84.9001 10.8999C83.9001 10.8999 82.8001 11.2999 82.1001 11.8999C82.1001 11.8999 82.1001 11.8999 82.0001 11.8999C82.0001 11.8999 82.0001 11.8999 81.9001 11.8999C81.9001 11.8999 81.9001 11.8999 81.8001 11.8999C81.7001 11.8999 81.8001 11.8999 81.8001 11.7999C81.8001 11.4999 81.5001 11.1999 81.2001 11.1999H80.0001C79.7001 11.1999 79.4001 11.4999 79.4001 11.7999V21.5999C79.4001 21.8999 79.7001 22.1999 80.0001 22.1999H81.3001C81.6001 22.1999 81.9001 21.8999 81.9001 21.5999V15.5999C81.9001 14.0999 82.8001 13.1999 84.1001 13.1999C85.8001 13.1999 86.1001 14.5999 86.1001 15.3999V21.6999C86.1001 21.9999 86.4001 22.2999 86.7001 22.2999H88.0001C88.3001 22.2999 88.6001 21.9999 88.6001 21.6999V15.6999C88.6001 14.2999 89.5001 13.2999 90.8001 13.2999C92.5001 13.2999 92.8001 14.6999 92.8001 15.4999V21.7999C92.8001 22.0999 93.1001 22.3999 93.4001 22.3999H94.7001C95.0001 22.3999 95.3001 22.0999 95.3001 21.7999V15.2999C95.5001 12.1999 93.5001 10.8999 91.6001 10.8999ZM100.4 15.3999C100.3 15.3999 100.3 15.3999 100.3 15.3999C100.5 14.3999 101.4 13.2999 102.9 13.2999C104.3 13.2999 105.3 14.0999 105.5 15.3999V15.4999C105.5 15.4999 105.5 15.4999 105.4 15.4999L100.4 15.3999ZM102.8 10.8999C100.2 10.8999 97.5001 13.0999 97.5001 16.6999C97.5001 18.4999 98.1001 19.9999 99.2001 20.9999C100.2 21.9999 101.6 22.4999 103.1 22.4999C105.3 22.4999 107.1 21.2999 107.9 19.3999C108 19.1999 108 19.0999 107.9 18.8999C107.8 18.6999 107.7 18.5999 107.5 18.5999L106.4 18.1999C106.1 18.0999 105.8 18.1999 105.6 18.4999C105.1 19.5999 104.2 20.1999 103 20.1999C101.5 20.1999 100.3 19.1999 100.1 17.5999C100.1 17.5999 100.1 17.5999 100.1 17.4999C100.1 17.4999 100.1 17.4999 100.2 17.4999H107.4C107.7 17.4999 108 17.1999 108 16.8999C108 16.7999 108 16.6999 108 16.5999C108.1 13.0999 106.1 10.8999 102.8 10.8999ZM115.9 10.8999C114.8 10.8999 113.8 11.2999 113.1 11.9999C113.1 11.9999 113.1 11.9999 113 11.9999C113 11.9999 113 11.9999 112.9 11.9999C112.9 11.9999 112.9 11.9999 112.8 11.9999C112.8 11.9999 112.8 11.9999 112.8 11.8999V11.7999C112.8 11.4999 112.5 11.1999 112.2 11.1999H110.9C110.6 11.1999 110.3 11.4999 110.3 11.7999V21.5999C110.3 21.8999 110.6 22.1999 110.9 22.1999H112.2C112.5 22.1999 112.8 21.8999 112.8 21.5999V15.8999C112.8 14.5999 113.4 13.1999 115 13.1999C116.5 13.1999 117.2 13.9999 117.2 15.5999V21.5999C117.2 21.8999 117.5 22.1999 117.8 22.1999H119.1C119.4 22.1999 119.7 21.8999 119.7 21.5999V15.2999C119.9 12.5999 118.4 10.8999 115.9 10.8999ZM126.1 13.5999H127.6C127.9 13.5999 128.2 13.2999 128.2 12.9999V11.8999C128.2 11.5999 127.9 11.2999 127.6 11.2999H126.1V8.4999C126.1 8.1999 125.8 7.8999 125.5 7.8999H124.3C124 7.8999 123.7 8.1999 123.7 8.4999V9.7999C123.7 10.3999 123.5 11.1999 122.3 11.1999H122.1C121.8 11.1999 121.5 11.4999 121.5 11.7999V12.9999C121.5 13.2999 121.8 13.5999 122.1 13.5999H123.4C123.5 13.5999 123.5 13.6999 123.5 13.6999V19.0999C123.5 21.0999 124.7 22.3999 126.7 22.3999C127.2 22.3999 127.7 22.2999 127.9 22.2999C128.2 22.1999 128.4 21.9999 128.4 21.6999V20.6999C128.4 20.5999 128.4 20.4999 128.3 20.4999C128.3 20.3999 128.2 20.3999 128.2 20.2999C128.1 20.1999 128.1 20.1999 128 20.1999C127.9 20.1999 127.8 20.1999 127.7 20.1999C127.6 20.1999 127.4 20.1999 127.3 20.1999C126.4 20.1999 126.1 19.8999 126.1 18.9999V13.8999C126 13.5999 126.1 13.5999 126.1 13.5999Z" fill="white"/>
<path fill-rule="evenodd" clip-rule="evenodd" d="M18.8 18.8H1.70005C0.900049 18.8 0.300049 18.2 0.300049 17.4C0.300049 16.6 0.900049 16 1.70005 16H18.8C19.6 16 20.2 16.6 20.2 17.4C20.2 18.2 19.6 18.8 18.8 18.8Z" fill="white"/>
<path fill-rule="evenodd" clip-rule="evenodd" d="M15.1 27.4999C13.7 27.4999 12.3 27.2999 11 26.8999C10.6 26.7999 10.3 26.4999 10.2 26.1999C9.99999 25.8999 9.99999 25.4999 10.1 25.0999C10.3 24.2999 11.1 23.8999 11.9 24.1999C12.9 24.4999 14 24.6999 15.1 24.6999C19.9 24.6999 24.1 21.5999 25.5 16.9999C25.6 16.7999 25.6 16.6999 25.8 16.4999C25.9 16.3999 26.1 16.1999 26.2 16.0999C26.4 15.9999 26.5 15.9999 26.7 15.8999C26.9 15.8999 27.1 15.8999 27.3 15.9999C28.1 16.1999 28.5 16.9999 28.2 17.7999C26.5 23.5999 21.2 27.4999 15.1 27.4999Z" fill="white"/>
<path fill-rule="evenodd" clip-rule="evenodd" d="M28.5001 11.6001H11.5001C10.7001 11.6001 10.1001 11.0001 10.1001 10.2001C10.1001 9.40005 10.7001 8.80005 11.5001 8.80005H28.6001C29.4001 8.80005 30.0001 9.40005 30.0001 10.2001C30.0001 10.9001 29.3001 11.6001 28.5001 11.6001Z" fill="white"/>
<path fill-rule="evenodd" clip-rule="evenodd" d="M3.30002 11.6C3.10002 11.6 2.90002 11.5 2.70002 11.4C2.50002 11.3 2.30002 11.2 2.20002 11C2.10002 10.8 2.00002 10.6 1.90002 10.4C1.90002 10.2 1.90002 10 1.90002 9.7C3.70002 3.9 9.00003 0 15.1 0C16.5 0 17.9 0.2 19.2 0.6C19.4 0.7 19.5 0.7 19.7 0.9C19.8 1 20 1.2 20 1.3C20.1 1.5 20.1 1.6 20.2 1.8C20.3 2 20.2 2.2 20.1 2.4C20 2.6 20 2.7 19.8 2.9C19.7 3 19.5 3.2 19.4 3.3C19.2 3.4 19.1 3.4 18.9 3.5C18.7 3.5 18.5 3.5 18.3 3.4C17.3 3.1 16.2 2.9 15.1 2.9C10.3 2.9 6.10002 6 4.70002 10.6C4.60002 10.9 4.40002 11.1 4.20002 11.3C3.90002 11.5 3.60002 11.6 3.30002 11.6Z" fill="white"/>
<path fill-rule="evenodd" clip-rule="evenodd" d="M25 4.70005C25 5.10005 24.8 5.40005 24.6 5.70005C24.3 6.00005 24 6.10005 23.6 6.10005C23.2 6.10005 22.9 5.90005 22.6 5.70005C22.3 5.40005 22.2001 5.10005 22.2001 4.70005C22.2001 4.30005 22.4 4.00005 22.6 3.70005C22.9 3.40005 23.2 3.30005 23.6 3.30005C24 3.30005 24.3 3.50005 24.6 3.70005C24.9 4.00005 25 4.30005 25 4.70005ZM8.10005 22.8001C8.10005 23.2001 7.90005 23.5001 7.70005 23.8001C7.40005 24.1001 7.10005 24.2001 6.70005 24.2001C6.30005 24.2001 6.00005 24.0001 5.70005 23.8001C5.40005 23.5001 5.30005 23.2001 5.30005 22.8001C5.30005 22.4001 5.50005 22.1001 5.70005 21.8001C6.00005 21.5001 6.30005 21.4001 6.70005 21.4001C7.10005 21.4001 7.40005 21.6001 7.70005 21.8001C7.90005 22.1001 8.10005 22.4001 8.10005 22.8001Z" fill="white"/>
</g>
<defs>
<clipPath id="clip0_1_264">
<rect width="129" height="28" fill="white"/>
</clipPath>
</defs>
</svg>
