<svg xmlns="http://www.w3.org/2000/svg" fill="none" viewBox="0 0 146 57" height="57" width="146">
<path fill="white" d="M14.1928 43.8616C20.0766 42.2055 25.263 38.283 28.7061 33.2273C26.7013 32.7478 24.6529 32.4428 22.6044 32.3992C17.7231 39.2418 9.79088 43.2515 1.64076 44.8205C5.82478 45.0384 10.1395 45.082 14.1928 43.8616ZM136.88 30.22C133.699 31.3968 133.568 36.8447 136.837 38.0215C139.06 38.806 141.37 36.6704 141.326 34.4476C141.587 32.0941 139.408 29.3483 136.88 30.22ZM143.462 39.4597C141.326 42.2491 136.663 42.5106 134.483 39.634V46.6946H130.43V26.9077H134.483V28.4767C136.532 26.4718 139.931 25.9924 142.241 27.7357C145.989 30.2636 146.469 36.1474 143.462 39.4597ZM123.195 33.4888C123.064 31.1353 120.449 29.3047 118.227 30.3508C115.002 31.7454 115.35 37.4549 118.924 38.1086C121.583 38.7624 123.718 35.973 123.195 33.4888ZM125.418 39.1546C122.498 42.467 116.658 42.4234 113.781 39.0675C111.253 36.3217 111.297 31.6583 113.912 28.9997C114.827 27.9972 116.048 27.2563 117.399 26.9077C120.014 26.2103 123.064 26.7769 125.026 28.7382C127.946 31.3968 128.077 36.3653 125.418 39.1546ZM61.3938 32.7043C61.0887 31.789 60.74 30.8302 59.8248 30.3943C57.9071 29.3483 55.3793 30.5687 54.8563 32.6607C57.0354 32.7043 59.2146 32.7043 61.3938 32.7043ZM54.7691 35.5808C55.6843 38.7624 59.9555 38.9803 62.0475 36.8883C62.7885 37.7164 63.5294 38.5009 64.2703 39.329C61.4374 42.0311 56.6868 42.467 53.5487 40.0699C49.8441 37.2805 49.8877 30.7866 53.7231 28.128C56.9047 25.6873 62.1347 26.2975 64.4011 29.697C65.6214 31.3968 65.4471 33.5759 65.4471 35.5808C61.8732 35.6244 58.2994 35.5808 54.7691 35.5808ZM105.587 26.9077H101.534V41.4646H105.587C105.805 38.5009 105.152 35.45 106.067 32.5735C106.59 30.8738 108.42 30.3508 109.989 30.4379C109.989 29.1304 109.946 27.8665 109.946 26.6026C108.246 26.7769 106.808 27.6486 105.587 28.7817V26.9077ZM87.2388 39.5905C89.3308 41.5081 92.5124 42.1183 95.171 41.2031C96.5657 40.6801 97.7425 39.7212 98.832 38.7188C98.004 37.8035 97.2195 36.9319 96.435 36.0166C95.2146 37.4985 93.1226 38.588 91.2049 37.7164C88.3284 36.6704 88.1105 32.0941 90.8127 30.6994C92.7303 29.6098 95.0839 30.4379 96.5657 31.9198L98.6577 29.174C95.3889 25.7309 89.1565 25.7745 86.3236 29.7406C84.188 32.6171 84.4931 37.1934 87.2388 39.5905ZM72.464 26.7769H68.4107V41.3338H72.464C72.5076 38.4573 72.3768 35.5372 72.5076 32.6607C72.5076 30.8302 74.4253 29.3483 76.2122 29.8713C77.4325 30.1764 77.8684 31.5275 77.9119 32.6171C77.9991 35.5372 77.9119 38.4573 77.9555 41.3774H82.0088C81.9652 38.1958 82.096 35.0142 81.9652 31.8326C81.878 29.2176 79.786 26.8205 77.1274 26.6462C75.3841 26.4282 73.7279 27.2999 72.464 28.4331V26.7769ZM36.0718 32.0069C38.2073 33.5324 40.9967 33.5324 43.263 34.7527C44.4834 35.4064 44.1783 37.3677 42.9144 37.76C40.3429 38.6316 37.8151 36.9319 35.8974 35.3629C35.0693 36.4089 34.2412 37.4113 33.4132 38.4573C36.5948 41.4646 41.7376 42.9028 45.7473 40.6801C48.5802 39.1546 49.234 35.0142 47.2727 32.5735C45.7037 30.8302 43.3938 30.3508 41.2582 29.7842C40.3865 29.4791 39.2969 29.3047 38.7303 28.4331C38.1638 27.3871 38.9483 26.0796 40.0814 25.9488C42.1734 25.6002 44.2219 26.5154 45.9216 27.6922C46.619 26.6462 47.3599 25.6437 48.0572 24.5977C45.355 22.5057 41.694 21.5905 38.3381 22.5057C36.5076 23.0287 34.8078 24.2926 34.372 26.2103C33.9362 28.1716 34.2412 30.6558 36.0718 32.0069ZM15.0645 10.6946C15.7618 16.6655 14.4543 22.8544 11.2291 27.9101C8.65771 31.9633 4.99669 35.2757 0.943422 37.8035C-0.364084 32.4428 0.246085 26.6026 2.99185 21.8084C5.69403 16.927 10.2267 13.3532 15.0645 10.6946Z" clip-rule="evenodd" fill-rule="evenodd"></path>
<path fill="white" d="M5.04051 38.6752C3.73301 39.7212 2.25117 40.4185 0.987244 41.5081C4.56109 41.1159 7.96061 39.852 11.1422 38.1958C17.6362 34.8398 22.4739 28.651 24.3044 21.5905C21.7766 21.9391 19.2487 22.4185 16.8081 23.2466C14.7161 29.5662 10.3577 34.8398 5.04051 38.6752Z" clip-rule="evenodd" fill-rule="evenodd"></path>
</svg>
