<svg width="135" height="32" viewBox="0 0 135 32" fill="none" xmlns="http://www.w3.org/2000/svg">
<g clip-path="url(#clip0_1_272)">
<path d="M22.5 16.5999C21.8 16.2999 21 16.3999 20.3 16.6999C20.2 16.7999 20 16.7999 19.9 16.8999L5.60003 7.99989C5.60003 7.69989 5.60003 7.49989 5.60003 7.19989L11.4 3.69989H11.5C12 3.89989 12.5 3.79989 12.9 3.69989L18.7 7.19989C18.7 7.49989 18.7 7.69989 18.7 7.99989L15.4 10.0999C14.9 10.3999 14.7 11.0999 15 11.6999C15.3 12.1999 16 12.3999 16.6 12.0999L20 9.89989C20.8 10.3999 21.9 10.4999 22.8 10.0999C24.2 9.49989 24.9 7.79989 24.3 6.39989C23.6 4.99989 21.9 4.39989 20.5 4.99989C20.4 4.99989 20.4 5.09989 20.3 5.09989C20.2 5.19989 20 5.19989 19.9 5.29989L14.1 1.79989C14 0.699894 13.1 -0.100106 12 -0.000105739C11.2 0.0998943 10.6 0.599894 10.3 1.29989C10.2 1.49989 10.2 1.59989 10.2 1.79989L4.50003 5.29989C4.30003 5.19989 4.00003 4.99989 3.80003 4.99989C2.30003 4.39989 0.700034 5.19989 0.200034 6.69989C-0.299966 8.19989 0.400034 9.79989 1.90003 10.2999C2.60003 10.5999 3.40003 10.4999 4.10003 10.1999C4.20003 10.0999 4.40003 10.0999 4.50003 9.99989L18.8 18.9999C18.8 19.2999 18.8 19.4999 18.8 19.7999L13 23.2999H12.9C12.4 23.0999 11.9 23.1999 11.5 23.2999L5.70003 19.7999C5.70003 19.5999 5.70003 19.2999 5.70003 19.0999L9.00003 16.9999C9.50003 16.6999 9.70003 15.9999 9.40003 15.3999C9.10003 14.8999 8.40003 14.6999 7.80003 14.9999C7.80003 14.9999 7.70003 14.9999 7.70003 15.0999L4.40003 17.1999C3.10003 16.2999 1.40003 16.6999 0.500034 17.9999C-0.399966 19.2999 3.37362e-05 20.9999 1.30003 21.8999C1.80003 22.1999 2.30003 22.3999 2.80003 22.3999C3.20003 22.3999 3.60003 22.2999 4.00003 22.0999C4.10003 21.9999 4.30003 21.9999 4.40003 21.8999L10.2 25.3999C10.3 26.1999 10.8 26.7999 11.5 27.0999C12.5 27.4999 13.6 26.8999 14 25.8999C14.1 25.6999 14.1 25.5999 14.1 25.3999L19.9 21.8999C20.1 21.9999 20.3 22.1999 20.6 22.1999C22.1 22.6999 23.7 21.9999 24.2 20.4999C24.7 18.6999 23.9 17.0999 22.5 16.5999Z" fill="white"/>
<path d="M82.9 29.8999C82.9 29.7999 82.8 29.5999 82.7 29.5999C82.5 29.4999 82.3 29.3999 82.1 29.3999C81.9 29.3999 81.6 29.2999 81.4 29.1999C81.3 29.0999 81.1 28.9999 81 28.8999C81 28.6999 81 28.5999 81 28.3999C81 28.0999 81.1 27.8999 81.3 27.6999C81.5 27.4999 81.8 27.3999 82.1 27.3999C82.4 27.3999 82.7 27.4999 83 27.6999C83.2 27.8999 83.3 28.0999 83.3 28.3999H82.8C82.8 28.1999 82.7 28.0999 82.6 27.9999C82.5 27.9999 82.3 27.9999 82.1 27.9999C81.9 27.9999 81.8 27.9999 81.6 28.0999C81.5 28.1999 81.4 28.2999 81.4 28.3999C81.4 28.4999 81.5 28.5999 81.6 28.6999C81.8 28.7999 82 28.8999 82.2 28.8999C82.4 28.8999 82.7 28.9999 82.9 29.0999C83 29.1999 83.2 29.2999 83.3 29.3999C83.4 29.4999 83.4 29.6999 83.4 29.7999C83.4 30.0999 83.3 30.2999 83.1 30.4999C82.8 30.6999 82.5 30.7999 82.2 30.7999C82 30.7999 81.7 30.7999 81.5 30.6999C81.3 30.5999 81.2 30.4999 81 30.2999C80.9 30.0999 80.8 29.9999 80.8 29.7999H81.3C81.3 29.9999 81.4 30.0999 81.5 30.1999C81.8 30.3999 82.2 30.3999 82.5 30.1999C82.8 30.1999 82.9 29.9999 82.9 29.8999Z" fill="white"/>
<path d="M84.9 27.6001V28.0001C85.1 27.7001 85.5 27.6001 85.8 27.6001C86.2 27.6001 86.5 27.8001 86.7 28.1001C86.8 27.9001 86.9 27.8001 87.1 27.7001C87.3 27.6001 87.5 27.6001 87.7 27.6001C88.4 27.6001 88.8 28.0001 88.8 28.7001V30.8001H88.3V28.7001C88.3 28.5001 88.3 28.3001 88.1 28.2001C88 28.0001 87.8 27.9001 87.6 28.0001C87.4 28.0001 87.2 28.1001 87.1 28.2001C87 28.3001 86.9 28.5001 86.9 28.7001V30.8001H86.4V28.7001C86.5 28.4001 86.2 28.1001 85.9 28.0001C85.8 28.0001 85.8 28.0001 85.7 28.0001C85.4 28.0001 85.1 28.2001 85 28.5001V30.8001H84.5V27.6001C84.5 27.6001 84.9 27.6001 84.9 27.6001Z" fill="white"/>
<path d="M92 30.7001C92 30.6001 91.9 30.5 91.9 30.4C91.7 30.7 91.3 30.8 91 30.8C90.7 30.8 90.4 30.7 90.2 30.5C90 30.3 89.9 30.1 89.9 29.8C89.9 29.5 90 29.2 90.3 29C90.6 28.8 91 28.7001 91.4 28.7001H91.9V28.4C91.9 28.2 91.8 28.1 91.7 27.9C91.6 27.8 91.4 27.7001 91.2 27.7001C91 27.7001 90.9 27.7 90.7 27.8C90.6 27.9 90.5 28.0001 90.5 28.2001H90C90 28.0001 90.1 27.9001 90.2 27.7001C90.3 27.6001 90.5 27.4 90.7 27.4C90.9 27.3 91.1 27.3 91.3 27.3C91.6 27.3 91.9 27.4 92.2 27.6C92.4 27.8 92.5 28.1 92.5 28.4V30C92.5 30.2 92.5 30.5001 92.6 30.7001H92ZM91.1 30.3C91.3 30.3 91.4 30.3001 91.6 30.2001C91.7 30.1001 91.9 30 91.9 29.9V29.3H91.5C90.8 29.3 90.5 29.5 90.5 29.9C90.5 30.1 90.6 30.2 90.7 30.3C90.8 30.3 90.9 30.3 91.1 30.3Z" fill="white"/>
<path d="M95.1 28.0001C95 28.0001 94.9 28.0001 94.8 28.0001C94.5 28.0001 94.2 28.2001 94.1 28.5001V30.8001H93.6V27.6001H94.1V28.0001C94.3 27.7001 94.5 27.6001 94.9 27.6001C95 27.6001 95.1 27.6001 95.1 27.6001V28.0001Z" fill="white"/>
<path d="M96.9 26.8V27.6H97.5V28H96.9V30C96.9 30.1 96.9 30.2 97 30.3C97.1 30.4 97.2 30.4 97.3 30.4C97.4 30.4 97.5 30.4 97.6 30.4V30.8C97.5 30.8 97.3 30.9 97.2 30.9C97 30.9 96.8 30.8001 96.6 30.7001C96.5 30.5001 96.4 30.3 96.4 30.1V28.1H95.8V27.7001H96.4V26.9H96.9V26.8V26.8Z" fill="white"/>
<path d="M102.2 30.4C102 30.7 101.6 30.8 101.3 30.8C101 30.8 100.7 30.7 100.5 30.5C100.3 30.3 100.2 29.9 100.2 29.6V27.5H100.7V29.6C100.7 30.1 100.9 30.3 101.3 30.3C101.6 30.3 102 30.2 102.1 29.8V27.5H102.6V30.7H102.1L102.2 30.4Z" fill="white"/>
<path d="M105.4 28.0001C105.3 28.0001 105.2 28.0001 105.1 28.0001C104.8 28.0001 104.5 28.2001 104.4 28.5001V30.8001H103.9V27.6001H104.4V28.0001C104.6 27.7001 104.8 27.6001 105.2 27.6001C105.3 27.6001 105.4 27.6001 105.4 27.6001V28.0001Z" fill="white"/>
<path d="M108.9 29.2001C108.9 29.6001 108.8 30 108.6 30.4C108.4 30.7 108.1 30.9 107.7 30.8C107.3 30.8 107 30.7 106.8 30.4V30.8H106.3V26.3H106.8V28C107 27.7 107.4 27.6 107.7 27.6C108.1 27.6 108.4 27.8 108.6 28C108.9 28.3 109 28.7001 108.9 29.2001ZM108.4 29.1C108.4 28.8 108.3 28.5001 108.2 28.2001C108.1 28.0001 107.8 27.9 107.6 27.9C107.3 27.9 107 28.1 106.8 28.4V29.8C106.9 30.1 107.2 30.3 107.6 30.3C107.8 30.3 108.1 30.2 108.2 30C108.4 29.8 108.4 29.4 108.4 29.1Z" fill="white"/>
<path d="M111.9 30.7001C111.9 30.6001 111.8 30.5 111.8 30.4C111.6 30.7 111.2 30.8 110.9 30.8C110.6 30.8 110.3 30.7 110.1 30.5C109.9 30.3 109.8 30.1 109.8 29.8C109.8 29.5 109.9 29.2 110.2 29C110.5 28.8 110.9 28.7001 111.3 28.7001H111.8V28.4C111.8 28.2 111.7 28.1 111.6 27.9C111.5 27.8 111.3 27.7001 111.1 27.7001C110.9 27.7001 110.8 27.7 110.6 27.8C110.5 27.9 110.4 28.0001 110.4 28.2001H109.8C109.8 28.0001 109.9 27.9001 110 27.7001C110.1 27.6001 110.3 27.4 110.5 27.4C110.7 27.3 110.9 27.3 111.1 27.3C111.4 27.3 111.7 27.4 112 27.6C112.2 27.8 112.3 28.1 112.3 28.4V30C112.3 30.2 112.3 30.5001 112.4 30.7001H111.9ZM111 30.3C111.2 30.3 111.3 30.3001 111.5 30.2001C111.6 30.1001 111.8 30 111.8 29.9V29.3H111.4C110.7 29.3 110.4 29.5 110.4 29.9C110.4 30.1 110.5 30.2 110.6 30.3C110.7 30.3 110.8 30.3 111 30.3Z" fill="white"/>
<path d="M114 27.6V28C114.2 27.7 114.6 27.5 115 27.5C115.7 27.5 116 27.9 116 28.6V30.7H115.5V28.6C115.5 28.4 115.5 28.2 115.3 28.1C115.2 28 115 27.9 114.8 27.9C114.6 27.9 114.5 27.9 114.3 28C114.2 28.1 114.1 28.2 114 28.4V30.7H113.5V27.5H114V27.6Z" fill="white"/>
<path d="M119.5 30.7H119V26.2H119.5V30.7Z" fill="white"/>
<path d="M120.7 26.6999C120.7 26.5999 120.7 26.4999 120.8 26.4999C120.9 26.3999 121 26.3999 121 26.3999C121.1 26.3999 121.2 26.3999 121.2 26.4999C121.3 26.5999 121.3 26.5999 121.3 26.6999C121.3 26.7999 121.3 26.8999 121.2 26.8999C121.1 26.9999 121.1 26.9999 121 26.9999C120.9 26.9999 120.8 26.9999 120.8 26.8999C120.7 26.8999 120.7 26.7999 120.7 26.6999ZM121.3 30.6999H120.8V27.4999H121.3V30.6999Z" fill="white"/>
<path d="M123.5 30.0001L124.3 27.6001H124.9L123.8 30.8001H123.4L122.2 27.6001H122.8L123.5 30.0001Z" fill="white"/>
<path d="M125.7 26.6999C125.7 26.5999 125.7 26.4999 125.8 26.4999C125.9 26.3999 125.9 26.3999 126 26.3999C126.2 26.3999 126.3 26.4999 126.3 26.6999C126.3 26.6999 126.3 26.6999 126.3 26.7999C126.3 26.8999 126.3 26.9999 126.2 26.9999C126.1 27.0999 126 27.0999 126 27.0999C125.9 27.0999 125.8 27.0999 125.8 26.9999C125.7 26.8999 125.7 26.7999 125.7 26.6999ZM126.3 30.6999H125.8V27.4999H126.3V30.6999Z" fill="white"/>
<path d="M128 27.6V28C128.2 27.7 128.6 27.5 129 27.5C129.7 27.5 130 27.9 130 28.6V30.7H129.5V28.6C129.5 28.4 129.5 28.2 129.3 28.1C129.2 28 129 27.9 128.8 27.9C128.6 27.9 128.5 27.9 128.3 28C128.2 28.1 128.1 28.2 128 28.4V30.7H127.5V27.5H128V27.6Z" fill="white"/>
<path d="M131 29.0999C131 28.6999 131.1 28.2999 131.3 27.8999C131.7 27.3999 132.5 27.2999 133 27.6999C133.1 27.6999 133.1 27.7999 133.2 27.7999V27.3999H133.7V30.4999C133.7 30.8999 133.6 31.1999 133.3 31.4999C133 31.6999 132.7 31.8999 132.3 31.8999C132.1 31.8999 131.8 31.7999 131.6 31.7999C131.4 31.6999 131.2 31.5999 131.1 31.3999L131.4 31.0999C131.6 31.3999 131.9 31.4999 132.3 31.4999C132.5 31.4999 132.8 31.3999 132.9 31.2999C133.1 31.0999 133.1 30.8999 133.1 30.6999V30.3999C132.9 30.6999 132.5 30.7999 132.2 30.7999C131.8 30.7999 131.5 30.5999 131.3 30.2999C131.1 29.9999 130.9 29.5999 131 29.0999ZM131.5 29.1999C131.5 29.4999 131.6 29.7999 131.7 29.9999C131.8 30.1999 132.1 30.2999 132.3 30.2999C132.6 30.2999 132.9 30.0999 133.1 29.7999V28.2999C133 27.9999 132.7 27.7999 132.3 27.7999C132.1 27.7999 131.8 27.8999 131.7 28.0999C131.6 28.4999 131.5 28.8999 131.5 29.1999Z" fill="white"/>
<path d="M30.1 19.5001C30.2 19.1001 30.5 18.7001 30.9 18.5001C30.9 18.5001 32.5 20.1001 35.6 20.1001C38 20.1001 39.4 18.9001 39.4 17.2001C39.4 16.0001 38.3 15.1001 36.4 14.7001L33.9 14.0001C31.6 13.4001 29.6 12.1001 29.6 9.4001C29.6 6.5001 32 4.1001 35.9 4.1001C38.4 4.1001 40 4.8001 40.7 5.2001C41.4 5.6001 41.8 6.3001 41.3 7.1001C41.1 7.4001 40.9 7.7001 40.6 7.9001C39.2 7.0001 37.6 6.5001 36 6.5001C33.7 6.5001 32.6 7.7001 32.6 9.3001C32.6 10.6001 34.1 11.2001 35.5 11.6001L37.9 12.3001C41.2 13.2001 42.4 14.9001 42.4 17.2001C42.4 20.5001 39.6 22.5001 35.7 22.5001C33.3 22.5001 31.5 21.8001 31 21.5001C30.1 21.0001 29.8 20.3001 30.1 19.5001Z" fill="white"/>
<path d="M45.6 6.10005C45.6 5.40005 45.3 4.30005 46.5 4.30005H52C56.5 4.30005 59 7.00005 58.9 10.4C58.9 13.8 56.5 16.6 52.1 16.6H48.5C48.5 17.3 48.5 20.2 48.6 20.4C48.6 21.1 49 22.2001 47.7 22.2001H46.6C45.6 22.2001 45.6 21.3 45.6 20.6C45.7 18.9 45.6 6.60005 45.6 6.10005ZM52 14.6C54.7 14.6 56 13 56 10.7C56 8.30005 54.8 6.50005 52 6.50005H48.5C48.4 7.70005 48.6 13.3 48.5 14.6C48.5 14.6 52 14.6 52 14.6Z" fill="white"/>
<path d="M62.4999 6.10005C62.4999 5.40005 62.0999 4.30005 63.3999 4.30005H64.4999C65.4999 4.30005 65.4999 5.20005 65.4999 5.90005C65.3999 8.70005 65.4999 19.4 65.5999 20.5C65.6999 21.2 65.9999 22.3 64.6999 22.3H63.6999C62.6999 22.3 62.6999 21.4001 62.6999 20.7001C62.6999 18.9001 62.4999 8.80005 62.4999 6.10005Z" fill="white"/>
<path d="M70.4 6.0999C70.4 5.3999 70.3 4.3999 71.6 4.3999H77C81.4 4.3999 83.7 6.7999 83.7 10.2999C83.7 13.0999 81.9 14.8999 79.7 15.6999L82.6 19.4999C83 20.0999 83.5 20.0999 84.1 20.0999C84.5 21.8999 83.7 22.4999 82.5 22.4999C81.2 22.4999 80.7 21.7999 80.1 20.9999L76.7 16.0999H73.1C73.1 16.7999 73 20.2999 73.1 20.8999C73.2 21.7999 72.9 22.0999 72.2 22.0999H71.2C70.2 22.0999 70.2 21.1999 70.2 20.4999C70.4 18.8999 70.4 6.5999 70.4 6.0999ZM77 14.0999C79.1 14.0999 80.7 12.7999 80.7 10.2999C80.7 8.4999 79.6 6.4999 76.9 6.4999H73.1C73 8.0999 73.1 13.0999 73.1 14.0999H77V14.0999Z" fill="white"/>
<path d="M87.9 6.10005C87.9 5.40005 87.5 4.30005 88.8 4.30005H89.9C90.9 4.30005 90.9 5.20005 90.9 5.90005C90.8 8.70005 91 19.4 91 20.5C91.1 21.2 91.4 22.3 90.1 22.3H89.1C88.1 22.3 88.1 21.4001 88.1 20.7001C88.1 18.9001 87.9 8.80005 87.9 6.10005Z" fill="white"/>
<path d="M97.3 18.1001C98.4 18.1001 99.4 18.3001 99.4 20.3001C99.4 22.3001 98.5 22.5001 97.3 22.5001C96.1 22.5001 95.2 22.3001 95.2 20.3001C95.2 18.3001 96.1 18.1001 97.3 18.1001Z" fill="white"/>
<path d="M103.3 5.5999C103.3 4.8999 103.2 4.3999 104.6 4.3999H109.5C114 4.3999 115.8 6.3999 115.8 8.9999C115.8 12.1999 112.5 12.7999 112.5 12.7999V12.9999C112.5 12.9999 116.6 13.3999 116.6 17.2999C116.6 20.1999 114.5 22.3999 110 22.3999H104.4C103.4 22.3999 103.4 21.4999 103.4 20.7999C103.4 18.8999 103.3 6.0999 103.3 5.5999ZM109.9 20.0999C111.9 20.0999 113.6 19.1999 113.6 16.8999C113.6 14.9999 112.1 13.8999 109.8 13.8999H106.1V20.0999H109.9ZM109.5 11.8999C111.6 11.8999 112.9 10.9999 112.9 9.0999C112.9 7.3999 111.5 6.4999 109.5 6.4999H106.2V11.8999H109.5V11.8999Z" fill="white"/>
<path d="M127.1 4.1001C132.2 4.1001 135 8.1001 135 13.3001C135 18.5001 132.2 22.5001 127.1 22.5001C121.7 22.5001 119.1 18.6001 119.1 13.3001C119.1 8.1001 121.7 4.1001 127.1 4.1001ZM132.1 13.3001C132.1 9.7001 130.8 6.5001 127.1 6.5001C123.3 6.5001 122 9.7001 122 13.3001C122 16.9001 123.3 20.1001 127.1 20.1001C130.8 20.1001 132.1 16.8001 132.1 13.3001Z" fill="white"/>
</g>
<defs>
<clipPath id="clip0_1_272">
<rect width="135" height="32" fill="white"/>
</clipPath>
</defs>
</svg>
