<svg width="800" height="298" viewBox="0 0 800 298" fill="none" xmlns="http://www.w3.org/2000/svg">
<g clip-path="url(#clip0)">
<path fill-rule="evenodd" clip-rule="evenodd" d="M161.648 153.023C165.063 151.322 168.097 148.702 170.043 145.563L170.043 145.623V180.827C170.043 185.612 167.338 189.985 163.059 192.116L99.3185 223.862C85.6154 230.686 69.5251 220.707 69.5251 205.383C69.5251 201.386 71.785 197.733 75.3594 195.953L106.539 180.423C107.025 180.212 107.509 179.987 107.991 179.747L161.648 153.023Z" fill="white"/>
<path fill-rule="evenodd" clip-rule="evenodd" d="M133.325 122.668C146.519 116.096 161.533 122.164 167.454 134.175C168.826 136.958 168.551 139.859 167.118 142.547C165.663 145.276 163.03 147.716 159.898 149.276L106.241 175.999C93.047 182.571 78.0337 176.503 72.1129 164.493C70.7407 161.709 71.0152 158.808 72.4485 156.121C73.9039 153.392 76.5363 150.952 79.6685 149.392L133.325 122.668Z" fill="white"/>
<path fill-rule="evenodd" clip-rule="evenodd" d="M77.9195 145.644C74.5041 147.345 71.4706 149.965 69.5243 153.104L69.5241 153.044L69.5242 117.84C69.5242 113.055 72.2293 108.682 76.5081 106.551L140.249 74.8053C153.952 67.9805 170.042 77.9603 170.042 93.2842C170.042 97.2814 167.783 100.934 164.208 102.714L133.029 118.244C132.543 118.455 132.058 118.68 131.577 118.92L77.9195 145.644Z" fill="white"/>
<path d="M217.858 135.133C217.858 147.065 227.759 151.762 240.454 154.047L244.77 154.809C253.021 156.332 257.21 158.363 257.21 163.187C257.21 168.01 252.767 171.565 244.77 171.565C236.645 171.565 230.044 168.264 228.267 157.982L215.319 161.156C217.477 175.119 228.648 182.355 244.77 182.355C260.51 182.355 271.287 174.992 271.287 162.171C271.287 149.35 260.383 145.669 246.674 143.13L242.358 142.368C235.503 141.099 231.314 139.068 231.314 134.244C231.314 129.674 235.376 126.881 242.231 126.881C249.086 126.881 254.036 129.801 255.56 137.417L268.254 133.609C265.461 123.073 256.321 116.218 242.231 116.218C227.506 116.218 217.858 123.073 217.858 135.133Z" fill="white"/>
<path d="M277.786 129.293V167.63C277.786 175.5 282.864 180.578 290.48 180.578H308.125V169.153H295.304C293.019 169.153 291.75 167.884 291.75 165.345V129.293H310.029V117.995H291.75V96.9368H277.786V117.995V129.293Z" fill="white"/>
<path d="M376.246 180.578V117.995H362.536V127.135H361.267C357.458 121.423 351.111 116.218 339.56 116.218C324.2 116.218 310.871 128.912 310.871 149.223C310.871 169.661 324.2 182.355 339.56 182.355C351.111 182.355 357.458 177.15 361.267 171.311H362.536V180.578H376.246ZM343.622 170.295C332.705 170.295 324.834 162.552 324.834 149.223C324.834 136.021 332.705 128.151 343.622 128.151C354.539 128.151 362.536 136.021 362.536 149.223C362.536 162.425 354.539 170.295 343.622 170.295Z" fill="white"/>
<path d="M382.335 149.223C382.335 168.645 396.679 182.355 414.959 182.355C432.223 182.355 442.505 172.073 445.806 158.363L432.223 155.189C430.827 163.948 425.495 170.168 415.086 170.168C404.423 170.168 396.298 162.171 396.298 149.223C396.298 136.402 404.423 128.405 415.086 128.405C425.241 128.405 430.827 134.752 431.842 143.13L445.298 140.337C442.759 126.5 432.096 116.218 414.832 116.218C396.679 116.218 382.335 129.801 382.335 149.223Z" fill="white"/>
<path d="M515.503 117.995H494.812L465.869 143.384V96.9368H452.033V180.578H465.869V160.394L476.025 151.635L497.859 180.578H514.996L486.053 143.13L515.503 117.995Z" fill="white"/>
<path d="M517.131 135.135C517.131 147.067 527.032 151.764 539.727 154.049L544.043 154.811C552.294 156.334 556.483 158.365 556.483 163.189C556.483 168.013 552.04 171.567 544.043 171.567C535.918 171.567 529.317 168.267 527.54 157.984L514.592 161.158C516.75 175.122 527.921 182.357 544.043 182.357C559.783 182.357 569.939 174.995 569.939 162.173C569.939 149.352 559.657 145.671 545.947 143.132L541.631 142.37C534.776 141.101 530.587 139.07 530.587 134.246C530.587 129.676 534.649 126.884 541.504 126.884C548.359 126.884 553.309 129.803 554.833 137.42L567.527 133.612C564.734 123.075 555.594 116.22 541.504 116.22C526.779 116.22 517.131 123.075 517.131 135.135Z" fill="white"/>
<path d="M576.225 201.622H590.062V171.694H591.331C594.886 177.153 601.233 182.357 612.784 182.357C628.144 182.357 641.473 169.663 641.473 149.225C641.473 128.915 628.144 116.22 612.784 116.22C601.233 116.22 594.886 121.425 591.077 127.137H589.808V117.998H576.225V201.622ZM608.722 170.298C597.932 170.298 589.935 162.427 589.935 149.225C589.935 136.023 597.932 128.153 608.722 128.153C619.639 128.153 627.51 136.023 627.51 149.225C627.51 162.554 619.639 170.298 608.722 170.298Z" fill="white"/>
<path d="M661.526 117.998H647.689V180.58H661.526V117.998Z" fill="white"/>
<path d="M671.674 117.998V180.58H685.51V148.464C685.51 135.516 692.238 128.28 702.648 128.28C711.914 128.28 717.373 133.231 717.373 143.767V180.58H731.336V143.005C731.336 127.011 721.181 116.855 706.837 116.855C694.904 116.855 689.319 122.187 686.526 127.645H685.256V117.998H671.674Z" fill="white"/>
<rect x="647.693" y="96.9459" width="13.8578" height="13.857" fill="white"/>
<path d="M217.858 135.133C217.858 147.065 227.759 151.762 240.454 154.047L244.77 154.809C253.021 156.332 257.21 158.363 257.21 163.187C257.21 168.01 252.767 171.565 244.77 171.565C236.645 171.565 230.044 168.264 228.267 157.982L215.319 161.156C217.477 175.119 228.648 182.355 244.77 182.355C260.51 182.355 271.287 174.992 271.287 162.171C271.287 149.35 260.383 145.669 246.674 143.13L242.358 142.368C235.503 141.099 231.314 139.068 231.314 134.244C231.314 129.674 235.376 126.881 242.231 126.881C249.086 126.881 254.036 129.801 255.56 137.417L268.254 133.609C265.461 123.073 256.321 116.218 242.231 116.218C227.506 116.218 217.858 123.073 217.858 135.133Z" fill="white"/>
<path d="M277.786 129.293V167.63C277.786 175.5 282.864 180.578 290.48 180.578H308.125V169.153H295.304C293.019 169.153 291.75 167.884 291.75 165.345V129.293H310.029V117.995H291.75V96.9368H277.786V117.995V129.293Z" fill="white"/>
<path d="M376.246 180.578V117.995H362.536V127.135H361.267C357.458 121.423 351.111 116.218 339.56 116.218C324.2 116.218 310.871 128.912 310.871 149.223C310.871 169.661 324.2 182.355 339.56 182.355C351.111 182.355 357.458 177.15 361.267 171.311H362.536V180.578H376.246ZM343.622 170.295C332.705 170.295 324.834 162.552 324.834 149.223C324.834 136.021 332.705 128.151 343.622 128.151C354.539 128.151 362.536 136.021 362.536 149.223C362.536 162.425 354.539 170.295 343.622 170.295Z" fill="white"/>
<path d="M382.335 149.223C382.335 168.645 396.679 182.355 414.959 182.355C432.223 182.355 442.505 172.073 445.806 158.363L432.223 155.189C430.827 163.948 425.495 170.168 415.086 170.168C404.423 170.168 396.298 162.171 396.298 149.223C396.298 136.402 404.423 128.405 415.086 128.405C425.241 128.405 430.827 134.752 431.842 143.13L445.298 140.337C442.759 126.5 432.096 116.218 414.832 116.218C396.679 116.218 382.335 129.801 382.335 149.223Z" fill="white"/>
<path d="M515.503 117.995H494.812L465.869 143.384V96.9368H452.033V180.578H465.869V160.394L476.025 151.635L497.859 180.578H514.996L486.053 143.13L515.503 117.995Z" fill="white"/>
<path d="M517.131 135.135C517.131 147.067 527.032 151.764 539.727 154.049L544.043 154.811C552.294 156.334 556.483 158.365 556.483 163.189C556.483 168.013 552.04 171.567 544.043 171.567C535.918 171.567 529.317 168.267 527.54 157.984L514.592 161.158C516.75 175.122 527.921 182.357 544.043 182.357C559.783 182.357 569.939 174.995 569.939 162.173C569.939 149.352 559.657 145.671 545.947 143.132L541.631 142.37C534.776 141.101 530.587 139.07 530.587 134.246C530.587 129.676 534.649 126.884 541.504 126.884C548.359 126.884 553.309 129.803 554.833 137.42L567.527 133.612C564.734 123.075 555.594 116.22 541.504 116.22C526.779 116.22 517.131 123.075 517.131 135.135Z" fill="white"/>
<path d="M576.225 201.622H590.062V171.694H591.331C594.886 177.153 601.233 182.357 612.784 182.357C628.144 182.357 641.473 169.663 641.473 149.225C641.473 128.915 628.144 116.22 612.784 116.22C601.233 116.22 594.886 121.425 591.077 127.137H589.808V117.998H576.225V201.622ZM608.722 170.298C597.932 170.298 589.935 162.427 589.935 149.225C589.935 136.023 597.932 128.153 608.722 128.153C619.639 128.153 627.51 136.023 627.51 149.225C627.51 162.554 619.639 170.298 608.722 170.298Z" fill="white"/>
<path d="M661.526 117.998H647.689V180.58H661.526V117.998Z" fill="white"/>
<path d="M671.674 117.998V180.58H685.51V148.464C685.51 135.516 692.238 128.28 702.648 128.28C711.914 128.28 717.373 133.231 717.373 143.767V180.58H731.336V143.005C731.336 127.011 721.181 116.855 706.837 116.855C694.904 116.855 689.319 122.187 686.526 127.645H685.256V117.998H671.674Z" fill="white"/>
<rect x="647.693" y="96.9459" width="13.8578" height="13.857" fill="white"/>
</g>
<defs>
<clipPath id="clip0">
<rect width="800" height="297.143" fill="white" transform="translate(0 0.428589)"/>
</clipPath>
</defs>
</svg>
