<svg width="300" height="31" viewBox="0 0 300 31" fill="none" xmlns="http://www.w3.org/2000/svg">
<g clip-path="url(#clip0_1_298)">
<path d="M17.071 1.35882C15.3948 0.432485 13.498 -0.00862597 11.6012 0.0354852C9.70445 0.0354852 7.8959 0.344263 6.13145 1.00593C4.63167 1.53527 3.35245 2.4616 2.33789 3.69671C1.41156 4.88771 0.926334 6.34338 0.970445 7.84316C0.926334 10.0487 1.94089 12.2102 3.66123 13.5776C5.42567 15.0774 7.8959 16.0037 11.0278 16.3125C13.3216 16.5331 14.9537 17.1947 16.1006 18.2093C17.1592 19.1356 17.7768 20.459 17.7768 21.8705C17.7768 23.3262 17.0269 24.6936 15.7918 25.4876C14.3361 26.3698 12.704 26.8551 10.9837 26.811C9.43979 26.811 7.94001 26.4581 6.57256 25.7964C5.24923 25.0906 4.41112 24.2525 3.92589 23.2821C3.573 22.5322 2.82311 22.0028 1.94089 21.9587C1.76445 21.9587 1.67622 21.9587 1.588 21.9587C1.14689 22.047 0.74989 22.2675 0.441112 22.5763C0.176445 22.841 0 23.1938 0 23.5467C0 23.8114 0.0441112 24.0761 0.176445 24.2966C1.01456 26.1934 2.47022 27.7373 4.32289 28.6636C6.35201 29.8105 8.6899 30.384 11.0278 30.3399C12.8363 30.3399 14.6008 30.0311 16.2329 29.4135C17.7768 28.8401 19.1442 27.8255 20.1588 26.5022C21.1734 25.1347 21.7027 23.5026 21.6145 21.7823C21.6145 19.268 20.7764 17.283 19.1001 15.7832C17.4239 14.2834 15.086 13.3129 12.0423 13.0042C9.30745 12.7395 7.41067 12.1661 6.35201 11.2838C5.33745 10.4898 4.764 9.25472 4.764 7.9755C4.71989 6.65216 5.38156 5.41705 6.52845 4.75538C7.71945 4.00549 9.26334 3.60849 11.2042 3.60849C12.5717 3.56438 13.895 3.87316 15.086 4.53483C16.1447 5.15238 17.0269 6.0346 17.6445 7.09327C17.8209 7.44616 18.0856 7.71083 18.4385 7.88727C18.7472 8.06372 19.1442 8.15194 19.4971 8.15194C19.85 8.15194 20.2029 8.06372 20.4676 7.88727C20.9528 7.5785 21.2175 7.09327 21.2175 6.51983C21.2175 6.0346 21.041 5.54938 20.7764 5.15238C19.8941 3.60849 18.6149 2.32927 17.071 1.35882ZM54.6537 0.917708C54.3449 0.564819 53.8597 0.344263 53.3745 0.344263H33.0834C32.5981 0.344263 32.1129 0.520708 31.76 0.873597C31.0543 1.62349 31.1425 2.81449 31.8924 3.52027C32.157 3.74082 32.4658 3.91727 32.8187 3.96138C32.9069 3.96138 32.9951 3.96138 33.0834 3.96138H41.2439V27.9137C41.2439 28.9724 42.082 29.8546 43.1407 29.8987H43.1848C43.7142 29.8987 44.1994 29.7223 44.5964 29.3253C44.9934 28.9724 45.1698 28.4431 45.1698 27.9137V4.0496H53.3304C53.8156 4.09371 54.2567 3.87316 54.6096 3.56438C54.9625 3.21149 55.1389 2.72627 55.1389 2.24104C55.1831 1.71171 55.0066 1.2706 54.6537 0.917708ZM85.4874 30.0311C85.8844 30.0311 86.2373 29.8987 86.5461 29.6782C86.9431 29.3694 87.2519 28.9283 87.3401 28.4431C87.4283 27.9578 87.3401 27.4726 87.0313 27.0315L80.7675 17.9887C82.0909 17.4153 83.2378 16.5772 84.12 15.4744C85.5756 13.8423 86.3696 11.7249 86.3255 9.51939C86.3255 4.4466 82.2232 0.344263 77.1504 0.300152H69.7397C68.7693 0.388374 67.9312 1.22649 67.8871 2.28516V28.0902C67.8871 28.5754 68.0635 29.0606 68.4605 29.4135C68.8134 29.7664 69.2986 29.987 69.7838 29.987C70.7984 29.9429 71.6365 29.1489 71.6806 28.0902V4.18194H77.1504C80.15 4.18194 82.5761 6.60805 82.5761 9.60761C82.5761 12.2102 80.6793 14.4157 78.1209 14.9009L77.4592 14.9892C76.7975 15.0333 76.18 15.4744 75.9594 16.0919C75.6065 16.6654 75.6947 17.4153 76.1359 17.9446L83.9876 29.2371C84.2964 29.7223 84.8699 30.0311 85.4874 30.0311ZM100.662 0.961819C100.265 1.31471 100.088 1.84404 100.088 2.37338V28.002C100.044 29.1047 100.838 30.0311 101.941 30.0752C103.044 30.1193 103.97 29.3253 104.014 28.2225C104.014 28.1784 104.014 28.0902 104.014 28.0461V2.37338C104.014 1.2706 103.132 0.388374 102.029 0.388374C101.5 0.388374 101.015 0.60893 100.662 0.961819ZM142.832 0.873597C142.479 0.564819 141.994 0.388374 141.553 0.432485C141.156 0.432485 140.803 0.520708 140.45 0.697152C140.097 0.917708 139.876 1.22649 139.788 1.62349L130.084 24.4731L120.512 1.57938C120.203 0.829486 119.497 0.344263 118.659 0.388374C118.174 0.344263 117.689 0.520708 117.336 0.829486C117.027 1.13827 116.85 1.57938 116.895 2.02049C116.895 2.4616 117.027 2.94682 117.203 3.34382L128.319 28.6636C128.584 29.4135 129.29 29.8987 130.084 29.8987C130.878 29.8987 131.584 29.4135 131.848 28.6636L143.097 2.99093C143.229 2.68216 143.317 2.32927 143.317 2.02049C143.317 1.62349 143.141 1.18238 142.832 0.873597ZM175.562 27.208L164.887 1.71171C164.623 0.917708 163.873 0.344263 163.035 0.388374C162.197 0.388374 161.447 0.917708 161.182 1.71171L150.551 27.1197C150.419 27.3844 150.375 27.6932 150.375 28.002C150.331 28.5313 150.551 29.0165 150.904 29.4135C151.257 29.8105 151.786 29.987 152.316 29.987C152.713 29.987 153.066 29.8987 153.374 29.6782C153.683 29.4576 153.948 29.1489 154.124 28.7519L163.123 6.74038L171.989 28.7519C172.122 29.1489 172.386 29.4576 172.695 29.6782C173.004 29.8987 173.401 29.987 173.798 29.987C174.327 29.987 174.813 29.8105 175.21 29.4135C175.562 29.0606 175.783 28.5754 175.783 28.0461C175.739 27.7373 175.695 27.4726 175.562 27.208ZM201.147 30.384C202.823 30.384 204.499 30.1193 206.087 29.5459C207.631 29.0165 209.087 28.2225 210.366 27.2521C210.763 26.9433 211.028 26.5022 211.072 26.017C211.16 25.5317 211.028 25.0024 210.675 24.6054C210.366 24.2084 209.925 23.9437 209.44 23.8996C208.955 23.8114 208.425 23.9437 208.028 24.2966C206.043 25.8405 203.617 26.6345 201.103 26.6345C194.795 26.6345 189.634 21.5617 189.634 15.2538C189.634 8.94594 194.707 3.78494 201.015 3.78494C203.573 3.78494 206.087 4.62305 208.072 6.21105C208.469 6.51983 208.955 6.65216 209.484 6.60805C210.498 6.47572 211.248 5.54938 211.16 4.53483V4.49071C211.072 4.00549 210.851 3.56438 210.454 3.2556C209.175 2.24104 207.675 1.44704 206.131 0.917708C200.662 -1.1114 194.486 0.300153 190.34 4.40249C188.972 5.76994 187.825 7.40205 187.075 9.1665C186.281 11.0633 185.884 13.0483 185.884 15.1215C185.884 17.1506 186.281 19.1797 187.075 21.0324C187.825 22.841 188.928 24.5172 190.34 25.8846C193.207 28.7519 197.089 30.384 201.147 30.384ZM225.981 0.961819C225.584 1.31471 225.408 1.84404 225.408 2.37338V28.002C225.408 29.1047 226.29 29.987 227.393 29.987C228.496 29.987 229.378 29.1047 229.378 28.002V2.37338C229.378 1.2706 228.452 0.388374 227.393 0.388374C226.82 0.388374 226.334 0.60893 225.981 0.961819ZM265.417 0.917708C265.064 0.564819 264.623 0.388374 264.138 0.388374H243.846C243.361 0.388374 242.876 0.564819 242.523 0.917708C242.17 1.2706 241.994 1.71171 242.038 2.19693C241.95 3.12327 242.655 3.96138 243.582 4.00549C243.67 4.00549 243.758 4.00549 243.846 4.00549H252.007V27.9579C252.007 29.0165 252.845 29.8987 253.904 29.9429H253.948C254.477 29.9429 254.962 29.7664 255.359 29.3694C255.756 29.0165 255.933 28.4872 255.933 27.9579V4.0496H264.093C264.579 4.09371 265.02 3.87316 265.373 3.56438C265.726 3.21149 265.902 2.72627 265.902 2.24104C265.946 1.71171 265.77 1.2706 265.417 0.917708ZM299.471 0.917708C299.162 0.564819 298.765 0.388374 298.28 0.388374C297.574 0.344263 296.868 0.741263 296.515 1.35882L287.517 15.5626L278.694 1.49115C278.474 1.18238 278.209 0.917708 277.9 0.653041C277.592 0.476596 277.239 0.388374 276.93 0.388374C276.401 0.388374 275.915 0.564819 275.518 0.917708C275.165 1.2706 274.945 1.75582 274.945 2.24104C274.945 2.68216 275.077 3.12327 275.386 3.43205L285.487 19.1356V27.9579C285.487 29.0165 286.326 29.8987 287.384 29.9429C287.384 29.9429 287.384 29.9429 287.428 29.9429C287.958 29.9429 288.443 29.7223 288.84 29.3694C289.237 29.0165 289.413 28.4872 289.413 27.9579V19.1356L299.603 3.43205C299.824 3.07916 299.956 2.63805 300 2.19693C299.956 1.75582 299.779 1.2706 299.471 0.917708ZM297.927 28.8401H298.103C298.324 28.8401 298.412 28.9283 298.456 29.1047C298.456 29.2371 298.544 29.4135 298.588 29.5459H299.03C298.985 29.4135 298.941 29.2371 298.897 29.1047C298.853 28.8842 298.765 28.7077 298.588 28.6636V28.6195C298.809 28.5754 298.941 28.399 298.941 28.2225C298.941 28.0902 298.897 27.9137 298.765 27.8255C298.588 27.7373 298.368 27.6932 298.191 27.7373C297.971 27.7373 297.75 27.7373 297.53 27.7814V29.5459H297.927V28.8401ZM297.927 28.0461C298.015 28.0461 298.059 28.0461 298.147 28.0461C298.412 28.0461 298.5 28.1343 298.5 28.3107C298.5 28.4872 298.324 28.5754 298.103 28.5754H297.927V28.0461ZM298.191 26.8551C297.221 26.8551 296.427 27.605 296.427 28.5754V28.6195C296.427 29.59 297.221 30.384 298.191 30.384C299.162 30.384 299.956 29.59 299.956 28.6636V28.6195C299.956 27.6491 299.206 26.8551 298.191 26.8551ZM298.191 27.208C298.941 27.208 299.515 27.8255 299.515 28.5754V28.6195C299.559 29.3694 298.985 29.987 298.28 30.0311H298.236C297.486 30.0311 296.912 29.4135 296.912 28.6636V28.6195C296.868 27.8696 297.442 27.2521 298.191 27.208Z" fill="white"/>
</g>
<defs>
<clipPath id="clip0_1_298">
<rect width="300" height="31" fill="white"/>
</clipPath>
</defs>
</svg>
