<svg xmlns="http://www.w3.org/2000/svg" fill="none" viewBox="0 0 142 43" height="43" width="142">
<path fill="white" d="M123.844 25.6358C123.945 25.9434 124.426 25.9225 124.728 26.0111C124.837 26.2092 124.827 26.1727 124.941 26.5142H120.925C121.084 26.2509 121.076 26.2014 121.182 26.0111C121.468 25.873 121.858 25.8834 121.921 25.5107V19.2111C122.537 19.0938 123.202 19.0286 123.847 18.9139L123.844 25.6358ZM68.0868 26.5142L67.9101 26.0111C67.333 25.899 66.9327 25.8912 66.9327 25.5263V16.3284H68.786C69.5892 16.3284 69.6438 16.9852 69.9037 18.205H70.447L70.3222 15.3197H61.3391L61.2169 18.205H61.755C62.0123 16.9852 62.0695 16.3284 62.8727 16.3284H64.7311V25.5263C64.7311 25.8912 64.3283 25.899 63.7512 26.0111L63.5745 26.5142H68.0868ZM92.7696 26.5142H93.9679L95.3065 22.1198L96.7023 26.5142H97.9474L99.5823 20.3136C99.7513 19.7558 100.118 19.7297 100.583 19.6463L100.757 19.1433H97.7316L97.9084 19.6463C98.3191 19.7245 98.5218 19.7714 98.5218 19.9747C98.5218 20.0816 98.501 20.1989 98.462 20.3501C98.1891 21.4864 97.716 23.4204 97.716 23.4204L96.4424 19.1433H95.1921L93.8769 23.3917C93.487 21.8148 93.461 21.6559 93.2713 20.8531C93.2089 20.5794 93.1413 20.3136 93.1413 20.1389C93.1413 19.8861 93.2739 19.7402 93.7989 19.6489L93.9783 19.1459H89.913L90.0923 19.6489C90.4926 19.7193 90.9111 19.7584 90.9943 20.0399L92.7696 26.5142ZM122.916 18.3223C123.498 18.3223 123.969 17.8505 123.969 17.2667C123.969 16.6855 123.498 16.2111 122.916 16.2111C122.334 16.2111 121.863 16.6855 121.863 17.2667C121.863 17.8479 122.336 18.3223 122.916 18.3223ZM70.6185 26.6028C71.193 26.6028 71.6608 26.1362 71.6608 25.5576C71.6608 24.979 71.193 24.5124 70.6185 24.5124C70.0389 24.5124 69.5736 24.979 69.5736 25.5576C69.5736 26.1362 70.0389 26.6028 70.6185 26.6028ZM82.9989 22.8235C82.9807 20.6811 84.179 18.8748 86.6717 18.8748C89.0656 18.8748 90.3471 20.5325 90.3471 22.8235C90.3471 25.0181 89.1384 26.7826 86.6717 26.7826C84.2024 26.7826 82.9989 25.0389 82.9989 22.8235ZM88.1949 22.8235C88.1949 20.6342 87.8102 19.5916 86.6691 19.5916C85.3382 19.5916 85.1485 21.1137 85.1485 22.8235C85.1485 25.1458 85.593 26.0632 86.6691 26.0632C87.7712 26.0659 88.1949 25.0832 88.1949 22.8235ZM83.9398 26.8035C83.277 26.8035 82.9625 26.4386 82.7364 26.0398C82.7364 26.0398 80.1319 21.5516 79.4223 20.8166C80.2255 20.5977 81.8552 20.0086 81.8552 17.8036C81.8552 16.2711 80.9039 15.3197 78.853 15.3197H73.0307L73.2048 15.8254C73.7844 15.9348 74.1847 15.9453 74.1847 16.3102V25.5263C74.1847 25.8912 73.7844 25.899 73.2048 26.0111L73.0307 26.5142H77.5404L77.3663 26.0111C76.7866 25.899 76.3863 25.8912 76.3863 25.5263V16.3519C76.3863 16.1642 76.4435 16.086 76.6255 16.086H77.6314C79.2195 16.086 79.573 16.881 79.573 18.1685C79.573 19.7714 78.6477 20.5012 77.2961 20.5012H76.8828C77.8705 22.0155 78.471 23.3578 79.4353 24.9399C80.7453 27.0902 81.5173 27.3951 82.8585 27.3951C83.498 27.3951 83.7813 27.2909 83.9944 27.2439L83.9398 26.8035ZM118.396 20.2562V18.8357L116.779 19.284C116.93 19.0364 117.112 18.4891 117.112 17.8636C117.112 16.2919 116.2 15.3223 114.112 15.3223H108.287L108.467 15.828C109.044 15.9375 109.441 15.9479 109.441 16.3128V25.5263C109.441 25.8912 109.041 25.899 108.467 26.0111L108.287 26.5142H112.8L112.626 26.0111C112.046 25.899 111.646 25.8912 111.646 25.5263V16.3571C111.646 16.1772 111.695 16.086 111.885 16.086H112.833C114.468 16.086 114.827 16.8705 114.827 18.1581C114.827 19.6568 114.006 20.5012 112.589 20.5012H112.139L112.545 21.1476C112.644 21.1606 112.958 21.2076 113.307 21.2076C114.565 21.2076 115.815 20.3918 116.142 20.0894C116.34 20.1337 116.475 20.2797 116.475 20.6159V25.5263C116.475 25.8912 116.072 25.899 115.495 26.0111L115.318 26.5142H119.553L119.378 26.0111C118.801 25.899 118.401 25.8912 118.401 25.5263L118.399 21.0434C118.549 20.827 118.812 20.4309 119.324 20.4309C119.787 20.4309 120.007 20.8505 120.111 21.5959H120.634L121.065 18.8774C119.844 18.8279 118.921 19.5681 118.396 20.2562ZM104.828 25.8182C105.561 25.8182 106.161 25.456 106.356 25.3361L106.413 25.8626C106.135 26.1076 105.35 26.7826 103.84 26.7826C101.342 26.7826 100.331 24.8956 100.331 22.8287C100.331 21.5229 100.713 18.8774 103.83 18.8774C106.593 18.8774 107.058 21.3822 107.112 22.2293L106.691 22.6228H102.384C102.382 24.4603 103.229 25.8182 104.828 25.8182ZM102.421 21.9217H105.173C105.173 21.0486 104.965 19.5916 103.798 19.5916C102.59 19.5916 102.421 21.132 102.421 21.9217ZM136.141 25.8182C136.874 25.8182 137.477 25.456 137.667 25.3361L137.724 25.8626C137.446 26.1076 136.664 26.7826 135.148 26.7826C132.653 26.7826 131.644 24.8956 131.644 22.8287C131.644 21.5229 132.029 18.8774 135.146 18.8774C137.906 18.8774 138.369 21.3822 138.426 22.2293L138.002 22.6228H133.695C133.693 24.4603 134.543 25.8182 136.141 25.8182ZM133.732 21.9217H136.49C136.49 21.0486 136.276 19.5916 135.109 19.5916C133.898 19.5916 133.732 21.132 133.732 21.9217ZM128.78 26.78C130.165 26.78 131.023 26.0632 131.27 25.8626L131.213 25.3361C130.992 25.4742 130.316 25.8182 129.661 25.8182C128.011 25.8182 127.023 24.3665 127.023 22.5342C127.023 21.0564 127.423 19.5916 128.668 19.5916C129.614 19.5916 130.012 20.2693 130.194 21.5933H130.719L131.096 19.2215C131.002 19.1928 130.139 18.8774 128.796 18.8774C126.539 18.8774 124.967 20.1233 124.967 22.7167C124.964 24.82 126.121 26.78 128.78 26.78ZM141.795 18.7993C141.795 19.589 141.158 20.2276 140.37 20.2276C139.583 20.2276 138.946 19.589 138.946 18.7993C138.946 18.0095 139.583 17.371 140.37 17.371C141.158 17.371 141.795 18.0121 141.795 18.7993ZM140.37 17.569C139.702 17.569 139.162 18.119 139.162 18.7993C139.162 19.4795 139.702 20.0295 140.37 20.0295C141.038 20.0295 141.579 19.4795 141.579 18.7993C141.579 18.119 141.038 17.569 140.37 17.569ZM141.085 19.5317C141.059 19.5056 141.038 19.4274 141.028 19.2997C141.017 19.1954 141.012 19.1381 141.01 19.1251C141.002 19.0521 140.989 18.9973 140.965 18.9609C140.932 18.8957 140.882 18.8514 140.812 18.8253C140.971 18.7471 141.049 18.6246 141.049 18.4526C141.049 18.2884 140.978 18.1659 140.841 18.0851C140.76 18.0382 140.648 18.0147 140.508 18.0147H139.741V19.5864H139.993V18.9218H140.407C140.498 18.9218 140.57 18.9296 140.622 18.9478C140.695 18.9713 140.739 19.0338 140.76 19.1329C140.771 19.1824 140.776 19.2632 140.781 19.3831C140.786 19.4795 140.804 19.5473 140.836 19.5864H141.137L141.085 19.5317ZM140.682 18.6742C140.628 18.7028 140.529 18.7185 140.383 18.7185H139.996V18.2285H140.443C140.534 18.2285 140.604 18.2363 140.651 18.2519C140.747 18.2832 140.794 18.3562 140.794 18.4656C140.794 18.5647 140.758 18.6324 140.682 18.6742Z"></path>
<path fill="white" d="M42.8705 0.0644531H0.863098V42.0645H11.922C12.307 37.8936 12.7735 36.2253 14.9783 31.897C17.4864 26.9736 18.2563 23.2286 18.2563 18.3753C18.2563 18.3219 18.2567 18.2639 18.2572 18.2022L18.2572 18.1904C18.261 17.6793 18.2666 16.9257 18.0755 16.497C17.084 16.5961 15.6666 16.1586 14.8267 15.1495C14.1151 14.2861 13.6309 13.1836 13.6309 12.4895C13.6309 12.3378 13.6485 12.227 13.7418 12.1336C14.6692 11.877 16.489 12.2911 17.7256 12.8686C18.233 12.0403 18.6763 11.5036 19.7787 10.897C18.7755 8.76779 16.9556 7.34445 14.2142 7.34445C11.0471 7.34445 8.97058 9.12362 8.29403 10.8445C8.08988 11.3695 8.36982 11.4803 8.70815 11.142C10.073 9.75362 11.5195 9.06529 13.4093 9.06529C15.7307 9.06529 17.0956 10.5236 17.0956 11.142C17.0956 11.3461 16.9439 11.3461 16.7398 11.2703L16.7117 11.2611C15.9765 11.0197 15.3181 10.8036 14.0626 10.8036C10.563 10.8036 8.95308 14.082 8.95308 16.8703C8.95308 18.4045 9.49556 19.5303 10.563 19.5303C11.3854 19.5303 11.8578 19.0053 12.2661 18.1653C12.3944 17.9028 12.6044 17.9028 12.7735 18.1828C13.001 18.5561 13.0535 19.192 13.0535 19.682C13.0535 21.8928 11.4262 23.0536 9.5539 23.0536C6.05424 23.0536 3.91945 19.9445 3.91945 15.902C3.91945 10.4361 7.3666 4.68445 14.3659 4.68445C19.4054 4.68445 22.0243 7.37362 23.4183 10.0395H24.1591C25.1681 7.64195 26.988 6.21862 29.7002 6.21862C33.3164 6.21862 34.8096 9.03029 34.8096 12.3786C34.8096 13.2946 34.7134 14.1743 34.6211 15.0185L34.621 15.0196C34.5357 15.7987 34.4538 16.5476 34.4538 17.267C34.4538 18.3695 34.9205 19.6061 36.1745 19.6061C36.9794 19.6061 37.656 19.0811 37.9885 17.827C38.0818 17.4886 38.286 17.4361 38.5717 17.792C38.7584 18.0195 39.0209 18.562 39.0209 19.1978C39.0209 20.9595 37.8777 22.8145 35.5912 22.832C33.6431 22.8495 32.4649 21.782 32.2199 20.4345C32.1849 20.207 32.3891 20.0961 32.5174 20.2828C33.229 21.222 34.1447 21.7236 35.4395 21.7236C36.1687 21.7236 36.8977 21.4028 37.1427 20.8603C37.2186 20.6911 37.1602 20.5978 37.0319 20.6561C36.5828 20.8603 36.192 20.9361 35.7604 20.9361C32.7623 20.9361 32.3891 17.8853 32.1849 14.7936C31.9049 15.5986 31.3625 16.2928 29.9568 16.4211C30.0851 16.217 30.1842 15.8786 30.1842 15.6336C30.1842 15.3886 30.056 15.2195 29.7526 15.2195C29.3036 15.2195 28.9127 15.5578 28.9127 16.1003C28.9127 16.645 29.3139 17.2178 29.7288 17.8102C30.0692 18.2962 30.4188 18.7953 30.5634 19.3028C30.6567 19.6411 30.6567 19.9386 30.6567 20.312C30.6567 20.9653 30.5809 21.607 30.4876 21.922C30.4117 22.167 30.2426 22.2428 29.7585 22.2428C29.4202 22.2428 29.3094 22.132 29.2335 21.852C29.1985 21.7003 29.1402 21.5136 29.0294 21.5136C28.9071 21.5136 28.8643 21.6514 28.81 21.8259L28.8019 21.852C28.6911 22.2428 28.3528 22.3186 27.5479 22.3186C27.2342 22.3186 27.0285 22.3028 26.8938 22.2924C26.8282 22.2874 26.7793 22.2836 26.743 22.2836C26.5388 22.2836 26.463 22.3595 26.463 22.4703C26.463 22.622 26.4805 22.7678 26.5213 22.902C26.5563 23.0128 26.6321 23.0536 26.8596 23.0128C27.6062 22.902 28.2653 22.8845 28.7669 22.8845C30.1318 22.8845 30.2076 23.0128 30.0968 23.4853C30.0034 23.8995 29.8518 24.442 29.6302 24.9261C29.4785 25.247 29.3677 25.282 29.146 25.2995C28.697 25.3345 28.0961 25.3578 27.647 25.3345C26.8318 25.2961 26.1168 25.0377 25.4368 24.7921C24.7741 24.5527 24.1447 24.3253 23.4883 24.3253C23.1328 24.3253 22.8078 24.3738 22.4747 24.4236C22.1247 24.4758 21.7659 24.5295 21.3535 24.5295C20.5486 24.5295 19.977 24.3603 19.4287 23.9695C18.6354 27.0028 18.3438 30.707 18.3438 32.4103C18.3438 33.5886 18.6821 34.8661 19.2829 35.3503C19.487 35.5195 19.6737 35.5195 19.8253 35.2395C21.2883 32.5185 22.8712 31.5806 24.3695 30.6929C25.7685 29.864 27.0935 29.0789 28.1778 26.927C28.2886 26.7228 28.5161 26.7578 28.5511 27.0028C28.9244 29.2136 28.6795 31.8911 28.1953 34.4578C28.137 34.7553 28.347 34.872 28.5511 34.6095C29.1694 33.822 29.9743 32.3986 30.2718 31.2553C30.3476 30.9753 30.5693 30.9578 30.6859 31.2378C31.415 33.017 32.2374 36.3886 32.4824 38.8211C32.4998 39.0836 32.7448 39.1011 32.8382 38.8561C33.3631 37.3978 33.7014 34.977 33.3048 33.1978C33.2698 32.9936 33.3806 32.877 33.6022 32.9936C36.8569 34.5745 40.0241 37.4795 42.8705 42.0528V0.0644531Z"></path>
<path fill="white" d="M29.566 10.827C30.82 10.827 31.625 11.8361 31.9983 13.0553C30.9834 12.8861 30.4234 12.8861 29.7876 13.6153C29.4319 12.5886 28.6094 11.7836 27.8978 11.4453C28.1253 11.1828 28.6269 10.827 29.566 10.827Z"></path>
<path fill="white" d="M23.29 15.2311C22.9692 14.7645 22.0534 14.1811 21.1377 14.1986C20.2978 14.1811 19.7728 14.7411 19.7728 15.1903C19.7728 15.3011 19.8487 15.377 19.9595 15.3011C20.1286 15.2078 20.2395 15.1728 20.3736 15.1728C20.5252 15.657 20.9569 16.2753 21.7968 16.2753C22.4325 16.2753 22.94 15.9778 22.8467 15.3011C22.9984 15.3011 23.0917 15.3186 23.22 15.3595C23.2958 15.377 23.3308 15.2836 23.2958 15.2311H23.29Z"></path>
<path fill="white" d="M27.542 20.662C27.1104 20.697 26.9238 20.5278 26.9238 19.9678H26.9296C26.9296 19.7811 27.0812 19.5361 27.3612 19.5361C27.4943 19.5361 27.6498 19.5539 27.8363 19.5751C28.1158 19.6071 28.465 19.647 28.9127 19.647C29.0583 19.647 29.1985 19.6255 29.3442 19.6031L29.4042 19.594C29.5439 19.5729 29.6901 19.5536 29.8518 19.5536C30.056 19.5536 30.1493 19.6878 30.1493 19.9853C30.1493 20.3995 30.1085 20.6445 29.8285 20.662C29.3968 20.6795 29.3036 20.7553 29.2102 21.1111C29.1519 21.2803 28.9652 21.3153 28.8719 21.1286C28.6444 20.662 28.2537 20.6036 27.542 20.662Z"></path>
<path fill="white" d="M13.2635 42.0645H15.0955C14.8096 40.6236 14.7746 39.2295 14.7746 38.0395C14.7746 37.6486 14.5879 37.532 14.3604 38.0395C13.7944 39.2645 13.3685 40.6178 13.2635 42.0645Z"></path>
</svg>
