<svg width="78" height="30" viewBox="0 0 78 30" fill="none" xmlns="http://www.w3.org/2000/svg">
<g clip-path="url(#clip0_1_311)">
<path d="M36.7 23.6001H34.7V5.50005H28V3.80005H43.3V5.60005H36.6V23.6001H36.7Z" fill="white"/>
<path d="M49.6 23.5999C49.6 23.1999 49.5 22.7999 49.5 22.3999C49.5 21.9999 49.5 21.5999 49.5 21.2999C49.1 22.0999 48.5 22.7999 47.7 23.1999C46.9 23.6999 46 23.8999 45 23.8999C44.3 23.9999 43.6 23.7999 43 23.5999C42.4 23.2999 41.8 22.8999 41.3 22.3999C40.4 21.2999 40 19.8999 40.1 18.4999V10.3999H42V17.6999C42 18.2999 42 18.9999 42.2 19.5999C42.3 20.0999 42.5 20.5999 42.8 20.9999C43.1 21.3999 43.5 21.6999 43.9 21.8999C44.4 22.0999 45 22.2999 45.6 22.1999C46.1 22.1999 46.6 22.0999 47.1 21.8999C47.6 21.6999 48 21.3999 48.3 20.9999C48.7 20.4999 49 19.9999 49.2 19.3999C49.4 18.6999 49.6 17.8999 49.5 17.0999V10.3999H51.3V20.5999C51.3 20.9999 51.3 21.3999 51.3 21.9999C51.3 22.5999 51.3 23.0999 51.4 23.4999L49.6 23.5999Z" fill="white"/>
<path d="M56.2999 23.6001H54.3999V3.80005H56.2999V23.6001Z" fill="white"/>
<path d="M61.5999 5.09995C61.5999 5.29995 61.5999 5.49995 61.4999 5.59995C61.3999 5.79995 61.2999 5.89995 61.1999 5.99995C60.9999 6.29995 60.5999 6.39995 60.2999 6.39995C59.8999 6.39995 59.5999 6.29995 59.2999 5.99995C58.9999 5.79995 58.8999 5.39995 58.8999 5.09995C58.8999 4.69995 58.9999 4.39995 59.2999 4.09995C59.3999 3.99995 59.5999 3.89995 59.6999 3.79995C59.8999 3.69995 59.9999 3.69995 60.1999 3.69995C60.3999 3.69995 60.4999 3.69995 60.6999 3.79995C60.8999 3.89995 60.9999 3.99995 61.0999 4.09995C61.1999 4.19995 61.2999 4.39995 61.3999 4.49995C61.5999 4.69995 61.5999 4.89995 61.5999 5.09995ZM61.1999 23.5999H59.2999V10.4999H61.1999V23.5999Z" fill="white"/>
<path d="M66.1 30H64.2V10.5H66.1V12.8H66.2C66.7 12 67.5 11.3 68.4 10.9C69.3 10.5 70.2 10.2 71.2 10.2C72.2 10.2 73.1 10.4 74 10.7C74.8 11 75.5 11.5 76.1 12.2C76.7 12.8 77.2 13.6 77.5 14.4C78.1 16.2 78.1 18.1 77.5 19.8C77.2 20.6 76.7 21.4 76.1 22C75.5 22.6 74.8 23.1 74 23.5C73.1 23.9 72.2 24 71.2 24C70.2 24 69.3 23.8 68.4 23.4C67.5 23 66.8 22.3 66.2 21.5H66.1V30ZM75.9 17C75.9 16.3 75.8 15.6 75.6 14.9C75.4 14.3 75.1 13.7 74.6 13.2C74.2 12.7 73.6 12.3 73 12.1C72 11.7 71 11.5 70 11.7C69 11.9 68 12.4 67.3 13.2C66.8 13.7 66.5 14.3 66.3 14.9C65.8 16.2 65.8 17.7 66.3 19.1C66.5 19.7 66.9 20.3 67.3 20.8C67.8 21.3 68.3 21.7 69 21.9C69.6 22.2 70.3 22.3 71 22.3C71.7 22.3 72.4 22.2 73.1 21.9C73.7 21.6 74.2 21.3 74.7 20.8C75.1 20.3 75.5 19.7 75.7 19.1C75.8 18.4 75.9 17.7 75.9 17Z" fill="white"/>
<path d="M24.2999 17.1C23.0999 16 21.8999 15 20.4999 14.2C20.6999 13.8 20.9999 13.4 21.1999 12.9C21.7999 11.7 23.6999 7.8 22.6999 6.5C22.1999 5.9 21.0999 5.5 19.0999 5.5C17.5999 5.5 15.9999 5.7 14.4999 6C13.9999 2.9 12.9999 0.5 11.8999 0.1C11.7999 0 11.5999 0 11.4999 0C8.69992 0 1.59992 7.5 0.499919 13.7C0.0999194 16.1 0.39992 19.1 3.69992 21.1C3.99992 21.8 4.39992 22.4 4.89992 22.9C6.29992 24.3 8.49992 25.1 11.2999 25.1C17.0999 25.1 25.3999 21.5 25.4999 19.1C25.4999 18.6 25.0999 17.9 24.2999 17.1ZM19.0999 6.4C20.9999 6.4 21.7999 6.8 21.8999 7C22.1999 7.4 21.8999 9.4 20.2999 12.5C20.0999 12.9 19.8999 13.3 19.5999 13.8C18.0999 12.9 16.4999 12.2 14.8999 11.6C14.8999 10 14.7999 8.5 14.4999 6.9C16.0999 6.6 17.5999 6.5 19.0999 6.4ZM8.49992 21.6C8.29992 21.6 8.09992 21.6 7.89992 21.6C6.69992 21 5.69992 20.2 4.99992 19C4.49992 18.3 4.09992 17.6 3.79992 16.8C3.99992 13.2 5.89992 11.4 9.29992 11.4C10.8999 11.4 12.4999 11.7 13.9999 12.3C13.9999 13.4 13.8999 14.4 13.6999 15.5C13.3999 18.3 11.9999 21.6 8.49992 21.6ZM9.39992 10.5C7.39992 10.5 5.19992 11.1 3.89992 13.3C3.99992 13.2 3.99992 13 4.09992 12.9C5.29992 10.4 8.29992 8.9 10.5999 8C11.5999 7.6 12.6999 7.3 13.7999 7.1C13.9999 8.5 14.0999 9.9 14.0999 11.3C12.5999 10.8 10.9999 10.5 9.39992 10.5ZM4.29992 19.6C4.69992 20.1 5.09992 20.6 5.49992 21C5.09992 20.8 4.69992 20.7 4.39992 20.5C4.19992 20.1 4.09992 19.6 3.99992 19.1C4.09992 19.2 4.19992 19.4 4.29992 19.6ZM14.7999 15.6C14.9999 14.6 15.0999 13.6 15.0999 12.5C16.5999 13 17.9999 13.7 19.2999 14.5C17.1999 17.9 14.2999 21 11.3999 21.8C12.9999 20.8 14.1999 18.7 14.7999 15.6ZM1.39992 13.9C2.49992 7.6 9.49992 0.9 11.4999 0.9H11.5999C12.2999 1.1 13.0999 3.3 13.5999 6.1C9.29992 7.2 4.89992 9.3 3.29992 12.4C2.99992 13 2.79992 13.6 2.69992 14.3C2.69992 14.3 2.69992 14.7 2.69992 15C2.59992 16.5 2.79992 18 3.19992 19.5C3.19992 19.6 3.19992 19.6 3.19992 19.7C1.49992 18.2 0.899919 16.3 1.39992 13.9ZM11.2999 24.2C8.69992 24.2 6.79992 23.6 5.49992 22.3C5.39992 22.2 5.29992 22.1 5.29992 22C6.49992 22.5 7.89992 22.8 9.19992 22.9C9.29992 22.9 9.79992 23 9.89992 23C12.4999 23 16.4999 20.9 20.0999 15C21.3999 15.8 22.5999 16.7 23.6999 17.8C24.2999 18.5 24.4999 18.9 24.4999 19.1C24.4999 20.4 17.5999 24.2 11.2999 24.2Z" fill="white"/>
</g>
<defs>
<clipPath id="clip0_1_311">
<rect width="78" height="30" fill="white"/>
</clipPath>
</defs>
</svg>
