<svg xmlns="http://www.w3.org/2000/svg" fill="none" viewBox="0 0 118 37" height="37" width="118">
<path fill="white" d="M58.9179 25.1652V27.1363H46.1331V25.4L55.9987 12.2242H46.2492V10.2531H58.8305V11.9893L48.9636 25.1652H58.9179ZM66.7113 26.9315C66.0211 27.2286 65.2738 27.3694 64.5228 27.3437C63.4732 27.3834 62.4452 27.0383 61.6323 26.3731C60.8741 25.7548 60.4656 24.8142 60.4943 23.8136C60.4656 22.8431 60.8441 21.9025 61.5748 21.2841C62.3043 20.6371 63.4723 20.1374 65.1061 19.8139L68.0841 19.1669V18.6372C68.1031 18.3351 68.0584 18.0324 67.9527 17.7487C67.847 17.4651 67.6828 17.2069 67.4707 16.9909C67.0623 16.6086 66.4789 16.4313 65.6607 16.4313C65.0063 16.4013 64.3602 16.5874 63.822 16.9609C63.3163 17.3582 62.9654 17.9198 62.8302 18.5485L60.8441 18.0202C61.1207 17.0009 61.7524 16.114 62.6254 15.5194C63.5263 14.8763 64.613 14.5459 65.7195 14.5788C67.1497 14.5788 68.2302 14.9311 68.9884 15.6081C69.7479 16.3138 70.1276 17.2844 70.1276 18.5485V24.5494C70.1099 24.7009 70.133 24.8545 70.1945 24.9942C70.256 25.1338 70.3536 25.2545 70.4774 25.3438C70.7697 25.49 71.1195 25.5187 71.4405 25.4313V27.1376C70.4774 27.255 69.7479 27.1963 69.222 26.9614C68.6974 26.7553 68.3476 26.2844 68.2302 25.7248C67.8805 26.2544 67.3533 26.6667 66.7113 26.9315ZM67.1497 24.8729C67.7618 24.432 68.1128 23.7262 68.1128 22.9617V20.8432L65.7195 21.3728C64.5515 21.6077 63.7333 21.9025 63.2674 22.2847C62.8302 22.637 62.5679 23.1966 62.5679 23.7549C62.5379 24.2846 62.7428 24.8142 63.15 25.1664C63.6172 25.5199 64.1718 25.7261 64.7564 25.6961C65.6308 25.6673 66.4789 25.4038 67.1497 24.8729ZM81.9182 26.874C81.2228 27.2262 80.4501 27.398 79.671 27.3737C78.8999 27.3765 78.1392 27.1949 77.4526 26.844C76.8105 26.4905 76.2559 25.9909 75.9049 25.3451V31.3734H73.8038V14.8149H75.9049V16.6086C76.2944 15.9905 76.8376 15.484 77.4813 15.1384C78.1617 14.7709 78.9267 14.5882 79.6997 14.6088C80.4879 14.6088 81.2474 14.7849 81.9769 15.1084C82.6777 15.4619 83.261 15.9616 83.7282 16.5799C84.1654 17.197 84.4877 17.874 84.6913 18.5785C85.1292 20.1568 85.1292 21.8244 84.6913 23.4027C84.4864 24.1246 84.1502 24.8025 83.6995 25.4025C83.1748 26.0496 82.5902 26.5505 81.9182 26.874ZM76.7818 17.5505C76.1397 18.285 75.8174 19.2855 75.8174 20.5497V21.4328C75.8174 22.6969 76.1397 23.6975 76.7818 24.432C77.0794 24.7599 77.4391 25.0256 77.84 25.2137C78.241 25.4018 78.6753 25.5085 79.1177 25.5277C79.5602 25.5468 80.0021 25.4781 80.4178 25.3254C80.8335 25.1727 81.2149 24.9391 81.5397 24.6381C81.6559 24.5206 81.7733 24.4032 81.8607 24.2858C82.5028 23.4614 82.8226 22.3746 82.8226 20.9906C82.8226 19.6091 82.5028 18.5211 81.8607 17.6966C81.5785 17.3533 81.2311 17.0692 80.8384 16.861C80.4457 16.6528 80.0157 16.5244 79.5731 16.4834C79.1306 16.4424 78.6843 16.4896 78.26 16.6221C77.8358 16.7547 77.442 16.97 77.1015 17.2557C77.0141 17.3431 76.8979 17.4618 76.7818 17.5505ZM88.7222 26.5193C88.2263 26.0196 87.9628 25.2539 87.9628 24.1959V16.6361H86.0653V14.8124H87.964V11.2249H90.0351V14.8124H92.8081V16.6361H90.0351V23.8711C90.0063 24.2833 90.1225 24.7243 90.3848 25.0478C90.6197 25.2839 91.0868 25.4013 91.7289 25.4013C91.9625 25.4013 92.1961 25.4013 92.4284 25.3713C92.6333 25.3426 92.8381 25.3126 93.0417 25.2539V27.0776C92.7529 27.141 92.461 27.1902 92.1673 27.225C91.847 27.2593 91.5252 27.2789 91.203 27.2837C90.065 27.2537 89.2481 27.0202 88.7222 26.5193ZM98.0345 26.9002C97.3079 26.5863 96.6674 26.1021 96.1671 25.4887C95.6692 24.9016 95.2923 24.222 95.0578 23.4889C94.7991 22.6808 94.671 21.8366 94.6781 20.9881C94.6781 20.1649 94.7943 19.3417 95.0578 18.5473C95.2914 17.8116 95.6699 17.1058 96.1671 16.5175C96.6617 15.903 97.2908 15.4103 98.0058 15.0772C98.7313 14.752 99.5166 14.5818 100.312 14.5775C101.917 14.5775 103.172 15.1359 104.107 16.2239C105.041 17.3119 105.508 18.7821 105.508 20.6059V21.3116H96.663C96.7217 22.6057 97.1002 23.635 97.7722 24.4007C98.0984 24.7737 98.5031 25.07 98.9573 25.2682C99.4114 25.4665 99.9038 25.5618 100.399 25.5474C101.129 25.5762 101.829 25.3413 102.443 24.9291C102.997 24.5169 103.406 23.8998 103.552 23.1941L105.419 23.8711C105.101 24.9247 104.432 25.8379 103.523 26.4593C102.597 27.0732 101.511 27.4004 100.4 27.3999C99.5857 27.3991 98.78 27.2289 98.0345 26.9002ZM98.0058 17.2819C97.354 17.9336 96.9337 18.7808 96.8091 19.694H103.406C103.414 18.8111 103.103 17.9548 102.53 17.2832C102.244 16.9783 101.894 16.7408 101.505 16.5881C101.117 16.4353 100.699 16.3711 100.282 16.4C99.436 16.4 98.6191 16.6936 98.0058 17.2819ZM110.381 17.6629C109.709 18.4873 109.388 19.6041 109.388 20.9868C109.388 22.3696 109.709 23.4576 110.381 24.2808C110.695 24.6811 111.1 25.0017 111.561 25.2165C112.022 25.4314 112.528 25.5345 113.037 25.5175C113.751 25.5459 114.449 25.3041 114.993 24.8404C115.547 24.3408 115.927 23.6637 116.073 22.898L117.941 23.7812C117.66 24.8297 117.032 25.7524 116.161 26.3993C115.255 27.0464 114.146 27.3986 113.038 27.3699C112.216 27.376 111.402 27.2158 110.643 26.899C109.916 26.5851 109.275 26.101 108.775 25.4875C108.278 24.8836 107.893 24.1963 107.637 23.4576C107.111 21.8323 107.111 20.0827 107.637 18.4574C107.87 17.7229 108.249 17.0159 108.775 16.4275C109.275 15.814 109.916 15.3299 110.643 15.016C111.397 14.6859 112.214 14.5255 113.037 14.5463C114.143 14.5133 115.23 14.8437 116.131 15.4869C116.978 16.134 117.62 17.0159 117.882 18.0751L116.073 18.987C115.921 18.2442 115.544 17.5663 114.993 17.0458C114.449 16.5822 113.751 16.3404 113.037 16.3688C112.015 16.3988 111.023 16.8397 110.381 17.6629ZM11.0199 25.9896L19.9238 13.873H14.8148L13.6481 12.108H23.3089L16.0702 22.3434L29.3809 20.1075C29.4097 20.1075 29.4684 20.1374 29.4684 20.1662C29.4684 20.1961 29.4684 20.2249 29.4396 20.2549L11.0199 25.9896Z"></path>
<path fill="white" d="M18.4909 36.6946C8.654 36.6946 0.627075 28.6364 0.627075 18.6946C0.627075 8.75398 8.62527 0.69458 18.4909 0.69458C28.3291 0.69458 36.356 8.75398 36.356 18.6946C36.356 28.6364 28.3578 36.6946 18.4909 36.6946ZM18.4909 2.63573C9.67579 2.63573 2.52451 9.84198 2.52451 18.7246C2.52451 27.6059 9.67579 34.8134 18.4909 34.8134C27.3073 34.8134 34.4586 27.6059 34.4586 18.7246C34.4586 9.84198 27.3073 2.63573 18.4909 2.63573Z"></path>
</svg>
