<svg xmlns="http://www.w3.org/2000/svg" fill="none" viewBox="0 0 138 57" height="57" width="138">
<path fill="white" d="M23.9249 33.8978C24.4885 32.4132 24.7744 30.6955 24.7744 28.7797C24.7744 24.9638 23.6566 21.9868 21.4474 19.9152C19.2304 17.8353 16.1803 16.782 12.3949 16.782H12.3692C11.6082 16.783 11.3302 17.7827 11.9796 18.1783L19.8379 22.9675C21.0122 23.6839 21.7872 24.5116 22.1415 25.4277C22.5228 26.3855 22.4124 27.3579 21.8271 28.3113C21.4229 28.9682 20.9206 29.4451 20.3284 29.7257C19.7468 30.008 19.0112 30.1387 18.0814 30.1253L6.88033 29.8722C5.86288 29.8471 5.2108 30.0648 4.93055 30.5211C4.79011 30.7488 4.46387 31.2801 5.72139 32.0477L15.7993 38.2063C17.5843 39.2973 19.8868 39.083 21.4194 37.6615L21.4474 37.6356C22.5394 36.5997 23.3795 35.3388 23.9249 33.8978ZM4.55886 34.3657L12.7849 39.3929C13.4298 39.7873 13.1529 40.781 12.396 40.782H12.3708C8.58475 40.782 5.53529 39.7287 3.30009 37.6316C1.10838 35.5772 0 32.5992 0 28.7847C0 24.9606 1.10838 21.9743 3.30009 19.9202L3.31822 19.9033L3.32785 19.8944C4.85361 18.4791 7.14577 18.2644 8.92404 19.3483L18.7302 25.3248C20.1065 26.1639 19.7564 26.7337 19.607 26.9768C19.4534 27.2271 19.2684 27.3918 19.0364 27.4796C18.855 27.5522 18.4825 27.6381 17.7269 27.6313L6.47238 27.4655C5.50361 27.4645 4.76393 27.5931 4.21584 27.8541C3.64663 28.1231 3.15966 28.5835 2.76755 29.2214C1.9419 30.5657 1.5819 32.5503 4.55886 34.3657ZM138 26.5921V37.1598H134.816V26.5921C134.816 24.9359 134.504 24.1858 134.241 23.849C133.981 23.5153 133.565 23.3149 132.977 23.2404C132.201 23.1421 130.993 23.382 130.34 23.8122C130.243 23.8762 130.147 23.9446 130.057 24.0169C129.039 24.8163 128.509 26.0832 128.509 27.3731V37.1598H125.325V26.9933C125.325 25.694 125.091 24.7032 124.634 24.0454C124.23 23.4721 123.682 23.2074 122.914 23.2074C122.088 23.2074 121.336 23.4239 120.684 23.857C120.017 24.2941 119.484 24.9159 119.105 25.706C118.72 26.5201 118.523 27.4504 118.523 28.4731V37.1598H115.335V20.1233H118.523V21.8719C118.848 21.5751 119.198 21.3145 119.569 21.0899C120.606 20.4481 121.734 20.1233 122.914 20.1233C124.088 20.1233 125.137 20.4481 126.025 21.0939C126.568 21.4829 127.032 21.98 127.407 22.5697C127.958 21.9522 128.561 21.4468 129.201 21.0577C130.211 20.4359 131.291 20.1233 132.405 20.1233C134.277 20.1233 135.703 20.6848 136.637 21.7918C137.542 22.8584 138 24.4705 138 26.5921ZM51.6851 34.0129V37.1253H40.74C37.0819 37.1253 36.5351 34.9232 36.5351 33.6119C36.5351 32.858 36.7153 32.2042 37.0654 31.6668C37.3989 31.1535 37.9478 30.6721 38.7473 30.1829L47.4719 25.0415C48.0416 24.6965 48.2321 24.488 48.2922 24.408C48.3439 24.3437 48.4082 24.2313 48.4082 23.9989C48.4082 23.8383 48.4082 23.5416 47.358 23.5416H36.5351V20.4255H47.0804C48.4123 20.4255 49.4791 20.7262 50.2516 21.3158C51.101 21.9535 51.5317 22.8558 51.5317 23.9989C51.5317 24.7767 51.3516 25.4505 50.9891 26.004C50.639 26.5495 50.0921 27.0347 49.3155 27.496L40.5867 32.549C39.9508 32.9181 39.5966 33.2951 39.5966 33.6119C39.5966 33.7723 39.5966 34.0129 40.5225 34.0129H51.6851ZM90.1752 37.1251V34.0131H79.0126C78.0867 34.0131 78.0867 33.7681 78.0867 33.6119C78.0867 33.291 78.4368 32.9141 79.0769 32.5493L87.8014 27.4918C88.5823 27.0308 89.1291 26.5454 89.4751 26.0001C89.8376 25.4464 90.0219 24.7728 90.0219 23.9987C90.0219 22.8758 89.5787 21.9454 88.7459 21.3119C87.9651 20.7222 86.8983 20.4255 85.5706 20.4255H75.0253V23.5416H85.8481C86.8983 23.5416 86.8983 23.8263 86.8983 23.9987C86.8983 24.1751 86.8631 24.3037 86.7782 24.4118C86.7264 24.4839 86.5316 24.6925 85.9558 25.0376L77.2375 30.1791C76.4421 30.6601 75.8932 31.1455 75.5556 31.6627C75.2055 32.2003 75.0253 32.858 75.0253 33.6119C75.0253 34.9234 75.5721 37.1251 79.2301 37.1251H90.1752ZM102.194 34.3566C100.434 34.3566 99.0169 33.8673 97.9791 32.8928C96.96 31.9381 96.4463 30.5548 96.4463 28.782C96.4463 27.0053 96.96 25.6178 97.9791 24.6634C99.0127 23.6967 100.43 23.2074 102.194 23.2074C103.953 23.2074 105.37 23.6967 106.399 24.6634C107.427 25.6259 107.946 27.0092 107.946 28.782C107.946 29.6723 107.812 30.4706 107.551 31.1602C107.298 31.83 106.907 32.4157 106.399 32.8967C105.361 33.8673 103.949 34.3566 102.194 34.3566ZM110.175 24.5991C109.966 24.182 109.713 23.7769 109.419 23.3921C108.831 22.6138 108.067 21.9322 107.145 21.3628C105.796 20.5404 104.129 20.1233 102.194 20.1233C100.258 20.1233 98.5902 20.5404 97.2418 21.3628C95.8891 22.1928 94.8679 23.2796 94.203 24.5991C93.5547 25.9025 93.2254 27.3102 93.2254 28.782C93.2254 30.2539 93.5547 31.6576 94.203 32.957C94.8679 34.2764 95.8849 35.3632 97.2376 36.1936C98.5943 37.0195 100.262 37.4366 102.194 37.4366C104.125 37.4366 105.792 37.0196 107.145 36.1975C107.431 36.0211 107.704 35.8324 107.961 35.6319L107.946 37.0076L107.942 37.0117H111.134L111.162 28.7859C111.162 27.3062 110.827 25.8985 110.175 24.5991ZM57.5174 26.6103V26.6145C57.4697 26.815 57.6189 27.0116 57.824 27.0196L62.9713 27.0276C62.9713 27.0276 68.0875 27.0317 68.1207 27.0196C68.334 27.0116 68.4935 26.8029 68.421 26.6145C68.421 26.6103 68.0834 25.5075 67.1741 24.6093C65.9291 23.4542 64.7795 23.1655 63.0603 23.1413H63.0354C63.0127 23.1374 62.9919 23.1374 62.9713 23.1374C62.9505 23.1374 62.9319 23.1374 62.907 23.1413H62.8822C61.165 23.1655 59.7793 23.6587 58.7602 24.6093C58.1926 25.1467 57.7742 25.8163 57.5174 26.6103ZM63.5077 34.3949C65.0613 34.3146 66.329 33.8214 67.2756 32.9349C67.7333 32.5058 68.0916 31.9926 68.3443 31.3988H71.5177L71.5052 31.4471C71.4881 31.4995 71.4716 31.5588 71.4542 31.6218L71.4536 31.6235C71.4418 31.6663 71.4295 31.7108 71.4162 31.7559C71.3934 31.8562 71.3644 31.9525 71.3271 32.0488C71.3085 32.1088 71.2878 32.173 71.2629 32.2372C71.2505 32.2853 71.2359 32.3333 71.2194 32.3736C71.2153 32.3897 71.207 32.4056 71.1987 32.4217C71.151 32.542 71.1034 32.6623 71.0454 32.7826C70.9335 33.0394 70.8092 33.2839 70.6726 33.5204C70.5317 33.7493 70.3825 33.9738 70.2251 34.1864C69.9828 34.5151 69.7052 34.8239 69.4048 35.1086C69.1294 35.3655 68.8394 35.6022 68.5308 35.8145C68.4375 35.8789 68.3402 35.9428 68.245 36.0031C68.2378 36.0083 68.2307 36.0127 68.2238 36.017C68.2145 36.0227 68.2056 36.0283 68.1973 36.0351C68.1627 36.0574 68.1276 36.0784 68.0922 36.0996C68.0638 36.1165 68.0352 36.1336 68.0067 36.1515C67.9176 36.2038 67.8266 36.2516 67.7333 36.2999C67.6443 36.3519 67.5531 36.396 67.4557 36.4402C67.4054 36.4682 67.3531 36.4921 67.3001 36.5163L67.2739 36.5281C67.2652 36.5321 67.2564 36.5362 67.2477 36.5402C67.2418 36.543 67.2359 36.5457 67.23 36.5486L67.2264 36.5502C67.2192 36.5537 67.2119 36.5572 67.203 36.5606C67.0933 36.6086 66.9855 36.6528 66.8758 36.6968C66.65 36.7851 66.4139 36.8654 66.1714 36.9374C66.099 36.9615 66.0265 36.9818 65.9541 36.9977C65.7572 37.0579 65.5522 37.106 65.3471 37.1461C65.0799 37.198 64.8065 37.2463 64.5248 37.2783C64.4378 37.2905 64.3445 37.3025 64.2472 37.3105C64.1934 37.3184 64.1414 37.323 64.0893 37.3275C64.0633 37.3298 64.0373 37.332 64.0111 37.3346C63.8972 37.3428 63.7853 37.3506 63.6672 37.3545C63.5802 37.3626 63.4953 37.3666 63.4063 37.3666L63.3974 37.367C63.2594 37.3707 63.1172 37.3747 62.9713 37.3747H62.8863C62.7703 37.3747 62.6543 37.3706 62.5363 37.3666C62.4472 37.3666 62.3643 37.3626 62.2753 37.3545C62.1593 37.3506 62.0454 37.3428 61.9335 37.3346L61.9157 37.333C61.8959 37.3311 61.8762 37.3294 61.8566 37.3277C61.803 37.3232 61.75 37.3187 61.6953 37.3105C61.5979 37.3025 61.5068 37.2905 61.4177 37.2783C61.136 37.2463 60.8626 37.198 60.5975 37.1461C60.3903 37.1019 60.1852 37.0538 59.9885 36.9977C59.916 36.9818 59.8435 36.9615 59.771 36.9374C59.5308 36.8654 59.2967 36.7851 59.0668 36.6968L59.0285 36.6811C58.9331 36.6423 58.8365 36.6029 58.7415 36.5606L58.7345 36.5575L58.7271 36.5545C58.7219 36.5526 58.7167 36.5506 58.7125 36.5486C58.6892 36.5375 58.6658 36.5268 58.6425 36.5163C58.5895 36.4921 58.5372 36.4682 58.4867 36.4402C58.3914 36.396 58.2983 36.3519 58.2092 36.2999C58.1181 36.2516 58.029 36.2038 57.9399 36.1515C57.879 36.1172 57.8179 36.0792 57.757 36.0412L57.7473 36.0351C57.739 36.0291 57.7307 36.0241 57.7224 36.0191C57.7141 36.0141 57.7059 36.0091 57.6976 36.0031C57.6023 35.9428 57.5049 35.8789 57.4118 35.8145C57.1073 35.6022 56.8172 35.3655 56.5438 35.1086C56.2414 34.8239 55.9679 34.5151 55.7173 34.1864C55.562 33.9738 55.4128 33.7493 55.272 33.5204C55.1353 33.2839 55.0048 33.0352 54.8971 32.7826C54.8412 32.6623 54.7915 32.542 54.7438 32.4217C54.7217 32.3684 54.7046 32.315 54.6865 32.2588L54.6796 32.2372C54.6571 32.1863 54.6397 32.1289 54.6212 32.0678L54.6154 32.0488C54.5922 31.9816 54.5722 31.9125 54.5523 31.8441C54.5437 31.8145 54.5351 31.785 54.5263 31.7559C54.4954 31.6561 54.4666 31.5525 54.4377 31.4489L54.4372 31.4471C54.4332 31.4311 54.429 31.415 54.429 31.3988C54.228 30.5969 54.1286 29.7227 54.1286 28.776C54.1286 28.7241 54.1328 28.3911 54.137 28.2747C54.1472 27.9501 54.1721 27.6331 54.2115 27.3244C54.2115 27.3122 54.2115 27.3002 54.2157 27.2883C54.2363 27.1399 54.2571 26.9954 54.2819 26.8512C54.3047 26.7026 54.3337 26.5544 54.3647 26.4099C54.3647 26.406 54.3647 26.4018 54.3689 26.398C54.3979 26.2617 54.429 26.1251 54.4663 25.997C54.4663 25.9821 54.4708 25.9673 54.4748 25.9539C54.4762 25.9493 54.4777 25.9448 54.4786 25.9406C54.5098 25.8286 54.5429 25.7202 54.5781 25.6119C54.6071 25.5075 54.6382 25.4074 54.6796 25.3071C54.7124 25.208 54.7512 25.1128 54.7901 25.0176L54.7914 25.0141C54.7998 24.9822 54.8122 24.9541 54.8246 24.93C54.8588 24.8451 54.8966 24.7627 54.9344 24.6809L54.9654 24.6132C55.0172 24.4968 55.0773 24.3806 55.1394 24.2642L55.1699 24.2089C55.223 24.1123 55.2746 24.0185 55.332 23.9274C55.4646 23.707 55.6097 23.4942 55.767 23.2897C55.8349 23.1998 55.9074 23.11 55.9779 23.0227L56.0115 22.981C56.1813 22.7884 56.3574 22.6078 56.5438 22.4316C56.7282 22.2591 56.9167 22.0946 57.1196 21.9423C57.1964 21.882 57.2688 21.8261 57.3475 21.7737L57.3535 21.7694C57.424 21.7188 57.4947 21.6681 57.5692 21.6214C57.6138 21.5893 57.6599 21.5603 57.7059 21.5315C57.7345 21.5135 57.7629 21.4955 57.7908 21.4771C57.8405 21.4495 57.8897 21.421 57.9389 21.3925C57.9901 21.3629 58.0414 21.3332 58.0931 21.3046C58.1926 21.2484 58.2983 21.1923 58.406 21.1403C58.5158 21.084 58.6276 21.0319 58.7415 20.9837C58.754 20.9797 58.7602 20.9758 58.7727 20.9678C58.8699 20.9236 58.9715 20.8836 59.075 20.8433C59.336 20.743 59.6032 20.6547 59.8767 20.5746C60.0048 20.5388 60.133 20.5066 60.2611 20.4745C60.5717 20.3984 60.8896 20.3381 61.221 20.2939C61.455 20.2578 61.6912 20.2337 61.9376 20.2139C62.0789 20.202 62.2241 20.1941 62.3675 20.1862L62.3789 20.1856C62.5529 20.1775 62.7309 20.1736 62.9112 20.1736H62.9713C63.3254 20.1736 63.6713 20.1856 64.0069 20.2139C64.2514 20.2337 64.4896 20.2578 64.7237 20.2939C65.053 20.3381 65.3698 20.3982 65.6806 20.4743C65.8089 20.5065 65.9375 20.5387 66.0679 20.5746C66.3455 20.6547 66.6106 20.743 66.8675 20.8433C66.9731 20.8836 67.0725 20.9236 67.1699 20.9678C67.1784 20.9705 67.187 20.9751 67.1942 20.979L67.1987 20.9815L67.203 20.9837C67.3148 21.0319 67.4268 21.084 67.5365 21.1403C67.6443 21.1923 67.7499 21.2484 67.8493 21.3046C67.9549 21.3607 68.0523 21.4168 68.1517 21.4771C68.1795 21.4955 68.208 21.5134 68.2365 21.5314C68.2823 21.5602 68.3288 21.5893 68.3734 21.6214C68.45 21.6655 68.5225 21.7177 68.5951 21.7737C69.3469 22.3274 69.7011 22.7162 70.1775 23.2897C70.3329 23.4942 70.4778 23.707 70.6125 23.9274C70.6699 24.0184 70.7214 24.112 70.7743 24.2084L70.8052 24.2642L70.8079 24.2696C70.8671 24.3842 70.926 24.4986 70.977 24.6132C71.0267 24.7176 71.0744 24.8217 71.1179 24.93C71.1345 24.9583 71.1469 24.9863 71.151 25.0141L71.169 25.058C71.2027 25.1399 71.2366 25.2219 71.2629 25.3071C71.3044 25.4074 71.3354 25.5075 71.3644 25.6119C71.3997 25.7202 71.4328 25.8286 71.4659 25.9406C71.468 25.9567 71.4721 25.9769 71.4763 25.997C71.5135 26.1251 71.5446 26.2617 71.5736 26.398C71.5777 26.4018 71.5777 26.406 71.5777 26.4099C71.6089 26.5544 71.6378 26.7026 71.6626 26.8512C71.6855 26.9954 71.7061 27.1399 71.7269 27.2883C71.7269 27.2942 71.7279 27.3001 71.7289 27.3061C71.7299 27.3121 71.7311 27.3183 71.7311 27.3244C71.7663 27.6331 71.7911 27.9501 71.8077 28.2747C71.8118 28.3907 71.8118 28.5025 71.8118 28.6222V28.6238C71.7476 29.3737 71.0309 29.9833 70.2003 29.9833H69.2019L57.7742 30.0033C57.6583 30.0033 57.5609 30.0353 57.4926 30.1034C57.4014 30.1957 57.3765 30.3403 57.4055 30.5127C57.4118 30.5568 57.4241 30.6049 57.4366 30.653C57.6789 31.5673 58.1202 32.3333 58.7602 32.931C59.7151 33.8254 60.9868 34.3187 62.5487 34.399C62.5818 34.4029 62.6129 34.4029 62.646 34.4029C62.6771 34.4068 62.7144 34.4068 62.7455 34.4068H62.8781L62.8905 34.4109H63.168L63.1846 34.4068C63.2219 34.4068 63.2612 34.4068 63.2985 34.4029C63.3141 34.4029 63.3301 34.4019 63.3462 34.4009C63.3622 34.3999 63.3783 34.399 63.3938 34.399C63.431 34.399 63.4663 34.399 63.5077 34.3949Z" clip-rule="evenodd" fill-rule="evenodd"></path>
</svg>
