<svg width="183" height="25" viewBox="0 0 183 25" fill="none" xmlns="http://www.w3.org/2000/svg">
<path d="M36.0148 20H32.5926L36.608 12.0076L32.5926 4H36.0148L38.3039 8.6019L40.6538 4H44L36.0148 20Z" fill="#0F172A"/>
<path fill-rule="evenodd" clip-rule="evenodd" d="M25.803 13.7219C27.8635 13.1505 29.3806 11.2457 29.3957 8.99048V8.95238V8.91428C29.373 6.19428 27.1842 4 24.4897 4H18.0741V6.88L20.4894 10.8495H18.0816V20H21.1007V13.8971H22.3687L26.0799 20H29.6297L25.803 13.7219ZM24.0519 10.8571H24.4972C25.5388 10.8571 26.3841 10.0038 26.3841 8.95238C26.3841 7.90095 25.5388 7.04762 24.4972 7.04762H21.7196L24.0519 10.8571Z" fill="#0F172A"/>
<path fill-rule="evenodd" clip-rule="evenodd" d="M8 4C3.58096 4 0 7.58095 0 12C0 16.419 3.58096 20 8 20C12.4191 20 16 16.419 16 12C16 7.58095 12.4191 4 8 4ZM3.04762 12C3.04762 14.7352 5.26476 16.9524 8 16.9524C10.7352 16.9524 12.9524 14.7352 12.9524 12C12.9524 9.26476 10.7352 7.04762 8 7.04762C5.26476 7.04762 3.04762 9.26476 3.04762 12Z" fill="#0F172A"/>
<path d="M50.5 20H48L56.0612 4H58.5L50.5 20Z" fill="#0F172A"/>
<path d="M78.375 12C78.375 13.724 78.0521 15.2005 77.4062 16.4297C76.7656 17.6536 75.8906 18.5911 74.7812 19.2422C73.6771 19.8932 72.4245 20.2187 71.0234 20.2187C69.6224 20.2187 68.3672 19.8932 67.2578 19.2422C66.1536 18.5859 65.2786 17.6458 64.6328 16.4219C63.9922 15.1927 63.6719 13.7187 63.6719 12C63.6719 10.276 63.9922 8.80208 64.6328 7.57812C65.2786 6.34896 66.1536 5.40885 67.2578 4.75781C68.3672 4.10677 69.6224 3.78125 71.0234 3.78125C72.4245 3.78125 73.6771 4.10677 74.7812 4.75781C75.8906 5.40885 76.7656 6.34896 77.4062 7.57812C78.0521 8.80208 78.375 10.276 78.375 12ZM75.4609 12C75.4609 10.7865 75.2708 9.76302 74.8906 8.92969C74.5156 8.09115 73.9948 7.45833 73.3281 7.03125C72.6615 6.59896 71.8932 6.38281 71.0234 6.38281C70.1536 6.38281 69.3854 6.59896 68.7188 7.03125C68.0521 7.45833 67.5286 8.09115 67.1484 8.92969C66.7734 9.76302 66.5859 10.7865 66.5859 12C66.5859 13.2135 66.7734 14.2396 67.1484 15.0781C67.5286 15.9115 68.0521 16.5443 68.7188 16.9766C69.3854 17.4036 70.1536 17.6172 71.0234 17.6172C71.8932 17.6172 72.6615 17.4036 73.3281 16.9766C73.9948 16.5443 74.5156 15.9115 74.8906 15.0781C75.2708 14.2396 75.4609 13.2135 75.4609 12ZM83.7834 20.2422C83.0229 20.2422 82.338 20.1068 81.7287 19.8359C81.1245 19.5599 80.6453 19.1536 80.2912 18.6172C79.9422 18.0807 79.7677 17.4193 79.7677 16.6328C79.7677 15.9557 79.8927 15.3958 80.1427 14.9531C80.3927 14.5104 80.7339 14.1562 81.1662 13.8906C81.5985 13.625 82.0854 13.4245 82.6271 13.2891C83.174 13.1484 83.7391 13.0469 84.3224 12.9844C85.0255 12.9115 85.5959 12.8464 86.0334 12.7891C86.4709 12.7266 86.7886 12.6328 86.9865 12.5078C87.1896 12.3776 87.2912 12.1771 87.2912 11.9062V11.8594C87.2912 11.2708 87.1167 10.8151 86.7677 10.4922C86.4188 10.1693 85.9162 10.0078 85.2599 10.0078C84.5672 10.0078 84.0177 10.1589 83.6115 10.4609C83.2104 10.763 82.9396 11.1198 82.799 11.5312L80.1584 11.1562C80.3667 10.4271 80.7104 9.81771 81.1896 9.32812C81.6688 8.83333 82.2547 8.46354 82.9474 8.21875C83.6401 7.96875 84.4058 7.84375 85.2443 7.84375C85.8224 7.84375 86.3979 7.91146 86.9709 8.04687C87.5438 8.18229 88.0672 8.40625 88.5412 8.71875C89.0151 9.02604 89.3953 9.44531 89.6818 9.97656C89.9735 10.5078 90.1193 11.1719 90.1193 11.9687V20H87.4005V18.3516H87.3068C87.1349 18.6849 86.8927 18.9974 86.5802 19.2891C86.2729 19.5755 85.8849 19.8073 85.4162 19.9844C84.9526 20.1563 84.4084 20.2422 83.7834 20.2422ZM84.5177 18.1641C85.0854 18.1641 85.5776 18.0521 85.9943 17.8281C86.411 17.599 86.7313 17.2969 86.9552 16.9219C87.1844 16.5469 87.299 16.138 87.299 15.6953V14.2812C87.2104 14.3542 87.0594 14.4219 86.8459 14.4844C86.6375 14.5469 86.4032 14.6016 86.1427 14.6484C85.8823 14.6953 85.6245 14.737 85.3693 14.7734C85.1141 14.8099 84.8927 14.8411 84.7052 14.8672C84.2834 14.9245 83.9058 15.0182 83.5724 15.1484C83.2391 15.2786 82.9761 15.4609 82.7834 15.6953C82.5907 15.9245 82.4943 16.2214 82.4943 16.5859C82.4943 17.1068 82.6844 17.5 83.0646 17.7656C83.4448 18.0312 83.9292 18.1641 84.5177 18.1641ZM98.2952 8V10.1875H91.3968V8H98.2952ZM93.0999 5.125H95.928V16.3906C95.928 16.7708 95.9853 17.0625 96.0999 17.2656C96.2197 17.4635 96.376 17.599 96.5687 17.6719C96.7614 17.7448 96.9749 17.7812 97.2093 17.7812C97.3864 17.7812 97.5478 17.7682 97.6937 17.7422C97.8447 17.7161 97.9593 17.6927 98.0374 17.6719L98.514 19.8828C98.3629 19.9349 98.1468 19.9922 97.8655 20.0547C97.5895 20.1172 97.251 20.1536 96.8499 20.1641C96.1416 20.1849 95.5036 20.0781 94.9359 19.8437C94.3682 19.6042 93.9176 19.2344 93.5843 18.7344C93.2562 18.2344 93.0947 17.6094 93.0999 16.8594V5.125ZM103.086 12.9687V20H100.258V4H103.024V10.0391H103.165C103.446 9.36198 103.881 8.82812 104.469 8.4375C105.063 8.04167 105.818 7.84375 106.735 7.84375C107.568 7.84375 108.295 8.01823 108.915 8.36719C109.534 8.71615 110.013 9.22656 110.352 9.89844C110.696 10.5703 110.868 11.3906 110.868 12.3594V20H108.04V12.7969C108.04 11.9896 107.831 11.362 107.415 10.9141C107.003 10.4609 106.425 10.2344 105.68 10.2344C105.18 10.2344 104.732 10.3437 104.336 10.5625C103.946 10.776 103.638 11.0859 103.415 11.4922C103.196 11.8984 103.086 12.3906 103.086 12.9687ZM115.669 16.2344L115.661 12.8203H116.114L120.426 8H123.731L118.426 13.9062H117.84L115.669 16.2344ZM113.09 20V4H115.919V20H113.09ZM120.622 20L116.715 14.5391L118.622 12.5469L124.005 20H120.622ZM129.774 20.2344C128.571 20.2344 127.532 19.9844 126.657 19.4844C125.787 18.9792 125.118 18.2656 124.649 17.3437C124.18 16.4167 123.946 15.3255 123.946 14.0703C123.946 12.8359 124.18 11.7526 124.649 10.8203C125.123 9.88281 125.785 9.15365 126.634 8.63281C127.483 8.10677 128.48 7.84375 129.626 7.84375C130.365 7.84375 131.063 7.96354 131.72 8.20312C132.381 8.4375 132.964 8.80208 133.47 9.29687C133.98 9.79167 134.381 10.4219 134.673 11.1875C134.964 11.9479 135.11 12.8542 135.11 13.9062V14.7734H125.274V12.8672H132.399C132.394 12.3255 132.277 11.8437 132.048 11.4219C131.818 10.9948 131.498 10.6589 131.087 10.4141C130.68 10.1693 130.207 10.0469 129.665 10.0469C129.087 10.0469 128.579 10.1875 128.141 10.4687C127.704 10.7448 127.363 11.1094 127.118 11.5625C126.878 12.0104 126.756 12.5026 126.751 13.0391V14.7031C126.751 15.401 126.878 16 127.134 16.5C127.389 16.9948 127.746 17.375 128.204 17.6406C128.662 17.901 129.199 18.0312 129.813 18.0312C130.225 18.0312 130.597 17.974 130.93 17.8594C131.264 17.7396 131.553 17.5651 131.798 17.3359C132.042 17.1068 132.227 16.8229 132.352 16.4844L134.993 16.7812C134.826 17.4792 134.509 18.0885 134.04 18.6094C133.576 19.125 132.983 19.526 132.259 19.8125C131.535 20.0937 130.707 20.2344 129.774 20.2344ZM142.155 20.2344C140.952 20.2344 139.913 19.9844 139.038 19.4844C138.168 18.9792 137.499 18.2656 137.03 17.3437C136.561 16.4167 136.327 15.3255 136.327 14.0703C136.327 12.8359 136.561 11.7526 137.03 10.8203C137.504 9.88281 138.166 9.15365 139.015 8.63281C139.864 8.10677 140.861 7.84375 142.007 7.84375C142.746 7.84375 143.444 7.96354 144.101 8.20312C144.762 8.4375 145.345 8.80208 145.851 9.29687C146.361 9.79167 146.762 10.4219 147.054 11.1875C147.345 11.9479 147.491 12.8542 147.491 13.9062V14.7734H137.655V12.8672H144.78C144.775 12.3255 144.658 11.8437 144.429 11.4219C144.2 10.9948 143.879 10.6589 143.468 10.4141C143.061 10.1693 142.588 10.0469 142.046 10.0469C141.468 10.0469 140.96 10.1875 140.522 10.4687C140.085 10.7448 139.744 11.1094 139.499 11.5625C139.259 12.0104 139.137 12.5026 139.132 13.0391V14.7031C139.132 15.401 139.259 16 139.515 16.5C139.77 16.9948 140.127 17.375 140.585 17.6406C141.043 17.901 141.58 18.0312 142.194 18.0312C142.606 18.0312 142.978 17.974 143.311 17.8594C143.645 17.7396 143.934 17.5651 144.179 17.3359C144.423 17.1068 144.608 16.8229 144.733 16.4844L147.374 16.7812C147.207 17.4792 146.89 18.0885 146.421 18.6094C145.957 19.125 145.364 19.526 144.64 19.8125C143.916 20.0937 143.088 20.2344 142.155 20.2344ZM149.224 24.5V8H152.005V9.98437H152.169C152.315 9.69271 152.521 9.38281 152.786 9.05469C153.052 8.72135 153.411 8.4375 153.864 8.20312C154.317 7.96354 154.896 7.84375 155.599 7.84375C156.526 7.84375 157.362 8.08073 158.107 8.55469C158.857 9.02344 159.45 9.71875 159.888 10.6406C160.331 11.5573 160.552 12.6823 160.552 14.0156C160.552 15.3333 160.336 16.4531 159.903 17.375C159.471 18.2969 158.883 19 158.138 19.4844C157.393 19.9688 156.549 20.2109 155.607 20.2109C154.919 20.2109 154.349 20.0964 153.896 19.8672C153.442 19.638 153.078 19.362 152.802 19.0391C152.531 18.7109 152.32 18.401 152.169 18.1094H152.052V24.5H149.224ZM151.997 14C151.997 14.776 152.107 15.4557 152.325 16.0391C152.549 16.6224 152.87 17.0781 153.286 17.4062C153.708 17.7292 154.219 17.8906 154.817 17.8906C155.442 17.8906 155.966 17.724 156.388 17.3906C156.81 17.0521 157.127 16.5911 157.341 16.0078C157.56 15.4193 157.669 14.75 157.669 14C157.669 13.2552 157.562 12.5937 157.349 12.0156C157.135 11.4375 156.817 10.9844 156.396 10.6562C155.974 10.3281 155.448 10.1641 154.817 10.1641C154.213 10.1641 153.7 10.3229 153.278 10.6406C152.857 10.9583 152.536 11.4036 152.317 11.9766C152.104 12.5495 151.997 13.224 151.997 14ZM167.626 20.2344C166.423 20.2344 165.384 19.9844 164.509 19.4844C163.639 18.9792 162.97 18.2656 162.501 17.3437C162.033 16.4167 161.798 15.3255 161.798 14.0703C161.798 12.8359 162.033 11.7526 162.501 10.8203C162.975 9.88281 163.637 9.15365 164.486 8.63281C165.335 8.10677 166.332 7.84375 167.478 7.84375C168.217 7.84375 168.915 7.96354 169.572 8.20312C170.233 8.4375 170.816 8.80208 171.322 9.29687C171.832 9.79167 172.233 10.4219 172.525 11.1875C172.816 11.9479 172.962 12.8542 172.962 13.9062V14.7734H163.126V12.8672H170.251C170.246 12.3255 170.129 11.8437 169.9 11.4219C169.671 10.9948 169.35 10.6589 168.939 10.4141C168.533 10.1693 168.059 10.0469 167.517 10.0469C166.939 10.0469 166.431 10.1875 165.993 10.4687C165.556 10.7448 165.215 11.1094 164.97 11.5625C164.73 12.0104 164.608 12.5026 164.603 13.0391V14.7031C164.603 15.401 164.73 16 164.986 16.5C165.241 16.9948 165.598 17.375 166.056 17.6406C166.514 17.901 167.051 18.0312 167.665 18.0312C168.077 18.0312 168.449 17.974 168.783 17.8594C169.116 17.7396 169.405 17.5651 169.65 17.3359C169.894 17.1068 170.079 16.8229 170.204 16.4844L172.845 16.7812C172.678 17.4792 172.361 18.0885 171.892 18.6094C171.428 19.125 170.835 19.526 170.111 19.8125C169.387 20.0937 168.559 20.2344 167.626 20.2344ZM174.695 20V8H177.437V10H177.562C177.781 9.30729 178.156 8.77344 178.687 8.39844C179.223 8.01823 179.835 7.82812 180.523 7.82812C180.679 7.82812 180.854 7.83594 181.046 7.85156C181.244 7.86198 181.408 7.88021 181.539 7.90625V10.5078C181.419 10.4661 181.229 10.4297 180.968 10.3984C180.713 10.362 180.466 10.3437 180.226 10.3437C179.71 10.3437 179.247 10.4557 178.835 10.6797C178.429 10.8984 178.109 11.2031 177.874 11.5937C177.64 11.9844 177.523 12.4349 177.523 12.9453V20H174.695Z" fill="#EC4899"/>
</svg>
