<svg width="166" height="35" viewBox="0 0 166 35" fill="none" xmlns="http://www.w3.org/2000/svg">
<path d="M31.8004 9.14773C27.1545 9.14773 23.3897 12.8864 23.3897 17.5C23.3897 22.1136 27.1545 25.8523 31.8004 25.8523C36.4463 25.8523 40.2111 22.1136 40.2111 17.5C40.2111 12.8864 36.4463 9.14773 31.8004 9.14773ZM31.8004 22.6705C28.9247 22.6705 26.5938 20.3557 26.5938 17.5C26.5938 14.6443 28.9247 12.3295 31.8004 12.3295C34.676 12.3295 37.007 14.6443 37.007 17.5C37.007 20.3557 34.676 22.6705 31.8004 22.6705Z" fill="#FF6A85"/>
<path d="M50.8112 19.2977C52.9965 18.7011 54.6055 16.7125 54.6215 14.358C54.6215 14.342 54.6215 14.3341 54.6215 14.3182C54.6215 14.3023 54.6215 14.2943 54.6215 14.2784C54.5975 11.4386 52.2761 9.14773 49.4183 9.14773H42.6141V12.1545L45.1757 16.2989H42.6221V25.8523H45.8241V19.4807H47.1689L51.1049 25.8523H54.8697L50.8112 19.2977ZM49.4263 16.3068H48.954L46.4805 12.3295H49.4263C50.531 12.3295 51.4275 13.2205 51.4275 14.3182C51.4275 15.4159 50.531 16.3068 49.4263 16.3068Z" fill="#FF6A85"/>
<path d="M60.3166 25.8523H56.712L60.9414 17.508L56.712 9.14773H60.3166L62.7276 13.9523L65.2028 9.14773H68.7273L60.3166 25.8523Z" fill="#FF6A85"/>
<path d="M8.41068 9.14773C3.76478 9.14773 0 12.8864 0 17.5C0 22.1136 3.76478 25.8523 8.41068 25.8523C13.0566 25.8523 16.8214 22.1136 16.8214 17.5C16.8214 12.8864 13.0566 9.14773 8.41068 9.14773Z" fill="#FF6A85"/>
<path d="M8.41068 3.26334e-06L16.8214 4.13637L16.8214 7.71591L8.41068 3.57955L0 7.71591L-1.57561e-07 4.13637L8.41068 3.26334e-06Z" fill="#FF6A85"/>
<path d="M8.41069 35L5.35587e-06 30.8636L5.51343e-06 27.2841L8.41069 31.4205L16.8214 27.2841L16.8214 30.8636L8.41069 35Z" fill="#FF6A85"/>
<path d="M86.0856 7.91974L79.3118 26.0909H77.2486L84.0224 7.91974H86.0856Z" fill="#FF6A85"/>
<path d="M105.741 26.0909V17.2788C105.741 16.1684 105.488 15.3398 104.983 14.793C104.477 14.2461 103.686 13.9727 102.609 13.9727C101.175 13.9727 100.127 14.3621 99.4641 15.141C98.8095 15.9199 98.4823 17.1959 98.4823 18.9691V26.0909H96.419V6.75142H98.4823V12.6055C98.4823 13.3098 98.4491 13.8939 98.3828 14.358H98.5071C98.9131 13.7034 99.489 13.1896 100.235 12.8168C100.989 12.4356 101.846 12.245 102.808 12.245C104.473 12.245 105.72 12.6428 106.549 13.4382C107.386 14.2254 107.804 15.4807 107.804 17.2042V26.0909H105.741Z" fill="#FF6A85"/>
<path d="M110.528 12.4687H112.741L115.724 20.2369C116.378 22.0101 116.784 23.2902 116.942 24.0774H117.041C117.149 23.6548 117.373 22.9339 117.712 21.9148C118.06 20.8873 119.187 17.7386 121.093 12.4687H123.305L117.451 27.9801C116.871 29.513 116.192 30.5985 115.413 31.2365C114.642 31.8828 113.694 32.206 112.567 32.206C111.937 32.206 111.316 32.1355 110.702 31.9947V30.3416C111.158 30.441 111.668 30.4908 112.231 30.4908C113.648 30.4908 114.659 29.6953 115.264 28.1044L116.022 26.1655L110.528 12.4687Z" fill="#FF6A85"/>
<path d="M135.426 24.2638H135.314C134.361 25.6476 132.936 26.3395 131.039 26.3395C129.257 26.3395 127.869 25.7305 126.875 24.5124C125.889 23.2944 125.396 21.5626 125.396 19.3171C125.396 17.0716 125.893 15.3274 126.887 14.0845C127.882 12.8416 129.266 12.2202 131.039 12.2202C132.886 12.2202 134.303 12.8913 135.289 14.2337H135.451L135.364 13.2518L135.314 12.2947V6.75142H137.377V26.0909H135.7L135.426 24.2638ZM131.3 24.6119C132.708 24.6119 133.728 24.2307 134.357 23.4684C134.995 22.6978 135.314 21.459 135.314 19.7521V19.3171C135.314 17.3865 134.991 16.011 134.345 15.1907C133.707 14.3621 132.683 13.9478 131.275 13.9478C130.065 13.9478 129.137 14.4201 128.491 15.3647C127.853 16.301 127.534 17.6268 127.534 19.342C127.534 21.082 127.853 22.3954 128.491 23.282C129.129 24.1686 130.065 24.6119 131.3 24.6119Z" fill="#FF6A85"/>
<path d="M148.616 12.2202C149.221 12.2202 149.763 12.2699 150.244 12.3693L149.958 14.2834C149.395 14.1591 148.897 14.0969 148.467 14.0969C147.365 14.0969 146.42 14.5444 145.633 15.4393C144.854 16.3342 144.464 17.4486 144.464 18.7827V26.0909H142.401V12.4687H144.104L144.34 14.9918H144.44C144.945 14.1052 145.554 13.4216 146.267 12.941C146.979 12.4605 147.762 12.2202 148.616 12.2202Z" fill="#FF6A85"/>
<path d="M161.805 26.0909L161.395 24.152H161.296C160.616 25.0054 159.937 25.5855 159.257 25.892C158.586 26.1903 157.745 26.3395 156.734 26.3395C155.384 26.3395 154.323 25.9915 153.553 25.2955C152.79 24.5994 152.409 23.6093 152.409 22.3249C152.409 19.574 154.609 18.1322 159.009 17.9996L161.321 17.9251V17.0799C161.321 16.011 161.089 15.2238 160.625 14.7184C160.169 14.2047 159.436 13.9478 158.425 13.9478C157.29 13.9478 156.005 14.2958 154.572 14.9918L153.938 13.4134C154.609 13.0488 155.342 12.7629 156.138 12.5558C156.942 12.3486 157.745 12.245 158.549 12.245C160.173 12.245 161.375 12.6055 162.153 13.3263C162.941 14.0472 163.334 15.2031 163.334 16.794V26.0909H161.805ZM157.145 24.6367C158.429 24.6367 159.436 24.2846 160.165 23.5803C160.902 22.8759 161.271 21.8899 161.271 20.6222V19.3917L159.208 19.4787C157.567 19.5367 156.382 19.7936 155.653 20.2493C154.932 20.6967 154.572 21.3969 154.572 22.3498C154.572 23.0955 154.795 23.6631 155.243 24.0526C155.699 24.442 156.333 24.6367 157.145 24.6367Z" fill="#FF6A85"/>
</svg>
