<svg width="173" height="35" viewBox="0 0 173 35" fill="none" xmlns="http://www.w3.org/2000/svg">
<path d="M31.8004 9.14773C27.1545 9.14773 23.3897 12.8864 23.3897 17.5C23.3897 22.1136 27.1545 25.8523 31.8004 25.8523C36.4463 25.8523 40.2111 22.1136 40.2111 17.5C40.2111 12.8864 36.4463 9.14773 31.8004 9.14773ZM31.8004 22.6705C28.9247 22.6705 26.5938 20.3557 26.5938 17.5C26.5938 14.6443 28.9247 12.3295 31.8004 12.3295C34.676 12.3295 37.007 14.6443 37.007 17.5C37.007 20.3557 34.676 22.6705 31.8004 22.6705Z" fill="#FF9800"/>
<path d="M50.8112 19.2977C52.9965 18.7011 54.6055 16.7125 54.6215 14.358C54.6215 14.342 54.6215 14.3341 54.6215 14.3182C54.6215 14.3023 54.6215 14.2943 54.6215 14.2784C54.5975 11.4386 52.2761 9.14773 49.4183 9.14773H42.6141V12.1545L45.1757 16.2989H42.6221V25.8523H45.8241V19.4807H47.1689L51.1049 25.8523H54.8697L50.8112 19.2977ZM49.4263 16.3068H48.954L46.4805 12.3295H49.4263C50.531 12.3295 51.4275 13.2205 51.4275 14.3182C51.4275 15.4159 50.531 16.3068 49.4263 16.3068Z" fill="#FF9800"/>
<path d="M60.3166 25.8523H56.712L60.9414 17.508L56.712 9.14773H60.3166L62.7276 13.9523L65.2028 9.14773H68.7273L60.3166 25.8523Z" fill="#FF9800"/>
<path d="M8.41068 9.14773C3.76478 9.14773 0 12.8864 0 17.5C0 22.1136 3.76478 25.8523 8.41068 25.8523C13.0566 25.8523 16.8214 22.1136 16.8214 17.5C16.8214 12.8864 13.0566 9.14773 8.41068 9.14773Z" fill="#FF9800"/>
<path d="M8.41068 1.35599e-06L16.8214 4.13636L16.8214 7.71591L8.41068 3.57955L0 7.71591L-1.57561e-07 4.13636L8.41068 1.35599e-06Z" fill="#FF9800"/>
<path d="M8.41069 35L5.35587e-06 30.8636L5.51343e-06 27.2841L8.41069 31.4204L16.8214 27.2841L16.8214 30.8636L8.41069 35Z" fill="#FF9800"/>
<path d="M86.0856 7.91974L79.3118 26.0909H77.2486L84.0224 7.91974H86.0856Z" fill="#FF9800"/>
<path d="M98.4574 19.1183C98.8137 18.6128 99.3564 17.9499 100.086 17.1296L104.485 12.4687H106.934L101.415 18.2731L107.319 26.0909H104.821L100.011 19.6527L98.4574 20.995V26.0909H96.419V6.75142H98.4574V17.0053C98.4574 17.4611 98.4242 18.1654 98.358 19.1183H98.4574Z" fill="#FF9800"/>
<path d="M116.643 12.2202C117.248 12.2202 117.791 12.2699 118.272 12.3693L117.986 14.2834C117.422 14.1591 116.925 14.0969 116.494 14.0969C115.392 14.0969 114.448 14.5444 113.661 15.4393C112.882 16.3342 112.492 17.4486 112.492 18.7827V26.0909H110.429V12.4687H112.132L112.368 14.9918H112.467C112.973 14.1052 113.582 13.4216 114.294 12.9411C115.007 12.4605 115.79 12.2202 116.643 12.2202Z" fill="#FF9800"/>
<path d="M129.833 26.0909L129.423 24.152H129.324C128.644 25.0054 127.965 25.5855 127.285 25.892C126.614 26.1903 125.773 26.3395 124.762 26.3395C123.411 26.3395 122.351 25.9915 121.58 25.2955C120.818 24.5994 120.437 23.6093 120.437 22.3249C120.437 19.574 122.637 18.1322 127.037 17.9996L129.348 17.9251V17.0799C129.348 16.011 129.116 15.2238 128.652 14.7184C128.197 14.2047 127.463 13.9478 126.452 13.9478C125.317 13.9478 124.033 14.2958 122.599 14.9918L121.966 13.4134C122.637 13.0488 123.37 12.7629 124.165 12.5558C124.969 12.3486 125.773 12.245 126.577 12.245C128.201 12.245 129.402 12.6055 130.181 13.3263C130.968 14.0472 131.362 15.2031 131.362 16.794V26.0909H129.833ZM125.172 24.6367C126.457 24.6367 127.463 24.2846 128.192 23.5803C128.93 22.8759 129.299 21.8899 129.299 20.6222V19.3917L127.235 19.4787C125.595 19.5367 124.41 19.7936 123.681 20.2493C122.96 20.6967 122.599 21.3969 122.599 22.3498C122.599 23.0955 122.823 23.6631 123.271 24.0526C123.726 24.442 124.36 24.6367 125.172 24.6367Z" fill="#FF9800"/>
<path d="M140.661 24.6367C141.026 24.6367 141.378 24.6119 141.718 24.5621C142.057 24.5041 142.327 24.4461 142.526 24.3881V25.9666C142.302 26.0743 141.97 26.1613 141.531 26.2276C141.1 26.3022 140.711 26.3395 140.363 26.3395C137.728 26.3395 136.411 24.9516 136.411 22.1758V14.0721H134.459V13.0778L136.411 12.2202L137.281 9.31179H138.474V12.4687H142.426V14.0721H138.474V22.0888C138.474 22.9091 138.668 23.5388 139.058 23.978C139.447 24.4171 139.982 24.6367 140.661 24.6367Z" fill="#FF9800"/>
<path d="M157.654 19.2674C157.654 21.488 157.095 23.224 155.976 24.4751C154.858 25.718 153.312 26.3395 151.34 26.3395C150.122 26.3395 149.041 26.0536 148.096 25.4819C147.152 24.9102 146.422 24.0898 145.909 23.021C145.395 21.9521 145.138 20.7009 145.138 19.2674C145.138 17.0468 145.693 15.3191 146.804 14.0845C147.914 12.8416 149.455 12.2202 151.427 12.2202C153.333 12.2202 154.845 12.854 155.964 14.1218C157.091 15.3896 157.654 17.1048 157.654 19.2674ZM147.276 19.2674C147.276 21.0075 147.624 22.3332 148.32 23.2447C149.016 24.1561 150.039 24.6119 151.39 24.6119C152.741 24.6119 153.764 24.1603 154.46 23.2571C155.164 22.3456 155.516 21.0157 155.516 19.2674C155.516 17.5356 155.164 16.2223 154.46 15.3274C153.764 14.4242 152.732 13.9727 151.365 13.9727C150.014 13.9727 148.995 14.416 148.308 15.3026C147.62 16.1892 147.276 17.5108 147.276 19.2674Z" fill="#FF9800"/>
<path d="M170.707 22.3746C170.707 23.6424 170.235 24.6201 169.29 25.3079C168.346 25.9956 167.02 26.3395 165.313 26.3395C163.507 26.3395 162.098 26.0536 161.087 25.4819V23.5678C161.742 23.8993 162.442 24.1603 163.187 24.3509C163.942 24.5414 164.667 24.6367 165.363 24.6367C166.44 24.6367 167.268 24.4669 167.848 24.1271C168.428 23.7791 168.718 23.253 168.718 22.5487C168.718 22.0183 168.486 21.5668 168.022 21.1939C167.567 20.8127 166.672 20.3653 165.338 19.8516C164.07 19.3793 163.167 18.9691 162.628 18.6211C162.098 18.2648 161.7 17.8629 161.435 17.4155C161.178 16.968 161.05 16.4336 161.05 15.8121C161.05 14.7018 161.501 13.8277 162.404 13.1896C163.308 12.5433 164.546 12.2202 166.121 12.2202C167.587 12.2202 169.021 12.5185 170.421 13.1151L169.688 14.793C168.321 14.2295 167.082 13.9478 165.972 13.9478C164.994 13.9478 164.256 14.1011 163.759 14.4077C163.262 14.7143 163.013 15.1368 163.013 15.6754C163.013 16.04 163.105 16.3507 163.287 16.6076C163.478 16.8645 163.78 17.1089 164.194 17.3409C164.609 17.5729 165.404 17.9085 166.581 18.3477C168.196 18.936 169.286 19.5284 169.849 20.125C170.421 20.7216 170.707 21.4715 170.707 22.3746Z" fill="#FF9800"/>
</svg>
