<svg width="237" height="35" viewBox="0 0 237 35" fill="none" xmlns="http://www.w3.org/2000/svg">
<path d="M31.8004 9.14773C27.1545 9.14773 23.3897 12.8864 23.3897 17.5C23.3897 22.1136 27.1545 25.8523 31.8004 25.8523C36.4463 25.8523 40.2111 22.1136 40.2111 17.5C40.2111 12.8864 36.4463 9.14773 31.8004 9.14773ZM31.8004 22.6705C28.9247 22.6705 26.5938 20.3557 26.5938 17.5C26.5938 14.6443 28.9247 12.3295 31.8004 12.3295C34.676 12.3295 37.007 14.6443 37.007 17.5C37.007 20.3557 34.676 22.6705 31.8004 22.6705Z" fill="#CD62F3"/>
<path d="M50.8112 19.2977C52.9965 18.7011 54.6055 16.7125 54.6215 14.358C54.6215 14.342 54.6215 14.3341 54.6215 14.3182C54.6215 14.3023 54.6215 14.2943 54.6215 14.2784C54.5975 11.4386 52.2761 9.14773 49.4183 9.14773H42.6141V12.1545L45.1757 16.2989H42.6221V25.8523H45.8241V19.4807H47.1689L51.1049 25.8523H54.8697L50.8112 19.2977ZM49.4263 16.3068H48.954L46.4805 12.3295H49.4263C50.531 12.3295 51.4275 13.2205 51.4275 14.3182C51.4275 15.4159 50.531 16.3068 49.4263 16.3068Z" fill="#CD62F3"/>
<path d="M60.3166 25.8523H56.712L60.9414 17.508L56.712 9.14773H60.3166L62.7276 13.9523L65.2028 9.14773H68.7273L60.3166 25.8523Z" fill="#CD62F3"/>
<path d="M8.41068 9.14773C3.76478 9.14773 0 12.8864 0 17.5C0 22.1136 3.76478 25.8523 8.41068 25.8523C13.0566 25.8523 16.8214 22.1136 16.8214 17.5C16.8214 12.8864 13.0566 9.14773 8.41068 9.14773Z" fill="#CD62F3"/>
<path d="M8.41068 3.26334e-06L16.8214 4.13637L16.8214 7.71591L8.41068 3.57955L0 7.71591L-1.57561e-07 4.13637L8.41068 3.26334e-06Z" fill="#CD62F3"/>
<path d="M8.41069 35L5.35587e-06 30.8636L5.51343e-06 27.2841L8.41069 31.4205L16.8214 27.2841L16.8214 30.8636L8.41069 35Z" fill="#CD62F3"/>
<path d="M86.0856 7.91974L79.3118 26.0909H77.2486L84.0224 7.91974H86.0856Z" fill="#CD62F3"/>
<path d="M108.177 19.2674C108.177 21.488 107.618 23.224 106.499 24.4751C105.38 25.718 103.835 26.3395 101.863 26.3395C100.645 26.3395 99.5636 26.0536 98.619 25.4819C97.6744 24.9102 96.9452 24.0898 96.4315 23.021C95.9177 21.9521 95.6609 20.7009 95.6609 19.2674C95.6609 17.0468 96.216 15.3191 97.3264 14.0845C98.4367 12.8416 99.9779 12.2202 101.95 12.2202C103.856 12.2202 105.368 12.854 106.487 14.1218C107.613 15.3896 108.177 17.1048 108.177 19.2674ZM97.7987 19.2674C97.7987 21.0075 98.1467 22.3332 98.8427 23.2447C99.5387 24.1561 100.562 24.6119 101.913 24.6119C103.263 24.6119 104.287 24.1603 104.983 23.2571C105.687 22.3456 106.039 21.0157 106.039 19.2674C106.039 17.5356 105.687 16.2223 104.983 15.3274C104.287 14.4242 103.255 13.9727 101.888 13.9727C100.537 13.9727 99.518 14.416 98.8303 15.3026C98.1425 16.1892 97.7987 17.5108 97.7987 19.2674Z" fill="#CD62F3"/>
<path d="M120.82 26.0909L120.409 24.152H120.31C119.631 25.0054 118.951 25.5855 118.272 25.892C117.601 26.1903 116.759 26.3395 115.749 26.3395C114.398 26.3395 113.337 25.9915 112.567 25.2955C111.804 24.5994 111.423 23.6093 111.423 22.3249C111.423 19.574 113.623 18.1322 118.023 17.9996L120.335 17.9251V17.0799C120.335 16.011 120.103 15.2238 119.639 14.7184C119.183 14.2047 118.45 13.9478 117.439 13.9478C116.304 13.9478 115.019 14.2958 113.586 14.9918L112.952 13.4134C113.623 13.0488 114.357 12.7629 115.152 12.5558C115.956 12.3486 116.759 12.245 117.563 12.245C119.187 12.245 120.389 12.6055 121.168 13.3263C121.955 14.0472 122.348 15.2031 122.348 16.794V26.0909H120.82ZM116.159 24.6367C117.443 24.6367 118.45 24.2846 119.179 23.5803C119.916 22.8759 120.285 21.8899 120.285 20.6222V19.3917L118.222 19.4787C116.581 19.5367 115.396 19.7936 114.667 20.2493C113.946 20.6967 113.586 21.3969 113.586 22.3498C113.586 23.0955 113.81 23.6631 114.257 24.0526C114.713 24.442 115.347 24.6367 116.159 24.6367Z" fill="#CD62F3"/>
<path d="M131.648 24.6367C132.012 24.6367 132.364 24.6119 132.704 24.5621C133.044 24.5041 133.313 24.4461 133.512 24.3881V25.9666C133.288 26.0743 132.957 26.1613 132.518 26.2276C132.087 26.3022 131.697 26.3395 131.349 26.3395C128.714 26.3395 127.397 24.9516 127.397 22.1758V14.0721H125.446V13.0778L127.397 12.2202L128.267 9.31179H129.46V12.4687H133.413V14.0721H129.46V22.0888C129.46 22.9091 129.655 23.5388 130.044 23.978C130.434 24.4171 130.968 24.6367 131.648 24.6367Z" fill="#CD62F3"/>
<path d="M146.205 26.0909V17.2788C146.205 16.1684 145.952 15.3398 145.446 14.793C144.941 14.2461 144.15 13.9727 143.072 13.9727C141.639 13.9727 140.591 14.3621 139.928 15.141C139.273 15.9199 138.946 17.1959 138.946 18.9691V26.0909H136.883V6.75142H138.946V12.6055C138.946 13.3098 138.913 13.8939 138.847 14.358H138.971C139.377 13.7034 139.953 13.1896 140.699 12.8168C141.453 12.4356 142.31 12.245 143.271 12.245C144.937 12.245 146.184 12.6428 147.012 13.4382C147.849 14.2254 148.268 15.4807 148.268 17.2042V26.0909H146.205Z" fill="#CD62F3"/>
<path d="M155.193 19.1183C155.549 18.6128 156.092 17.9499 156.821 17.1296L161.221 12.4687H163.67L158.151 18.2731L164.055 26.0909H161.557L156.747 19.6527L155.193 20.995V26.0909H153.155V6.75142H155.193V17.0053C155.193 17.4611 155.16 18.1654 155.094 19.1183H155.193Z" fill="#CD62F3"/>
<path d="M172.919 26.3395C170.906 26.3395 169.315 25.7263 168.147 24.5C166.987 23.2737 166.407 21.5709 166.407 19.3917C166.407 17.1959 166.945 15.4517 168.022 14.1591C169.108 12.8665 170.562 12.2202 172.385 12.2202C174.092 12.2202 175.442 12.7836 176.437 13.9105C177.431 15.0291 177.928 16.5082 177.928 18.3477V19.6527H168.544C168.586 21.2519 168.988 22.4658 169.75 23.2944C170.521 24.123 171.602 24.5373 172.994 24.5373C174.461 24.5373 175.911 24.2307 177.344 23.6175V25.457C176.615 25.7719 175.923 25.9956 175.268 26.1282C174.622 26.2691 173.839 26.3395 172.919 26.3395ZM172.36 13.9478C171.266 13.9478 170.392 14.3041 169.738 15.0167C169.091 15.7293 168.71 16.7153 168.594 17.9748H175.716C175.716 16.6739 175.426 15.6796 174.846 14.9918C174.266 14.2958 173.437 13.9478 172.36 13.9478Z" fill="#CD62F3"/>
<path d="M187.849 26.3395C185.836 26.3395 184.245 25.7263 183.076 24.5C181.916 23.2737 181.336 21.5709 181.336 19.3917C181.336 17.1959 181.875 15.4517 182.952 14.1591C184.038 12.8665 185.492 12.2202 187.315 12.2202C189.022 12.2202 190.372 12.7836 191.366 13.9105C192.361 15.0291 192.858 16.5082 192.858 18.3477V19.6527H183.474C183.516 21.2519 183.917 22.4658 184.68 23.2944C185.45 24.123 186.532 24.5373 187.924 24.5373C189.39 24.5373 190.84 24.2307 192.274 23.6175V25.457C191.545 25.7719 190.853 25.9956 190.198 26.1282C189.552 26.2691 188.769 26.3395 187.849 26.3395ZM187.29 13.9478C186.196 13.9478 185.322 14.3041 184.667 15.0167C184.021 15.7293 183.64 16.7153 183.524 17.9748H190.646C190.646 16.6739 190.356 15.6796 189.776 14.9918C189.196 14.2958 188.367 13.9478 187.29 13.9478Z" fill="#CD62F3"/>
<path d="M203.363 26.3395C202.476 26.3395 201.664 26.1779 200.927 25.8548C200.198 25.5233 199.585 25.0179 199.087 24.3384H198.938C199.038 25.1339 199.087 25.8879 199.087 26.6005V32.206H197.024V12.4687H198.702L198.988 14.3331H199.087C199.618 13.5874 200.235 13.0488 200.939 12.7173C201.644 12.3859 202.451 12.2202 203.363 12.2202C205.169 12.2202 206.561 12.8375 207.539 14.0721C208.525 15.3067 209.018 17.0385 209.018 19.2674C209.018 21.5046 208.517 23.2447 207.514 24.4876C206.52 25.7222 205.136 26.3395 203.363 26.3395ZM203.065 13.9727C201.673 13.9727 200.666 14.358 200.044 15.1285C199.423 15.8991 199.104 17.1255 199.087 18.8075V19.2674C199.087 21.1815 199.406 22.5528 200.044 23.3814C200.682 24.2017 201.706 24.6119 203.114 24.6119C204.291 24.6119 205.211 24.1354 205.874 23.1825C206.545 22.2296 206.88 20.9163 206.88 19.2425C206.88 17.5439 206.545 16.243 205.874 15.3398C205.211 14.4284 204.274 13.9727 203.065 13.9727Z" fill="#CD62F3"/>
<path d="M219.026 26.3395C217.012 26.3395 215.422 25.7263 214.253 24.5C213.093 23.2737 212.513 21.5709 212.513 19.3917C212.513 17.1959 213.052 15.4517 214.129 14.1591C215.214 12.8665 216.669 12.2202 218.491 12.2202C220.198 12.2202 221.549 12.7836 222.543 13.9105C223.538 15.0291 224.035 16.5082 224.035 18.3477V19.6527H214.651C214.692 21.2519 215.094 22.4658 215.857 23.2944C216.627 24.123 217.708 24.5373 219.101 24.5373C220.567 24.5373 222.017 24.2307 223.451 23.6175V25.457C222.721 25.7719 222.03 25.9956 221.375 26.1282C220.729 26.2691 219.946 26.3395 219.026 26.3395ZM218.467 13.9478C217.373 13.9478 216.499 14.3041 215.844 15.0167C215.198 15.7293 214.817 16.7153 214.701 17.9748H221.822C221.822 16.6739 221.532 15.6796 220.952 14.9918C220.372 14.2958 219.544 13.9478 218.467 13.9478Z" fill="#CD62F3"/>
<path d="M234.415 12.2202C235.02 12.2202 235.563 12.2699 236.044 12.3693L235.758 14.2834C235.194 14.1591 234.697 14.0969 234.266 14.0969C233.164 14.0969 232.22 14.5444 231.433 15.4393C230.654 16.3342 230.264 17.4486 230.264 18.7827V26.0909H228.201V12.4687H229.904L230.14 14.9918H230.239C230.745 14.1052 231.354 13.4216 232.066 12.941C232.779 12.4605 233.562 12.2202 234.415 12.2202Z" fill="#CD62F3"/>
</svg>
