<svg width="149" height="35" viewBox="0 0 149 35" fill="none" xmlns="http://www.w3.org/2000/svg">
<path d="M31.8004 9.14773C27.1545 9.14773 23.3897 12.8864 23.3897 17.5C23.3897 22.1136 27.1545 25.8523 31.8004 25.8523C36.4463 25.8523 40.2111 22.1136 40.2111 17.5C40.2111 12.8864 36.4463 9.14773 31.8004 9.14773ZM31.8004 22.6705C28.9247 22.6705 26.5938 20.3557 26.5938 17.5C26.5938 14.6443 28.9247 12.3295 31.8004 12.3295C34.676 12.3295 37.007 14.6443 37.007 17.5C37.007 20.3557 34.676 22.6705 31.8004 22.6705Z" fill="#1DE9B6"/>
<path d="M50.8112 19.2977C52.9965 18.7011 54.6055 16.7125 54.6215 14.358C54.6215 14.342 54.6215 14.3341 54.6215 14.3182C54.6215 14.3023 54.6215 14.2943 54.6215 14.2784C54.5975 11.4386 52.2761 9.14773 49.4183 9.14773H42.6141V12.1545L45.1757 16.2989H42.6221V25.8523H45.8241V19.4807H47.1689L51.1049 25.8523H54.8697L50.8112 19.2977ZM49.4263 16.3068H48.954L46.4805 12.3295H49.4263C50.531 12.3295 51.4276 13.2205 51.4276 14.3182C51.4276 15.4159 50.531 16.3068 49.4263 16.3068Z" fill="#1DE9B6"/>
<path d="M60.3166 25.8523H56.712L60.9414 17.508L56.712 9.14773H60.3166L62.7277 13.9523L65.2028 9.14773H68.7273L60.3166 25.8523Z" fill="#1DE9B6"/>
<path d="M8.41068 9.14773C3.76478 9.14773 0 12.8864 0 17.5C0 22.1136 3.76478 25.8523 8.41068 25.8523C13.0566 25.8523 16.8214 22.1136 16.8214 17.5C16.8214 12.8864 13.0566 9.14773 8.41068 9.14773Z" fill="#1DE9B6"/>
<path d="M8.41068 3.26334e-06L16.8214 4.13637L16.8214 7.71591L8.41068 3.57955L0 7.71591L-1.57561e-07 4.13637L8.41068 3.26334e-06Z" fill="#1DE9B6"/>
<path d="M8.41068 35L3.79125e-06 30.8636L3.94881e-06 27.2841L8.41068 31.4205L16.8214 27.2841L16.8214 30.8636L8.41068 35Z" fill="#1DE9B6"/>
<path d="M86.0856 7.91974L79.3118 26.0909H77.2486L84.0224 7.91974H86.0856Z" fill="#1DE9B6"/>
<path d="M98.4574 19.1183C98.8137 18.6128 99.3564 17.9499 100.086 17.1296L104.485 12.4687H106.934L101.415 18.2731L107.319 26.0909H104.821L100.011 19.6527L98.4574 20.995V26.0909H96.419V6.75142H98.4574V17.0053C98.4574 17.4611 98.4243 18.1654 98.358 19.1183H98.4574Z" fill="#1DE9B6"/>
<path d="M116.184 26.3395C114.17 26.3395 112.579 25.7263 111.411 24.5C110.251 23.2737 109.671 21.5709 109.671 19.3917C109.671 17.1959 110.209 15.4517 111.287 14.1591C112.372 12.8665 113.826 12.2202 115.649 12.2202C117.356 12.2202 118.707 12.7836 119.701 13.9105C120.695 15.0291 121.192 16.5082 121.192 18.3477V19.6527H111.809C111.85 21.2519 112.252 22.4658 113.014 23.2944C113.785 24.123 114.866 24.5373 116.258 24.5373C117.725 24.5373 119.175 24.2307 120.608 23.6175V25.457C119.879 25.7719 119.187 25.9956 118.533 26.1282C117.886 26.2691 117.103 26.3395 116.184 26.3395ZM115.624 13.9478C114.531 13.9478 113.656 14.3041 113.002 15.0167C112.355 15.7293 111.974 16.7153 111.858 17.9748H118.98C118.98 16.6739 118.69 15.6796 118.11 14.9918C117.53 14.2958 116.701 13.9478 115.624 13.9478Z" fill="#1DE9B6"/>
<path d="M129.759 24.6367C130.123 24.6367 130.475 24.6119 130.815 24.5621C131.155 24.5041 131.424 24.4461 131.623 24.3881V25.9666C131.399 26.0743 131.068 26.1613 130.629 26.2276C130.198 26.3022 129.808 26.3395 129.46 26.3395C126.825 26.3395 125.508 24.9516 125.508 22.1758V14.0721H123.556V13.0778L125.508 12.2202L126.378 9.31179H127.571V12.4687H131.523V14.0721H127.571V22.0888C127.571 22.9091 127.766 23.5388 128.155 23.978C128.545 24.4171 129.079 24.6367 129.759 24.6367Z" fill="#1DE9B6"/>
<path d="M146.751 19.2674C146.751 21.488 146.192 23.224 145.074 24.4751C143.955 25.718 142.41 26.3395 140.438 26.3395C139.219 26.3395 138.138 26.0536 137.194 25.4819C136.249 24.9102 135.52 24.0898 135.006 23.021C134.492 21.9521 134.235 20.7009 134.235 19.2674C134.235 17.0468 134.791 15.3191 135.901 14.0845C137.011 12.8416 138.552 12.2202 140.525 12.2202C142.43 12.2202 143.942 12.854 145.061 14.1218C146.188 15.3896 146.751 17.1048 146.751 19.2674ZM136.373 19.2674C136.373 21.0075 136.721 22.3332 137.417 23.2447C138.113 24.1561 139.137 24.6119 140.487 24.6119C141.838 24.6119 142.861 24.1603 143.557 23.2571C144.261 22.3456 144.614 21.0157 144.614 19.2674C144.614 17.5356 144.261 16.2223 143.557 15.3274C142.861 14.4242 141.83 13.9727 140.462 13.9727C139.112 13.9727 138.093 14.416 137.405 15.3026C136.717 16.1892 136.373 17.5108 136.373 19.2674Z" fill="#1DE9B6"/>
</svg>
