<svg width="112" height="24" viewBox="0 0 112 24" fill="none" xmlns="http://www.w3.org/2000/svg">
<path d="M36.0148 20H32.5926L36.608 12.0076L32.5926 4H36.0148L38.3039 8.6019L40.6538 4H44L36.0148 20Z" fill="#0F172A"/>
<path fill-rule="evenodd" clip-rule="evenodd" d="M25.803 13.7219C27.8635 13.1505 29.3806 11.2457 29.3957 8.99048V8.95238V8.91428C29.373 6.19428 27.1842 4 24.4897 4H18.0741V6.88L20.4894 10.8495H18.0816V20H21.1007V13.8971H22.3687L26.0799 20H29.6297L25.803 13.7219ZM24.0519 10.8571H24.4972C25.5388 10.8571 26.3841 10.0038 26.3841 8.95238C26.3841 7.90095 25.5388 7.04762 24.4972 7.04762H21.7196L24.0519 10.8571Z" fill="#0F172A"/>
<path fill-rule="evenodd" clip-rule="evenodd" d="M8 4C3.58096 4 0 7.58095 0 12C0 16.419 3.58096 20 8 20C12.4191 20 16 16.419 16 12C16 7.58095 12.4191 4 8 4ZM3.04762 12C3.04762 14.7352 5.26476 16.9524 8 16.9524C10.7352 16.9524 12.9524 14.7352 12.9524 12C12.9524 9.26476 10.7352 7.04762 8 7.04762C5.26476 7.04762 3.04762 9.26476 3.04762 12Z" fill="#0F172A"/>
<path d="M50.5 20H48L56.0612 4H58.5L50.5 20Z" fill="#0F172A"/>
<path d="M64.0781 20V4H70.0781C71.3073 4 72.3385 4.22917 73.1719 4.6875C74.0104 5.14583 74.6432 5.77604 75.0703 6.57812C75.5026 7.375 75.7188 8.28125 75.7188 9.29687C75.7188 10.3229 75.5026 11.2344 75.0703 12.0313C74.638 12.8281 74 13.4557 73.1562 13.9141C72.3125 14.3672 71.2734 14.5937 70.0391 14.5937H66.0625V12.2109H69.6484C70.3672 12.2109 70.9557 12.0859 71.4141 11.8359C71.8724 11.5859 72.2109 11.2422 72.4297 10.8047C72.6536 10.3672 72.7656 9.86458 72.7656 9.29687C72.7656 8.72917 72.6536 8.22917 72.4297 7.79688C72.2109 7.36458 71.8698 7.02865 71.4063 6.78906C70.9479 6.54427 70.3568 6.42188 69.6328 6.42188H66.9766V20H64.0781ZM82.5138 20.2344C81.342 20.2344 80.3263 19.9766 79.467 19.4609C78.6076 18.9453 77.9409 18.224 77.467 17.2969C76.9982 16.3698 76.7638 15.2865 76.7638 14.0469C76.7638 12.8073 76.9982 11.7214 77.467 10.7891C77.9409 9.85677 78.6076 9.13281 79.467 8.61719C80.3263 8.10156 81.342 7.84375 82.5138 7.84375C83.6857 7.84375 84.7013 8.10156 85.5607 8.61719C86.4201 9.13281 87.0841 9.85677 87.5529 10.7891C88.0268 11.7214 88.2638 12.8073 88.2638 14.0469C88.2638 15.2865 88.0268 16.3698 87.5529 17.2969C87.0841 18.224 86.4201 18.9453 85.5607 19.4609C84.7013 19.9766 83.6857 20.2344 82.5138 20.2344ZM82.5295 17.9687C83.1649 17.9687 83.6961 17.7943 84.1232 17.4453C84.5503 17.0911 84.868 16.6172 85.0763 16.0234C85.2899 15.4297 85.3966 14.7682 85.3966 14.0391C85.3966 13.3047 85.2899 12.6406 85.0763 12.0469C84.868 11.4479 84.5503 10.9714 84.1232 10.6172C83.6961 10.263 83.1649 10.0859 82.5295 10.0859C81.8784 10.0859 81.3367 10.263 80.9045 10.6172C80.4774 10.9714 80.1571 11.4479 79.9435 12.0469C79.7352 12.6406 79.631 13.3047 79.631 14.0391C79.631 14.7682 79.7352 15.4297 79.9435 16.0234C80.1571 16.6172 80.4774 17.0911 80.9045 17.4453C81.3367 17.7943 81.8784 17.9687 82.5295 17.9687ZM92.8323 4V20H90.0042V4H92.8323ZM95.0805 20V8H97.9087V20H95.0805ZM96.5024 6.29688C96.0545 6.29688 95.6691 6.14844 95.3462 5.85156C95.0233 5.54948 94.8618 5.1875 94.8618 4.76562C94.8618 4.33854 95.0233 3.97656 95.3462 3.67969C95.6691 3.3776 96.0545 3.22656 96.5024 3.22656C96.9555 3.22656 97.341 3.3776 97.6587 3.67969C97.9816 3.97656 98.143 4.33854 98.143 4.76562C98.143 5.1875 97.9816 5.54948 97.6587 5.85156C97.341 6.14844 96.9555 6.29688 96.5024 6.29688ZM109.641 11.1719L107.063 11.4531C106.99 11.1927 106.863 10.9479 106.68 10.7188C106.503 10.4896 106.264 10.3047 105.962 10.1641C105.659 10.0234 105.29 9.95312 104.852 9.95312C104.264 9.95312 103.769 10.0807 103.368 10.3359C102.972 10.5911 102.777 10.9219 102.782 11.3281C102.777 11.6771 102.904 11.9609 103.165 12.1797C103.43 12.3984 103.868 12.5781 104.477 12.7188L106.524 13.1562C107.659 13.401 108.503 13.7891 109.055 14.3203C109.613 14.8516 109.894 15.5469 109.899 16.4062C109.894 17.1615 109.673 17.8281 109.235 18.4062C108.803 18.9792 108.201 19.4271 107.43 19.75C106.659 20.0729 105.774 20.2344 104.774 20.2344C103.305 20.2344 102.123 19.9271 101.227 19.3125C100.331 18.6927 99.7975 17.8307 99.6256 16.7266L102.383 16.4609C102.508 17.0026 102.774 17.4115 103.18 17.6875C103.587 17.9635 104.115 18.1016 104.766 18.1016C105.438 18.1016 105.977 17.9635 106.383 17.6875C106.795 17.4115 107.001 17.0703 107.001 16.6641C107.001 16.3203 106.868 16.0365 106.602 15.8125C106.342 15.5885 105.936 15.4167 105.383 15.2969L103.337 14.8672C102.186 14.6276 101.334 14.224 100.782 13.6562C100.23 13.0833 99.9564 12.3594 99.9616 11.4844C99.9564 10.7448 100.157 10.1042 100.563 9.5625C100.975 9.01562 101.545 8.59375 102.274 8.29687C103.008 7.99479 103.855 7.84375 104.813 7.84375C106.219 7.84375 107.326 8.14323 108.133 8.74219C108.946 9.34115 109.449 10.151 109.641 11.1719Z" fill="#FACC15"/>
</svg>
