<svg width="1000" height="300" viewBox="0 0 1000 300" fill="none" xmlns="http://www.w3.org/2000/svg">
<g clip-path="url(#clip0)">
<rect width="1000" height="300" fill="white"/>
<rect width="1000" height="300" fill="white"/>
<rect width="1000" height="300" fill="url(#paint0_linear)" fill-opacity="0.2"/>
<path d="M419.972 137.375C412.671 137.375 406.755 143.25 406.755 150.5C406.755 157.75 412.671 163.625 419.972 163.625C427.273 163.625 433.189 157.75 433.189 150.5C433.189 143.25 427.273 137.375 419.972 137.375ZM419.972 158.625C415.453 158.625 411.79 154.988 411.79 150.5C411.79 146.013 415.453 142.375 419.972 142.375C424.491 142.375 428.154 146.013 428.154 150.5C428.154 154.988 424.491 158.625 419.972 158.625Z" fill="#FF6A85"/>
<path d="M449.846 153.325C453.281 152.388 455.809 149.263 455.834 145.563C455.834 145.538 455.834 145.525 455.834 145.5C455.834 145.475 455.834 145.463 455.834 145.438C455.796 140.975 452.148 137.375 447.658 137.375H436.965V142.1L440.991 148.613H436.978V163.625H442.01V153.613H444.123L450.308 163.625H456.224L449.846 153.325ZM447.67 148.625H446.928L443.041 142.375H447.67C449.406 142.375 450.815 143.775 450.815 145.5C450.815 147.225 449.406 148.625 447.67 148.625Z" fill="#FF6A85"/>
<path d="M464.783 163.625H459.119L465.765 150.513L459.119 137.375H464.783L468.572 144.925L472.462 137.375H478L464.783 163.625Z" fill="#FF6A85"/>
<path d="M383.217 137.375C375.916 137.375 370 143.25 370 150.5C370 157.75 375.916 163.625 383.217 163.625C390.517 163.625 396.434 157.75 396.434 150.5C396.434 143.25 390.517 137.375 383.217 137.375Z" fill="#FF6A85"/>
<path d="M383.217 123L396.434 129.5L396.434 135.125L383.217 128.625L370 135.125L370 129.5L383.217 123Z" fill="#FF6A85"/>
<path d="M383.217 178L370 171.5L370 165.875L383.217 172.375L396.434 165.875L396.434 171.5L383.217 178Z" fill="#FF6A85"/>
<path d="M505.277 135.445L494.633 164H491.391L502.035 135.445H505.277ZM536.164 164V150.152C536.164 148.408 535.767 147.105 534.973 146.246C534.178 145.387 532.935 144.957 531.242 144.957C528.99 144.957 527.342 145.569 526.301 146.793C525.272 148.017 524.758 150.022 524.758 152.809V164H521.516V133.609H524.758V142.809C524.758 143.915 524.706 144.833 524.602 145.562H524.797C525.435 144.534 526.34 143.727 527.512 143.141C528.697 142.542 530.044 142.242 531.555 142.242C534.172 142.242 536.132 142.867 537.434 144.117C538.749 145.354 539.406 147.327 539.406 150.035V164H536.164ZM543.688 142.594H547.164L551.852 154.801C552.88 157.587 553.518 159.599 553.766 160.836H553.922C554.091 160.172 554.443 159.039 554.977 157.438C555.523 155.823 557.294 150.875 560.289 142.594H563.766L554.566 166.969C553.655 169.378 552.587 171.083 551.363 172.086C550.152 173.102 548.661 173.609 546.891 173.609C545.901 173.609 544.924 173.499 543.961 173.277V170.68C544.677 170.836 545.478 170.914 546.363 170.914C548.59 170.914 550.178 169.664 551.129 167.164L552.32 164.117L543.688 142.594ZM582.812 161.129H582.637C581.139 163.303 578.9 164.391 575.918 164.391C573.118 164.391 570.938 163.434 569.375 161.52C567.826 159.605 567.051 156.884 567.051 153.355C567.051 149.827 567.832 147.086 569.395 145.133C570.957 143.18 573.132 142.203 575.918 142.203C578.822 142.203 581.048 143.258 582.598 145.367H582.852L582.715 143.824L582.637 142.32V133.609H585.879V164H583.242L582.812 161.129ZM576.328 161.676C578.542 161.676 580.143 161.077 581.133 159.879C582.135 158.668 582.637 156.721 582.637 154.039V153.355C582.637 150.322 582.129 148.16 581.113 146.871C580.111 145.569 578.503 144.918 576.289 144.918C574.388 144.918 572.93 145.66 571.914 147.145C570.911 148.616 570.41 150.699 570.41 153.395C570.41 156.129 570.911 158.193 571.914 159.586C572.917 160.979 574.388 161.676 576.328 161.676ZM603.539 142.203C604.49 142.203 605.342 142.281 606.098 142.438L605.648 145.445C604.763 145.25 603.982 145.152 603.305 145.152C601.573 145.152 600.089 145.855 598.852 147.262C597.628 148.668 597.016 150.419 597.016 152.516V164H593.773V142.594H596.449L596.82 146.559H596.977C597.771 145.165 598.728 144.091 599.848 143.336C600.967 142.581 602.198 142.203 603.539 142.203ZM624.266 164L623.621 160.953H623.465C622.397 162.294 621.329 163.206 620.262 163.688C619.207 164.156 617.885 164.391 616.297 164.391C614.174 164.391 612.508 163.844 611.297 162.75C610.099 161.656 609.5 160.1 609.5 158.082C609.5 153.759 612.957 151.493 619.871 151.285L623.504 151.168V149.84C623.504 148.16 623.139 146.923 622.41 146.129C621.694 145.322 620.542 144.918 618.953 144.918C617.169 144.918 615.151 145.465 612.898 146.559L611.902 144.078C612.957 143.505 614.109 143.056 615.359 142.73C616.622 142.405 617.885 142.242 619.148 142.242C621.701 142.242 623.589 142.809 624.812 143.941C626.049 145.074 626.668 146.891 626.668 149.391V164H624.266ZM616.941 161.715C618.96 161.715 620.542 161.161 621.688 160.055C622.846 158.948 623.426 157.398 623.426 155.406V153.473L620.184 153.609C617.605 153.701 615.743 154.104 614.598 154.82C613.465 155.523 612.898 156.624 612.898 158.121C612.898 159.293 613.25 160.185 613.953 160.797C614.669 161.409 615.665 161.715 616.941 161.715Z" fill="#FF6A85"/>
<path d="M416.824 195.909C416.824 192.688 414.935 190.679 412.33 190.679C409.724 190.679 407.835 192.688 407.835 195.909C407.835 199.131 409.724 201.139 412.33 201.139C414.935 201.139 416.824 199.131 416.824 195.909ZM415.631 195.909C415.631 198.554 414.179 199.986 412.33 199.986C410.48 199.986 409.028 198.554 409.028 195.909C409.028 193.264 410.48 191.832 412.33 191.832C414.179 191.832 415.631 193.264 415.631 195.909ZM418.986 201L420.01 198.116H424.127L425.151 201H426.444L422.705 190.818H421.432L417.694 201H418.986ZM420.398 197.023L422.029 192.429H422.108L423.739 197.023H420.398ZM432.833 197.878C432.833 199.31 431.739 199.966 430.864 199.966C429.89 199.966 429.194 199.25 429.194 198.136V193.364H428.02V198.216C428.02 200.165 429.054 201.099 430.486 201.099C431.64 201.099 432.395 200.483 432.753 199.707H432.833V201H434.006V193.364H432.833V197.878ZM439.626 193.364H437.995V191.534H436.822V193.364H435.669V194.358H436.822V199.131C436.822 200.463 437.896 201.099 438.89 201.099C439.328 201.099 439.606 201.02 439.765 200.96L439.527 199.906C439.427 199.926 439.268 199.966 439.01 199.966C438.493 199.966 437.995 199.807 437.995 198.812V194.358H439.626V193.364ZM442.878 196.406C442.878 195.074 443.729 194.318 444.887 194.318C445.991 194.318 446.657 195.014 446.657 196.227V201H447.83V196.148C447.83 194.184 446.786 193.264 445.225 193.264C444.022 193.264 443.336 193.766 442.978 194.557H442.878V190.818H441.705V201H442.878V196.406ZM454.194 201H460.618V199.906H455.885V199.827L458.171 197.381C459.921 195.506 460.439 194.631 460.439 193.503C460.439 191.932 459.166 190.679 457.376 190.679C455.591 190.679 454.234 191.892 454.234 193.682H455.407C455.407 192.523 456.158 191.753 457.336 191.753C458.44 191.753 459.285 192.429 459.285 193.503C459.285 194.442 458.733 195.138 457.555 196.426L454.194 200.105V201ZM463.696 201.08C464.188 201.08 464.591 200.677 464.591 200.185C464.591 199.692 464.188 199.29 463.696 199.29C463.204 199.29 462.801 199.692 462.801 200.185C462.801 200.677 463.204 201.08 463.696 201.08ZM469.792 201.139C472.039 201.139 473.332 199.235 473.332 195.909C473.332 192.608 472.019 190.679 469.792 190.679C467.565 190.679 466.252 192.608 466.252 195.909C466.252 199.235 467.545 201.139 469.792 201.139ZM469.792 200.045C468.31 200.045 467.445 198.559 467.445 195.909C467.445 193.264 468.32 191.753 469.792 191.753C471.263 191.753 472.138 193.264 472.138 195.909C472.138 198.559 471.273 200.045 469.792 200.045ZM480.055 201L481.079 198.116H485.195L486.22 201H487.512L483.774 190.818H482.501L478.762 201H480.055ZM481.467 197.023L483.097 192.429H483.177L484.808 197.023H481.467ZM490.262 196.406C490.262 195.074 491.088 194.318 492.211 194.318C493.3 194.318 493.961 195.029 493.961 196.227V201H495.135V196.148C495.135 194.199 494.095 193.264 492.549 193.264C491.396 193.264 490.68 193.781 490.322 194.557H490.223V193.364H489.089V201H490.262V196.406ZM500.312 201.159C501.784 201.159 502.281 200.244 502.539 199.827H502.679V201H503.812V190.818H502.639V194.577H502.539C502.281 194.179 501.823 193.264 500.332 193.264C498.403 193.264 497.071 194.795 497.071 197.202C497.071 199.628 498.403 201.159 500.312 201.159ZM500.471 200.105C499 200.105 498.244 198.812 498.244 197.182C498.244 195.571 498.98 194.318 500.471 194.318C501.903 194.318 502.659 195.472 502.659 197.182C502.659 198.912 501.883 200.105 500.471 200.105ZM519.111 195.909C519.111 192.688 517.222 190.679 514.617 190.679C512.012 190.679 510.123 192.688 510.123 195.909C510.123 199.131 512.012 201.139 514.617 201.139C517.222 201.139 519.111 199.131 519.111 195.909ZM517.918 195.909C517.918 198.554 516.466 199.986 514.617 199.986C512.768 199.986 511.316 198.554 511.316 195.909C511.316 193.264 512.768 191.832 514.617 191.832C516.466 191.832 517.918 193.264 517.918 195.909ZM521.175 203.864H522.349V199.827H522.448C522.707 200.244 523.204 201.159 524.675 201.159C526.585 201.159 527.917 199.628 527.917 197.202C527.917 194.795 526.585 193.264 524.656 193.264C523.164 193.264 522.707 194.179 522.448 194.577H522.309V193.364H521.175V203.864ZM522.329 197.182C522.329 195.472 523.085 194.318 524.516 194.318C526.008 194.318 526.744 195.571 526.744 197.182C526.744 198.812 525.988 200.105 524.516 200.105C523.104 200.105 522.329 198.912 522.329 197.182ZM533.058 201.159C534.61 201.159 535.743 200.384 536.101 199.23L534.967 198.912C534.669 199.707 533.978 200.105 533.058 200.105C531.681 200.105 530.732 199.215 530.677 197.58H536.22V197.082C536.22 194.239 534.53 193.264 532.939 193.264C530.871 193.264 529.499 194.895 529.499 197.241C529.499 199.588 530.851 201.159 533.058 201.159ZM530.677 196.565C530.757 195.377 531.597 194.318 532.939 194.318C534.212 194.318 535.027 195.273 535.027 196.565H530.677ZM539.328 196.406C539.328 195.074 540.154 194.318 541.277 194.318C542.366 194.318 543.027 195.029 543.027 196.227V201H544.201V196.148C544.201 194.199 543.162 193.264 541.615 193.264C540.462 193.264 539.746 193.781 539.388 194.557H539.289V193.364H538.155V201H539.328V196.406ZM547.887 190.818H546.654V201H547.887V190.818ZM553.651 201C556.753 201 558.503 199.071 558.503 195.889C558.503 192.727 556.753 190.818 553.79 190.818H550.509V201H553.651ZM551.742 199.906V191.912H553.71C556.097 191.912 557.31 193.423 557.31 195.889C557.31 198.375 556.097 199.906 553.571 199.906H551.742ZM573.002 194C572.624 191.912 570.954 190.679 568.905 190.679C566.3 190.679 564.411 192.688 564.411 195.909C564.411 199.131 566.3 201.139 568.905 201.139C570.954 201.139 572.624 199.906 573.002 197.818H571.769C571.471 199.23 570.258 199.986 568.905 199.986C567.056 199.986 565.604 198.554 565.604 195.909C565.604 193.264 567.056 191.832 568.905 191.832C570.258 191.832 571.471 192.588 571.769 194H573.002ZM578.087 201.159C580.156 201.159 581.548 199.588 581.548 197.222C581.548 194.835 580.156 193.264 578.087 193.264C576.019 193.264 574.627 194.835 574.627 197.222C574.627 199.588 576.019 201.159 578.087 201.159ZM578.087 200.105C576.516 200.105 575.801 198.753 575.801 197.222C575.801 195.69 576.516 194.318 578.087 194.318C579.658 194.318 580.374 195.69 580.374 197.222C580.374 198.753 579.658 200.105 578.087 200.105ZM584.662 196.406C584.662 195.074 585.487 194.318 586.611 194.318C587.7 194.318 588.361 195.029 588.361 196.227V201H589.534V196.148C589.534 194.199 588.495 193.264 586.949 193.264C585.796 193.264 585.08 193.781 584.722 194.557H584.622V193.364H583.489V201H584.662V196.406ZM593.001 196.406C593.001 195.074 593.827 194.318 594.95 194.318C596.039 194.318 596.7 195.029 596.7 196.227V201H597.874V196.148C597.874 194.199 596.835 193.264 595.288 193.264C594.135 193.264 593.419 193.781 593.061 194.557H592.962V193.364H591.828V201H593.001V196.406ZM603.369 201.159C604.92 201.159 606.054 200.384 606.412 199.23L605.278 198.912C604.98 199.707 604.289 200.105 603.369 200.105C601.992 200.105 601.043 199.215 600.988 197.58H606.531V197.082C606.531 194.239 604.841 193.264 603.25 193.264C601.182 193.264 599.81 194.895 599.81 197.241C599.81 199.588 601.162 201.159 603.369 201.159ZM600.988 196.565C601.067 195.377 601.908 194.318 603.25 194.318C604.523 194.318 605.338 195.273 605.338 196.565H600.988ZM611.568 201.159C613.259 201.159 614.372 200.125 614.571 198.773H613.398C613.179 199.608 612.483 200.105 611.568 200.105C610.176 200.105 609.281 198.952 609.281 197.182C609.281 195.452 610.196 194.318 611.568 194.318C612.602 194.318 613.219 194.955 613.398 195.651H614.571C614.372 194.219 613.159 193.264 611.548 193.264C609.48 193.264 608.108 194.895 608.108 197.222C608.108 199.509 609.421 201.159 611.568 201.159ZM619.757 193.364H618.127V191.534H616.953V193.364H615.8V194.358H616.953V199.131C616.953 200.463 618.027 201.099 619.022 201.099C619.459 201.099 619.738 201.02 619.897 200.96L619.658 199.906C619.559 199.926 619.399 199.966 619.141 199.966C618.624 199.966 618.127 199.807 618.127 198.812V194.358H619.757V193.364Z" fill="#FF3358"/>
<line x1="1000" y1="0.5" y2="0.5" stroke="#FF6A85"/>
</g>
<defs>
<linearGradient id="paint0_linear" x1="1000" y1="300" x2="-18.3028" y2="87.8536" gradientUnits="userSpaceOnUse">
<stop stop-color="#FF6A85"/>
<stop offset="1" stop-color="#FF6A85" stop-opacity="0"/>
</linearGradient>
<clipPath id="clip0">
<rect width="1000" height="300" fill="white"/>
</clipPath>
</defs>
</svg>
