<svg width="1000" height="300" viewBox="0 0 1000 300" fill="none" xmlns="http://www.w3.org/2000/svg">
<g clip-path="url(#clip0)">
<rect width="1000" height="300" fill="white"/>
<rect width="1000" height="300" fill="white"/>
<rect width="1000" height="300" fill="url(#paint0_linear)" fill-opacity="0.2"/>
<path d="M415.972 137.375C408.671 137.375 402.755 143.25 402.755 150.5C402.755 157.75 408.671 163.625 415.972 163.625C423.273 163.625 429.189 157.75 429.189 150.5C429.189 143.25 423.273 137.375 415.972 137.375ZM415.972 158.625C411.453 158.625 407.79 154.987 407.79 150.5C407.79 146.012 411.453 142.375 415.972 142.375C420.491 142.375 424.154 146.012 424.154 150.5C424.154 154.987 420.491 158.625 415.972 158.625Z" fill="#1DE9B6"/>
<path d="M445.846 153.325C449.281 152.387 451.809 149.262 451.834 145.562C451.834 145.537 451.834 145.525 451.834 145.5C451.834 145.475 451.834 145.462 451.834 145.437C451.796 140.975 448.148 137.375 443.658 137.375H432.965V142.1L436.991 148.612H432.978V163.625H438.01V153.612H440.123L446.308 163.625H452.224L445.846 153.325ZM443.67 148.625H442.928L439.041 142.375H443.67C445.406 142.375 446.815 143.775 446.815 145.5C446.815 147.225 445.406 148.625 443.67 148.625Z" fill="#1DE9B6"/>
<path d="M460.783 163.625H455.119L461.765 150.512L455.119 137.375H460.783L464.572 144.925L468.462 137.375H474L460.783 163.625Z" fill="#1DE9B6"/>
<path d="M379.217 137.375C371.916 137.375 366 143.25 366 150.5C366 157.75 371.916 163.625 379.217 163.625C386.517 163.625 392.434 157.75 392.434 150.5C392.434 143.25 386.517 137.375 379.217 137.375Z" fill="#1DE9B6"/>
<path d="M379.217 123L392.434 129.5L392.434 135.125L379.217 128.625L366 135.125L366 129.5L379.217 123Z" fill="#1DE9B6"/>
<path d="M379.217 178L366 171.5L366 165.875L379.217 172.375L392.434 165.875L392.434 171.5L379.217 178Z" fill="#1DE9B6"/>
<path d="M501.277 135.445L490.633 164H487.391L498.035 135.445H501.277ZM520.719 153.043C521.279 152.249 522.132 151.207 523.277 149.918L530.191 142.594H534.039L525.367 151.715L534.645 164H530.719L523.16 153.883L520.719 155.992V164H517.516V133.609H520.719V149.723C520.719 150.439 520.667 151.546 520.562 153.043H520.719ZM548.574 164.391C545.41 164.391 542.91 163.427 541.074 161.5C539.251 159.573 538.34 156.897 538.34 153.473C538.34 150.022 539.186 147.281 540.879 145.25C542.585 143.219 544.87 142.203 547.734 142.203C550.417 142.203 552.539 143.089 554.102 144.859C555.664 146.617 556.445 148.941 556.445 151.832V153.883H541.699C541.764 156.396 542.396 158.303 543.594 159.605C544.805 160.908 546.504 161.559 548.691 161.559C550.996 161.559 553.275 161.077 555.527 160.113V163.004C554.382 163.499 553.294 163.85 552.266 164.059C551.25 164.28 550.02 164.391 548.574 164.391ZM547.695 144.918C545.977 144.918 544.603 145.478 543.574 146.598C542.559 147.717 541.96 149.267 541.777 151.246H552.969C552.969 149.202 552.513 147.639 551.602 146.559C550.69 145.465 549.388 144.918 547.695 144.918ZM569.906 161.715C570.479 161.715 571.033 161.676 571.566 161.598C572.1 161.507 572.523 161.415 572.836 161.324V163.805C572.484 163.974 571.964 164.111 571.273 164.215C570.596 164.332 569.984 164.391 569.438 164.391C565.297 164.391 563.227 162.21 563.227 157.848V145.113H560.16V143.551L563.227 142.203L564.594 137.633H566.469V142.594H572.68V145.113H566.469V157.711C566.469 159 566.775 159.99 567.387 160.68C567.999 161.37 568.839 161.715 569.906 161.715ZM596.609 153.277C596.609 156.767 595.73 159.495 593.973 161.461C592.215 163.414 589.786 164.391 586.688 164.391C584.773 164.391 583.074 163.941 581.59 163.043C580.105 162.145 578.96 160.855 578.152 159.176C577.345 157.496 576.941 155.53 576.941 153.277C576.941 149.788 577.814 147.073 579.559 145.133C581.303 143.18 583.725 142.203 586.824 142.203C589.819 142.203 592.195 143.199 593.953 145.191C595.724 147.184 596.609 149.879 596.609 153.277ZM580.301 153.277C580.301 156.012 580.848 158.095 581.941 159.527C583.035 160.96 584.643 161.676 586.766 161.676C588.888 161.676 590.496 160.966 591.59 159.547C592.697 158.115 593.25 156.025 593.25 153.277C593.25 150.556 592.697 148.492 591.59 147.086C590.496 145.667 588.875 144.957 586.727 144.957C584.604 144.957 583.003 145.654 581.922 147.047C580.841 148.44 580.301 150.517 580.301 153.277Z" fill="#1DE9B6"/>
<path d="M404.233 201H405.466V197.281H407.693C410.065 197.281 411.134 195.839 411.134 194.04C411.134 192.24 410.065 190.818 407.673 190.818H404.233V201ZM405.466 196.188V191.912H407.634C409.289 191.912 409.92 192.817 409.92 194.04C409.92 195.263 409.289 196.188 407.653 196.188H405.466ZM416.23 201.159C417.781 201.159 418.915 200.384 419.273 199.23L418.139 198.912C417.841 199.707 417.15 200.105 416.23 200.105C414.853 200.105 413.904 199.215 413.849 197.58H419.392V197.082C419.392 194.239 417.702 193.264 416.111 193.264C414.043 193.264 412.671 194.895 412.671 197.241C412.671 199.588 414.023 201.159 416.23 201.159ZM413.849 196.565C413.928 195.377 414.769 194.318 416.111 194.318C417.384 194.318 418.199 195.273 418.199 196.565H413.849ZM421.327 201H422.5V196.168C422.5 195.134 423.316 194.378 424.429 194.378C424.742 194.378 425.066 194.438 425.145 194.457V193.264C425.011 193.254 424.703 193.244 424.529 193.244C423.614 193.244 422.818 193.761 422.54 194.517H422.461V193.364H421.327V201ZM426.686 201H427.859V196.227C427.859 195.109 428.675 194.318 429.589 194.318C430.479 194.318 431.101 194.9 431.101 195.77V201H432.294V196.028C432.294 195.044 432.91 194.318 433.984 194.318C434.819 194.318 435.535 194.761 435.535 195.889V201H436.709V195.889C436.709 194.094 435.744 193.264 434.382 193.264C433.288 193.264 432.488 193.766 432.095 194.557H432.016C431.638 193.741 430.971 193.264 429.967 193.264C428.973 193.264 428.237 193.741 427.919 194.557H427.819V193.364H426.686V201ZM439.004 201H440.177V193.364H439.004V201ZM439.601 192.091C440.058 192.091 440.436 191.733 440.436 191.295C440.436 190.858 440.058 190.5 439.601 190.5C439.143 190.5 438.765 190.858 438.765 191.295C438.765 191.733 439.143 192.091 439.601 192.091ZM447.885 195.074C447.517 193.99 446.692 193.264 445.181 193.264C443.57 193.264 442.377 194.179 442.377 195.472C442.377 196.526 443.003 197.232 444.405 197.56L445.678 197.858C446.449 198.037 446.811 198.405 446.811 198.932C446.811 199.588 446.115 200.125 445.022 200.125C444.062 200.125 443.461 199.712 443.252 198.892L442.138 199.17C442.412 200.468 443.48 201.159 445.042 201.159C446.816 201.159 448.025 200.19 448.025 198.872C448.025 197.808 447.358 197.137 445.996 196.804L444.863 196.526C443.958 196.302 443.55 195.999 443.55 195.412C443.55 194.756 444.246 194.278 445.181 194.278C446.205 194.278 446.627 194.845 446.831 195.372L447.885 195.074ZM455.35 195.074C454.982 193.99 454.157 193.264 452.645 193.264C451.034 193.264 449.841 194.179 449.841 195.472C449.841 196.526 450.468 197.232 451.87 197.56L453.142 197.858C453.913 198.037 454.276 198.405 454.276 198.932C454.276 199.588 453.58 200.125 452.486 200.125C451.527 200.125 450.925 199.712 450.716 198.892L449.603 199.17C449.876 200.468 450.945 201.159 452.506 201.159C454.281 201.159 455.489 200.19 455.489 198.872C455.489 197.808 454.823 197.137 453.461 196.804L452.327 196.526C451.422 196.302 451.015 195.999 451.015 195.412C451.015 194.756 451.711 194.278 452.645 194.278C453.669 194.278 454.092 194.845 454.296 195.372L455.35 195.074ZM457.405 201H458.578V193.364H457.405V201ZM458.002 192.091C458.459 192.091 458.837 191.733 458.837 191.295C458.837 190.858 458.459 190.5 458.002 190.5C457.544 190.5 457.166 190.858 457.166 191.295C457.166 191.733 457.544 192.091 458.002 192.091ZM463.98 201.159C466.048 201.159 467.44 199.588 467.44 197.222C467.44 194.835 466.048 193.264 463.98 193.264C461.911 193.264 460.519 194.835 460.519 197.222C460.519 199.588 461.911 201.159 463.98 201.159ZM463.98 200.105C462.409 200.105 461.693 198.753 461.693 197.222C461.693 195.69 462.409 194.318 463.98 194.318C465.551 194.318 466.267 195.69 466.267 197.222C466.267 198.753 465.551 200.105 463.98 200.105ZM470.554 196.406C470.554 195.074 471.379 194.318 472.503 194.318C473.592 194.318 474.253 195.029 474.253 196.227V201H475.426V196.148C475.426 194.199 474.387 193.264 472.841 193.264C471.688 193.264 470.972 193.781 470.614 194.557H470.514V193.364H469.381V201H470.554V196.406ZM482.385 201L483.409 198.116H487.525L488.549 201H489.842L486.103 190.818H484.831L481.092 201H482.385ZM483.796 197.023L485.427 192.429H485.507L487.137 197.023H483.796ZM492.592 196.406C492.592 195.074 493.417 194.318 494.541 194.318C495.63 194.318 496.291 195.029 496.291 196.227V201H497.464V196.148C497.464 194.199 496.425 193.264 494.879 193.264C493.726 193.264 493.01 193.781 492.652 194.557H492.552V193.364H491.419V201H492.592V196.406ZM502.642 201.159C504.113 201.159 504.611 200.244 504.869 199.827H505.008V201H506.142V190.818H504.968V194.577H504.869C504.611 194.179 504.153 193.264 502.662 193.264C500.733 193.264 499.4 194.795 499.4 197.202C499.4 199.628 500.733 201.159 502.642 201.159ZM502.801 200.105C501.329 200.105 500.574 198.812 500.574 197.182C500.574 195.571 501.309 194.318 502.801 194.318C504.233 194.318 504.988 195.472 504.988 197.182C504.988 198.912 504.213 200.105 502.801 200.105ZM512.85 201H514.083V197.023H516.31C516.4 197.023 516.484 197.023 516.569 197.018L518.717 201H520.148L517.847 196.794C519.144 196.352 519.751 195.293 519.751 193.94C519.751 192.141 518.677 190.818 516.29 190.818H512.85V201ZM514.083 195.909V191.912H516.251C517.901 191.912 518.538 192.717 518.538 193.94C518.538 195.163 517.901 195.909 516.271 195.909H514.083ZM524.816 201.159C526.885 201.159 528.277 199.588 528.277 197.222C528.277 194.835 526.885 193.264 524.816 193.264C522.748 193.264 521.356 194.835 521.356 197.222C521.356 199.588 522.748 201.159 524.816 201.159ZM524.816 200.105C523.245 200.105 522.529 198.753 522.529 197.222C522.529 195.69 523.245 194.318 524.816 194.318C526.387 194.318 527.103 195.69 527.103 197.222C527.103 198.753 526.387 200.105 524.816 200.105ZM531.391 190.818H530.218V201H531.391V190.818ZM536.892 201.159C538.443 201.159 539.576 200.384 539.934 199.23L538.801 198.912C538.502 199.707 537.811 200.105 536.892 200.105C535.514 200.105 534.565 199.215 534.51 197.58H540.054V197.082C540.054 194.239 538.363 193.264 536.772 193.264C534.704 193.264 533.332 194.895 533.332 197.241C533.332 199.588 534.684 201.159 536.892 201.159ZM534.51 196.565C534.59 195.377 535.43 194.318 536.772 194.318C538.045 194.318 538.86 195.273 538.86 196.565H534.51ZM546.235 190.818V201H547.388V193.264H547.488L550.67 201H551.783L554.965 193.264H555.064V201H556.218V190.818H554.746L551.286 199.27H551.167L547.706 190.818H546.235ZM560.928 201.179C562.26 201.179 562.956 200.463 563.195 199.966H563.255V201H564.428V195.969C564.428 193.543 562.579 193.264 561.604 193.264C560.451 193.264 559.138 193.662 558.542 195.054L559.655 195.452C559.914 194.895 560.525 194.298 561.644 194.298C562.723 194.298 563.255 194.87 563.255 195.849V195.889C563.255 196.456 562.678 196.406 561.286 196.585C559.869 196.769 558.323 197.082 558.323 198.832C558.323 200.324 559.476 201.179 560.928 201.179ZM561.107 200.125C560.172 200.125 559.496 199.707 559.496 198.892C559.496 197.997 560.312 197.719 561.226 197.599C561.724 197.54 563.056 197.401 563.255 197.162V198.236C563.255 199.19 562.499 200.125 561.107 200.125ZM567.893 196.406C567.893 195.074 568.718 194.318 569.842 194.318C570.931 194.318 571.592 195.029 571.592 196.227V201H572.765V196.148C572.765 194.199 571.726 193.264 570.18 193.264C569.026 193.264 568.31 193.781 567.953 194.557H567.853V193.364H566.72V201H567.893V196.406ZM577.306 201.179C578.639 201.179 579.335 200.463 579.573 199.966H579.633V201H580.806V195.969C580.806 193.543 578.957 193.264 577.982 193.264C576.829 193.264 575.516 193.662 574.92 195.054L576.033 195.452C576.292 194.895 576.903 194.298 578.022 194.298C579.101 194.298 579.633 194.87 579.633 195.849V195.889C579.633 196.456 579.056 196.406 577.664 196.585C576.247 196.769 574.701 197.082 574.701 198.832C574.701 200.324 575.854 201.179 577.306 201.179ZM577.485 200.125C576.55 200.125 575.874 199.707 575.874 198.892C575.874 197.997 576.69 197.719 577.604 197.599C578.102 197.54 579.434 197.401 579.633 197.162V198.236C579.633 199.19 578.877 200.125 577.485 200.125ZM586.18 204.023C588.01 204.023 589.481 203.188 589.481 201.219V193.364H588.348V194.577H588.228C587.97 194.179 587.493 193.264 586.001 193.264C584.072 193.264 582.74 194.795 582.74 197.142C582.74 199.528 584.132 200.881 585.981 200.881C587.473 200.881 587.95 200.006 588.208 199.588H588.308V201.139C588.308 202.412 587.413 202.989 586.18 202.989C584.793 202.989 584.306 202.258 583.993 201.835L583.058 202.491C583.535 203.292 584.475 204.023 586.18 204.023ZM586.14 199.827C584.669 199.827 583.913 198.713 583.913 197.122C583.913 195.571 584.649 194.318 586.14 194.318C587.572 194.318 588.328 195.472 588.328 197.122C588.328 198.812 587.552 199.827 586.14 199.827ZM594.981 201.159C596.532 201.159 597.665 200.384 598.023 199.23L596.89 198.912C596.591 199.707 595.9 200.105 594.981 200.105C593.604 200.105 592.654 199.215 592.599 197.58H598.143V197.082C598.143 194.239 596.452 193.264 594.861 193.264C592.793 193.264 591.421 194.895 591.421 197.241C591.421 199.588 592.773 201.159 594.981 201.159ZM592.599 196.565C592.679 195.377 593.519 194.318 594.861 194.318C596.134 194.318 596.949 195.273 596.949 196.565H592.599ZM600.077 201H601.251V196.227C601.251 195.109 602.066 194.318 602.981 194.318C603.871 194.318 604.492 194.9 604.492 195.77V201H605.685V196.028C605.685 195.044 606.302 194.318 607.376 194.318C608.211 194.318 608.927 194.761 608.927 195.889V201H610.1V195.889C610.1 194.094 609.136 193.264 607.773 193.264C606.68 193.264 605.879 193.766 605.486 194.557H605.407C605.029 193.741 604.363 193.264 603.359 193.264C602.364 193.264 601.629 193.741 601.31 194.557H601.211V193.364H600.077V201ZM615.597 201.159C617.148 201.159 618.282 200.384 618.64 199.23L617.506 198.912C617.208 199.707 616.517 200.105 615.597 200.105C614.22 200.105 613.27 199.215 613.216 197.58H618.759V197.082C618.759 194.239 617.069 193.264 615.478 193.264C613.41 193.264 612.037 194.895 612.037 197.241C612.037 199.588 613.39 201.159 615.597 201.159ZM613.216 196.565C613.295 195.377 614.135 194.318 615.478 194.318C616.75 194.318 617.566 195.273 617.566 196.565H613.216ZM621.867 196.406C621.867 195.074 622.692 194.318 623.816 194.318C624.905 194.318 625.566 195.029 625.566 196.227V201H626.739V196.148C626.739 194.199 625.7 193.264 624.154 193.264C623.001 193.264 622.285 193.781 621.927 194.557H621.827V193.364H620.694V201H621.867V196.406ZM632.354 193.364H630.724V191.534H629.55V193.364H628.397V194.358H629.55V199.131C629.55 200.463 630.624 201.099 631.618 201.099C632.056 201.099 632.334 201.02 632.493 200.96L632.255 199.906C632.155 199.926 631.996 199.966 631.738 199.966C631.221 199.966 630.724 199.807 630.724 198.812V194.358H632.354V193.364Z" fill="#12BA90"/>
<line x1="1000" y1="0.5" y2="0.5" stroke="#1DE9B6"/>
</g>
<defs>
<linearGradient id="paint0_linear" x1="1000" y1="300" x2="-18.3028" y2="87.8536" gradientUnits="userSpaceOnUse">
<stop stop-color="#1DE9B6"/>
<stop offset="1" stop-color="#1DE9B6" stop-opacity="0"/>
</linearGradient>
<clipPath id="clip0">
<rect width="1000" height="300" fill="white"/>
</clipPath>
</defs>
</svg>
