<svg width="800" height="200" viewBox="0 0 800 200" fill="none" xmlns="http://www.w3.org/2000/svg">
    <g clip-path="url(#clip0)">
        <rect width="800" height="200" fill="white"/>
        <path d="M201.599 76.4965L189.924 99.763C189.724 100.164 189.606 100.412 189.606 100.412H184.294C184.294 100.412 184.554 99.9516 184.742 99.5625L190.526 88.0413L184.294 75.6474C184.294 75.6474 184.837 75.6474 185.274 75.6474H189.606C189.606 75.6474 189.712 75.895 189.913 76.296L193.159 82.77L196.417 76.296C196.617 75.895 196.719 75.6474 196.719 75.6474H202C202 75.6474 201.787 76.1073 201.599 76.4965Z" fill="#2979FF"/>
        <path d="M172.419 90.6946C175.642 89.8101 178.014 86.862 178.038 83.3715C178.038 83.3479 178.038 83.3361 178.038 83.3125C178.038 83.2889 178.038 83.2771 178.038 83.2535C178.002 79.0436 174.579 75.6474 170.365 75.6474L160.332 75.6474V80.1083C160.332 80.1083 160.367 80.1757 160.414 80.27L162.716 83.9965L164.109 86.2488H160.934H160.344V99.8101C160.344 100.14 160.344 100.412 160.344 100.412H165.065C165.065 100.412 165.065 100.14 165.065 99.8101V90.9658H167.048L172.537 99.8455L172.856 100.4H178.404C178.404 100.4 178.12 99.8927 177.884 99.5035L172.419 90.6946ZM170.377 86.2606H169.681L169.622 86.1663L167.485 82.7111L166.033 80.3644H170.377C172.006 80.3644 173.328 81.6851 173.328 83.3125C173.328 84.9398 172.006 86.2606 170.377 86.2606Z" fill="#2979FF"/>
        <path d="M142.036 75.6474C135.189 75.6474 129.641 81.1898 129.641 88.0295C129.641 94.8691 135.189 100.412 142.036 100.412C148.882 100.412 154.43 94.8691 154.43 88.0295C154.43 81.1898 148.882 75.6474 142.036 75.6474ZM142.036 95.6946C137.798 95.6946 134.363 92.263 134.363 88.0295C134.363 83.796 137.798 80.3644 142.036 80.3644C146.273 80.3644 149.708 83.796 149.708 88.0295C149.708 92.263 146.273 95.6946 142.036 95.6946Z" fill="#2979FF"/>
        <path d="M108.135 63.1356L108.394 63L111.038 64.3266L113.671 65.6474L120.788 69.2205C120.788 69.2205 120.788 69.4917 120.788 69.928L120.788 74.4681C120.788 74.4681 120.328 74.2441 119.939 74.0554L108.406 68.2771L96.8499 74.0554C96.4604 74.2441 96 74.4681 96 74.4681L96 69.2205C96 69.2205 96.2479 69.0908 96.6492 68.8903L103.13 65.6474L105.762 64.3266L108.135 63.1356Z" fill="#2979FF"/>
        <path d="M108.654 112.864L108.394 113L105.75 111.673L103.118 110.353L96 106.78C96 106.78 96 106.508 96 106.072L96 101.532C96 101.532 96.4604 101.756 96.8499 101.945L108.382 107.723L119.939 101.945C120.328 101.756 120.788 101.532 120.788 101.532L120.788 106.78C120.788 106.78 120.541 106.909 120.139 107.11L113.659 110.353L111.027 111.673L108.654 112.864Z" fill="#2979FF"/>
        <path d="M108.394 75.6179C101.548 75.6179 96 81.1604 96 88C96 94.8396 101.548 100.382 108.394 100.382C115.241 100.382 120.788 94.8396 120.788 88C120.788 81.1604 115.241 75.6179 108.394 75.6179ZM108.394 95.6651C104.157 95.6651 100.722 92.2335 100.722 88C100.722 83.7665 104.157 80.3349 108.394 80.3349C112.632 80.3349 116.067 83.7665 116.067 88C116.067 92.2335 112.632 95.6651 108.394 95.6651Z" fill="#2979FF"/>
        <path d="M225.746 75.3008L216.184 101H212.281L221.861 75.3008H225.746ZM261.623 88.1152C261.623 92.2988 260.574 95.5508 258.477 97.8711C256.391 100.191 253.432 101.352 249.6 101.352C245.721 101.352 242.738 100.203 240.652 97.9062C238.578 95.5977 237.541 92.3223 237.541 88.0801C237.541 83.8379 238.584 80.5801 240.67 78.3066C242.768 76.0332 245.756 74.8965 249.635 74.8965C253.455 74.8965 256.408 76.0508 258.494 78.3594C260.58 80.668 261.623 83.9199 261.623 88.1152ZM242.006 88.1152C242.006 91.2793 242.645 93.6816 243.922 95.3223C245.199 96.9512 247.092 97.7656 249.6 97.7656C252.096 97.7656 253.977 96.957 255.242 95.3398C256.52 93.7227 257.158 91.3145 257.158 88.1152C257.158 84.9629 256.525 82.5723 255.26 80.9434C254.006 79.3145 252.131 78.5 249.635 78.5C247.115 78.5 245.211 79.3145 243.922 80.9434C242.645 82.5723 242.006 84.9629 242.006 88.1152ZM278.867 101L278.041 98.293H277.9C276.963 99.4766 276.02 100.285 275.07 100.719C274.121 101.141 272.902 101.352 271.414 101.352C269.504 101.352 268.01 100.836 266.932 99.8047C265.865 98.7734 265.332 97.3145 265.332 95.4277C265.332 93.4238 266.076 91.9121 267.564 90.8926C269.053 89.873 271.32 89.3164 274.367 89.2227L277.725 89.1172V88.0801C277.725 86.8379 277.432 85.9121 276.846 85.3027C276.271 84.6816 275.375 84.3711 274.156 84.3711C273.16 84.3711 272.205 84.5176 271.291 84.8105C270.377 85.1035 269.498 85.4492 268.654 85.8477L267.318 82.8945C268.373 82.3438 269.527 81.9277 270.781 81.6465C272.035 81.3535 273.219 81.207 274.332 81.207C276.805 81.207 278.668 81.7461 279.922 82.8242C281.188 83.9023 281.82 85.5957 281.82 87.9043V101H278.867ZM272.715 98.1875C274.215 98.1875 275.416 97.7715 276.318 96.9395C277.232 96.0957 277.689 94.918 277.689 93.4062V91.7188L275.193 91.8242C273.248 91.8945 271.83 92.2227 270.939 92.8086C270.061 93.3828 269.621 94.2676 269.621 95.4629C269.621 96.3301 269.879 97.0039 270.395 97.4844C270.91 97.9531 271.684 98.1875 272.715 98.1875ZM294.828 98.0117C295.836 98.0117 296.844 97.8535 297.852 97.5371V100.648C297.395 100.848 296.803 101.012 296.076 101.141C295.361 101.281 294.617 101.352 293.844 101.352C289.93 101.352 287.973 99.2891 287.973 95.1641V84.6875H285.318V82.8594L288.166 81.3477L289.572 77.2344H292.121V81.5586H297.658V84.6875H292.121V95.0938C292.121 96.0898 292.367 96.8281 292.859 97.3086C293.363 97.7773 294.02 98.0117 294.828 98.0117ZM318.857 101H314.709V89.0469C314.709 87.5469 314.404 86.4277 313.795 85.6895C313.197 84.9512 312.242 84.582 310.93 84.582C309.195 84.582 307.918 85.1035 307.098 86.1465C306.289 87.1777 305.885 88.9121 305.885 91.3496V101H301.754V73.6484H305.885V80.5918C305.885 81.7051 305.814 82.8945 305.674 84.1602H305.938C306.5 83.2227 307.279 82.4961 308.275 81.9805C309.283 81.4648 310.455 81.207 311.791 81.207C316.502 81.207 318.857 83.5801 318.857 88.3262V101ZM328.596 90.7344L330.934 87.8164L336.805 81.5586H341.568L333.746 89.9082L342.061 101H337.209L330.969 92.4746L328.701 94.3379V101H324.605V73.6484H328.701V86.9902L328.49 90.7344H328.596ZM353.697 101.352C350.674 101.352 348.307 100.473 346.596 98.7148C344.896 96.9453 344.047 94.5137 344.047 91.4199C344.047 88.2441 344.838 85.748 346.42 83.9316C348.002 82.1152 350.176 81.207 352.941 81.207C355.508 81.207 357.535 81.9863 359.023 83.5449C360.512 85.1035 361.256 87.248 361.256 89.9785V92.2109H348.301C348.359 94.0977 348.869 95.5508 349.83 96.5703C350.791 97.5781 352.145 98.082 353.891 98.082C355.039 98.082 356.105 97.9766 357.09 97.7656C358.086 97.543 359.152 97.1797 360.289 96.6758V100.033C359.281 100.514 358.262 100.854 357.23 101.053C356.199 101.252 355.021 101.352 353.697 101.352ZM352.941 84.3359C351.629 84.3359 350.574 84.752 349.777 85.584C348.992 86.416 348.523 87.6289 348.371 89.2227H357.195C357.172 87.6172 356.785 86.4043 356.035 85.584C355.285 84.752 354.254 84.3359 352.941 84.3359ZM374.439 101.352C371.416 101.352 369.049 100.473 367.338 98.7148C365.639 96.9453 364.789 94.5137 364.789 91.4199C364.789 88.2441 365.58 85.748 367.162 83.9316C368.744 82.1152 370.918 81.207 373.684 81.207C376.25 81.207 378.277 81.9863 379.766 83.5449C381.254 85.1035 381.998 87.248 381.998 89.9785V92.2109H369.043C369.102 94.0977 369.611 95.5508 370.572 96.5703C371.533 97.5781 372.887 98.082 374.633 98.082C375.781 98.082 376.848 97.9766 377.832 97.7656C378.828 97.543 379.895 97.1797 381.031 96.6758V100.033C380.023 100.514 379.004 100.854 377.973 101.053C376.941 101.252 375.764 101.352 374.439 101.352ZM373.684 84.3359C372.371 84.3359 371.316 84.752 370.52 85.584C369.734 86.416 369.266 87.6289 369.113 89.2227H377.938C377.914 87.6172 377.527 86.4043 376.777 85.584C376.027 84.752 374.996 84.3359 373.684 84.3359ZM396.553 101.352C394.092 101.352 392.182 100.467 390.822 98.6973H390.576C390.74 100.338 390.822 101.334 390.822 101.686V109.648H386.691V81.5586H390.031C390.125 81.9219 390.318 82.7891 390.611 84.1602H390.822C392.111 82.1914 394.045 81.207 396.623 81.207C399.049 81.207 400.936 82.0859 402.283 83.8438C403.643 85.6016 404.322 88.0684 404.322 91.2441C404.322 94.4199 403.631 96.8984 402.248 98.6797C400.877 100.461 398.979 101.352 396.553 101.352ZM395.551 84.582C393.91 84.582 392.709 85.0625 391.947 86.0234C391.197 86.9844 390.822 88.5195 390.822 90.6289V91.2441C390.822 93.6113 391.197 95.3281 391.947 96.3945C392.697 97.4492 393.922 97.9766 395.621 97.9766C397.051 97.9766 398.152 97.3906 398.926 96.2188C399.699 95.0469 400.086 93.377 400.086 91.209C400.086 89.0293 399.699 87.3828 398.926 86.2695C398.164 85.1445 397.039 84.582 395.551 84.582ZM417.611 101.352C414.588 101.352 412.221 100.473 410.51 98.7148C408.811 96.9453 407.961 94.5137 407.961 91.4199C407.961 88.2441 408.752 85.748 410.334 83.9316C411.916 82.1152 414.09 81.207 416.855 81.207C419.422 81.207 421.449 81.9863 422.938 83.5449C424.426 85.1035 425.17 87.248 425.17 89.9785V92.2109H412.215C412.273 94.0977 412.783 95.5508 413.744 96.5703C414.705 97.5781 416.059 98.082 417.805 98.082C418.953 98.082 420.02 97.9766 421.004 97.7656C422 97.543 423.066 97.1797 424.203 96.6758V100.033C423.195 100.514 422.176 100.854 421.145 101.053C420.113 101.252 418.936 101.352 417.611 101.352ZM416.855 84.3359C415.543 84.3359 414.488 84.752 413.691 85.584C412.906 86.416 412.438 87.6289 412.285 89.2227H421.109C421.086 87.6172 420.699 86.4043 419.949 85.584C419.199 84.752 418.168 84.3359 416.855 84.3359ZM439.725 81.207C440.557 81.207 441.242 81.2656 441.781 81.3828L441.377 85.2324C440.791 85.0918 440.182 85.0215 439.549 85.0215C437.896 85.0215 436.555 85.5605 435.523 86.6387C434.504 87.7168 433.994 89.1172 433.994 90.8398V101H429.863V81.5586H433.098L433.643 84.9863H433.854C434.498 83.8262 435.336 82.9062 436.367 82.2266C437.41 81.5469 438.529 81.207 439.725 81.207Z" fill="#7FAFFF"/>
        <path d="M133.024 130L130.24 121.624H131.32L132.7 125.848L133.624 128.992H133.684L134.632 125.848L136.024 121.624H137.068L134.248 130H133.024ZM140.297 130.144C139.873 130.144 139.489 130.068 139.145 129.916C138.809 129.764 138.517 129.548 138.269 129.268C138.029 128.98 137.841 128.64 137.705 128.248C137.577 127.848 137.513 127.4 137.513 126.904C137.513 126.416 137.577 125.972 137.705 125.572C137.841 125.172 138.029 124.832 138.269 124.552C138.517 124.264 138.809 124.044 139.145 123.892C139.489 123.74 139.873 123.664 140.297 123.664C140.713 123.664 141.085 123.74 141.413 123.892C141.741 124.044 142.021 124.256 142.253 124.528C142.485 124.792 142.661 125.108 142.781 125.476C142.909 125.844 142.973 126.248 142.973 126.688V127.144H138.521V127.432C138.521 127.696 138.561 127.944 138.641 128.176C138.729 128.4 138.849 128.596 139.001 128.764C139.161 128.932 139.353 129.064 139.577 129.16C139.809 129.256 140.069 129.304 140.357 129.304C140.749 129.304 141.089 129.212 141.377 129.028C141.673 128.844 141.901 128.58 142.061 128.236L142.745 128.728C142.545 129.152 142.233 129.496 141.809 129.76C141.385 130.016 140.881 130.144 140.297 130.144ZM140.297 124.468C140.033 124.468 139.793 124.516 139.577 124.612C139.361 124.7 139.173 124.828 139.013 124.996C138.861 125.164 138.741 125.364 138.653 125.596C138.565 125.82 138.521 126.068 138.521 126.34V126.424H141.941V126.292C141.941 125.74 141.789 125.3 141.485 124.972C141.189 124.636 140.793 124.468 140.297 124.468ZM144.555 130V123.808H145.515V124.948H145.575C145.687 124.652 145.887 124.388 146.175 124.156C146.463 123.924 146.859 123.808 147.363 123.808H147.735V124.768H147.171C146.651 124.768 146.243 124.868 145.947 125.068C145.659 125.26 145.515 125.504 145.515 125.8V130H144.555ZM149.441 122.356C149.233 122.356 149.081 122.308 148.985 122.212C148.897 122.108 148.853 121.976 148.853 121.816V121.66C148.853 121.5 148.897 121.372 148.985 121.276C149.081 121.172 149.233 121.12 149.441 121.12C149.649 121.12 149.797 121.172 149.885 121.276C149.981 121.372 150.029 121.5 150.029 121.66V121.816C150.029 121.976 149.981 122.108 149.885 122.212C149.797 122.308 149.649 122.356 149.441 122.356ZM148.961 123.808H149.921V130H148.961V123.808ZM152.297 124.648H151.289V123.808H152.297V122.56C152.297 122.128 152.409 121.78 152.633 121.516C152.857 121.252 153.197 121.12 153.653 121.12H154.589V121.96H153.257V123.808H154.589V124.648H153.257V130H152.297V124.648ZM159.785 123.808H160.733L157.961 131.44C157.889 131.624 157.817 131.776 157.745 131.896C157.673 132.024 157.585 132.124 157.481 132.196C157.377 132.268 157.245 132.32 157.085 132.352C156.933 132.384 156.745 132.4 156.521 132.4H156.029V131.56H157.001L157.469 130.24L155.153 123.808H156.113L157.601 128.02L157.889 129.028H157.949L158.285 128.02L159.785 123.808ZM169.293 130C168.933 130 168.673 129.904 168.513 129.712C168.361 129.52 168.265 129.28 168.225 128.992H168.165C168.029 129.376 167.805 129.664 167.493 129.856C167.181 130.048 166.809 130.144 166.377 130.144C165.721 130.144 165.209 129.976 164.841 129.64C164.481 129.304 164.301 128.848 164.301 128.272C164.301 127.688 164.513 127.24 164.937 126.928C165.369 126.616 166.037 126.46 166.941 126.46H168.165V125.848C168.165 125.408 168.045 125.072 167.805 124.84C167.565 124.608 167.197 124.492 166.701 124.492C166.325 124.492 166.009 124.576 165.753 124.744C165.505 124.912 165.297 125.136 165.129 125.416L164.553 124.876C164.721 124.54 164.989 124.256 165.357 124.024C165.725 123.784 166.189 123.664 166.749 123.664C167.501 123.664 168.085 123.848 168.501 124.216C168.917 124.584 169.125 125.096 169.125 125.752V129.16H169.833V130H169.293ZM166.533 129.328C166.773 129.328 166.993 129.3 167.193 129.244C167.393 129.188 167.565 129.108 167.709 129.004C167.853 128.9 167.965 128.78 168.045 128.644C168.125 128.508 168.165 128.36 168.165 128.2V127.18H166.893C166.341 127.18 165.937 127.26 165.681 127.42C165.433 127.58 165.309 127.812 165.309 128.116V128.368C165.309 128.672 165.417 128.908 165.633 129.076C165.857 129.244 166.157 129.328 166.533 129.328ZM171.204 130V123.808H172.164V124.816H172.212C172.364 124.464 172.576 124.184 172.848 123.976C173.128 123.768 173.5 123.664 173.964 123.664C174.604 123.664 175.108 123.872 175.476 124.288C175.852 124.696 176.04 125.276 176.04 126.028V130H175.08V126.196C175.08 125.084 174.612 124.528 173.676 124.528C173.484 124.528 173.296 124.552 173.112 124.6C172.936 124.648 172.776 124.72 172.632 124.816C172.488 124.912 172.372 125.036 172.284 125.188C172.204 125.332 172.164 125.504 172.164 125.704V130H171.204ZM181.984 128.992H181.936C181.56 129.76 180.956 130.144 180.124 130.144C179.74 130.144 179.392 130.068 179.08 129.916C178.768 129.764 178.5 129.548 178.276 129.268C178.06 128.988 177.892 128.648 177.772 128.248C177.66 127.848 177.604 127.4 177.604 126.904C177.604 126.408 177.66 125.96 177.772 125.56C177.892 125.16 178.06 124.82 178.276 124.54C178.5 124.26 178.768 124.044 179.08 123.892C179.392 123.74 179.74 123.664 180.124 123.664C180.556 123.664 180.924 123.76 181.228 123.952C181.54 124.136 181.776 124.424 181.936 124.816H181.984V121.12H182.944V130H181.984V128.992ZM180.388 129.28C180.604 129.28 180.808 129.252 181 129.196C181.2 129.14 181.372 129.06 181.516 128.956C181.66 128.844 181.772 128.712 181.852 128.56C181.94 128.4 181.984 128.22 181.984 128.02V125.716C181.984 125.548 181.94 125.392 181.852 125.248C181.772 125.096 181.66 124.968 181.516 124.864C181.372 124.76 181.2 124.68 181 124.624C180.808 124.56 180.604 124.528 180.388 124.528C179.844 124.528 179.416 124.7 179.104 125.044C178.792 125.38 178.636 125.824 178.636 126.376V127.432C178.636 127.984 178.792 128.432 179.104 128.776C179.416 129.112 179.844 129.28 180.388 129.28ZM192.321 130C191.961 130 191.701 129.904 191.541 129.712C191.389 129.52 191.293 129.28 191.253 128.992H191.193C191.057 129.376 190.833 129.664 190.521 129.856C190.209 130.048 189.837 130.144 189.405 130.144C188.749 130.144 188.237 129.976 187.869 129.64C187.509 129.304 187.329 128.848 187.329 128.272C187.329 127.688 187.541 127.24 187.965 126.928C188.397 126.616 189.065 126.46 189.969 126.46H191.193V125.848C191.193 125.408 191.073 125.072 190.833 124.84C190.593 124.608 190.225 124.492 189.729 124.492C189.353 124.492 189.037 124.576 188.781 124.744C188.533 124.912 188.325 125.136 188.157 125.416L187.581 124.876C187.749 124.54 188.017 124.256 188.385 124.024C188.753 123.784 189.217 123.664 189.777 123.664C190.529 123.664 191.113 123.848 191.529 124.216C191.945 124.584 192.153 125.096 192.153 125.752V129.16H192.861V130H192.321ZM189.561 129.328C189.801 129.328 190.021 129.3 190.221 129.244C190.421 129.188 190.593 129.108 190.737 129.004C190.881 128.9 190.993 128.78 191.073 128.644C191.153 128.508 191.193 128.36 191.193 128.2V127.18H189.921C189.369 127.18 188.965 127.26 188.709 127.42C188.461 127.58 188.337 127.812 188.337 128.116V128.368C188.337 128.672 188.445 128.908 188.661 129.076C188.885 129.244 189.185 129.328 189.561 129.328ZM195.251 130C194.915 130 194.659 129.908 194.483 129.724C194.315 129.532 194.231 129.292 194.231 129.004V121.12H195.191V129.16H196.103V130H195.251ZM198.462 130C198.126 130 197.87 129.908 197.694 129.724C197.526 129.532 197.442 129.292 197.442 129.004V121.12H198.402V129.16H199.314V130H198.462ZM203.051 130.144C202.635 130.144 202.255 130.068 201.911 129.916C201.567 129.764 201.271 129.548 201.023 129.268C200.783 128.98 200.595 128.64 200.459 128.248C200.323 127.848 200.255 127.4 200.255 126.904C200.255 126.416 200.323 125.972 200.459 125.572C200.595 125.172 200.783 124.832 201.023 124.552C201.271 124.264 201.567 124.044 201.911 123.892C202.255 123.74 202.635 123.664 203.051 123.664C203.467 123.664 203.843 123.74 204.179 123.892C204.523 124.044 204.819 124.264 205.067 124.552C205.315 124.832 205.507 125.172 205.643 125.572C205.779 125.972 205.847 126.416 205.847 126.904C205.847 127.4 205.779 127.848 205.643 128.248C205.507 128.64 205.315 128.98 205.067 129.268C204.819 129.548 204.523 129.764 204.179 129.916C203.843 130.068 203.467 130.144 203.051 130.144ZM203.051 129.292C203.571 129.292 203.995 129.132 204.323 128.812C204.651 128.492 204.815 128.004 204.815 127.348V126.46C204.815 125.804 204.651 125.316 204.323 124.996C203.995 124.676 203.571 124.516 203.051 124.516C202.531 124.516 202.107 124.676 201.779 124.996C201.451 125.316 201.287 125.804 201.287 126.46V127.348C201.287 128.004 201.451 128.492 201.779 128.812C202.107 129.132 202.531 129.292 203.051 129.292ZM206.72 123.808H207.656L208.316 126.484L208.976 129.196H209L209.756 126.484L210.536 123.808H211.388L212.192 126.484L212.96 129.196H212.984L213.62 126.484L214.292 123.808H215.192L213.548 130H212.36L211.496 127.024L210.956 125.14H210.932L210.404 127.024L209.54 130H208.376L206.72 123.808ZM219.895 122.356C219.687 122.356 219.535 122.308 219.439 122.212C219.351 122.108 219.307 121.976 219.307 121.816V121.66C219.307 121.5 219.351 121.372 219.439 121.276C219.535 121.172 219.687 121.12 219.895 121.12C220.103 121.12 220.251 121.172 220.339 121.276C220.435 121.372 220.483 121.5 220.483 121.66V121.816C220.483 121.976 220.435 122.108 220.339 122.212C220.251 122.308 220.103 122.356 219.895 122.356ZM219.415 123.808H220.375V130H219.415V123.808ZM226.375 128.992H226.327C225.951 129.76 225.347 130.144 224.515 130.144C224.131 130.144 223.783 130.068 223.471 129.916C223.159 129.764 222.891 129.548 222.667 129.268C222.451 128.988 222.283 128.648 222.163 128.248C222.051 127.848 221.995 127.4 221.995 126.904C221.995 126.408 222.051 125.96 222.163 125.56C222.283 125.16 222.451 124.82 222.667 124.54C222.891 124.26 223.159 124.044 223.471 123.892C223.783 123.74 224.131 123.664 224.515 123.664C224.947 123.664 225.315 123.76 225.619 123.952C225.931 124.136 226.167 124.424 226.327 124.816H226.375V121.12H227.335V130H226.375V128.992ZM224.779 129.28C224.995 129.28 225.199 129.252 225.391 129.196C225.591 129.14 225.763 129.06 225.907 128.956C226.051 128.844 226.163 128.712 226.243 128.56C226.331 128.4 226.375 128.22 226.375 128.02V125.716C226.375 125.548 226.331 125.392 226.243 125.248C226.163 125.096 226.051 124.968 225.907 124.864C225.763 124.76 225.591 124.68 225.391 124.624C225.199 124.56 224.995 124.528 224.779 124.528C224.235 124.528 223.807 124.7 223.495 125.044C223.183 125.38 223.027 125.824 223.027 126.376V127.432C223.027 127.984 223.183 128.432 223.495 128.776C223.807 129.112 224.235 129.28 224.779 129.28ZM231.703 130.144C231.279 130.144 230.895 130.068 230.551 129.916C230.215 129.764 229.923 129.548 229.675 129.268C229.435 128.98 229.247 128.64 229.111 128.248C228.983 127.848 228.919 127.4 228.919 126.904C228.919 126.416 228.983 125.972 229.111 125.572C229.247 125.172 229.435 124.832 229.675 124.552C229.923 124.264 230.215 124.044 230.551 123.892C230.895 123.74 231.279 123.664 231.703 123.664C232.119 123.664 232.491 123.74 232.819 123.892C233.147 124.044 233.427 124.256 233.659 124.528C233.891 124.792 234.067 125.108 234.187 125.476C234.315 125.844 234.379 126.248 234.379 126.688V127.144H229.927V127.432C229.927 127.696 229.967 127.944 230.047 128.176C230.135 128.4 230.255 128.596 230.407 128.764C230.567 128.932 230.759 129.064 230.983 129.16C231.215 129.256 231.475 129.304 231.763 129.304C232.155 129.304 232.495 129.212 232.783 129.028C233.079 128.844 233.307 128.58 233.467 128.236L234.151 128.728C233.951 129.152 233.639 129.496 233.215 129.76C232.791 130.016 232.287 130.144 231.703 130.144ZM231.703 124.468C231.439 124.468 231.199 124.516 230.983 124.612C230.767 124.7 230.579 124.828 230.419 124.996C230.267 125.164 230.147 125.364 230.059 125.596C229.971 125.82 229.927 126.068 229.927 126.34V126.424H233.347V126.292C233.347 125.74 233.195 125.3 232.891 124.972C232.595 124.636 232.199 124.468 231.703 124.468ZM235.961 130V123.808H236.921V124.816H236.969C237.121 124.464 237.333 124.184 237.605 123.976C237.885 123.768 238.257 123.664 238.721 123.664C239.361 123.664 239.865 123.872 240.233 124.288C240.609 124.696 240.797 125.276 240.797 126.028V130H239.837V126.196C239.837 125.084 239.369 124.528 238.433 124.528C238.241 124.528 238.053 124.552 237.869 124.6C237.693 124.648 237.533 124.72 237.389 124.816C237.245 124.912 237.129 125.036 237.041 125.188C236.961 125.332 236.921 125.504 236.921 125.704V130H235.961ZM244.15 130C243.814 130 243.558 129.908 243.382 129.724C243.214 129.532 243.13 129.284 243.13 128.98V124.648H242.11V123.808H242.686C242.894 123.808 243.034 123.768 243.106 123.688C243.186 123.6 243.226 123.452 243.226 123.244V122.092H244.09V123.808H245.446V124.648H244.09V129.16H245.35V130H244.15ZM247.469 122.356C247.261 122.356 247.109 122.308 247.013 122.212C246.925 122.108 246.881 121.976 246.881 121.816V121.66C246.881 121.5 246.925 121.372 247.013 121.276C247.109 121.172 247.261 121.12 247.469 121.12C247.677 121.12 247.825 121.172 247.913 121.276C248.009 121.372 248.057 121.5 248.057 121.66V121.816C248.057 121.976 248.009 122.108 247.913 122.212C247.825 122.308 247.677 122.356 247.469 122.356ZM246.989 123.808H247.949V130H246.989V123.808ZM251.357 130C251.021 130 250.765 129.908 250.589 129.724C250.421 129.532 250.337 129.284 250.337 128.98V124.648H249.317V123.808H249.893C250.101 123.808 250.241 123.768 250.313 123.688C250.393 123.6 250.433 123.452 250.433 123.244V122.092H251.297V123.808H252.653V124.648H251.297V129.16H252.557V130H251.357ZM254.676 122.356C254.468 122.356 254.316 122.308 254.22 122.212C254.132 122.108 254.088 121.976 254.088 121.816V121.66C254.088 121.5 254.132 121.372 254.22 121.276C254.316 121.172 254.468 121.12 254.676 121.12C254.884 121.12 255.032 121.172 255.12 121.276C255.216 121.372 255.264 121.5 255.264 121.66V121.816C255.264 121.976 255.216 122.108 255.12 122.212C255.032 122.308 254.884 122.356 254.676 122.356ZM254.196 123.808H255.156V130H254.196V123.808ZM259.524 130.144C259.1 130.144 258.716 130.068 258.372 129.916C258.036 129.764 257.744 129.548 257.496 129.268C257.256 128.98 257.068 128.64 256.932 128.248C256.804 127.848 256.74 127.4 256.74 126.904C256.74 126.416 256.804 125.972 256.932 125.572C257.068 125.172 257.256 124.832 257.496 124.552C257.744 124.264 258.036 124.044 258.372 123.892C258.716 123.74 259.1 123.664 259.524 123.664C259.94 123.664 260.312 123.74 260.64 123.892C260.968 124.044 261.248 124.256 261.48 124.528C261.712 124.792 261.888 125.108 262.008 125.476C262.136 125.844 262.2 126.248 262.2 126.688V127.144H257.748V127.432C257.748 127.696 257.788 127.944 257.868 128.176C257.956 128.4 258.076 128.596 258.228 128.764C258.388 128.932 258.58 129.064 258.804 129.16C259.036 129.256 259.296 129.304 259.584 129.304C259.976 129.304 260.316 129.212 260.604 129.028C260.9 128.844 261.128 128.58 261.288 128.236L261.972 128.728C261.772 129.152 261.46 129.496 261.036 129.76C260.612 130.016 260.108 130.144 259.524 130.144ZM259.524 124.468C259.26 124.468 259.02 124.516 258.804 124.612C258.588 124.7 258.4 124.828 258.24 124.996C258.088 125.164 257.968 125.364 257.88 125.596C257.792 125.82 257.748 126.068 257.748 126.34V126.424H261.168V126.292C261.168 125.74 261.016 125.3 260.712 124.972C260.416 124.636 260.02 124.468 259.524 124.468ZM265.642 130.144C265.066 130.144 264.582 130.036 264.19 129.82C263.806 129.596 263.474 129.3 263.194 128.932L263.878 128.38C264.118 128.684 264.386 128.92 264.682 129.088C264.978 129.248 265.322 129.328 265.714 129.328C266.122 129.328 266.438 129.24 266.662 129.064C266.894 128.888 267.01 128.64 267.01 128.32C267.01 128.08 266.93 127.876 266.77 127.708C266.618 127.532 266.338 127.412 265.93 127.348L265.438 127.276C265.15 127.236 264.886 127.176 264.646 127.096C264.406 127.008 264.194 126.896 264.01 126.76C263.834 126.616 263.694 126.44 263.59 126.232C263.494 126.024 263.446 125.776 263.446 125.488C263.446 125.184 263.502 124.92 263.614 124.696C263.726 124.464 263.878 124.272 264.07 124.12C264.27 123.968 264.506 123.856 264.778 123.784C265.05 123.704 265.342 123.664 265.654 123.664C266.158 123.664 266.578 123.752 266.914 123.928C267.258 124.104 267.558 124.348 267.814 124.66L267.178 125.236C267.042 125.044 266.842 124.872 266.578 124.72C266.314 124.56 265.982 124.48 265.582 124.48C265.182 124.48 264.878 124.568 264.67 124.744C264.47 124.912 264.37 125.144 264.37 125.44C264.37 125.744 264.47 125.964 264.67 126.1C264.878 126.236 265.174 126.336 265.558 126.4L266.038 126.472C266.726 126.576 267.214 126.776 267.502 127.072C267.79 127.36 267.934 127.74 267.934 128.212C267.934 128.812 267.73 129.284 267.322 129.628C266.914 129.972 266.354 130.144 265.642 130.144ZM273.833 130C273.497 130 273.241 129.908 273.065 129.724C272.897 129.532 272.813 129.284 272.813 128.98V124.648H271.793V123.808H272.369C272.577 123.808 272.717 123.768 272.789 123.688C272.869 123.6 272.909 123.452 272.909 123.244V122.092H273.773V123.808H275.129V124.648H273.773V129.16H275.033V130H273.833ZM278.965 130.144C278.549 130.144 278.169 130.068 277.825 129.916C277.481 129.764 277.185 129.548 276.937 129.268C276.697 128.98 276.509 128.64 276.373 128.248C276.237 127.848 276.169 127.4 276.169 126.904C276.169 126.416 276.237 125.972 276.373 125.572C276.509 125.172 276.697 124.832 276.937 124.552C277.185 124.264 277.481 124.044 277.825 123.892C278.169 123.74 278.549 123.664 278.965 123.664C279.381 123.664 279.757 123.74 280.093 123.892C280.437 124.044 280.733 124.264 280.981 124.552C281.229 124.832 281.421 125.172 281.557 125.572C281.693 125.972 281.761 126.416 281.761 126.904C281.761 127.4 281.693 127.848 281.557 128.248C281.421 128.64 281.229 128.98 280.981 129.268C280.733 129.548 280.437 129.764 280.093 129.916C279.757 130.068 279.381 130.144 278.965 130.144ZM278.965 129.292C279.485 129.292 279.909 129.132 280.237 128.812C280.565 128.492 280.729 128.004 280.729 127.348V126.46C280.729 125.804 280.565 125.316 280.237 124.996C279.909 124.676 279.485 124.516 278.965 124.516C278.445 124.516 278.021 124.676 277.693 124.996C277.365 125.316 277.201 125.804 277.201 126.46V127.348C277.201 128.004 277.365 128.492 277.693 128.812C278.021 129.132 278.445 129.292 278.965 129.292ZM286.656 122.356C286.448 122.356 286.296 122.308 286.2 122.212C286.112 122.108 286.068 121.976 286.068 121.816V121.66C286.068 121.5 286.112 121.372 286.2 121.276C286.296 121.172 286.448 121.12 286.656 121.12C286.864 121.12 287.012 121.172 287.1 121.276C287.196 121.372 287.244 121.5 287.244 121.66V121.816C287.244 121.976 287.196 122.108 287.1 122.212C287.012 122.308 286.864 122.356 286.656 122.356ZM286.176 123.808H287.136V130H286.176V123.808ZM289.176 130V123.808H290.136V124.816H290.184C290.336 124.464 290.548 124.184 290.82 123.976C291.1 123.768 291.472 123.664 291.936 123.664C292.576 123.664 293.08 123.872 293.448 124.288C293.824 124.696 294.012 125.276 294.012 126.028V130H293.052V126.196C293.052 125.084 292.584 124.528 291.648 124.528C291.456 124.528 291.268 124.552 291.084 124.6C290.908 124.648 290.748 124.72 290.604 124.816C290.46 124.912 290.344 125.036 290.256 125.188C290.176 125.332 290.136 125.504 290.136 125.704V130H289.176ZM297.365 130C297.029 130 296.773 129.908 296.597 129.724C296.429 129.532 296.345 129.284 296.345 128.98V124.648H295.325V123.808H295.901C296.109 123.808 296.249 123.768 296.321 123.688C296.401 123.6 296.441 123.452 296.441 123.244V122.092H297.305V123.808H298.661V124.648H297.305V129.16H298.565V130H297.365ZM302.485 130.144C302.061 130.144 301.677 130.068 301.333 129.916C300.997 129.764 300.705 129.548 300.457 129.268C300.217 128.98 300.029 128.64 299.893 128.248C299.765 127.848 299.701 127.4 299.701 126.904C299.701 126.416 299.765 125.972 299.893 125.572C300.029 125.172 300.217 124.832 300.457 124.552C300.705 124.264 300.997 124.044 301.333 123.892C301.677 123.74 302.061 123.664 302.485 123.664C302.901 123.664 303.273 123.74 303.601 123.892C303.929 124.044 304.209 124.256 304.441 124.528C304.673 124.792 304.849 125.108 304.969 125.476C305.097 125.844 305.161 126.248 305.161 126.688V127.144H300.709V127.432C300.709 127.696 300.749 127.944 300.829 128.176C300.917 128.4 301.037 128.596 301.189 128.764C301.349 128.932 301.541 129.064 301.765 129.16C301.997 129.256 302.257 129.304 302.545 129.304C302.937 129.304 303.277 129.212 303.565 129.028C303.861 128.844 304.089 128.58 304.249 128.236L304.933 128.728C304.733 129.152 304.421 129.496 303.997 129.76C303.573 130.016 303.069 130.144 302.485 130.144ZM302.485 124.468C302.221 124.468 301.981 124.516 301.765 124.612C301.549 124.7 301.361 124.828 301.201 124.996C301.049 125.164 300.929 125.364 300.841 125.596C300.753 125.82 300.709 126.068 300.709 126.34V126.424H304.129V126.292C304.129 125.74 303.977 125.3 303.673 124.972C303.377 124.636 302.981 124.468 302.485 124.468ZM306.743 130V123.808H307.703V124.948H307.763C307.875 124.652 308.075 124.388 308.363 124.156C308.651 123.924 309.047 123.808 309.551 123.808H309.923V124.768H309.359C308.839 124.768 308.431 124.868 308.135 125.068C307.847 125.26 307.703 125.504 307.703 125.8V130H306.743ZM315.602 130C315.242 130 314.982 129.904 314.822 129.712C314.67 129.52 314.574 129.28 314.534 128.992H314.474C314.338 129.376 314.114 129.664 313.802 129.856C313.49 130.048 313.118 130.144 312.686 130.144C312.03 130.144 311.518 129.976 311.15 129.64C310.79 129.304 310.61 128.848 310.61 128.272C310.61 127.688 310.822 127.24 311.246 126.928C311.678 126.616 312.346 126.46 313.25 126.46H314.474V125.848C314.474 125.408 314.354 125.072 314.114 124.84C313.874 124.608 313.506 124.492 313.01 124.492C312.634 124.492 312.318 124.576 312.062 124.744C311.814 124.912 311.606 125.136 311.438 125.416L310.862 124.876C311.03 124.54 311.298 124.256 311.666 124.024C312.034 123.784 312.498 123.664 313.058 123.664C313.81 123.664 314.394 123.848 314.81 124.216C315.226 124.584 315.434 125.096 315.434 125.752V129.16H316.142V130H315.602ZM312.842 129.328C313.082 129.328 313.302 129.3 313.502 129.244C313.702 129.188 313.874 129.108 314.018 129.004C314.162 128.9 314.274 128.78 314.354 128.644C314.434 128.508 314.474 128.36 314.474 128.2V127.18H313.202C312.65 127.18 312.246 127.26 311.99 127.42C311.742 127.58 311.618 127.812 311.618 128.116V128.368C311.618 128.672 311.726 128.908 311.942 129.076C312.166 129.244 312.466 129.328 312.842 129.328ZM319.816 130.144C319.384 130.144 318.996 130.068 318.652 129.916C318.308 129.764 318.016 129.548 317.776 129.268C317.544 128.988 317.364 128.648 317.236 128.248C317.116 127.848 317.056 127.4 317.056 126.904C317.056 126.408 317.116 125.96 317.236 125.56C317.364 125.16 317.544 124.82 317.776 124.54C318.016 124.26 318.308 124.044 318.652 123.892C318.996 123.74 319.384 123.664 319.816 123.664C320.432 123.664 320.924 123.8 321.292 124.072C321.668 124.336 321.948 124.684 322.132 125.116L321.328 125.524C321.216 125.204 321.032 124.956 320.776 124.78C320.52 124.604 320.2 124.516 319.816 124.516C319.528 124.516 319.276 124.564 319.06 124.66C318.844 124.748 318.664 124.876 318.52 125.044C318.376 125.204 318.268 125.4 318.196 125.632C318.124 125.856 318.088 126.104 318.088 126.376V127.432C318.088 127.976 318.232 128.424 318.52 128.776C318.816 129.12 319.248 129.292 319.816 129.292C320.592 129.292 321.152 128.932 321.496 128.212L322.192 128.68C321.992 129.128 321.692 129.484 321.292 129.748C320.9 130.012 320.408 130.144 319.816 130.144ZM324.915 130C324.579 130 324.323 129.908 324.147 129.724C323.979 129.532 323.895 129.284 323.895 128.98V124.648H322.875V123.808H323.451C323.659 123.808 323.799 123.768 323.871 123.688C323.951 123.6 323.991 123.452 323.991 123.244V122.092H324.855V123.808H326.211V124.648H324.855V129.16H326.115V130H324.915ZM329.942 123.808H330.878L331.538 126.484L332.198 129.196H332.222L332.978 126.484L333.758 123.808H334.61L335.414 126.484L336.182 129.196H336.206L336.842 126.484L337.514 123.808H338.414L336.77 130H335.582L334.718 127.024L334.178 125.14H334.154L333.626 127.024L332.762 130H331.598L329.942 123.808ZM340.281 122.356C340.073 122.356 339.921 122.308 339.825 122.212C339.737 122.108 339.693 121.976 339.693 121.816V121.66C339.693 121.5 339.737 121.372 339.825 121.276C339.921 121.172 340.073 121.12 340.281 121.12C340.489 121.12 340.637 121.172 340.725 121.276C340.821 121.372 340.869 121.5 340.869 121.66V121.816C340.869 121.976 340.821 122.108 340.725 122.212C340.637 122.308 340.489 122.356 340.281 122.356ZM339.801 123.808H340.761V130H339.801V123.808ZM344.169 130C343.833 130 343.577 129.908 343.401 129.724C343.233 129.532 343.149 129.284 343.149 128.98V124.648H342.129V123.808H342.705C342.913 123.808 343.053 123.768 343.125 123.688C343.205 123.6 343.245 123.452 343.245 123.244V122.092H344.109V123.808H345.465V124.648H344.109V129.16H345.369V130H344.169ZM347.008 121.12H347.968V124.816H348.016C348.168 124.464 348.38 124.184 348.652 123.976C348.932 123.768 349.304 123.664 349.768 123.664C350.408 123.664 350.912 123.872 351.28 124.288C351.656 124.696 351.844 125.276 351.844 126.028V130H350.884V126.196C350.884 125.084 350.416 124.528 349.48 124.528C349.288 124.528 349.1 124.552 348.916 124.6C348.74 124.648 348.58 124.72 348.436 124.816C348.292 124.912 348.176 125.036 348.088 125.188C348.008 125.332 347.968 125.504 347.968 125.704V130H347.008V121.12ZM360.481 123.808H361.429L358.657 131.44C358.585 131.624 358.513 131.776 358.441 131.896C358.369 132.024 358.281 132.124 358.177 132.196C358.073 132.268 357.941 132.32 357.781 132.352C357.629 132.384 357.441 132.4 357.217 132.4H356.725V131.56H357.697L358.165 130.24L355.849 123.808H356.809L358.297 128.02L358.585 129.028H358.645L358.981 128.02L360.481 123.808ZM364.934 130.144C364.518 130.144 364.138 130.068 363.794 129.916C363.45 129.764 363.154 129.548 362.906 129.268C362.666 128.98 362.478 128.64 362.342 128.248C362.206 127.848 362.138 127.4 362.138 126.904C362.138 126.416 362.206 125.972 362.342 125.572C362.478 125.172 362.666 124.832 362.906 124.552C363.154 124.264 363.45 124.044 363.794 123.892C364.138 123.74 364.518 123.664 364.934 123.664C365.35 123.664 365.726 123.74 366.062 123.892C366.406 124.044 366.702 124.264 366.95 124.552C367.198 124.832 367.39 125.172 367.526 125.572C367.662 125.972 367.73 126.416 367.73 126.904C367.73 127.4 367.662 127.848 367.526 128.248C367.39 128.64 367.198 128.98 366.95 129.268C366.702 129.548 366.406 129.764 366.062 129.916C365.726 130.068 365.35 130.144 364.934 130.144ZM364.934 129.292C365.454 129.292 365.878 129.132 366.206 128.812C366.534 128.492 366.698 128.004 366.698 127.348V126.46C366.698 125.804 366.534 125.316 366.206 124.996C365.878 124.676 365.454 124.516 364.934 124.516C364.414 124.516 363.99 124.676 363.662 124.996C363.334 125.316 363.17 125.804 363.17 126.46V127.348C363.17 128.004 363.334 128.492 363.662 128.812C363.99 129.132 364.414 129.292 364.934 129.292ZM373.125 128.992H373.077C373.013 129.136 372.933 129.28 372.837 129.424C372.749 129.56 372.637 129.684 372.501 129.796C372.365 129.9 372.201 129.984 372.009 130.048C371.817 130.112 371.593 130.144 371.337 130.144C370.697 130.144 370.189 129.94 369.813 129.532C369.437 129.116 369.249 128.532 369.249 127.78V123.808H370.209V127.612C370.209 128.724 370.681 129.28 371.625 129.28C371.817 129.28 372.001 129.256 372.177 129.208C372.361 129.16 372.521 129.088 372.657 128.992C372.801 128.896 372.913 128.776 372.993 128.632C373.081 128.48 373.125 128.3 373.125 128.092V123.808H374.085V130H373.125V128.992ZM376.129 130V123.808H377.089V124.948H377.149C377.261 124.652 377.461 124.388 377.749 124.156C378.037 123.924 378.433 123.808 378.937 123.808H379.309V124.768H378.745C378.225 124.768 377.817 124.868 377.521 125.068C377.233 125.26 377.089 125.504 377.089 125.8V130H376.129ZM387.872 130C387.512 130 387.252 129.904 387.092 129.712C386.94 129.52 386.844 129.28 386.804 128.992H386.744C386.608 129.376 386.384 129.664 386.072 129.856C385.76 130.048 385.388 130.144 384.956 130.144C384.3 130.144 383.788 129.976 383.42 129.64C383.06 129.304 382.88 128.848 382.88 128.272C382.88 127.688 383.092 127.24 383.516 126.928C383.948 126.616 384.616 126.46 385.52 126.46H386.744V125.848C386.744 125.408 386.624 125.072 386.384 124.84C386.144 124.608 385.776 124.492 385.28 124.492C384.904 124.492 384.588 124.576 384.332 124.744C384.084 124.912 383.876 125.136 383.708 125.416L383.132 124.876C383.3 124.54 383.568 124.256 383.936 124.024C384.304 123.784 384.768 123.664 385.328 123.664C386.08 123.664 386.664 123.848 387.08 124.216C387.496 124.584 387.704 125.096 387.704 125.752V129.16H388.412V130H387.872ZM385.112 129.328C385.352 129.328 385.572 129.3 385.772 129.244C385.972 129.188 386.144 129.108 386.288 129.004C386.432 128.9 386.544 128.78 386.624 128.644C386.704 128.508 386.744 128.36 386.744 128.2V127.18H385.472C384.92 127.18 384.516 127.26 384.26 127.42C384.012 127.58 383.888 127.812 383.888 128.116V128.368C383.888 128.672 383.996 128.908 384.212 129.076C384.436 129.244 384.736 129.328 385.112 129.328ZM389.782 123.808H390.742V124.816H390.79C390.95 124.424 391.182 124.136 391.486 123.952C391.798 123.76 392.17 123.664 392.602 123.664C392.986 123.664 393.334 123.74 393.646 123.892C393.958 124.044 394.222 124.26 394.438 124.54C394.662 124.82 394.83 125.16 394.942 125.56C395.062 125.96 395.122 126.408 395.122 126.904C395.122 127.4 395.062 127.848 394.942 128.248C394.83 128.648 394.662 128.988 394.438 129.268C394.222 129.548 393.958 129.764 393.646 129.916C393.334 130.068 392.986 130.144 392.602 130.144C391.762 130.144 391.158 129.76 390.79 128.992H390.742V132.4H389.782V123.808ZM392.338 129.28C392.882 129.28 393.31 129.112 393.622 128.776C393.934 128.432 394.09 127.984 394.09 127.432V126.376C394.09 125.824 393.934 125.38 393.622 125.044C393.31 124.7 392.882 124.528 392.338 124.528C392.122 124.528 391.914 124.56 391.714 124.624C391.522 124.68 391.354 124.76 391.21 124.864C391.066 124.968 390.95 125.096 390.862 125.248C390.782 125.392 390.742 125.548 390.742 125.716V128.02C390.742 128.22 390.782 128.4 390.862 128.56C390.95 128.712 391.066 128.844 391.21 128.956C391.354 129.06 391.522 129.14 391.714 129.196C391.914 129.252 392.122 129.28 392.338 129.28ZM396.743 123.808H397.703V124.816H397.751C397.911 124.424 398.143 124.136 398.447 123.952C398.759 123.76 399.131 123.664 399.563 123.664C399.947 123.664 400.295 123.74 400.607 123.892C400.919 124.044 401.183 124.26 401.399 124.54C401.623 124.82 401.791 125.16 401.903 125.56C402.023 125.96 402.083 126.408 402.083 126.904C402.083 127.4 402.023 127.848 401.903 128.248C401.791 128.648 401.623 128.988 401.399 129.268C401.183 129.548 400.919 129.764 400.607 129.916C400.295 130.068 399.947 130.144 399.563 130.144C398.723 130.144 398.119 129.76 397.751 128.992H397.703V132.4H396.743V123.808ZM399.299 129.28C399.843 129.28 400.271 129.112 400.583 128.776C400.895 128.432 401.051 127.984 401.051 127.432V126.376C401.051 125.824 400.895 125.38 400.583 125.044C400.271 124.7 399.843 124.528 399.299 124.528C399.083 124.528 398.875 124.56 398.675 124.624C398.483 124.68 398.315 124.76 398.171 124.864C398.027 124.968 397.911 125.096 397.823 125.248C397.743 125.392 397.703 125.548 397.703 125.716V128.02C397.703 128.22 397.743 128.4 397.823 128.56C397.911 128.712 398.027 128.844 398.171 128.956C398.315 129.06 398.483 129.14 398.675 129.196C398.875 129.252 399.083 129.28 399.299 129.28ZM404.724 130C404.388 130 404.132 129.908 403.956 129.724C403.788 129.532 403.704 129.292 403.704 129.004V121.12H404.664V129.16H405.576V130H404.724ZM407.453 122.356C407.245 122.356 407.093 122.308 406.997 122.212C406.909 122.108 406.865 121.976 406.865 121.816V121.66C406.865 121.5 406.909 121.372 406.997 121.276C407.093 121.172 407.245 121.12 407.453 121.12C407.661 121.12 407.809 121.172 407.897 121.276C407.993 121.372 408.041 121.5 408.041 121.66V121.816C408.041 121.976 407.993 122.108 407.897 122.212C407.809 122.308 407.661 122.356 407.453 122.356ZM406.973 123.808H407.933V130H406.973V123.808ZM412.277 130.144C411.845 130.144 411.457 130.068 411.113 129.916C410.769 129.764 410.477 129.548 410.237 129.268C410.005 128.988 409.825 128.648 409.697 128.248C409.577 127.848 409.517 127.4 409.517 126.904C409.517 126.408 409.577 125.96 409.697 125.56C409.825 125.16 410.005 124.82 410.237 124.54C410.477 124.26 410.769 124.044 411.113 123.892C411.457 123.74 411.845 123.664 412.277 123.664C412.893 123.664 413.385 123.8 413.753 124.072C414.129 124.336 414.409 124.684 414.593 125.116L413.789 125.524C413.677 125.204 413.493 124.956 413.237 124.78C412.981 124.604 412.661 124.516 412.277 124.516C411.989 124.516 411.737 124.564 411.521 124.66C411.305 124.748 411.125 124.876 410.981 125.044C410.837 125.204 410.729 125.4 410.657 125.632C410.585 125.856 410.549 126.104 410.549 126.376V127.432C410.549 127.976 410.693 128.424 410.981 128.776C411.277 129.12 411.709 129.292 412.277 129.292C413.053 129.292 413.613 128.932 413.957 128.212L414.653 128.68C414.453 129.128 414.153 129.484 413.753 129.748C413.361 130.012 412.869 130.144 412.277 130.144ZM420.508 130C420.148 130 419.888 129.904 419.728 129.712C419.576 129.52 419.48 129.28 419.44 128.992H419.38C419.244 129.376 419.02 129.664 418.708 129.856C418.396 130.048 418.024 130.144 417.592 130.144C416.936 130.144 416.424 129.976 416.056 129.64C415.696 129.304 415.516 128.848 415.516 128.272C415.516 127.688 415.728 127.24 416.152 126.928C416.584 126.616 417.252 126.46 418.156 126.46H419.38V125.848C419.38 125.408 419.26 125.072 419.02 124.84C418.78 124.608 418.412 124.492 417.916 124.492C417.54 124.492 417.224 124.576 416.968 124.744C416.72 124.912 416.512 125.136 416.344 125.416L415.768 124.876C415.936 124.54 416.204 124.256 416.572 124.024C416.94 123.784 417.404 123.664 417.964 123.664C418.716 123.664 419.3 123.848 419.716 124.216C420.132 124.584 420.34 125.096 420.34 125.752V129.16H421.048V130H420.508ZM417.748 129.328C417.988 129.328 418.208 129.3 418.408 129.244C418.608 129.188 418.78 129.108 418.924 129.004C419.068 128.9 419.18 128.78 419.26 128.644C419.34 128.508 419.38 128.36 419.38 128.2V127.18H418.108C417.556 127.18 417.152 127.26 416.896 127.42C416.648 127.58 416.524 127.812 416.524 128.116V128.368C416.524 128.672 416.632 128.908 416.848 129.076C417.072 129.244 417.372 129.328 417.748 129.328ZM423.786 130C423.45 130 423.194 129.908 423.018 129.724C422.85 129.532 422.766 129.284 422.766 128.98V124.648H421.746V123.808H422.322C422.53 123.808 422.67 123.768 422.742 123.688C422.822 123.6 422.862 123.452 422.862 123.244V122.092H423.726V123.808H425.082V124.648H423.726V129.16H424.986V130H423.786ZM427.105 122.356C426.897 122.356 426.745 122.308 426.649 122.212C426.561 122.108 426.517 121.976 426.517 121.816V121.66C426.517 121.5 426.561 121.372 426.649 121.276C426.745 121.172 426.897 121.12 427.105 121.12C427.313 121.12 427.461 121.172 427.549 121.276C427.645 121.372 427.693 121.5 427.693 121.66V121.816C427.693 121.976 427.645 122.108 427.549 122.212C427.461 122.308 427.313 122.356 427.105 122.356ZM426.625 123.808H427.585V130H426.625V123.808ZM431.965 130.144C431.549 130.144 431.169 130.068 430.825 129.916C430.481 129.764 430.185 129.548 429.937 129.268C429.697 128.98 429.509 128.64 429.373 128.248C429.237 127.848 429.169 127.4 429.169 126.904C429.169 126.416 429.237 125.972 429.373 125.572C429.509 125.172 429.697 124.832 429.937 124.552C430.185 124.264 430.481 124.044 430.825 123.892C431.169 123.74 431.549 123.664 431.965 123.664C432.381 123.664 432.757 123.74 433.093 123.892C433.437 124.044 433.733 124.264 433.981 124.552C434.229 124.832 434.421 125.172 434.557 125.572C434.693 125.972 434.761 126.416 434.761 126.904C434.761 127.4 434.693 127.848 434.557 128.248C434.421 128.64 434.229 128.98 433.981 129.268C433.733 129.548 433.437 129.764 433.093 129.916C432.757 130.068 432.381 130.144 431.965 130.144ZM431.965 129.292C432.485 129.292 432.909 129.132 433.237 128.812C433.565 128.492 433.729 128.004 433.729 127.348V126.46C433.729 125.804 433.565 125.316 433.237 124.996C432.909 124.676 432.485 124.516 431.965 124.516C431.445 124.516 431.021 124.676 430.693 124.996C430.365 125.316 430.201 125.804 430.201 126.46V127.348C430.201 128.004 430.365 128.492 430.693 128.812C431.021 129.132 431.445 129.292 431.965 129.292ZM436.34 130V123.808H437.3V124.816H437.348C437.5 124.464 437.712 124.184 437.984 123.976C438.264 123.768 438.636 123.664 439.1 123.664C439.74 123.664 440.244 123.872 440.612 124.288C440.988 124.696 441.176 125.276 441.176 126.028V130H440.216V126.196C440.216 125.084 439.748 124.528 438.812 124.528C438.62 124.528 438.432 124.552 438.248 124.6C438.072 124.648 437.912 124.72 437.768 124.816C437.624 124.912 437.508 125.036 437.42 125.188C437.34 125.332 437.3 125.504 437.3 125.704V130H436.34ZM445.021 130.144C444.445 130.144 443.961 130.036 443.569 129.82C443.185 129.596 442.853 129.3 442.573 128.932L443.257 128.38C443.497 128.684 443.765 128.92 444.061 129.088C444.357 129.248 444.701 129.328 445.093 129.328C445.501 129.328 445.817 129.24 446.041 129.064C446.273 128.888 446.389 128.64 446.389 128.32C446.389 128.08 446.309 127.876 446.149 127.708C445.997 127.532 445.717 127.412 445.309 127.348L444.817 127.276C444.529 127.236 444.265 127.176 444.025 127.096C443.785 127.008 443.573 126.896 443.389 126.76C443.213 126.616 443.073 126.44 442.969 126.232C442.873 126.024 442.825 125.776 442.825 125.488C442.825 125.184 442.881 124.92 442.993 124.696C443.105 124.464 443.257 124.272 443.449 124.12C443.649 123.968 443.885 123.856 444.157 123.784C444.429 123.704 444.721 123.664 445.033 123.664C445.537 123.664 445.957 123.752 446.293 123.928C446.637 124.104 446.937 124.348 447.193 124.66L446.557 125.236C446.421 125.044 446.221 124.872 445.957 124.72C445.693 124.56 445.361 124.48 444.961 124.48C444.561 124.48 444.257 124.568 444.049 124.744C443.849 124.912 443.749 125.144 443.749 125.44C443.749 125.744 443.849 125.964 444.049 126.1C444.257 126.236 444.553 126.336 444.937 126.4L445.417 126.472C446.105 126.576 446.593 126.776 446.881 127.072C447.169 127.36 447.313 127.74 447.313 128.212C447.313 128.812 447.109 129.284 446.701 129.628C446.293 129.972 445.733 130.144 445.021 130.144Z" fill="#0C2146"/>
        <line opacity="0.5" x1="702" y1="214.322" x2="702" y2="-15.6778" stroke="#7FAFFF" stroke-width="4"/>
    </g>
    <defs>
        <clipPath id="clip0">
            <rect width="800" height="200" fill="white"/>
        </clipPath>
    </defs>
</svg>
