<svg width="1000" height="300" viewBox="0 0 1000 300" fill="none" xmlns="http://www.w3.org/2000/svg">
<g clip-path="url(#clip0)">
<rect width="1000" height="300" fill="white"/>
<rect width="1000" height="300" fill="white"/>
<rect width="1000" height="300" fill="url(#paint0_linear)" fill-opacity="0.2"/>
<path d="M363.972 137.375C356.671 137.375 350.755 143.25 350.755 150.5C350.755 157.75 356.671 163.625 363.972 163.625C371.273 163.625 377.189 157.75 377.189 150.5C377.189 143.25 371.273 137.375 363.972 137.375ZM363.972 158.625C359.453 158.625 355.79 154.987 355.79 150.5C355.79 146.012 359.453 142.375 363.972 142.375C368.491 142.375 372.154 146.012 372.154 150.5C372.154 154.987 368.491 158.625 363.972 158.625Z" fill="#CD62F3"/>
<path d="M393.846 153.325C397.281 152.387 399.809 149.262 399.834 145.562C399.834 145.537 399.834 145.525 399.834 145.5C399.834 145.475 399.834 145.462 399.834 145.437C399.796 140.975 396.148 137.375 391.658 137.375H380.965V142.1L384.991 148.612H380.978V163.625H386.01V153.612H388.123L394.308 163.625H400.224L393.846 153.325ZM391.67 148.625H390.928L387.041 142.375H391.67C393.406 142.375 394.815 143.775 394.815 145.5C394.815 147.225 393.406 148.625 391.67 148.625Z" fill="#CD62F3"/>
<path d="M408.783 163.625H403.119L409.765 150.512L403.119 137.375H408.783L412.572 144.925L416.462 137.375H422L408.783 163.625Z" fill="#CD62F3"/>
<path d="M327.217 137.375C319.916 137.375 314 143.25 314 150.5C314 157.75 319.916 163.625 327.217 163.625C334.517 163.625 340.434 157.75 340.434 150.5C340.434 143.25 334.517 137.375 327.217 137.375Z" fill="#CD62F3"/>
<path d="M327.217 123L340.434 129.5L340.434 135.125L327.217 128.625L314 135.125L314 129.5L327.217 123Z" fill="#CD62F3"/>
<path d="M327.217 178L314 171.5L314 165.875L327.217 172.375L340.434 165.875L340.434 171.5L327.217 178Z" fill="#CD62F3"/>
<path d="M449.277 135.445L438.633 164H435.391L446.035 135.445H449.277ZM483.992 153.277C483.992 156.767 483.113 159.495 481.355 161.461C479.598 163.414 477.169 164.391 474.07 164.391C472.156 164.391 470.457 163.941 468.973 163.043C467.488 162.145 466.342 160.855 465.535 159.176C464.728 157.496 464.324 155.53 464.324 153.277C464.324 149.788 465.197 147.073 466.941 145.133C468.686 143.18 471.108 142.203 474.207 142.203C477.202 142.203 479.578 143.199 481.336 145.191C483.107 147.184 483.992 149.879 483.992 153.277ZM467.684 153.277C467.684 156.012 468.23 158.095 469.324 159.527C470.418 160.96 472.026 161.676 474.148 161.676C476.271 161.676 477.879 160.966 478.973 159.547C480.079 158.115 480.633 156.025 480.633 153.277C480.633 150.556 480.079 148.492 478.973 147.086C477.879 145.667 476.258 144.957 474.109 144.957C471.987 144.957 470.385 145.654 469.305 147.047C468.224 148.44 467.684 150.517 467.684 153.277ZM503.859 164L503.215 160.953H503.059C501.991 162.294 500.923 163.206 499.855 163.688C498.801 164.156 497.479 164.391 495.891 164.391C493.768 164.391 492.102 163.844 490.891 162.75C489.693 161.656 489.094 160.1 489.094 158.082C489.094 153.759 492.551 151.493 499.465 151.285L503.098 151.168V149.84C503.098 148.16 502.733 146.923 502.004 146.129C501.288 145.322 500.135 144.918 498.547 144.918C496.763 144.918 494.745 145.465 492.492 146.559L491.496 144.078C492.551 143.505 493.703 143.056 494.953 142.73C496.216 142.405 497.479 142.242 498.742 142.242C501.294 142.242 503.182 142.809 504.406 143.941C505.643 145.074 506.262 146.891 506.262 149.391V164H503.859ZM496.535 161.715C498.553 161.715 500.135 161.161 501.281 160.055C502.44 158.948 503.02 157.398 503.02 155.406V153.473L499.777 153.609C497.199 153.701 495.337 154.104 494.191 154.82C493.059 155.523 492.492 156.624 492.492 158.121C492.492 159.293 492.844 160.185 493.547 160.797C494.263 161.409 495.259 161.715 496.535 161.715ZM520.875 161.715C521.448 161.715 522.001 161.676 522.535 161.598C523.069 161.507 523.492 161.415 523.805 161.324V163.805C523.453 163.974 522.932 164.111 522.242 164.215C521.565 164.332 520.953 164.391 520.406 164.391C516.266 164.391 514.195 162.21 514.195 157.848V145.113H511.129V143.551L514.195 142.203L515.562 137.633H517.438V142.594H523.648V145.113H517.438V157.711C517.438 159 517.743 159.99 518.355 160.68C518.967 161.37 519.807 161.715 520.875 161.715ZM543.75 164V150.152C543.75 148.408 543.353 147.105 542.559 146.246C541.764 145.387 540.521 144.957 538.828 144.957C536.576 144.957 534.928 145.569 533.887 146.793C532.858 148.017 532.344 150.022 532.344 152.809V164H529.102V133.609H532.344V142.809C532.344 143.915 532.292 144.833 532.188 145.562H532.383C533.021 144.534 533.926 143.727 535.098 143.141C536.283 142.542 537.63 142.242 539.141 142.242C541.758 142.242 543.717 142.867 545.02 144.117C546.335 145.354 546.992 147.327 546.992 150.035V164H543.75ZM557.875 153.043C558.435 152.249 559.288 151.207 560.434 149.918L567.348 142.594H571.195L562.523 151.715L571.801 164H567.875L560.316 153.883L557.875 155.992V164H554.672V133.609H557.875V149.723C557.875 150.439 557.823 151.546 557.719 153.043H557.875ZM585.73 164.391C582.566 164.391 580.066 163.427 578.23 161.5C576.408 159.573 575.496 156.897 575.496 153.473C575.496 150.022 576.342 147.281 578.035 145.25C579.741 143.219 582.026 142.203 584.891 142.203C587.573 142.203 589.695 143.089 591.258 144.859C592.82 146.617 593.602 148.941 593.602 151.832V153.883H578.855C578.921 156.396 579.552 158.303 580.75 159.605C581.961 160.908 583.66 161.559 585.848 161.559C588.152 161.559 590.431 161.077 592.684 160.113V163.004C591.538 163.499 590.451 163.85 589.422 164.059C588.406 164.28 587.176 164.391 585.73 164.391ZM584.852 144.918C583.133 144.918 581.759 145.478 580.73 146.598C579.715 147.717 579.116 149.267 578.934 151.246H590.125C590.125 149.202 589.669 147.639 588.758 146.559C587.846 145.465 586.544 144.918 584.852 144.918ZM609.191 164.391C606.027 164.391 603.527 163.427 601.691 161.5C599.868 159.573 598.957 156.897 598.957 153.473C598.957 150.022 599.803 147.281 601.496 145.25C603.202 143.219 605.487 142.203 608.352 142.203C611.034 142.203 613.156 143.089 614.719 144.859C616.281 146.617 617.062 148.941 617.062 151.832V153.883H602.316C602.382 156.396 603.013 158.303 604.211 159.605C605.422 160.908 607.121 161.559 609.309 161.559C611.613 161.559 613.892 161.077 616.145 160.113V163.004C614.999 163.499 613.911 163.85 612.883 164.059C611.867 164.28 610.637 164.391 609.191 164.391ZM608.312 144.918C606.594 144.918 605.22 145.478 604.191 146.598C603.176 147.717 602.577 149.267 602.395 151.246H613.586C613.586 149.202 613.13 147.639 612.219 146.559C611.307 145.465 610.005 144.918 608.312 144.918ZM633.57 164.391C632.177 164.391 630.901 164.137 629.742 163.629C628.596 163.108 627.633 162.314 626.852 161.246H626.617C626.773 162.496 626.852 163.681 626.852 164.801V173.609H623.609V142.594H626.246L626.695 145.523H626.852C627.685 144.352 628.655 143.505 629.762 142.984C630.868 142.464 632.138 142.203 633.57 142.203C636.409 142.203 638.596 143.173 640.133 145.113C641.682 147.053 642.457 149.775 642.457 153.277C642.457 156.793 641.669 159.527 640.094 161.48C638.531 163.421 636.357 164.391 633.57 164.391ZM633.102 144.957C630.914 144.957 629.332 145.562 628.355 146.773C627.379 147.984 626.878 149.911 626.852 152.555V153.277C626.852 156.285 627.353 158.44 628.355 159.742C629.358 161.031 630.966 161.676 633.18 161.676C635.029 161.676 636.474 160.927 637.516 159.43C638.57 157.932 639.098 155.868 639.098 153.238C639.098 150.569 638.57 148.525 637.516 147.105C636.474 145.673 635.003 144.957 633.102 144.957ZM658.184 164.391C655.02 164.391 652.52 163.427 650.684 161.5C648.861 159.573 647.949 156.897 647.949 153.473C647.949 150.022 648.796 147.281 650.488 145.25C652.194 143.219 654.479 142.203 657.344 142.203C660.026 142.203 662.148 143.089 663.711 144.859C665.273 146.617 666.055 148.941 666.055 151.832V153.883H651.309C651.374 156.396 652.005 158.303 653.203 159.605C654.414 160.908 656.113 161.559 658.301 161.559C660.605 161.559 662.884 161.077 665.137 160.113V163.004C663.991 163.499 662.904 163.85 661.875 164.059C660.859 164.28 659.629 164.391 658.184 164.391ZM657.305 144.918C655.586 144.918 654.212 145.478 653.184 146.598C652.168 147.717 651.569 149.267 651.387 151.246H662.578C662.578 149.202 662.122 147.639 661.211 146.559C660.299 145.465 658.997 144.918 657.305 144.918ZM682.367 142.203C683.318 142.203 684.171 142.281 684.926 142.438L684.477 145.445C683.591 145.25 682.81 145.152 682.133 145.152C680.401 145.152 678.917 145.855 677.68 147.262C676.456 148.668 675.844 150.419 675.844 152.516V164H672.602V142.594H675.277L675.648 146.559H675.805C676.599 145.165 677.556 144.091 678.676 143.336C679.796 142.581 681.026 142.203 682.367 142.203Z" fill="#CD62F3"/>
<path d="M353.466 190.818H352.233V201H353.466V190.818ZM358.812 201.159C360.284 201.159 360.781 200.244 361.04 199.827H361.179V201H362.312V190.818H361.139V194.577H361.04C360.781 194.179 360.324 193.264 358.832 193.264C356.903 193.264 355.571 194.795 355.571 197.202C355.571 199.628 356.903 201.159 358.812 201.159ZM358.972 200.105C357.5 200.105 356.744 198.812 356.744 197.182C356.744 195.571 357.48 194.318 358.972 194.318C360.403 194.318 361.159 195.472 361.159 197.182C361.159 198.912 360.383 200.105 358.972 200.105ZM367.976 201.159C369.527 201.159 370.661 200.384 371.019 199.23L369.885 198.912C369.587 199.707 368.896 200.105 367.976 200.105C366.599 200.105 365.649 199.215 365.595 197.58H371.138V197.082C371.138 194.239 369.448 193.264 367.857 193.264C365.788 193.264 364.416 194.895 364.416 197.241C364.416 199.588 365.769 201.159 367.976 201.159ZM365.595 196.565C365.674 195.377 366.514 194.318 367.857 194.318C369.129 194.318 369.945 195.273 369.945 196.565H365.595ZM374.246 196.406C374.246 195.074 375.071 194.318 376.195 194.318C377.284 194.318 377.945 195.029 377.945 196.227V201H379.118V196.148C379.118 194.199 378.079 193.264 376.533 193.264C375.38 193.264 374.664 193.781 374.306 194.557H374.206V193.364H373.073V201H374.246V196.406ZM384.733 193.364H383.102V191.534H381.929V193.364H380.776V194.358H381.929V199.131C381.929 200.463 383.003 201.099 383.997 201.099C384.435 201.099 384.713 201.02 384.872 200.96L384.634 199.906C384.534 199.926 384.375 199.966 384.117 199.966C383.6 199.966 383.102 199.807 383.102 198.812V194.358H384.733V193.364ZM386.648 201H387.821V193.364H386.648V201ZM387.245 192.091C387.702 192.091 388.08 191.733 388.08 191.295C388.08 190.858 387.702 190.5 387.245 190.5C386.787 190.5 386.409 190.858 386.409 191.295C386.409 191.733 386.787 192.091 387.245 192.091ZM393.441 193.364H391.811V191.534H390.637V193.364H389.484V194.358H390.637V199.131C390.637 200.463 391.711 201.099 392.706 201.099C393.143 201.099 393.421 201.02 393.581 200.96L393.342 199.906C393.243 199.926 393.083 199.966 392.825 199.966C392.308 199.966 391.811 199.807 391.811 198.812V194.358H393.441V193.364ZM396.112 203.864C397.171 203.864 397.917 203.302 398.359 202.114L401.611 193.384L400.328 193.364L398.22 199.449H398.14L396.032 193.364H394.76L397.584 201.04L397.365 201.636C396.937 202.8 396.41 202.909 395.555 202.69L395.257 203.724C395.376 203.784 395.714 203.864 396.112 203.864ZM409.648 201.179C410.98 201.179 411.676 200.463 411.915 199.966H411.974V201H413.148V195.969C413.148 193.543 411.298 193.264 410.324 193.264C409.17 193.264 407.858 193.662 407.261 195.054L408.375 195.452C408.633 194.895 409.245 194.298 410.363 194.298C411.442 194.298 411.974 194.87 411.974 195.849V195.889C411.974 196.456 411.398 196.406 410.006 196.585C408.589 196.769 407.042 197.082 407.042 198.832C407.042 200.324 408.196 201.179 409.648 201.179ZM409.827 200.125C408.892 200.125 408.216 199.707 408.216 198.892C408.216 197.997 409.031 197.719 409.946 197.599C410.443 197.54 411.775 197.401 411.974 197.162V198.236C411.974 199.19 411.219 200.125 409.827 200.125ZM416.612 196.406C416.612 195.074 417.438 194.318 418.561 194.318C419.65 194.318 420.311 195.029 420.311 196.227V201H421.485V196.148C421.485 194.199 420.445 193.264 418.899 193.264C417.746 193.264 417.03 193.781 416.672 194.557H416.573V193.364H415.439V201H416.612V196.406ZM426.662 201.159C428.134 201.159 428.631 200.244 428.889 199.827H429.029V201H430.162V190.818H428.989V194.577H428.889C428.631 194.179 428.173 193.264 426.682 193.264C424.753 193.264 423.421 194.795 423.421 197.202C423.421 199.628 424.753 201.159 426.662 201.159ZM426.821 200.105C425.35 200.105 424.594 198.812 424.594 197.182C424.594 195.571 425.33 194.318 426.821 194.318C428.253 194.318 429.009 195.472 429.009 197.182C429.009 198.912 428.233 200.105 426.821 200.105ZM437.288 201L438.312 198.116H442.429L443.453 201H444.745L441.007 190.818H439.734L435.995 201H437.288ZM438.7 197.023L440.331 192.429H440.41L442.041 197.023H438.7ZM449.425 201.159C451.115 201.159 452.229 200.125 452.427 198.773H451.254C451.035 199.608 450.339 200.105 449.425 200.105C448.033 200.105 447.138 198.952 447.138 197.182C447.138 195.452 448.052 194.318 449.425 194.318C450.459 194.318 451.075 194.955 451.254 195.651H452.427C452.229 194.219 451.015 193.264 449.405 193.264C447.337 193.264 445.964 194.895 445.964 197.222C445.964 199.509 447.277 201.159 449.425 201.159ZM457.395 201.159C459.085 201.159 460.199 200.125 460.398 198.773H459.224C459.006 199.608 458.31 200.105 457.395 200.105C456.003 200.105 455.108 198.952 455.108 197.182C455.108 195.452 456.023 194.318 457.395 194.318C458.429 194.318 459.045 194.955 459.224 195.651H460.398C460.199 194.219 458.986 193.264 457.375 193.264C455.307 193.264 453.935 194.895 453.935 197.222C453.935 199.509 455.247 201.159 457.395 201.159ZM465.465 201.159C467.016 201.159 468.149 200.384 468.507 199.23L467.374 198.912C467.075 199.707 466.384 200.105 465.465 200.105C464.088 200.105 463.138 199.215 463.083 197.58H468.627V197.082C468.627 194.239 466.936 193.264 465.345 193.264C463.277 193.264 461.905 194.895 461.905 197.241C461.905 199.588 463.257 201.159 465.465 201.159ZM463.083 196.565C463.163 195.377 464.003 194.318 465.345 194.318C466.618 194.318 467.433 195.273 467.433 196.565H463.083ZM475.97 195.074C475.603 193.99 474.777 193.264 473.266 193.264C471.655 193.264 470.462 194.179 470.462 195.472C470.462 196.526 471.088 197.232 472.49 197.56L473.763 197.858C474.534 198.037 474.897 198.405 474.897 198.932C474.897 199.588 474.201 200.125 473.107 200.125C472.147 200.125 471.546 199.712 471.337 198.892L470.223 199.17C470.497 200.468 471.566 201.159 473.127 201.159C474.902 201.159 476.11 200.19 476.11 198.872C476.11 197.808 475.443 197.137 474.081 196.804L472.948 196.526C472.043 196.302 471.635 195.999 471.635 195.412C471.635 194.756 472.331 194.278 473.266 194.278C474.29 194.278 474.713 194.845 474.916 195.372L475.97 195.074ZM483.435 195.074C483.067 193.99 482.242 193.264 480.73 193.264C479.12 193.264 477.926 194.179 477.926 195.472C477.926 196.526 478.553 197.232 479.955 197.56L481.228 197.858C481.998 198.037 482.361 198.405 482.361 198.932C482.361 199.588 481.665 200.125 480.571 200.125C479.612 200.125 479.01 199.712 478.801 198.892L477.688 199.17C477.961 200.468 479.03 201.159 480.591 201.159C482.366 201.159 483.574 200.19 483.574 198.872C483.574 197.808 482.908 197.137 481.546 196.804L480.412 196.526C479.507 196.302 479.1 195.999 479.1 195.412C479.1 194.756 479.796 194.278 480.73 194.278C481.755 194.278 482.177 194.845 482.381 195.372L483.435 195.074ZM489.737 201H490.97V197.281H493.197C495.569 197.281 496.637 195.839 496.637 194.04C496.637 192.24 495.569 190.818 493.177 190.818H489.737V201ZM490.97 196.188V191.912H493.137C494.793 191.912 495.424 192.817 495.424 194.04C495.424 195.263 494.793 196.188 493.157 196.188H490.97ZM498.614 201H499.788V196.168C499.788 195.134 500.603 194.378 501.717 194.378C502.03 194.378 502.353 194.438 502.433 194.457V193.264C502.298 193.254 501.99 193.244 501.816 193.244C500.901 193.244 500.106 193.761 499.828 194.517H499.748V193.364H498.614V201ZM506.843 201.159C508.912 201.159 510.304 199.588 510.304 197.222C510.304 194.835 508.912 193.264 506.843 193.264C504.775 193.264 503.383 194.835 503.383 197.222C503.383 199.588 504.775 201.159 506.843 201.159ZM506.843 200.105C505.272 200.105 504.556 198.753 504.556 197.222C504.556 195.69 505.272 194.318 506.843 194.318C508.414 194.318 509.13 195.69 509.13 197.222C509.13 198.753 508.414 200.105 506.843 200.105ZM512.805 193.364H511.453L513.879 197.182L511.453 201H512.805L514.635 198.037L516.464 201H517.816L515.351 197.182L517.816 193.364H516.464L514.635 196.486L512.805 193.364ZM520.396 203.864C521.455 203.864 522.201 203.302 522.644 202.114L525.895 193.384L524.612 193.364L522.504 199.449H522.425L520.317 193.364H519.044L521.868 201.04L521.649 201.636C521.222 202.8 520.695 202.909 519.84 202.69L519.541 203.724C519.661 203.784 519.999 203.864 520.396 203.864ZM532.102 196.705C532.102 199.21 532.779 201.298 533.992 203.068H535.026C534.071 201.756 533.315 199.071 533.315 196.705C533.315 194.338 534.071 191.653 535.026 190.341H533.992C532.779 192.111 532.102 194.199 532.102 196.705ZM538.299 190.818H537.066V201H538.299V190.818ZM541.339 201L542.363 198.116H546.479L547.504 201H548.796L545.058 190.818H543.785L540.046 201H541.339ZM542.751 197.023L544.381 192.429H544.461L546.092 197.023H542.751ZM550.532 201H551.765V197.281H553.992C556.364 197.281 557.433 195.839 557.433 194.04C557.433 192.24 556.364 190.818 553.973 190.818H550.532V201ZM551.765 196.188V191.912H553.933C555.588 191.912 556.22 192.817 556.22 194.04C556.22 195.263 555.588 196.188 553.953 196.188H551.765ZM561.915 196.705C561.915 194.199 561.239 192.111 560.026 190.341H558.992C559.947 191.653 560.702 194.338 560.702 196.705C560.702 199.071 559.947 201.756 558.992 203.068H560.026C561.239 201.298 561.915 199.21 561.915 196.705Z" fill="#BD2FEF"/>
<line x1="1000" y1="0.5" y2="0.5" stroke="#CD62F3"/>
</g>
<defs>
<linearGradient id="paint0_linear" x1="1000" y1="300" x2="-18.3028" y2="87.8536" gradientUnits="userSpaceOnUse">
<stop stop-color="#CD62F3"/>
<stop offset="1" stop-color="#CD62F3" stop-opacity="0"/>
</linearGradient>
<clipPath id="clip0">
<rect width="1000" height="300" fill="white"/>
</clipPath>
</defs>
</svg>
