<svg width="125" height="30" viewBox="0 0 125 30" fill="none" xmlns="http://www.w3.org/2000/svg">
    <g clip-path="url(#clip0)">
        <path d="M0.300003 0.00991166C0.300003 0.0199117 0.680003 0.779951 1.14 1.69995L1.98 3.37993L12.9 3.38999C25.08 3.39999 24.1 3.37999 25.4 3.63999C27.14 3.98999 28.45 4.64999 29.45 5.68999C30.37 6.62999 30.9 7.79991 31.09 9.25991C31.16 9.78991 31.17 10.91 31.11 11.39C30.91 12.92 30.38 14.13 29.46 15.09C28.05 16.57 26.01 17.3199 23.05 17.4299C22.72 17.4399 22.45 17.46 22.45 17.47C22.45 17.48 24.42 20.3 26.82 23.74L31.19 29.99H33.32C35.01 29.99 35.44 29.98 35.42 29.94C35.41 29.92 33.81 27.6599 31.87 24.9099C29.93 22.1699 28.35 19.91 28.35 19.9C28.35 19.88 28.5 19.8199 28.67 19.7599C31.84 18.6099 33.96 16.3699 34.76 13.3099C35.19 11.6599 35.24 9.67993 34.88 7.92993C34.02 3.72993 30.64 0.909931 25.59 0.179931C24.31 -0.0100688 25.17 0.00998979 12.24 -0.0100102C5.67 -1.02124e-05 0.300003 -8.83377e-05 0.300003 0.00991166Z" fill="black"/>
        <path d="M9.92 9.52998C8.29 11.53 6.95 13.18 6.94 13.19C6.94 13.21 7.22 13.79 7.58 14.5L8.23 15.78L9.23 15.8C11.15 15.85 12.15 15.98 13.26 16.35C14.72 16.83 15.71 17.58 16.37 18.7C17.18 20.08 17.23 22.2 16.5 23.67C16.1 24.47 15.45 25.19 14.67 25.67C14.46 25.8 13.64 26.2 13.58 26.2C13.56 26.2 13.53 26.22 13.52 26.23C13.5 26.26 15.04 29.34 15.11 29.42C15.17 29.49 16.26 28.99 16.87 28.61C18.31 27.73 19.33 26.65 20.03 25.27C21.34 22.7 21.27 19.29 19.86 16.95C19.27 15.98 18.4 15.09 17.41 14.45C16.07 13.58 14.12 12.97 12.11 12.78C11.85 12.76 11.65 12.73 11.65 12.71C11.65 12.7 12.88 11.18 14.39 9.32998C15.9 7.47998 17.13 5.95998 17.13 5.92998C17.13 5.90998 16.31 5.9 15.01 5.9H12.89L9.92 9.52998Z" fill="black"/>
        <path d="M48.4 9.22997V9.80995H50.96C52.36 9.80995 53.64 9.80002 53.78 9.79002L54.05 9.77L53.68 10.17C53.47 10.39 52.65 11.34 51.85 12.28C51.05 13.22 50.37 14.02 50.34 14.04C50.31 14.08 50.32 14.16 50.46 14.47L50.62 14.85H51.26C51.95 14.85 52.32 14.9 52.73 15.04C53.67 15.36 54.32 16 54.52 16.83C54.6 17.16 54.6 17.7999 54.52 18.1099C54.38 18.6399 54.08 19.11 53.66 19.45C52.69 20.25 51.36 20.3399 50.06 19.7099C49.59 19.4799 49.19 19.2199 48.86 18.9099L48.6 18.67L48.21 19.15L47.82 19.63L47.97 19.78C48.65 20.49 49.83 21.09 50.91 21.28C51.38 21.36 52.2 21.36 52.62 21.28C53.5 21.11 54.15 20.7699 54.75 20.1599C55.41 19.4999 55.77 18.74 55.85 17.83C55.96 16.67 55.6 15.6199 54.86 14.9099C54.32 14.3899 53.44 13.99 52.51 13.84L52.05 13.7599L53.88 11.64L55.71 9.52V9.09999V8.67997H52.06H48.4V9.22997Z" fill="black"/>
        <path d="M66.08 14.8901V21.13H66.69H67.3V18.51V15.8901L68.86 15.9L70.41 15.91L71.8 18.51L73.19 21.11L73.91 21.12C74.31 21.12 74.63 21.12 74.63 21.1C74.63 21.04 71.93 16.07 71.77 15.83L71.61 15.5901L71.87 15.5C72.57 15.25 73.23 14.6301 73.59 13.8901C74.13 12.7601 74.09 11.25 73.49 10.23C73.34 9.97 72.94 9.55002 72.66 9.35002C72.23 9.04002 71.67 8.84006 70.97 8.74006C70.78 8.71006 69.87 8.69 68.38 8.68L66.08 8.65999V14.8901V14.8901ZM70.93 9.89006C71.75 10.0801 72.37 10.68 72.6 11.52C72.68 11.83 72.68 12.59 72.6 12.93C72.43 13.64 71.95 14.24 71.34 14.52C70.88 14.74 70.87 14.74 69.01 14.75L67.31 14.76V12.28V9.79006L69 9.80999C70.4 9.82999 70.71 9.84006 70.93 9.89006Z" fill="black"/>
        <path d="M84.35 14.8901V21.13H88.04H91.73V20.55V19.97H88.67H85.6V17.68V15.3901H87.96H90.32V14.83V14.27H87.96H85.6V12.03V9.79006H88.48H91.36V9.20999V8.63H87.85H84.34V14.8901H84.35Z" fill="black"/>
        <path d="M101.64 14.8901V21.13H102.27H102.9V14.8901V8.65002H102.27H101.64V14.8901V14.8901Z" fill="black"/>
        <path d="M113.86 14.89V21.13H114.47H115.08V16.3099C115.08 13.1199 115.07 11.35 115.04 11.07C115.02 10.84 115.01 10.64 115.02 10.62C115.03 10.6 115.25 10.94 115.52 11.38C115.88 11.98 116.83 13.3299 119.18 16.6599L122.36 21.14H122.97H123.57V14.9V8.65994H122.94H122.31L122.33 13.6599C122.34 16.5999 122.36 18.78 122.38 18.95C122.4 19.1 122.41 19.23 122.4 19.24C122.4 19.24 122.17 18.88 121.9 18.43C121.52 17.8 120.69 16.61 118.24 13.15L115.07 8.67996L114.47 8.67L113.87 8.65994V14.89H113.86Z" fill="black"/>
    </g>
    <defs>
        <clipPath id="clip0">
            <rect x="0.300003" width="124" height="30" fill="white"/>
        </clipPath>
    </defs>
</svg>
