<svg width="51" height="35" viewBox="0 0 51 35" fill="none" xmlns="http://www.w3.org/2000/svg">
    <g clip-path="url(#clip0)">
        <path d="M38.3 24.3C45.1 24.3 50.6 18.8 50.6 12.1C50.6 5.5 45.1 0 38.3 0C34.6 0 31.5 1.3 28.7 3.8C27.4 5 26.3 6.5 25.3 8C24.3 6.5 23.2 5.1 21.9 3.8C19.2 1.3 16 0 12.3 0C5.5 0 0 5.5 0 12.2C0 18.9 5.5 24.3 12.3 24.4C15.8 24.6 18.8 23.5 21.5 21C23 19.6 24.2 17.9 25.4 16.1C26.5 17.9 27.8 19.6 29.3 21C31.7 23.3 34.5 24.4 37.7 24.4C37.9 24.3 38.1 24.3 38.3 24.3ZM18.6 17.8C16.8 19.5 14.9 20.2 12.5 20H12.4C7.9 20 4.3 16.5 4.3 12.1C4.3 7.8 7.9 4.2 12.4 4.2C15 4.3 17.1 5.1 19 7C20.4 8.4 21.6 10.1 22.8 12C21.5 14.2 20.2 16.3 18.6 17.8ZM32 17.8C30.4 16.3 29.1 14.2 27.7 12C28.9 10.1 30.1 8.3 31.5 7C33.4 5.2 35.6 4.3 38.2 4.3C42.7 4.3 46.3 7.8 46.3 12.2C46.3 16.5 42.7 20.1 38.2 20.1H38.1C35.7 20.1 33.8 19.5 32 17.8Z" fill="black"/>
        <path d="M38.8 13H41.1V10.6H38.8V8.29999H36.4V10.6H34.1V13H36.4V15.3H38.8V13Z" fill="black"/>
        <path d="M48.8 1.39999L49 2.19999H49.2L49.4 1.39999V2.19999H49.6V0.899994H49.3L49.1 1.69999L48.8 0.899994H48.5V2.09999H48.7V1.39999H48.8Z" fill="black"/>
        <path d="M47.9 2.09999H48.2V1.09999H48.6V0.899994H47.6V1.09999H48V2.09999H47.9Z" fill="black"/>
        <path d="M3.09998 26.5L0.599976 34.8H2.29998L2.79998 33.2H5.59998L5.99998 34.9H7.89998L5.39998 26.6H3.09998V26.5ZM5.09998 31.8H3.19998L4.19998 28.4L5.09998 31.8Z" fill="black"/>
        <path d="M12.9 31.2C12.8 31.1 12.7 31 12.6 30.9C12.8 30.9 12.9 30.8 13.1 30.7C13.3 30.6 13.5 30.4 13.7 30.3C13.9 30.1 14 29.9 14.1 29.7C14.2 29.5 14.2 29.2 14.2 28.9C14.2 28.5 14.1 28.1 14 27.8C13.9 27.5 13.6 27.3 13.4 27.1C13.1 26.9 12.8 26.8 12.4 26.7C12 26.6 11.6 26.6 11.1 26.6H8.59998V34.9H10.3V31.5H10.5C10.7 31.5 11 31.6 11.2 31.7C11.4 31.8 11.5 32 11.6 32.2L12.8 34.9H14.8L13.4 32C13.2 31.6 13.1 31.4 12.9 31.2ZM12.4 29C12.4 29.2 12.4 29.3 12.3 29.5C12.2 29.6 12.1 29.8 12 29.8C11.9 29.9 11.7 30 11.5 30C11.3 30 11.1 30.1 10.9 30.1H10.3V28H10.9C11.4 28 11.8 28.1 12 28.2C12.2 28.4 12.4 28.6 12.4 29Z" fill="black"/>
        <path d="M20.9 27.5C20.6 27.2 20.2 26.9 19.7 26.8C19.2 26.6 18.6 26.6 18 26.6H15.5V34.9H17.7C18.4 34.9 19.1 34.8 19.6 34.6C20.1 34.4 20.6 34.1 20.9 33.7C21.2 33.3 21.5 32.9 21.7 32.3C21.9 31.8 21.9 31.2 21.9 30.5C21.9 29.8 21.8 29.2 21.7 28.7C21.5 28.3 21.2 27.8 20.9 27.5ZM17.2 28H17.9C18.3 28 18.7 28.1 18.9 28.2C19.2 28.3 19.4 28.5 19.6 28.7C19.8 28.9 19.9 29.2 20 29.5C20.1 29.8 20.1 30.2 20.1 30.7C20.1 31.6 19.9 32.3 19.5 32.8C19.1 33.2 18.6 33.4 17.8 33.4H17.2V28V28Z" fill="black"/>
        <path d="M27.1 31.9C27.1 32.2 27.1 32.5 27 32.7C26.9 32.9 26.9 33.1 26.8 33.2C26.7 33.3 26.6 33.4 26.4 33.5C26.2 33.6 26 33.6 25.8 33.6C25.5 33.6 25.3 33.6 25.1 33.5C24.9 33.4 24.8 33.3 24.7 33.2C24.6 33.1 24.5 32.9 24.5 32.7C24.5 32.5 24.4 32.3 24.4 32V26.6H22.7V32C22.7 32.5 22.8 32.9 22.9 33.2C23 33.6 23.2 33.9 23.4 34.1C23.6 34.4 24 34.6 24.4 34.7C24.8 34.8 25.3 34.9 25.8 34.9C26.3 34.9 26.7 34.8 27.1 34.7C27.5 34.6 27.8 34.4 28.1 34.1C28.4 33.8 28.6 33.5 28.7 33.1C28.8 32.7 28.9 32.2 28.9 31.7V26.4H27.2L27.1 31.9Z" fill="black"/>
        <path d="M30.2 27.9H32V33.4H30.2V34.8H35.6V33.4H33.8V27.9H35.6V26.5H30.2V27.9V27.9Z" fill="black"/>
        <path d="M41.6 32L41.4 31.4L39.1 26.4H37V34.7H38.6V29.1L38.9 29.8L41.1 34.7H43.1V26.4H41.5V32H41.6Z" fill="black"/>
        <path d="M49.8 27.5C49.2 26.8 48.4 26.4 47.3 26.4C46.8 26.4 46.4 26.5 45.9 26.7C45.5 26.9 45.1 27.1 44.8 27.5C44.5 27.9 44.2 28.3 44.1 28.9C43.9 29.4 43.8 30.1 43.8 30.8C43.8 32.2 44.1 33.2 44.6 34C45.2 34.7 46 35.1 47.1 35.1C47.6 35.1 48 35 48.5 34.8C48.9 34.6 49.3 34.4 49.6 34C49.9 33.6 50.2 33.2 50.3 32.6C50.5 32.1 50.6 31.4 50.6 30.7C50.7 29.3 50.4 28.2 49.8 27.5ZM48 33.3C47.8 33.4 47.6 33.5 47.3 33.5C46.7 33.5 46.3 33.3 46.1 32.8C45.8 32.3 45.7 31.6 45.7 30.7C45.7 30.3 45.7 29.9 45.8 29.5C45.9 29.2 46 28.9 46.1 28.6C46.2 28.4 46.4 28.2 46.6 28.1C46.8 28 47 27.9 47.3 27.9C47.9 27.9 48.3 28.1 48.5 28.6C48.8 29.1 48.9 29.8 48.9 30.7C48.9 31.1 48.9 31.5 48.8 31.9C48.7 32.2 48.6 32.5 48.5 32.8C48.3 33 48.2 33.2 48 33.3Z" fill="black"/>
        <path d="M16.4 10.6H8.90002V13H16.4V10.6Z" fill="black"/>
    </g>
    <defs>
        <clipPath id="clip0">
            <rect width="51" height="35" fill="white"/>
        </clipPath>
    </defs>
</svg>
