<svg viewBox="0 0 109 28" fill="none" xmlns="http://www.w3.org/2000/svg">
<path fill-rule="evenodd" clip-rule="evenodd" d="M31.1912 17.9547L25.4861 7.80327H20.5234L29.0245 22.2672L26.1439 27.9997H30.593L40.6623 7.80327H35.8444L31.1912 17.9547ZM63.3777 7.80327H58.3283L54.0583 14.3527L49.817 7.80327H44.6235L51.3752 17.728L44.3352 28H49.3842L53.9432 21.075L58.4728 28H63.6663L56.6259 17.6705L63.3777 7.80327ZM68.3359 11.9001H74.4813V27.9997H78.9243V11.9001H85.0703V7.80327H68.3359V11.9001ZM9.35502 23.9861H4.44673V19.0199H9.32626C11.4341 19.0199 12.4445 19.8574 12.4445 21.4167C12.4445 23.1777 11.4341 23.9861 9.35502 23.9861ZM9.78781 15.3247H4.44673V11.8021H15.7805V7.78889H0.000342399V27.9993H9.35502C14.0322 27.9993 16.8909 25.7186 16.8909 21.59C16.8909 17.8075 14.3503 15.3247 9.78781 15.3247ZM0 4.01326H15.7808V0H0V4.01326ZM95.5412 19.5458L98.2246 12.9968L100.908 19.5458H95.5412ZM100.331 7.65878H96.2339L87.5781 27.9997H92.1077L93.9546 23.4701H102.495L104.341 27.9997H108.986L100.331 7.65878Z" fill="#232837"/>
</svg>