<svg xmlns="http://www.w3.org/2000/svg" width="2695.4px" height="2013.2px" viewBox="0 0 2695.4 2013.2"><g><g><path class="st0" d="M460.9 1299c-128.5-92.3-243.6-301.7-161.2-528.1c82.4-226.4 306.2-325.9 464.6-304.9c-3.9-121.8 43.1-241.6 161.2-335.9c123.6-98.6 414.7-140.8 576.3 97.9c68.5-90.3 314.8-93.9 332.2 126.8c87-7.3 346.4-25.2 517.7 252c171.4 277.2 9.8 582.2-137.9 682.5c-147.6 100.3-236.3 103-403.3 103c-18.5-47.2-51.3-87.6-67.8-105.4c-16.4-17.8-32.1-41.1-30.1-89c2.1-47.9 7.5-69.1 47.9-93.8c40.4-24.6 58.2-39.6 65.7-45.8c7.6-6.2 20.6-8.2 35.6-8.2c15.1 0 50.7-9.6 58.2-14.4c7.5-4.8 30.1-1.4 53.4 1.4c23.3 2.7 73.2 14.3 101.3-2.8c28.1-17.1 13.7-47.2 56.8-52c43.1-4.8 67.1-14.4 70.5-91.7c20.6-4.8 22.6-32.9 19.9-41.1c-2.8-8.2-15.1-19.8-30.8-21.2c-15.8-1.4-18.5-14.4-35.6-26.7c-17.1-12.3-116.4-70.2-129.4-79.6c-17.8-38.8-18.5-57.3-58.2-83.3c-39.7-26-117.7-67.8-151.3-84.2c-33.5-16.4-45.8-19.9-71.8-19.9c-26 0-45.9 0-45.9 0c0 0-17.8-49.9-64.3-67c-46.6-17.2-75.3 19.8-91.1 54.7c-17.1-2.7-34.9 0-54 44.5c-18.5 14.4-117.8 52.7-181.4 67.1c-63.7-7.5-173.9-17.1-234.1 4.1c-60.3 21.2-130.8 85.6-180.8 158.8c-49.9 73.2-58.1 111.6-129.3 193c-71.2 81.5-303 309.2-303 309.2Z"/><g><path class="st1" d="M304.4 1713c-1.6 2.2-3.1 3.8-4.7 5c-1.5 1.2-3.8 1.8-6.7 1.8c-2.9 0-6.1-1.2-9.5-3.7c-3.4-2.4-7.8-5.1-13-8c-5.3-3-11.7-5.6-19.2-8.1c-7.5-2.4-16.7-3.6-27.7-3.6c-14.4 0-27.2 2.6-38.3 7.7c-11.1 5.2-20.4 12.7-27.9 22.4c-7.6 9.8-13.2 21.6-17 35.4c-3.8 13.9-5.7 29.4-5.7 46.5c0 18 2 33.9 6.1 47.9c4.1 13.9 9.9 25.7 17.3 35.1c7.4 9.5 16.4 16.7 27.1 21.7c10.6 4.9 22.5 7.4 35.8 7.4c12.7 0 23.1-1.5 31.3-4.5c8.2-3 15-6.4 20.5-10.1c5.5-3.7 10-7.1 13.5-10.1c3.5-3 7-4.5 10.5-4.5c4.5 0 7.8 1.6 10 4.9l14.6 19.1c-12.9 15.8-29 27.3-48.3 34.6c-19.3 7.4-39.7 11-61.2 11c-18.5 0-35.7-3.4-51.6-10.2c-15.9-6.8-29.7-16.8-41.4-29.7c-11.7-13-21-29-27.7-47.9c-6.7-18.9-10.1-40.5-10.1-64.7c0-22 3.1-42.4 9.2-61.1c6.2-18.8 15.1-34.9 27-48.5c11.8-13.5 26.3-24.1 43.7-31.7c17.4-7.6 37.3-11.4 59.7-11.4c20.7 0 39 3.3 55 10.1c16 6.7 30.2 16.2 42.5 28.5l-13.8 18.7Z"/><path class="st1" d="M433.5 1561.6v395.2h-52.1v-395.2h52.1Z"/><path class="st1" d="M645.4 1655.7c21.6 0 41.2 3.6 58.6 10.8c17.5 7.2 32.3 17.5 44.5 30.8c12.2 13.2 21.6 29.3 28.1 48.1c6.5 18.8 9.8 39.8 9.8 63.1c0 23.4-3.3 44.4-9.8 63.2c-6.5 18.7-15.9 34.7-28.1 48c-12.2 13.2-27 23.4-44.5 30.5c-17.4 7.2-37 10.7-58.6 10.7c-21.7 0-41.3-3.5-58.7-10.7c-17.5-7.1-32.4-17.3-44.7-30.5c-12.2-13.3-21.7-29.3-28.3-48c-6.7-18.8-10-39.8-10-63.2c0-23.3 3.3-44.3 10-63.1c6.6-18.8 16.1-34.9 28.3-48.1c12.3-13.3 27.2-23.6 44.7-30.8c17.4-7.2 37-10.8 58.7-10.8Zm0 264.5c29.2 0 51.1-9.8 65.5-29.4c14.4-19.6 21.7-46.9 21.7-82.1c0-35.3-7.3-62.8-21.7-82.5c-14.4-19.7-36.3-29.5-65.5-29.5c-14.9 0-27.8 2.5-38.7 7.6c-10.9 5-20 12.4-27.3 21.9c-7.4 9.6-12.8 21.3-16.4 35.3c-3.6 13.9-5.4 29.7-5.4 47.2c0 17.6 1.8 33.3 5.4 47.2c3.6 13.8 9 25.5 16.4 34.9c7.3 9.5 16.4 16.8 27.3 21.8c10.9 5.1 23.8 7.6 38.7 7.6Z"/><path class="st1" d="M895.9 1660.4v189c0 22.5 5.1 39.8 15.5 52.1c10.3 12.3 25.9 18.5 46.8 18.5c15.2 0 29.6-3.7 43-10.9c13.5-7.2 25.9-17.2 37.2-30.1v-218.6h52.1v296.4h-31c-7.5 0-12.1-3.6-14.1-10.8l-4.1-31.9c-12.9 14.2-27.3 25.7-43.3 34.4c-16 8.7-34.3 13-55 13c-16.2 0-30.5-2.7-42.9-8c-12.4-5.4-22.8-13-31.2-22.7c-8.4-9.8-14.6-21.6-18.8-35.4c-4.2-13.9-6.3-29.2-6.3-46v-189h52.1Z"/><path class="st1" d="M1384.9 1956.8c-7.4 0-12.1-3.6-14-10.8l-4.7-36c-12.7 15.4-27.2 27.8-43.5 37c-16.3 9.3-35 13.9-56 13.9c-17 0-32.4-3.3-46.3-9.8c-13.8-6.5-25.6-16.1-35.4-28.8c-9.8-12.7-17.3-28.5-22.5-47.4c-5.3-18.9-7.9-40.7-7.9-65.3c0-21.8 2.9-42.2 8.8-61c5.8-18.8 14.2-35.2 25.3-49c11-13.9 24.4-24.7 40.2-32.7c15.8-7.9 33.8-11.8 53.9-11.8c18.1 0 33.6 3.1 46.5 9.2c12.9 6.2 24.4 14.8 34.5 25.9v-128.6h52.1v395.2h-31Zm-101-38c17 0 31.9-3.9 44.7-11.7c12.7-7.8 24.5-18.8 35.2-33.1v-143.4c-9.5-12.9-20-21.9-31.4-27.1c-11.5-5.1-24.1-7.7-37.9-7.7c-27.8 0-49 9.8-63.8 29.5c-14.9 19.8-22.3 47.8-22.3 84.3c0 19.3 1.7 35.9 5 49.6c3.3 13.8 8.2 25.1 14.6 34c6.5 8.9 14.4 15.4 23.7 19.4c9.4 4.1 20.1 6.2 32.2 6.2Z"/><path class="st1" d="M1505.2 1956.8v-395.2h52.4v141.5c12.2-14.2 26.3-25.7 42.2-34.4c15.9-8.7 34.1-13 54.6-13c17.2 0 32.7 3.2 46.6 9.7c13.8 6.4 25.6 16 35.4 28.8c9.7 12.8 17.2 28.6 22.5 47.4c5.3 18.8 7.9 40.5 7.9 65.1c0 21.9-2.9 42.2-8.8 61c-5.8 18.8-14.3 35.1-25.3 48.9c-11 13.8-24.5 24.6-40.4 32.5c-15.9 7.9-33.8 11.8-53.7 11.8c-19.1 0-35.3-3.7-48.7-11.1c-13.4-7.4-25-17.7-35-31l-2.6 26.9c-1.6 7.4-6.1 11.1-13.5 11.1h-33.6Zm132.3-259.5c-17 0-31.9 3.8-44.7 11.7c-12.8 7.8-24.5 18.8-35.2 33v143.4c9.3 12.9 19.7 22 31.1 27.2c11.5 5.3 24.2 7.9 38.2 7.9c27.7 0 49-9.8 63.8-29.5c14.8-19.7 22.3-47.8 22.3-84.3c0-19.3-1.7-35.9-5.2-49.8c-3.4-13.8-8.3-25.2-14.7-34c-6.5-8.9-14.4-15.4-23.7-19.5c-9.4-4.1-20-6.2-31.9-6.2Z"/><path class="st1" d="M1948 1655.7c17.7 0 34.1 3 49.1 8.9c15 6 28 14.5 39 25.8c10.9 11.2 19.4 25 25.6 41.5c6.1 16.5 9.2 35.3 9.2 56.4c0 8.1-0.9 13.6-2.6 16.3c-1.8 2.8-5.1 4.1-10 4.1h-197.2c.3 18.8 2.9 35.1 7.6 48.9c4.6 13.9 11.1 25.4 19.3 34.7c8.2 9.3 17.9 16.2 29.2 20.8c11.3 4.6 24 6.9 38.1 6.9c13.1 0 24.3-1.6 33.8-4.6c9.5-3 17.6-6.3 24.4-9.8c6.9-3.5 12.6-6.8 17.1-9.8c4.6-3 8.6-4.5 11.9-4.5c4.3 0 7.6 1.6 10 5l14.6 19c-6.5 7.8-14.2 14.5-23.1 20.3c-9 5.8-18.6 10.5-28.9 14.2c-10.2 3.7-20.8 6.5-31.7 8.3c-11 1.9-21.8 2.8-32.5 2.8c-20.5 0-39.4-3.4-56.6-10.4c-17.3-6.9-32.2-17-44.8-30.4c-12.6-13.4-22.4-29.9-29.4-49.6c-7-19.7-10.6-42.3-10.6-67.9c0-20.7 3.2-40 9.6-57.9c6.3-18 15.4-33.6 27.3-46.7c11.9-13.2 26.4-23.5 43.6-31c17.2-7.6 36.5-11.3 58-11.3Zm1.1 38.3c-25.1 0-44.9 7.3-59.4 21.8c-14.4 14.6-23.4 34.7-26.9 60.5h161.3c0-12.1-1.7-23.2-5-33.3c-3.3-10-8.2-18.7-14.6-26c-6.5-7.3-14.3-13-23.6-17c-9.3-4-19.9-6-31.8-6Z"/><path class="st1" d="M2355 1956.8h-23.1c-5 0-9.2-0.8-12.3-2.3c-3.1-1.6-5.1-4.9-6.1-10l-5.9-27.5c-7.8 7.1-15.4 13.3-22.8 18.9c-7.4 5.6-15.2 10.2-23.4 14c-8.2 3.8-16.9 6.7-26.2 8.7c-9.3 1.9-19.6 2.9-30.9 2.9c-11.5 0-22.3-1.6-32.3-4.8c-10.1-3.3-18.8-8.1-26.2-14.6c-7.4-6.4-13.3-14.6-17.7-24.5c-4.4-9.9-6.6-21.6-6.6-35.1c0-11.7 3.2-23 9.7-33.9c6.4-10.9 16.8-20.5 31.1-28.9c14.4-8.4 33.2-15.3 56.4-20.7c23.2-5.4 51.6-8.1 85.1-8.1v-23.3c0-23.1-4.9-40.7-14.7-52.5c-9.9-11.9-24.5-17.9-43.8-17.9c-12.7 0-23.4 1.6-32 4.9c-8.7 3.2-16.2 6.8-22.6 10.8c-6.3 4-11.8 7.6-16.4 10.8c-4.6 3.2-9.1 4.9-13.6 4.9c-3.5 0-6.6-1-9.2-2.8c-2.6-1.9-4.7-4.2-6.3-6.9l-9.4-16.7c16.4-15.8 34.1-27.6 53-35.4c18.9-7.8 39.9-11.7 62.9-11.7c16.6 0 31.3 2.7 44.2 8.2c12.9 5.5 23.7 13.1 32.5 22.8c8.8 9.8 15.4 21.6 19.9 35.4c4.5 13.9 6.7 29.1 6.7 45.7v189.6Zm-135.2-31.9c9.2 0 17.6-0.9 25.2-2.8c7.6-1.8 14.8-4.4 21.5-7.8c6.8-3.5 13.2-7.6 19.3-12.5c6.2-4.9 12.2-10.4 18-16.7v-61.1c-24 0-44.4 1.5-61.1 4.5c-16.8 3.1-30.5 7-41 11.9c-10.5 4.9-18.2 10.7-23 17.4c-4.8 6.7-7.2 14.1-7.2 22.4c0 7.8 1.3 14.6 3.8 20.3c2.6 5.7 6 10.3 10.3 14c4.3 3.6 9.3 6.3 15.2 7.9c5.9 1.7 12.2 2.5 19 2.5Z"/><path class="st1" d="M2434.1 1956.8v-296.4h29.8c5.7 0 9.6 1 11.7 3.2c2.2 2.1 3.6 5.8 4.4 11.1l3.5 46.2c10.2-20.6 22.7-36.8 37.6-48.4c15-11.6 32.5-17.4 52.6-17.4c8.2 0 15.6 .9 22.2 2.8c6.6 1.8 12.8 4.4 18.4 7.7l-6.7 39c-1.4 4.8-4.4 7.3-9.1 7.3c-2.7 0-6.9-0.9-12.6-2.8c-5.6-1.8-13.5-2.8-23.7-2.8c-18.1 0-33.3 5.3-45.5 15.8c-12.2 10.5-22.3 25.9-30.6 46v188.7h-52Z"/></g></g></g></svg>