<?xml version="1.0" standalone="no"?>
<!DOCTYPE svg PUBLIC "-//W3C//DTD SVG 20010904//EN"
 "http://www.w3.org/TR/2001/REC-SVG-20010904/DTD/svg10.dtd">
<svg version="1.0" xmlns="http://www.w3.org/2000/svg"
 width="3000.000000pt" height="1675.000000pt" viewBox="0 0 3000.000000 1675.000000"
 preserveAspectRatio="xMidYMid meet">

<g transform="translate(0.000000,1675.000000) scale(0.100000,-0.100000)"
fill="#000000" stroke="none">
<path d="M2985 16583 c-894 -75 -1692 -515 -2225 -1228 -315 -421 -511 -901
-587 -1436 -27 -194 -24 -635 6 -829 106 -688 396 -1265 877 -1744 251 -250
504 -429 829 -587 391 -189 772 -286 1209 -305 142 -7 143 -7 159 17 11 15 17
43 17 76 0 84 -8 89 -191 96 -600 26 -1175 243 -1659 627 -125 99 -349 322
-444 440 -344 431 -558 942 -620 1480 -18 154 -21 488 -6 625 63 563 267 1062
613 1499 103 130 333 360 464 464 482 381 1048 593 1657 621 184 8 186 9 186
101 0 83 -11 90 -141 88 -57 -1 -122 -3 -144 -5z"/>
<path d="M6100 16584 c-1082 -97 -2015 -723 -2500 -1679 -206 -407 -312 -827
-327 -1295 -22 -703 189 -1363 619 -1939 138 -185 414 -460 598 -598 441 -330
914 -523 1470 -600 175 -24 585 -24 760 0 371 52 649 136 975 297 320 157 552
324 816 589 262 263 424 489 584 816 201 409 297 794 312 1250 33 1000 -425
1950 -1232 2555 -345 258 -755 447 -1170 539 -209 46 -362 62 -615 66 -135 1
-265 1 -290 -1z m570 -200 c646 -74 1234 -358 1696 -819 165 -164 244 -260
363 -435 240 -355 396 -753 462 -1176 30 -198 37 -547 15 -744 -113 -984 -699
-1826 -1577 -2266 -392 -196 -764 -289 -1205 -301 -303 -8 -538 17 -806 87
-952 247 -1720 971 -2021 1906 -49 153 -87 311 -112 474 -26 160 -31 549 -11
724 65 564 272 1058 630 1506 85 106 324 342 436 431 441 348 916 547 1470
614 152 19 497 18 660 -1z"/>
<path d="M9876 16568 c-14 -20 -16 -317 -16 -3048 0 -2722 2 -3028 16 -3048
13 -19 24 -22 79 -22 44 0 68 5 79 16 15 14 16 298 16 2975 l0 2959 134 0 134
0 1847 -2962 c1017 -1630 1855 -2969 1863 -2975 22 -18 562 -19 580 -1 9 9 12
684 12 2975 l0 2964 137 -3 137 -3 1843 -2954 c1014 -1625 1850 -2963 1859
-2973 16 -17 38 -18 295 -18 276 0 278 0 293 22 14 20 16 326 16 3048 0 2722
-2 3028 -16 3048 -13 19 -24 22 -83 22 -39 0 -72 -5 -79 -12 -9 -9 -12 -684
-12 -2975 l0 -2963 -147 0 -148 0 -1849 2965 c-1017 1630 -1854 2969 -1860
2975 -15 15 -538 14 -554 -2 -9 -9 -12 -684 -12 -2975 l0 -2964 -150 3 -150 3
-1853 2970 -1853 2970 -271 3 c-271 2 -272 2 -287 -20z"/>
<path d="M22436 16579 c-712 -69 -1373 -380 -1880 -885 -258 -257 -439 -513
-600 -845 -148 -306 -235 -595 -282 -944 -25 -180 -25 -589 -1 -765 52 -372
136 -648 297 -975 92 -187 232 -410 356 -565 96 -121 360 -382 484 -480 350
-278 762 -479 1190 -584 197 -48 490 -86 667 -86 92 0 103 10 103 95 0 88 -6
91 -195 99 -653 26 -1292 293 -1798 750 -181 164 -355 372 -493 588 -80 125
-220 407 -269 541 -169 463 -218 979 -139 1467 78 479 286 945 600 1340 94
118 318 340 443 439 488 387 1064 606 1651 628 195 7 200 9 200 98 0 91 -6 95
-138 94 -59 -1 -147 -6 -196 -10z"/>
<path d="M23237 16572 c-16 -17 -17 -243 -17 -3048 0 -2726 2 -3032 16 -3052
13 -19 24 -22 79 -22 44 0 68 5 79 16 15 14 16 298 16 2975 l0 2959 1433 0
c1280 0 1435 2 1455 16 19 13 22 24 22 79 0 44 -5 68 -16 79 -14 14 -167 16
-1533 16 -1458 0 -1519 -1 -1534 -18z"/>
<path d="M26792 16578 c-7 -7 -12 -42 -12 -85 0 -67 2 -74 23 -82 12 -4 92
-11 177 -14 495 -19 1003 -187 1430 -472 176 -117 266 -190 424 -344 230 -226
417 -478 554 -748 510 -1005 402 -2175 -285 -3075 -99 -130 -357 -391 -490
-496 -478 -377 -1057 -594 -1648 -619 -82 -3 -158 -10 -167 -15 -24 -12 -26
-149 -3 -168 12 -10 50 -11 161 -6 774 36 1486 349 2029 891 475 473 772 1059
877 1730 19 122 22 180 22 445 0 342 -12 456 -78 725 -297 1207 -1286 2118
-2506 2309 -218 34 -485 47 -508 24z"/>
<path d="M3915 8079 c-488 -63 -918 -418 -1075 -887 -52 -156 -65 -241 -64
-422 0 -176 13 -263 60 -408 107 -327 351 -610 660 -766 431 -217 941 -182
1338 91 l79 54 32 -33 c18 -18 425 -467 905 -998 481 -531 911 -1006 957
-1057 l84 -92 -35 -55 c-94 -147 -165 -333 -192 -506 -25 -161 -16 -379 24
-530 84 -320 274 -589 542 -769 225 -151 459 -221 735 -221 363 0 676 129 930
384 262 263 394 595 383 968 l-3 139 50 14 c27 8 574 147 1215 310 641 162
1173 298 1182 301 13 4 19 -6 28 -53 78 -405 346 -758 712 -936 175 -85 328
-124 523 -134 481 -22 930 215 1180 623 27 44 50 80 51 82 1 3 2645 -1276
2652 -1283 2 -1 -6 -38 -17 -81 -34 -137 -44 -238 -38 -388 12 -286 106 -538
286 -766 182 -231 447 -394 756 -466 64 -15 119 -19 275 -19 179 0 204 2 303
27 522 133 905 544 992 1067 14 80 16 139 12 265 -6 203 -39 341 -121 512 -75
157 -142 250 -269 377 l-108 108 677 1319 677 1318 36 -13 c133 -46 224 -59
416 -59 173 0 200 2 295 26 260 65 456 175 635 353 210 209 331 458 380 783
l7 42 1592 0 1592 0 12 -88 c17 -128 55 -252 116 -377 191 -391 554 -660 984
-731 117 -19 359 -14 467 10 531 118 927 522 1032 1054 25 129 23 366 -6 499
-54 257 -165 466 -348 654 -256 264 -574 399 -943 399 -388 0 -732 -155 -991
-447 -161 -180 -279 -437 -310 -671 -6 -48 -13 -93 -15 -99 -3 -10 -330 -13
-1592 -13 l-1588 0 -16 108 c-43 283 -170 535 -373 737 -256 256 -567 385
-930 385 -279 0 -525 -76 -755 -234 -96 -65 -252 -220 -319 -316 -312 -444
-322 -1039 -25 -1490 101 -154 224 -274 384 -378 47 -31 86 -56 88 -57 2 -2
-293 -578 -654 -1281 -361 -704 -663 -1291 -670 -1306 l-15 -28 -70 36 c-271
136 -611 171 -914 93 -323 -83 -607 -293 -790 -584 -29 -47 -55 -91 -57 -96
-3 -8 -2638 1258 -2655 1275 -1 1 6 31 17 66 39 129 53 252 47 414 -8 224 -44
361 -143 556 -186 365 -537 624 -942 695 -116 21 -332 21 -452 0 -180 -31
-347 -97 -501 -200 -199 -132 -345 -299 -453 -517 -84 -169 -136 -366 -136
-520 0 -45 -4 -58 -17 -62 -48 -14 -2461 -626 -2470 -626 -6 0 -23 35 -38 78
-138 389 -470 703 -863 818 -440 128 -898 27 -1248 -275 -47 -40 -87 -71 -88
-70 -2 2 -443 489 -980 1082 l-976 1079 49 56 c287 336 383 831 241 1254 -203
606 -793 977 -1425 897z"/>
</g>
</svg>
