<svg width="268" height="56" viewBox="0 0 268 56" fill="none" xmlns="http://www.w3.org/2000/svg">
<path d="M265.241 8.0387H232.952C232.443 8.0387 231.955 8.24102 231.596 8.60116C231.236 8.9613 231.034 9.44976 231.034 9.95907V42.2944C231.034 42.8037 231.236 43.2921 231.596 43.6523C231.955 44.0124 232.443 44.2148 232.952 44.2148H265.241C265.748 44.2097 266.233 44.0058 266.591 43.6468C266.95 43.2877 267.153 42.8021 267.158 42.2944V9.97059C267.16 9.71744 267.111 9.46648 267.016 9.23216C266.92 8.99784 266.779 8.78477 266.601 8.60523C266.422 8.42568 266.211 8.2832 265.977 8.18597C265.744 8.08874 265.493 8.03869 265.241 8.0387V8.0387Z" fill="black"/>
<path d="M205.859 2.23916H237.5V5.78417H239.752V1.92038C239.752 1.41106 239.55 0.922604 239.19 0.562464C238.83 0.202323 238.342 0 237.834 0H205.556C205.048 0 204.56 0.202323 204.2 0.562464C203.841 0.922604 203.639 1.41106 203.639 1.92038V16.5152H179.001C178.492 16.5152 178.005 16.7176 177.645 17.0777C177.285 17.4378 177.083 17.9263 177.083 18.4356V50.7671C177.083 51.2764 177.285 51.7649 177.645 52.125C178.005 52.4851 178.492 52.6874 179.001 52.6874H211.309C211.818 52.6874 212.306 52.4851 212.665 52.125C213.025 51.7649 213.227 51.2764 213.227 50.7671V36.1722H228.779V33.9177H205.859V2.23916Z" fill="black"/>
<path d="M15.2657 31.7958C15.4736 31.7958 15.6579 31.8761 15.8185 32.0368L17.321 33.6668C16.4894 34.6968 15.4642 35.4859 14.2452 36.0339C13.0356 36.582 11.5804 36.856 9.87949 36.856C8.35811 36.856 6.98793 36.5962 5.76894 36.0765C4.5594 35.5567 3.52468 34.8338 2.66477 33.9078C1.80486 32.9817 1.14339 31.8761 0.680366 30.591C0.226789 29.3059 0 27.9026 0 26.3812C0 24.841 0.245688 23.433 0.737064 22.1573C1.22844 20.8722 1.91826 19.7666 2.80651 18.8405C3.70422 17.9145 4.77201 17.1963 6.0099 16.686C7.24779 16.1663 8.61797 15.9064 10.1204 15.9064C11.6135 15.9064 12.9364 16.1521 14.0893 16.6435C15.2515 17.1349 16.239 17.7774 17.0517 18.5712L15.776 20.343C15.7004 20.4564 15.6012 20.5556 15.4783 20.6406C15.3649 20.7257 15.2043 20.7682 14.9964 20.7682C14.8547 20.7682 14.7082 20.7304 14.557 20.6548C14.4058 20.5698 14.2404 20.4706 14.0609 20.3572C13.8814 20.2343 13.6735 20.102 13.4372 19.9603C13.201 19.8185 12.927 19.691 12.6151 19.5776C12.3033 19.4547 11.9395 19.3555 11.5237 19.2799C11.1174 19.1949 10.6449 19.1523 10.1063 19.1523C9.18967 19.1523 8.34866 19.3177 7.58325 19.6484C6.82729 19.9697 6.17527 20.4422 5.6272 21.0659C5.07912 21.6801 4.6539 22.4361 4.35151 23.3338C4.04913 24.222 3.89793 25.2378 3.89793 26.3812C3.89793 27.5341 4.05857 28.5594 4.37986 29.4571C4.71059 30.3548 5.15472 31.1107 5.71224 31.725C6.26977 32.3392 6.92651 32.8116 7.68247 33.1424C8.43843 33.4637 9.25109 33.6243 10.1204 33.6243C10.6402 33.6243 11.1079 33.596 11.5237 33.5393C11.9489 33.4826 12.3364 33.3928 12.686 33.2699C13.0451 33.1471 13.3805 32.9912 13.6924 32.8022C14.0137 32.6038 14.3302 32.3628 14.6421 32.0793C14.7365 31.9943 14.8358 31.9281 14.9397 31.8809C15.0437 31.8242 15.1523 31.7958 15.2657 31.7958Z" fill="black"/>
<path d="M39.0362 26.3812C39.0362 27.8837 38.7858 29.2775 38.285 30.5627C37.7936 31.8383 37.0944 32.9439 36.1872 33.8794C35.2801 34.8149 34.1886 35.5473 32.9129 36.0765C31.6373 36.5962 30.2198 36.856 28.6607 36.856C27.1109 36.856 25.6982 36.5962 24.4225 36.0765C23.1469 35.5473 22.0507 34.8149 21.1341 33.8794C20.2269 32.9439 19.523 31.8383 19.0221 30.5627C18.5213 29.2775 18.2709 27.8837 18.2709 26.3812C18.2709 24.8788 18.5213 23.4897 19.0221 22.214C19.523 20.9289 20.2269 19.8185 21.1341 18.883C22.0507 17.9475 23.1469 17.2199 24.4225 16.7002C25.6982 16.171 27.1109 15.9064 28.6607 15.9064C29.7001 15.9064 30.6781 16.0293 31.5947 16.275C32.5113 16.5112 33.3523 16.8514 34.1178 17.2955C34.8832 17.7302 35.5683 18.2641 36.173 18.8972C36.7873 19.5209 37.307 20.2201 37.7322 20.995C38.1574 21.7699 38.4787 22.6109 38.6961 23.518C38.9228 24.4252 39.0362 25.3796 39.0362 26.3812ZM35.1383 26.3812C35.1383 25.2567 34.9871 24.2504 34.6847 23.3621C34.3823 22.4644 33.9524 21.7037 33.3949 21.0801C32.8374 20.4564 32.157 19.9792 31.3538 19.6484C30.56 19.3177 29.6623 19.1523 28.6607 19.1523C27.659 19.1523 26.7566 19.3177 25.9534 19.6484C25.1596 19.9792 24.4792 20.4564 23.9123 21.0801C23.3547 21.7037 22.9248 22.4644 22.6224 23.3621C22.32 24.2504 22.1688 25.2567 22.1688 26.3812C22.1688 27.5057 22.32 28.5168 22.6224 29.4145C22.9248 30.3028 23.3547 31.0588 23.9123 31.6824C24.4792 32.2966 25.1596 32.7691 25.9534 33.0999C26.7566 33.4306 27.659 33.596 28.6607 33.596C29.6623 33.596 30.56 33.4306 31.3538 33.0999C32.157 32.7691 32.8374 32.2966 33.3949 31.6824C33.9524 31.0588 34.3823 30.3028 34.6847 29.4145C34.9871 28.5168 35.1383 27.5057 35.1383 26.3812Z" fill="black"/>
<path d="M59.6632 16.1332V36.6293H57.7071C57.4047 36.6293 57.1496 36.582 56.9417 36.4875C56.7433 36.3836 56.5496 36.2135 56.3606 35.9772L45.659 22.3132C45.7157 22.9369 45.744 23.5133 45.744 24.0425V36.6293H42.3847V16.1332H44.3833C44.5439 16.1332 44.6809 16.1427 44.7943 16.1616C44.9172 16.171 45.0211 16.1994 45.1062 16.2466C45.2007 16.2844 45.2904 16.3458 45.3755 16.4309C45.4605 16.5065 45.555 16.6104 45.659 16.7427L56.4031 30.4634C56.3747 30.1327 56.3511 29.8067 56.3322 29.4854C56.3133 29.1641 56.3039 28.8665 56.3039 28.5924V16.1332H59.6632Z" fill="black"/>
<path d="M78.5436 19.2657H72.3636V36.6293H68.5507V19.2657H62.3707V16.1332H78.5436V19.2657Z" fill="black"/>
<path d="M87.4198 25.8851C88.1379 25.8851 88.7616 25.7954 89.2908 25.6158C89.8294 25.4363 90.2688 25.1906 90.609 24.8788C90.9586 24.5575 91.2185 24.1795 91.3886 23.7448C91.5587 23.3101 91.6437 22.8329 91.6437 22.3132C91.6437 21.2738 91.2988 20.4753 90.609 19.9178C89.9286 19.3602 88.8844 19.0815 87.4765 19.0815H85.0385V25.8851H87.4198ZM97.2284 36.6293H93.784C93.132 36.6293 92.6595 36.3741 92.3666 35.8638L88.0576 29.3011C87.897 29.0555 87.7174 28.8806 87.519 28.7767C87.33 28.6728 87.0465 28.6208 86.6685 28.6208H85.0385V36.6293H81.2256V16.1332H87.4765C88.8655 16.1332 90.0562 16.2797 91.0484 16.5726C92.05 16.8561 92.8674 17.2577 93.5005 17.7774C94.1431 18.2972 94.6156 18.9208 94.918 19.6484C95.2204 20.3666 95.3716 21.1604 95.3716 22.0297C95.3716 22.7195 95.2676 23.3716 95.0597 23.9858C94.8613 24.6 94.5683 25.1575 94.1809 25.6584C93.8029 26.1592 93.3304 26.5986 92.7635 26.9766C92.206 27.3545 91.5681 27.6522 90.8499 27.8695C91.0956 28.0113 91.3224 28.1814 91.5303 28.3798C91.7382 28.5688 91.9272 28.7956 92.0973 29.0602L97.2284 36.6293Z" fill="black"/>
<path d="M110.271 28.8901L107.776 22.0723C107.653 21.7699 107.526 21.4108 107.394 20.995C107.261 20.5792 107.129 20.1304 106.997 19.6484C106.874 20.1304 106.746 20.584 106.614 21.0092C106.482 21.425 106.354 21.7888 106.231 22.1006L103.751 28.8901H110.271ZM117.004 36.6293H114.055C113.725 36.6293 113.455 36.5489 113.248 36.3883C113.04 36.2182 112.884 36.0103 112.78 35.7646L111.249 31.5832H102.759L101.228 35.7646C101.152 35.982 101.006 36.1804 100.788 36.3599C100.571 36.5395 100.302 36.6293 99.9804 36.6293H97.0038L105.069 16.1332H108.953L117.004 36.6293Z" fill="black"/>
<path d="M130.039 19.8611C129.926 20.0595 129.803 20.206 129.671 20.3005C129.548 20.3855 129.392 20.428 129.203 20.428C129.005 20.428 128.787 20.3572 128.551 20.2154C128.324 20.0642 128.05 19.8989 127.729 19.7193C127.408 19.5398 127.03 19.3791 126.595 19.2374C126.17 19.0862 125.664 19.0106 125.078 19.0106C124.549 19.0106 124.086 19.0768 123.689 19.209C123.292 19.3319 122.957 19.5067 122.683 19.7335C122.418 19.9603 122.22 20.2343 122.088 20.5556C121.955 20.8674 121.889 21.2123 121.889 21.5903C121.889 22.0723 122.022 22.4739 122.286 22.7951C122.56 23.1164 122.919 23.3905 123.363 23.6173C123.807 23.844 124.313 24.0472 124.88 24.2267C125.447 24.4063 126.028 24.6 126.623 24.8079C127.219 25.0063 127.8 25.2426 128.367 25.5166C128.934 25.7812 129.439 26.1214 129.884 26.5372C130.328 26.9435 130.682 27.4443 130.947 28.0396C131.221 28.635 131.358 29.3578 131.358 30.2083C131.358 31.1344 131.197 32.0037 130.876 32.8164C130.564 33.6196 130.101 34.3236 129.487 34.9283C128.882 35.5237 128.14 35.9961 127.261 36.3458C126.382 36.686 125.376 36.856 124.242 36.856C123.59 36.856 122.948 36.7899 122.314 36.6576C121.681 36.5348 121.072 36.3552 120.486 36.119C119.91 35.8827 119.366 35.5993 118.856 35.2685C118.346 34.9378 117.892 34.5693 117.495 34.1629L118.615 32.3344C118.709 32.2022 118.832 32.0935 118.983 32.0084C119.135 31.9139 119.295 31.8667 119.465 31.8667C119.702 31.8667 119.957 31.9659 120.231 32.1644C120.505 32.3533 120.831 32.566 121.209 32.8022C121.587 33.0384 122.026 33.2558 122.527 33.4542C123.037 33.6432 123.647 33.7377 124.356 33.7377C125.442 33.7377 126.283 33.4826 126.879 32.9723C127.474 32.4526 127.772 31.7108 127.772 30.7469C127.772 30.2083 127.635 29.7689 127.361 29.4287C127.096 29.0885 126.742 28.805 126.297 28.5783C125.853 28.342 125.348 28.1436 124.781 27.9829C124.214 27.8223 123.637 27.6475 123.052 27.4585C122.466 27.2695 121.889 27.0427 121.322 26.7781C120.755 26.5135 120.25 26.1686 119.806 25.7434C119.361 25.3182 119.002 24.789 118.728 24.1559C118.464 23.5133 118.331 22.7243 118.331 21.7888C118.331 21.0423 118.478 20.3146 118.771 19.6059C119.073 18.8972 119.508 18.2688 120.075 17.7207C120.642 17.1727 121.341 16.7333 122.173 16.4025C123.004 16.0718 123.959 15.9064 125.036 15.9064C126.245 15.9064 127.361 16.0954 128.381 16.4734C129.402 16.8514 130.271 17.3806 130.989 18.0609L130.039 19.8611Z" fill="black"/>
<path d="M149 19.2657H142.82V36.6293H139.007V19.2657H132.827V16.1332H149V19.2657Z" fill="black"/>
<path d="M155.509 19.1665V24.8504H162.681V27.7845H155.509V33.5818H164.609V36.6293H151.682V16.1332H164.609V19.1665H155.509Z" fill="black"/>
<path d="M131.91 46.9674C131.91 47.7972 131.779 48.5523 131.516 49.2327C131.253 49.9131 130.882 50.4955 130.403 50.98C129.923 51.4645 129.346 51.8408 128.671 52.1088C128.001 52.3717 127.258 52.5031 126.444 52.5031H122.308V41.424H126.444C127.258 41.424 128.001 41.558 128.671 41.826C129.346 42.0889 129.923 42.4651 130.403 42.9548C130.882 43.4393 131.253 44.0217 131.516 44.7021C131.779 45.3825 131.91 46.1376 131.91 46.9674ZM130.372 46.9674C130.372 46.287 130.279 45.6788 130.093 45.1428C129.908 44.6067 129.645 44.1532 129.305 43.782C128.965 43.4109 128.552 43.1275 128.068 42.9316C127.583 42.7357 127.042 42.6378 126.444 42.6378H123.808V51.2893H126.444C127.042 51.2893 127.583 51.1913 128.068 50.9955C128.552 50.7996 128.965 50.5187 129.305 50.1527C129.645 49.7816 129.908 49.3281 130.093 48.792C130.279 48.256 130.372 47.6478 130.372 46.9674Z" fill="black"/>
<path d="M135.049 44.6712V52.5031H133.673V44.6712H135.049ZM135.343 42.2126C135.343 42.3466 135.314 42.4729 135.258 42.5914C135.206 42.7048 135.134 42.8079 135.041 42.9007C134.953 42.9883 134.848 43.0579 134.724 43.1094C134.606 43.161 134.479 43.1867 134.345 43.1867C134.211 43.1867 134.085 43.161 133.966 43.1094C133.853 43.0579 133.752 42.9883 133.665 42.9007C133.577 42.8079 133.508 42.7048 133.456 42.5914C133.405 42.4729 133.379 42.3466 133.379 42.2126C133.379 42.0786 133.405 41.9523 133.456 41.8337C133.508 41.71 133.577 41.6044 133.665 41.5167C133.752 41.424 133.853 41.3518 133.966 41.3003C134.085 41.2487 134.211 41.2229 134.345 41.2229C134.479 41.2229 134.606 41.2487 134.724 41.3003C134.848 41.3518 134.953 41.424 135.041 41.5167C135.134 41.6044 135.206 41.71 135.258 41.8337C135.314 41.9523 135.343 42.0786 135.343 42.2126Z" fill="black"/>
<path d="M140.039 48.676C140.318 48.676 140.562 48.6374 140.774 48.5601C140.985 48.4828 141.163 48.3745 141.307 48.2354C141.451 48.0962 141.56 47.9312 141.632 47.7405C141.704 47.5447 141.74 47.3308 141.74 47.0988C141.74 46.6195 141.593 46.2381 141.299 45.9546C141.011 45.6711 140.591 45.5294 140.039 45.5294C139.483 45.5294 139.057 45.6711 138.763 45.9546C138.475 46.2381 138.331 46.6195 138.331 47.0988C138.331 47.3308 138.367 47.5447 138.439 47.7405C138.516 47.9312 138.627 48.0962 138.771 48.2354C138.916 48.3745 139.093 48.4828 139.305 48.5601C139.516 48.6374 139.761 48.676 140.039 48.676ZM142.521 52.9283C142.521 52.7376 142.467 52.583 142.359 52.4644C142.25 52.3459 142.103 52.2531 141.918 52.1861C141.738 52.1191 141.526 52.0727 141.284 52.047C141.042 52.016 140.784 51.9928 140.511 51.9774C140.243 51.9619 139.97 51.9464 139.691 51.931C139.413 51.9155 139.145 51.8897 138.887 51.8537C138.599 51.9877 138.361 52.1578 138.176 52.3639C137.996 52.565 137.905 52.8021 137.905 53.0752C137.905 53.2505 137.949 53.4128 138.037 53.5623C138.13 53.7169 138.269 53.8484 138.454 53.9566C138.64 54.07 138.872 54.1576 139.15 54.2195C139.434 54.2865 139.766 54.32 140.147 54.32C140.519 54.32 140.851 54.2865 141.145 54.2195C141.439 54.1525 141.686 54.0571 141.887 53.9334C142.093 53.8097 142.25 53.6628 142.359 53.4927C142.467 53.3226 142.521 53.1345 142.521 52.9283ZM143.92 44.9804V45.4907C143.92 45.6608 143.812 45.769 143.596 45.8154L142.707 45.9314C142.882 46.2716 142.969 46.6478 142.969 47.0602C142.969 47.4416 142.895 47.7895 142.745 48.1039C142.601 48.4132 142.4 48.6786 142.142 48.9003C141.884 49.1219 141.575 49.292 141.214 49.4105C140.854 49.5291 140.462 49.5884 140.039 49.5884C139.673 49.5884 139.328 49.5445 139.003 49.4569C138.838 49.56 138.712 49.6708 138.624 49.7894C138.537 49.9028 138.493 50.0187 138.493 50.1373C138.493 50.3228 138.568 50.4646 138.717 50.5625C138.872 50.6553 139.073 50.7223 139.32 50.7635C139.568 50.8048 139.848 50.8305 140.163 50.8408C140.482 50.8512 140.807 50.8692 141.137 50.895C141.472 50.9156 141.797 50.9542 142.111 51.0109C142.431 51.0676 142.714 51.1604 142.962 51.2893C143.209 51.4181 143.408 51.596 143.557 51.8227C143.712 52.0495 143.789 52.3433 143.789 52.7041C143.789 53.0392 143.704 53.3639 143.534 53.6783C143.369 53.9927 143.129 54.271 142.815 54.5133C142.5 54.7607 142.114 54.9565 141.655 55.1009C141.201 55.2503 140.689 55.3251 140.116 55.3251C139.544 55.3251 139.044 55.2684 138.617 55.155C138.189 55.0416 137.833 54.8895 137.55 54.6988C137.266 54.5081 137.052 54.2865 136.908 54.0339C136.769 53.7865 136.699 53.5262 136.699 53.2531C136.699 52.8665 136.82 52.5392 137.063 52.2712C137.305 52.0031 137.637 51.7892 138.06 51.6295C137.828 51.5264 137.642 51.3898 137.503 51.2197C137.369 51.0444 137.302 50.8099 137.302 50.5161C137.302 50.4027 137.323 50.2868 137.364 50.1682C137.405 50.0445 137.467 49.9234 137.55 49.8048C137.637 49.6811 137.743 49.5652 137.867 49.4569C137.99 49.3487 138.135 49.2533 138.3 49.1709C137.913 48.9544 137.612 48.6683 137.395 48.3127C137.179 47.9519 137.07 47.5344 137.07 47.0602C137.07 46.6788 137.142 46.3334 137.287 46.0242C137.436 45.7098 137.642 45.4443 137.905 45.2278C138.168 45.0062 138.48 44.8361 138.841 44.7175C139.207 44.599 139.606 44.5397 140.039 44.5397C140.379 44.5397 140.696 44.5784 140.99 44.6557C141.284 44.7279 141.552 44.8361 141.794 44.9804H143.92Z" fill="black"/>
<path d="M146.797 44.6712V52.5031H145.421V44.6712H146.797ZM147.091 42.2126C147.091 42.3466 147.062 42.4729 147.006 42.5914C146.954 42.7048 146.882 42.8079 146.789 42.9007C146.702 42.9883 146.596 43.0579 146.472 43.1094C146.354 43.161 146.227 43.1867 146.093 43.1867C145.959 43.1867 145.833 43.161 145.715 43.1094C145.601 43.0579 145.501 42.9883 145.413 42.9007C145.325 42.8079 145.256 42.7048 145.204 42.5914C145.153 42.4729 145.127 42.3466 145.127 42.2126C145.127 42.0786 145.153 41.9523 145.204 41.8337C145.256 41.71 145.325 41.6044 145.413 41.5167C145.501 41.424 145.601 41.3518 145.715 41.3003C145.833 41.2487 145.959 41.2229 146.093 41.2229C146.227 41.2229 146.354 41.2487 146.472 41.3003C146.596 41.3518 146.702 41.424 146.789 41.5167C146.882 41.6044 146.954 41.71 147.006 41.8337C147.062 41.9523 147.091 42.0786 147.091 42.2126Z" fill="black"/>
<path d="M151.463 52.6268C150.844 52.6268 150.367 52.4541 150.032 52.1088C149.702 51.7635 149.537 51.2661 149.537 50.6166V45.8231H148.594C148.512 45.8231 148.442 45.8 148.386 45.7536C148.329 45.702 148.3 45.6247 148.3 45.5216V44.9727L149.584 44.8103L149.901 42.3904C149.916 42.3131 149.95 42.2512 150.001 42.2048C150.058 42.1533 150.13 42.1275 150.218 42.1275H150.914V44.8258H153.179V45.8231H150.914V50.5239C150.914 50.8537 150.994 51.0986 151.153 51.2583C151.313 51.4181 151.519 51.498 151.772 51.498C151.916 51.498 152.04 51.48 152.143 51.4439C152.251 51.4027 152.344 51.3589 152.421 51.3125C152.499 51.2661 152.563 51.2248 152.615 51.1888C152.671 51.1475 152.72 51.1269 152.762 51.1269C152.834 51.1269 152.898 51.1707 152.955 51.2583L153.357 51.9155C153.12 52.1372 152.834 52.3124 152.499 52.4413C152.164 52.565 151.818 52.6268 151.463 52.6268Z" fill="black"/>
<path d="M158.845 48.9776C158.211 48.9982 157.669 49.0497 157.221 49.1322C156.778 49.2095 156.414 49.3126 156.131 49.4415C155.853 49.5703 155.649 49.7224 155.52 49.8976C155.396 50.0729 155.334 50.2687 155.334 50.4852C155.334 50.6914 155.368 50.8692 155.435 51.0187C155.502 51.1681 155.592 51.2918 155.706 51.3898C155.824 51.4826 155.961 51.5521 156.115 51.5985C156.275 51.6398 156.445 51.6604 156.626 51.6604C156.868 51.6604 157.09 51.6372 157.291 51.5908C157.492 51.5393 157.68 51.4671 157.855 51.3743C158.035 51.2815 158.205 51.1707 158.365 51.0419C158.53 50.913 158.69 50.7661 158.845 50.6012V48.9776ZM154.399 45.7768C154.832 45.3593 155.298 45.0474 155.798 44.8413C156.298 44.6351 156.852 44.532 157.461 44.532C157.899 44.532 158.288 44.6042 158.628 44.7485C158.968 44.8928 159.254 45.0938 159.486 45.3515C159.718 45.6092 159.893 45.9211 160.012 46.287C160.131 46.653 160.19 47.055 160.19 47.4931V52.5031H159.579C159.445 52.5031 159.342 52.4825 159.27 52.4413C159.198 52.3949 159.141 52.3072 159.1 52.1784L158.945 51.4362C158.739 51.6269 158.538 51.797 158.342 51.9464C158.146 52.0908 157.94 52.2145 157.724 52.3176C157.507 52.4155 157.275 52.4902 157.028 52.5418C156.785 52.5985 156.515 52.6268 156.216 52.6268C155.912 52.6268 155.626 52.5856 155.358 52.5031C155.09 52.4155 154.855 52.2866 154.654 52.1165C154.458 51.9464 154.301 51.7325 154.183 51.4748C154.069 51.212 154.012 50.9027 154.012 50.5471C154.012 50.2378 154.097 49.9414 154.268 49.6579C154.438 49.3693 154.713 49.1142 155.095 48.8925C155.476 48.6709 155.974 48.4905 156.587 48.3513C157.2 48.207 157.953 48.1245 158.845 48.1039V47.4931C158.845 46.8849 158.713 46.4262 158.45 46.1169C158.187 45.8025 157.803 45.6453 157.298 45.6453C156.958 45.6453 156.672 45.6891 156.44 45.7768C156.213 45.8592 156.015 45.9546 155.845 46.0628C155.68 46.1659 155.536 46.2613 155.412 46.3489C155.293 46.4314 155.175 46.4726 155.056 46.4726C154.963 46.4726 154.883 46.4494 154.816 46.403C154.749 46.3515 154.693 46.2896 154.646 46.2174L154.399 45.7768Z" fill="black"/>
<path d="M163.709 41.1147V52.5031H162.333V41.1147H163.709Z" fill="black"/>
</svg>
