<?xml version="1.0" encoding="utf-8"?>
<svg version="1.1" id="Layer_1" xmlns="http://www.w3.org/2000/svg" x="0px" y="0px"
	 width="85.04px" height="85.04px" viewBox="0 0 85.04 85.04" style="enable-background:new 0 0 85.04 85.04;" xml:space="preserve"
	>
<path style="fill:#C9C9C9;" d="M0,0v85.04h85.04V0H0z M70.45,19.45v47.01h-1.13v-0.02h-9.59v0.02H58.6v-0.02h-9.59v0.02h-1.13v-0.02
	h-9.59v0.02h-1.13v-0.02h-9.59v0.02h-1.13v-0.02h-9.22L5.99,76.36l-0.75-0.85l10.48-9.25l0-47.44h1.13l0,46.44l9.59-8.46V18.82h1.13
	v36.97l9.59-8.46V18.82h1.13v27.51l9.59-8.46V18.82h1.13v18.05l9.59-8.46l0-9.58h1.13l0,8.58l9.59-8.46v-0.12h0.13l11.06-9.77
	l0.75,0.85L70.45,19.45z"/>
</svg>
