<svg width="128" height="28" viewBox="0 0 128 28" fill="none" xmlns="http://www.w3.org/2000/svg">
    <path d="M30.1 4.70001V10.8H36V4.70001H39.6V20.6H36V14H30.1V20.6H26.5V4.70001H30.1Z" fill="black"/>
    <path d="M46.9 18.2C48.3 18.2 49.2 16.8 49.2 14.7C49.2 13 48.5 11.3 46.9 11.3C45.2 11.3 44.5 13 44.5 14.8C44.5 16.8 45.3 18.2 46.9 18.2ZM46.8 20.8C43.4 20.8 40.8 18.6 40.8 14.9C40.8 11.2 43.2 8.79999 47 8.79999C50.5 8.79999 52.9 11.2 52.9 14.7C52.8 18.9 49.9 20.8 46.8 20.8Z" fill="black"/>
    <path d="M60.1 18.2C61.5 18.2 62.4 16.8 62.4 14.7C62.4 13 61.7 11.3 60.1 11.3C58.4 11.3 57.7 13 57.7 14.8C57.7 16.8 58.5 18.2 60.1 18.2ZM60 20.8C56.6 20.8 54.1 18.6 54.1 14.9C54.1 11.2 56.5 8.79999 60.3 8.79999C63.8 8.79999 66.2 11.2 66.2 14.7C66.1 18.9 63.1 20.8 60 20.8Z" fill="black"/>
    <path d="M67.4 11.7V16.4C67.4 18 67.7 19.1 68.4 19.8C69 20.4 70 20.8 71.1 20.8C72.1 20.8 73 20.7 73.4 20.5V17.8C73.1 17.9 72.8 17.9 72.3 17.9C71.2 17.9 70.9 17.3 70.9 15.9V11.7H73.5V9.00001H70.9V6.80001V5.60001C69 5.60001 67.4 7.20001 67.4 9.10001V11.7Z" fill="black"/>
    <path d="M104 11.7V16.4C104 18 104.3 19.1 105 19.8C105.6 20.4 106.6 20.8 107.7 20.8C108.7 20.8 109.6 20.7 110 20.5V17.8C109.7 17.9 109.4 17.9 108.9 17.9C107.8 17.9 107.5 17.3 107.5 15.9V11.7H110.1V9.00001H107.5V6.80001V5.60001C105.6 5.60001 104 7.20001 104 9.10001V11.7Z" fill="black"/>
    <path d="M75.3 17.4C76 17.8 77.3 18.2 78.4 18.2C79.5 18.2 79.9 17.8 79.9 17.3C79.9 16.7 79.5 16.4 78.2 16C75.8 15.2 74.9 13.9 74.9 12.6C74.9 10.4 76.7 8.79999 79.6 8.79999C80.9 8.79999 82.1 9.09999 82.8 9.49999L82.2 11.9C81.7 11.6 80.7 11.3 79.7 11.3C78.8 11.3 78.3 11.7 78.3 12.2C78.3 12.8 78.7 13 80.2 13.5C82.4 14.2 83.3 15.4 83.3 17C83.3 19.2 81.6 20.7 78.3 20.7C76.8 20.7 75.5 20.3 74.6 19.9L75.3 17.4Z" fill="black"/>
    <path d="M95.5 16.9C95.5 18.4 95.5 19.6 95.6 20.6H92.5L92.3 19H92.2C91.8 19.7 90.7 20.9 88.6 20.9C86.2 20.9 84.6 19.4 84.6 15.9V9H88.2V15.2C88.2 16.9 88.7 17.9 90 17.9C91 17.9 91.6 17.2 91.8 16.7C91.9 16.5 91.9 16.2 91.9 15.9V9H95.5V16.9V16.9Z" fill="black"/>
    <path d="M101.6 9H98V20.5H101.6V9Z" fill="black"/>
    <path d="M99.8 7.50001C98.6 7.50001 97.8 6.70001 97.8 5.60001C97.8 4.50001 98.6 3.70001 99.8 3.70001C101 3.70001 101.8 4.50001 101.8 5.60001C101.8 6.70001 101 7.50001 99.8 7.50001Z" fill="black"/>
    <path d="M118.8 13.5C118.8 12.7 118.4 11.2 116.8 11.2C115.3 11.2 114.7 12.6 114.6 13.5H118.8ZM114.5 15.9C114.6 17.4 116.1 18.1 117.7 18.1C118.9 18.1 119.9 17.9 120.9 17.6L121.4 20C120.2 20.5 118.8 20.7 117.2 20.7C113.3 20.7 111.1 18.4 111.1 14.8C111.1 11.9 112.9 8.70001 116.9 8.70001C120.6 8.70001 122 11.6 122 14.4C122 15 121.9 15.6 121.9 15.8L114.5 15.9Z" fill="black"/>
    <path d="M125 9V9.3H124.2V11.6H123.8V9.4H123V9H125ZM127.6 11.7L127.5 10.1C127.5 9.9 127.5 9.6 127.5 9.4C127.4 9.6 127.4 9.9 127.3 10.2L126.7 11.7H126.4L125.9 10.1C125.8 9.9 125.8 9.6 125.7 9.4C125.7 9.7 125.7 9.9 125.7 10.1L125.6 11.7H125.2L125.4 9H125.9L126.4 10.4C126.5 10.6 126.5 10.8 126.6 11.1C126.7 10.9 126.7 10.6 126.8 10.4L127.3 9H127.8L128 11.7H127.6Z" fill="black"/>
    <path d="M2.59998 7.30001C2.59998 8.80001 3.79998 9.90001 5.19998 9.90001C6.69998 9.90001 7.79998 8.70001 7.79998 7.30001C7.79998 7.00001 7.79998 6.80001 7.69998 6.50001C7.59998 7.00001 7.09998 7.30001 6.59998 7.30001C5.89998 7.30001 5.29998 6.70001 5.29998 6.00001C5.29998 5.50001 5.59998 5.00001 6.09998 4.80001C5.79998 4.70001 5.59998 4.70001 5.29998 4.70001C3.79998 4.70001 2.59998 5.80001 2.59998 7.30001Z" fill="black"/>
    <path d="M10.6 7.30001C10.6 8.80001 11.8 9.90001 13.2 9.90001C14.7 9.90001 15.8 8.70001 15.8 7.30001C15.8 5.80001 14.6 4.70001 13.2 4.70001C12.9 4.70001 12.7 4.70001 12.4 4.80001C12.9 5.00001 13.2 5.50001 13.2 6.00001C13.2 6.70001 12.6 7.30001 11.9 7.30001C11.4 7.30001 10.9 7.00001 10.7 6.50001C10.6 6.80001 10.6 7.00001 10.6 7.30001Z" fill="black"/>
    <path fill-rule="evenodd" clip-rule="evenodd" d="M9.3 0C11 0 12.5 0.5 13.9 1.2C15.2 0.5 16.8 0 18.5 0V27.7C8.3 27.7 0 19.5 0 9.3V0C1.7 0 3.2 0.4 4.6 1.2C6 0.4 7.6 0 9.3 0ZM9.3 7C9.5 5 11.2 3.4 13.3 3.4C15.5 3.4 17.3 5.2 17.2 7.4C17.2 9.6 15.4 11.4 13.2 11.3C12.4 11.3 11.7 11.1 11.1 10.7L9.2 12.5L7.4 10.6C6.8 11 6 11.3 5.3 11.3C3.1 11.3 1.3 9.5 1.4 7.3C1.4 5.1 3.2 3.3 5.4 3.4C7.4 3.4 9.1 4.9 9.3 7Z" fill="black"/>
</svg>
