<svg width="86" height="30" viewBox="0 0 86 30" fill="none" xmlns="http://www.w3.org/2000/svg">
    <g clip-path="url(#clip0)">
        <path d="M42.8 13.6L47.3 8.39999H43.9L39.4 13.9V8.39999H36.5V21.7H39.4V17.4L40.9 15.8L44.5 21.7H47.8L42.8 13.6Z" fill="black"/>
        <path d="M52.8 18.3L50.7 12.1H47.7L51.4 21.7L51.2 22.2C51.1 22.5 51 22.7 50.7 22.8C50.5 22.9 50.2 23 49.9 23C49.5 23 49.1 23 48.8 22.9C48.5 22.8 48.2 22.8 48.1 22.7L47.5 25C47.8 25.1 48.1 25.1 48.5 25.2C49.1 25.3 49.6 25.3 50.2 25.3C50.6 25.3 51.1 25.2 51.5 25.1C51.8 25 52.2 24.8 52.4 24.6C52.7 24.4 52.9 24.1 53.1 23.8C53.3 23.4 53.5 23.1 53.6 22.7L57.6 12.1H54.8L52.8 18.3Z" fill="black"/>
        <path d="M73.4 12.7C73.2 12.4 72.9 12.2 72.5 12.1C71.8 11.8 71 11.8 70.2 12C69.9 12.1 69.6 12.2 69.3 12.4C69 12.6 68.8 12.7 68.6 13C68.4 13.2 68.2 13.4 68.1 13.6C68 13.1 67.7 12.6 67.3 12.3C66.9 12 66.3 11.8 65.5 11.8C65.1 11.8 64.8 11.9 64.4 12C64.1 12.1 63.8 12.2 63.5 12.4C63.2 12.6 63 12.7 62.8 12.9C62.6 13.1 62.4 13.3 62.3 13.5V12H59.4V21.6H62.3V15.1C62.6 14.8 62.9 14.6 63.2 14.4C63.5 14.2 63.8 14.1 64.2 14.1C64.6 14.1 64.9 14.2 65 14.4C65.2 14.7 65.2 15 65.2 15.4V21.5H68.1V15C68.4 14.7 68.7 14.5 69 14.3C69.3 14.1 69.6 14 70 14C70.4 14 70.7 14.1 70.8 14.3C71 14.6 71 14.9 71 15.3V21.4H73.9V14.6C73.9 14.2 73.9 13.8 73.7 13.4C73.8 13.3 73.6 13 73.4 12.7Z" fill="black"/>
        <path d="M85.1 20.8C85.1 20.3 85 19.9 85 19.4V15.7C85 14.5 84.7 13.5 84.1 12.9C83.5 12.3 82.6 11.9 81.3 11.9C80.8 11.9 80.2 11.9 79.7 12C79.3 12.1 78.8 12.2 78.4 12.4C78 12.5 77.7 12.7 77.4 12.9C77.1 13.1 76.8 13.3 76.6 13.5L77.8 15.2C78.2 14.8 78.7 14.6 79.2 14.3C79.7 14.1 80.3 14 80.9 14C81.3 14 81.6 14.1 81.9 14.3C82.1 14.5 82.2 14.8 82.2 15.1V15.3C80.1 15.5 78.5 15.9 77.6 16.5C76.7 17 76.1 18 76.1 19.1C76.1 19.5 76.2 19.9 76.3 20.2C76.4 20.5 76.6 20.8 76.9 21C77.2 21.2 77.5 21.4 77.8 21.5C78.1 21.6 78.5 21.7 78.9 21.7C79.5 21.7 80.2 21.6 80.8 21.3C81.4 21 81.9 20.6 82.3 20.1C82.3 20.4 82.3 20.6 82.4 20.9C82.4 21.1 82.5 21.3 82.6 21.6H85.5C85.2 21.4 85.1 21.1 85.1 20.8ZM82.2 18.8C81.9 19.1 81.6 19.3 81.3 19.4C80.9 19.6 80.4 19.6 80 19.6C79.7 19.6 79.5 19.5 79.2 19.4C79 19.2 78.9 19 78.9 18.7C78.9 18.2 79.2 17.9 79.7 17.6C80.2 17.3 81 17.1 82.2 17V18.8Z" fill="black"/>
        <path d="M28.1 6.90001C27.9 6.20001 27.4 5.50001 26.8 5.20001L16.5 0.200006C15.8 -0.0999939 15 -0.0999939 14.3 0.200006L3.99999 5.20001C3.29999 5.50001 2.79999 6.10001 2.59999 6.90001L0.0999866 18C-0.100013 18.7 0.0999867 19.5 0.599987 20.1L7.69999 29C8.09999 29.7 8.89999 30 9.59999 30H21C21.8 30 22.5 29.7 22.9 29.1L30 20.2C30.5 19.6 30.6 18.8 30.5 18.1L28.1 6.90001ZM29.3 19.5L22.2 28.4C21.9 28.7 21.5 28.9 21.1 28.9H9.59999C9.19999 28.9 8.69999 28.7 8.49999 28.4L1.39999 19.5C1.09999 19.2 0.999987 18.7 1.09999 18.3L3.59999 7.10001C3.69999 6.70001 3.99999 6.30001 4.39999 6.10001L14.7 1.10001C15.1 1.00001 15.6 1.00001 16 1.20001L26.3 6.20001C26.7 6.40001 27 6.70001 27.1 7.20001L29.7 18.3C29.7 18.7 29.6 19.1 29.3 19.5Z" fill="black"/>
        <path d="M9.59999 17.6C11.4 17.6 13.2 17.1 14.7 15.9C14.3 15.6 14 15.2 13.6 14.9C11.9 13.2 9.99999 11.7 6.89999 11.5V17.9C7.29999 17.7 7.79999 17.6 8.29999 17.6H9.59999Z" fill="black"/>
        <path d="M9.59999 18.6H8.19999C7.39999 18.6 6.79999 19.2 6.79999 20V21.7H23.8V11.6C20.7 11.8 19 13.3 17.3 15C15.4 16.8 13.5 18.6 9.59999 18.6Z" fill="black"/>
        <path d="M15 11C13.6 9.60001 12.1 8.20001 9.19998 8.20001V11C10.4 11.4 11.6 12 12.6 12.8C13.5 12.3 14.3 11.7 15 11Z" fill="black"/>
        <path d="M14.2 14.3C14.6 14.7 15 15 15.4 15.4C15.8 15 16.2 14.7 16.6 14.3C17.9 13.1 19.1 11.9 21 11.2V8.70001C18.6 8.80001 17.3 10 16 11.3C15.2 12.1 14.3 12.8 13.3 13.4C13.6 13.7 13.9 14 14.2 14.3Z" fill="black"/>
    </g>
    <defs>
        <clipPath id="clip0">
            <rect width="85.3" height="30" fill="white"/>
        </clipPath>
    </defs>
</svg>
