<svg width="205" height="39" viewBox="0 0 205 39" fill="none" xmlns="http://www.w3.org/2000/svg">
<mask id="mask0" maskUnits="userSpaceOnUse" x="0" y="0" width="39" height="39">
<path d="M0 0H38.4278V38.428H0V0Z" fill="white"/>
</mask>
<g mask="url(#mask0)">
<path fill-rule="evenodd" clip-rule="evenodd" d="M19.2138 37.013C9.38579 37.013 1.41479 29.043 1.41479 19.214C1.41479 9.386 9.38579 1.415 19.2138 1.415C29.0418 1.415 37.0128 9.386 37.0128 19.214C37.0128 29.043 29.0418 37.013 19.2138 37.013ZM19.2138 0C8.60479 0 -0.000213623 8.604 -0.000213623 19.214C-0.000213623 29.824 8.60479 38.428 19.2138 38.428C29.8228 38.428 38.4278 29.824 38.4278 19.214C38.4278 8.604 29.8228 0 19.2138 0Z" fill="black"/>
<path fill-rule="evenodd" clip-rule="evenodd" d="M15.2099 20.8851L16.8409 22.5121L10.3119 29.0581C9.97089 29.4001 9.32489 29.3131 8.87589 28.8651C8.42789 28.4181 8.33889 27.7731 8.67989 27.4311L15.2099 20.8851ZM21.4489 24.9491L17.0089 20.2391C16.6779 19.8881 16.7839 19.2451 17.2449 18.8111C17.7069 18.3751 18.3489 18.3141 18.6859 18.6581L25.2309 25.3681C25.6779 25.8251 25.3099 27.2861 24.4389 27.2791L16.2639 27.2091C15.7919 27.2061 15.4109 26.6851 15.4158 26.0511C15.4209 25.4171 15.8109 24.9021 16.2819 24.9061L21.4489 24.9491ZM24.6369 19.1221H29.4519C30.0719 19.1221 30.5789 19.5311 30.5789 20.0301V20.4821C30.5789 20.9811 30.0719 21.3891 29.4519 21.3891H24.6369H23.9619H23.2759C22.7779 21.3891 22.3689 20.9141 22.3689 20.3351V17.0871L24.6369 14.7291V19.1221ZM14.1449 14.0751C13.6949 14.5011 13.0459 14.5551 12.7029 14.1931L12.3909 13.8641C12.0469 13.5031 12.1339 12.8581 12.5839 12.4321C14.0849 11.0061 15.5589 9.6061 17.0629 8.1791C17.2189 8.0311 17.4229 7.9581 17.6379 7.9571C17.9409 7.9061 18.2429 7.9911 18.4419 8.2111C19.8239 9.7451 21.1959 11.2691 22.5759 12.8011C22.9909 13.2611 23.0269 13.9111 22.6569 14.2451L22.3199 14.5491C21.9489 14.8831 21.3069 14.7791 20.8929 14.3191L17.6419 10.7631L14.1449 14.0751ZM27.1479 14.2201C28.5349 14.2201 29.6609 13.0951 29.6609 11.7081C29.6609 10.3211 28.5349 9.1971 27.1479 9.1971C25.7619 9.1971 24.6369 10.3211 24.6369 11.7081C24.6369 13.0951 25.7619 14.2201 27.1479 14.2201Z" fill="black"/>
</g>
<path d="M61.0723 20.5879C61.0723 22.1204 60.8073 23.4668 60.2773 24.627C59.7474 25.7799 58.9883 26.668 58 27.291C57.0189 27.9069 55.8874 28.2148 54.6055 28.2148C53.3379 28.2148 52.2064 27.9069 51.2109 27.291C50.2227 26.668 49.4564 25.7835 48.9121 24.6377C48.375 23.4919 48.1029 22.1706 48.0957 20.6738V19.793C48.0957 18.2676 48.3643 16.9212 48.9014 15.7539C49.4456 14.5866 50.2083 13.695 51.1895 13.0791C52.1777 12.4561 53.3092 12.1445 54.584 12.1445C55.8587 12.1445 56.9867 12.4525 57.9678 13.0684C58.9561 13.6771 59.7188 14.5579 60.2559 15.7109C60.793 16.8568 61.0651 18.1924 61.0723 19.7178V20.5879ZM58.3545 19.7715C58.3545 18.0384 58.0251 16.71 57.3662 15.7861C56.7145 14.8623 55.7871 14.4004 54.584 14.4004C53.4095 14.4004 52.4893 14.8623 51.8232 15.7861C51.1644 16.7028 50.8278 18.0026 50.8135 19.6855V20.5879C50.8135 22.3066 51.1465 23.6351 51.8125 24.5732C52.4857 25.5114 53.4167 25.9805 54.6055 25.9805C55.8086 25.9805 56.7324 25.5221 57.377 24.6055C58.0286 23.6888 58.3545 22.3496 58.3545 20.5879V19.7715ZM69.5264 21.9736H66.4971V28H63.7793V12.3594H69.2793C71.084 12.3594 72.4769 12.764 73.458 13.5732C74.4391 14.3825 74.9297 15.5534 74.9297 17.0859C74.9297 18.1315 74.6755 19.0088 74.167 19.7178C73.6657 20.4196 72.9639 20.9603 72.0615 21.3398L75.5742 27.8604V28H72.6631L69.5264 21.9736ZM66.4971 19.793H69.29C70.2067 19.793 70.9229 19.5638 71.4385 19.1055C71.9541 18.64 72.2119 18.0062 72.2119 17.2041C72.2119 16.3662 71.972 15.7181 71.4922 15.2598C71.0195 14.8014 70.3105 14.5651 69.3652 14.5508H66.4971V19.793ZM77.5078 28V12.3594H82.127C83.5091 12.3594 84.7337 12.6673 85.8008 13.2832C86.875 13.8991 87.7057 14.7728 88.293 15.9043C88.8802 17.0358 89.1738 18.332 89.1738 19.793V20.5771C89.1738 22.0596 88.8766 23.363 88.2822 24.4873C87.695 25.6117 86.8535 26.4782 85.7578 27.0869C84.6693 27.6956 83.4196 28 82.0088 28H77.5078ZM80.2256 14.5508V25.8301H81.998C83.4232 25.8301 84.5153 25.3861 85.2744 24.498C86.0407 23.6029 86.431 22.321 86.4453 20.6523V19.7822C86.4453 18.085 86.0765 16.7887 85.3389 15.8936C84.6012 14.9984 83.5306 14.5508 82.127 14.5508H80.2256ZM101.022 21.0176H94.5986V25.8301H102.107V28H91.8809V12.3594H102.032V14.5508H94.5986V18.8691H101.022V21.0176ZM110.067 21.9736H107.038V28H104.32V12.3594H109.82C111.625 12.3594 113.018 12.764 113.999 13.5732C114.98 14.3825 115.471 15.5534 115.471 17.0859C115.471 18.1315 115.216 19.0088 114.708 19.7178C114.207 20.4196 113.505 20.9603 112.603 21.3398L116.115 27.8604V28H113.204L110.067 21.9736ZM107.038 19.793H109.831C110.748 19.793 111.464 19.5638 111.979 19.1055C112.495 18.64 112.753 18.0062 112.753 17.2041C112.753 16.3662 112.513 15.7181 112.033 15.2598C111.561 14.8014 110.852 14.5651 109.906 14.5508H107.038V19.793ZM120.938 12.3594L126.052 25.1211L131.165 12.3594H133.84V28H131.777V21.9092L131.971 15.335L126.836 28H125.257L120.133 15.3672L120.337 21.9092V28H118.274V12.3594H120.938ZM141.95 20.2119L146.032 12.3594H148.374L142.981 22.167V28H140.919V22.167L135.526 12.3594H137.89L141.95 20.2119ZM162.156 25.9697C161.59 26.7074 160.806 27.266 159.804 27.6455C158.801 28.0251 157.662 28.2148 156.388 28.2148C155.077 28.2148 153.917 27.9176 152.907 27.3232C151.897 26.7288 151.117 25.8802 150.565 24.7773C150.021 23.6673 149.738 22.3747 149.717 20.8994V19.6748C149.717 17.3115 150.283 15.4674 151.414 14.1426C152.546 12.8105 154.125 12.1445 156.151 12.1445C157.892 12.1445 159.274 12.5742 160.298 13.4336C161.322 14.293 161.938 15.5319 162.146 17.1504H159.481C159.181 15.2669 158.089 14.3252 156.205 14.3252C154.988 14.3252 154.06 14.7656 153.423 15.6465C152.793 16.5202 152.467 17.8057 152.445 19.5029V20.7061C152.445 22.3962 152.8 23.7103 153.509 24.6484C154.225 25.5794 155.217 26.0449 156.484 26.0449C157.874 26.0449 158.862 25.7298 159.449 25.0996V22.0381H156.227V19.9756H162.156V25.9697ZM174.284 21.0176H167.86V25.8301H175.369V28H165.143V12.3594H175.294V14.5508H167.86V18.8691H174.284V21.0176ZM186.337 24.3584H180.278L179.011 28H176.186L182.094 12.3594H184.532L190.451 28H187.615L186.337 24.3584ZM181.041 22.167H185.574L183.308 15.6787L181.041 22.167ZM197.981 21.9736H194.952V28H192.234V12.3594H197.734C199.539 12.3594 200.932 12.764 201.913 13.5732C202.894 14.3825 203.385 15.5534 203.385 17.0859C203.385 18.1315 203.131 19.0088 202.622 19.7178C202.121 20.4196 201.419 20.9603 200.517 21.3398L204.029 27.8604V28H201.118L197.981 21.9736ZM194.952 19.793H197.745C198.662 19.793 199.378 19.5638 199.894 19.1055C200.409 18.64 200.667 18.0062 200.667 17.2041C200.667 16.3662 200.427 15.7181 199.947 15.2598C199.475 14.8014 198.766 14.5651 197.82 14.5508H194.952V19.793Z" fill="black"/>
</svg>
