<svg width="391" height="101" viewBox="0 0 391 101" fill="none" xmlns="http://www.w3.org/2000/svg">
<path d="M136.8 20.9H153.4C166.7 20.9 175.2 27.9 175.2 40C175.2 52.1 166.7 59.1 153.4 59.1H144.4V84.3H136.7L136.8 20.9ZM152.8 51.9C161.5 51.9 167.4 48.1 167.4 40C167.4 31.9 161.5 28.1 152.8 28.1H144.4V51.8H152.8V51.9Z" fill="black"/>
<path d="M209.5 20.9H216.6L241.5 84.2H233.5L226.8 67.1H199.2L192.5 84.2H184.3L209.5 20.9ZM202.1 60H224L213 31.9L202.1 60Z" fill="black"/>
<path d="M308.4 52.6C308.4 70.9 296.6 84.3 276.8 84.3H258.4V20.9H276.8C296.6 20.9 308.4 34.3 308.4 52.6ZM300.2 52.6C300.2 39.1 292 28.2 276.4 28.2H266.2V77.1H276.4C292 77.1 300.2 66.1 300.2 52.6Z" fill="black"/>
<path d="M327.2 20.9H334.9V84.2H327.2V20.9Z" fill="black"/>
<path d="M371.5 55.7C362.7 51.6 354.9 47.5 354.9 37C354.9 29.8 360.8 20.9 372.4 20.9C375.8 20.9 379.1 21.8 382.1 23.3C385.1 24.9 387.7 27.1 389.7 29.8L384.2 34.3C384.2 34.3 380 28 372.4 28C365.7 28 362.2 32.7 362.2 37.1C362.2 43.3 367.4 45.8 375.7 49.6C385 53.9 390.8 57.8 390.8 67.7C390.8 77.6 382.6 84.3 372 84.3C357.6 84.2 352.6 71.5 352.6 71.5L358.7 67.8C358.7 67.8 362.3 77.3 372 77.3C377.8 77.3 383.4 74 383.4 67.7C383.3 61.4 378.3 58.9 371.5 55.7Z" fill="black"/>
<path d="M50.5 33.7L33.8 50.4L50.5 67.1L67.2 50.4L50.5 33.7Z" fill="black"/>
<path fill-rule="evenodd" clip-rule="evenodd" d="M100.5 33.7L92.2 42L100.5 50.3L92.2 58.6L100.6 67L67.2 100.4L58.8001 92L50.5 100.3L42.2001 92L33.9001 100.3L0.400048 67.1L8.70005 58.8L0.300049 50.4L8.60005 42.1L0.300049 33.8L33.7001 0.400024L42 8.70003L50.3001 0.400024L58.6 8.70003L66.9 0.400024L100.5 33.7ZM50.5 17.1L17.1 50.4L50.5 83.8L83.9 50.4L50.5 17.1Z" fill="black"/>
</svg>
