<svg width="109" height="30" viewBox="0 0 109 30" fill="none" xmlns="http://www.w3.org/2000/svg">
    <g clip-path="url(#clip0)">
        <path d="M29.2 14.9V19H27.2V8.79999H31C32.2 8.79999 33.1 9.09999 33.7 9.59999C34.4 10.1 34.7 10.9 34.7 11.8C34.7 12.3 34.6 12.8 34.3 13.2C34 13.6 33.6 13.9 33.1 14.1C33.7 14.3 34.1 14.6 34.4 15C34.7 15.4 34.8 15.9 34.8 16.5V17.2C34.8 17.5 34.8 17.8 34.9 18.1C35 18.4 35.1 18.6 35.3 18.8V18.9H33.2C33 18.8 32.9 18.5 32.8 18.2C32.7 17.9 32.7 17.5 32.7 17.2V16.5C32.7 16 32.6 15.6 32.3 15.3C32 15 31.6 14.9 31.1 14.9H29.2ZM29.2 13.3H31C31.6 13.3 32 13.2 32.3 12.9C32.6 12.7 32.7 12.3 32.7 11.8C32.7 11.3 32.6 11 32.3 10.7C32 10.4 31.6 10.3 31.1 10.3H29.3L29.2 13.3Z" fill="black"/>
        <path d="M40.9 18.9C40.8 18.7 40.8 18.5 40.7 18.4C40.6 18.2 40.6 18 40.6 17.8C40.4 18.2 40.1 18.5 39.8 18.7C39.5 18.9 39 19.1 38.6 19.1C37.8 19.1 37.2 18.9 36.8 18.5C36.4 18.1 36.2 17.5 36.2 16.8C36.2 16.1 36.5 15.5 37.1 15.1C37.7 14.7 38.5 14.5 39.6 14.5H40.7V13.9C40.7 13.5 40.6 13.3 40.4 13.1C40.2 12.9 39.9 12.8 39.6 12.8C39.3 12.8 39 12.9 38.8 13C38.6 13.2 38.5 13.4 38.5 13.7H36.5C36.5 13.1 36.7 12.5 37.3 12C37.9 11.5 38.7 11.3 39.6 11.3C40.5 11.3 41.2 11.5 41.8 12C42.4 12.5 42.6 13.1 42.6 14V17C42.6 17.4 42.6 17.7 42.7 18C42.8 18.3 42.8 18.6 43 18.9H40.9ZM39 17.6C39.4 17.6 39.7 17.5 40 17.3C40.3 17.1 40.5 16.9 40.6 16.7V15.6H39.5C39.1 15.6 38.7 15.7 38.5 15.9C38.3 16.1 38.2 16.4 38.2 16.7C38.2 17 38.3 17.2 38.5 17.3C38.5 17.5 38.7 17.6 39 17.6Z" fill="black"/>
        <path d="M48.2 16.8C48.2 16.6 48.1 16.4 47.9 16.2C47.7 16 47.3 15.9 46.7 15.8C45.8 15.6 45.1 15.3 44.7 15C44.2 14.6 44 14.2 44 13.5C44 12.8 44.3 12.3 44.8 11.8C45.3 11.3 46.1 11.1 47 11.1C48 11.1 48.7 11.3 49.3 11.8C49.9 12.3 50.1 12.8 50.1 13.5H48.1C48.1 13.2 48 13 47.8 12.8C47.6 12.6 47.3 12.5 46.9 12.5C46.6 12.5 46.3 12.6 46.1 12.7C45.9 12.9 45.8 13.1 45.8 13.3C45.8 13.5 45.9 13.7 46.1 13.9C46.3 14 46.7 14.2 47.3 14.3C48.2 14.5 48.9 14.8 49.4 15.1C49.9 15.5 50.1 16 50.1 16.6C50.1 17.3 49.8 17.8 49.2 18.3C48.6 18.7 47.8 18.9 46.9 18.9C45.9 18.9 45.1 18.6 44.5 18.1C43.9 17.6 43.6 17 43.7 16.4H45.6C45.6 16.8 45.7 17.1 46 17.3C46.3 17.5 46.6 17.6 47 17.6C47.4 17.6 47.7 17.5 47.9 17.4C48.1 17.3 48.2 17.1 48.2 16.8Z" fill="black"/>
        <path d="M58.3 15.4C58.3 16.5 58 17.4 57.5 18.1C57 18.8 56.3 19.1 55.3 19.1C54.9 19.1 54.6 19 54.2 18.9C53.9 18.8 53.6 18.5 53.4 18.3V21.9H51.4V11.4H53.3L53.4 12.3C53.6 12 53.9 11.7 54.2 11.5C54.5 11.3 54.9 11.2 55.3 11.2C56.2 11.2 57 11.6 57.5 12.3C58 13 58.3 14 58.3 15.2V15.4ZM56.3 15.2C56.3 14.5 56.2 13.9 55.9 13.5C55.7 13.1 55.3 12.8 54.8 12.8C54.5 12.8 54.2 12.9 54 13C53.8 13.1 53.6 13.3 53.5 13.5V16.8C53.6 17 53.8 17.2 54 17.3C54.2 17.4 54.5 17.5 54.8 17.5C55.3 17.5 55.7 17.3 55.9 16.9C56.1 16.5 56.2 16 56.2 15.3L56.3 15.2Z" fill="black"/>
        <path d="M66.4 15.4C66.4 16.5 66.1 17.4 65.6 18.1C65.1 18.8 64.4 19.1 63.4 19.1C63 19.1 62.6 19 62.2 18.8C61.9 18.6 61.6 18.3 61.4 18L61.3 18.9H59.6V8H61.6V12.1C61.8 11.8 62.1 11.6 62.4 11.4C62.7 11.2 63.1 11.2 63.5 11.2C64.5 11.2 65.2 11.6 65.7 12.3C66.2 13 66.5 14 66.5 15.2V15.4H66.4ZM64.4 15.2C64.4 14.5 64.3 13.9 64.1 13.4C63.9 13 63.5 12.8 63 12.8C62.7 12.8 62.4 12.9 62.2 13C62 13.1 61.8 13.3 61.7 13.6V16.8C61.8 17 62 17.2 62.2 17.3C62.4 17.4 62.7 17.5 63 17.5C63.5 17.5 63.9 17.3 64.1 16.9C64.3 16.5 64.4 16 64.4 15.3V15.2Z" fill="black"/>
        <path d="M71 19.1C69.9 19.1 69 18.8 68.4 18.1C67.7 17.4 67.4 16.5 67.4 15.4V15.1C67.4 14 67.7 13.1 68.3 12.3C68.9 11.6 69.7 11.2 70.8 11.2C71.8 11.2 72.6 11.5 73.2 12.1C73.8 12.7 74 13.5 74 14.6V15.7H69.5C69.5 16.2 69.7 16.6 70 16.9C70.3 17.2 70.7 17.4 71.2 17.4C71.7 17.4 72 17.4 72.3 17.3C72.6 17.2 72.9 17.1 73.3 16.9L73.9 18.2C73.6 18.5 73.2 18.7 72.7 18.8C72.2 19 71.6 19.1 71 19.1ZM70.8 12.8C70.4 12.8 70.1 12.9 69.9 13.2C69.7 13.5 69.5 13.9 69.5 14.3H72V14.1C72 13.7 71.9 13.3 71.7 13.1C71.6 12.9 71.3 12.8 70.8 12.8Z" fill="black"/>
        <path d="M79.2 13.1H78.5C78.2 13.1 77.9 13.2 77.8 13.3C77.6 13.4 77.5 13.6 77.4 13.8V18.9H75.4V11.3H77.3L77.4 12.4C77.6 12 77.8 11.7 78.1 11.5C78.4 11.3 78.7 11.2 79.1 11.2C79.2 11.2 79.3 11.2 79.4 11.2C79.5 11.2 79.6 11.2 79.7 11.3L79.2 13.1Z" fill="black"/>
        <path d="M84.3 13.1H83.6C83.3 13.1 83 13.2 82.9 13.3C82.7 13.4 82.6 13.6 82.5 13.8V18.9H80.5V11.3H82.4L82.5 12.4C82.7 12 82.9 11.7 83.2 11.5C83.5 11.3 83.8 11.2 84.2 11.2C84.3 11.2 84.4 11.2 84.5 11.2C84.6 11.2 84.7 11.2 84.8 11.3L84.3 13.1Z" fill="black"/>
        <path d="M88.2 15.8L88.3 16.2L89.7 11.4H91.9L88.9 20C88.7 20.5 88.4 21 88 21.4C87.6 21.8 87.1 22 86.3 22C86.1 22 86 22 85.8 22C85.7 22 85.5 21.9 85.3 21.9L85.5 20.4C85.6 20.4 85.6 20.4 85.7 20.4C85.8 20.4 85.8 20.4 85.9 20.4C86.2 20.4 86.5 20.3 86.7 20.2C86.9 20 87 19.8 87.1 19.6L87.3 19L84.6 11.5H86.8L88.2 15.8Z" fill="black"/>
        <path d="M98.6 15.2V18.9H96.6V8.79999H100.7C101.9 8.79999 102.8 9.09999 103.5 9.69999C104.2 10.3 104.5 11.1 104.5 12.1C104.5 13.1 104.2 13.9 103.5 14.4C102.8 15 101.9 15.3 100.7 15.3H98.6V15.2ZM98.6 13.7H100.6C101.2 13.7 101.6 13.5 101.9 13.2C102.2 12.9 102.3 12.5 102.3 12C102.3 11.5 102.2 11.1 101.9 10.8C101.6 10.5 101.2 10.3 100.6 10.3H98.6V13.7Z" fill="black"/>
        <path d="M107.9 9.6H105.9V8H107.9V9.6ZM107.9 18.9H105.9V11.3H107.9V18.9Z" fill="black"/>
        <path d="M22.1 13.6L21.9 13.2C21.9 10.5 20.6 9.39999 19.2 8.49999C19.6 8.39999 20.1 8.29999 20.2 7.69999C21 7.49999 21.1 7.19999 21.2 6.79999C21.4 6.69999 22.1 6.29999 22 5.59999C22.4 5.29999 22.6 4.99999 22.5 4.49999C22.9 4.09999 23 3.69999 22.8 3.39999C23.3 2.79999 23.1 2.49999 22.9 2.19999C23.3 1.49999 22.9 0.799987 21.9 0.999987C21.5 0.399987 20.6 0.499987 20.5 0.499987C20.3 0.299987 20.1 0.0999868 19.5 0.199987C19.2 -1.32471e-05 18.7 -1.32471e-05 18.2 0.199987C17.7 -0.200013 17.3 0.0999868 16.9 0.199987C16.3 -1.32471e-05 16.1 0.299987 15.8 0.399987C15.1 0.199987 14.9 0.599987 14.5 0.899987H14.1C13 1.49999 12.5 2.79999 12.3 3.49999C12.1 2.79999 11.6 1.49999 10.5 0.899987L10 0.999987C9.7 0.599987 9.5 0.299987 8.7 0.399987C8.4 0.299987 8.3 -1.3262e-05 7.6 0.299987C7.3 0.199987 7.1 -1.32504e-05 6.8 -1.32504e-05C6.6 -1.32504e-05 6.5 0.0999868 6.3 0.199987C5.8 -1.32471e-05 5.4 -1.3262e-05 5 0.299987C4.3 0.199987 4.1 0.399987 4 0.599987C3.9 0.599987 3 0.499987 2.6 1.09999C1.6 0.999987 1.3 1.69999 1.6 2.29999C1.4 2.59999 1.2 2.89999 1.7 3.49999C1.5 3.89999 1.6 4.19999 2 4.69999C1.9 5.09999 2.1 5.49999 2.5 5.69999C2.4 6.39999 3.1 6.69999 3.3 6.89999C3.3 7.29999 3.5 7.59999 4.3 7.79999C4.4 8.39999 4.9 8.49999 5.3 8.59999C3.8 9.39999 2.6 10.6 2.6 13.3L2.4 13.7C0.700001 14.7 -0.8 18 1.6 20.6C1.8 21.4 2 22 2.2 22.7C2.5 25.3 4.8 26.6 5.4 26.7C6.3 27.4 7.2 28 8.5 28.4C9.7 29.6 11 30.1 12.3 30.1C12.3 30.1 12.3 30.1 12.4 30.1C13.7 30.1 15 29.6 16.2 28.4C17.5 28 18.4 27.3 19.3 26.7C19.9 26.6 22.2 25.3 22.5 22.7C22.7 22 23 21.4 23.1 20.6C25.4 17.9 23.8 14.6 22.1 13.6ZM20.8 13.2C20.7 14.3 15 9.39999 16 9.19999C18.7 8.69999 20.9 10.3 20.8 13.2ZM18.3 18.6C16.9 19.5 14.8 18.9 13.7 17.3C12.6 15.6 12.8 13.5 14.3 12.6C15.7 11.7 17.8 12.3 18.9 13.9C20 15.6 19.8 17.7 18.3 18.6ZM14.3 1.69999C14.3 1.89999 14.4 2.09999 14.5 2.09999C14.8 1.79999 15.1 1.39999 15.5 1.09999C15.5 1.29999 15.4 1.49999 15.6 1.69999C15.8 1.39999 16.1 1.09999 16.5 0.899987C16.3 1.19999 16.5 1.29999 16.6 1.49999C16.9 1.19999 17.2 0.999987 17.7 0.799987C17.5 0.999987 17.3 1.19999 17.6 1.39999C17.9 1.19999 18.2 0.999987 19 0.899987C18.8 1.09999 18.5 1.29999 18.7 1.49999C19.1 1.39999 19.5 1.19999 20 1.19999C19.8 1.39999 19.6 1.59999 19.8 1.69999C20.2 1.59999 20.8 1.39999 21.4 1.49999L21 1.89999C21 1.89999 21.8 1.89999 22.4 1.89999C22.2 2.19999 22 2.49999 21.9 2.99999C22 3.09999 22.2 2.99999 22.5 2.99999C22.2 3.59999 21.7 3.69999 21.6 3.99999C21.8 4.09999 22 4.09999 22.3 3.99999C22.1 4.39999 21.7 4.69999 21.4 4.99999C21.3 4.89999 21.5 4.99999 21.8 4.89999C21.5 5.19999 21.1 5.49999 20.7 5.79999C20.8 5.89999 21 5.89999 21.3 5.89999C20.9 6.29999 20.4 6.49999 19.9 6.69999C20.1 6.89999 20.3 6.79999 20.5 6.79999C20.2 7.09999 19.6 7.19999 19.1 7.39999C19.2 7.59999 19.3 7.59999 19.5 7.59999C18.9 7.99999 18.1 7.79999 17.9 7.99999C18 8.19999 18.1 8.29999 18.3 8.29999C17.4 8.39999 14.9 8.29999 14.5 6.39999C15.4 5.39999 17.1 4.19999 20 2.69999C17.7 3.49999 15.7 4.49999 14 5.79999C12 4.99999 13.4 2.59999 14.3 1.69999ZM12.3 8.39999C13.7 8.39999 15.5 9.39999 15.5 10.4C15.5 11.3 14.3 12 12.3 12C10.4 12 9.1 11.1 9.2 10.3C9.2 9.59999 10.7 8.39999 12.3 8.39999ZM5.1 7.69999C5.3 7.69999 5.4 7.59999 5.5 7.49999C5 7.29999 4.4 7.09999 4.1 6.89999C4.3 6.89999 4.4 6.89999 4.7 6.79999C4.2 6.49999 3.7 6.29999 3.3 5.89999C3.5 5.89999 3.8 5.89999 3.9 5.79999C3.4 5.49999 3.1 5.19999 2.8 4.89999C3.1 4.99999 3.3 4.89999 3.3 4.89999C3 4.59999 2.6 4.29999 2.4 3.89999C2.7 3.99999 2.9 3.99999 3.1 3.89999C3 3.69999 2.5 3.49999 2.2 2.89999C2.5 2.89999 2.8 2.99999 2.8 2.89999C2.7 2.39999 2.5 2.09999 2.3 1.79999C2.9 1.79999 3.7 1.79999 3.7 1.79999L3.3 1.39999C3.9 1.29999 4.4 1.39999 4.9 1.59999C5.1 1.49999 4.9 1.29999 4.7 1.09999C5.2 1.19999 5.6 1.29999 6 1.39999C6.1 1.19999 5.8 0.999987 5.6 0.799987C6.3 0.999987 6.7 1.09999 7 1.29999C7.2 1.09999 7 0.899987 6.9 0.699987C7.4 0.999987 7.7 1.19999 8 1.49999C8.1 1.39999 8.3 1.29999 8.1 0.899987C8.5 1.09999 8.8 1.39999 9 1.69999C9.2 1.49999 9.1 1.29999 9.1 1.09999C9.5 1.39999 9.8 1.79999 10.1 2.09999C10.2 2.09999 10.2 1.99999 10.3 1.69999C11.3 2.59999 12.7 4.99999 10.7 5.89999C9 4.49999 7 3.49999 4.7 2.79999C7.6 4.29999 9.3 5.49999 10.2 6.49999C9.7 8.29999 7.2 8.39999 6.3 8.29999C6.5 8.29999 6.6 8.19999 6.7 7.99999C6.5 7.79999 5.6 7.99999 5.1 7.69999ZM8.6 9.09999C9.6 9.29999 3.9 14.2 3.8 13.1C3.7 10.2 5.9 8.69999 8.6 9.09999ZM2.5 20C1.1 18.9 0.700001 15.7 3.2 14.2C4.8 13.9 3.8 20.6 2.5 20ZM7.9 25.8C7.1 26.3 5.2 26.1 3.9 24.2C3 22.6 3.1 21 3.7 20.5C4.7 19.9 6.1 20.7 7.3 22C8.3 23.1 8.7 25.2 7.9 25.8ZM6.3 18.8C4.9 17.9 4.6 15.8 5.7 14.1C6.8 12.4 8.9 11.8 10.3 12.8C11.7 13.7 12 15.8 10.9 17.5C9.8 19.1 7.8 19.7 6.3 18.8ZM12.3 29.1C10.6 29.2 8.9 27.7 8.9 27.2C8.9 26.5 11 25.9 12.4 25.9C13.8 25.8 15.7 26.3 15.7 27C15.7 27.6 14 29.1 12.3 29.1ZM15.8 21.7C15.8 23.4 14.3 24.9 12.3 24.9C10.4 24.9 8.8 23.5 8.8 21.8C8.8 20.1 10.3 18.6 12.3 18.6C14.2 18.6 15.8 20 15.8 21.7ZM20.6 24.2C19.1 26.2 17.1 26.3 16.4 25.7C15.6 25 16.2 22.7 17.3 21.5C18.5 20.1 19.8 19.2 20.8 19.9C21.3 20.6 21.7 22.9 20.6 24.2ZM22 20C20.7 20.6 19.7 13.8 21.3 14.2C23.8 15.6 23.4 18.9 22 20Z" fill="black"/>
    </g>
    <defs>
        <clipPath id="clip0">
            <rect x="0.300003" width="108" height="30" fill="white"/>
        </clipPath>
    </defs>
</svg>
