<svg width="148" height="28" viewBox="0 0 148 28" fill="none" xmlns="http://www.w3.org/2000/svg">
    <g clip-path="url(#clip0)">
        <path d="M35.5455 4.35927C34.1648 4.35927 33.2428 3.51444 33.2428 2.23513C33.2428 1.17306 33.9862 0.246162 35.5455 0.246162C37.0421 0.246162 37.7807 1.21168 37.7807 2.27375C37.7807 3.5772 36.9359 4.39789 35.5455 4.39789V4.35927ZM22.3034 22.4965C19.3248 22.4965 16.7807 20.8165 16.7807 17.6206C16.7807 13.7586 21.0676 12.9137 22.9407 12.6627C26.0207 12.2765 26.3007 12.0641 26.3007 11.2482C26.3007 9.51996 25.9917 8.1103 23.8241 8.1103C22.3662 8.1103 21.2028 8.5303 20.0876 9.19651L19.5083 9.58271C19.3152 9.72754 18.9772 10.1137 18.591 10.1137C18.3979 10.1137 18.0117 9.91099 18.0117 9.40409V7.82065C18.0117 7.49237 18.1565 7.1834 18.5428 6.96133C19.991 6.25651 22.1634 5.86547 24.0945 5.86547C29.1152 5.86547 30.6117 7.84478 30.6117 10.7172V21.7337C30.6117 21.9751 30.4669 22.1489 30.1772 22.1489H26.9428C26.7979 22.1489 26.6048 21.98 26.6048 21.7337L26.5083 20.8165C25.3979 21.8013 24.0462 22.5062 22.4048 22.5062L22.3034 22.4965ZM26.4117 14.0193C22.5014 14.0193 21.0048 15.7813 21.0048 17.6979C21.0048 19.0303 21.729 20.3869 23.6117 20.3869C25.2531 20.3869 26.46 19.151 26.46 18.6827V14.0193H26.4117ZM78.0669 22.5641C75.5565 22.5641 73.6738 21.6806 72.4186 20.7296C71.8876 20.3434 71.791 19.6675 71.791 19.0882V0.854438C71.791 0.603403 71.9841 0.419955 72.129 0.419955H75.5565C75.7979 0.419955 75.991 0.603403 75.991 0.854438V7.89306C76.6669 7.31375 78.2117 6.08754 80.6255 6.08754C84.2945 6.08754 86.6117 9.27375 86.6117 13.522C86.6117 18.9772 82.8462 22.5979 78.1634 22.5979L78.0669 22.5641ZM75.9427 19.4117C75.9427 19.7496 76.0296 20.0875 76.4255 20.3289C76.7634 20.5703 77.2945 20.7151 78.3565 20.7151C80.611 20.7151 82.209 18.3979 82.209 14.4393C82.209 12.991 81.871 8.79099 78.651 8.79099C77.3476 8.79099 76.4303 9.51513 75.8993 9.90133V19.5565V19.46L75.9427 19.4117ZM119.348 28.0048C118.913 28.0048 118.479 28.0048 117.88 27.86C117.421 27.7634 117.17 27.4737 117.17 27.1358V25.1034C117.17 24.862 117.383 24.6206 117.634 24.6206C118.02 24.6206 118.31 24.7172 118.715 24.8137C119.391 24.9586 120.019 25.0551 120.598 25.0551C122.577 25.0551 124.026 24.0413 124.074 22.062L117.653 7.19306C117.508 6.80685 117.46 6.7103 117.46 6.61375C117.46 6.37237 117.605 6.27582 117.798 6.27582H121.66C121.95 6.27582 122.094 6.37237 122.191 6.66202L126.053 16.8L129.77 6.66202C129.819 6.42065 130.012 6.27582 130.253 6.27582H131.846C131.991 6.27582 132.136 6.42064 132.136 6.61375C132.136 6.75858 132.039 6.85513 131.991 7.04823L125.517 23.7517C124.614 26.0689 122.065 27.9758 119.338 27.9758L119.348 28.0048ZM6.42069 22.6269C4.45103 22.6269 2.40414 22.1924 0.588965 21.3234C0.236552 21.082 0.168965 20.9372 0.168965 20.5993V18.8275C0.168965 18.5041 0.28 18.1855 0.878621 18.1855C1.19724 18.1855 1.40965 18.3544 1.86345 18.6827C3.68345 19.9524 5.41655 20.4689 6.88414 20.4689C9.35586 20.4689 11.0359 18.9724 11.0359 17.1186C11.0552 12.2765 0 13.7586 0 6.61375C0 3.30685 2.54897 0.415128 7.25586 0.415128C9.59724 0.415128 11.7214 0.864093 12.9186 1.33237C13.2421 1.4772 13.3048 1.64133 13.3048 1.96961V4.02133C13.3048 4.33513 13.2083 4.58133 12.8221 4.58133C12.5083 4.58133 12.2572 4.38823 11.8662 4.09858C10.4517 3.08478 9.1 2.4572 7.32827 2.4572C5.34896 2.4572 3.79448 3.51927 3.79448 5.16064C3.79448 9.21582 15.009 8.78133 15.009 15.2986C15.009 20.2227 10.9055 22.54 6.41586 22.54L6.42069 22.6269ZM37.2641 22.0572H33.8365C33.6434 22.0572 33.4503 21.8641 33.4503 21.6227V6.6572C33.4503 6.41582 33.6434 6.22271 33.7883 6.22271H37.1676C37.409 6.22271 37.6021 6.41582 37.6021 6.6572V21.7241C37.6021 21.98 37.409 22.1441 37.1676 22.1441L37.2641 22.0572ZM95.3883 22.482C91.8641 22.482 88.34 21.0337 88.34 17.0269V6.7103C88.34 6.46892 88.4848 6.27582 88.6779 6.27582H92.1055C92.3469 6.27582 92.54 6.46892 92.54 6.7103V17.862C92.54 19.5227 93.6021 20.551 95.3883 20.551C97.5607 20.551 98.2848 19.3248 98.2848 17.0269V6.66202C98.2848 6.42065 98.4296 6.22754 98.6227 6.22754H102.002C102.243 6.22754 102.437 6.42065 102.437 6.66202V16.6069C102.437 21 98.8641 22.4772 95.34 22.4772L95.3883 22.482ZM54.74 22.1779H51.3124C51.1193 22.1779 50.9745 21.9944 50.9745 21.7434V11.1227C50.9745 9.91582 50.7814 8.49651 48.4641 8.49651C47.2572 8.49651 45.809 9.19651 45.1331 9.58271V21.7482C45.1331 21.9896 44.9883 22.1827 44.6986 22.1827H41.3193C41.16 22.1827 40.9814 21.9896 40.9814 21.7482V6.68616C40.9814 6.42547 41.1745 6.25168 41.4448 6.25168H44.8241C45.0655 6.25168 45.2683 6.42547 45.2683 6.68616V7.49237C46.2338 6.84547 48.4062 5.89927 50.3855 5.89927C53.8131 5.89927 55.3096 7.87858 55.3096 10.7751V21.7482C55.3096 21.9896 55.1648 22.1827 54.8752 22.1827L54.74 22.1779ZM63.2752 22.5689C61.5855 22.5689 59.8186 22.1586 58.4476 21.5406C58.0421 21.3331 57.9407 21.0241 57.9407 20.6331V19.2427C57.9407 18.7455 58.1821 18.6006 58.52 18.6006C58.7614 18.6006 59.0028 18.7117 59.1959 18.8903C60.6441 19.9862 62.3338 20.5172 63.6855 20.5172C65.2786 20.5172 66.4372 19.8413 66.4372 18.5379C66.4372 15.4965 57.5545 16.6551 57.5545 11.0262C57.5545 7.57927 60.4993 6.01996 63.8303 6.01996C65.3269 6.01996 66.8717 6.32892 68.32 6.92271C68.7545 7.10133 68.851 7.45375 68.851 7.83996V9.01306C68.851 9.50547 68.6579 9.6503 68.32 9.6503C68.1752 9.6503 67.8855 9.50547 67.6441 9.36064C66.389 8.49168 64.6993 8.00892 63.251 8.00892C61.8028 8.00892 60.6441 8.53996 60.6441 9.69858C60.6441 12.4986 69.72 11.1951 69.72 16.7951C69.72 21.0434 66.6303 22.4917 63.3959 22.4917L63.2752 22.5689ZM109.499 22.0572H106.12C105.951 22.0572 105.782 21.8641 105.782 21.6227V6.6572C105.782 6.41582 105.951 6.22271 106.12 6.22271H109.403C109.668 6.22271 109.837 6.41582 109.837 6.6572L109.91 8.53996C109.929 8.53996 109.934 8.53996 109.939 8.49168C110.614 7.47789 112.208 5.88478 114.163 5.88478C114.631 5.88478 115.032 5.88478 115.708 6.02961C116.19 6.12616 116.432 6.41582 116.432 6.75375V8.97444C116.432 9.21582 116.21 9.4572 115.949 9.4572C115.563 9.4572 115.225 9.31237 114.766 9.16754C114.308 9.07099 113.777 9.02271 113.246 9.02271C111.604 9.02271 109.963 9.6503 109.963 11.9193V21.4779C109.963 21.7193 109.794 21.9124 109.552 21.9124L109.499 22.0572ZM133.932 5.88478C133.111 6.12616 134.752 4.14685 134.487 3.08478C134.197 2.07099 133.024 0.67099 133.859 0.352369C134.68 0.0289206 136.225 0.0337482 136.659 0.593748C137.625 2.44754 136.321 5.49375 133.922 5.85582L133.932 5.88478ZM141.448 22.5448C139.73 22.5448 137.982 22.1296 136.621 21.5117C136.205 21.3186 136.104 21.0048 136.104 20.6137V19.2331C136.104 18.7358 136.321 18.591 136.669 18.591C136.93 18.591 137.152 18.7358 137.345 18.8806C138.779 19.991 140.463 20.522 141.834 20.522H141.854C143.408 20.522 144.606 19.8462 144.606 18.5427C144.606 15.5013 135.674 16.66 135.674 11.06C135.674 7.63237 138.619 6.08754 141.95 6.08754C143.447 6.08754 145.021 6.3772 146.44 7.00478C146.874 7.19789 146.971 7.53582 146.971 7.92202V9.12892C146.971 9.61168 146.763 9.75651 146.392 9.75651C146.232 9.75651 145.943 9.61168 145.735 9.46685C144.48 8.59789 142.771 8.11513 141.352 8.11513C139.903 8.11513 138.745 8.64616 138.745 9.80478C138.745 12.6048 147.772 11.3496 147.772 16.9496C147.772 21.1979 144.683 22.6944 141.439 22.6944" fill="black"/>
    </g>
    <defs>
        <clipPath id="clip0">
            <rect width="147.724" height="28" fill="white"/>
        </clipPath>
    </defs>
</svg>
