<svg xmlns="http://www.w3.org/2000/svg" viewBox="0 0 225.6 125"><g data-name="Layer 1" transform="translate(-43.6,-23.3)"><g><path class="cls-1" d="M155.5 107.6c.2-0.1 .4-0.3 .5-0.6c.5-0.9 .7-1.8 .7-2.8c-0.1-8-0.2-15.2-4.6-17.1c-4.8-2-11.1 3.7-12.7 5.1c-4.1 3.9-6.7 9-7.3 14.6c-0.1 1.2-0.9 11 6.4 18.3c7.4 7.2 18.3 7.1 25.7 4.1c8.2-3.3 12-10.1 13.2-12.3c6.3-11.8 1.9-24 1-26.4c-5.9-15.2-23-24.5-38.9-23.7c-2.6 .1-18.7 1.2-28.6 14.7c-4.5 6.2-6.8 13.7-6.7 21.4c.1 19.1 15.8 34.9 31 41c14.9 6 28.4 3.3 34 2c5.8-1.3 20.2-4.7 30.1-17.8c5-6.3 8-13.9 8.7-21.8c.4-7.1-0.9-14.1-4-20.5c-1.3-2.7-7.3-14.3-20.1-20.1c-12.3-5.5-22.3-1.8-25.7-8c-1.1-2.3-1.2-4.9-0.5-7.3c.1-0.4 0-0.8-0.2-1.1c-0.3-0.3-0.6-0.5-1-0.4h-1.9c-0.6 0-1 .4-1.2 1c-0.8 3-1.3 7.1 .6 10.8c4.6 8.8 17.5 4.3 30.1 13.2c9.8 6.8 16.8 19.7 15.7 32.2c-0.7 6.4-3.2 12.4-7.1 17.4c-8.3 10.7-20.1 13.3-25.9 14.6c-4.8 1.1-15.6 3.4-27.8-1.1c-3.1-1.1-24-9.8-26.5-29.5c-1.5-12.6 7-26.4 20.3-31.1c15.4-5.4 32.3 3.3 38 15.7c.7 1.5 5.8 12.9-0.7 22.1c-4.7 6.9-15.4 11.8-23.3 7.1c-5.9-3.6-8.7-10.6-7-17.3c1.6-6 7.5-10.3 9.6-9.3c2.2 1.1 3.5 7.3 3.6 11.7c0 .5 .4 1 .9 1.3c.5 .3 1.1 .2 1.6-0.1Z"/><path class="cls-2" d="M139.6 55.4l-4.9 1.5c-0.4 .1-0.8 0-1.1-0.2c-0.4-0.2-0.6-0.5-0.7-0.9l-0.1-0.9c-0.8-4.7-2.6-9.2-5.4-13.1c-0.2-0.3-0.2-0.7-0.2-1c.1-0.4 .4-0.7 .7-0.9l1.2-0.8c.6-0.3 1.4-0.2 1.8 .4c.5 .7 1 1.4 1.5 2.1l1.7 2.6c3.7-12.3 14-20.8 24.7-20.9c14.1-0.2 22.9 12.6 25.8 20.8c.5 1.4 .8 2.9 1.1 4.3c0 .4-0.1 .8-0.4 1c-0.2 .2-0.6 .3-1 .2l-3.1-0.8c-0.6-0.2-1.1-0.7-1.3-1.3c-0.5-2-1.2-3.9-2.2-5.7c-3.6-6.4-11.4-13.2-19.6-12.5c-9.1 .8-18 11.2-17.5 24.7c0 .6-0.4 1.2-1 1.4Z"/></g><path class="cls-1" d="M217 127c1.2 2.6 3.1 4.8 5.5 6.5c2.4 1.7 5.2 2.9 8.1 3.5c3.4 .7 6.8 1 10.2 1c2.2-0.1 4.5-0.4 6.7-0.9c2.4-0.6 4.6-1.5 6.7-2.8c2.1-1.3 3.9-3 5.3-5c1.4-2.1 2.1-4.7 2.1-7.3c0-2-0.5-4-1.5-5.7c-1-1.6-2.3-3-3.9-4.1c-1.6-1.1-3.4-2-5.2-2.7c-1.8-0.6-3.7-1.2-5.6-1.7l-17.5-4.3c-2.3-0.5-4.5-1.3-6.7-2.2c-2-0.8-4-2-5.6-3.5c-1.7-1.5-3-3.3-3.9-5.4c-1.1-2.4-1.6-5.1-1.5-7.8c0-2.3 .4-4.5 1.1-6.7c.8-2.7 2.2-5.2 4.1-7.2c2.3-2.5 5.2-4.5 8.3-5.8c3.5-1.6 8-2.4 13.5-2.4c3.8 0 7.5 .5 11.2 1.5c3.3 .9 6.4 2.5 9.2 4.6c5.7 4.4 8.9 11.2 8.7 18.3h-7.5c-0.1-2.8-0.8-5.4-2-7.9c-1.2-2.2-2.8-4.1-4.8-5.5c-2-1.6-4.3-2.8-6.7-3.5c-2.6-0.8-5.3-1.2-8-1.2c-2.5 0-5 .3-7.4 .9c-2.2 .5-4.4 1.3-6.3 2.6c-1.8 1.2-3.3 2.9-4.3 4.8c-1.2 2.3-1.7 4.8-1.7 7.4c0 1.6 .3 3.2 1 4.8c.6 1.3 1.5 2.5 2.6 3.4c1.1 1 2.4 1.8 3.8 2.3c1.4 .6 3 1.1 4.5 1.5l19.2 4.7c2.6 .7 5.3 1.6 7.8 2.7c2.4 1 4.6 2.3 6.5 4c1.9 1.6 3.4 3.5 4.4 5.8c1.1 2.6 1.7 5.4 1.6 8.2c0 1.2-0.1 2.4-0.3 3.5c-0.2 1.6-0.6 3.2-1.3 4.7c-0.8 1.8-1.8 3.5-3 5c-1.4 1.8-3.2 3.4-5.3 4.6c-2.6 1.5-5.4 2.6-8.3 3.3c-3.8 .9-7.8 1.3-11.8 1.2c-4.3 .1-8.7-0.5-12.9-1.6c-3.6-0.9-7.1-2.5-10.1-4.8c-2.8-2.3-5-5.2-6.4-8.5c-1.6-4-2.3-8.2-2-12.5h7.5c-0.2 3.5 .5 7 1.9 10.2Z"/><path class="cls-1" d="M53 127c1.2 2.6 3.1 4.8 5.4 6.5c2.5 1.7 5.3 2.9 8.2 3.5c3.4 .7 6.8 1 10.2 1c2.2-0.1 4.5-0.4 6.7-0.9c2.4-0.6 4.6-1.5 6.7-2.8c2.1-1.3 3.9-3 5.3-5c1.4-2.1 2.1-4.7 2-7.3c0-2-0.5-4-1.5-5.7c-1-1.6-2.3-3-3.9-4.1c-1.6-1.1-3.3-2-5.2-2.7c-1.8-0.6-3.7-1.2-5.6-1.7l-17.5-4.3c-2.2-0.6-4.5-1.3-6.6-2.2c-2.1-0.8-4-2-5.7-3.5c-1.6-1.5-3-3.3-3.9-5.4c-1.1-2.4-1.6-5.1-1.5-7.8c.1-2.3 .4-4.5 1.1-6.7c.8-2.7 2.2-5.2 4.1-7.3c2.4-2.4 5.2-4.4 8.4-5.7c3.5-1.6 8-2.4 13.5-2.4c3.7 0 7.5 .5 11.1 1.5c3.3 .9 6.5 2.5 9.2 4.6c5.7 4.4 8.9 11.2 8.7 18.3h-7.4c-0.1-2.8-0.8-5.4-2-7.9c-1.2-2.2-2.8-4.1-4.8-5.5c-2-1.6-4.3-2.8-6.7-3.5c-2.6-0.8-5.3-1.2-8-1.2c-2.5 0-5 .3-7.5 .9c-2.2 .5-4.3 1.4-6.2 2.6c-1.8 1.2-3.3 2.9-4.4 4.8c-1.1 2.3-1.7 4.8-1.6 7.4c-0.1 1.6 .3 3.2 .9 4.8c.6 1.3 1.5 2.5 2.6 3.4c1.1 1 2.4 1.8 3.8 2.3c1.5 .6 3 1.1 4.6 1.5l19.1 4.7c2.7 .7 5.3 1.6 7.9 2.7c2.3 1 4.5 2.3 6.5 4c1.8 1.6 3.3 3.5 4.4 5.8c1.1 2.5 1.6 5.4 1.6 8.2c-0.1 1.2-0.2 2.4-0.3 3.5c-0.2 1.6-0.7 3.2-1.3 4.7c-0.8 1.8-1.8 3.5-3 5c-1.5 1.8-3.3 3.4-5.3 4.6c-2.6 1.5-5.4 2.6-8.3 3.3c-3.9 .9-7.8 1.3-11.8 1.2c-4.3 .1-8.7-0.5-12.9-1.6c-3.6-0.9-7.1-2.5-10.1-4.9c-2.8-2.2-5-5.1-6.4-8.4c-1.6-4-2.3-8.2-2-12.5h7.5c-0.2 3.5 .5 7 1.9 10.2Z"/></g></svg>