<svg xmlns="http://www.w3.org/2000/svg" viewBox="0 0 588.98 146.31"><defs><style>.cls-1{fill:#1e3e48;}</style></defs><g id="Layer_2" data-name="Layer 2"><g id="Layer_2-2" data-name="Layer 2"><path class="cls-1" d="M49.59,40.48H42.35a15,15,0,0,0-15,15v62.41a64,64,0,0,1,82.52-97.25l2.94-8.94A73.13,73.13,0,1,0,49.59,142.4Z"/><path class="cls-1" d="M116.47,14.24l-3,9.13,0,0L90.28,93.9,71.82,40.48h-22l23.54,68.9H96.57a15,15,0,0,0,14.25-10.27l18.76-56.34a64.06,64.06,0,0,1-75.72,91.48v9.46A73.13,73.13,0,0,0,116.47,14.24Z"/><path class="cls-1" d="M515.14,33.59v77h-15V43.77a10.18,10.18,0,0,1,10.18-10.18Z"/><path class="cls-1" d="M531.52,33.59l20.54,51.69L572.6,33.59H589l-32.54,77h-9l-32.31-77Z"/><path class="cls-1" d="M208.52,46.51v64h-15v-64H176.21V33.59h49.61V46.51Z"/><path class="cls-1" d="M273.37,33.59v77h-15v-77Z"/><path class="cls-1" d="M356.68,46.51H329V63.7h26.54V76.63H329v21h27.69v12.92H314v-77h42.69Z"/><path class="cls-1" d="M416.57,33.59c10.62,0,16,2.77,19.62,5.77,5.88,5,7.61,11.54,7.61,17.3,0,7.5-3,14.08-9,18.12a21.35,21.35,0,0,1-8.42,3.35l24,32.42H431.69L411.15,79.63H409.3v30.92h-15v-77ZM409.3,69h4.27c2.89,0,14.77-.35,14.77-11.65S416.57,45.82,413.8,45.82h-4.5Z"/></g></g></svg>