<svg width="129" height="21" viewBox="0 0 129 21" fill="none" xmlns="http://www.w3.org/2000/svg">
    <g clip-path="url(#clip0)">
        <path d="M16.6 0H13.5V16.5H16.6V8.2C17.2 7.6 17.9 6.9 18.8 6.9C20.2 6.9 20.1 8.4 20.1 9.4V16.6H23.2V8.1C23.2 5.2 21.4 4.4 20.1 4.4C18.8 4.5 17.5 5 16.6 5.9V0ZM29.7 4.4C26.2 4.4 24.5 7.4 24.5 10.6C24.5 13.8 26.2 16.8 29.7 16.8C33.2 16.8 34.9 13.7 34.9 10.6C34.9 7.5 33.2 4.4 29.7 4.4ZM29.7 14.5C28 14.5 27.7 12.1 27.7 10.6C27.7 9.1 28 6.7 29.7 6.7C31.4 6.7 31.7 9.1 31.7 10.6C31.7 12.1 31.5 14.5 29.7 14.5ZM46.1 4.6H43V13C42.4 13.6 41.7 14.3 40.8 14.3C39.4 14.3 39.5 12.8 39.5 11.8V4.6H36.3V13C36.3 15.9 38.1 16.7 39.4 16.7C40.7 16.6 42 16.1 42.9 15.2V16.4H46L46.1 4.6ZM57.5 4.2C56.7 4.2 55.9 4.6 55.4 5.2C54.5 4.7 53.5 4.4 52.5 4.4C49.9 4.4 47.7 5.9 47.7 8.6C47.7 9.8 48.2 11 49.2 11.9C48.3 12.5 47.7 13.1 47.7 14.3C47.7 14.9 48.1 15.5 48.6 15.8C47.9 16.2 47.3 16.7 47.3 17.6C47.3 19.1 48.7 20.6 52.8 20.6C57.5 20.6 58.7 18.7 58.7 17C58.7 14.2 55.6 14.1 53.2 14.1H52.7C51.4 14.1 50.4 14.1 50.4 13.5C50.4 13.1 50.8 12.7 51.3 12.8L52.5 12.9C55.1 12.9 57.3 11.4 57.3 8.7C57.2 8 57 7.3 56.7 6.7C57 6.5 57.2 6.5 57.5 6.4C57.8 6.4 58.2 6.5 58.5 6.7V4.3C58.1 4.2 57.8 4.2 57.5 4.2ZM52.4 10.6C51.2 10.6 50.7 9.7 50.7 8.6C50.7 7.5 51.1 6.4 52.4 6.4C53.6 6.4 54.1 7.3 54.1 8.4C54.1 9.5 53.7 10.6 52.4 10.6ZM52.7 18.4C52 18.4 49.7 18.3 49.7 17.2C49.7 16.9 49.9 16.6 50.2 16.5L53.7 16.7C55.6 16.8 56 16.7 56 17.4C56 18.4 53.3 18.4 52.7 18.4ZM62.9 0H59.8V16.5H62.9V8.2C63.5 7.6 64.2 6.9 65.1 6.9C66.5 6.9 66.4 8.4 66.4 9.4V16.6H69.5V8.1C69.5 5.2 67.7 4.4 66.4 4.4C65.1 4.5 63.8 5 62.9 5.9V0ZM75.3 1.7H72.2V4.7H70.7V7.3H72.2V13.1C72.2 15.7 73.8 16.8 75.8 16.8C76.5 16.8 77.2 16.7 77.8 16.4V14C77.4 14.3 77 14.4 76.5 14.4C75.5 14.4 75.3 13.8 75.3 13.2V7.2H77.7V4.6H75.3V1.7ZM98.5 4.5C95.9 4.5 93.8 6.3 93.8 10.7C93.8 15.1 95.9 16.9 98.5 16.9C101.1 16.9 103.2 15.1 103.2 10.7C103.2 6.3 101.1 4.5 98.5 4.5ZM98.5 15.4C96 15.4 95.5 12.6 95.5 10.6C95.5 8.6 96 5.8 98.5 5.8C101 5.8 101.5 8.6 101.5 10.6C101.5 12.6 101 15.4 98.5 15.4ZM110.1 4.6H109.5C107.8 4.6 106.9 5.9 106.3 7.3V4.8H104.7V16.5H106.4V9.9C107 8.3 108 6.1 110 6.1C110.1 6.1 110.2 6.1 110.4 6.1L110.1 4.6Z" fill="black"/>
        <path d="M124.2 4.5C122.3 4.5 120.6 5.7 120.6 7.7C120.6 11.9 126.8 10.5 126.8 13.5C126.8 14.8 125.7 15.5 124.5 15.5C123.2 15.5 122 14.8 121.5 13.6L120.2 14.4C121.1 16 122.8 16.9 124.6 16.9C126.8 16.9 128.4 15.5 128.4 13.2C128.4 9.3 122.2 10.5 122.2 7.6C122.2 6.4 123.2 5.9 124.3 5.9C125.4 5.9 126.4 6.5 127 7.4L128.2 6.5C127.2 5.2 125.7 4.4 124.2 4.5ZM0.300003 2.8V0H12.2V2.8H7.9V16.5H4.6V2.8H0.300003Z" fill="black"/>
        <path d="M78.1 0H79.8L82.5 13.3L85.5 0H87.1L90 13.3L92.9 0H94.5L90.7 16.5H89L86.3 3L83.3 16.5H81.6L78.1 0ZM111.4 0H113.1V10.2L117.4 4.8H119.2L116 8.8L119.7 16.5H117.9L114.9 10.1L113 12.5V16.5H111.4V0Z" fill="black"/>
    </g>
    <defs>
        <clipPath id="clip0">
            <rect x="0.300003" width="128" height="21" fill="white"/>
        </clipPath>
    </defs>
</svg>
