<svg width="101" height="22" viewBox="0 0 101 22" fill="none" xmlns="http://www.w3.org/2000/svg">
<path d="M9.20039 5.30019C9.10039 5.20019 9.10039 5.2002 9.00039 5.2002C8.90039 5.2002 8.90039 5.2002 8.80039 5.2002C8.20039 5.6002 7.50039 7.50019 6.90039 9.90019H7.50039C8.60039 9.90019 9.70039 9.90019 10.8004 9.90019C10.5004 8.80019 10.2004 7.80019 10.0004 7.10019C9.60039 6.00019 9.30039 5.50019 9.20039 5.30019Z" fill="black"/>
<path d="M10.4 0.600098C4.7 0.600098 0 5.2001 0 11.0001C0 16.8001 4.7 21.4001 10.4 21.4001C16.1 21.4001 20.8 16.8001 20.8 11.0001C20.8 5.2001 16.2 0.600098 10.4 0.600098ZM17.9 11.2001C17.7 11.3001 17.6 11.3001 17.5 11.3001H12.6C12.6 11.5001 12.7 11.6001 12.7 11.9001C13 13.1001 13.7 16.2001 14.5 16.2001C15.1 16.2001 15.4 15.3001 16.1 13.4001C16.2 13.1001 16.3 12.8001 16.5 12.4001V12.3001C16.5 12.2001 16.7 12.1001 16.8 12.2001C16.9 12.2001 17 12.4001 16.9 12.5001V12.6001C16.8 12.8001 16.8 13.1001 16.7 13.5001C16.3 15.1001 15.7 17.6001 14.2 17.6001C13.2 17.6001 12.6 16.0001 12.4 15.3001C11.9 14.0001 11.6 12.7001 11.2 11.4001H6.7L5.8 14.4001C5.7 14.6001 5.4 14.7001 5.1 14.5001C5 14.4001 4.9 14.3001 4.9 14.1001L5 13.8001C5.1 13.0001 5.3 12.2001 5.5 11.4001H3.6C3.2 11.3001 3 11.0001 3 10.7001C3 10.4001 3.2 10.1001 3.6 10.0001C3.7 10.0001 3.7 10.0001 3.8 10.0001H3.9C4.5 10.0001 5.2 10.0001 5.9 10.0001C6.9 5.9001 8.1 3.9001 9.3 3.9001C10.7 3.9001 11.7 7.0001 12.5 10.1001C14.2 10.1001 16 10.2001 17.7 10.3001H17.8H17.9C18.2 10.4001 18.4 10.7001 18.3 11.0001C18.1 11.0001 18 11.1001 17.9 11.2001Z" fill="black"/>
<path d="M26.6004 13.6L25.8004 15.6H23.4004L28.0004 5H30.1004L34.6004 15.7H32.2004L31.4004 13.7H26.6004V13.6ZM29.0004 7.7L27.4004 11.6H30.5004L29.0004 7.7Z" fill="black"/>
<path d="M48.1998 11.6V15.7H45.9998V11.8C45.9998 10.6 45.3998 10 44.3998 10C43.8998 10 43.3998 10.2 42.9998 10.8C42.9998 11.1 43.0998 11.3 43.0998 11.6V15.7H40.8998V11.8C40.8998 10.6 40.2998 10 39.2998 10C38.8998 10 38.3998 10.3 37.9998 10.8V15.7H35.7998V8.2H37.9998V8.7C38.4998 8.3 38.9998 8 39.7998 8C40.7998 8 41.5998 8.4 42.1998 9.1C42.9998 8.4 43.6998 8 44.8998 8C46.6998 8 48.1998 9.4 48.1998 11.6Z" fill="black"/>
<path d="M57.7002 11.9C57.7002 14.1 56.0002 15.8 54.0002 15.8C53.2002 15.8 52.5002 15.6 51.9002 15.2V19.2H49.7002V8.2H51.9002V8.6C52.5002 8.2 53.2002 8 54.0002 8C56.0002 8 57.7002 9.7 57.7002 11.9ZM55.5002 11.9C55.5002 10.8 54.7002 9.8 53.6002 9.8C53.0002 9.8 52.3002 10 51.8002 10.7V13.1C52.3002 13.7 52.9002 14 53.6002 14C54.7002 14 55.5002 13 55.5002 11.9Z" fill="black"/>
<path d="M61.1004 15.6001H58.9004V4.6001H61.1004V15.6001Z" fill="black"/>
<path d="M63 5.60029C63 4.90029 63.6 4.30029 64.3 4.30029C65 4.30029 65.6 4.80029 65.6 5.60029C65.6 6.30029 65 6.80029 64.3 6.80029C63.6 6.80029 63 6.30029 63 5.60029ZM65.4 8.20029V15.7003H63.2V8.20029H65.4V8.20029Z" fill="black"/>
<path d="M73.3002 15.5C72.4002 15.8 72.0002 15.8 71.3002 15.8C69.5002 15.8 68.3002 14.5 68.3002 12.6V10H66.7002V8.2H68.3002V5.5H70.5002V8.2H73.2002V10H70.5002V12.6C70.5002 13.4 71.0002 13.8 71.8002 13.8C72.2002 13.8 72.6002 13.7 73.1002 13.6L73.3002 15.5Z" fill="black"/>
<path d="M82.0004 15.6002H79.8004V15.1002C79.2004 15.6002 78.5004 15.9002 77.7004 15.9002C75.7004 15.9002 74.4004 14.5002 74.4004 12.3002V8.2002H76.6004V12.1002C76.6004 13.3002 77.2004 13.9002 78.2004 13.9002C78.7004 13.9002 79.3004 13.6002 79.8004 13.0002V8.2002H82.0004V15.6002Z" fill="black"/>
<path d="M91.2002 15.6001H89.0002V15.2001C88.4002 15.6001 87.7002 15.8001 86.9002 15.8001C84.8002 15.8001 83.2002 14.1001 83.2002 11.9001C83.2002 9.7001 84.9002 8.0001 86.9002 8.0001C87.7002 8.0001 88.4002 8.2001 89.0002 8.6001V4.6001H91.2002V15.6001ZM89.0002 13.1001V10.7001C88.5002 10.1001 87.9002 9.8001 87.2002 9.8001C86.1002 9.8001 85.3002 10.8001 85.3002 11.8001C85.3002 12.9001 86.1002 13.9001 87.2002 13.9001C87.9002 14.0001 88.5002 13.8001 89.0002 13.1001Z" fill="black"/>
<path d="M100 12.4999H94.5004C94.7004 13.3999 95.2004 14.0999 96.4004 14.0999C97.0004 14.0999 97.4004 13.8999 97.7004 13.4999H100C99.6004 14.8999 98.2004 15.8999 96.4004 15.8999C94.0004 15.8999 92.4004 14.1999 92.4004 11.8999C92.4004 9.5999 94.0004 7.8999 96.4004 7.8999C98.5004 7.8999 100.1 9.3999 100.1 11.6999C100 11.9999 100 12.1999 100 12.4999ZM94.5004 11.1999H97.9004C97.8004 10.2999 97.2004 9.7999 96.3004 9.7999C95.2004 9.6999 94.7004 10.3999 94.5004 11.1999Z" fill="black"/>
</svg>
