<svg xmlns="http://www.w3.org/2000/svg" fill="none" viewBox="0 0 220 30" height="30" width="220">
<path fill="black" d="M198.534 11.7519V6.66294H197.061C195.14 6.66294 193.752 7.21487 192.614 8.53176L191.746 6.7403H188.022V22.8862H193.581V14.6747C193.581 12.6159 194.406 11.7519 196.375 11.7519H198.534Z"></path>
<path fill="black" d="M173.469 16.1327H185.456C185.529 15.6334 185.571 15.1463 185.571 14.6595C185.571 9.924 181.968 6.21126 176.765 6.21126C171.698 6.21126 167.995 9.85066 167.995 14.7996C167.995 19.7328 171.728 23.4148 176.765 23.4148C180.815 23.4148 184.082 21.1123 185.218 17.4274H179.684C179.149 18.3734 178.064 18.9424 176.765 18.9424C175.009 18.9424 173.832 17.9853 173.469 16.1327ZM180.094 13.0526H173.567C174.017 11.4492 175.143 10.5683 176.765 10.5683C178.442 10.5683 179.605 11.439 180.094 13.0526Z" clip-rule="evenodd" fill-rule="evenodd"></path>
<path fill="black" d="M165.652 21.0921V6.7403H161.892L161.186 8.09473C159.818 6.92481 158.048 6.22332 156.094 6.22332C151.466 6.22332 148.025 9.73953 148.025 14.3428C148.025 19.0152 151.466 22.4596 156.094 22.4596C157.653 22.4596 159.093 22.017 160.307 21.2469V21.7279C160.307 23.6483 158.809 24.8328 156.946 24.8328C155.595 24.8328 154.218 24.2517 153.832 23.1721H148.466C149.21 26.9987 152.417 29.3082 156.997 29.3082C162.33 29.3082 165.652 26.1647 165.652 21.0921ZM157.017 10.8241C159.019 10.8241 160.452 12.3043 160.452 14.3428C160.452 16.4006 159.014 17.8802 157.016 17.8802C155.003 17.8802 153.571 16.4006 153.571 14.3428C153.571 12.3043 155.02 10.8241 157.017 10.8241Z" clip-rule="evenodd" fill-rule="evenodd"></path>
<path fill="black" d="M134.446 8.405C135.647 7.06519 137.44 6.26328 139.527 6.26328C143.277 6.26328 145.74 8.92744 145.74 13.0405V22.8862H140.179V13.8087C140.179 11.9302 139.473 10.9978 138.073 10.9978C136.339 10.9978 135.342 12.2087 135.342 14.2635V22.8862H129.781V6.7403H133.681L134.446 8.405Z"></path>
<path fill="black" d="M126.362 6.73931H120.801V22.8852H126.362V6.73931Z"></path>
<path fill="black" d="M126.319 0H120.844V4.72048H126.319V0Z"></path>
<path fill="black" d="M112.764 8.53176C113.902 7.21487 115.289 6.66294 117.211 6.66294H118.684V11.7519H116.526C114.557 11.7519 113.732 12.6159 113.732 14.6747V22.8862H108.17V6.7403H111.897L112.764 8.53176Z"></path>
<path fill="black" d="M97.344 23.432C102.28 23.432 105.809 19.843 105.809 14.8127C105.809 9.78207 102.28 6.21071 97.344 6.21073C95.4256 6.21073 93.7166 6.87482 92.3884 8.02297L91.6923 6.7403H87.9113V28.7157H93.4084V22.3596C94.5475 23.0479 95.8846 23.432 97.344 23.432ZM96.6003 11.1176C98.6831 11.1176 100.214 12.6917 100.214 14.8117C100.214 16.9332 98.6699 18.5078 96.6003 18.5078C94.5171 18.5078 92.9858 16.9332 92.9858 14.8117C92.9858 12.6917 94.5171 11.1176 96.6003 11.1176Z" clip-rule="evenodd" fill-rule="evenodd"></path>
<path fill="black" d="M85.54 17.8327C85.54 21.2065 82.693 23.4148 78.4016 23.4148C74.0021 23.4148 71.3277 21.0912 71.2772 17.5922H76.6299C76.6299 18.7727 77.4515 19.3164 78.5067 19.3164C79.3192 19.3164 80.0905 18.902 80.0905 18.0672C80.0905 17.1363 78.8686 16.8705 77.3172 16.6138C74.8135 16.2075 71.4955 15.452 71.4955 11.536C71.4955 8.30029 74.2528 6.21071 78.3895 6.21071C82.5008 6.21071 85.1661 8.39781 85.2288 11.6695H80.0217C80.0217 10.6385 79.3284 10.1589 78.3208 10.1589C77.4292 10.1589 76.8298 10.6007 76.8298 11.3486C76.8298 12.2627 78.0527 12.4799 79.5762 12.7504L79.5991 12.7545C79.6425 12.7622 79.6862 12.7699 79.73 12.7777C82.2637 13.2268 85.54 13.8076 85.54 17.8327Z"></path>
<path fill="black" d="M62.5348 22.8862H56.9738V0.910076H62.5348V22.8862Z"></path>
<path fill="black" d="M42.4208 16.1327H54.4096C54.4815 15.6334 54.524 15.1463 54.5239 14.6595C54.5239 9.924 50.9207 6.21126 45.7167 6.21126C40.65 6.21126 36.9479 9.85066 36.9479 14.7996C36.9479 19.7328 40.6795 23.4148 45.7167 23.4148C49.7675 23.4148 53.033 21.1123 54.1701 17.4274H48.6356C48.101 18.3734 47.0166 18.9424 45.7167 18.9424C43.9611 18.9424 42.7847 17.9853 42.4208 16.1327ZM49.0458 13.0526H42.5188C42.9686 11.4492 44.0957 10.5683 45.7167 10.5683C47.3944 10.5683 48.5579 11.439 49.0458 13.0526Z" clip-rule="evenodd" fill-rule="evenodd"></path>
<path fill="black" d="M31.9571 14.363L37.322 22.8862H31.1082L28.454 18.1036L25.7463 22.8862H19.6054L24.9601 14.509L19.9976 6.7403H26.1365L28.4682 10.8059L30.908 6.7403H36.9602L31.9571 14.363Z"></path>
<path fill="black" d="M18.1116 22.868V6.72267H13.9668L13.3987 7.97136C12.0656 6.87165 10.3667 6.23591 8.46546 6.23591C3.52824 6.23591 0 9.79506 0 14.795C0 19.8126 3.52824 23.4148 8.46546 23.4148C10.3403 23.4148 12.014 22.7972 13.3371 21.7259L13.8131 22.868H18.1116ZM9.20837 11.1389C11.2915 11.1389 12.8227 12.7131 12.8227 14.8082C12.8227 16.917 11.2915 18.4906 9.20837 18.4906C7.12639 18.4906 5.59521 16.917 5.59521 14.8082C5.59521 12.7131 7.11321 11.1389 9.20837 11.1389Z" clip-rule="evenodd" fill-rule="evenodd"></path>
<path fill="black" d="M220 22.866H201.779V18.7747H220V22.866Z"></path>
</svg>
