<svg xmlns="http://www.w3.org/2000/svg" fill="none" viewBox="0 0 152 20" height="20" width="152">
<path fill="black" d="M11.2319 0H4.92015L0.539917 19.6958L8.95056 19.6198L9.63497 19.5437L11.2319 19.2395L12.8289 18.7072L13.8935 18.0989L14.5779 17.4905L15.4144 16.5779L15.9468 15.6654L16.2509 14.8289L16.4791 13.5361V12.3954L16.403 11.8631L15.7947 10.6464L15.2623 10.1141L14.8061 9.5057L15.7947 8.89734L16.5551 8.13688L17.2395 7.30038L17.4677 6.84411L17.7719 5.93156L17.9239 4.79087L17.8479 3.11787L17.7719 2.81369L17.2395 1.74905L16.6312 1.14068L15.6426 0.608365L14.4258 0.228137L13.057 0.0760456L11.2319 0ZM9.02661 11.711H8.3422L7.73383 11.7871L7.58174 11.9392L6.97338 15.1331L7.3536 15.2091H8.49429L9.48288 15.1331L9.71102 15.057L10.2433 14.7529L10.6996 14.0684L10.9277 13.1559L10.8517 12.5475L10.6236 12.1673L10.1673 11.8631L9.02661 11.711ZM9.1787 4.48669H11.0798L11.9163 4.56274L12.2205 4.86692L12.3726 5.32319L12.2966 6.31179L11.9924 7.07224L11.6122 7.52852L11.2319 7.8327L10.8517 7.90875H8.5095L9.10265 4.56274L9.1787 4.48669ZM62.1065 0.0760456L60.6616 0L59.5969 0.0760456L58.1521 0.304182L56.5551 0.836502L55.6426 1.36882L54.5779 2.20532L53.6654 3.26996L53.057 4.3346L52.5247 5.55133L52.2205 6.76806V9.5057L52.2966 9.80989L52.6007 10.3422L53.1331 10.8745L53.8175 11.3308L55.4144 12.0152L57.6958 12.9278L58.076 13.384L58 13.9924L57.6198 14.6008L57.0114 14.981L56.327 15.1331H54.8821L54.0456 15.057L52.4487 14.7529L51.2319 14.4487L50.8517 14.5247L50.4715 15.5894L49.4068 18.327L49.2547 19.0875L49.7871 19.3156L51.7642 19.6958L54.4258 20H56.0989L57.3916 19.8479L58.8365 19.5437L59.8251 19.1635L60.8897 18.5551L61.6502 17.9468L62.5627 16.9582L63.019 16.1217L63.5513 14.6768L63.9315 12.5475V11.8631L63.7795 11.0266L63.4753 10.2662L62.943 9.5057L62.1825 8.82129L60.8137 8.21293L58.9125 7.52852L58.1521 7.14829L57.7719 6.53992L57.8479 5.93156L58.1521 5.55133L58.7604 5.1711L59.4449 4.94297H61.7262L62.3346 5.01901L64.3878 5.47529L65.0722 3.65019L65.8327 1.36882L65.9848 0.608365L62.1065 0.0760456ZM93.7414 0H83.3992L83.1711 0.152091L82.8669 1.44487L82.1825 4.56274L81.346 8.06084L80.5855 11.3308L79.5969 15.5133L78.8365 18.7072L78.7604 19.6958H85.0722L91.4601 19.6198L91.9163 17.6426L92.4487 15.3612L92.3726 15.1331L85.6046 15.057L85.7566 14.2205L86.1369 12.3954L92.6768 12.3194L92.7528 12.1673L93.3612 8.89734L93.5133 7.90875H87.2015L87.2776 7.68061L87.6578 5.62738L87.8099 5.09506L94.5019 5.01901L94.654 4.63878L95.5665 0.684411L95.6426 0.0760456L93.7414 0ZM67.6578 0.608365H81.346L81.1939 1.36882L80.3574 4.86692L80.2053 5.09506H76.327L75.8707 6.92015L75.3384 9.27757L74.8821 11.1027L73.8175 15.5894L73.057 18.9354L72.8289 19.6198L72.0684 19.6958L67.2015 19.6198L67.5057 18.0989L68.4182 14.3726L69.3308 10.4183L70.3954 5.70342L70.5475 5.01901L68.038 5.09506H66.8213L66.7452 4.94297L67.5817 0.760456L67.6578 0.608365ZM118.152 0H147.278L151.08 0.0760456L150.928 0.456274L150.395 1.21673L149.711 2.12928L148.875 3.11787L147.962 4.3346L146.973 5.62738L145.909 6.92015L145.224 7.8327L144.388 8.89734L143.779 9.73384L143.703 10.1141L144.312 11.3308L145.148 12.9278L146.061 14.9049L147.125 17.1103L147.734 18.327L148.114 19.3916V19.6198L138.684 19.6958H113.741L113.817 18.7833L114.654 15.057L116.327 7.8327L116.631 6.31179L117.468 2.88973L118.076 0.0760456L118.152 0ZM126.669 0.608365L126.821 0.836502L127.125 2.05323L127.658 3.87833L128.342 6.08365L128.875 7.60456H130.015L130.928 7.52852H136.023L136.175 7.60456L136.023 7.90875L134.806 8.6692L133.437 9.65779L132.373 10.4183L131.004 11.4829L130.395 11.9392L130.243 12.2433L131.992 17.5665L132.525 19.0114L132.449 19.1635L131.156 18.2509L130.091 17.4905L128.875 16.5779L126.745 15.057L126.441 14.981L124.996 15.9696L123.703 16.9582L122.639 17.7186L121.422 18.6312L120.89 19.2395L120.586 19.3156L120.662 18.7072L122.03 14.5247L122.715 12.4715L122.639 12.0913L121.27 11.0266L119.977 10.1141L118.532 9.04943L117.392 8.28897L116.631 7.8327V7.68061L116.783 7.60456H124.236L125.605 3.26996L126.213 1.52091L126.669 0.608365ZM46.289 0.0760456H43.8555L41.9544 0.380228L40.9658 0.684411L39.9772 1.14068L38.9886 1.74905L38.3802 2.28137L38 2.6616L37.3156 3.42205L36.6312 4.56274L36.0989 6.0076L35.4144 8.74525L34.654 11.8631L34.1217 14.4487V15.8175L34.2738 16.73L34.5779 17.4905L35.2623 18.403L36.0228 19.0114L36.9354 19.4677L38 19.7719L39.673 20H41.1179L42.943 19.7719L44.1597 19.4677L45.3004 19.0114L46.2129 18.4791L47.2776 17.6426L47.8859 16.9582L48.5703 16.0456L49.2547 14.5247L49.8631 12.3194L50.7757 8.44106L51.384 5.70342V3.95437L51.308 3.42205L50.9277 2.50951L50.3954 1.74905L49.7871 1.21673L49.0266 0.760456L48.1901 0.456274L46.289 0.0760456ZM44.3878 4.3346H43.7034L43.3232 4.41065L42.8669 4.63878L42.2585 5.1711L41.8023 6.08365L41.27 8.21293L40.4334 11.635L40.0532 13.4601V14.6768L40.2814 15.1331L40.6616 15.5133L41.27 15.7414L41.9544 15.6654L42.5627 15.3612L43.2471 14.6008L43.6274 13.9163L44.0836 12.5475L45.1483 7.98479L45.5285 6.08365V5.47529L45.4525 5.24715L44.9962 4.63878L44.3878 4.3346ZM27.0494 0.0760456H29.4829L30.8517 0.304182L32.0684 0.684411L32.981 1.14068L33.7414 1.8251L34.1977 2.58555L34.5779 3.57414L34.654 4.10646V5.1711L34.2738 7.22433L33.5893 10.3422L33.1331 12.1673L32.7528 13.8403L32.2966 15.1331L31.5361 16.5019L30.6996 17.4905L29.9392 18.1749L28.7985 18.8593L27.8099 19.3156L26.8973 19.6198L25.0722 19.924L24.3118 20H23.019L21.1939 19.7719L19.9772 19.3916L19.1407 18.9354L18.3042 18.1749L17.7719 17.3384L17.4677 16.2738L17.3156 15.5133V14.981L17.6958 13.0798L18.3802 9.96198L19.2928 6.1597L19.9011 4.48669L20.5855 3.42205L21.1939 2.6616L21.7262 2.12928L22.8669 1.29278L24.1597 0.684411L25.5285 0.304182L27.0494 0.0760456ZM27.2015 4.3346L27.962 4.48669L28.3422 4.79087L28.6464 5.32319V6.53992L27.962 9.88593L27.2015 12.9278L26.7452 14.0684L26.289 14.9049L25.6046 15.4373L25.0722 15.6654L24.3878 15.7414L23.8555 15.5133L23.5513 15.2091L23.3232 14.7529V13.4601L23.7795 11.3308L24.9201 6.53992L25.3004 5.62738L25.7566 5.01901L26.289 4.56274L26.6692 4.41065L27.2015 4.3346ZM102.791 0H97.8479L97.6958 0.0760456L97.3916 1.21673L96.6312 4.56274L95.8707 7.68061L94.73 12.6236L93.3612 18.2509L93.1331 19.6198L93.7414 19.6958H98.3042L98.7604 19.6198L98.9125 18.9354L99.2167 17.7186L99.8251 14.981L100.129 13.9924L100.738 13.7643L101.27 13.8403L101.878 17.2624L102.335 19.6198L102.639 19.6958H107.582L108.266 19.6198L108.19 18.9354L107.658 16.654L106.973 13.7643L106.897 13.0038L107.582 12.5475L108.494 11.711L109.179 10.9506L109.787 10.1141L110.395 8.59316L110.928 6.46388L111.08 5.39924V4.18251L110.928 3.42205L110.624 2.6616L110.167 1.97719L109.407 1.29278L108.57 0.836502L107.582 0.532319L104.92 0.152091L102.791 0ZM104.008 5.01901H102.563L102.335 5.09506L102.106 5.70342L101.346 9.20152L101.27 10.1141L101.346 10.1901H102.182L103.095 10.038L103.627 9.80989L104.236 9.35361L104.692 8.59316L104.92 7.8327L105.224 6.1597L105.148 5.55133L104.692 5.1711L104.008 5.01901Z" clip-rule="evenodd" fill-rule="evenodd"></path>
</svg>
