<svg xmlns="http://www.w3.org/2000/svg" fill="none" viewBox="0 0 92 48" height="48" width="92">
<path fill="black" d="M23.8313 0C24.9229 0 25.8133 0.885396 25.8133 1.9757V22.9887C25.8133 24.0853 24.9229 24.9707 23.8313 24.9707C22.7385 24.9707 21.848 24.0853 21.848 22.9887V1.9757C21.848 0.885396 22.7385 0 23.8313 0Z"></path>
<path fill="black" d="M14.9237 9.43513C14.9237 8.34483 14.0333 7.45817 12.9417 7.45817C11.8489 7.45817 10.9584 8.34483 10.9584 9.43513V19.0417C10.9584 20.1383 11.8489 21.0224 12.9417 21.0224C14.0333 21.0224 14.9237 20.1383 14.9237 19.0417V9.43513Z"></path>
<path fill="black" d="M2.05223 12.9129C3.14379 12.9129 4.03425 13.797 4.03425 14.8873V19.0411C4.03425 20.1377 3.14379 21.0231 2.05223 21.0231C0.96066 21.0231 0.0689392 20.1377 0.0689392 19.0411V14.8873C0.0689392 13.797 0.96066 12.9129 2.05223 12.9129Z"></path>
<path fill="black" d="M44.9628 35.4906C44.9033 35.4717 43.2223 35.0075 41.8411 35.0075C40.2411 35.0075 39.3708 35.5438 39.3708 36.3039C39.3708 37.2363 40.4693 37.5816 41.1353 37.7909L41.2011 37.8116L42.3028 38.162C44.8945 38.9867 46.0758 40.7613 46.0758 42.6889C46.0758 46.6643 42.5798 48 39.5239 48C37.4002 48 35.4106 47.6092 35.2145 47.5674V43.9259C35.2493 43.9347 35.2969 43.9474 35.3563 43.9633C35.8978 44.1083 37.4132 44.5141 38.9851 44.5141C40.9721 44.5141 41.8854 43.9335 41.8854 43.0367C41.8854 42.2348 41.0948 41.7719 40.1045 41.4607C39.9602 41.4124 39.7727 41.3524 39.5922 41.2946L39.5886 41.2934C39.4683 41.2549 39.3507 41.2172 39.2519 41.185C37.0283 40.4817 35.1741 39.1752 35.1741 36.5556C35.1741 33.5959 37.3901 31.6088 41.0708 31.6088C43.0149 31.6088 44.8439 32.0806 44.9628 32.1122V35.4906Z"></path>
<path fill="black" d="M74.5794 47.9989C79.4466 47.9989 82.9414 44.3308 82.9414 39.8039C82.9414 35.2846 79.4466 31.6127 74.5794 31.6127C69.7123 31.6127 66.2225 35.2846 66.2225 39.8039C66.2225 44.3308 69.7123 47.9989 74.5794 47.9989ZM70.451 39.8039C70.451 37.5069 72.2104 35.6425 74.5794 35.6425C76.946 35.6425 78.7104 37.5069 78.7104 39.8039C78.7104 42.1059 76.946 43.969 74.5794 43.969C72.2104 43.969 70.451 42.1059 70.451 39.8039Z" clip-rule="evenodd" fill-rule="evenodd"></path>
<path fill="black" d="M20.3364 36.4281C20.3271 36.4233 20.3142 36.4163 20.2976 36.4073C20.026 36.2596 18.7821 35.5832 16.982 35.5832C14.3953 35.5832 12.6056 37.3806 12.6056 39.804C12.6056 42.1554 14.3207 44.0286 16.982 44.0286C18.8206 44.0286 20.1107 43.3138 20.3244 43.1954L20.3364 43.1888V47.4361L20.2417 47.4632C19.6816 47.624 18.3752 47.999 16.6948 47.999C12.2059 47.999 8.2684 44.9026 8.2684 39.804C8.2684 35.0785 11.8353 31.6128 16.6948 31.6128C18.4597 31.6128 19.7896 32.0154 20.2564 32.1567C20.2867 32.1659 20.3134 32.174 20.3364 32.1808V36.4281Z"></path>
<path fill="black" d="M61.9794 36.4077L62.0051 36.4216L62.0174 36.4281V32.1808C61.9944 32.174 61.9677 32.1659 61.9374 32.1567C61.4706 32.0154 60.1407 31.6128 58.3759 31.6128C53.5163 31.6128 49.9494 35.0785 49.9494 39.804C49.9494 44.9026 53.8869 47.999 58.3759 47.999C60.0562 47.999 61.3626 47.624 61.9228 47.4632L62.0174 47.4361V43.1888L62.0054 43.1954C61.7917 43.3138 60.5016 44.0286 58.663 44.0286C56.0017 44.0286 54.2866 42.1554 54.2866 39.804C54.2866 37.3806 56.0764 35.5832 58.663 35.5832C60.4631 35.5832 61.7078 36.26 61.9794 36.4077Z"></path>
<path fill="black" d="M25.8265 31.8936H29.8196V47.7182H25.8265V31.8936Z"></path>
<path fill="black" d="M36.703 9.43513C36.703 8.34483 35.8126 7.45817 34.721 7.45817C33.6282 7.45817 32.7377 8.34483 32.7377 9.43513V19.0417C32.7377 20.1383 33.6282 21.0224 34.721 21.0224C35.8126 21.0224 36.703 20.1383 36.703 19.0417V9.43513Z"></path>
<path fill="black" d="M45.6096 12.9129C46.6961 12.9129 47.5802 13.797 47.5802 14.8873V19.0411C47.5802 20.1377 46.6961 21.0231 45.6096 21.0231C44.518 21.0231 43.6276 20.1377 43.6276 19.0411V14.8873C43.6276 13.797 44.518 12.9129 45.6096 12.9129Z"></path>
<path fill="black" d="M58.4748 9.43513C58.4748 8.34483 57.5843 7.45817 56.4927 7.45817C55.3999 7.45817 54.5094 8.34483 54.5094 9.43513V19.0417C54.5094 20.1383 55.3999 21.0224 56.4927 21.0224C57.5843 21.0224 58.4748 20.1383 58.4748 19.0417V9.43513Z"></path>
<path fill="black" d="M67.3823 0C68.4739 0 69.3643 0.885396 69.3643 1.9757V22.9887C69.3643 24.0853 68.4739 24.9707 67.3823 24.9707C66.2895 24.9707 65.399 24.0853 65.399 22.9887V1.9757C65.399 0.885396 66.2895 0 67.3823 0Z"></path>
<path fill="black" d="M80.254 9.43513C80.254 8.34483 79.3636 7.45817 78.272 7.45817C77.1792 7.45817 76.2887 8.34483 76.2887 9.43513V19.0417C76.2887 20.1383 77.1792 21.0224 78.272 21.0224C79.3636 21.0224 80.254 20.1383 80.254 19.0417V9.43513Z"></path>
<path fill="black" d="M89.1606 12.9129C90.2471 12.9129 91.1312 13.797 91.1312 14.8873V19.0411C91.1312 20.1377 90.2471 21.0231 89.1606 21.0231C88.069 21.0231 87.1786 20.1377 87.1786 19.0411V14.8873C87.1786 13.797 88.069 12.9129 89.1606 12.9129Z"></path>
<path fill="black" d="M88.8534 45.6341V45.882H88.1476V47.7173H87.858V45.882H87.1484V45.6341H88.8534Z"></path>
<path fill="black" d="M89.4556 45.6341H89.0015V47.7173H89.2924V46.0098H89.3064L89.9236 47.7173H90.1981L90.8305 46.0098H90.8406V47.7173H91.1379V45.6341H90.6926L90.0893 47.3429H90.0792L89.4556 45.6341Z"></path>
</svg>
