<svg width="679" height="178" viewBox="0 0 679 178" fill="none" xmlns="http://www.w3.org/2000/svg">
<path d="M553.076 81.3733L553.056 84.7002L554.96 84.7116L555.928 83.072L553.076 81.3733ZM504.959 81.0738L501.656 80.787L501.346 84.3782L504.938 84.4008L504.959 81.0738ZM580.305 35.3811V32.0541H578.415L577.453 33.6817L580.305 35.3811ZM657.136 35.3811V38.7081H664.052L659.722 33.2971L657.136 35.3811ZM650.67 28.1882L653.004 25.8227L652.998 25.8174L650.67 28.1882ZM529.707 28.1882L527.38 25.8174V25.8207L529.707 28.1882ZM668.422 124.032V127.359H670.597L671.466 125.358L668.422 124.032ZM675.677 90.072L678.993 90.1133L675.677 90.072ZM591.943 124.032L589.091 125.731L590.053 127.359H591.943V124.032ZM571.783 89.9835L568.932 88.2841L567.924 89.9835L568.932 91.6829L571.783 89.9835ZM591.936 55.9418V52.6149H590.046L589.085 54.2424L591.936 55.9418ZM669.265 55.9418L672.335 54.6916L671.499 52.6149H669.265V55.9418ZM655.491 144.593L658.011 146.754L662.686 141.264L655.491 141.266V144.593ZM651.744 148.705L654.112 151.033L654.118 151.03L651.744 148.705ZM580.291 144.606L577.44 146.305L578.401 147.933H580.291V144.606ZM555.046 101.961L557.897 100.261L556.942 98.6456L555.066 98.6336L555.046 101.961ZM505.463 101.648L505.484 98.3209L501.633 98.2963L502.181 102.121L505.463 101.648ZM530.788 150.887L528.5 153.297L528.507 153.299L530.788 150.887ZM3.31569 170.177H0V173.504H3.31569V170.177ZM3.31569 143.062L0.76659 140.934L0 141.859V143.062H3.31569ZM140.366 170.177V173.504H143.682V170.177H140.366ZM140.366 135.357H143.682V132.03H140.366V135.357ZM55.6704 135.357L53.1186 133.232L48.6113 138.684H55.6704V135.357ZM139.67 33.7708L142.222 35.8948L142.986 34.9712V33.7708H139.67ZM139.67 6.70919H142.986V3.38221H139.67V6.70919ZM3.97882 6.70919V3.38221H0.663137V6.70919H3.97882ZM3.97882 41.4961H0.663137V44.8231H3.97882V41.4961ZM87.5341 41.4961L90.0832 43.624L94.6058 38.1691H87.5341V41.4961ZM169.743 6.70919V3.38221H166.428V6.70919H169.743ZM169.743 170.177H166.428V173.504H169.743V170.177ZM298.193 6.70919H301.509V3.38221H298.193V6.70919ZM298.193 41.4961V44.8231H301.509V41.4961H298.193ZM209.77 41.4961V38.1691H206.454V41.4961H209.77ZM209.77 70.9199H206.454V74.2469H209.77V70.9199ZM268.173 70.9199H271.488V67.5929H268.173V70.9199ZM268.173 104.542V107.869H271.488V104.542H268.173ZM209.77 104.542V101.215H206.454V104.542H209.77ZM209.77 135.357H206.454V138.684H209.77V135.357ZM299.121 135.357H302.437V132.03H299.121V135.357ZM299.121 170.177V173.504H302.437V170.177H299.121ZM335.481 170.177H332.165V173.504H335.481V170.177ZM335.481 6.70919V3.38221H332.165V6.70919H335.481ZM375.481 170.177V173.504H378.797V170.177H375.481ZM375.481 110.637V107.31H372.166V110.637H375.481ZM405.986 110.637L408.931 109.108L408.004 107.31H405.986V110.637ZM436.696 170.177L433.751 171.706L434.678 173.504H436.696V170.177ZM481.378 170.177V173.504H486.967L484.288 168.582L481.378 170.177ZM445.774 104.782L444.419 101.746L441.144 103.217L442.864 106.377L445.774 104.782ZM467.876 86.3371L465.152 84.4414L465.148 84.4467L467.876 86.3371ZM476.258 58.7764L472.943 58.7398L472.943 58.7804L472.943 58.8217L476.258 58.7764ZM471.948 37.7632L474.98 36.4158L474.978 36.4111L471.948 37.7632ZM460.111 21.3013L462.345 18.8427L462.333 18.8307L462.319 18.8187L460.111 21.3013ZM441.961 10.5618L440.858 13.6992L440.865 13.7012L441.961 10.5618ZM418.784 6.70919V10.0362H418.803L418.821 10.0355L418.784 6.70919ZM415.058 41.0902V44.4172H418.373V41.0902H415.058ZM375.501 41.0902V37.7632H372.186V41.0902H375.501ZM415.058 41.0303L415.077 37.7033L411.742 37.684V41.0303H415.058ZM430.064 46.227L427.848 48.701L430.064 46.227ZM435.767 59.535H432.452V59.5429L435.767 59.535ZM375.501 77.9797H372.186V81.3067H375.501V77.9797ZM553.096 78.0463L504.98 77.7469L504.938 84.4008L553.056 84.7002L553.096 78.0463ZM577.453 33.6817L550.225 79.6739L555.928 83.072L583.156 37.0799L577.453 33.6817ZM657.136 32.0541H580.305V38.7081H657.136V32.0541ZM648.336 30.5537C650.538 32.7368 652.613 35.0444 654.55 37.4644L659.722 33.2971C657.626 30.6794 655.378 28.1835 653.004 25.8227L648.336 30.5537ZM590.192 6.65396C611.95 6.65396 632.838 15.2402 648.343 30.559L652.998 25.8174C636.247 9.27295 613.694 0 590.192 0V6.65396ZM532.035 30.559C547.539 15.2402 568.428 6.65396 590.192 6.65396V0C566.69 0 544.131 9.27295 527.38 25.8174L532.035 30.559ZM508.263 81.36C509.919 62.1287 518.347 44.1177 532.035 30.5556L527.38 25.8207C512.567 40.4933 503.448 59.9801 501.656 80.787L508.263 81.36ZM671.466 125.358C676.287 114.229 678.847 102.247 678.993 90.1133L672.361 90.0307C672.229 101.28 669.855 112.388 665.379 122.706L671.466 125.358ZM591.943 127.359H668.422V120.705H591.943V127.359ZM568.932 91.6829L589.091 125.731L594.794 122.332L574.635 88.2841L568.932 91.6829ZM589.085 54.2424L568.932 88.2841L574.635 91.6823L594.788 57.6406L589.085 54.2424ZM669.265 52.6149H591.936V59.2688H669.265V52.6149ZM678.993 90.1133C679.145 77.9791 676.884 65.9367 672.335 54.6916L666.194 57.1921C670.405 67.6175 672.501 78.7815 672.361 90.0307L678.993 90.1133ZM652.971 142.431C651.824 143.78 650.624 145.097 649.37 146.38L654.118 151.03C655.465 149.642 656.764 148.217 658.011 146.754L652.971 142.431ZM580.291 147.933L655.491 147.92V141.266L580.291 141.279V147.933ZM552.194 103.659L577.44 146.305L583.143 142.906L557.897 100.261L552.194 103.659ZM505.442 104.975L555.026 105.288L555.066 98.6336L505.484 98.3209L505.442 104.975ZM533.076 148.477C519.902 135.898 511.332 119.236 508.745 101.175L502.181 102.121C504.98 121.661 514.251 139.687 528.5 153.297L533.076 148.477ZM591.651 171.333C569.893 171.725 548.852 163.515 533.069 148.475L528.507 153.299C545.543 169.543 568.269 178.41 591.77 177.985L591.651 171.333ZM649.377 146.376C634.145 161.976 613.415 170.94 591.651 171.333L591.77 177.985C615.272 177.562 637.666 167.881 654.112 151.033L649.377 146.376ZM6.63137 170.177V143.062H0V170.177H6.63137ZM140.366 166.85H3.31569V173.504H140.366V166.85ZM137.051 135.357V170.177H143.682V135.357H137.051ZM55.6704 138.684H140.366V132.03H55.6704V138.684ZM137.118 31.6462L53.1186 133.232L58.2221 137.481L142.222 35.8948L137.118 31.6462ZM136.354 6.70919V33.7708H142.986V6.70919H136.354ZM3.97882 10.0362H139.67V3.38221H3.97882V10.0362ZM7.29451 41.4961V6.70919H0.663137V41.4961H7.29451ZM87.5341 38.1691H3.97882V44.8231H87.5341V38.1691ZM5.86478 145.19L90.0832 43.624L84.985 39.3682L0.76659 140.934L5.86478 145.19ZM166.428 6.70919V170.177H173.059V6.70919H166.428ZM298.193 3.38221H169.743V10.0362H298.193V3.38221ZM301.509 41.4961V6.70919H294.877V41.4961H301.509ZM209.77 44.8231H298.193V38.1691H209.77V44.8231ZM213.086 70.9199V41.4961H206.454V70.9199H213.086ZM268.173 67.5929H209.77V74.2469H268.173V67.5929ZM271.488 104.542V70.9199H264.857V104.542H271.488ZM209.77 107.869H268.173V101.215H209.77V107.869ZM213.086 135.357V104.542H206.454V135.357H213.086ZM299.121 132.03H209.77V138.684H299.121V132.03ZM302.437 170.177V135.357H295.806V170.177H302.437ZM169.743 173.504H299.121V166.85H169.743V173.504ZM338.797 170.177V6.70919H332.165V170.177H338.797ZM375.481 166.85H335.481V173.504H375.481V166.85ZM372.166 110.637V170.177H378.797V110.637H372.166ZM405.986 107.31H375.481V113.964H405.986V107.31ZM439.641 168.648L408.931 109.108L403.042 112.166L433.751 171.706L439.641 168.648ZM481.378 166.85H436.696V173.504H481.378V166.85ZM442.864 106.377L478.468 171.772L484.288 168.582L448.684 103.187L442.864 106.377ZM465.148 84.4467C459.945 92.007 452.775 97.9902 444.419 101.746L447.129 107.818C456.593 103.566 464.713 96.7892 470.605 88.2275L465.148 84.4467ZM472.943 58.8217C473.068 67.9675 470.345 76.9244 465.152 84.4414L470.602 88.2322C476.581 79.576 479.718 69.2624 479.574 58.7305L472.943 58.8217ZM468.917 39.1107C471.644 45.2889 473.018 51.9827 472.943 58.7398L479.574 58.813C479.659 51.1031 478.092 43.465 474.98 36.4158L468.917 39.1107ZM457.877 23.7593C462.575 28.0578 466.335 33.2864 468.919 39.1153L474.978 36.4111C472.022 29.7425 467.72 23.7606 462.345 18.8427L457.877 23.7593ZM440.865 13.7012C447.147 15.9103 452.937 19.3357 457.903 23.7833L462.319 18.8187C456.704 13.791 450.16 9.91905 443.058 7.42182L440.865 13.7012ZM418.821 10.0355C426.324 9.95432 433.783 11.194 440.858 13.6992L443.064 7.42448C435.257 4.66043 427.027 3.29238 418.749 3.38221L418.821 10.0355ZM335.481 10.0362H418.784V3.38221H335.481V10.0362ZM415.058 37.7632H375.501V44.4172H415.058V37.7632ZM411.742 41.0303V41.0902H418.373V41.0303H411.742ZM432.281 43.7524C427.753 39.6682 421.91 37.7426 415.077 37.7033L415.039 44.3573C420.611 44.3892 424.772 45.9276 427.848 48.701L432.281 43.7524ZM439.083 59.535C439.083 53.213 436.83 47.8546 432.281 43.7524L427.848 48.701C430.904 51.4571 432.452 54.9704 432.452 59.535H439.083ZM432.275 75.3222C436.843 71.2227 439.099 65.8582 439.083 59.527L432.452 59.5429C432.463 64.1056 430.917 67.6135 427.854 70.363L432.275 75.3222ZM415.058 81.3067C421.884 81.3067 427.731 79.4017 432.275 75.3222L427.854 70.363C424.768 73.133 420.611 74.6528 415.058 74.6528V81.3067ZM375.501 81.3067H415.058V74.6528H375.501V81.3067ZM372.186 41.0902V77.9797H378.817V41.0902H372.186Z" fill="black"/>
</svg>
