<svg width="338" height="90" viewBox="0 0 338 90" fill="none" xmlns="http://www.w3.org/2000/svg">
<path d="M179.94 4.5213H213.38H229.29V20.4313V72.7113H213.38V20.4313H179.94V4.5213Z" fill="black"/>
<path d="M286.63 72.7113H253.18H237.27V56.8013V4.5213H253.18V56.8013H286.63V72.7113Z" fill="black"/>
<path d="M91.61 73.7913H108.95L72.82 4.5213L36.7 73.7913H54.04L72.82 37.7813L91.61 73.7913Z" fill="black"/>
<path d="M185.32 89.7413L165.93 62.5913C169.582 59.1523 172.477 54.9903 174.43 50.3713L158.55 43.6513C152.909 57.1453 134.775 59.4723 125.909 47.8403C117.043 36.2073 124.094 19.3393 138.601 17.4773C147.555 16.3283 156.082 21.6383 159 30.1813L175.33 24.6413C166.398 -1.7797 132.214 -8.62469 113.799 12.3213C95.384 33.2673 106.548 66.2933 133.895 71.7683C139.495 72.8893 145.281 72.6713 150.78 71.1313L164.09 89.7513L185.32 89.7413Z" fill="black"/>
<path d="M337.64 4.5213H320.3L301.52 40.5413L282.74 4.5213H265.4L293.67 58.7313V72.7113H309.37V58.7313L337.64 4.5213Z" fill="black"/>
<path d="M53.92 20.4313L63.05 4.5213H15.91H0V20.4313V72.7113H15.91V46.8713H42.14L49.35 31.6313H15.91V20.4313H53.92Z" fill="black"/>
<path d="M137.618 41.5923C137.884 41.1883 137.763 40.6313 137.352 40.3533L131.869 36.6323L137.352 32.8883C137.739 32.6103 137.86 32.0783 137.618 31.6473C137.352 31.2433 136.821 31.1173 136.435 31.3703L129.864 35.8233C129.622 36.0013 129.478 36.2543 129.478 36.5823C129.478 36.9123 129.622 37.1643 129.864 37.3413L136.435 41.7943C136.579 41.8963 136.749 41.9223 136.894 41.9223C137.184 41.9973 137.474 41.8463 137.618 41.5923Z" fill="black"/>
<path d="M152.063 35.8993L145.493 31.4453C145.106 31.1673 144.575 31.2933 144.309 31.7243C144.043 32.1293 144.164 32.6863 144.575 32.9643L150.058 36.7093L144.575 40.4543C144.189 40.7323 144.068 41.2643 144.309 41.6933C144.478 41.9723 144.743 42.0983 145.034 42.0983C145.203 42.0983 145.348 42.0483 145.493 41.9723L152.063 37.4173C152.305 37.2403 152.449 36.9873 152.449 36.6583C152.426 36.3293 152.28 36.0513 152.063 35.8993Z" fill="black"/>
<path d="M144.019 27.3713C143.585 27.2203 143.101 27.4473 142.933 27.9283L137.352 44.8313C137.208 45.2873 137.425 45.7923 137.884 45.9703C137.98 46.0203 138.077 46.0203 138.15 46.0203C138.488 46.0203 138.826 45.7923 138.946 45.4143L144.527 28.5103C144.696 28.0293 144.453 27.5243 144.019 27.3713Z" fill="black"/>
</svg>
