<svg xmlns="http://www.w3.org/2000/svg" fill="none" viewBox="0 0 137 56" height="56" width="137">
<path fill="black" d="M90.6834 11.2783L106.359 26.8493C106.66 27.1478 106.899 27.5026 107.062 27.8932C107.225 28.2838 107.308 28.7025 107.307 29.1253V33.9977C107.307 34.8503 106.967 35.6681 106.361 36.2715L100.184 42.3982C99.5763 43.0004 98.7535 43.3389 97.8954 43.3395H93.3744C92.5162 43.3385 91.6931 43.0004 91.0846 42.3989L84.9076 36.2715C84.6062 35.9723 84.3671 35.6169 84.2042 35.2257C84.0413 34.8345 83.9576 34.4152 83.9581 33.9918V20.4709C83.9582 20.3571 83.9923 20.246 84.056 20.1514C84.1197 20.0569 84.2101 19.9832 84.3159 19.9397C84.4217 19.8962 84.5381 19.8848 84.6504 19.9069C84.7627 19.9291 84.8659 19.9838 84.9469 20.0641L89.6945 24.7771V11.6836C89.6946 11.5698 89.7287 11.4586 89.7924 11.364C89.8562 11.2695 89.9467 11.1959 90.0526 11.1525C90.1585 11.1091 90.2749 11.0979 90.3872 11.1203C90.4995 11.1427 90.6026 11.1977 90.6834 11.2783ZM101.294 33.2322C101.475 33.0514 101.577 32.8067 101.578 32.5515V30.6564C101.578 30.5296 101.552 30.404 101.503 30.2869C101.454 30.1698 101.382 30.0636 101.292 29.9743L99.5054 28.1974C99.323 28.0166 99.0758 27.9151 98.8182 27.9151C98.5605 27.9151 98.3134 28.0166 98.1309 28.1974L95.636 30.683L93.1367 28.1974C92.9544 28.0166 92.7074 27.9151 92.4498 27.9151C92.1923 27.9151 91.9453 28.0166 91.7629 28.1974L89.9746 29.9743C89.7928 30.1556 89.6899 30.4005 89.6878 30.6564V32.5515C89.6909 32.8048 89.7939 33.0469 89.9746 33.2255L94.9406 38.1946C95.0305 38.2853 95.1376 38.3572 95.2557 38.4063C95.3738 38.4555 95.5006 38.4808 95.6286 38.4808C95.7567 38.4808 95.8834 38.4555 96.0015 38.4063C96.1196 38.3572 96.2267 38.2853 96.3166 38.1946L101.294 33.2322Z" clip-rule="evenodd" fill-rule="evenodd"></path>
<path fill="black" d="M130.047 23.4254C128.767 23.4257 127.525 23.8561 126.523 24.6464L125.724 25.3027C125.603 25.3963 125.454 25.4471 125.3 25.4471C125.147 25.4471 124.997 25.3963 124.876 25.3027L124.075 24.6457C123.072 23.8556 121.831 23.4255 120.551 23.4254H120.404C118.477 23.4254 116.785 24.4707 115.845 26.2698C115.826 26.3063 115.796 26.3354 115.758 26.3526C115.721 26.3698 115.679 26.3741 115.638 26.3648C115.598 26.3555 115.562 26.3331 115.536 26.3012C115.51 26.2693 115.496 26.2297 115.495 26.1886V24.1732C115.495 24.0937 115.479 24.0149 115.448 23.9414C115.418 23.8679 115.373 23.8011 115.316 23.7449C115.259 23.6887 115.192 23.6441 115.118 23.6137C115.044 23.5834 114.965 23.5678 114.885 23.5679H110.651C110.488 23.5683 110.332 23.6327 110.218 23.747C110.103 23.8613 110.038 24.0162 110.038 24.1777V40.7859C110.038 40.8667 110.054 40.9467 110.085 41.0214C110.116 41.0961 110.161 41.164 110.219 41.2211C110.276 41.2783 110.344 41.3236 110.42 41.3544C110.495 41.3853 110.575 41.4011 110.657 41.4009H114.876C115.04 41.4009 115.197 41.3361 115.313 41.2207C115.43 41.1054 115.495 40.949 115.495 40.7859V30.8779C115.495 30.3277 115.714 29.7999 116.105 29.4103C116.299 29.2176 116.53 29.0649 116.783 28.9607C117.037 28.8566 117.308 28.8032 117.583 28.8035H118.651C118.925 28.8032 119.197 28.8566 119.451 28.9608C119.704 29.0649 119.934 29.2176 120.129 29.4103C120.323 29.603 120.477 29.8317 120.582 30.0836C120.687 30.3354 120.741 30.6053 120.741 30.8779L120.753 40.7881C120.753 40.9096 120.79 41.0283 120.858 41.1292C120.926 41.23 121.023 41.3084 121.136 41.3544C121.211 41.3852 121.291 41.401 121.372 41.4009H125.592C125.756 41.4009 125.913 41.3361 126.029 41.2207C126.145 41.1054 126.211 40.949 126.211 40.7859V30.8779C126.211 30.6055 126.265 30.3358 126.37 30.0841C126.474 29.8324 126.628 29.6037 126.822 29.4111C127.016 29.2184 127.246 29.0656 127.499 28.9614C127.753 28.8571 128.024 28.8035 128.298 28.8035H129.368C129.643 28.8029 129.914 28.8562 130.168 28.9602C130.421 29.0642 130.652 29.217 130.846 29.4098C131.04 29.6025 131.194 29.8314 131.298 30.0834C131.403 30.3353 131.457 30.6054 131.456 30.8779L131.472 40.7881C131.472 40.9505 131.537 41.1061 131.653 41.221C131.768 41.3358 131.925 41.4005 132.088 41.4009H136.31C136.391 41.4009 136.471 41.3849 136.546 41.354C136.621 41.3231 136.689 41.2777 136.747 41.2206C136.804 41.1635 136.849 41.0957 136.88 41.0211C136.911 40.9465 136.927 40.8666 136.926 40.7859V30.3634C136.944 28.9991 136.552 27.6606 135.799 26.5195C135.046 25.3784 133.967 24.4868 132.701 23.9591C131.861 23.6086 130.958 23.4272 130.047 23.4254Z"></path>
<path fill="black" d="M76.3211 13.2265L80.241 17.1215C80.5406 17.4195 80.7092 17.8232 80.7098 18.2444V40.8125C80.7096 40.9738 80.6451 41.1284 80.5303 41.2424C80.4155 41.3564 80.2599 41.4206 80.0976 41.4208H75.8627C75.7832 41.4208 75.7037 41.4053 75.6294 41.3743C75.5183 41.328 75.4234 41.2502 75.3564 41.1507C75.2895 41.0512 75.2534 40.9344 75.2527 40.8147V38.662C75.2529 38.6207 75.2388 38.5806 75.2129 38.5484C75.1869 38.5162 75.1506 38.4937 75.1101 38.4848C75.0697 38.4751 75.0272 38.4793 74.9896 38.4968C74.9519 38.5142 74.9213 38.5438 74.9028 38.5808C73.9629 40.3791 72.2712 41.4252 70.3447 41.4252H68.9747C68.0605 41.4254 67.1552 41.2466 66.3105 40.8991C65.4658 40.5516 64.6984 40.0422 64.0519 39.3999C63.4054 38.7576 62.8926 37.995 62.5428 37.1558C62.193 36.3165 62.0129 35.417 62.013 34.5086V30.4867C62.0129 29.5784 62.193 28.6789 62.5428 27.8397C62.8927 27.0006 63.4055 26.2381 64.052 25.5959C64.6985 24.9538 65.466 24.4444 66.3106 24.0971C67.1553 23.7497 68.0605 23.5712 68.9747 23.5715H71.4391C72.6151 23.5489 73.7692 23.8894 74.7423 24.546C74.795 24.5827 74.8569 24.6042 74.9211 24.6082C74.9853 24.6122 75.0493 24.5985 75.1062 24.5687C75.1631 24.5388 75.2107 24.494 75.2436 24.4391C75.2765 24.3842 75.2935 24.3213 75.2929 24.2574V13.6488C75.2923 13.5301 75.3275 13.4139 75.3939 13.3151C75.4432 13.2412 75.5085 13.1792 75.5851 13.1335C75.6616 13.0879 75.7474 13.0598 75.8363 13.0513C75.9251 13.0428 76.0148 13.0541 76.0986 13.0844C76.1825 13.1148 76.2585 13.1633 76.3211 13.2265ZM67.4486 30.8019V34.1912C67.4492 34.7412 67.6693 35.2685 68.0607 35.6574C68.4521 36.0463 68.9828 36.2651 69.5363 36.2656H73.0439C73.3182 36.2656 73.5899 36.2119 73.8433 36.1075C74.0968 36.0032 74.327 35.8502 74.5209 35.6573C74.7152 35.4647 74.8692 35.2358 74.974 34.9838C75.0788 34.7318 75.1324 34.4616 75.1316 34.189V30.8019C75.1316 30.2517 74.9117 29.7241 74.5201 29.335C74.1286 28.946 73.5976 28.7274 73.0439 28.7274H69.5363C68.9828 28.728 68.4521 28.9468 68.0607 29.3357C67.6693 29.7246 67.4492 30.2519 67.4486 30.8019Z" clip-rule="evenodd" fill-rule="evenodd"></path>
<path fill="black" d="M51.613 23.5804H52.0053L52.0045 23.5811C53.8485 23.5811 55.6171 24.3084 56.9219 25.6032C58.2266 26.898 58.9608 28.6544 58.9632 30.4867V40.7874C58.9632 40.868 58.9472 40.9478 58.9161 41.0222C58.885 41.0966 58.8394 41.1643 58.782 41.2212C58.7246 41.2781 58.6564 41.3232 58.5815 41.3539C58.5065 41.3846 58.4261 41.4003 58.345 41.4001H54.1257C53.9619 41.4003 53.8047 41.3359 53.6886 41.221C53.5726 41.1061 53.5072 40.9501 53.5068 40.7874L53.4934 31.0197C53.493 30.4696 53.273 29.9422 52.8815 29.5532C52.4901 29.1643 51.9593 28.9456 51.4057 28.9452H48.8068C48.2531 28.9452 47.7221 29.1638 47.3305 29.5528C46.939 29.9419 46.7191 30.4695 46.7191 31.0197L46.7042 40.7992C46.7042 40.9617 46.6392 41.1175 46.5236 41.2325C46.4079 41.3474 46.2511 41.4119 46.0875 41.4119H41.866C41.7024 41.4119 41.5456 41.3474 41.4299 41.2325C41.3143 41.1175 41.2493 40.9617 41.2493 40.7992V24.1887C41.2488 24.1087 41.2643 24.0293 41.2949 23.9552C41.3255 23.8812 41.3706 23.8139 41.4275 23.7572C41.4844 23.7006 41.5521 23.6557 41.6266 23.6252C41.7011 23.5948 41.781 23.5793 41.8615 23.5797H46.0942C46.2546 23.5795 46.4087 23.6421 46.5229 23.7541C46.6371 23.8661 46.7022 24.0182 46.7042 24.1776V26.3437C46.7047 26.3848 46.7191 26.4246 46.7451 26.4566C46.7643 26.4807 46.7894 26.4996 46.8179 26.5116C46.8464 26.5235 46.8775 26.5281 46.9084 26.5249C46.9392 26.5218 46.9687 26.5109 46.9941 26.4935C47.0196 26.476 47.0403 26.4524 47.0541 26.4249C47.9947 24.6235 49.6887 23.5804 51.613 23.5804Z"></path>
<path fill="black" d="M32.4979 23.5804H36.7306C36.8107 23.58 36.8901 23.5953 36.9643 23.6255C37.0385 23.6557 37.1059 23.7 37.1628 23.7561C37.2197 23.8122 37.2648 23.8789 37.2957 23.9524C37.3266 24.0259 37.3426 24.1047 37.3428 24.1843V40.814C37.3428 40.9753 37.2783 41.13 37.1635 41.2441C37.0487 41.3582 36.893 41.4223 36.7306 41.4223H32.4979C32.3361 41.4223 32.181 41.3584 32.0666 41.2447C31.9522 41.1311 31.8879 40.9769 31.8879 40.8162V38.6635C31.8882 38.6219 31.8742 38.5816 31.8484 38.549C31.8225 38.5164 31.7863 38.4935 31.7456 38.4841C31.7049 38.4746 31.6622 38.4792 31.6245 38.497C31.5868 38.5149 31.5563 38.5449 31.538 38.5822C30.5981 40.3806 28.9042 41.4267 26.9799 41.4267H25.6076C24.6936 41.4266 23.7886 41.2476 22.9443 40.9C22.0999 40.5523 21.3327 40.0428 20.6866 39.4005C20.0404 38.7582 19.5278 37.9958 19.1782 37.1567C18.8286 36.3176 18.6488 35.4183 18.649 34.5101V30.4881C18.649 28.6543 19.3821 26.8956 20.6871 25.5989C21.9921 24.3022 23.7621 23.5738 25.6076 23.5738H26.9799C28.8953 23.5738 30.5974 24.6243 31.538 26.4182C31.5565 26.4553 31.5871 26.4851 31.6248 26.5027C31.6625 26.5204 31.7051 26.5249 31.7457 26.5155C31.7862 26.5061 31.8224 26.4833 31.8484 26.4509C31.8744 26.4186 31.8885 26.3784 31.8887 26.337V24.1858C31.8889 24.0253 31.9531 23.8714 32.0673 23.7579C32.1815 23.6444 32.3364 23.5806 32.4979 23.5804ZM31.6086 34.9943C31.7136 34.7422 31.7677 34.4721 31.7676 34.1993V30.8012C31.767 30.2508 31.5465 29.7231 31.1546 29.3342C30.7628 28.9452 30.2315 28.7267 29.6776 28.7267H26.1723C25.6184 28.7267 25.0871 28.9452 24.6952 29.3342C24.3034 29.7231 24.0829 30.2508 24.0823 30.8012V34.1993C24.0823 34.7501 24.3025 35.2783 24.6944 35.6677C25.0864 36.0572 25.618 36.276 26.1723 36.276H29.6769C29.9514 36.2762 30.2233 36.2226 30.477 36.1183C30.7307 36.014 30.9612 35.8611 31.1554 35.6682C31.3496 35.4753 31.5036 35.2463 31.6086 34.9943Z" clip-rule="evenodd" fill-rule="evenodd"></path>
<path fill="black" d="M2.0099 20.9769C2.68001 20.3105 3.58898 19.9357 4.53705 19.935H17.9617C18.068 19.9351 18.1728 19.9601 18.2675 20.008C18.3622 20.0559 18.4443 20.1253 18.5069 20.2106C18.5696 20.2959 18.6112 20.3947 18.6282 20.4989C18.6453 20.6031 18.6374 20.7099 18.6052 20.8105L17.4134 24.4995C17.362 24.6603 17.2604 24.8006 17.1233 24.9001C16.9863 24.9997 16.8209 25.0533 16.6511 25.0532H7.01931C6.94042 25.0528 6.86223 25.0679 6.78923 25.0976C6.71624 25.1274 6.64987 25.1711 6.59395 25.2264C6.53803 25.2817 6.49365 25.3475 6.46337 25.4198C6.43309 25.4922 6.4175 25.5698 6.41751 25.6482V29.7071C6.41731 29.7856 6.43275 29.8634 6.46293 29.936C6.49311 30.0086 6.53745 30.0746 6.59338 30.1301C6.64931 30.1856 6.71573 30.2296 6.78883 30.2595C6.86193 30.2894 6.94026 30.3046 7.01931 30.3043H14.5991C14.7053 30.3045 14.8101 30.3295 14.9048 30.3774C14.9995 30.4253 15.0816 30.4947 15.1443 30.58C15.2069 30.6652 15.2485 30.764 15.2656 30.8683C15.2826 30.9725 15.2747 31.0793 15.2425 31.1799L14.0597 34.8999C14.0081 35.0611 13.9062 35.2018 13.7687 35.3016C13.6313 35.4014 13.4654 35.4552 13.2952 35.455H7.01931C6.94031 35.455 6.86209 35.4705 6.78912 35.5006C6.71615 35.5306 6.64986 35.5747 6.59403 35.6302C6.53821 35.6858 6.49395 35.7517 6.46379 35.8242C6.43363 35.8968 6.41815 35.9745 6.41825 36.053V44.252C6.41761 44.3784 6.37941 44.5019 6.30844 44.6069C6.23746 44.7119 6.13687 44.7937 6.01928 44.8421C5.90169 44.8905 5.77233 44.9034 5.64743 44.879C5.52252 44.8547 5.40764 44.7942 5.31717 44.7052L1.59342 41.0066C1.18998 40.6058 0.963379 40.0617 0.963379 39.4947V23.4889C0.963379 22.5468 1.33979 21.6433 2.0099 20.9769Z"></path>
</svg>
