<svg width="137" height="48" viewBox="0 0 137 48" fill="none" xmlns="http://www.w3.org/2000/svg">
<g clip-path="url(#clip0_112_34)">
<path d="M36.0999 12.9004V42.0004H32.0999V26.0004H16.3999V30.0004H28.0999V32.0004C28.0999 37.1004 28.0999 42.2004 28.0999 47.2004C28.0999 47.5004 28.0999 47.8004 28.1999 48.0004C32.5999 47.3004 36.6999 45.4004 39.9999 42.6004V22.1004C39.8999 19.0004 39.2999 15.7004 36.0999 12.9004Z" fill="black"/>
<path d="M28.2 14.1H32.2V5.4C34.6 5.9 43.6 11.8 44 21.1V38.3C46.9 34.3 48.7 29.3 48.7 24C48.7 11.9 39.9 1.9 28.2999 0C28.2999 0.2 28.3 0.5 28.2 0.8V14.1Z" fill="black"/>
<path d="M12.4 35.1V6.1H16.4V22H32.1V18H20.4V16C20.4 10.9 20.4 5.8 20.4 0.8C20.4 0.5 20.4 0.2 20.3 0C15.9 0.7 11.8 2.6 8.5 5.4V25.8C8.6 28.9 9.2 32.3 12.4 35.1Z" fill="black"/>
<path d="M20.4 33.9002H16.4V42.6002C14.1 42.1002 5 36.2002 4.7 26.9002V9.7002C1.7 13.7002 0 18.6002 0 24.0002C0 36.1002 8.8 46.1002 20.4 48.0002C20.4 47.8002 20.4 47.5002 20.5 47.2002L20.4 33.9002Z" fill="black"/>
<path d="M62.3 34.5998V13.7998H65.5V22.1998H68.3001V13.7998H71.5V34.5998H68.3001V24.8998H65.5V34.5998H62.3Z" fill="black"/>
<path d="M84.7 28.2998L83.3 17.8998L82 28.2998H84.7ZM78.2 34.5998L81.2 13.7998H85.4L88.6 34.5998H85.6L85 30.8998H81.6L81.2 34.5998H78.2Z" fill="black"/>
<path d="M95.1001 34.5998V13.7998H97.6001L102 26.2998L101.8 20.5998V13.7998H104.6V34.5998H102.4L97.9001 21.6998L98.1001 27.1998V34.6998H95.1001V34.5998Z" fill="black"/>
<path d="M111.8 34.5998V13.7998H115V23.3998L118.2 13.7998H121.5L118 24.0998L121.7 34.5998H118.4L115.1 24.8998V34.5998H111.8Z" fill="black"/>
<path d="M130.9 31.3996C131.1 31.8996 131.5 32.0996 132 32.0996C132.5 32.0996 133 31.8996 133.1 31.3996C133.3 30.8996 133.4 30.0996 133.4 28.8996V19.1996C133.4 18.1996 133.3 17.4996 133.1 16.9996C132.9 16.4996 132.6 16.2996 132 16.2996C131.5 16.2996 131.1 16.4996 130.9 16.9996C130.7 17.4996 130.6 18.1996 130.6 19.0996V28.7996C130.7 29.9996 130.8 30.8996 130.9 31.3996ZM135.6 33.2996C134.9 34.2996 133.7 34.7996 132.1 34.7996C130.5 34.7996 129.3 34.2996 128.6 33.2996C127.9 32.2996 127.5 30.7996 127.5 28.7996V19.2996C127.5 15.4996 129.1 13.5996 132.2 13.5996C133.8 13.5996 135 14.0996 135.7 15.0996C136.4 16.0996 136.8 17.4996 136.8 19.3996V28.8996C136.7 30.7996 136.3 32.2996 135.6 33.2996Z" fill="black"/>
</g>
<defs>
<clipPath id="clip0_112_34">
<rect width="137" height="48" fill="white"/>
</clipPath>
</defs>
</svg>
