<svg xmlns="http://www.w3.org/2000/svg" fill="none" viewBox="0 0 144 37" height="37" width="144">
<path fill="black" d="M56.7635 15.4958H48.5604V7.64938H44.6194V27.4438H48.5604V19.419H56.7635V27.4438H60.8651V7.64938H56.7635V15.4958ZM70.3343 13.1954C69.4574 13.1959 68.5894 13.3713 67.7811 13.7111C66.9727 14.051 66.2402 14.5486 65.6264 15.1748C64.9513 15.8717 64.421 16.6953 64.0659 17.5983C63.7109 18.5012 63.5382 19.4655 63.5578 20.4355C63.5578 22.6289 64.289 24.5014 65.6977 25.8389C67.0418 27.1067 68.8255 27.8036 70.6731 27.7826C74.3467 27.7826 76.3261 25.5179 76.9503 23.4136L76.9859 23.3066L73.7403 22.3436L73.7047 22.4328C73.2232 23.7524 72.2067 24.4301 70.7088 24.4301C68.9433 24.4301 67.5345 23.1996 67.4097 21.5411H77.1107V21.3272C77.1286 21.131 77.1642 20.703 77.1642 20.3107C77.1464 15.8525 74.5963 13.1954 70.3343 13.1954ZM67.4632 18.8841C67.5599 18.1847 67.9123 17.5461 68.4525 17.0915C68.9927 16.637 69.6822 16.3988 70.3878 16.4231C72.4029 16.4231 73.2232 17.6714 73.3124 18.8841H67.4632ZM95.7104 13.2845C94.8726 13.235 94.0367 13.4087 93.2879 13.7878C92.5391 14.1668 91.9044 14.7378 91.4483 15.4423C90.735 14.0692 89.2727 13.2845 87.436 13.2845C86.7023 13.2806 85.9768 13.4383 85.3111 13.7465C84.6453 14.0547 84.0557 14.5059 83.5841 15.0678V13.6947H79.8392V27.426H83.7624V19.4012C83.7624 17.8676 84.761 16.8333 86.2411 16.8333C87.7213 16.8333 88.5772 17.7249 88.5772 19.2942V27.4438H92.3222V19.4012C92.3222 17.8854 93.3029 16.8333 94.6939 16.8333C96.6555 16.8333 96.9587 18.3669 96.9587 19.2942V27.4438H100.704V18.5452C100.704 16.8333 100.169 15.4602 99.1699 14.5328C98.2783 13.7304 97.0657 13.2845 95.7104 13.2845ZM111.867 13.3202C110.619 13.3202 109.031 13.8017 108.086 15.1213V13.7125H104.163V27.4438H108.086V19.5439C108.086 17.9211 109.067 16.8333 110.512 16.8333C112.027 16.8333 112.901 17.7784 112.901 19.4369V27.4438H116.824V18.7949C116.824 15.4067 114.934 13.3202 111.867 13.3202ZM126.222 13.1954C125.345 13.1959 124.477 13.3713 123.669 13.7111C122.861 14.051 122.128 14.5486 121.514 15.1748C120.843 15.8731 120.316 16.6974 119.964 17.6003C119.612 18.5032 119.442 19.4667 119.464 20.4355C119.464 22.6289 120.195 24.5014 121.604 25.8389C122.943 27.1024 124.72 27.7989 126.561 27.7826C130.235 27.7826 132.214 25.5179 132.838 23.4136L132.874 23.3066L129.628 22.3436L129.593 22.4328C129.111 23.7524 128.095 24.4301 126.597 24.4301C124.831 24.4301 123.423 23.1996 123.298 21.5411H132.999V21.3272C133.017 21.131 133.052 20.703 133.052 20.3107C133.034 15.8525 130.484 13.1954 126.222 13.1954ZM123.28 18.8841C123.377 18.1847 123.729 17.5461 124.269 17.0915C124.809 16.637 125.499 16.3988 126.205 16.4231C128.22 16.4231 129.04 17.6714 129.129 18.8841H123.28ZM143.841 17.1008V13.7125H141.166V9.61099H137.6V11.7153C137.6 12.9636 136.833 13.7304 135.549 13.7304H134.746V17.1186H137.243V23.3244C137.243 25.9637 138.937 27.6221 141.666 27.6221C142.807 27.6221 143.484 27.4081 143.788 27.2833L143.859 27.2655V23.8594L143.734 23.8951C143.378 23.9664 143.021 24.0021 142.664 24.0021C141.612 24.0021 141.202 23.5919 141.202 22.5576V17.1008H143.841Z"></path>
<path fill="black" d="M25.7166 24.2161V14.6042C25.7166 14.4259 25.6274 14.2475 25.4847 14.1405L18.2803 9.27217C18.1875 9.21155 18.079 9.17927 17.9682 9.17927C17.8574 9.17927 17.7489 9.21155 17.6561 9.27217L10.4517 14.1405C10.309 14.2475 10.2199 14.408 10.2199 14.6042V24.2161C10.2199 24.5192 10.4695 24.7689 10.7727 24.7689H15.1952C15.4984 24.7689 15.748 24.5192 15.748 24.2161V19.6152C15.748 19.312 15.9977 19.0624 16.3008 19.0624H19.6534C19.9566 19.0624 20.2062 19.312 20.2062 19.6152V24.2161C20.2062 24.358 20.2626 24.494 20.3629 24.5944C20.4632 24.6947 20.5993 24.7511 20.7412 24.7511H25.1816C25.4847 24.7689 25.7166 24.5371 25.7344 24.2339L25.7166 24.2161Z"></path>
<path fill="black" d="M18.1198 0.694589C15.7975 0.692246 13.4976 1.14762 11.3514 2.03469C9.20524 2.92176 7.25496 4.22312 5.61204 5.86438C3.96912 7.50564 2.66579 9.45462 1.77656 11.5999C0.887329 13.7452 0.429631 16.0446 0.429632 18.3669V18.3847C0.41564 22.0355 1.55116 25.598 3.6752 28.5673C3.7537 28.6739 3.78986 28.8059 3.77668 28.9377C3.76351 29.0694 3.70193 29.1916 3.60387 29.2806L1.16078 31.7059C0.742036 32.1973 0.523794 32.8285 0.549522 33.4736C0.575251 34.1188 0.843063 34.7305 1.29961 35.1871C1.75616 35.6436 2.36794 35.9114 3.01308 35.9372C3.65822 35.9629 4.28938 35.7447 4.78084 35.3259L7.22394 32.8828C7.31527 32.7874 7.43865 32.7292 7.57034 32.7193C7.70202 32.7095 7.83271 32.7486 7.93725 32.8293C11.0602 35.0355 14.8149 36.1682 18.6369 36.0571C23.287 35.8582 27.6773 33.8581 30.879 30.48C34.0807 27.1019 35.8427 22.6108 35.7921 17.9568C35.6804 13.3427 33.7699 8.95497 30.4682 5.72992C27.1666 2.50487 22.7352 0.697891 18.1198 0.694589ZM18.1198 31.581C11.3077 31.581 4.9235 25.6605 4.9235 18.3847C4.9235 15.7748 5.69745 13.2234 7.14748 11.0533C8.5975 8.88316 10.6585 7.19176 13.0698 6.19297C15.4811 5.19417 18.1344 4.93284 20.6943 5.44202C23.2541 5.9512 25.6054 7.20803 27.451 9.05356C29.2965 10.8991 30.5533 13.2504 31.0625 15.8103C31.5717 18.3701 31.3104 21.0234 30.3116 23.4347C29.3128 25.8461 27.6214 27.907 25.4513 29.3571C23.2811 30.8071 20.7298 31.581 18.1198 31.581Z"></path>
</svg>
