<svg xmlns="http://www.w3.org/2000/svg" fill="none" viewBox="0 0 80 57" height="57" width="80">
<path fill="black" d="M44.523 27.0205V32.6856C44.523 32.6856 43.8624 34.2866 41.2202 34.2866C38.578 34.2866 37.4771 31.4242 37.4771 29.6627C37.4771 27.9013 38.5722 25.4792 41.2202 25.4792C43.8624 25.4792 44.523 27.0205 44.523 27.0205Z"></path>
<path fill="black" d="M39.8991 52.782C61.7879 52.782 79.5322 42.0368 79.5322 28.782C79.5322 15.5271 61.7879 4.78198 39.8991 4.78198C18.0104 4.78198 0.266113 15.5271 0.266113 28.782C0.266113 42.0368 18.0104 52.782 39.8991 52.782ZM15.4588 37.3691V16.0113L19.6423 14.6902V23.4976C22.5047 21.2957 30.4313 20.1948 30.4313 26.1398V36.048L26.0276 37.3691V26.8003C26.0276 24.1581 20.9634 25.0388 19.6423 27.2407V36.048L15.4588 37.3691ZM57.0735 37.3691L51.1285 22.837L55.312 21.2957L59.2753 31.204L62.578 22.1765H67.2019L60.8166 37.3691H57.0735ZM33.734 43.3035L35.2753 40.2315C35.2753 40.2315 41.4404 43.3035 44.523 39.7911V36.7086C44.523 36.7086 43.2019 38.0297 40.3395 38.0297C37.6881 38.0297 32.8532 35.8278 32.8532 29.6627C32.8532 23.4976 37.4771 21.7361 41 21.7361C43.8184 21.7361 44.523 22.837 44.523 22.837L49.1468 21.2957V32.2762C49.1468 37.5165 48.2004 43.9445 43.0511 44.9171C42.5487 45.012 42.0122 45.0649 41.4404 45.0649C35.9799 45.0649 33.734 43.3035 33.734 43.3035Z" clip-rule="evenodd" fill-rule="evenodd"></path>
</svg>
