<svg width="883" height="194" viewBox="0 0 883 194" fill="none" xmlns="http://www.w3.org/2000/svg">
<path d="M0 19V38L21.3 37.8L42.5 37.5V19V0.499999L21.3 0.199999L0 -5.66244e-07V19ZM34 19V30H21H8V19V8H21H34V19Z" fill="black"/>
<path d="M202 96V190H222H242L242.2 127L242.5 64L252.5 92.7C258 108.5 264.2 126.1 266.2 131.9C268.2 137.7 273.1 151.7 277 163C281 174.3 284.6 185 285.1 186.7L286.1 190H302.8H319.5L322.7 180.7C331.6 155.2 342.3 124.3 352.3 95L363.5 62.5L363.8 126.2L364 190H384H404V96V2H374.5H345L344 4.2C343.5 5.5 337.2 24.9 330 47.5C322.7 70 314 97.3 310.5 108C303.4 129.9 304.4 129.3 299.5 114.5C293.7 97.2 263.1 7.2 262.1 4.7L261 2H231.5H202V96Z" fill="black"/>
<path d="M698 18V34H718H738V18V2H718H698V18Z" fill="black"/>
<path d="M126.2 47.5C118.5 49.2 110.3 52.9 104.1 57.3L99.5 60.6V55.6V50.5L78.3 50.2L57 50V120V190L78.3 189.8L99.5 189.5L100 146.5C100.6 98.4 100.6 98.4 107.9 90.7C117 81.2 136.6 82.3 141.5 92.6C144.4 98.8 145 107.4 145 149.2V190H166H187V137.7C187 82.7 186.9 81.3 182.2 70.8C179.7 65 172.1 56.7 166.2 53.3C155.9 47.2 138.4 44.7 126.2 47.5ZM149.9 55.5C161.7 58.3 169.4 63.9 174.1 73.3C178.8 82.4 179 84.8 179 134.7V182H166.1H153.1L152.7 139.3C152.5 108.4 152 95.4 151.1 92.6C149.3 87.2 142.8 80.5 137.2 78.3C130.3 75.6 117.1 75.9 110.5 78.9C103.8 81.8 98.7 87 95.6 93.9C91.9 102.2 90.8 116.3 91.2 151.8L91.5 182H78.3H65V120V58H78H91V67.5C91 73.8 91.4 77 92.1 77C92.7 77 96.5 73.9 100.5 70.2C115.5 56.2 132 51.3 149.9 55.5Z" fill="black"/>
<path d="M613 49.6C584.6 53.1 569.6 63.5 565 82.8C563 91.4 564.1 102.5 567.6 108.9C573.5 119.8 584.4 125.3 613.6 132.1C640.6 138.3 648.3 142.6 648.2 151.1C648.1 158.4 642.1 164 632.2 166.1C622.5 168.1 610.2 165.3 604.1 159.7C601.1 157 598.1 150.4 598 146.7V144H579.4H560.7L561.3 150.4C563.3 171.6 578.5 186.1 604.5 191.7C609.7 192.8 615.8 193.1 628.5 192.7C643.5 192.4 646.5 192 653.6 189.7C667.8 185 678.7 176.3 683.6 165.5C687.8 156.4 688.5 140.4 685.2 132C683.2 127.1 677.9 120.9 672.7 117.7C664.2 112.3 657.9 110.1 636 105C624.5 102.3 613.4 99.2 611.2 98.1C599.1 91.9 600.6 80 613.8 77.1C620.5 75.7 624.2 75.7 631.5 77.2C638.2 78.5 644.4 83.6 645.5 88.5C645.9 90.2 646.3 92.1 646.6 92.7C646.8 93.7 651.5 94 665.5 94C679.6 94 684 93.7 684 92.7C683.9 89.1 680.6 78.1 678.3 73.7C672.6 63.4 660 54.9 645.4 51.6C638.2 50 619.3 48.8 613 49.6Z" fill="black"/>
<path d="M806 50.1C786.3 53.1 769.2 64.1 759.7 79.7C749 97.2 745.5 121.7 750.5 143C756.1 166.3 773.7 184.5 797 190.9C806.5 193.6 827 193.8 836.9 191.4C859.6 185.9 875.6 169.8 881.5 146.5C882.3 143.3 883 139.5 883 138.3V136L864.4 136.2L845.7 136.5L844.3 142C841.3 154.2 833.8 161.2 821.9 163.2C801.4 166.7 787.7 149.9 787.7 121.5C787.8 98.5 797 83.2 812.7 80C819.3 78.6 824.9 79.4 831.7 82.6C837.4 85.4 840.4 89.2 843.1 97.5L844.7 102.5L863.4 102.8L882 103V99.3C882 88.9 876.3 76.4 867.5 67.6C854.1 54 828.4 46.7 806 50.1Z" fill="black"/>
<path d="M0 120V190L21.3 189.8L42.5 189.5V120V50.5L21.3 50.2L0 50V120ZM34 120V182H21H8V120V58H21H34V120Z" fill="black"/>
<path d="M420.3 102.7C420.6 144.2 421 153.7 422.4 159.5C427.8 182.7 442.2 193 469.1 193C479 193 482 192.6 487.4 190.6C495.9 187.6 503.1 182.8 508 177.1L512 172.5V181.2V190H530.5H549V121.5V53H529.6H510.2L509.8 95.7C509.4 136.3 509.3 138.8 507.2 145C503.5 156.3 497.1 161.1 484.7 161.8C471.3 162.6 464.8 158.4 461.2 146.8C459.9 142.4 459.6 134.1 459.3 97.2L458.9 53H439.3H419.8L420.3 102.7Z" fill="black"/>
<path d="M698.2 121.2L698.5 189.5H718H737.5V121.5V53.5L717.7 53.2L698 53L698.2 121.2Z" fill="black"/>
</svg>
