<svg xmlns="http://www.w3.org/2000/svg" fill="none" viewBox="0 0 135 31" height="31" width="135">
<path fill="black" d="M0.391663 0.781982H7.15724V30.2182H0.391663V0.781982Z"></path>
<path fill="black" d="M17.4243 0.781982H24.0415C24.0415 7.16181 21.5489 13.0965 17.1276 17.4882L26.4748 30.2182H18.1365L7.98811 16.3903L10.5994 14.4318C14.9317 11.1677 17.4243 6.21225 17.4243 0.781982Z"></path>
<path fill="black" d="M34.8131 0.781982H28.4333V30.2182H34.8131V0.781982Z"></path>
<path fill="black" d="M84.4866 12.147C86.0296 10.0401 88.3441 9.2983 90.7774 9.2983C95.6735 9.2983 99.442 12.5327 99.442 17.2805V30.2479H93.359V19.506C93.359 16.5387 91.8159 14.9363 89.1453 14.9363C86.6527 14.9363 84.5756 16.4496 84.5756 19.5357V30.2182H78.4331V9.8621H84.4866V12.147Z"></path>
<path fill="black" d="M54.1009 9.8621V11.1677C52.3798 9.98079 50.3027 9.2983 48.0475 9.2983C42.1128 9.2983 37.3056 14.1054 37.3056 20.0401C37.3056 25.9749 42.1128 30.782 48.0475 30.782C50.3027 30.782 52.3798 30.0995 54.1009 28.9125V30.2182H60.184V9.8621H54.1009ZM48.5519 25.2627C45.4955 25.2627 43.0326 22.9185 43.0326 20.0401C43.0326 17.1618 45.4955 14.8176 48.5519 14.8176C51.6083 14.8176 54.0712 17.1618 54.0712 20.0401C54.0712 22.9185 51.6083 25.2627 48.5519 25.2627Z" clip-rule="evenodd" fill-rule="evenodd"></path>
<path fill="black" d="M69.6201 9.86209V12.503C70.8367 10.9303 73.1216 9.86209 75.5845 9.86209V15.7968H75.5252C73.1216 15.7968 69.6498 17.5179 69.6498 20.7226V30.2182H63.3887V9.86209H69.6201Z"></path>
<path fill="black" d="M118.374 9.8621V11.1677C116.653 9.98079 114.576 9.2983 112.32 9.2983C106.386 9.2983 101.579 14.1054 101.579 20.0401C101.579 25.9749 106.386 30.782 112.32 30.782C114.576 30.782 116.653 30.0995 118.374 28.9125V30.2182H124.457V9.8621H118.374ZM112.825 25.2627C109.769 25.2627 107.306 22.9185 107.306 20.0401C107.306 17.1618 109.769 14.8176 112.825 14.8176C115.881 14.8176 118.344 17.1618 118.344 20.0401C118.374 22.9185 115.881 25.2627 112.825 25.2627Z" clip-rule="evenodd" fill-rule="evenodd"></path>
<path fill="black" d="M128.641 9.98077C128.967 9.98077 129.175 10.1588 129.175 10.4556C129.175 10.6633 129.086 10.8116 128.908 10.9007L129.175 11.5238H128.878L128.641 10.96H128.344V11.5238H128.077V9.98077H128.641ZM128.344 10.6929H128.641C128.849 10.6929 128.908 10.6039 128.908 10.4556C128.908 10.3072 128.819 10.2182 128.641 10.2182H128.344V10.6929Z" clip-rule="evenodd" fill-rule="evenodd"></path>
<path fill="black" d="M128.552 9.32798C127.751 9.32798 127.098 9.9808 127.098 10.782C127.128 11.5832 127.751 12.236 128.552 12.236C129.353 12.236 130.006 11.5832 130.006 10.782C130.006 9.9808 129.353 9.32798 128.552 9.32798ZM128.552 11.9689C127.899 11.9689 127.395 11.4348 127.395 10.782C127.395 10.1292 127.929 9.59505 128.552 9.59505C129.205 9.59505 129.709 10.1292 129.709 10.782C129.709 11.4348 129.175 11.9689 128.552 11.9689Z" clip-rule="evenodd" fill-rule="evenodd"></path>
<path fill="black" d="M127.128 26.8354C127.128 24.7286 128.849 23.0075 130.955 23.0075C133.062 23.0075 134.783 24.6989 134.783 26.8354C134.783 28.9422 133.062 30.6633 130.955 30.6633C128.849 30.6633 127.128 28.9422 127.128 26.8354Z"></path>
</svg>
