<svg xmlns="http://www.w3.org/2000/svg" fill="none" viewBox="0 0 180 57" height="57" width="180">
<path fill="black" d="M36.0449 14.343L33.1666 15.7091L28.2434 18.0282L23.4304 15.7567L19.9858 14.1365L16.5412 15.7567L11.7281 18.0282L6.80502 15.7091L3.92664 14.343L6.80502 12.9928L19.9858 6.78198L33.1666 12.9928L36.0449 14.343Z"></path>
<path fill="black" d="M39.7255 16.0744V43.2845L33.1665 46.3661L23.8079 50.782L27.9446 41.839L33.1665 39.3769V28.8296L36.7527 24.5091L33.1665 26.2087L23.4304 30.7834V39.774L19.9858 41.3943L16.5412 39.774V30.7834L6.80502 26.2087L3.21884 24.5091L6.80502 28.8296V39.3769L12.027 41.839L16.1637 50.782L6.80502 46.3661L0.246094 43.2845V16.0744L0.261823 16.0585L6.80502 19.156L8.06333 19.7437L16.5412 23.7307L19.9858 25.3668L23.4304 23.7307L31.9082 19.7437L33.1665 19.156L39.7098 16.0585L39.7255 16.0744Z"></path>
<path fill="black" d="M79.7397 40.2029V27.8925C79.7397 24.8903 77.8365 22.3329 75.194 21.3957C74.5649 21.1574 73.9043 21.0304 73.2122 20.9986C73.1178 20.9827 73.0077 20.9827 72.8976 20.9827C72.0954 20.9827 71.3247 21.1257 70.6012 21.3957C69.5788 21.7452 68.6823 22.3488 67.9588 23.1271C67.7071 23.3813 67.4869 23.6513 67.2981 23.9531C66.5117 22.7777 65.3478 21.8723 63.9951 21.3957C63.2716 21.1257 62.5008 20.9827 61.6987 20.9827C60.8965 20.9827 60.1258 21.1257 59.4023 21.3957C58.2383 21.8087 57.216 22.5394 56.4452 23.4766V21.3957H49.902V40.2029H56.4452V29.3697C56.4452 27.8925 57.6092 26.717 59.072 26.717C60.5347 26.717 61.6987 27.8925 61.6987 29.3697V40.2029H67.9588V29.3697C67.9588 28.7502 68.1632 28.1784 68.5407 27.7336C68.9969 27.1141 69.7518 26.717 70.5855 26.717C72.0325 26.717 73.2122 27.8925 73.2122 29.3697V40.2029H79.7397Z"></path>
<path fill="black" d="M96.6795 21.3957V23.3336C95.6886 22.4282 94.5089 21.761 93.2192 21.3957C92.4799 21.1733 91.6935 21.0621 90.8913 21.0621C90.0891 21.0621 89.3184 21.1733 88.5792 21.3957C85.2447 22.3488 82.6809 25.3192 82.0674 29.052C81.9573 29.608 81.9102 30.1957 81.9102 30.7993C81.9102 31.4029 81.9573 31.9907 82.0674 32.5466C82.6809 36.2795 85.2447 39.2499 88.5792 40.2029C89.3184 40.4253 90.0891 40.5365 90.8913 40.5365C91.6935 40.5365 92.4799 40.4253 93.2192 40.2029C94.5089 39.8376 95.6886 39.1704 96.6795 38.265V40.2029H103.034V21.3957H96.6795ZM92.6372 34.8816C90.4352 34.8816 88.5949 33.0231 88.5949 30.7993C88.5949 28.5755 90.4352 26.717 92.6372 26.717C94.8393 26.717 96.6795 28.5755 96.6795 30.7993C96.6795 33.0231 94.8235 34.8816 92.6372 34.8816Z" clip-rule="evenodd" fill-rule="evenodd"></path>
<path fill="black" d="M118.228 40.2029H125.432L118.621 30.4658L124.96 21.3957H117.756L115.019 25.3033L112.283 21.3957H105.079L111.418 30.4658L104.607 40.2029H111.811L115.019 35.6123L118.228 40.2029Z"></path>
<path fill="black" d="M139.525 21.0939V28.0037H137.103C136.509 28.0037 135.915 28.117 135.357 28.3288C133.838 28.9063 133.328 30.6561 133.328 32.282V40.2029H126.533V21.3957H133.328V24.6203C133.721 23.1589 134.759 22.1105 136.096 21.5228C136.709 21.2369 137.386 21.0939 138.094 21.0939H139.525Z"></path>
<path fill="black" d="M162.756 12.8975H169.551V40.2029H162.756V12.8975Z"></path>
<path fill="black" d="M179.492 12.8975H172.697V40.2029H179.492V12.8975Z"></path>
<path fill="black" d="M140.311 30.8152C140.311 25.4463 144.826 21.0939 150.378 21.0939C155.946 21.0939 160.444 25.4463 160.444 30.8152C160.444 36.1842 155.93 40.5365 150.378 40.5365C144.826 40.5365 140.311 36.1842 140.311 30.8152ZM146.147 30.8152C146.147 33.0708 148.05 34.8975 150.378 34.8975C152.721 34.8975 154.609 33.0708 154.609 30.8152C154.609 28.5596 152.706 26.7329 150.378 26.7329C148.05 26.7329 146.147 28.5596 146.147 30.8152Z" clip-rule="evenodd" fill-rule="evenodd"></path>
</svg>
