<svg xmlns="http://www.w3.org/2000/svg" fill="none" viewBox="0 0 114 37" height="37" width="114">
<path fill="black" d="M14.0053 20.9799H7.26958L7.27273 14.2475H14.0087L14.0053 20.9799Z"></path>
<path fill="black" d="M20.7377 27.7122H14.002L14.0053 20.9799H20.7411L20.7377 27.7122Z"></path>
<path fill="black" d="M20.7411 20.9799H14.0053L14.0087 14.2475H20.7444L20.7411 20.9799Z"></path>
<path fill="black" d="M27.4768 20.9799H20.7411L20.7444 14.2475H27.4801L27.4768 20.9799Z"></path>
<path fill="black" d="M14.0087 14.2475H7.27273L7.27602 7.51497H14.0119L14.0087 14.2475Z"></path>
<path fill="black" d="M27.4801 14.2475H20.7444L20.7475 7.51497H27.4834L27.4801 14.2475Z"></path>
<path fill="black" d="M7.26958 20.9799H0.533837L0.536989 14.2475H7.27273L7.26958 20.9799Z"></path>
<path fill="black" d="M7.27273 14.2475H0.536989L0.540274 7.51497H7.27602L7.27273 14.2475Z"></path>
<path fill="black" d="M7.27602 7.51497H0.540274L0.543604 0.782609H7.27952L7.27602 7.51497Z"></path>
<path fill="black" d="M34.2192 7.51496L27.4834 7.51497L27.4866 0.782608H34.2225L34.2192 7.51496Z"></path>
<path fill="black" d="M7.26625 27.7122H0.530506L0.533837 20.9799H7.26958L7.26625 27.7122Z"></path>
<path fill="black" d="M7.26296 34.4447H0.527222L0.530506 27.7122H7.26625L7.26296 34.4447Z"></path>
<path fill="black" d="M34.2126 20.9799H27.4768L27.4801 14.2475H34.2159L34.2126 20.9799Z"></path>
<path fill="black" d="M34.2159 14.2475H27.4801L27.4834 7.51497L34.2192 7.51496L34.2159 14.2475Z"></path>
<path fill="black" d="M34.2092 27.7122H27.4735L27.4768 20.9799H34.2126L34.2092 27.7122Z"></path>
<path fill="black" d="M34.2059 34.4447H27.4702L27.4735 27.7122H34.2092L34.2059 34.4447Z"></path>
<path fill="black" d="M10.0773 7.51434H3.34172L3.34488 0.781983H10.0808L10.0773 7.51434Z"></path>
<path fill="black" d="M37.0204 7.51434H30.2847L30.2878 0.781982H37.0238L37.0204 7.51434Z"></path>
<path fill="black" d="M16.8064 20.9792H10.0709L10.074 14.2469H16.8099L16.8064 20.9792Z"></path>
<path fill="black" d="M23.5424 20.9793L16.8064 20.9792L16.8099 14.2469L23.5457 14.2469L23.5424 20.9793Z"></path>
<path fill="black" d="M30.2781 20.9793H23.5424L23.5457 14.2469H30.2814L30.2781 20.9793Z"></path>
<path fill="black" d="M10.0709 20.9792H3.33511L3.33826 14.2469H10.074L10.0709 20.9792Z"></path>
<path fill="black" d="M37.0138 20.9792L30.2781 20.9793L30.2814 14.2469L37.0172 14.2469L37.0138 20.9792Z"></path>
<path fill="black" d="M16.8099 14.2469H10.074L10.0773 7.51434L16.8132 7.51436L16.8099 14.2469Z"></path>
<path fill="black" d="M30.2814 14.2469H23.5457L23.5488 7.51436L30.2847 7.51434L30.2814 14.2469Z"></path>
<path fill="black" d="M10.074 14.2469H3.33826L3.34172 7.51434H10.0773L10.074 14.2469Z"></path>
<path fill="black" d="M37.0172 14.2469L30.2814 14.2469L30.2847 7.51434H37.0204L37.0172 14.2469Z"></path>
<path fill="black" d="M23.539 27.7116H16.8033L16.8064 20.9792L23.5424 20.9793L23.539 27.7116Z"></path>
<path fill="black" d="M10.0674 27.7116H3.3318L3.33511 20.9792H10.0709L10.0674 27.7116Z"></path>
<path fill="black" d="M37.0105 27.7116H30.2748L30.2781 20.9793L37.0138 20.9792L37.0105 27.7116Z"></path>
<path fill="black" d="M10.0641 34.4441H3.3285L3.3318 27.7116H10.0674L10.0641 34.4441Z"></path>
<path fill="black" d="M37.0072 34.4441H30.2715L30.2748 27.7116H37.0105L37.0072 34.4441Z"></path>
<path fill="black" d="M48.1867 7.15659H50.6426L51.6558 10.8208L52.0034 12.2506H52.0671L52.4105 10.8208L53.4285 7.15659H55.8843V17.4965H53.904V14.2956C53.904 13.1313 54.1083 10.6099 54.2176 9.49247H54.1701L53.3764 12.2677L52.5714 14.7585H51.4355L50.6164 12.2677L49.8762 9.49247H49.8214C49.9399 10.6099 50.135 13.1313 50.135 14.2956V17.4965H48.1867V7.15659Z"></path>
<path fill="black" d="M57.9734 15.5343H60.3893V9.11876H57.9734V7.15648H65.146V9.11876H62.7308V15.5343H65.146V17.4966H57.9734V15.5343Z"></path>
<path fill="black" d="M67.1223 16.1938L68.4661 14.5866C69.2481 15.2267 70.2131 15.6656 71.2161 15.6656C72.2096 15.6656 72.6685 15.2811 72.6685 14.7756C72.6685 14.0311 72.0535 13.851 71.0747 13.4413L69.7269 12.8663C68.5809 12.431 67.5341 11.5524 67.5341 10.0474C67.5341 8.33493 69.0775 6.96618 71.3257 6.96618C72.5699 6.96618 73.8271 7.43264 74.7612 8.31996L73.5817 9.79512C72.8529 9.27213 72.2082 8.98736 71.1973 8.98736C70.4265 8.98736 69.903 9.30704 69.903 9.91078C69.903 10.5328 70.5964 10.7606 71.5887 11.1323L72.8543 11.6683C74.2092 12.1759 75.0642 13.0205 75.0642 14.4797C75.0642 16.1985 73.6216 17.6868 71.0607 17.6868C69.6628 17.6868 68.2192 17.1756 67.1223 16.1938Z"></path>
<path fill="black" d="M79.4387 9.1188H76.3373V7.15652H84.8813V9.1188H81.7803V17.4966H79.4387V9.1188Z"></path>
<path fill="black" d="M88.8196 9.01378H89.9612C91.1909 9.01378 91.8508 9.35698 91.8508 10.378C91.8508 11.3903 91.1909 11.9194 89.9612 11.9194H88.8196V9.01378ZM94.6426 17.4966L92.303 13.3599C93.4075 12.8607 94.1465 11.8974 94.1465 10.378C94.1465 7.91793 92.3431 7.15648 90.1518 7.15648H86.4736V17.4966H88.8196V13.7767H90.0486L92.0238 17.4966H94.6426Z"></path>
<path fill="black" d="M98.5289 13.2142L98.7737 12.2616L99.5764 8.92696H99.6398C99.8886 10.0181 100.204 11.2291 100.466 12.2616L100.709 13.2142H98.5289ZM101.802 17.4964H104.284L101.062 7.15659H98.2554L95.0333 17.4964H97.429L98.0606 15.0375H101.174L101.802 17.4964Z"></path>
<path fill="black" d="M106.113 7.15659H108.45V15.5344H113.054V17.4964H106.113V7.15659Z"></path>
<path fill="black" d="M50.9059 29.8018L51.1507 28.8491L51.9534 25.5143H52.0168C52.2656 26.6054 52.5807 27.8167 52.8428 28.8491L53.0859 29.8018H50.9059ZM54.1775 34.0881H56.6609L53.4376 23.7439H50.6301L47.4067 34.0881H49.8034L50.4354 31.6277H53.55L54.1775 34.0881Z"></path>
<path fill="black" d="M57.9734 32.1219H60.3893V25.7061H57.9734V23.7438H65.146V25.7061H62.7308V32.1219H65.146V34.0841H57.9734V32.1219Z"></path>
<path fill="black" d="M67.2747 34.9384H74.8946V36.6946H67.2747V34.9384Z"></path>
</svg>
