<svg xmlns="http://www.w3.org/2000/svg" fill="none" viewBox="0 0 149 37" height="37" width="149">
<path fill="black" d="M29.7717 14.5874L30.8941 27.4104L26.4099 27.8029L25.3481 15.7668C25.1752 13.6812 23.5237 12.0418 21.1977 12.2459C18.9219 12.4447 17.5436 14.3574 17.7252 16.4326L18.7784 28.4687L14.2942 28.8613L13.2428 16.8269C13.0595 14.7413 11.4097 13.1019 9.09239 13.3059C6.80795 13.5048 5.42794 15.4088 5.61125 17.4944L6.67133 29.5305L2.17507 29.9214L0.44574 10.098L4.69298 9.72622L4.81749 11.1425C5.97614 9.89224 7.60517 9.03622 9.65961 8.85637C12.0115 8.65058 14.0608 9.42186 15.4909 10.8434C16.7724 9.18494 18.7766 8.05915 21.253 7.84298C25.8565 7.44005 29.3999 10.3401 29.7717 14.5874ZM65.1556 6.39034C71.1563 6.39034 75.5315 10.9316 75.5315 16.8148C75.5315 22.5406 71.1494 27.1596 65.1556 27.1596C59.1617 27.1596 54.7796 22.5406 54.7796 16.8148C54.7709 10.9298 59.1548 6.39034 65.1556 6.39034ZM65.1556 22.736C68.6298 22.736 71.0353 20.2094 71.0353 16.813C71.0353 13.3388 68.6263 10.8122 65.1556 10.8122C61.6848 10.8122 59.2758 13.3388 59.2758 16.813C59.2724 20.2094 61.6813 22.736 65.1556 22.736ZM95.5589 19.701L94.4781 32.0519L89.9974 31.6507L91.0091 20.0866C91.2183 17.6881 89.7363 15.6163 87.1008 15.3846C84.5068 15.1581 82.6443 16.941 82.4316 19.3361L81.4199 30.9002L76.9358 30.5076L78.6651 10.6843L83.1095 11.0734L82.9781 12.5675C84.422 11.4659 86.2932 10.916 88.3788 11.0976C92.9494 11.5057 95.9567 15.1771 95.5589 19.701ZM118.559 17.0534C118.559 22.8173 114.454 27.3983 108.648 27.3983C106.239 27.3983 104.152 26.5682 102.647 25.2262V35.3342H98.1512V7.06478H102.613V8.84081C104.152 7.45734 106.244 6.62899 108.653 6.62899C114.445 6.63072 118.559 11.1702 118.559 17.0534ZM114.063 17.0534C114.063 13.5792 111.694 11.0128 108.299 11.0128C104.851 11.0128 102.476 13.5792 102.476 17.0534C102.476 20.4481 104.845 23.0161 108.28 23.0161C111.681 23.0161 114.051 20.4498 114.051 17.0534H114.063ZM148.891 8.90479L147.209 28.1384C146.747 33.4872 142.424 37.1517 136.675 36.6484C132.152 36.2524 128.914 33.3938 128.069 29.4752L132.373 28.3062C132.812 30.5249 134.538 32.1107 137.056 32.3217C140.169 32.5932 142.472 30.6546 142.739 27.6265L142.911 25.6603C141.34 26.8708 139.264 27.4813 136.983 27.2824C131.555 26.8068 127.922 22.1307 128.404 16.6228C128.89 11.0768 133.246 7.09764 138.707 7.57667C140.988 7.77554 142.962 8.7872 144.297 10.2848L144.452 8.51569L148.891 8.90479ZM143.735 18.0063C144.015 14.8191 141.94 12.2597 138.792 11.9847C135.645 11.7098 133.158 13.8697 132.88 17.0551C132.612 20.123 134.687 22.6824 137.832 22.9573C140.978 23.2323 143.461 21.0724 143.736 18.0045L143.735 18.0063ZM42.8558 10.9298C36.8551 10.9298 32.4799 15.4711 32.4799 21.3542C32.4799 27.0801 36.862 31.6991 42.8558 31.6991C48.8497 31.6991 53.2318 27.0801 53.2318 21.3542C53.2405 15.4693 48.8584 10.9298 42.8558 10.9298ZM42.8558 27.2755C39.3816 27.2755 36.9761 24.7489 36.9761 21.3525C36.9761 17.8783 39.3851 15.3517 42.8558 15.3517C46.3266 15.3517 48.7356 17.8783 48.7356 21.3525C48.739 24.7489 46.3318 27.2755 42.8558 27.2755ZM123.173 0.695658C123.565 0.685183 123.954 0.754601 124.318 0.899679C124.682 1.04476 125.013 1.26245 125.29 1.53948C125.567 1.81652 125.784 2.14708 125.929 2.51102C126.075 2.87495 126.144 3.26463 126.133 3.65627C126.133 4.44171 125.821 5.19497 125.266 5.75035C124.711 6.30574 123.957 6.61775 123.172 6.61775C122.387 6.61775 121.633 6.30574 121.078 5.75035C120.523 5.19497 120.211 4.44171 120.211 3.65627C120.2 3.26448 120.27 2.87466 120.415 2.5106C120.56 2.14655 120.778 1.8159 121.055 1.53884C121.332 1.26178 121.663 1.04413 122.027 0.899155C122.391 0.754185 122.781 0.684944 123.173 0.695658ZM125.421 30.2672H120.925V10.3695H125.421V30.2672Z"></path>
</svg>
