<svg xmlns="http://www.w3.org/2000/svg" fill="none" viewBox="0 0 240 57" height="57" width="240">
<path fill="black" d="M79.6119 16.0053C81.2083 18.7306 81.552 22.0128 80.5538 25.009L80.5551 25.0062C83.7851 28.5813 84.3379 33.8325 81.9219 38.0016C80.3585 40.7475 77.6868 42.685 74.5916 43.3189C73.1094 47.9073 68.833 51.0121 64.0122 50.9998C60.8537 51.0204 57.8397 49.677 55.7441 47.3147C51.0305 48.3267 46.2042 46.1762 43.8034 41.9961C42.2069 39.2708 41.8632 35.9886 42.8615 32.9924C39.6301 29.4173 39.0788 24.1619 41.4974 19.9929C43.0608 17.2469 45.7325 15.3095 48.8277 14.6756C50.31 10.0913 54.585 6.9892 59.4031 7.0002C62.5615 6.98095 65.5742 8.32436 67.6711 10.6867C72.3847 9.67464 77.2111 11.8252 79.6119 16.0053ZM58.7362 46.216C60.2171 47.4522 62.0858 48.1273 64.0149 48.1246C68.5635 48.115 72.2472 44.4271 72.2527 39.8785V29.6497C72.2472 29.6057 72.2211 29.5672 72.1812 29.5479L68.4783 27.4098V39.7617C68.481 40.2773 68.206 40.7544 67.7577 41.0088L58.9961 46.0689C58.9204 46.1157 58.8036 46.1803 58.7362 46.216ZM45.3159 35.0329C44.9845 36.9318 45.3324 38.8885 46.299 40.5578H46.3004C48.5816 44.4972 53.6197 45.8475 57.5647 43.576L66.4212 38.4622C66.4556 38.4347 66.4762 38.3921 66.4735 38.3481V34.0718L55.7771 40.2484C55.3316 40.5083 54.7816 40.5083 54.3375 40.2484L45.5758 35.1883C45.5216 35.1571 45.4527 35.1154 45.3937 35.0797C45.3643 35.062 45.3374 35.0457 45.3159 35.0329ZM48.2846 17.8176C46.475 18.4817 44.9556 19.7605 43.9931 21.4325L43.9917 21.4339C41.7229 25.3775 43.0732 30.4142 47.0099 32.694L55.8679 37.8119C55.9091 37.8297 55.9559 37.8256 55.993 37.8009L59.6959 35.6627L48.9996 29.4874C48.5527 29.233 48.2777 28.7559 48.2805 28.2417V18.1201C48.2805 18.0708 48.2816 18.0106 48.2827 17.9535C48.2837 17.9021 48.2846 17.8534 48.2846 17.8176ZM63.7207 22.3359L74.417 28.5125H74.4184C74.8639 28.7683 75.1375 29.2441 75.1334 29.7583V40.1824C76.9416 39.5169 78.4596 38.2381 79.4235 36.5688C81.7019 32.6252 80.3503 27.5803 76.4067 25.3018L67.5487 20.1881C67.5075 20.1702 67.4607 20.1744 67.4236 20.1991L63.7207 22.3359ZM78.0996 22.9641C78.0346 22.924 77.9223 22.8564 77.8422 22.8103L69.0805 17.7502C68.6364 17.4903 68.0864 17.4903 67.6409 17.7502L56.9445 23.9268V19.6505C56.9418 19.6065 56.9624 19.5638 56.9968 19.5363L65.8533 14.4267C69.7983 12.1511 74.8419 13.5055 77.1162 17.4518C78.0771 19.1179 78.425 21.0684 78.0996 22.9641ZM51.2271 28.4493L54.9315 30.5875L54.937 18.2383C54.9342 17.7227 55.2092 17.2469 55.6575 16.9925L64.4192 11.9324C64.4962 11.8857 64.6117 11.8211 64.6791 11.7853C63.1981 10.5533 61.3336 9.87677 59.4072 9.87677C54.8531 9.87402 51.1584 13.5646 51.1556 18.1187V28.3475C51.1611 28.3915 51.1873 28.43 51.2271 28.4493ZM61.7076 23.4992L56.9431 26.2506V31.7507L61.7076 34.5008L66.4721 31.7507V26.2492L61.7076 23.4992Z" clip-rule="evenodd" fill-rule="evenodd"></path>
<path fill="black" d="M90.2312 28.1537C90.2312 35.3478 94.8513 40.3639 101.253 40.3639C107.656 40.3639 112.276 35.3478 112.276 28.1537C112.276 20.9595 107.656 15.9434 101.253 15.9434C94.8513 15.9434 90.2312 20.9595 90.2312 28.1537ZM108.052 28.1537C108.052 33.3018 105.247 36.6348 101.253 36.6348C97.2604 36.6348 94.4553 33.3018 94.4553 28.1537C94.4553 23.0055 97.2604 19.6725 101.253 19.6725C105.247 19.6725 108.052 23.0055 108.052 28.1537Z" clip-rule="evenodd" fill-rule="evenodd"></path>
<path fill="black" d="M124.171 40.3639C129.022 40.3639 131.794 36.2718 131.794 31.3547C131.794 26.4376 129.022 22.3455 124.171 22.3455C121.927 22.3455 120.277 23.2366 119.188 24.5236V22.6755H115.228V45.941H119.188V38.1859C120.277 39.4729 121.927 40.3639 124.171 40.3639ZM119.089 30.8597C119.089 27.5927 120.937 25.8106 123.379 25.8106C126.25 25.8106 127.801 28.0547 127.801 31.3547C127.801 34.6548 126.25 36.8988 123.379 36.8988C120.937 36.8988 119.089 35.0838 119.089 31.8827V30.8597Z" clip-rule="evenodd" fill-rule="evenodd"></path>
<path fill="black" d="M149.936 35.5128C148.715 38.5489 145.976 40.3639 142.511 40.3639C137.561 40.3639 134.096 36.7008 134.096 31.3547C134.096 26.2726 137.33 22.3455 142.346 22.3455C147.362 22.3455 150.035 26.1406 150.035 30.8927V32.2128H137.891C138.188 35.1828 139.97 36.9979 142.511 36.9979C144.458 36.9979 146.009 36.0078 146.537 34.2258L149.936 35.5128ZM146.042 29.2427C146.009 27.3286 144.821 25.6786 142.313 25.6786C140.267 25.6786 138.683 26.8996 138.089 29.2427H146.042Z" clip-rule="evenodd" fill-rule="evenodd"></path>
<path fill="black" d="M153.007 40.0009H156.967V29.8367C156.967 27.3616 158.782 26.0416 160.564 26.0416C162.742 26.0416 163.6 27.5927 163.6 29.7377V40.0009H167.56V28.5827C167.56 24.8536 165.382 22.3455 161.752 22.3455C159.508 22.3455 157.957 23.3686 156.967 24.5236V22.6755H153.007V40.0009Z"></path>
<path fill="black" d="M170.182 40.0009L179.158 16.3064H183.944L192.92 40.0009H188.663L186.617 34.5888H176.386L174.373 40.0009H170.182ZM185.231 30.8927L181.469 20.9925L177.772 30.8927H185.231Z" clip-rule="evenodd" fill-rule="evenodd"></path>
<path fill="black" d="M199.718 16.3751H195.494V40.0697H199.718V16.3751Z"></path>
</svg>
