<svg xmlns="http://www.w3.org/2000/svg" fill="none" viewBox="0 0 127 57" height="57" width="127">
<path fill="black" d="M16.8787 33.6259C19.5496 33.6259 21.7219 31.4521 21.7219 28.7828C21.7219 26.1118 19.5496 23.9396 16.8787 23.9396C14.2078 23.9396 12.0355 26.1118 12.0355 28.7828C12.0355 31.4537 14.2078 33.6259 16.8787 33.6259ZM32.8795 28.7828C32.8795 37.6199 25.7143 44.782 16.8787 44.782C13.8357 44.782 10.9919 43.9328 8.56954 42.4584L12.738 37.5057C13.9932 38.1047 15.3981 38.4397 16.8787 38.4397C22.2035 38.4397 26.5372 34.1061 26.5372 28.7812C26.5372 23.4564 22.2035 19.1242 16.8787 19.1242C11.5539 19.1242 7.22019 23.4579 7.22019 28.7812C7.22019 30.8315 7.86399 32.7335 8.9586 34.299L4.78703 39.2549C2.35388 36.4481 0.87793 32.7907 0.87793 28.7828C0.87793 19.9471 8.04308 12.782 16.8787 12.782C25.7143 12.782 32.8779 19.9471 32.8779 28.7828H32.8795Z"></path>
<path fill="black" d="M46.4775 44.0704C44.5673 44.0704 42.6632 43.7124 40.765 42.9943C38.8689 42.2783 37.1748 41.2322 35.6806 39.8581L39.4449 35.3337C40.491 36.2298 41.6551 36.9619 42.9392 37.5279C44.2233 38.096 45.4634 38.38 46.6575 38.38C48.0316 38.38 49.0537 38.126 49.7257 37.6179C50.3978 37.1099 50.7338 36.4238 50.7338 35.5578C50.7338 34.6317 50.3538 33.9516 49.5917 33.5196C48.8297 33.0856 47.8076 32.6015 46.5235 32.0635L42.7152 30.4494C41.7291 30.0313 40.789 29.4713 39.893 28.7692C38.9969 28.0672 38.2648 27.1951 37.6968 26.149C37.1288 25.1029 36.8447 23.8788 36.8447 22.4747C36.8447 20.8606 37.2848 19.3985 38.1668 18.0844C39.0489 16.7703 40.273 15.7242 41.8411 14.9482C43.4092 14.1701 45.2094 13.7821 47.2395 13.7821C48.9137 13.7821 50.5858 14.1101 52.2579 14.7681C53.9301 15.4262 55.3942 16.3823 56.6483 17.6364L53.288 21.8027C52.3319 21.0566 51.3759 20.4806 50.4218 20.0786C49.4657 19.6745 48.4056 19.4725 47.2395 19.4725C46.1055 19.4725 45.2014 19.7045 44.5293 20.1666C43.8573 20.6306 43.5213 21.2806 43.5213 22.1167C43.5213 23.0128 43.9473 23.6848 44.7974 24.1329C45.6494 24.5809 46.7035 25.0589 47.9576 25.567L51.7199 27.0891C53.482 27.8072 54.8861 28.7932 55.9322 30.0473C56.9783 31.3014 57.5003 32.9576 57.5003 35.0197C57.5003 36.6338 57.0663 38.126 56.2002 39.5001C55.3342 40.8742 54.0801 41.9783 52.4379 42.8163C50.7958 43.6524 48.8077 44.0704 46.4775 44.0704Z"></path>
<path fill="black" d="M69.2693 43.5944H62.6827V14.3821H69.2693V43.5944Z"></path>
<path fill="black" d="M82.5563 43.5944H76.2838V14.3821H83.0483L90.6649 28.8992L93.5331 35.3497H93.7112C93.5932 33.7976 93.4291 32.0655 93.2191 30.1533C93.0091 28.2412 92.9051 26.419 92.9051 24.6869V14.3821H99.1776V43.5944H92.4131L84.7965 29.0332L81.9282 22.6708H81.7502C81.9002 24.2849 82.0703 26.017 82.2643 27.8692C82.4583 29.7193 82.5563 31.5114 82.5563 33.2456V43.5944Z"></path>
<path fill="black" d="M118.737 43.5944H112.107V19.9385H104.086V14.3821H126.756V19.9385H118.737V43.5944Z"></path>
</svg>
