<svg width="486" height="158" viewBox="0 0 486 158" fill="none" xmlns="http://www.w3.org/2000/svg">
<path d="M170.52 58.2098H187.26C189.914 58.1776 192.541 58.7522 194.94 59.8898C197.165 60.929 199.064 62.5579 200.43 64.5998C201.742 66.6287 202.44 68.9935 202.44 71.4098C202.44 73.826 201.742 76.1909 200.43 78.2198C199.064 80.2617 197.165 81.8906 194.94 82.9298C192.541 84.0673 189.914 84.6419 187.26 84.6098H175.2V99.4298H170.52V58.2098ZM186.42 80.2098C189.333 80.3539 192.212 79.5313 194.61 77.8698C195.574 77.1008 196.353 76.1243 196.889 75.0128C197.424 73.9013 197.702 72.6835 197.702 71.4498C197.702 70.2161 197.424 68.9982 196.889 67.8867C196.353 66.7753 195.574 65.7988 194.61 65.0298C192.212 63.3683 189.333 62.5456 186.42 62.6898H175.2V80.1698L186.42 80.2098Z" fill="black"/>
<path d="M209.82 58.21H214.5V99.43H209.82V58.21Z" fill="black"/>
<path d="M225.78 58.21H230.46L256 91.75V58.21H260.68V99.43H256L230.46 65.89V99.43H225.78V58.21Z" fill="black"/>
<path d="M272 58.21H276.68L302.24 91.75V58.21H306.92V99.43H302.24L276.66 65.89V99.43H272V58.21Z" fill="black"/>
<path d="M318.18 58.21H322.86V99.43H318.18V58.21Z" fill="black"/>
<path d="M334.14 58.2102H350.88C353.534 58.1791 356.161 58.7536 358.56 59.8902C360.784 60.932 362.682 62.5604 364.05 64.6002C365.362 66.6291 366.06 68.9939 366.06 71.4102C366.06 73.8265 365.362 76.1913 364.05 78.2202C362.682 80.26 360.784 81.8884 358.56 82.9302C356.161 84.0667 353.534 84.6413 350.88 84.6102H338.82V99.4302H334.14V58.2102ZM350.04 80.2102C352.953 80.3544 355.832 79.5317 358.23 77.8702C359.194 77.1012 359.973 76.1247 360.509 75.0132C361.044 73.9017 361.322 72.6839 361.322 71.4502C361.322 70.2165 361.044 68.9986 360.509 67.8872C359.973 66.7757 359.194 65.7992 358.23 65.0302C355.826 63.346 352.931 62.5087 350 62.6502H338.82V80.1702L350.04 80.2102Z" fill="black"/>
<path d="M378.18 62.65V76.21H400.56V80.65H378.18V95H403V99.44H373.44V58.21H403V62.65H378.18Z" fill="black"/>
<path d="M411.12 58.2101H425C429.004 58.1376 432.966 59.0438 436.54 60.8501C439.809 62.5072 442.551 65.0419 444.46 68.1701C446.334 71.4012 447.321 75.07 447.321 78.8051C447.321 82.5402 446.334 86.209 444.46 89.4401C442.558 92.5817 439.815 95.1279 436.54 96.7901C432.966 98.5963 429.004 99.5026 425 99.4301H411.12V58.2101ZM425.04 95.2101C428.193 95.266 431.312 94.5448 434.12 93.1101C436.704 91.7888 438.868 89.7733 440.37 87.2901C441.842 84.7189 442.616 81.8077 442.616 78.8451C442.616 75.8825 441.842 72.9713 440.37 70.4001C438.861 67.9302 436.698 65.9263 434.12 64.6101C431.312 63.1754 428.193 62.4542 425.04 62.5101H415.79V95.2101H425.04Z" fill="black"/>
<path d="M91.1397 25.5C80.7562 25.5 70.6058 28.5791 61.9722 34.3478C53.3387 40.1166 46.6096 48.316 42.636 57.9091C38.6624 67.5022 37.6227 78.0582 39.6484 88.2422C41.6742 98.4262 46.6743 107.781 54.0166 115.123C61.3588 122.465 70.7134 127.466 80.8974 129.491C91.0814 131.517 101.637 130.477 111.231 126.504C120.824 122.53 129.023 115.801 134.792 107.167C140.561 98.5339 143.64 88.3835 143.64 78C143.637 64.0769 138.105 50.7249 128.26 40.8798C118.415 31.0347 105.063 25.5027 91.1397 25.5ZM91.1397 120.83C82.67 120.824 74.3922 118.307 67.3528 113.597C60.3134 108.887 54.8284 102.196 51.5913 94.3696C48.3542 86.5429 47.5103 77.9321 49.1663 69.6259C50.8223 61.3197 54.9038 53.6909 60.8949 47.704C66.886 41.7171 74.5176 37.641 82.825 35.9908C91.1324 34.3406 99.7425 35.1905 107.567 38.4331C115.391 41.6757 122.079 47.1653 126.784 54.208C131.488 61.2508 134 69.5303 134 78C134 83.627 132.891 89.1989 130.737 94.3973C128.582 99.5956 125.425 104.318 121.444 108.296C117.464 112.274 112.739 115.428 107.539 117.578C102.339 119.729 96.7667 120.834 91.1397 120.83Z" fill="black"/>
<path d="M91.1602 84.71C95.5784 84.71 99.1602 81.1282 99.1602 76.71C99.1602 72.2917 95.5784 68.71 91.1602 68.71C86.7419 68.71 83.1602 72.2917 83.1602 76.71C83.1602 81.1282 86.7419 84.71 91.1602 84.71Z" fill="black"/>
<path d="M118.92 58.4502L120.58 65.3402L125.7 64.6802L122.7 52.2602L122.55 51.7602L110.82 46.6802L109.29 51.6802L115.77 54.4802L101.26 66.6502C102.477 67.8746 103.46 69.3116 104.16 70.8902L118.92 58.4502Z" fill="black"/>
<path d="M66.4603 54.4099L73.0003 51.6099L71.4703 46.6099L59.6803 51.7299L59.5303 52.2299L56.5303 64.6499L61.6603 65.3099L63.3103 58.4199L78.1303 70.9399C78.8206 69.3575 79.7931 67.914 81.0003 66.6799L66.4603 54.4099Z" fill="black"/>
<path d="M57.4905 82.8202L59.2105 76.0002L54.3405 74.2002L51.2305 86.5602L51.5405 86.9802L59.5405 96.9202L63.2005 93.2602L58.7305 87.7502L78.5505 83.4002C77.7453 81.8868 77.2202 80.2403 77.0005 78.5402L57.4905 82.8202Z" fill="black"/>
<path d="M128 74.1699L123.11 75.9999L124.83 82.8499L105.29 78.5699C105.071 80.281 104.543 81.938 103.73 83.4599L123.54 87.8099L119.08 93.3199L122.73 96.9999L130.73 87.0599L131.04 86.6399L128 74.1699Z" fill="black"/>
<path d="M103.35 109L96.2698 108.67L95.4799 113.78L108.24 114.36H108.8L116.94 104.5L112.6 101.65L108.1 107.1L99.6698 88.1001C98.292 89.1281 96.7407 89.9004 95.0898 90.3801L103.35 109Z" fill="black"/>
<path d="M74.2404 107.08L69.7404 101.63L65.4004 104.48L73.5404 114.34H74.1004L86.8604 113.76L86.0804 108.65L79.0004 109L87.2604 90.4302C85.6061 89.9562 84.0511 89.1872 82.6704 88.1602L74.2404 107.08Z" fill="black"/>
<path d="M93.7796 62.7002V43.8402L100.12 47.0002L102.91 42.6502L91.4896 37.0002L90.9996 36.7402L79.5596 42.4402L82.3596 46.8102L88.6896 43.6602V62.6602C89.5115 62.5124 90.3445 62.4355 91.1796 62.4302C92.0524 62.4444 92.9224 62.5347 93.7796 62.7002Z" fill="black"/>
</svg>
