<svg width="282" height="70" viewBox="0 0 282 70" fill="none" xmlns="http://www.w3.org/2000/svg">
<path d="M24.9125 0C11.1752 0 0 11.2727 0 25.1261V55.4H5.63246V25.1227C5.64007 19.9681 7.67391 15.0269 11.2881 11.3824C14.9022 7.73792 19.8018 5.68752 24.9125 5.68074H60.4142V41.4851C60.4075 46.64 58.3743 51.5818 54.7604 55.227C51.1465 58.8722 46.2469 60.9232 41.1359 60.9305H18.1404V36.988C18.1404 26.3763 26.5196 17.7425 36.8176 17.7425H48.0063V30.3815C48.0063 40.9932 39.627 49.6271 29.3274 49.6271H24.7753V55.3095H29.3274C42.7345 55.3095 53.6387 44.1256 53.6387 30.373V12.0618H36.8176C23.4121 12.0618 12.5062 23.2439 12.5062 36.988V66.5924V66.6129H41.1359C54.8732 66.6129 66.0484 55.3402 66.0484 41.4851V0H24.9125Z" fill="#121212"/>
<path d="M105.198 12.2645C108.498 12.2645 111.027 13.0834 112.785 14.7213C114.543 16.335 115.423 18.5028 115.423 21.2245C115.423 22.3084 115.254 23.4043 114.917 24.5122C114.604 25.5961 114.086 26.5836 113.363 27.4748C112.665 28.366 111.713 29.0886 110.509 29.6426C109.329 30.1725 107.872 30.4374 106.137 30.4374H102.38V38.8555H97.1412V12.2645H105.198ZM106.101 25.3432C107.161 25.3432 107.98 25.1144 108.558 24.6568C109.16 24.175 109.582 23.6211 109.823 22.9948C110.063 22.3686 110.184 21.8267 110.184 21.369C110.184 21.1041 110.136 20.7548 110.039 20.3213C109.967 19.8636 109.798 19.406 109.534 18.9484C109.269 18.4907 108.859 18.1054 108.305 17.7922C107.775 17.4791 107.053 17.3226 106.137 17.3226H102.38V25.3432H106.101ZM132.791 12.2645L138.861 27.258L144.569 12.2645H150.784L138.644 40.0839L126.505 12.2645H132.791ZM160.63 25.5961C160.63 23.7656 160.979 22.0314 161.677 20.3935C162.376 18.7557 163.339 17.3105 164.568 16.058C165.82 14.7815 167.265 13.7819 168.903 13.0593C170.541 12.3368 172.299 11.9755 174.178 11.9755C176.033 11.9755 177.779 12.3368 179.417 13.0593C181.054 13.7819 182.5 14.7815 183.752 16.058C185.029 17.3105 186.016 18.7557 186.715 20.3935C187.437 22.0314 187.799 23.7656 187.799 25.5961C187.799 27.4748 187.437 29.2331 186.715 30.871C186.016 32.5088 185.029 33.954 183.752 35.2064C182.5 36.4348 181.054 37.3983 179.417 38.0968C177.779 38.7953 176.033 39.1445 174.178 39.1445C172.299 39.1445 170.541 38.7953 168.903 38.0968C167.265 37.3983 165.82 36.4348 164.568 35.2064C163.339 33.954 162.376 32.5088 161.677 30.871C160.979 29.2331 160.63 27.4748 160.63 25.5961ZM166.049 25.5961C166.049 27.1617 166.41 28.5948 167.133 29.8955C167.879 31.172 168.879 32.1957 170.131 32.9664C171.384 33.7131 172.793 34.0864 174.359 34.0864C175.876 34.0864 177.237 33.7131 178.441 32.9664C179.67 32.1957 180.633 31.172 181.331 29.8955C182.03 28.5948 182.379 27.1617 182.379 25.5961C182.379 23.9823 182.018 22.5372 181.295 21.2606C180.573 19.96 179.597 18.9363 178.369 18.1897C177.141 17.4189 175.756 17.0335 174.214 17.0335C172.673 17.0335 171.288 17.4189 170.059 18.1897C168.831 18.9363 167.855 19.96 167.133 21.2606C166.41 22.5372 166.049 23.9823 166.049 25.5961ZM198.969 12.2645H216.889V17.3226H210.422V38.8555H205.183V17.3226H198.969V12.2645ZM225.465 38.8555L237.459 11.2168H237.748L249.743 38.8555H243.674L241.614 33.6529H232.799L230.631 38.8555H225.465ZM234.641 29.2451H239.88L237.315 22.778L234.641 29.2451ZM262.29 12.2645H267.529V33.7974H280.03V38.8555H262.29V12.2645Z" fill="#121212"/>
<path d="M103.954 51.1716V53.3845H101.124V62.8052H98.8323V53.3845H96.1136V51.1716H103.954ZM119.158 51.1716V53.3845H113.516V55.8661H118.51V58.079H113.516V60.5923H119.38V62.8052H111.224V51.1716H119.158ZM135.534 61.841C135.239 62.0833 134.77 62.3257 134.127 62.5681C133.485 62.8104 132.784 62.9316 132.025 62.9316C130.813 62.9316 129.76 62.6682 128.864 62.1413C127.968 61.6144 127.283 60.9084 126.809 60.0232C126.335 59.1275 126.098 58.1475 126.098 57.0832C126.098 55.9136 126.335 54.8703 126.809 53.9536C127.283 53.0368 127.947 52.3255 128.801 51.8197C129.654 51.3033 130.639 51.0452 131.756 51.0452C132.462 51.0452 133.116 51.14 133.716 51.3297C134.317 51.5194 134.844 51.7565 135.297 52.041L134.396 54.2065C133.564 53.5742 132.71 53.2581 131.835 53.2581C131.245 53.2581 130.692 53.4214 130.176 53.7481C129.659 54.0747 129.248 54.5226 128.943 55.0916C128.637 55.6501 128.485 56.2718 128.485 56.9568C128.485 57.705 128.627 58.3636 128.911 58.9326C129.196 59.4911 129.601 59.9284 130.128 60.2445C130.655 60.5607 131.272 60.7187 131.978 60.7187C132.547 60.7187 133.058 60.6292 133.511 60.45C133.964 60.2603 134.322 60.039 134.586 59.7861L135.534 61.841ZM152.673 62.8052H150.381V58.079H145.18V62.8052H142.888V51.1716H145.18V55.8661H150.381V51.1716H152.673V62.8052ZM171.207 51.1716V63.2794H171.144L163.004 55.9294L163.051 62.8052H160.727V50.7132H160.822L168.947 58.1739L168.899 51.1716H171.207ZM178.55 57.0042C178.55 55.9504 178.813 54.9652 179.34 54.0484C179.878 53.1316 180.599 52.4045 181.506 51.8671C182.422 51.3192 183.413 51.0452 184.477 51.0452C185.542 51.0452 186.527 51.3192 187.433 51.8671C188.35 52.4045 189.077 53.1316 189.614 54.0484C190.162 54.9652 190.436 55.9504 190.436 57.0042C190.436 58.079 190.162 59.0696 189.614 59.9758C189.077 60.8821 188.35 61.6039 187.433 62.1413C186.527 62.6682 185.542 62.9316 184.477 62.9316C183.402 62.9316 182.412 62.6682 181.506 62.1413C180.599 61.6039 179.878 60.8821 179.34 59.9758C178.813 59.0696 178.55 58.079 178.55 57.0042ZM180.921 57.0042C180.921 57.6786 181.079 58.3003 181.395 58.8694C181.722 59.4384 182.159 59.8915 182.707 60.2287C183.265 60.5554 183.882 60.7187 184.556 60.7187C185.21 60.7187 185.805 60.5554 186.342 60.2287C186.88 59.8915 187.301 59.4437 187.607 58.8852C187.913 58.3161 188.065 57.6892 188.065 57.0042C188.065 56.3087 187.907 55.6765 187.591 55.1074C187.275 54.5384 186.843 54.0906 186.295 53.7639C185.758 53.4267 185.157 53.2581 184.493 53.2581C183.829 53.2581 183.223 53.4267 182.675 53.7639C182.138 54.0906 181.711 54.5384 181.395 55.1074C181.079 55.6765 180.921 56.3087 180.921 57.0042ZM200.071 51.1716V60.5923H205.54V62.8052H197.779V51.1716H200.071ZM211.943 57.0042C211.943 55.9504 212.207 54.9652 212.734 54.0484C213.271 53.1316 213.993 52.4045 214.899 51.8671C215.816 51.3192 216.807 51.0452 217.871 51.0452C218.935 51.0452 219.92 51.3192 220.827 51.8671C221.743 52.4045 222.471 53.1316 223.008 54.0484C223.556 54.9652 223.83 55.9504 223.83 57.0042C223.83 58.079 223.556 59.0696 223.008 59.9758C222.471 60.8821 221.743 61.6039 220.827 62.1413C219.92 62.6682 218.935 62.9316 217.871 62.9316C216.796 62.9316 215.805 62.6682 214.899 62.1413C213.993 61.6039 213.271 60.8821 212.734 59.9758C212.207 59.0696 211.943 58.079 211.943 57.0042ZM214.314 57.0042C214.314 57.6786 214.472 58.3003 214.789 58.8694C215.115 59.4384 215.553 59.8915 216.101 60.2287C216.659 60.5554 217.275 60.7187 217.95 60.7187C218.603 60.7187 219.199 60.5554 219.736 60.2287C220.273 59.8915 220.695 59.4437 221.001 58.8852C221.306 58.3161 221.459 57.6892 221.459 57.0042C221.459 56.3087 221.301 55.6765 220.985 55.1074C220.669 54.5384 220.237 54.0906 219.689 53.7639C219.151 53.4267 218.551 53.2581 217.887 53.2581C217.223 53.2581 216.617 53.4267 216.069 53.7639C215.532 54.0906 215.105 54.5384 214.789 55.1074C214.472 55.6765 214.314 56.3087 214.314 57.0042ZM240.609 61.6355C240.43 61.8252 240.109 62.0254 239.645 62.2361C239.192 62.4364 238.686 62.605 238.128 62.7419C237.58 62.8684 237.079 62.9316 236.626 62.9316C235.393 62.9316 234.308 62.6945 233.37 62.2203C232.443 61.7356 231.726 61.0717 231.22 60.2287C230.715 59.3752 230.462 58.4057 230.462 57.3203C230.462 55.961 230.73 54.8124 231.268 53.8745C231.805 52.9261 232.527 52.2201 233.433 51.7565C234.34 51.2823 235.341 51.0452 236.437 51.0452C237.143 51.0452 237.806 51.1242 238.428 51.2823C239.05 51.4403 239.598 51.6458 240.072 51.8987L239.329 54.0326C239.024 53.864 238.602 53.7112 238.065 53.5742C237.538 53.4267 237.095 53.3529 236.737 53.3529C235.472 53.3529 234.503 53.669 233.828 54.3013C233.165 54.9336 232.833 55.8714 232.833 57.1149C232.833 57.8314 232.996 58.4584 233.323 58.9958C233.649 59.5227 234.102 59.9284 234.682 60.2129C235.272 60.4974 235.941 60.6397 236.689 60.6397C237.406 60.6397 237.938 60.5396 238.286 60.3394V58.9326H236.278V56.7197H240.609V61.6355ZM250.563 51.1716V62.8052H248.271V51.1716H250.563ZM266.559 51.1716V53.3845H260.916V55.8661H265.911V58.079H260.916V60.5923H266.78V62.8052H258.624V51.1716H266.559ZM280.421 53.9852C279.409 53.4267 278.53 53.1474 277.781 53.1474C277.276 53.1474 276.88 53.2475 276.596 53.4478C276.322 53.648 276.185 53.9483 276.185 54.3487C276.185 54.7175 276.385 55.0442 276.786 55.3287C277.197 55.6027 277.739 55.8661 278.414 56.119C278.962 56.3193 279.431 56.5511 279.82 56.8145C280.21 57.0674 280.532 57.4204 280.785 57.8736C281.048 58.3267 281.18 58.901 281.18 59.5965C281.18 60.1971 281.022 60.7556 280.706 61.2719C280.4 61.7778 279.947 62.1835 279.346 62.489C278.746 62.7841 278.029 62.9316 277.197 62.9316C276.501 62.9316 275.811 62.8315 275.126 62.6313C274.441 62.4206 273.803 62.1044 273.213 61.6829L274.225 59.8968C274.625 60.1918 275.084 60.4342 275.6 60.6239C276.116 60.8136 276.58 60.9084 276.991 60.9084C277.476 60.9084 277.897 60.8083 278.256 60.6081C278.614 60.3973 278.793 60.0601 278.793 59.5965C278.793 58.9958 278.229 58.4742 277.102 58.0316C276.438 57.7682 275.885 57.5153 275.442 57.2729C274.999 57.0306 274.615 56.6828 274.288 56.2297C273.972 55.7766 273.814 55.2075 273.814 54.5226C273.814 53.5215 274.141 52.7154 274.794 52.1042C275.458 51.493 276.338 51.1611 277.434 51.1084C278.298 51.1084 279.02 51.2085 279.599 51.4087C280.179 51.5984 280.742 51.8724 281.29 52.2307L280.421 53.9852Z" fill="#121212"/>
</svg>
