<svg xmlns="http://www.w3.org/2000/svg" fill="none" viewBox="0 0 140 57" height="57" width="140">
<path fill="black" d="M1.36126 39.6345H0.878435V35.3586H2.4787C3.44251 35.3586 4.07896 35.8707 4.07896 36.7138V36.7266C4.07896 37.6483 3.309 38.1257 2.40005 38.1257H1.36126V39.6345ZM1.36126 35.8048V37.6868H2.41834C3.12612 37.6868 3.59248 37.3082 3.59248 36.7449V36.7321C3.59248 36.1231 3.13343 35.8048 2.44212 35.8048H1.36126Z" clip-rule="evenodd" fill-rule="evenodd"></path>
<path fill="black" d="M6.13827 37.9721V39.6345H5.65544V35.3586H7.49346C8.02017 35.3586 8.44081 35.5159 8.70966 35.7847C8.91815 35.9932 9.04068 36.2913 9.04068 36.6278V36.6406C9.04068 37.3502 8.55055 37.7654 7.87935 37.8879L9.19431 39.6345H8.60175L7.36178 37.9721H6.13827ZM6.13827 35.803V37.5386H7.44957C8.0915 37.5386 8.54872 37.2076 8.54872 36.6589V36.6461C8.54872 36.1212 8.14819 35.803 7.45688 35.803H6.13827Z" clip-rule="evenodd" fill-rule="evenodd"></path>
<path fill="black" d="M13.8908 39.6345H10.769V35.3623H13.8598V35.8012H11.2518V37.2606H13.5854V37.6996H11.2518V39.1956H13.8908V39.6345Z"></path>
<path fill="black" d="M18.485 38.486C18.485 39.2193 17.8741 39.6949 17.0255 39.6949C16.347 39.6949 15.791 39.4699 15.2771 39.0127L15.5771 38.6597C16.0215 39.0602 16.4494 39.2632 17.0438 39.2632C17.6181 39.2632 17.9967 38.956 17.9967 38.5354V38.5225C17.9967 38.1257 17.7809 37.8989 16.8847 37.7105C15.9008 37.4966 15.449 37.1783 15.449 36.476V36.4632C15.449 35.792 16.0416 35.2964 16.8536 35.2964C17.4773 35.2964 17.9235 35.4757 18.3569 35.8231L18.0771 36.1944C17.6784 35.8707 17.2834 35.7299 16.8426 35.7299C16.2867 35.7299 15.9319 36.0353 15.9319 36.4193V36.4322C15.9319 36.8345 16.1513 37.0613 17.0932 37.2625C18.0442 37.4709 18.485 37.8184 18.485 38.4732V38.486Z"></path>
<path fill="black" d="M20.6924 39.6345H20.2096V35.3586H20.6924V39.6345Z"></path>
<path fill="black" d="M24.1252 39.6345H22.6402V35.3586H24.1252C25.4676 35.3586 26.3967 36.2803 26.3967 37.4837V37.4966C26.3967 38.6999 25.4694 39.6345 24.1252 39.6345ZM23.123 35.8048V39.1883H24.1252C25.2061 39.1883 25.8974 38.4567 25.8974 37.5094V37.4966C25.8974 36.5492 25.2061 35.8048 24.1252 35.8048H23.123Z" clip-rule="evenodd" fill-rule="evenodd"></path>
<path fill="black" d="M31.2359 39.6345H28.114V35.3623H31.2048V35.8012H28.5968V37.2606H30.9304V37.6996H28.5968V39.1956H31.2359V39.6345Z"></path>
<path fill="black" d="M33.3738 39.6345H32.902V35.3586H33.3537L36.0476 38.7859V35.3586H36.5195V39.6345H36.1336L33.3738 36.1286V39.6345Z"></path>
<path fill="black" d="M42.092 38.956C41.6458 39.4077 41.1575 39.7077 40.382 39.7077C39.1475 39.7077 38.2368 38.7365 38.2368 37.5094V37.4966C38.2368 36.2877 39.1421 35.2854 40.4003 35.2854C41.1758 35.2854 41.6403 35.5598 42.0683 35.964L41.7372 36.3169C41.3769 35.9749 40.9728 35.7317 40.393 35.7317C39.4457 35.7317 38.7379 36.4998 38.7379 37.4837V37.4966C38.7379 38.4878 39.453 39.2632 40.393 39.2632C40.9801 39.2632 41.366 39.0365 41.7738 38.6451L42.092 38.956Z"></path>
<path fill="black" d="M44.1568 39.6345H43.674V35.3586H44.1568V39.6345Z"></path>
<path fill="black" d="M46.2344 39.6345H45.7406L47.6902 35.3275H48.1419L50.0897 39.6345H49.5721L49.0692 38.5043H46.741L46.2344 39.6345ZM47.9097 35.889L46.933 38.0708H48.8808L47.9097 35.889Z" clip-rule="evenodd" fill-rule="evenodd"></path>
<path fill="black" d="M55.6421 39.6345H54.1571V35.3586H55.6421C56.9845 35.3586 57.9136 36.2803 57.9136 37.4837V37.4966C57.9136 38.6999 56.9863 39.6345 55.6421 39.6345ZM54.6399 35.8048V39.1883H55.6421C56.723 39.1883 57.4143 38.4567 57.4143 37.5094V37.4966C57.4143 36.5492 56.723 35.8048 55.6421 35.8048H54.6399Z" clip-rule="evenodd" fill-rule="evenodd"></path>
<path fill="black" d="M62.7528 39.6345H59.6309V35.3623H62.7217V35.8012H60.1137V37.2606H62.4473V37.6996H60.1137V39.1956H62.7528V39.6345Z"></path>
<path fill="black" d="M69.8396 39.6345H66.95V35.3604H67.4329V39.1883H69.8396V39.6345Z"></path>
<path fill="black" d="M71.557 39.6345H71.0632L73.0109 35.3275H73.4626L75.4104 39.6345H74.8928L74.3917 38.5043H72.0636L71.557 39.6345ZM73.2304 35.889L72.2538 38.0708H74.2015L73.2304 35.889Z" clip-rule="evenodd" fill-rule="evenodd"></path>
<path fill="black" d="M5.79261 49.3586C6.06877 49.7043 6.3303 49.8012 6.52599 49.8012V49.8433C6.59548 49.8433 6.57902 50.0847 6.52599 50.1011C5.97184 50.2877 5.20371 50.2602 4.67334 49.5817L3.31449 47.8333C2.93409 47.3414 2.48418 47.2682 1.86602 47.2609V48.9709C1.86602 49.589 2.29032 49.6933 2.85361 49.7664C2.9158 49.7738 2.87373 50.0664 2.80058 50.0664H0.126769C0.0554432 50.0664 0.00423503 49.7738 0.0737321 49.7664C0.523634 49.7043 0.807109 49.5269 0.807109 48.9709V45.037C0.807109 44.4554 0.499859 44.2871 0.0737321 44.1719C0.00423503 44.1555 0.0499566 43.8647 0.126769 43.872C0.306972 43.872 0.499232 43.8745 0.682222 43.8769C0.848377 43.8791 1.00689 43.8811 1.14179 43.8811C1.50363 43.8811 1.85256 43.8643 2.16365 43.8493C2.4139 43.8372 2.63967 43.8263 2.82801 43.8263C4.16126 43.8263 5.05192 44.3731 5.05192 45.4594C5.05192 46.4818 4.22161 46.9847 3.48092 47.0304V47.0762C3.83389 47.0762 4.08993 47.2261 4.47948 47.7108L5.79261 49.3586ZM1.86602 46.8549H2.1239C3.43702 46.8549 3.93996 46.6244 3.93996 45.7411C3.93996 44.7992 3.34192 44.331 2.55734 44.331C2.03428 44.331 1.86602 44.5414 1.86602 45.037V46.8549Z" clip-rule="evenodd" fill-rule="evenodd"></path>
<path fill="black" d="M10.08 49.9837C9.39113 49.9793 8.64507 49.9744 8.00006 50.0389V50.0883C7.91227 50.0956 7.87752 49.7884 7.94702 49.7701C7.96282 49.766 7.97851 49.762 7.99407 49.7581C8.48496 49.6329 8.85779 49.5379 8.85779 48.905V44.9876C8.85779 44.4207 8.49568 44.2707 8.11527 44.1738C8.04578 44.1573 8.0915 43.8665 8.161 43.8738C8.49854 43.8738 8.96307 43.8688 9.40638 43.8641C9.81095 43.8597 10.1978 43.8555 10.4544 43.8555C10.9887 43.8555 11.4257 43.8401 11.8713 43.8245C12.0953 43.8166 12.3214 43.8086 12.5631 43.8025C12.7771 43.8025 12.7771 43.9415 12.7313 44.1445L12.521 44.9858C12.4918 45.1083 12.2723 45.1083 12.2375 44.9858C12.104 44.5523 11.8389 44.3054 10.736 44.3054C10.1179 44.3054 9.91488 44.4627 9.91488 44.9236V46.3611C9.91488 46.5915 10.0301 46.6336 10.2057 46.6336H10.3995C11.1146 46.6336 11.7328 46.5641 12.0931 46.2385C12.1827 46.1581 12.3747 46.1745 12.2979 46.3501L11.7931 47.4639C11.7236 47.6212 11.5901 47.6047 11.4932 47.4712C11.2902 47.1914 10.8403 47.0762 10.33 47.0762H10.2057C10.0301 47.0762 9.91488 47.1182 9.91488 47.3487V48.8319C9.91488 49.3348 10.1289 49.5195 10.8586 49.5195C12.1918 49.5195 12.7222 48.9087 12.9343 48.574C12.9947 48.4789 13.2325 48.521 13.2325 48.6709C13.2325 49.1208 12.8557 50.0115 12.2997 50.0115C12.0767 50.0115 11.8559 50.0063 11.6131 50.0006C11.3161 49.9936 10.9862 49.9859 10.5788 49.9859C10.4176 49.9859 10.2506 49.9848 10.08 49.9837Z"></path>
<path fill="black" d="M17.6821 43.8263C19.0501 43.8263 20.1785 44.331 20.1785 45.7137V45.7594C20.1785 47.3304 18.7063 47.9924 16.7549 47.6998V48.9709C16.7549 49.589 17.1792 49.6933 17.7424 49.7664C17.8046 49.7738 17.7626 50.0664 17.6894 50.0664H15.0156C14.9443 50.0664 14.8931 49.7738 14.9626 49.7664C15.4125 49.7043 15.6959 49.5269 15.6959 48.9709V45.037C15.6959 44.4554 15.3887 44.2871 14.9626 44.1719C14.8931 44.1555 14.9388 43.8647 15.0156 43.872C15.197 43.872 15.3895 43.8745 15.5724 43.8769C15.7381 43.8791 15.8959 43.8811 16.0306 43.8811C16.3874 43.8811 16.713 43.8648 17.0084 43.8499C17.2536 43.8376 17.478 43.8263 17.6821 43.8263ZM19.0391 45.9624C19.0391 44.9108 18.3698 44.331 17.4608 44.331C16.903 44.331 16.753 44.5231 16.753 45.037V47.2682C18.2545 47.4804 19.0391 47.1182 19.0391 45.9624Z" clip-rule="evenodd" fill-rule="evenodd"></path>
<path fill="black" d="M24.7964 43.1295C24.6812 43.2173 24.3703 42.9338 24.4581 42.8112L25.2646 41.6463C25.4219 41.4158 26.1626 42.0962 25.9522 42.2571L24.7964 43.1295Z"></path>
<path fill="black" d="M27.7592 47.6998C27.7592 49.3239 26.7076 50.1615 25.3048 50.1615C24.0612 50.1615 22.6658 49.5013 22.6658 47.709V44.9382C22.6658 44.3822 22.3823 44.1975 21.9525 44.1427C21.8812 44.1353 21.936 43.8446 22.0055 43.8446H24.4142C24.4855 43.8446 24.5367 44.1353 24.4672 44.1427C24.1142 44.1884 23.7613 44.3201 23.7613 44.9382V47.7528C23.7613 48.9873 24.4763 49.5634 25.4091 49.5634C26.3711 49.5634 27.1392 48.9892 27.1392 47.7528V44.9382C27.1392 44.3658 26.8118 44.2048 26.382 44.1427C26.3198 44.1353 26.3619 43.8446 26.4351 43.8446H28.4194C28.4834 43.8446 28.5346 44.1353 28.4651 44.1427C28.1121 44.1884 27.7592 44.3201 27.7592 44.9382V47.6998Z"></path>
<path fill="black" d="M33.917 46.6062V46.7049C34.74 46.7049 35.5337 47.2956 35.5337 48.2832C35.5337 49.3769 34.537 50.0847 33.0629 50.0847C32.8746 50.0847 32.6717 50.0741 32.4468 50.0624C32.1673 50.0479 31.8537 50.0316 31.4919 50.0316C30.9359 50.0316 30.5134 50.0389 30.1056 50.0847C30.027 50.092 29.9831 49.7847 30.0526 49.7664C30.0684 49.7624 30.0841 49.7584 30.0996 49.7544C30.5905 49.6293 30.9634 49.5342 30.9634 48.9014V44.9839C30.9634 44.417 30.6012 44.267 30.2208 44.1701C30.1513 44.1536 30.1971 43.8628 30.2666 43.8702C30.4587 43.8702 30.6678 43.8727 30.8641 43.8752C31.0378 43.8773 31.2015 43.8793 31.3346 43.8793C31.7401 43.8793 32.084 43.8612 32.3768 43.8458C32.5938 43.8344 32.7826 43.8244 32.9477 43.8244C34.0889 43.8244 35.0216 44.3018 35.0308 45.2729C35.0399 45.988 34.5351 46.4818 33.917 46.6062ZM33.9371 45.5564C33.9371 44.7188 33.372 44.331 32.6459 44.331C32.1814 44.331 32.0204 44.4883 32.0223 44.9839V46.5549H32.9294C33.564 46.5549 33.9371 46.2367 33.9371 45.5564ZM32.0223 48.8996C32.0223 49.3842 32.2692 49.622 33.0373 49.622C33.8127 49.622 34.3943 49.3952 34.3943 48.4771C34.3943 47.506 33.7505 46.9939 32.9294 46.9939H32.0223V48.8996Z" clip-rule="evenodd" fill-rule="evenodd"></path>
<path fill="black" d="M39.3931 49.9837C38.7043 49.9793 37.9582 49.9744 37.3132 50.0389V50.0133C37.2254 50.0225 37.1907 49.7152 37.2602 49.6951C37.2755 49.6912 37.2907 49.6874 37.3058 49.6836C37.7957 49.5599 38.1709 49.4652 38.1709 48.8319V44.9126C38.1709 44.2945 37.8088 44.1719 37.4284 44.1189C37.3589 44.1097 37.4119 43.819 37.4741 43.819H39.9084C39.9687 43.819 40.0126 44.1097 39.9504 44.1189C39.581 44.1646 39.228 44.2945 39.228 44.9126V48.8319C39.228 49.3348 39.442 49.5195 40.1717 49.5195C41.505 49.5195 42.0353 48.9087 42.2475 48.574C42.3078 48.4789 42.5456 48.521 42.5456 48.6709C42.5456 49.1208 42.1688 50.0115 41.6129 50.0115C41.3899 50.0115 41.1691 50.0063 40.9262 50.0006C40.6293 49.9936 40.2993 49.9859 39.8919 49.9859C39.7308 49.9859 39.5637 49.9848 39.3931 49.9837Z"></path>
<path fill="black" d="M46.5709 50.0206H44.1513C44.0818 50.0206 44.0288 49.7299 44.0983 49.7207C44.5482 49.6567 44.8317 49.483 44.8317 48.927V44.9382C44.8317 44.3822 44.5482 44.2048 44.0983 44.1427C44.0288 44.1353 44.0818 43.8446 44.1513 43.8446H46.5709C46.6423 43.8446 46.6935 44.1353 46.624 44.1427C46.2436 44.1975 45.8906 44.3201 45.8906 44.9382V48.927C45.8906 49.5433 46.2436 49.6677 46.624 49.7207C46.6935 49.7299 46.6404 50.0206 46.5709 50.0206Z"></path>
<path fill="black" d="M53.8023 49.1391C53.4255 49.6933 52.2422 50.1615 51.9697 50.1615C50.4865 50.1615 48.4839 49.2982 48.4821 47.0487C48.4821 45.5235 49.4185 43.7056 51.8893 43.7056C52.9116 43.7056 53.795 44.022 53.6871 44.3329L53.5737 44.6749C53.4068 45.1735 53.2319 45.0725 52.8734 44.8656C52.552 44.6802 52.0832 44.4097 51.3406 44.4097C50.0805 44.4097 49.4624 45.229 49.4624 46.5001C49.4624 48.4862 50.9694 49.3165 52.1782 49.3165C52.3392 49.3165 53.1421 49.1922 53.5993 48.9014C53.6688 48.8557 53.8553 49.0587 53.8023 49.1391Z"></path>
<path fill="black" d="M60.9971 48.777C61.3134 49.525 61.5238 49.6677 61.8767 49.7207C62.0011 49.7372 61.9664 50.0206 61.8603 50.0206H59.5321C59.4169 50.0206 59.4096 49.739 59.5047 49.7207C59.8321 49.6585 60.185 49.5433 59.8595 48.7862L59.7626 48.5667C59.6748 48.3527 59.5248 48.3363 59.2596 48.3363H57.4582C57.193 48.3363 57.043 48.3546 56.9553 48.5667L56.8675 48.7862C56.5566 49.5433 56.8931 49.6585 57.3174 49.7207C57.4308 49.7372 57.4052 50.0206 57.2899 50.0206H55.3843C55.28 50.0206 55.2526 49.739 55.3568 49.7207C55.7189 49.6585 55.9311 49.536 56.2566 48.7862L57.7472 45.3625C58.0928 44.5871 58.1971 44.2231 58.1971 43.8885C58.1971 43.8354 58.8152 43.6946 58.8426 43.7549L60.9971 48.777ZM57.5277 47.8425H59.1956C59.3181 47.8425 59.4498 47.8242 59.3986 47.6998L58.3653 45.229L57.3247 47.6998C57.2735 47.8242 57.4052 47.8425 57.5277 47.8425Z" clip-rule="evenodd" fill-rule="evenodd"></path>
<path fill="black" d="M67.5682 49.9859C67.0232 49.9859 66.5897 49.9932 66.1819 50.0389V50.0865C66.0941 50.0938 66.0594 49.7866 66.1289 49.7683C66.1447 49.7642 66.1604 49.7602 66.1759 49.7562C66.6668 49.6311 67.0396 49.536 67.0396 48.9032V44.9858C67.0396 44.4188 66.6775 44.2689 66.2971 44.1719C66.2276 44.1555 66.2733 43.8647 66.3428 43.872C66.523 43.872 66.7054 43.8743 66.8887 43.8765C67.0739 43.8788 67.26 43.8811 67.4456 43.8811C67.8258 43.8811 68.1847 43.8644 68.5057 43.8494C68.7654 43.8372 69.0002 43.8263 69.2014 43.8263C71.3375 43.8263 72.4933 45.0973 72.4933 46.8C72.4933 48.4954 71.3375 50.0389 69.1922 50.0389C69.0028 50.0389 68.7891 50.0284 68.5523 50.0167C68.2587 50.0022 67.9297 49.9859 67.5682 49.9859ZM68.0967 48.8996C68.0967 49.3751 68.4241 49.6146 69.28 49.6146C70.7193 49.6146 71.4344 48.8374 71.4326 47.345C71.4326 45.6588 70.5145 44.3365 68.927 44.3365C68.2997 44.3365 68.0967 44.5322 68.0967 44.9821V48.8996Z" clip-rule="evenodd" fill-rule="evenodd"></path>
<path fill="black" d="M80.7946 46.8896C80.7946 48.6801 79.5327 50.1615 77.5922 50.1615C75.756 50.1615 74.4063 48.8026 74.4063 46.9683C74.4063 45.1869 75.6774 43.7037 77.6105 43.7037C79.454 43.7037 80.7946 45.0534 80.7946 46.8896ZM75.4634 46.4745C75.4634 48.2723 76.6741 49.5634 77.9342 49.5634C78.7133 49.5634 79.743 49.0495 79.743 47.3834C79.743 45.6021 78.5359 44.3036 77.2649 44.3036C76.4894 44.3036 75.4634 44.8157 75.4634 46.4745Z" clip-rule="evenodd" fill-rule="evenodd"></path>
<path fill="black" d="M89.714 48.927C89.7487 49.5433 90.0669 49.675 90.4364 49.7207H90.4345V49.825C90.5077 49.8341 90.4528 50.1249 90.3925 50.1249H88.0881C88.0259 50.1249 87.982 49.8341 88.0351 49.825C88.4063 49.7646 88.6788 49.5872 88.6532 49.0312L88.485 46.0666L87.0548 48.9782C86.8701 49.3568 86.7293 49.7463 86.7018 49.8871C86.6976 49.8871 86.6825 49.8906 86.66 49.8957C86.5941 49.9107 86.4648 49.9402 86.3598 49.9402C86.2281 49.9402 86.1385 49.8871 86.0855 49.7829L84.0463 45.9185L83.9128 48.927C83.889 49.5433 84.2475 49.686 84.531 49.7207C84.6041 49.7299 84.5492 50.0206 84.4889 50.0206H82.66C82.5887 50.0206 82.5375 49.7299 82.607 49.7207C82.9874 49.675 83.3056 49.5415 83.3404 48.927L83.6238 43.8628C83.6312 43.7129 83.9695 43.7019 84.0573 43.8628L86.6159 48.6453L88.9897 43.8628C89.0702 43.7019 89.4232 43.7129 89.4305 43.8628L89.714 48.927Z"></path>
<path fill="black" d="M94.6739 50.0206H92.2561C92.1848 50.0206 92.1336 49.7299 92.2031 49.7207C92.6548 49.6567 92.9364 49.483 92.9364 48.927V44.9382C92.9364 44.3822 92.653 44.2048 92.2031 44.1427C92.1336 44.1353 92.1866 43.8446 92.2561 43.8446H94.6739C94.7452 43.8446 94.7964 44.1353 94.7269 44.1427C94.3465 44.1975 93.9935 44.3201 93.9935 44.9382V48.927C93.9935 49.5433 94.3465 49.6677 94.7269 49.7207C94.7964 49.7299 94.7434 50.0206 94.6739 50.0206Z"></path>
<path fill="black" d="M102.553 49.9402C102.589 50.0737 102.447 50.1084 102.306 50.1084C102.156 50.1084 102.075 50.0481 101.98 49.942L97.7775 45.5472V48.9014C97.7775 49.5031 98.1304 49.6 98.6334 49.7225C98.7047 49.739 98.67 50.0225 98.5803 50.0225H96.4899C96.4204 50.0225 96.3674 49.75 96.4479 49.7225C96.4708 49.7149 96.4936 49.7075 96.5163 49.7002C96.8597 49.5888 97.1703 49.4881 97.1703 48.9014V45.4777C97.1703 44.8523 97.0733 44.5523 96.8429 44.2414C96.8084 44.1937 96.7731 44.1534 96.7447 44.121C96.71 44.0813 96.6856 44.0535 96.6856 44.0384C96.6856 43.958 96.7387 43.8464 96.8612 43.8464H97.5141C97.6037 43.8464 97.6641 43.8537 97.7263 43.9232L101.838 48.2723V44.9565C101.838 44.3581 101.471 44.2665 101.037 44.1583C101.019 44.1538 101 44.1492 100.982 44.1445C100.912 44.1262 100.947 43.8464 101.035 43.8464H103.125C103.196 43.8464 103.24 44.1262 103.171 44.1445C103.156 44.1488 103.141 44.1531 103.126 44.1574C102.758 44.2643 102.445 44.355 102.445 44.9565V48.3875C102.445 48.9691 102.465 49.6146 102.553 49.9402Z"></path>
<path fill="black" d="M107.406 50.0206H104.987C104.917 50.0206 104.864 49.7299 104.934 49.7207C105.384 49.6567 105.667 49.483 105.667 48.927V44.9382C105.667 44.3822 105.384 44.2048 104.934 44.1427C104.864 44.1353 104.917 43.8446 104.987 43.8446H107.406C107.478 43.8446 107.529 44.1353 107.46 44.1427C107.079 44.1975 106.726 44.3201 106.726 44.9382V48.927C106.726 49.5433 107.079 49.6677 107.46 49.7207C107.529 49.7299 107.476 50.0206 107.406 50.0206Z"></path>
<path fill="black" d="M114.638 49.1391C114.261 49.6933 113.078 50.1615 112.805 50.1615C111.322 50.1615 109.319 49.2982 109.318 47.0487C109.318 45.5235 110.254 43.7056 112.725 43.7056C113.747 43.7056 114.631 44.022 114.523 44.3329L114.409 44.6749C114.242 45.1735 114.067 45.0725 113.709 44.8656C113.388 44.6802 112.919 44.4097 112.176 44.4097C110.916 44.4097 110.298 45.229 110.298 46.5001C110.298 48.4862 111.805 49.3165 113.014 49.3165C113.175 49.3165 113.978 49.1922 114.435 48.9014C114.504 48.8557 114.691 49.0587 114.638 49.1391Z"></path>
<path fill="black" d="M121.833 48.777C122.149 49.525 122.359 49.6677 122.712 49.7207C122.837 49.7372 122.802 50.0206 122.698 50.0206H120.369C120.254 50.0206 120.247 49.739 120.342 49.7207C120.669 49.6585 121.022 49.5433 120.697 48.7862L120.6 48.5667C120.512 48.3527 120.362 48.3363 120.097 48.3363H118.296C118.03 48.3363 117.88 48.3546 117.793 48.5667L117.705 48.7862C117.394 49.5433 117.73 49.6585 118.155 49.7207C118.268 49.7372 118.243 50.0206 118.127 50.0206H116.222C116.117 50.0206 116.09 49.739 116.194 49.7207C116.556 49.6585 116.768 49.536 117.094 48.7862L118.585 45.3625C118.93 44.5871 119.034 44.2231 119.034 43.8885C119.034 43.8354 119.653 43.6946 119.68 43.7549L121.833 48.777ZM118.363 47.8425H120.031C120.154 47.8425 120.285 47.8242 120.234 47.6998L119.201 45.229L118.16 47.6998C118.109 47.8242 118.241 47.8425 118.363 47.8425Z" clip-rule="evenodd" fill-rule="evenodd"></path>
<path fill="black" d="M130.45 49.9402C130.487 50.0737 130.344 50.1084 130.203 50.1084C130.053 50.1084 129.973 50.0481 129.878 49.942L125.675 45.5472V48.9014C125.675 49.5031 126.028 49.6 126.531 49.7225C126.602 49.739 126.568 50.0225 126.478 50.0225H124.388C124.318 50.0225 124.265 49.75 124.345 49.7225C124.368 49.715 124.391 49.7076 124.414 49.7002C124.757 49.5888 125.068 49.4881 125.068 48.9014V45.4777C125.068 44.8523 124.971 44.5523 124.741 44.2414C124.706 44.1937 124.671 44.1534 124.642 44.121C124.608 44.0813 124.583 44.0535 124.583 44.0384C124.583 43.958 124.636 43.8464 124.759 43.8464H125.412C125.501 43.8464 125.562 43.8537 125.624 43.9232L129.735 48.2723V44.9565C129.735 44.3581 129.368 44.2665 128.935 44.1583C128.916 44.1538 128.898 44.1492 128.879 44.1445C128.81 44.1262 128.844 43.8464 128.932 43.8464H131.023C131.094 43.8464 131.138 44.1262 131.068 44.1445C131.054 44.1488 131.039 44.1531 131.024 44.1574C130.655 44.2643 130.342 44.355 130.342 44.9565V48.3875C130.342 48.9691 130.362 49.6146 130.45 49.9402Z"></path>
<path fill="black" d="M138.119 48.777C138.435 49.525 138.645 49.6677 138.998 49.7207C139.125 49.7372 139.09 50.0206 138.982 50.0206H136.654C136.539 50.0206 136.531 49.739 136.626 49.7207C136.954 49.6585 137.307 49.5433 136.981 48.7862L136.884 48.5667C136.796 48.3527 136.646 48.3363 136.381 48.3363H134.58C134.315 48.3363 134.165 48.3546 134.077 48.5667L133.989 48.7862C133.678 49.5433 134.015 49.6585 134.439 49.7207C134.552 49.7372 134.527 50.0206 134.412 50.0206H132.506C132.402 50.0206 132.374 49.739 132.478 49.7207C132.841 49.6585 133.053 49.536 133.378 48.7862L134.869 45.3625C135.214 44.5871 135.319 44.2231 135.319 43.8885C135.319 43.8354 135.937 43.6946 135.964 43.7549L138.119 48.777ZM134.649 47.8425H136.317C136.44 47.8425 136.573 47.8242 136.52 47.6998L135.487 45.229L134.446 47.6998C134.395 47.8242 134.527 47.8425 134.649 47.8425Z" clip-rule="evenodd" fill-rule="evenodd"></path>
<path fill="black" d="M31.5614 25.1023C31.5468 18.3391 27.2745 12.6001 21.3472 10.5536C23.2071 11.6949 24.7982 13.2512 26.062 15.1642C27.825 17.8344 28.9498 21.1977 29.2698 25.1023H31.5614Z"></path>
<path fill="black" d="M24.8494 15.9689C26.4607 18.4105 27.4958 21.5013 27.8085 25.1023H23.8655C23.849 22.8656 23.6131 20.318 22.8029 17.7137C22.108 15.4824 20.996 13.2146 19.2476 11.073C21.5044 12.121 23.4083 13.7871 24.8494 15.9689Z"></path>
<path fill="black" d="M21.4093 18.1416C22.1683 20.585 22.3914 22.9881 22.4079 25.1023H17.2834V11.0401C19.3939 13.2969 20.6632 15.7421 21.4093 18.1416Z"></path>
<path fill="black" d="M10.6976 25.1023H15.8221V11.0401C13.7116 13.2969 12.4424 15.7421 11.6962 18.1416C10.9372 20.585 10.7141 22.9881 10.6976 25.1023Z"></path>
<path fill="black" d="M10.3063 17.7137C9.49607 20.318 9.26015 22.8674 9.24369 25.1023H5.30064C5.61338 21.4994 6.64852 18.4105 8.25976 15.9689C9.69908 13.7852 11.6029 12.121 13.8616 11.073C12.1114 13.2146 10.9994 15.4824 10.3063 17.7137Z"></path>
<path fill="black" d="M7.04356 15.1642C5.28053 17.8344 4.15577 21.1977 3.83572 25.1023V25.1005H1.54414C1.55877 18.3373 5.83102 12.5983 11.7584 10.5518C9.90025 11.693 8.30731 13.2494 7.04356 15.1642Z"></path>
<path fill="black" d="M5.36282 28.654V27.1543H3.71501V28.654C3.71501 28.771 3.81011 28.8661 3.92716 28.8661H5.15068C5.26772 28.8661 5.36282 28.771 5.36282 28.654Z"></path>
<path fill="black" d="M10.8074 28.654V27.1543H9.15956V28.654C9.15956 28.771 9.25466 28.8661 9.37171 28.8661H10.5952C10.7123 28.8661 10.8074 28.771 10.8074 28.654Z"></path>
<path fill="black" d="M17.373 28.654V27.1543H15.7252V28.654C15.7252 28.771 15.8203 28.8661 15.9374 28.8661H17.1609C17.2779 28.8661 17.373 28.771 17.373 28.654Z"></path>
<path fill="black" d="M22.289 28.654V27.1543H23.9368V28.654C23.9368 28.771 23.8417 28.8661 23.7247 28.8661H22.5012C22.3841 28.8661 22.289 28.771 22.289 28.654Z"></path>
<path fill="black" d="M27.7354 28.654V27.1543H29.3832V28.654C29.3832 28.771 29.2881 28.8661 29.1711 28.8661H27.9475C27.8305 28.8661 27.7354 28.771 27.7354 28.654Z"></path>
<path fill="black" d="M27.9475 25.565H29.1711C29.2881 25.565 29.3832 25.6601 29.3796 25.7772V26.2124H32.4703V26.7721H0.593131V26.2124H3.71501V25.7772C3.71501 25.6601 3.81011 25.565 3.92716 25.565H5.15068C5.26772 25.565 5.36282 25.6601 5.36282 25.7772V26.2124H9.16139V25.7772C9.16139 25.6601 9.25649 25.565 9.37354 25.565H10.5971C10.7141 25.565 10.8092 25.6601 10.8092 25.7772V26.2124H15.727V25.7772C15.727 25.6601 15.8221 25.565 15.9392 25.565H17.1627C17.2797 25.565 17.3748 25.6601 17.3748 25.7772V26.2124H22.2908V25.7772C22.2908 25.6601 22.386 25.565 22.503 25.565H23.7265C23.8436 25.565 23.9387 25.6601 23.9387 25.7772V26.2124H27.7354V25.7772C27.7354 25.6601 27.8305 25.565 27.9475 25.565Z"></path>
<path fill="black" d="M19.447 9.55324H13.6001C13.547 9.55324 13.5013 9.59897 13.5013 9.652V9.97571C13.5013 10.0306 13.5452 10.0745 13.6001 10.0745H19.447C19.5018 10.0745 19.5457 10.0306 19.5457 9.97571V9.652C19.5457 9.59714 19.5018 9.55324 19.447 9.55324Z"></path>
<path fill="black" d="M19.447 5.09994H13.6001C13.547 5.09994 13.5013 5.14384 13.5013 5.1987V5.52241C13.5013 5.57728 13.5452 5.62117 13.6001 5.62117H19.447C19.5018 5.62117 19.5457 5.57728 19.5457 5.52241V5.1987C19.5457 5.14384 19.5018 5.09994 19.447 5.09994Z"></path>
<path fill="black" d="M15.3503 5.88636H14.6736C14.5785 5.88636 14.5017 5.965 14.4999 6.0601V9.107C14.4999 9.2021 14.5785 9.28074 14.6736 9.28074H15.3503C15.4454 9.28074 15.524 9.2021 15.524 9.107V6.0601C15.524 5.965 15.4454 5.88636 15.3503 5.88636Z"></path>
<path fill="black" d="M16.8774 5.88636H16.2007C16.1056 5.88636 16.0288 5.965 16.027 6.0601V9.107C16.027 9.2021 16.1056 9.28074 16.2007 9.28074H16.8774C16.9725 9.28074 17.0511 9.2021 17.0511 9.107V6.0601C17.0511 5.965 16.9725 5.88636 16.8774 5.88636Z"></path>
<path fill="black" d="M18.3734 5.88636H17.6967C17.6016 5.88636 17.523 5.965 17.523 6.0601V9.107C17.523 9.2021 17.6016 9.28074 17.6967 9.28074H18.3734C18.4685 9.28074 18.5472 9.2021 18.5472 9.107V6.0601C18.5472 5.965 18.4685 5.88636 18.3734 5.88636Z"></path>
<path fill="black" d="M18.8654 4.73966C18.8654 3.47957 17.8632 2.45357 16.614 2.41151H16.6122V2.0878H17.3017V1.65618H17.031V1.92868H16.614V1.2136H16.6707V0.781982H16.3982V1.2136H16.4549V1.92868H16.0544V1.65618H15.7837V2.0878H16.4549V2.41151C15.2058 2.45357 14.2054 3.47957 14.2054 4.73966C14.2054 4.77258 14.2054 4.80367 14.2072 4.83476H18.8635C18.8654 4.80184 18.8654 4.77075 18.8654 4.73966Z"></path>
<path fill="black" d="M32.4758 29.3288H0.593131V30.5944H32.4758V29.3288Z"></path>
<path fill="black" d="M0.814407 55.2732H32.7026V56.782H0.814407V55.2732Z"></path>
</svg>
