<svg width="280" height="87" viewBox="0 0 280 87" fill="none" xmlns="http://www.w3.org/2000/svg">
<path d="M29.6134 14.9342L31.7261 22.241L38.8475 26.1238L6.33502 20.0702L29.6134 14.9342ZM56.0316 11.7226L49.7399 10.0962L49.704 14.1622L59.7648 20.4435L54.3375 14.1416L56.0316 11.7226ZM70.4144 27.2664L64.2971 30.5215L42.6372 32.3074L66.2644 40.1662L70.4144 27.2664Z" fill="black"/>
<path d="M66.2644 40.1661L63.7625 55.7772L56.5212 57.4823L66.2644 40.1661Z" fill="black"/>
<path d="M77.328 67.6615L73.4922 57.8254L63.7625 55.7772L77.328 67.6615ZM56.5212 57.4824L41.9529 64.502L40.2346 76.2543L56.5212 57.4824ZM126.333 33.5455C126.333 35.2138 126.102 36.8043 125.642 38.3178C125.18 39.8313 124.544 41.2242 123.732 42.4965C122.92 43.7695 121.933 44.9211 120.77 45.9521C119.606 46.9838 118.322 47.8283 116.917 48.4855L126.333 63.0968H116.901L108.524 50.1442H103.116L106.345 42.2203H109.773C112.146 42.2203 114.189 41.3671 115.903 39.6591C116.693 38.8273 117.308 37.8868 117.748 36.8361C118.187 35.7853 118.407 34.6908 118.407 33.5527C118.407 32.4145 118.187 31.3201 117.748 30.2693C117.309 29.2184 116.694 28.2994 115.904 27.5113C114.191 25.8041 112.149 24.9501 109.777 24.9501H100.422V63.0967H92.4966V17.0262H109.778C112.064 17.0262 114.208 17.4651 116.208 18.3429C118.209 19.2207 119.957 20.4048 121.452 21.8969C122.947 23.389 124.134 25.1327 125.014 27.1287C125.893 29.1256 126.333 31.2646 126.333 33.5455V33.5455ZM153.552 50.6013H136.3C136.739 51.6061 137.376 52.5006 138.21 53.2863C139.132 54.203 140.163 54.8903 141.305 55.349C142.446 55.8077 143.653 56.0363 144.926 56.0363C146.726 56.0363 148.328 55.6196 149.733 54.7855L157.963 58.0832C156.383 59.9324 154.474 61.3737 152.235 62.4086C149.997 63.4427 147.56 63.9602 144.926 63.9602C142.511 63.9602 140.251 63.5102 138.145 62.611C136.038 61.711 134.194 60.4713 132.614 58.8911C131.033 57.3117 129.793 55.4681 128.893 53.3617C127.993 51.2554 127.544 49.0164 127.544 46.6465C127.544 44.233 127.993 41.9726 128.893 39.8663C129.793 37.76 131.033 35.917 132.614 34.3369C134.194 32.7575 136.038 31.5178 138.145 30.6178C140.251 29.7177 142.511 29.2677 144.926 29.2677C147.34 29.2677 149.601 29.7177 151.708 30.6178C153.815 31.5178 155.659 32.7575 157.239 34.3376C158.819 35.9186 160.059 37.7623 160.959 39.8687C161.859 41.9758 162.309 44.2362 162.309 46.6506C162.309 48.0553 162.155 49.3728 161.848 50.6014H153.552V50.6013ZM144.926 37.1916C142.38 37.1916 140.141 38.1059 138.21 39.9345C137.376 40.7615 136.739 41.6758 136.3 42.6774H153.552C153.112 41.6758 152.476 40.7615 151.642 39.9345C149.799 38.1059 147.56 37.1916 144.926 37.1916V37.1916ZM198.589 30.182L183.313 63.115L181.272 67.5936C180.043 70.2722 178.199 72.4016 175.742 73.9834C173.283 75.5636 170.562 76.3541 167.577 76.3541H164.087L166.062 68.4302H167.971C169.245 68.4302 170.43 68.0786 171.527 67.377C172.624 66.6746 173.436 65.731 173.963 64.546L174.622 63.0976L159.346 30.182H168.037L178.968 53.7617L189.898 30.182H198.589ZM231.946 30.1312V63.0968H224.02V46.6592C224.02 44.0298 223.099 41.7941 221.257 39.9528C219.414 38.1123 217.177 37.1917 214.545 37.1917C213.272 37.1917 212.055 37.4329 210.892 37.9139C209.73 38.3956 208.71 39.0743 207.833 39.9497C205.991 41.7878 205.07 44.0204 205.07 46.6466C205.07 49.2299 205.991 51.4403 207.835 53.2784C208.713 54.1982 209.733 54.888 210.897 55.3475C212.06 55.807 213.278 56.0363 214.551 56.0363C215.867 56.0363 217.053 55.8173 218.107 55.3784L220.938 62.4412C218.919 63.454 216.57 63.9603 213.893 63.9603C211.478 63.9603 209.25 63.5103 207.208 62.6111C205.166 61.711 203.396 60.4714 201.899 58.8912C200.402 57.3118 199.236 55.4681 198.399 53.3618C197.562 51.2554 197.144 49.0165 197.144 46.6466C197.144 44.233 197.561 41.9727 198.395 39.8663C199.229 37.76 200.393 35.9171 201.886 34.3369C203.38 32.7575 205.148 31.5178 207.189 30.6178C209.231 29.7178 211.46 29.2678 213.876 29.2678C216.027 29.2678 217.938 29.598 219.606 30.2583C221.275 30.9186 222.747 31.7551 224.02 32.7678V30.1313H231.946V30.1312ZM253.437 29.2677C255.59 29.2677 257.546 29.674 259.304 30.4852C261.061 31.2971 262.566 32.4162 263.819 33.8416C265.072 35.2678 266.038 36.9242 266.72 38.8107C267.401 40.698 267.741 42.7163 267.741 44.8655V63.0968H259.816V44.8846C259.816 43.8322 259.618 42.8465 259.223 41.9258C258.828 41.0052 258.258 40.1726 257.513 39.4273C256.022 37.9368 254.224 37.1916 252.119 37.1916C249.969 37.1916 248.149 37.9368 246.659 39.4273C245.167 40.9178 244.422 42.7369 244.422 44.8846V63.0968H236.496V17.0262H244.422L244.406 32.8336C245.592 31.7772 246.933 30.9185 248.427 30.2582C249.921 29.5979 251.591 29.2677 253.437 29.2677V29.2677Z" fill="black"/>
</svg>
