<svg width="129" height="28" viewBox="0 0 129 28" fill="none" xmlns="http://www.w3.org/2000/svg">
    <g clip-path="url(#clip0)">
        <path fill-rule="evenodd" clip-rule="evenodd" d="M48 13.1L45.7 12.6C44.5 12.3 43.9 11.6 43.9 10.6C43.9 9.29999 45.1 8.29999 46.7 8.29999C48.9 8.29999 49.5 9.89999 49.7 10.4C49.7 10.6 49.9 10.7 50 10.8C50.1 10.9 50.3 10.9 50.5 10.8L51.7 10.4C51.8 10.3 52 10.2 52 10.1C52.1 9.99999 52.1 9.79999 52 9.59999C51.7 8.49999 50.5 5.89999 46.6 5.89999C43.7 5.89999 41.2 8.09999 41.2 10.8C41.2 13.1 42.7 14.8 45.2 15.3L47.4 15.8C48.7 16.1 49.5 16.9 49.5 18C49.5 19.4 48.4 20.2 46.5 20.2C44.3 20.2 43.3 18.8 43.1 17.5C43.1 17.4 43.1 17.3 43 17.3C42.9 17.3 42.9 17.2 42.8 17.1C42.7 17.1 42.6 17 42.6 17C42.5 17 42.4 17 42.3 17L41 17.4C40.9 17.4 40.7 17.5 40.7 17.7C40.6 17.8 40.6 18 40.6 18.1C41 20.3 42.8 22.6 46.6 22.6C49.8 22.6 52.2 20.5 52.2 17.7C52.2 15.4 50.7 13.7 48 13.1ZM61.8 15.3C61.8 15.3 61.7 15.4 61.8 15.3C61.8 15.4 61.7 15.4 61.7 15.4C61.7 15.4 61.7 15.4 61.6 15.4H56.7C56.7 15.4 56.7 15.4 56.6 15.4C56.6 15.4 56.6 15.4 56.6 15.3C56.8 14.3 57.7 13.2 59.2 13.2C60.6 13.2 61.6 14 61.8 15.3ZM59.1 10.9C56.5 10.9 53.8 13.1 53.8 16.7C53.8 18.5 54.4 20 55.5 21C56.5 22 57.9 22.6 59.4 22.6C61.6 22.6 63.4 21.4 64.2 19.5C64.3 19.3 64.3 19.2 64.2 19C64.2 18.9 64.1 18.9 64.1 18.8C64 18.7 64 18.7 63.9 18.7L62.8 18.3C62.7 18.2 62.5 18.3 62.4 18.3C62.3 18.4 62.1 18.5 62.1 18.6C61.6 19.7 60.7 20.3 59.5 20.3C58 20.3 56.8 19.3 56.6 17.7C56.6 17.7 56.6 17.7 56.6 17.6C56.6 17.6 56.6 17.6 56.7 17.6H63.9C64.2 17.6 64.5 17.3 64.5 17C64.5 16.9 64.5 16.8 64.5 16.7C64.4 13.1 62.4 10.9 59.1 10.9ZM71.4 19.5C69.7 19.5 68.6 18.3 68.6 16.4C68.6 14.5 69.7 13.3 71.4 13.3C73.1 13.3 74.2 14.6 74.2 16.4C74.2 18.3 73.1 19.5 71.4 19.5ZM76 11.2H74.7C74.4 11.2 74.1 11.5 74.1 11.8C74.1 11.8 74.1 11.8 74.1 11.9C74.1 11.9 74.1 11.9 74 11.9H73.9C73.2 11.3 72.3 11 71.1 11C68.1 11 66 13.3 66 16.4C66 19.5 68.1 21.8 71.1 21.8C72.2 21.8 73.2 21.4 73.9 20.8H74C74 20.8 74.1 20.8 74.1 20.9V21.3C74.1 23.5 73.1 24.5 71.1 24.5C69.8 24.5 68.8 23.7 68.5 22.5C68.5 22.3 68.4 22.2 68.2 22.1C68.1 22 67.9 22 67.8 22L66.5 22.3C66.3 22.3 66.2 22.4 66.1 22.6C66 22.7 66 22.9 66 23.1C66.5 25.3 68.5 26.9 71.1 26.9C73 26.9 74.5 26.3 75.4 25.2C76.2 24.3 76.6 22.9 76.6 21.4V12C76.6 11.5 76.4 11.2 76 11.2ZM91.6 10.9C90.2 10.9 89 11.4 88.2 12.5C88.2 12.5 88.2 12.5 88.1 12.5C88.1 12.5 88.1 12.5 88 12.5C87.3 11.5 86.2 10.9 84.9 10.9C83.9 10.9 82.8 11.3 82.1 11.9C82.1 11.9 82.1 11.9 82 11.9C82 11.9 82 11.9 81.9 11.9C81.9 11.9 81.9 11.9 81.8 11.9C81.7 11.9 81.8 11.9 81.8 11.8C81.8 11.5 81.5 11.2 81.2 11.2H80C79.7 11.2 79.4 11.5 79.4 11.8V21.6C79.4 21.9 79.7 22.2 80 22.2H81.3C81.6 22.2 81.9 21.9 81.9 21.6V15.6C81.9 14.1 82.8 13.2 84.1 13.2C85.8 13.2 86.1 14.6 86.1 15.4V21.7C86.1 22 86.4 22.3 86.7 22.3H88C88.3 22.3 88.6 22 88.6 21.7V15.7C88.6 14.3 89.5 13.3 90.8 13.3C92.5 13.3 92.8 14.7 92.8 15.5V21.8C92.8 22.1 93.1 22.4 93.4 22.4H94.7C95 22.4 95.3 22.1 95.3 21.8V15.3C95.5 12.2 93.5 10.9 91.6 10.9ZM100.4 15.4C100.3 15.4 100.3 15.4 100.3 15.4C100.5 14.4 101.4 13.3 102.9 13.3C104.3 13.3 105.3 14.1 105.5 15.4V15.5C105.5 15.5 105.5 15.5 105.4 15.5L100.4 15.4ZM102.8 10.9C100.2 10.9 97.5 13.1 97.5 16.7C97.5 18.5 98.1 20 99.2 21C100.2 22 101.6 22.5 103.1 22.5C105.3 22.5 107.1 21.3 107.9 19.4C108 19.2 108 19.1 107.9 18.9C107.8 18.7 107.7 18.6 107.5 18.6L106.4 18.2C106.1 18.1 105.8 18.2 105.6 18.5C105.1 19.6 104.2 20.2 103 20.2C101.5 20.2 100.3 19.2 100.1 17.6C100.1 17.6 100.1 17.6 100.1 17.5C100.1 17.5 100.1 17.5 100.2 17.5H107.4C107.7 17.5 108 17.2 108 16.9C108 16.8 108 16.7 108 16.6C108.1 13.1 106.1 10.9 102.8 10.9ZM115.9 10.9C114.8 10.9 113.8 11.3 113.1 12C113.1 12 113.1 12 113 12C113 12 113 12 112.9 12C112.9 12 112.9 12 112.8 12C112.8 12 112.8 12 112.8 11.9V11.8C112.8 11.5 112.5 11.2 112.2 11.2H110.9C110.6 11.2 110.3 11.5 110.3 11.8V21.6C110.3 21.9 110.6 22.2 110.9 22.2H112.2C112.5 22.2 112.8 21.9 112.8 21.6V15.9C112.8 14.6 113.4 13.2 115 13.2C116.5 13.2 117.2 14 117.2 15.6V21.6C117.2 21.9 117.5 22.2 117.8 22.2H119.1C119.4 22.2 119.7 21.9 119.7 21.6V15.3C119.9 12.6 118.4 10.9 115.9 10.9ZM126.1 13.6H127.6C127.9 13.6 128.2 13.3 128.2 13V11.9C128.2 11.6 127.9 11.3 127.6 11.3H126.1V8.49999C126.1 8.19999 125.8 7.89999 125.5 7.89999H124.3C124 7.89999 123.7 8.19999 123.7 8.49999V9.79999C123.7 10.4 123.5 11.2 122.3 11.2H122.1C121.8 11.2 121.5 11.5 121.5 11.8V13C121.5 13.3 121.8 13.6 122.1 13.6H123.4C123.5 13.6 123.5 13.7 123.5 13.7V19.1C123.5 21.1 124.7 22.4 126.7 22.4C127.2 22.4 127.7 22.3 127.9 22.3C128.2 22.2 128.4 22 128.4 21.7V20.7C128.4 20.6 128.4 20.5 128.3 20.5C128.3 20.4 128.2 20.4 128.2 20.3C128.1 20.2 128.1 20.2 128 20.2C127.9 20.2 127.8 20.2 127.7 20.2C127.6 20.2 127.4 20.2 127.3 20.2C126.4 20.2 126.1 19.9 126.1 19V13.9C126 13.6 126.1 13.6 126.1 13.6Z" fill="black"/>
        <path fill-rule="evenodd" clip-rule="evenodd" d="M18.8 18.8H1.7C0.900003 18.8 0.300003 18.2 0.300003 17.4C0.300003 16.6 0.900003 16 1.7 16H18.8C19.6 16 20.2 16.6 20.2 17.4C20.2 18.2 19.6 18.8 18.8 18.8Z" fill="black"/>
        <path fill-rule="evenodd" clip-rule="evenodd" d="M15.1 27.5C13.7 27.5 12.3 27.3 11 26.9C10.6 26.8 10.3 26.5 10.2 26.2C10 25.9 10 25.5 10.1 25.1C10.3 24.3 11.1 23.9 11.9 24.2C12.9 24.5 14 24.7 15.1 24.7C19.9 24.7 24.1 21.6 25.5 17C25.6 16.8 25.6 16.7 25.8 16.5C25.9 16.4 26.1 16.2 26.2 16.1C26.4 16 26.5 16 26.7 15.9C26.9 15.9 27.1 15.9 27.3 16C28.1 16.2 28.5 17 28.2 17.8C26.5 23.6 21.2 27.5 15.1 27.5Z" fill="black"/>
        <path fill-rule="evenodd" clip-rule="evenodd" d="M28.5 11.6H11.5C10.7 11.6 10.1 11 10.1 10.2C10.1 9.39999 10.7 8.79999 11.5 8.79999H28.6C29.4 8.79999 30 9.39999 30 10.2C30 10.9 29.3 11.6 28.5 11.6Z" fill="black"/>
        <path fill-rule="evenodd" clip-rule="evenodd" d="M3.3 11.6C3.1 11.6 2.9 11.5 2.7 11.4C2.5 11.3 2.3 11.2 2.2 11C2.1 10.8 2 10.6 1.9 10.4C1.9 10.2 1.9 10 1.9 9.7C3.7 3.9 9 0 15.1 0C16.5 0 17.9 0.2 19.2 0.6C19.4 0.7 19.5 0.7 19.7 0.9C19.8 1 20 1.2 20 1.3C20.1 1.5 20.1 1.6 20.2 1.8C20.3 2 20.2 2.2 20.1 2.4C20 2.6 20 2.7 19.8 2.9C19.7 3 19.5 3.2 19.4 3.3C19.2 3.4 19.1 3.4 18.9 3.5C18.7 3.5 18.5 3.5 18.3 3.4C17.3 3.1 16.2 2.9 15.1 2.9C10.3 2.9 6.1 6 4.7 10.6C4.6 10.9 4.4 11.1 4.2 11.3C3.9 11.5 3.6 11.6 3.3 11.6Z" fill="black"/>
        <path fill-rule="evenodd" clip-rule="evenodd" d="M25 4.69999C25 5.09999 24.8 5.39999 24.6 5.69999C24.3 5.99999 24 6.09999 23.6 6.09999C23.2 6.09999 22.9 5.89999 22.6 5.69999C22.3 5.39999 22.2 5.09999 22.2 4.69999C22.2 4.29999 22.4 3.99999 22.6 3.69999C22.9 3.39999 23.2 3.29999 23.6 3.29999C24 3.29999 24.3 3.49999 24.6 3.69999C24.9 3.99999 25 4.29999 25 4.69999ZM8.1 22.8C8.1 23.2 7.9 23.5 7.7 23.8C7.4 24.1 7.1 24.2 6.7 24.2C6.3 24.2 6 24 5.7 23.8C5.4 23.5 5.3 23.2 5.3 22.8C5.3 22.4 5.5 22.1 5.7 21.8C6 21.5 6.3 21.4 6.7 21.4C7.1 21.4 7.4 21.6 7.7 21.8C7.9 22.1 8.1 22.4 8.1 22.8Z" fill="black"/>
    </g>
    <defs>
        <clipPath id="clip0">
            <rect x="0.300003" width="128" height="28" fill="white"/>
        </clipPath>
    </defs>
</svg>
