<svg xmlns="http://www.w3.org/2000/svg" fill="none" viewBox="0 0 146 57" height="57" width="146">
<path fill="black" d="M14.0512 43.8616C19.935 42.2055 25.1214 38.283 28.5645 33.2273C26.5597 32.7478 24.5113 32.4428 22.4628 32.3992C17.5815 39.2418 9.64928 43.2515 1.49916 44.8205C5.68318 45.0384 9.99795 45.082 14.0512 43.8616ZM136.739 30.22C133.557 31.3968 133.427 36.8447 136.695 38.0215C138.918 38.806 141.228 36.6704 141.184 34.4476C141.446 32.0941 139.267 29.3483 136.739 30.22ZM143.32 39.4597C141.184 42.2491 136.521 42.5106 134.342 39.634V46.6946H130.289V26.9077H134.342V28.4767C136.39 26.4718 139.79 25.9924 142.1 27.7357C145.848 30.2636 146.327 36.1474 143.32 39.4597ZM123.054 33.4888C122.923 31.1353 120.308 29.3047 118.085 30.3508C114.86 31.7454 115.209 37.4549 118.782 38.1086C121.441 38.7624 123.577 35.973 123.054 33.4888ZM125.276 39.1546C122.356 42.467 116.516 42.4234 113.64 39.0675C111.112 36.3217 111.155 31.6583 113.77 28.9997C114.686 27.9972 115.906 27.2563 117.257 26.9077C119.872 26.2103 122.923 26.7769 124.884 28.7382C127.804 31.3968 127.935 36.3653 125.276 39.1546ZM61.2522 32.7043C60.9471 31.789 60.5984 30.8302 59.6832 30.3943C57.7655 29.3483 55.2377 30.5687 54.7147 32.6607C56.8938 32.7043 59.073 32.7043 61.2522 32.7043ZM54.6275 35.5808C55.5427 38.7624 59.8139 38.9803 61.9059 36.8883C62.6469 37.7164 63.3878 38.5009 64.1287 39.329C61.2958 42.0311 56.5452 42.467 53.4071 40.0699C49.7025 37.2805 49.7461 30.7866 53.5815 28.128C56.7631 25.6873 61.9931 26.2975 64.2595 29.697C65.4798 31.3968 65.3055 33.5759 65.3055 35.5808C61.7316 35.6244 58.1578 35.5808 54.6275 35.5808ZM105.446 26.9077H101.393V41.4646H105.446C105.664 38.5009 105.01 35.45 105.925 32.5735C106.448 30.8738 108.279 30.3508 109.848 30.4379C109.848 29.1304 109.804 27.8665 109.804 26.6026C108.104 26.7769 106.666 27.6486 105.446 28.7817V26.9077ZM87.0972 39.5905C89.1892 41.5081 92.3708 42.1183 95.0294 41.2031C96.4241 40.6801 97.6009 39.7212 98.6904 38.7188C97.8624 37.8035 97.0779 36.9319 96.2934 36.0166C95.073 37.4985 92.981 38.588 91.0633 37.7164C88.1868 36.6704 87.9689 32.0941 90.6711 30.6994C92.5887 29.6098 94.9423 30.4379 96.4241 31.9198L98.5161 29.174C95.2473 25.7309 89.0149 25.7745 86.182 29.7406C84.0464 32.6171 84.3515 37.1934 87.0972 39.5905ZM72.3224 26.7769H68.2691V41.3338H72.3224C72.366 38.4573 72.2352 35.5372 72.366 32.6607C72.366 30.8302 74.2837 29.3483 76.0706 29.8713C77.2909 30.1764 77.7268 31.5275 77.7703 32.6171C77.8575 35.5372 77.7703 38.4573 77.8139 41.3774H81.8672C81.8236 38.1958 81.9544 35.0142 81.8236 31.8326C81.7364 29.2176 79.6444 26.8205 76.9858 26.6462C75.2425 26.4282 73.5863 27.2999 72.3224 28.4331V26.7769ZM35.9301 32.0069C38.0657 33.5324 40.8551 33.5324 43.1214 34.7527C44.3418 35.4064 44.0367 37.3677 42.7728 37.76C40.2013 38.6316 37.6735 36.9319 35.7558 35.3629C34.9277 36.4089 34.0996 37.4113 33.2716 38.4573C36.4532 41.4646 41.596 42.9028 45.6057 40.6801C48.4386 39.1546 49.0924 35.0142 47.1311 32.5735C45.5621 30.8302 43.2522 30.3508 41.1166 29.7842C40.2449 29.4791 39.1553 29.3047 38.5887 28.4331C38.0222 27.3871 38.8067 26.0796 39.9398 25.9488C42.0318 25.6002 44.0803 26.5154 45.78 27.6922C46.4774 26.6462 47.2183 25.6437 47.9156 24.5977C45.2134 22.5057 41.5524 21.5905 38.1965 22.5057C36.366 23.0287 34.6662 24.2926 34.2304 26.2103C33.7946 28.1716 34.0996 30.6558 35.9301 32.0069ZM14.9229 10.6946C15.6202 16.6655 14.3127 22.8544 11.0875 27.9101C8.51611 31.9633 4.85509 35.2757 0.80182 37.8035C-0.505686 32.4428 0.104484 26.6026 2.85025 21.8084C5.55243 16.927 10.0851 13.3532 14.9229 10.6946Z" clip-rule="evenodd" fill-rule="evenodd"></path>
<path fill="black" d="M4.89892 38.6752C3.59141 39.7212 2.10957 40.4185 0.845651 41.5081C4.4195 41.1159 7.81902 39.852 11.0006 38.1958C17.4946 34.8398 22.3323 28.651 24.1628 21.5905C21.635 21.9391 19.1072 22.4185 16.6665 23.2466C14.5745 29.5662 10.2161 34.8398 4.89892 38.6752Z" clip-rule="evenodd" fill-rule="evenodd"></path>
</svg>
