<svg width="233" height="109" viewBox="0 0 233 109" fill="none" xmlns="http://www.w3.org/2000/svg">
<path d="M91.6996 108C89.5397 108.038 87.3825 107.83 85.2696 107.38C83.6753 107.047 82.1388 106.481 80.7096 105.7C79.6092 105.061 78.6795 104.166 77.9996 103.09C77.4072 102.128 77.0954 101.02 77.0996 99.89C77.0837 99.1029 77.2696 98.3249 77.6396 97.63C78.0453 96.9812 78.5838 96.4257 79.2196 96C79.9635 95.5315 80.7819 95.1933 81.6396 95C82.6637 94.7736 83.711 94.6696 84.7596 94.69C84.7344 96.1812 84.9333 97.6678 85.3496 99.1C85.6815 100.232 86.2432 101.284 86.9996 102.19C87.6707 102.995 88.5291 103.624 89.4996 104.02C90.5182 104.421 91.6048 104.622 92.6996 104.61C93.7154 104.616 94.7264 104.471 95.6996 104.18C96.4946 103.914 97.2386 103.515 97.8996 103C98.506 102.508 98.9889 101.882 99.3096 101.17C99.6168 100.467 99.7735 99.7073 99.7696 98.94C99.7733 98.2152 99.6689 97.4939 99.4596 96.8C99.2382 96.0951 98.8507 95.4538 98.3296 94.93C97.6832 94.1863 96.9359 93.5367 96.1096 93C94.9289 92.2579 93.7032 91.59 92.4396 91C91.0554 90.2657 89.7193 89.4441 88.4396 88.54C87.3371 87.7751 86.3504 86.8557 85.5096 85.81C84.7387 84.8571 84.1459 83.7731 83.7596 82.61C83.3503 81.3408 83.151 80.0134 83.1696 78.68C83.1402 77.0877 83.5189 75.5145 84.2696 74.11C84.9921 72.6854 86.0489 71.4571 87.3496 70.53C88.7872 69.4441 90.4304 68.6616 92.1796 68.23C94.2501 67.6571 96.3915 67.381 98.5396 67.41C100.473 67.3868 102.404 67.5408 104.31 67.87C105.727 68.1252 107.103 68.5727 108.4 69.2C109.365 69.6641 110.208 70.3493 110.86 71.2C111.39 71.8953 111.678 72.7454 111.68 73.62C111.691 74.3168 111.53 75.0057 111.211 75.6252C110.892 76.2446 110.424 76.7754 109.85 77.17C108.643 78.0167 106.643 78.4433 103.85 78.45C103.852 77.5729 103.761 76.698 103.58 75.84C103.431 74.9661 103.112 74.1301 102.64 73.38C102.198 72.6353 101.584 72.0077 100.85 71.55C99.984 71.015 98.9758 70.7568 97.9596 70.81C97.1668 70.8136 96.3787 70.9315 95.6196 71.16C94.8649 71.3637 94.1534 71.7025 93.5196 72.16C92.893 72.6314 92.3748 73.2315 91.9996 73.92C91.5908 74.6994 91.3877 75.5702 91.4096 76.45C91.367 77.3269 91.5351 78.2013 91.8996 79C92.2615 79.7284 92.7646 80.3776 93.3796 80.91C94.1455 81.5541 94.9689 82.1265 95.8396 82.62C96.8396 83.17 97.9796 83.79 99.3096 84.46C101.847 85.6416 104.106 87.3454 105.94 89.46C107.361 91.2564 108.117 93.4894 108.08 95.78C108.106 97.5834 107.72 99.3691 106.95 101C106.196 102.54 105.068 103.867 103.67 104.86C102.122 105.971 100.378 106.778 98.5296 107.24C96.2929 107.775 93.9994 108.037 91.6996 108.02" fill="black"/>
<path d="M131.63 80.5101C130.625 80.5301 129.654 80.8816 128.87 81.5101C127.953 82.2624 127.163 83.1571 126.53 84.1601C125.805 85.3043 125.202 86.5208 124.73 87.7901C124.24 89.0856 123.875 90.425 123.64 91.7901H124.15C125.532 91.7949 126.908 91.6098 128.24 91.2401C129.417 90.9187 130.528 90.3904 131.52 89.6801C132.413 89.0411 133.157 88.2154 133.7 87.2601C134.244 86.2978 134.513 85.2049 134.48 84.1001C134.544 83.158 134.283 82.2225 133.74 81.4501C133.49 81.1358 133.167 80.8869 132.799 80.7249C132.432 80.5629 132.031 80.4926 131.63 80.5201M129.57 103.76C130.507 103.768 131.441 103.637 132.34 103.37C133.169 103.104 133.975 102.769 134.75 102.37C135.471 101.966 136.142 101.48 136.75 100.92C137.301 100.417 137.81 99.868 138.27 99.2801C138.529 99.5885 138.717 99.9505 138.82 100.34C138.944 100.769 139.008 101.213 139.01 101.66C138.984 102.416 138.741 103.149 138.31 103.77C137.759 104.592 137.027 105.276 136.17 105.77C135.035 106.468 133.796 106.981 132.5 107.29C130.78 107.721 129.012 107.93 127.24 107.91C125.512 107.922 123.791 107.686 122.13 107.21C120.599 106.781 119.168 106.054 117.92 105.07C116.706 104.126 115.73 102.91 115.07 101.52C114.364 99.9501 114.022 98.2408 114.07 96.5201C114.078 95.0711 114.273 93.6292 114.65 92.2301C115.061 90.7019 115.638 89.2232 116.37 87.8201C117.154 86.3481 118.11 84.9751 119.22 83.7301C120.363 82.4172 121.686 81.2725 123.15 80.3301C124.698 79.3275 126.381 78.5529 128.15 78.0301C130.099 77.4592 132.119 77.1697 134.15 77.1701C136.473 77.0318 138.78 77.634 140.74 78.8901C141.5 79.4308 142.113 80.1535 142.521 80.992C142.93 81.8305 143.122 82.7582 143.08 83.6901C143.071 85.2294 142.601 86.7306 141.73 88.0001C140.766 89.4406 139.521 90.6718 138.07 91.6201C136.352 92.7126 134.467 93.5166 132.49 94.0001C130.192 94.643 127.816 94.9595 125.43 94.9401H124.34C123.962 94.9348 123.585 94.9081 123.21 94.8601C123.163 95.2217 123.137 95.5855 123.13 95.9501V96.9501C123.011 98.7592 123.583 100.546 124.73 101.95C125.356 102.586 126.114 103.076 126.95 103.385C127.787 103.694 128.681 103.816 129.57 103.74" fill="black"/>
<path d="M152.85 82.6101C152.873 82.3237 152.82 82.0362 152.698 81.7765C152.575 81.5167 152.386 81.2938 152.15 81.1301C151.394 80.7796 150.56 80.6314 149.73 80.7001H148.73L149.23 77.7801H162.34L161 85.3801H161.27C161.858 84.1672 162.526 82.9947 163.27 81.8701C163.909 80.9316 164.669 80.0811 165.53 79.3401C166.362 78.6512 167.315 78.1223 168.34 77.7801C169.511 77.4176 170.734 77.2454 171.96 77.2701C173.595 77.1452 175.228 77.5257 176.64 78.3601C177.142 78.7319 177.543 79.2227 177.809 79.7882C178.074 80.3537 178.195 80.9763 178.16 81.6001C178.224 82.4001 178.095 83.204 177.784 83.9437C177.472 84.6835 176.987 85.3373 176.37 85.8501C174.844 86.8816 173.017 87.3743 171.18 87.2501C171.217 86.4991 171.19 85.7464 171.1 85.0001C171.04 84.4078 170.881 83.8297 170.63 83.2901C170.429 82.8521 170.119 82.4732 169.73 82.1901C169.307 81.935 168.823 81.8002 168.33 81.8001C167.693 81.8259 167.078 82.0457 166.57 82.4301C165.874 82.9308 165.245 83.519 164.7 84.1801C164.025 84.9976 163.426 85.8745 162.91 86.8001C162.286 87.87 161.725 88.9751 161.23 90.1101C160.67 91.3432 160.176 92.6049 159.75 93.8901C159.32 95.2201 158.93 96.5401 158.62 97.8901L156.36 107.48H147.43L152.43 85.2601C152.51 84.9401 152.55 84.5501 152.66 84.0501C152.762 83.5868 152.815 83.1143 152.82 82.6401" fill="black"/>
<path d="M191.61 103.55C192.198 103.55 192.78 103.445 193.33 103.24C193.958 102.993 194.558 102.681 195.12 102.31L196.52 104.18C196.034 104.686 195.498 105.141 194.92 105.54C194.295 106.019 193.625 106.438 192.92 106.79C192.142 107.185 191.315 107.474 190.46 107.65C189.477 107.877 188.469 107.981 187.46 107.96C185.593 108.081 183.742 107.543 182.23 106.44C181.621 105.936 181.139 105.296 180.821 104.572C180.503 103.848 180.359 103.06 180.4 102.27C180.483 100.046 180.798 97.8378 181.34 95.6799L186.46 72.9999C186.54 72.7699 186.58 72.5299 186.66 72.2599C186.74 71.9899 186.77 71.7899 186.81 71.5599C186.852 71.3656 186.879 71.1683 186.89 70.9699C186.89 70.8199 186.89 70.6999 186.89 70.6199C186.909 70.2103 186.855 69.8007 186.73 69.4099C186.629 69.1254 186.44 68.8803 186.19 68.7099C185.885 68.533 185.543 68.4271 185.19 68.3999C184.712 68.3487 184.232 68.322 183.75 68.3199H182.5L183.05 65.3999H197.36L190.3 95.7799C190.07 96.7799 189.87 97.7199 189.72 98.5799C189.565 99.3908 189.485 100.214 189.48 101.04C189.442 101.708 189.636 102.369 190.03 102.91C190.216 103.13 190.449 103.304 190.713 103.419C190.977 103.533 191.263 103.585 191.55 103.57" fill="black"/>
<path d="M214.27 104C215.296 104.016 216.301 103.715 217.15 103.14C218.05 102.535 218.83 101.769 219.45 100.88C220.172 99.9006 220.776 98.8401 221.25 97.72C221.744 96.5152 222.159 95.2792 222.49 94.02C222.799 92.8017 223.037 91.5662 223.2 90.32C223.343 89.2323 223.419 88.137 223.43 87.04C223.43 84.86 223.04 83.3 222.22 82.36C221.829 81.8896 221.335 81.514 220.778 81.2611C220.22 81.0083 219.613 80.8848 219 80.9C218.022 80.8964 217.063 81.1666 216.23 81.68C215.344 82.253 214.566 82.9774 213.93 83.82C213.2 84.7644 212.594 85.7997 212.13 86.9C211.607 88.0782 211.166 89.2911 210.81 90.53C210.46 91.7426 210.199 92.9792 210.03 94.23C209.864 95.3561 209.77 96.4918 209.75 97.63C209.75 99.85 210.14 101.49 210.96 102.46C211.357 102.964 211.87 103.366 212.455 103.63C213.04 103.895 213.68 104.015 214.32 103.98M200.67 96.34C200.668 94.8954 200.836 93.4555 201.17 92.05C201.527 90.553 202.05 89.1006 202.73 87.72C203.449 86.2823 204.343 84.9388 205.39 83.72C206.467 82.4359 207.728 81.3172 209.13 80.4C210.629 79.39 212.27 78.6112 214 78.09C215.951 77.5292 217.971 77.253 220 77.27C221.62 77.2692 223.232 77.4913 224.79 77.93C226.249 78.3308 227.605 79.0363 228.77 80C229.936 80.9766 230.845 82.2226 231.42 83.63C232.129 85.305 232.469 87.1122 232.42 88.93C232.417 90.3354 232.246 91.7353 231.91 93.1C231.593 94.5903 231.082 96.0326 230.39 97.39C229.674 98.8363 228.799 100.198 227.78 101.45C226.712 102.751 225.462 103.893 224.07 104.84C222.578 105.857 220.934 106.633 219.2 107.14C217.232 107.745 215.18 108.035 213.12 108C211.392 108.018 209.67 107.782 208.01 107.3C206.547 106.856 205.188 106.125 204.01 105.15C202.888 104.14 202.01 102.888 201.44 101.49C200.886 99.83 200.609 98.0901 200.62 96.34" fill="black"/>
<path d="M58.0004 41.18C58.0004 41.18 58.0004 41.18 57.9404 41.18C57.8804 41.18 57.8204 40.9 57.7104 40.59C56.8364 38.2081 55.6637 35.9467 54.2204 33.86C52.7731 32.024 51.1338 30.3478 49.3304 28.86C46.3102 26.5463 43.1288 24.451 39.8104 22.59C36.7916 20.8518 33.9366 18.8436 31.2804 16.59C29.1704 14.9213 27.4073 12.8558 26.0904 10.51C24.3404 7.31999 23.2804 4.32999 23.1904 2.28999C23.1904 1.82999 23.1904 1.61999 23.2404 1.55999C23.2904 1.49999 23.4404 1.61999 23.7204 2.07999C24.7481 3.77281 26.0144 5.30862 27.4804 6.63999C30.3566 9.1523 33.5589 11.2647 37.0004 12.92C40.2304 14.56 45.0004 17.12 46.4504 17.98C50.175 20.2046 53.6024 22.8927 56.6504 25.98C57.2504 26.59 58.4504 27.93 58.5804 28.12C58.5804 28.18 58.3804 28.33 58.0404 28.53C57.0276 29.1005 56.1399 29.8691 55.4304 30.79L55.3504 30.9C55.4751 30.8134 55.5922 30.7164 55.7004 30.61C56.5629 29.8533 57.5337 29.2298 58.5804 28.76L59.0004 28.57L59.6004 29.35C60.2313 30.201 60.8155 31.0856 61.3504 32C61.5104 32.28 61.7004 32.61 61.7004 32.62C61.7004 32.63 61.5604 32.7 61.5004 32.71C60.7104 33.0206 59.9615 33.427 59.2704 33.92C58.8804 34.1913 58.5417 34.5299 58.2704 34.92C58.4553 34.8846 58.6362 34.831 58.8104 34.76C59.6254 34.4667 60.4843 34.3145 61.3504 34.31C61.7709 34.3114 62.19 34.3583 62.6004 34.45C63.093 34.5588 63.5655 34.7444 64.0004 35C63.8072 35.1474 63.5995 35.2748 63.3804 35.38C62.1991 36.0109 61.1036 36.7906 60.1204 37.7C59.2122 38.5043 58.5413 39.5417 58.1804 40.7C58.1004 41.05 58.0404 41.18 57.9704 41.18" fill="black"/>
<path d="M57.6198 53.0001L55.9398 49.1901C56.0883 44.8892 55.0504 40.6304 52.9398 36.8801C52.0474 35.4378 51.0444 34.067 49.9398 32.7801C48.3654 31.0257 46.6276 29.4251 44.7498 28.0001C42.9184 26.702 41.0226 25.4972 39.0698 24.3901C39.0698 24.3901 36.0698 22.6101 33.4098 20.6301C30.917 18.8912 28.7219 16.7603 26.9098 14.3201C25.7845 12.8203 24.8412 11.1923 24.0998 9.47006C23.1969 7.43307 22.6037 5.27251 22.3398 3.06006V3.06006C22.9357 5.99554 24.01 8.8131 25.5198 11.4001C26.8813 13.5126 28.5004 15.4475 30.3398 17.1601V17.1601C30.3398 17.1601 32.7498 19.2801 34.6598 20.5901L35.4698 21.1301C36.4698 21.7901 37.7998 22.6401 38.3598 22.9501C38.3598 22.9501 42.8698 25.6401 46.7998 28.6201C48.6895 30.0494 50.4315 31.6641 51.9998 33.4401C52.8419 34.48 53.582 35.5985 54.2098 36.7801C55.7399 39.6287 56.7363 42.7331 57.1498 45.9401L57.6398 53.0001H57.6198Z" fill="black"/>
<path d="M55.6803 44.77C55.5085 44.6133 55.3662 44.427 55.2603 44.22V44.22C54.0975 42.3862 52.464 40.8978 50.5303 39.91C49.7818 39.6028 48.9997 39.3846 48.2003 39.26C47.8683 39.2231 47.5343 39.2064 47.2003 39.21H46.7603H45.8403V38.68C45.7395 37.4692 45.186 36.3409 44.2903 35.52L44.0003 35.27L44.2703 35.15C45.007 34.8494 45.7867 34.6671 46.5803 34.61C47.1803 34.61 47.2603 34.53 47.2603 34.51C47.2603 34.49 47.1503 34.51 46.2603 34.44H46.1003C45.3758 34.4492 44.6558 34.5569 43.9603 34.76L43.4503 34.89L42.8703 34.5C41.945 33.8942 40.9868 33.34 40.0003 32.84C39.7349 32.7151 39.4807 32.5679 39.2403 32.4C39.9556 32.1284 40.7009 31.9437 41.4603 31.85C42.4803 31.6691 43.5144 31.5788 44.5503 31.58C45.0384 31.5789 45.526 31.609 46.0103 31.67H46.1403C45.9037 31.6049 45.6632 31.5548 45.4203 31.52C44.5307 31.3789 43.631 31.312 42.7303 31.32C41.3427 31.315 39.9585 31.4557 38.6003 31.74L37.9803 31.88L36.7003 31.19C33.9991 29.8089 31.4228 28.1962 29.0003 26.37C27.3993 25.0749 25.8798 23.6822 24.4503 22.2C23.9367 21.6494 23.4527 21.0719 23.0003 20.47C23.0003 20.47 22.7903 20.14 22.4703 19.66C20.8967 17.3709 19.908 14.731 19.5908 11.9714C19.2735 9.2118 19.6373 6.41647 20.6503 3.82998C21.0964 2.64491 21.6875 1.51967 22.4103 0.47998C22.4856 0.956556 22.529 1.43762 22.5403 1.91998C22.554 2.7224 22.6377 3.52209 22.7903 4.30998C23.4638 7.47481 24.7147 10.4884 26.4803 13.2C27.0403 14.09 28.0003 15.43 28.5703 16.13C30.2503 18.23 35.0603 21.95 39.5703 24.64C41.7645 25.8957 43.8816 27.2815 45.9103 28.79C47.5788 30.0052 49.0933 31.4189 50.4203 33C51.6692 34.499 52.7366 36.1404 53.6003 37.89C54.4372 39.5704 55.0652 41.3469 55.4703 43.18C55.6279 43.6816 55.7088 44.2042 55.7103 44.73" fill="black"/>
<path d="M56.24 53.24C52.7521 53.0297 49.2775 52.6392 45.83 52.07C40.6682 51.2492 35.6025 49.909 30.71 48.07C28.3908 47.2095 26.1466 46.1593 24 44.93C21.21 43.27 19.69 41.67 19.47 40.21C19.4353 39.7892 19.5156 39.3669 19.7023 38.9882C19.889 38.6095 20.1751 38.2887 20.53 38.06C21.73 37.14 23.63 36.59 26.48 36.31C26.48 36.31 30.06 36.08 32.74 35.8C33.8554 35.7256 34.9608 35.5414 36.04 35.25C36.2212 35.2155 36.3963 35.1549 36.56 35.07C36.6449 35.0362 36.7218 34.9849 36.7855 34.9194C36.8493 34.854 36.8985 34.7758 36.93 34.69C36.9424 34.6331 36.9426 34.5743 36.9305 34.5174C36.9184 34.4605 36.8944 34.4069 36.86 34.36C35.5 33.36 32.44 32.45 29.48 31.63L29 31.48C25.88 30.6 22.19 29.7 20 29.15L18.25 28.72C18.3 28.72 22.5 29.33 27.04 30.3C29.69 30.89 31.95 31.48 33.73 32.07C35.3423 32.498 36.8477 33.2575 38.15 34.3C38.2352 34.387 38.298 34.4935 38.3329 34.6102C38.3677 34.727 38.3736 34.8504 38.35 34.97C38.27 35.26 37.93 35.54 37.35 35.75H37.29C34.4585 36.5491 31.554 37.0616 28.62 37.28C27.556 37.3646 26.4997 37.5284 25.46 37.77C24.02 38.13 22.29 38.77 22.24 39.86C22.19 40.95 23.68 42.5 26.24 44.02C29.5401 45.8312 33.045 47.2412 36.68 48.22C42.522 49.8003 48.5481 50.5973 54.6 50.59V50.59L56.24 53.24Z" fill="black"/>
<path d="M70.8703 48.1601C70.4837 48.1358 70.1204 47.9667 69.8529 47.6865C69.5853 47.4063 69.4333 47.0355 69.427 46.6482C69.4207 46.2608 69.5606 45.8853 69.8188 45.5965C70.0771 45.3078 70.4347 45.1269 70.8203 45.0901H70.8803C71.1778 45.0931 71.468 45.1823 71.7159 45.3467C71.9638 45.5112 72.1588 45.7439 72.2773 46.0168C72.3957 46.2897 72.4326 46.591 72.3835 46.8844C72.3343 47.1778 72.2012 47.4507 72.0003 47.6701C71.7207 47.966 71.337 48.1417 70.9303 48.1601H70.8603" fill="black"/>
<path d="M55.33 66H54.33C50.5247 65.8803 46.7647 65.1371 43.2 63.8C39.1658 62.3875 35.2858 60.5682 31.62 58.37C28.2545 56.3327 24.7605 54.5156 21.16 52.93C18.517 51.7752 15.7889 50.8258 13 50.09C10.7117 49.5039 8.36193 49.1917 6 49.16H5.25C3.63172 49.1819 2.02765 49.4656 0.5 50C0.354074 50.0682 0.199192 50.1154 0.04 50.14H0C0 50.14 0.32 49.73 0.8 49.37C2.53861 48.2308 4.52319 47.5212 6.59 47.3C7.5857 47.1843 8.58765 47.1309 9.59 47.14C10.9678 47.1269 12.3448 47.2138 13.71 47.4C17.3707 48.1284 20.9415 49.2517 24.36 50.75C26 51.42 29.79 53.12 31.23 53.82C32.89 54.63 34.88 55.49 36.28 56.03C38.47 56.86 43.59 58.56 45.58 59.1C47.8288 59.6893 50.1365 60.0247 52.46 60.1H53.23C55.1887 60.101 57.1445 59.9506 59.08 59.65C60.3053 59.4016 61.5116 59.0675 62.69 58.65C65.0279 57.8129 67.2415 56.6624 69.27 55.23C71.1999 54.0454 72.9998 52.6612 74.64 51.1C75.1785 50.565 75.7835 50.1012 76.44 49.72C77.069 49.3162 77.7395 48.9809 78.44 48.72L78.84 48.59L78.57 48.42C77.3233 47.6413 76.2783 46.5792 75.52 45.32C74.9566 44.5056 74.223 43.8232 73.37 43.32C72.5037 42.8229 71.5186 42.5705 70.52 42.59H70.04C68.4552 42.6939 66.9186 43.1775 65.56 44C65.2446 44.1897 64.9092 44.3439 64.56 44.46C64.56 44.46 64.56 44.46 64.56 44.46C64.56 44.46 64.79 44.15 65.4 43.58C65.84 43.19 66.4 42.68 66.76 42.45C67.648 41.8413 68.6131 41.3536 69.63 41C70.2403 40.8044 70.8793 40.7131 71.52 40.73H72.32C72.6572 40.7249 72.9936 40.7652 73.32 40.85C75.043 41.2557 76.5706 42.2494 77.64 43.66C79.48 45.77 81.35 47.24 82.64 47.59C82.78 47.59 83.05 47.71 83.05 47.75C83.05 47.79 82.67 47.99 82.47 48.09C81.2671 48.718 80.1078 49.4263 79 50.21C76.9676 51.7355 75.2093 53.5953 73.8 55.71C72.1026 58.0594 70.0037 60.0905 67.6 61.71C64.4542 63.8046 60.8807 65.1712 57.14 65.71C56.559 65.8124 55.97 65.8626 55.38 65.86" fill="black"/>
</svg>
