<?xml version="1.0" encoding="utf-8"?>
<svg version="1.1" xmlns="http://www.w3.org/2000/svg" x="0px" y="0px"
     width="135px" height="32px" viewBox="0 0 135 32" enable-background="new 0 0 135 32" xml:space="preserve">
<path fill="black" d="M22.5,16.6c-0.7-0.3-1.5-0.2-2.2,0.1c-0.1,0.1-0.3,0.1-0.4,0.2L5.6,8c0-0.3,0-0.5,0-0.8l5.8-3.5h0.1
	c0.5,0.2,1,0.1,1.4,0l5.8,3.5c0,0.3,0,0.5,0,0.8l-3.3,2.1c-0.5,0.3-0.7,1-0.4,1.6c0.3,0.5,1,0.7,1.6,0.4l0,0L20,9.9
	c0.8,0.5,1.9,0.6,2.8,0.2c1.4-0.6,2.1-2.3,1.5-3.7c-0.7-1.4-2.4-2-3.8-1.4c-0.1,0-0.1,0.1-0.2,0.1c-0.1,0.1-0.3,0.1-0.4,0.2
	l-5.8-3.5C14,0.7,13.1-0.1,12,0c-0.8,0.1-1.4,0.6-1.7,1.3c-0.1,0.2-0.1,0.3-0.1,0.5L4.5,5.3C4.3,5.2,4,5,3.8,5
	C2.3,4.4,0.7,5.2,0.2,6.7s0.2,3.1,1.7,3.6c0.7,0.3,1.5,0.2,2.2-0.1c0.1-0.1,0.3-0.1,0.4-0.2l14.3,9c0,0.3,0,0.5,0,0.8L13,23.3h-0.1
	c-0.5-0.2-1-0.1-1.4,0l-5.8-3.5c0-0.2,0-0.5,0-0.7L9,17c0.5-0.3,0.7-1,0.4-1.6c-0.3-0.5-1-0.7-1.6-0.4c0,0-0.1,0-0.1,0.1l-3.3,2.1
	c-1.3-0.9-3-0.5-3.9,0.8S0,21,1.3,21.9c0.5,0.3,1,0.5,1.5,0.5c0.4,0,0.8-0.1,1.2-0.3C4.1,22,4.3,22,4.4,21.9l5.8,3.5
	c0.1,0.8,0.6,1.4,1.3,1.7c1,0.4,2.1-0.2,2.5-1.2l0,0c0.1-0.2,0.1-0.3,0.1-0.5l5.8-3.5c0.2,0.1,0.4,0.3,0.7,0.3
	c1.5,0.5,3.1-0.2,3.6-1.7C24.7,18.7,23.9,17.1,22.5,16.6L22.5,16.6L22.5,16.6z"/>
    <path fill="black" d="M82.9,29.9c0-0.1-0.1-0.3-0.2-0.3c-0.2-0.1-0.4-0.2-0.6-0.2s-0.5-0.1-0.7-0.2c-0.1-0.1-0.3-0.2-0.4-0.3
	c0-0.2,0-0.3,0-0.5c0-0.3,0.1-0.5,0.3-0.7c0.2-0.2,0.5-0.3,0.8-0.3s0.6,0.1,0.9,0.3c0.2,0.2,0.3,0.4,0.3,0.7h-0.5
	c0-0.2-0.1-0.3-0.2-0.4c-0.1,0-0.3,0-0.5,0c-0.2,0-0.3,0-0.5,0.1c-0.1,0.1-0.2,0.2-0.2,0.3c0,0.1,0.1,0.2,0.2,0.3
	c0.2,0.1,0.4,0.2,0.6,0.2s0.5,0.1,0.7,0.2c0.1,0.1,0.3,0.2,0.4,0.3c0.1,0.1,0.1,0.3,0.1,0.4c0,0.3-0.1,0.5-0.3,0.7
	c-0.3,0.2-0.6,0.3-0.9,0.3c-0.2,0-0.5,0-0.7-0.1s-0.3-0.2-0.5-0.4c-0.1-0.2-0.2-0.3-0.2-0.5h0.5c0,0.2,0.1,0.3,0.2,0.4
	c0.3,0.2,0.7,0.2,1,0C82.8,30.2,82.9,30,82.9,29.9z"/>
    <path fill="black" d="M84.9,27.6V28c0.2-0.3,0.6-0.4,0.9-0.4c0.4,0,0.7,0.2,0.9,0.5c0.1-0.2,0.2-0.3,0.4-0.4
	c0.2-0.1,0.4-0.1,0.6-0.1c0.7,0,1.1,0.4,1.1,1.1v2.1h-0.5v-2.1c0-0.2,0-0.4-0.2-0.5C88,28,87.8,27.9,87.6,28c-0.2,0-0.4,0.1-0.5,0.2
	s-0.2,0.3-0.2,0.5v2.1h-0.5v-2.1c0.1-0.3-0.2-0.6-0.5-0.7c-0.1,0-0.1,0-0.2,0c-0.3,0-0.6,0.2-0.7,0.5v2.3h-0.5v-3.2
	C84.5,27.6,84.9,27.6,84.9,27.6z"/>
    <path fill="black" d="M92,30.7c0-0.1-0.1-0.2-0.1-0.3c-0.2,0.3-0.6,0.4-0.9,0.4s-0.6-0.1-0.8-0.3c-0.2-0.2-0.3-0.4-0.3-0.7
	c0-0.3,0.1-0.6,0.4-0.8c0.3-0.2,0.7-0.3,1.1-0.3h0.5v-0.3c0-0.2-0.1-0.3-0.2-0.5c-0.1-0.1-0.3-0.2-0.5-0.2s-0.3,0-0.5,0.1
	c-0.1,0.1-0.2,0.2-0.2,0.4H90c0-0.2,0.1-0.3,0.2-0.5c0.1-0.1,0.3-0.3,0.5-0.3c0.2-0.1,0.4-0.1,0.6-0.1c0.3,0,0.6,0.1,0.9,0.3
	c0.2,0.2,0.3,0.5,0.3,0.8V30c0,0.2,0,0.5,0.1,0.7l0,0H92z M91.1,30.3c0.2,0,0.3,0,0.5-0.1c0.1-0.1,0.3-0.2,0.3-0.3v-0.6h-0.4
	c-0.7,0-1,0.2-1,0.6c0,0.2,0.1,0.3,0.2,0.4C90.8,30.3,90.9,30.3,91.1,30.3z"/>
    <path fill="black" d="M95.1,28c-0.1,0-0.2,0-0.3,0c-0.3,0-0.6,0.2-0.7,0.5v2.3h-0.5v-3.2h0.5V28c0.2-0.3,0.4-0.4,0.8-0.4
	c0.1,0,0.2,0,0.2,0V28z"/>
    <path fill="black" d="M96.9,26.8v0.8h0.6V28h-0.6v2c0,0.1,0,0.2,0.1,0.3c0.1,0.1,0.2,0.1,0.3,0.1c0.1,0,0.2,0,0.3,0v0.4
	c-0.1,0-0.3,0.1-0.4,0.1c-0.2,0-0.4-0.1-0.6-0.2c-0.1-0.2-0.2-0.4-0.2-0.6v-2h-0.6v-0.4h0.6v-0.8h0.5V26.8z"/>
    <path fill="black" d="M102.2,30.4c-0.2,0.3-0.6,0.4-0.9,0.4s-0.6-0.1-0.8-0.3c-0.2-0.2-0.3-0.6-0.3-0.9v-2.1h0.5v2.1
	c0,0.5,0.2,0.7,0.6,0.7c0.3,0,0.7-0.1,0.8-0.5v-2.3h0.5v3.2h-0.5L102.2,30.4z"/>
    <path fill="black" d="M105.4,28c-0.1,0-0.2,0-0.3,0c-0.3,0-0.6,0.2-0.7,0.5v2.3h-0.5v-3.2h0.5V28c0.2-0.3,0.4-0.4,0.8-0.4
	c0.1,0,0.2,0,0.2,0V28z"/>
    <path fill="black" d="M108.9,29.2c0,0.4-0.1,0.8-0.3,1.2c-0.2,0.3-0.5,0.5-0.9,0.4c-0.4,0-0.7-0.1-0.9-0.4v0.4h-0.5v-4.5h0.5V28
	c0.2-0.3,0.6-0.4,0.9-0.4c0.4,0,0.7,0.2,0.9,0.4C108.9,28.3,109,28.7,108.9,29.2L108.9,29.2z M108.4,29.1c0-0.3-0.1-0.6-0.2-0.9
	c-0.1-0.2-0.4-0.3-0.6-0.3c-0.3,0-0.6,0.2-0.8,0.5v1.4c0.1,0.3,0.4,0.5,0.8,0.5c0.2,0,0.5-0.1,0.6-0.3
	C108.4,29.8,108.4,29.4,108.4,29.1L108.4,29.1z"/>
    <path fill="black" d="M111.9,30.7c0-0.1-0.1-0.2-0.1-0.3c-0.2,0.3-0.6,0.4-0.9,0.4s-0.6-0.1-0.8-0.3c-0.2-0.2-0.3-0.4-0.3-0.7
	c0-0.3,0.1-0.6,0.4-0.8c0.3-0.2,0.7-0.3,1.1-0.3h0.5v-0.3c0-0.2-0.1-0.3-0.2-0.5c-0.1-0.1-0.3-0.2-0.5-0.2s-0.3,0-0.5,0.1
	c-0.1,0.1-0.2,0.2-0.2,0.4h-0.6c0-0.2,0.1-0.3,0.2-0.5c0.1-0.1,0.3-0.3,0.5-0.3c0.2-0.1,0.4-0.1,0.6-0.1c0.3,0,0.6,0.1,0.9,0.3
	c0.2,0.2,0.3,0.5,0.3,0.8V30c0,0.2,0,0.5,0.1,0.7l0,0H111.9z M111,30.3c0.2,0,0.3,0,0.5-0.1c0.1-0.1,0.3-0.2,0.3-0.3v-0.6h-0.4
	c-0.7,0-1,0.2-1,0.6c0,0.2,0.1,0.3,0.2,0.4C110.7,30.3,110.8,30.3,111,30.3L111,30.3z"/>
    <path fill="black" d="M114,27.6V28c0.2-0.3,0.6-0.5,1-0.5c0.7,0,1,0.4,1,1.1v2.1h-0.5v-2.1c0-0.2,0-0.4-0.2-0.5
	c-0.1-0.1-0.3-0.2-0.5-0.2s-0.3,0-0.5,0.1c-0.1,0.1-0.2,0.2-0.3,0.4v2.3h-0.5v-3.2h0.5V27.6z"/>
    <path fill="black" d="M119.5,30.7H119v-4.5h0.5V30.7z"/>
    <path fill="black" d="M120.7,26.7c0-0.1,0-0.2,0.1-0.2c0.1-0.1,0.2-0.1,0.2-0.1c0.1,0,0.2,0,0.2,0.1c0.1,0.1,0.1,0.1,0.1,0.2
	s0,0.2-0.1,0.2c-0.1,0.1-0.1,0.1-0.2,0.1s-0.2,0-0.2-0.1C120.7,26.9,120.7,26.8,120.7,26.7z M121.3,30.7h-0.5v-3.2h0.5V30.7z"/>
    <path fill="black" d="M123.5,30l0.8-2.4h0.6l-1.1,3.2h-0.4l-1.2-3.2h0.6L123.5,30z"/>
    <path fill="black" d="M125.7,26.7c0-0.1,0-0.2,0.1-0.2c0.1-0.1,0.1-0.1,0.2-0.1c0.2,0,0.3,0.1,0.3,0.3c0,0,0,0,0,0.1
	s0,0.2-0.1,0.2c-0.1,0.1-0.2,0.1-0.2,0.1c-0.1,0-0.2,0-0.2-0.1C125.7,26.9,125.7,26.8,125.7,26.7z M126.3,30.7h-0.5v-3.2h0.5V30.7z"
    />
    <path fill="black" d="M128,27.6V28c0.2-0.3,0.6-0.5,1-0.5c0.7,0,1,0.4,1,1.1v2.1h-0.5v-2.1c0-0.2,0-0.4-0.2-0.5
	c-0.1-0.1-0.3-0.2-0.5-0.2s-0.3,0-0.5,0.1c-0.1,0.1-0.2,0.2-0.3,0.4v2.3h-0.5v-3.2h0.5V27.6z"/>
    <path fill="black" d="M131,29.1c0-0.4,0.1-0.8,0.3-1.2c0.4-0.5,1.2-0.6,1.7-0.2c0.1,0,0.1,0.1,0.2,0.1v-0.4h0.5v3.1
	c0,0.4-0.1,0.7-0.4,1c-0.3,0.2-0.6,0.4-1,0.4c-0.2,0-0.5-0.1-0.7-0.1c-0.2-0.1-0.4-0.2-0.5-0.4l0.3-0.3c0.2,0.3,0.5,0.4,0.9,0.4
	c0.2,0,0.5-0.1,0.6-0.2c0.2-0.2,0.2-0.4,0.2-0.6v-0.3c-0.2,0.3-0.6,0.4-0.9,0.4c-0.4,0-0.7-0.2-0.9-0.5
	C131.1,30,130.9,29.6,131,29.1z M131.5,29.2c0,0.3,0.1,0.6,0.2,0.8c0.1,0.2,0.4,0.3,0.6,0.3c0.3,0,0.6-0.2,0.8-0.5v-1.5
	c-0.1-0.3-0.4-0.5-0.8-0.5c-0.2,0-0.5,0.1-0.6,0.3C131.6,28.5,131.5,28.9,131.5,29.2z"/>
    <path fill="black" d="M30.1,19.5c0.1-0.4,0.4-0.8,0.8-1c0,0,1.6,1.6,4.7,1.6c2.4,0,3.8-1.2,3.8-2.9c0-1.2-1.1-2.1-3-2.5L33.9,14
	c-2.3-0.6-4.3-1.9-4.3-4.6c0-2.9,2.4-5.3,6.3-5.3c2.5,0,4.1,0.7,4.8,1.1s1.1,1.1,0.6,1.9c-0.2,0.3-0.4,0.6-0.7,0.8
	c-1.4-0.9-3-1.4-4.6-1.4c-2.3,0-3.4,1.2-3.4,2.8c0,1.3,1.5,1.9,2.9,2.3l2.4,0.7c3.3,0.9,4.5,2.6,4.5,4.9c0,3.3-2.8,5.3-6.7,5.3
	c-2.4,0-4.2-0.7-4.7-1C30.1,21,29.8,20.3,30.1,19.5z"/>
    <path fill="black" d="M45.6,6.1c0-0.7-0.3-1.8,0.9-1.8H52c4.5,0,7,2.7,6.9,6.1c0,3.4-2.4,6.2-6.8,6.2h-3.6c0,0.7,0,3.6,0.1,3.8
	c0,0.7,0.4,1.8-0.9,1.8h-1.1c-1,0-1-0.9-1-1.6C45.7,18.9,45.6,6.6,45.6,6.1z M52,14.6c2.7,0,4-1.6,4-3.9c0-2.4-1.2-4.2-4-4.2h-3.5
	c-0.1,1.2,0.1,6.8,0,8.1C48.5,14.6,52,14.6,52,14.6z"/>
    <path fill="black" d="M62.5,6.1c0-0.7-0.4-1.8,0.9-1.8h1.1c1,0,1,0.9,1,1.6c-0.1,2.8,0,13.5,0.1,14.6c0.1,0.7,0.4,1.8-0.9,1.8h-1
	c-1,0-1-0.9-1-1.6C62.7,18.9,62.5,8.8,62.5,6.1z"/>
    <path fill="black" d="M70.4,6.1c0-0.7-0.1-1.7,1.2-1.7H77c4.4,0,6.7,2.4,6.7,5.9c0,2.8-1.8,4.6-4,5.4l2.9,3.8
	c0.4,0.6,0.9,0.6,1.5,0.6c0.4,1.8-0.4,2.4-1.6,2.4c-1.3,0-1.8-0.7-2.4-1.5l-3.4-4.9h-3.6c0,0.7-0.1,4.2,0,4.8
	c0.1,0.9-0.2,1.2-0.9,1.2h-1c-1,0-1-0.9-1-1.6C70.4,18.9,70.4,6.6,70.4,6.1z M77,14.1c2.1,0,3.7-1.3,3.7-3.8c0-1.8-1.1-3.8-3.8-3.8
	h-3.8c-0.1,1.6,0,6.6,0,7.6H77z"/>
    <path fill="black" d="M87.9,6.1c0-0.7-0.4-1.8,0.9-1.8h1.1c1,0,1,0.9,1,1.6C90.8,8.7,91,19.4,91,20.5c0.1,0.7,0.4,1.8-0.9,1.8h-1
	c-1,0-1-0.9-1-1.6C88.1,18.9,87.9,8.8,87.9,6.1z"/>
    <path fill="black" d="M97.3,18.1c1.1,0,2.1,0.2,2.1,2.2s-0.9,2.2-2.1,2.2s-2.1-0.2-2.1-2.2C95.2,18.3,96.1,18.1,97.3,18.1z"/>
    <path fill="black" d="M103.3,5.6c0-0.7-0.1-1.2,1.3-1.2h4.9c4.5,0,6.3,2,6.3,4.6c0,3.2-3.3,3.8-3.3,3.8V13c0,0,4.1,0.4,4.1,4.3
	c0,2.9-2.1,5.1-6.6,5.1h-5.6c-1,0-1-0.9-1-1.6C103.4,18.9,103.3,6.1,103.3,5.6z M109.9,20.1c2,0,3.7-0.9,3.7-3.2c0-1.9-1.5-3-3.8-3
	h-3.7v6.2L109.9,20.1z M109.5,11.9c2.1,0,3.4-0.9,3.4-2.8c0-1.7-1.4-2.6-3.4-2.6h-3.3v5.4H109.5z"/>
    <path fill="black" d="M127.1,4.1c5.1,0,7.9,4,7.9,9.2s-2.8,9.2-7.9,9.2c-5.4,0-8-3.9-8-9.2C119.1,8.1,121.7,4.1,127.1,4.1z
	 M132.1,13.3c0-3.6-1.3-6.8-5-6.8c-3.8,0-5.1,3.2-5.1,6.8s1.3,6.8,5.1,6.8C130.8,20.1,132.1,16.8,132.1,13.3L132.1,13.3z"/>
</svg>
