<svg width="589" height="147" viewBox="0 0 589 147" fill="none" xmlns="http://www.w3.org/2000/svg">
<path d="M49.4798 40.4102H42.2398C38.2616 40.4102 34.4462 41.9905 31.6332 44.8036C28.8202 47.6166 27.2398 51.4319 27.2398 55.4102V117.82C15.9311 106.448 9.30437 91.2439 8.67146 75.2183C8.03856 59.1927 13.4456 43.5136 23.8222 31.2847C34.1989 19.0558 48.7887 11.1686 64.7035 9.18438C80.6184 7.20015 96.6982 11.2635 109.76 20.5702L112.7 11.6302C103.996 6.02994 94.2023 2.34104 83.9666 0.807359C73.7309 -0.726325 63.2863 -0.0698535 53.3232 2.73337C43.3601 5.5366 34.1055 10.4227 26.1712 17.0687C18.237 23.7147 11.8038 31.9692 7.29702 41.2864C2.79026 50.6036 0.312548 60.7713 0.0277028 71.1174C-0.257142 81.4634 1.65737 91.752 5.64466 101.303C9.63194 110.854 15.6012 119.45 23.1577 126.523C30.7143 133.595 39.686 138.983 49.4798 142.33V40.4102Z" fill="black"/>
<path d="M116.36 14.1702L113.36 23.3002L90.1697 93.8302L71.7097 40.4102H49.7097L73.2497 109.31H96.4597C99.613 109.313 102.687 108.323 105.245 106.479C107.803 104.635 109.715 102.033 110.71 99.0402L129.47 42.7002C135.525 53.9278 138.09 66.7075 136.837 79.4022C135.584 92.0968 130.569 104.128 122.435 113.955C114.301 123.782 103.419 130.956 91.1819 134.56C78.945 138.163 65.911 138.031 53.7497 134.18V143.64C70.228 148.153 87.7661 146.753 103.32 139.685C118.874 132.617 131.463 120.325 138.901 104.944C146.339 89.5636 148.157 72.0639 144.039 55.4826C139.922 38.9013 130.129 24.2849 116.36 14.1702V14.1702Z" fill="black"/>
<path d="M515.03 33.5203V110.52H500.03V43.7003C500.03 41.0004 501.102 38.411 503.011 36.5019C504.921 34.5928 507.51 33.5203 510.21 33.5203H515.03Z" fill="black"/>
<path d="M531.41 33.5203L551.95 85.2103L572.49 33.5203H588.89L556.35 110.52H547.35L515.04 33.5203H531.41Z" fill="black"/>
<path d="M208.41 46.4403V110.44H193.41V46.4403H176.1V33.5203H225.71V46.4403H208.41Z" fill="black"/>
<path d="M273.26 33.5203V110.52H258.26V33.5203H273.26Z" fill="black"/>
<path d="M356.57 46.4402H328.89V63.6302H355.43V76.5602H328.89V97.5602H356.58V110.48H313.89V33.4802H356.58L356.57 46.4402Z" fill="black"/>
<path d="M416.46 33.5202C427.08 33.5202 432.46 36.2902 436.08 39.2902C441.96 44.2902 443.69 50.8302 443.69 56.5902C443.69 64.0902 440.69 70.6702 434.69 74.7102C432.155 76.4165 429.284 77.5589 426.27 78.0602L450.27 110.48H431.58L411.04 79.5602H409.19V110.48H394.19V33.4802L416.46 33.5202ZM409.19 68.9302H413.46C416.35 68.9302 428.23 68.5802 428.23 57.2802C428.23 45.9802 416.46 45.7502 413.69 45.7502H409.19V68.9302Z" fill="black"/>
</svg>
