<svg xmlns="http://www.w3.org/2000/svg" fill="none" viewBox="0 0 142 43" height="43" width="142">
<path fill="black" d="M123.912 25.6358C124.014 25.9434 124.495 25.9225 124.796 26.0111C124.905 26.2092 124.895 26.1727 125.009 26.5142H120.993C121.152 26.2509 121.144 26.2014 121.251 26.0111C121.537 25.873 121.927 25.8834 121.989 25.5107V19.2111C122.605 19.0938 123.27 19.0286 123.915 18.9139L123.912 25.6358ZM68.1553 26.5142L67.9785 26.0111C67.4015 25.899 67.0012 25.8912 67.0012 25.5263V16.3284H68.8545C69.6577 16.3284 69.7122 16.9852 69.9722 18.205H70.5154L70.3907 15.3197H61.4075L61.2854 18.205H61.8234C62.0807 16.9852 62.1379 16.3284 62.9411 16.3284H64.7996V25.5263C64.7996 25.8912 64.3967 25.899 63.8197 26.0111L63.6429 26.5142H68.1553ZM92.8381 26.5142H94.0363L95.3749 22.1198L96.7708 26.5142H98.0158L99.6508 20.3136C99.8197 19.7558 100.186 19.7297 100.651 19.6463L100.826 19.1433H97.8001L97.9768 19.6463C98.3875 19.7245 98.5903 19.7714 98.5903 19.9747C98.5903 20.0816 98.5695 20.1989 98.5305 20.3501C98.2575 21.4864 97.7845 23.4204 97.7845 23.4204L96.5108 19.1433H95.2606L93.9453 23.3917C93.5555 21.8148 93.5295 21.6559 93.3397 20.8531C93.2773 20.5794 93.2097 20.3136 93.2097 20.1389C93.2097 19.8861 93.3423 19.7402 93.8674 19.6489L94.0467 19.1459H89.9814L90.1608 19.6489C90.5611 19.7193 90.9796 19.7584 91.0627 20.0399L92.8381 26.5142ZM122.985 18.3223C123.567 18.3223 124.037 17.8505 124.037 17.2667C124.037 16.6855 123.567 16.2111 122.985 16.2111C122.402 16.2111 121.932 16.6855 121.932 17.2667C121.932 17.8479 122.405 18.3223 122.985 18.3223ZM70.687 26.6028C71.2614 26.6028 71.7293 26.1362 71.7293 25.5576C71.7293 24.979 71.2614 24.5124 70.687 24.5124C70.1073 24.5124 69.6421 24.979 69.6421 25.5576C69.6421 26.1362 70.1073 26.6028 70.687 26.6028ZM83.0674 22.8235C83.0492 20.6811 84.2474 18.8748 86.7401 18.8748C89.1341 18.8748 90.4155 20.5325 90.4155 22.8235C90.4155 25.0181 89.2069 26.7826 86.7401 26.7826C84.2708 26.7826 83.0674 25.0389 83.0674 22.8235ZM88.2633 22.8235C88.2633 20.6342 87.8786 19.5916 86.7375 19.5916C85.4067 19.5916 85.217 21.1137 85.217 22.8235C85.217 25.1458 85.6614 26.0632 86.7375 26.0632C87.8396 26.0659 88.2633 25.0832 88.2633 22.8235ZM84.0083 26.8035C83.3455 26.8035 83.031 26.4386 82.8048 26.0398C82.8048 26.0398 80.2003 21.5516 79.4907 20.8166C80.2939 20.5977 81.9237 20.0086 81.9237 17.8036C81.9237 16.2711 80.9723 15.3197 78.9215 15.3197H73.0991L73.2733 15.8254C73.8529 15.9348 74.2532 15.9453 74.2532 16.3102V25.5263C74.2532 25.8912 73.8529 25.899 73.2733 26.0111L73.0991 26.5142H77.6089L77.4347 26.0111C76.8551 25.899 76.4548 25.8912 76.4548 25.5263V16.3519C76.4548 16.1642 76.512 16.086 76.6939 16.086H77.6998C79.288 16.086 79.6415 16.881 79.6415 18.1685C79.6415 19.7714 78.7162 20.5012 77.3645 20.5012H76.9512C77.939 22.0155 78.5394 23.3578 79.5037 24.9399C80.8138 27.0902 81.5858 27.3951 82.927 27.3951C83.5664 27.3951 83.8497 27.2909 84.0629 27.2439L84.0083 26.8035ZM118.464 20.2562V18.8357L116.848 19.284C116.998 19.0364 117.18 18.4891 117.18 17.8636C117.18 16.2919 116.268 15.3223 114.181 15.3223H108.356L108.535 15.828C109.112 15.9375 109.51 15.9479 109.51 16.3128V25.5263C109.51 25.8912 109.11 25.899 108.535 26.0111L108.356 26.5142H112.868L112.694 26.0111C112.114 25.899 111.714 25.8912 111.714 25.5263V16.3571C111.714 16.1772 111.763 16.086 111.953 16.086H112.902C114.537 16.086 114.896 16.8705 114.896 18.1581C114.896 19.6568 114.074 20.5012 112.658 20.5012H112.208L112.613 21.1476C112.712 21.1606 113.027 21.2076 113.375 21.2076C114.633 21.2076 115.883 20.3918 116.211 20.0894C116.408 20.1337 116.543 20.2797 116.543 20.6159V25.5263C116.543 25.8912 116.141 25.899 115.564 26.0111L115.387 26.5142H119.621L119.447 26.0111C118.87 25.899 118.47 25.8912 118.47 25.5263L118.467 21.0434C118.618 20.827 118.88 20.4309 119.392 20.4309C119.855 20.4309 120.076 20.8505 120.18 21.5959H120.702L121.134 18.8774C119.912 18.8279 118.989 19.5681 118.464 20.2562ZM104.896 25.8182C105.629 25.8182 106.23 25.456 106.424 25.3361L106.482 25.8626C106.204 26.1076 105.419 26.7826 103.908 26.7826C101.41 26.7826 100.399 24.8956 100.399 22.8287C100.399 21.5229 100.781 18.8774 103.898 18.8774C106.661 18.8774 107.126 21.3822 107.181 22.2293L106.76 22.6228H102.453C102.45 24.4603 103.298 25.8182 104.896 25.8182ZM102.489 21.9217H105.242C105.242 21.0486 105.034 19.5916 103.867 19.5916C102.658 19.5916 102.489 21.132 102.489 21.9217ZM136.21 25.8182C136.943 25.8182 137.546 25.456 137.735 25.3361L137.793 25.8626C137.514 26.1076 136.732 26.7826 135.217 26.7826C132.721 26.7826 131.713 24.8956 131.713 22.8287C131.713 21.5229 132.098 18.8774 135.214 18.8774C137.975 18.8774 138.437 21.3822 138.494 22.2293L138.071 22.6228H133.764C133.761 24.4603 134.611 25.8182 136.21 25.8182ZM133.8 21.9217H136.558C136.558 21.0486 136.345 19.5916 135.178 19.5916C133.966 19.5916 133.8 21.132 133.8 21.9217ZM128.849 26.78C130.234 26.78 131.092 26.0632 131.339 25.8626L131.281 25.3361C131.061 25.4742 130.385 25.8182 129.73 25.8182C128.079 25.8182 127.091 24.3665 127.091 22.5342C127.091 21.0564 127.492 19.5916 128.737 19.5916C129.683 19.5916 130.081 20.2693 130.263 21.5933H130.788L131.164 19.2215C131.071 19.1928 130.208 18.8774 128.864 18.8774C126.608 18.8774 125.035 20.1233 125.035 22.7167C125.033 24.82 126.189 26.78 128.849 26.78ZM141.863 18.7993C141.863 19.589 141.226 20.2276 140.439 20.2276C139.651 20.2276 139.014 19.589 139.014 18.7993C139.014 18.0095 139.651 17.371 140.439 17.371C141.226 17.371 141.863 18.0121 141.863 18.7993ZM140.439 17.569C139.771 17.569 139.23 18.119 139.23 18.7993C139.23 19.4795 139.771 20.0295 140.439 20.0295C141.107 20.0295 141.647 19.4795 141.647 18.7993C141.647 18.119 141.107 17.569 140.439 17.569ZM141.153 19.5317C141.128 19.5056 141.107 19.4274 141.096 19.2997C141.086 19.1954 141.081 19.1381 141.078 19.1251C141.07 19.0521 141.057 18.9973 141.034 18.9609C141 18.8957 140.951 18.8514 140.881 18.8253C141.039 18.7471 141.117 18.6246 141.117 18.4526C141.117 18.2884 141.047 18.1659 140.909 18.0851C140.829 18.0382 140.717 18.0147 140.576 18.0147H139.81V19.5864H140.062V18.9218H140.475C140.566 18.9218 140.639 18.9296 140.691 18.9478C140.764 18.9713 140.808 19.0338 140.829 19.1329C140.839 19.1824 140.844 19.2632 140.849 19.3831C140.855 19.4795 140.873 19.5473 140.904 19.5864H141.205L141.153 19.5317ZM140.751 18.6742C140.696 18.7028 140.597 18.7185 140.452 18.7185H140.064V18.2285H140.511C140.602 18.2285 140.673 18.2363 140.719 18.2519C140.816 18.2832 140.862 18.3562 140.862 18.4656C140.862 18.5647 140.826 18.6324 140.751 18.6742Z"></path>
<path fill="black" d="M13.332 42.0645C13.437 40.6178 13.8629 39.2645 14.4288 38.0395C14.6564 37.532 14.8431 37.6486 14.8431 38.0395C14.8431 39.2295 14.8781 40.6236 15.1639 42.0645H13.332ZM26.9922 19.9678C26.9922 20.5278 27.1789 20.697 27.6105 20.662C28.3221 20.6036 28.7129 20.662 28.9404 21.1286C29.0337 21.3153 29.2203 21.2803 29.2787 21.1111C29.372 20.7553 29.4653 20.6795 29.8969 20.662C30.1769 20.6445 30.2178 20.3995 30.2178 19.9853C30.2178 19.6878 30.1244 19.5536 29.9203 19.5536C29.7353 19.5536 29.5706 19.5789 29.4127 19.6031C29.2669 19.6255 29.1267 19.647 28.9812 19.647C28.5334 19.647 28.1842 19.6071 27.9047 19.5751C27.7183 19.5539 27.5627 19.5361 27.4297 19.5361C27.1497 19.5361 26.9981 19.7811 26.9981 19.9678H26.9922ZM21.2061 14.1986C22.1219 14.1811 23.0376 14.7645 23.3584 15.2311H23.3642C23.3993 15.2836 23.3642 15.377 23.2885 15.3595C23.1601 15.3186 23.0668 15.3011 22.9151 15.3011C23.0085 15.9778 22.501 16.2753 21.8652 16.2753C21.0253 16.2753 20.5937 15.657 20.4421 15.1728C20.3079 15.1728 20.1971 15.2078 20.0279 15.3011C19.9171 15.377 19.8413 15.3011 19.8413 15.1903C19.8413 14.7411 20.3662 14.1811 21.2061 14.1986ZM32.0667 13.0553C31.6934 11.8361 30.8885 10.827 29.6344 10.827C28.6954 10.827 28.1938 11.1828 27.9663 11.4453C28.6779 11.7836 29.5003 12.5886 29.8561 13.6153C30.4919 12.8861 31.0518 12.8861 32.0667 13.0553Z" clip-rule="evenodd" fill-rule="evenodd"></path>
<path fill="black" d="M42.9389 0.0644531H0.931549V42.0645H11.9904C12.3754 37.8936 12.842 36.2253 15.0468 31.897C17.5549 26.9736 18.3248 23.2286 18.3248 18.3753C18.3248 18.3219 18.3252 18.2639 18.3256 18.2022L18.3257 18.1904C18.3295 17.6793 18.3351 16.9257 18.144 16.497C17.1524 16.5961 15.7351 16.1586 14.8952 15.1495C14.1835 14.2861 13.6994 13.1836 13.6994 12.4895C13.6994 12.3378 13.7169 12.227 13.8103 12.1336C14.7376 11.877 16.5575 12.2911 17.794 12.8686C18.3014 12.0403 18.7447 11.5036 19.8471 10.897C18.8439 8.76779 17.0241 7.34445 14.2827 7.34445C11.1155 7.34445 9.03903 9.12362 8.36248 10.8445C8.15834 11.3695 8.43827 11.4803 8.7766 11.142C10.1414 9.75362 11.5879 9.06529 13.4778 9.06529C15.7992 9.06529 17.1641 10.5236 17.1641 11.142C17.1641 11.3461 17.0124 11.3461 16.8082 11.2703L16.7801 11.2611C16.045 11.0197 15.3866 10.8036 14.131 10.8036C10.6314 10.8036 9.02153 14.082 9.02153 16.8703C9.02153 18.4045 9.56401 19.5303 10.6314 19.5303C11.4538 19.5303 11.9263 19.0053 12.3346 18.1653C12.4629 17.9028 12.6728 17.9028 12.842 18.1828C13.0695 18.5561 13.122 19.192 13.122 19.682C13.122 21.8928 11.4947 23.0536 9.62235 23.0536C6.12269 23.0536 3.9879 19.9445 3.9879 15.902C3.9879 10.4361 7.43505 4.68445 14.4344 4.68445C19.4738 4.68445 22.0927 7.37362 23.4868 10.0395H24.2275C25.2366 7.64195 27.0564 6.21862 29.7686 6.21862C33.3849 6.21862 34.8781 9.03029 34.8781 12.3786C34.8781 13.2946 34.7819 14.1743 34.6896 15.0185L34.6894 15.0196C34.6042 15.7987 34.5223 16.5476 34.5223 17.267C34.5223 18.3695 34.9889 19.6061 36.243 19.6061C37.0479 19.6061 37.7245 19.0811 38.0569 17.827C38.1503 17.4886 38.3544 17.4361 38.6402 17.792C38.8269 18.0195 39.0893 18.562 39.0893 19.1978C39.0893 20.9595 37.9461 22.8145 35.6597 22.832C33.7115 22.8495 32.5333 21.782 32.2884 20.4345C32.2534 20.207 32.4575 20.0961 32.5858 20.2828C33.2974 21.222 34.2132 21.7236 35.508 21.7236C36.2371 21.7236 36.9662 21.4028 37.2112 20.8603C37.287 20.6911 37.2287 20.5978 37.1004 20.6561C36.6512 20.8603 36.2605 20.9361 35.8288 20.9361C32.8308 20.9361 32.4575 17.8853 32.2534 14.7936C31.9734 15.5986 31.431 16.2928 30.0253 16.4211C30.1536 16.217 30.2527 15.8786 30.2527 15.6336C30.2527 15.3886 30.1244 15.2195 29.8211 15.2195C29.372 15.2195 28.9812 15.5578 28.9812 16.1003C28.9812 16.645 29.3824 17.2178 29.7972 17.8102C30.1376 18.2962 30.4872 18.7953 30.6319 19.3028C30.7252 19.6411 30.7252 19.9386 30.7252 20.312C30.7252 20.9653 30.6494 21.607 30.556 21.922C30.4802 22.167 30.311 22.2428 29.8269 22.2428C29.4886 22.2428 29.3778 22.132 29.302 21.852C29.267 21.7003 29.2086 21.5136 29.0978 21.5136C28.9756 21.5136 28.9327 21.6514 28.8785 21.8259L28.8704 21.852C28.7596 22.2428 28.4212 22.3186 27.6163 22.3186C27.3026 22.3186 27.097 22.3028 26.9622 22.2924C26.8966 22.2874 26.8477 22.2836 26.8114 22.2836C26.6073 22.2836 26.5314 22.3595 26.5314 22.4703C26.5314 22.622 26.5489 22.7678 26.5898 22.902C26.6248 23.0128 26.7006 23.0536 26.928 23.0128C27.6747 22.902 28.3338 22.8845 28.8354 22.8845C30.2002 22.8845 30.276 23.0128 30.1652 23.4853C30.0719 23.8995 29.9203 24.442 29.6986 24.9261C29.547 25.247 29.4361 25.282 29.2145 25.2995C28.7654 25.3345 28.1646 25.3578 27.7155 25.3345C26.9002 25.2961 26.1852 25.0377 25.5053 24.7921C24.8426 24.5527 24.2132 24.3253 23.5567 24.3253C23.2012 24.3253 22.8762 24.3738 22.5431 24.4236C22.1932 24.4758 21.8344 24.5295 21.4219 24.5295C20.617 24.5295 20.0454 24.3603 19.4972 23.9695C18.7039 27.0028 18.4123 30.707 18.4123 32.4103C18.4123 33.5886 18.7506 34.8661 19.3513 35.3503C19.5555 35.5195 19.7421 35.5195 19.8938 35.2395C21.3567 32.5185 22.9397 31.5806 24.4379 30.6929C25.8369 29.864 27.162 29.0789 28.2463 26.927C28.3571 26.7228 28.5845 26.7578 28.6195 27.0028C28.9928 29.2136 28.7479 31.8911 28.2638 34.4578C28.2054 34.7553 28.4154 34.872 28.6195 34.6095C29.2378 33.822 30.0427 32.3986 30.3402 31.2553C30.4161 30.9753 30.6377 30.9578 30.7543 31.2378C31.4835 33.017 32.3059 36.3886 32.5509 38.8211C32.5683 39.0836 32.8133 39.1011 32.9066 38.8561C33.4315 37.3978 33.7699 34.977 33.3733 33.1978C33.3383 32.9936 33.4491 32.877 33.6707 32.9936C36.9254 34.5745 40.0926 37.4795 42.9389 42.0528V0.0644531Z"></path>
</svg>
