<svg width="78" height="30" viewBox="0 0 78 30" fill="none" xmlns="http://www.w3.org/2000/svg">
    <g clip-path="url(#clip0)">
        <path d="M36.7 23.6H34.7V5.49999H28V3.79999H43.3V5.59999H36.6V23.6H36.7Z" fill="black"/>
        <path d="M49.6 23.6C49.6 23.2 49.5 22.8 49.5 22.4C49.5 22 49.5 21.6 49.5 21.3C49.1 22.1 48.5 22.8 47.7 23.2C46.9 23.7 46 23.9 45 23.9C44.3 24 43.6 23.8 43 23.6C42.4 23.3 41.8 22.9 41.3 22.4C40.4 21.3 40 19.9 40.1 18.5V10.4H42V17.7C42 18.3 42 19 42.2 19.6C42.3 20.1 42.5 20.6 42.8 21C43.1 21.4 43.5 21.7 43.9 21.9C44.4 22.1 45 22.3 45.6 22.2C46.1 22.2 46.6 22.1 47.1 21.9C47.6 21.7 48 21.4 48.3 21C48.7 20.5 49 20 49.2 19.4C49.4 18.7 49.6 17.9 49.5 17.1V10.4H51.3V20.6C51.3 21 51.3 21.4 51.3 22C51.3 22.6 51.3 23.1 51.4 23.5L49.6 23.6Z" fill="black"/>
        <path d="M56.3 23.6H54.4V3.79999H56.3V23.6Z" fill="black"/>
        <path d="M61.6 5.10001C61.6 5.30001 61.6 5.50001 61.5 5.60001C61.4 5.80001 61.3 5.90001 61.2 6.00001C61 6.30001 60.6 6.40001 60.3 6.40001C59.9 6.40001 59.6 6.30001 59.3 6.00001C59 5.80001 58.9 5.40001 58.9 5.10001C58.9 4.70001 59 4.40001 59.3 4.10001C59.4 4.00001 59.6 3.90001 59.7 3.80001C59.9 3.70001 60 3.70001 60.2 3.70001C60.4 3.70001 60.5 3.70001 60.7 3.80001C60.9 3.90001 61 4.00001 61.1 4.10001C61.2 4.20001 61.3 4.40001 61.4 4.50001C61.6 4.70001 61.6 4.90001 61.6 5.10001ZM61.2 23.6H59.3V10.5H61.2V23.6Z" fill="black"/>
        <path d="M66.1 30H64.2V10.5H66.1V12.8H66.2C66.7 12 67.5 11.3 68.4 10.9C69.3 10.5 70.2 10.2 71.2 10.2C72.2 10.2 73.1 10.4 74 10.7C74.8 11 75.5 11.5 76.1 12.2C76.7 12.8 77.2 13.6 77.5 14.4C78.1 16.2 78.1 18.1 77.5 19.8C77.2 20.6 76.7 21.4 76.1 22C75.5 22.6 74.8 23.1 74 23.5C73.1 23.9 72.2 24 71.2 24C70.2 24 69.3 23.8 68.4 23.4C67.5 23 66.8 22.3 66.2 21.5H66.1V30ZM75.9 17C75.9 16.3 75.8 15.6 75.6 14.9C75.4 14.3 75.1 13.7 74.6 13.2C74.2 12.7 73.6 12.3 73 12.1C72 11.7 71 11.5 70 11.7C69 11.9 68 12.4 67.3 13.2C66.8 13.7 66.5 14.3 66.3 14.9C65.8 16.2 65.8 17.7 66.3 19.1C66.5 19.7 66.9 20.3 67.3 20.8C67.8 21.3 68.3 21.7 69 21.9C69.6 22.2 70.3 22.3 71 22.3C71.7 22.3 72.4 22.2 73.1 21.9C73.7 21.6 74.2 21.3 74.7 20.8C75.1 20.3 75.5 19.7 75.7 19.1C75.8 18.4 75.9 17.7 75.9 17Z" fill="black"/>
        <path d="M24.3 17.1C23.1 16 21.9 15 20.5 14.2C20.7 13.8 21 13.4 21.2 12.9C21.8 11.7 23.7 7.8 22.7 6.5C22.2 5.9 21.1 5.5 19.1 5.5C17.6 5.5 16 5.7 14.5 6C14 2.9 13 0.5 11.9 0.1C11.8 0 11.6 0 11.5 0C8.69998 0 1.59998 7.5 0.49998 13.7C0.0999803 16.1 0.399981 19.1 3.69998 21.1C3.99998 21.8 4.39998 22.4 4.89998 22.9C6.29998 24.3 8.49998 25.1 11.3 25.1C17.1 25.1 25.4 21.5 25.5 19.1C25.5 18.6 25.1 17.9 24.3 17.1ZM19.1 6.4C21 6.4 21.8 6.8 21.9 7C22.2 7.4 21.9 9.4 20.3 12.5C20.1 12.9 19.9 13.3 19.6 13.8C18.1 12.9 16.5 12.2 14.9 11.6C14.9 10 14.8 8.5 14.5 6.9C16.1 6.6 17.6 6.5 19.1 6.4ZM8.49998 21.6C8.29998 21.6 8.09998 21.6 7.89998 21.6C6.69998 21 5.69998 20.2 4.99998 19C4.49998 18.3 4.09998 17.6 3.79998 16.8C3.99998 13.2 5.89998 11.4 9.29998 11.4C10.9 11.4 12.5 11.7 14 12.3C14 13.4 13.9 14.4 13.7 15.5C13.4 18.3 12 21.6 8.49998 21.6ZM9.39998 10.5C7.39998 10.5 5.19998 11.1 3.89998 13.3C3.99998 13.2 3.99998 13 4.09998 12.9C5.29998 10.4 8.29998 8.9 10.6 8C11.6 7.6 12.7 7.3 13.8 7.1C14 8.5 14.1 9.9 14.1 11.3C12.6 10.8 11 10.5 9.39998 10.5ZM4.29998 19.6C4.69998 20.1 5.09998 20.6 5.49998 21C5.09998 20.8 4.69998 20.7 4.39998 20.5C4.19998 20.1 4.09998 19.6 3.99998 19.1C4.09998 19.2 4.19998 19.4 4.29998 19.6ZM14.8 15.6C15 14.6 15.1 13.6 15.1 12.5C16.6 13 18 13.7 19.3 14.5C17.2 17.9 14.3 21 11.4 21.8C13 20.8 14.2 18.7 14.8 15.6ZM1.39998 13.9C2.49998 7.6 9.49998 0.9 11.5 0.9H11.6C12.3 1.1 13.1 3.3 13.6 6.1C9.29998 7.2 4.89998 9.3 3.29998 12.4C2.99998 13 2.79998 13.6 2.69998 14.3C2.69998 14.3 2.69998 14.7 2.69998 15C2.59998 16.5 2.79998 18 3.19998 19.5C3.19998 19.6 3.19998 19.6 3.19998 19.7C1.49998 18.2 0.89998 16.3 1.39998 13.9ZM11.3 24.2C8.69998 24.2 6.79998 23.6 5.49998 22.3C5.39998 22.2 5.29998 22.1 5.29998 22C6.49998 22.5 7.89998 22.8 9.19998 22.9C9.29998 22.9 9.79998 23 9.89998 23C12.5 23 16.5 20.9 20.1 15C21.4 15.8 22.6 16.7 23.7 17.8C24.3 18.5 24.5 18.9 24.5 19.1C24.5 20.4 17.6 24.2 11.3 24.2Z" fill="black"/>
    </g>
    <defs>
        <clipPath id="clip0">
            <rect x="0.299988" width="77.6" height="30" fill="white"/>
        </clipPath>
    </defs>
</svg>
