<svg xmlns="http://www.w3.org/2000/svg" fill="none" viewBox="0 0 118 37" height="37" width="118">
<path fill="black" d="M58.6044 25.1652V27.1363H45.8195V25.4L55.6852 12.2242H45.9357V10.2531H58.517V11.9893L48.6501 25.1652H58.6044ZM66.3977 26.9315C65.7076 27.2286 64.9602 27.3694 64.2093 27.3437C63.1596 27.3834 62.1317 27.0383 61.3188 26.3731C60.5605 25.7548 60.1521 24.8142 60.1808 23.8136C60.1521 22.8431 60.5306 21.9025 61.2613 21.2841C61.9908 20.6371 63.1587 20.1374 64.7926 19.8139L67.7705 19.1669V18.6372C67.7896 18.3351 67.7448 18.0324 67.6392 17.7487C67.5335 17.4651 67.3693 17.2069 67.1572 16.9909C66.7487 16.6086 66.1654 16.4313 65.3472 16.4313C64.6928 16.4013 64.0467 16.5874 63.5085 16.9609C63.0027 17.3582 62.6519 17.9198 62.5167 18.5485L60.5306 18.0202C60.8072 17.0009 61.4389 16.114 62.3118 15.5194C63.2127 14.8763 64.2995 14.5459 65.4059 14.5788C66.8362 14.5788 67.9167 14.9311 68.6749 15.6081C69.4344 16.3138 69.8141 17.2844 69.8141 18.5485V24.5494C69.7964 24.7009 69.8195 24.8545 69.881 24.9942C69.9424 25.1338 70.0401 25.2545 70.1639 25.3438C70.4562 25.49 70.8059 25.5187 71.1269 25.4313V27.1376C70.1639 27.255 69.4344 27.1963 68.9085 26.9614C68.3839 26.7553 68.0341 26.2844 67.9167 25.7248C67.5669 26.2544 67.0398 26.6667 66.3977 26.9315ZM66.8362 24.8729C67.4483 24.432 67.7993 23.7262 67.7993 22.9617V20.8432L65.4059 21.3728C64.238 21.6077 63.4198 21.9025 62.9539 22.2847C62.5167 22.637 62.2544 23.1966 62.2544 23.7549C62.2244 24.2846 62.4292 24.8142 62.8365 25.1664C63.3036 25.5199 63.8582 25.7261 64.4428 25.6961C65.3172 25.6673 66.1654 25.4038 66.8362 24.8729ZM81.6047 26.874C80.9093 27.2262 80.1366 27.398 79.3575 27.3737C78.5863 27.3765 77.8257 27.1949 77.139 26.844C76.497 26.4905 75.9424 25.9909 75.5913 25.3451V31.3734H73.4903V14.8149H75.5913V16.6086C75.9809 15.9905 76.524 15.484 77.1678 15.1384C77.8482 14.7709 78.6131 14.5882 79.3862 14.6088C80.1744 14.6088 80.9339 14.7849 81.6634 15.1084C82.3641 15.4619 82.9475 15.9616 83.4147 16.5799C83.8519 17.197 84.1741 17.874 84.3777 18.5785C84.8157 20.1568 84.8157 21.8244 84.3777 23.4027C84.1729 24.1246 83.8366 24.8025 83.3859 25.4025C82.8613 26.0496 82.2767 26.5505 81.6047 26.874ZM76.4682 17.5505C75.8262 18.285 75.5039 19.2855 75.5039 20.5497V21.4328C75.5039 22.6969 75.8262 23.6975 76.4682 24.432C76.7659 24.7599 77.1255 25.0256 77.5265 25.2137C77.9275 25.4018 78.3617 25.5085 78.8042 25.5277C79.2467 25.5468 79.6886 25.4781 80.1043 25.3254C80.52 25.1727 80.9013 24.9391 81.2262 24.6381C81.3424 24.5206 81.4598 24.4032 81.5472 24.2858C82.1893 23.4614 82.509 22.3746 82.509 20.9906C82.509 19.6091 82.1893 18.5211 81.5472 17.6966C81.265 17.3533 80.9175 17.0692 80.5249 16.861C80.1322 16.6528 79.7022 16.5244 79.2596 16.4834C78.817 16.4424 78.3707 16.4896 77.9465 16.6221C77.5223 16.7547 77.1285 16.97 76.788 17.2557C76.7006 17.3431 76.5844 17.4618 76.4682 17.5505ZM88.4087 26.5193C87.9128 26.0196 87.6492 25.2539 87.6492 24.1959V16.6361H85.7518V14.8124H87.6505V11.2249H89.7215V14.8124H92.4946V16.6361H89.7215V23.8711C89.6928 24.2833 89.809 24.7243 90.0713 25.0478C90.3061 25.2839 90.7733 25.4013 91.4154 25.4013C91.6489 25.4013 91.8825 25.4013 92.1149 25.3713C92.3197 25.3426 92.5246 25.3126 92.7282 25.2539V27.0776C92.4393 27.141 92.1475 27.1902 91.8538 27.225C91.5334 27.2593 91.2117 27.2789 90.8895 27.2837C89.7515 27.2537 88.9346 27.0202 88.4087 26.5193ZM97.721 26.9002C96.9943 26.5863 96.3538 26.1021 95.8535 25.4887C95.3557 24.9016 94.9788 24.222 94.7443 23.4889C94.4856 22.6808 94.3574 21.8366 94.3646 20.9881C94.3646 20.1649 94.4807 19.3417 94.7443 18.5473C94.9779 17.8116 95.3564 17.1058 95.8535 16.5175C96.3482 15.903 96.9772 15.4103 97.6923 15.0772C98.4177 14.752 99.2031 14.5818 99.9982 14.5775C101.603 14.5775 102.859 15.1359 103.793 16.2239C104.727 17.3119 105.195 18.7821 105.195 20.6059V21.3116H96.3494C96.4081 22.6057 96.7866 23.635 97.4587 24.4007C97.7849 24.7737 98.1896 25.07 98.6437 25.2682C99.0979 25.4665 99.5903 25.5618 100.086 25.5474C100.815 25.5762 101.516 25.3413 102.129 24.9291C102.684 24.5169 103.092 23.8998 103.238 23.1941L105.106 23.8711C104.787 24.9247 104.118 25.8379 103.21 26.4593C102.284 27.0732 101.198 27.4004 100.087 27.3999C99.2721 27.3991 98.4665 27.2289 97.721 26.9002ZM97.6923 17.2819C97.0405 17.9336 96.6202 18.7808 96.4956 19.694H103.092C103.101 18.8111 102.79 17.9548 102.217 17.2832C101.931 16.9783 101.581 16.7408 101.192 16.5881C100.803 16.4353 100.385 16.3711 99.9682 16.4C99.1225 16.4 98.3056 16.6936 97.6923 17.2819ZM110.067 17.6629C109.395 18.4873 109.074 19.6041 109.074 20.9868C109.074 22.3696 109.395 23.4576 110.067 24.2808C110.382 24.6811 110.786 25.0017 111.247 25.2165C111.709 25.4314 112.214 25.5345 112.723 25.5175C113.437 25.5459 114.136 25.3041 114.679 24.8404C115.234 24.3408 115.614 23.6637 115.76 22.898L117.627 23.7812C117.346 24.8297 116.719 25.7524 115.847 26.3993C114.942 27.0464 113.832 27.3986 112.724 27.3699C111.903 27.376 111.088 27.2158 110.33 26.899C109.603 26.5851 108.962 26.101 108.461 25.4875C107.964 24.8836 107.579 24.1963 107.323 23.4576C106.798 21.8323 106.798 20.0827 107.323 18.4574C107.557 17.7229 107.935 17.0159 108.461 16.4275C108.962 15.814 109.603 15.3299 110.33 15.016C111.083 14.6859 111.9 14.5255 112.723 14.5463C113.829 14.5133 114.916 14.8437 115.817 15.4869C116.664 16.134 117.306 17.0159 117.568 18.0751L115.76 18.987C115.608 18.2442 115.231 17.5663 114.679 17.0458C114.136 16.5822 113.437 16.3404 112.723 16.3688C111.701 16.3988 110.709 16.8397 110.067 17.6629ZM10.7064 25.9896L19.6102 13.873H14.5013L13.3346 12.108H22.9954L15.7566 22.3434L29.0674 20.1075C29.0961 20.1075 29.1548 20.1374 29.1548 20.1662C29.1548 20.1961 29.1548 20.2249 29.1261 20.2549L10.7064 25.9896Z"></path>
<path fill="black" d="M18.1774 36.6946C8.34046 36.6946 0.313538 28.6364 0.313538 18.6946C0.313538 8.75398 8.31173 0.69458 18.1774 0.69458C28.0155 0.69458 36.0425 8.75398 36.0425 18.6946C36.0425 28.6364 28.0443 36.6946 18.1774 36.6946ZM18.1774 2.63573C9.36225 2.63573 2.21097 9.84198 2.21097 18.7246C2.21097 27.6059 9.36225 34.8134 18.1774 34.8134C26.9938 34.8134 34.145 27.6059 34.145 18.7246C34.145 9.84198 26.9938 2.63573 18.1774 2.63573Z"></path>
</svg>
